<?xml version="1.0" encoding="utf-8"?>
<!-- Generator: Adobe Illustrator 19.1.0, SVG Export Plug-In . SVG Version: 6.00 Build 0)  -->
<!DOCTYPE svg PUBLIC "-//W3C//DTD SVG 1.1//EN" "http://www.w3.org/Graphics/SVG/1.1/DTD/svg11.dtd">
<svg version="1.1" id="Layer_1" xmlns="http://www.w3.org/2000/svg" xmlns:xlink="http://www.w3.org/1999/xlink" x="0px" y="0px"
	 viewBox="-241 333 128 128" style="enable-background:new -241 333 128 128;" xml:space="preserve">
<style type="text/css">
	.st0{opacity:0.6;fill:#D1D1D1;enable-background:new    ;}
	.st1{clip-path:url(#SVGID_2_);}
	.st2{fill:#F7F7F7;}
	.st3{fill:#C1272D;}
	.st4{fill:#FFFFFF;}
	.st5{fill:#CCCCCC;}
</style>
<path class="st0" d="M-120.3,461.2h-110c-4,0-7.3-3.2-7.3-7.3v-110c0-4,3.2-7.3,7.3-7.3h110c4,0,7.3,3.2,7.3,7.3v110
	C-113,457.9-116.2,461.2-120.3,461.2z"/>
<g>
	<g>
		<defs>
			<path id="SVGID_1_" d="M-122.5,457.7h-112.3c-3.4,0-6.1-2.7-6.1-6.1V339.3c0-3.4,2.7-6.1,6.1-6.1h112.3c3.4,0,6.1,2.7,6.1,6.1
				v112.3C-116.4,455-119.1,457.7-122.5,457.7z"/>
		</defs>
		<clipPath id="SVGID_2_">
			<use xlink:href="#SVGID_1_"  style="overflow:visible;"/>
		</clipPath>
		<g class="st1">
			<rect x="-243.5" y="331.2" class="st2" width="129.9" height="128"/>
		</g>
	</g>
</g>
<path class="st3" d="M-128.6,392.8c0-5.1-1.5-10.1-4.6-14.7c-2.7-4.1-6.6-7.8-11.4-10.8c-9.3-5.9-21.5-9.2-34.4-9.2
	c-4.3,0-8.5,0.4-12.7,1.1c-2.6-2.4-5.5-4.5-8.7-6.2c-16.9-8.2-30.9-0.2-30.9-0.2s13,10.7,10.9,20.1c-5.8,5.8-9,12.7-9,20
	c0,0,0,0,0,0.1c0,0,0,0,0,0.1c0,7.3,3.2,14.2,9,20c2.1,9.4-10.9,20.1-10.9,20.1s14,8,30.9-0.2c3.2-1.7,6.1-3.8,8.7-6.2
	c4.1,0.7,8.4,1.1,12.7,1.1c12.9,0,25.1-3.3,34.4-9.2c4.8-3.1,8.6-6.7,11.4-10.8c3-4.6,4.6-9.5,4.6-14.7
	C-128.6,392.9-128.6,392.9-128.6,392.8C-128.6,392.8-128.6,392.8-128.6,392.8z"/>
<path class="st4" d="M-178.9,365.4c23.8,0,43.2,12.3,43.2,27.6c0,15.2-19.3,27.6-43.2,27.6c-5.3,0-10.4-0.6-15.1-1.7
	c-4.8,5.7-15.3,13.7-25.5,11.1c3.3-3.6,8.2-9.6,7.2-19.5c-6.1-4.8-9.8-10.8-9.8-17.5C-222,377.7-202.7,365.4-178.9,365.4"/>
<g>
	<g>
		<circle class="st3" cx="-178.9" cy="393.8" r="5.7"/>
	</g>
	<g>
		<circle class="st3" cx="-158.9" cy="393.8" r="5.7"/>
	</g>
	<g>
		<circle class="st3" cx="-198.8" cy="393.8" r="5.7"/>
	</g>
</g>
<g>
	<path class="st5" d="M-178.9,416.9c-5.3,0-10.4-0.5-15.1-1.5c-4.2,4.4-12.9,10.3-21.9,10.1c-1.2,1.8-2.5,3.3-3.6,4.5
		c10.2,2.6,20.7-5.4,25.5-11.1c4.7,1.1,9.8,1.7,15.1,1.7c23.6,0,42.9-12.1,43.2-27.2C-136,406.3-155.2,416.9-178.9,416.9z"/>
</g>
</svg>
