<?xml version="1.0" standalone="no"?>
<!DOCTYPE svg PUBLIC "-//W3C//DTD SVG 20010904//EN"
		"http://www.w3.org/TR/2001/REC-SVG-20010904/DTD/svg10.dtd">
<svg version="1.0" xmlns="http://www.w3.org/2000/svg"
	 width="944.000000pt" height="201.000000pt" viewBox="0 0 944.000000 201.000000"
	 preserveAspectRatio="xMidYMid meet">

	<g transform="translate(0.000000,201.000000) scale(0.100000,-0.100000)"
	   fill="#000000" stroke="none">
		<path d="M1165 1877 c-110 -37 -199 -116 -251 -222 -27 -56 -29 -68 -29 -175
0 -108 2 -119 32 -182 40 -85 97 -146 175 -189 61 -33 67 -34 173 -34 100 0
115 2 160 26 259 137 307 486 94 683 -78 73 -135 98 -234 102 -50 3 -95 -1
-120 -9z m152 -107 c119 -26 206 -145 207 -283 0 -103 -25 -169 -88 -232 -103
-102 -239 -102 -342 0 -63 63 -88 129 -88 232 1 156 107 279 251 292 7 1 34
-4 60 -9z"/>
		<path d="M6018 1883 l-268 -3 0 -405 0 -405 275 0 275 0 0 55 0 55 -215 0
-216 0 3 128 3 127 170 2 c94 1 176 2 183 3 8 0 12 17 12 50 l0 50 -185 0
-185 0 0 115 0 115 210 0 210 0 0 60 c0 33 -1 59 -2 58 -2 -2 -123 -4 -270 -5z"/>
		<path d="M6745 1882 c-15 -2 -28 -24 -52 -85 -18 -45 -87 -219 -154 -387 -67
-168 -124 -313 -126 -322 -5 -16 3 -18 59 -18 l65 0 43 110 42 110 161 -2 161
-3 42 -105 42 -105 66 -3 66 -3 -21 53 c-79 201 -172 438 -229 583 l-68 170
-38 5 c-22 3 -48 4 -59 2z m109 -327 c31 -82 56 -153 56 -157 0 -4 -58 -8
-130 -8 -71 0 -130 2 -130 4 0 4 23 64 122 316 12 32 12 32 82 -155z"/>
		<path d="M7320 1478 l0 -408 280 0 280 0 0 55 0 55 -220 0 -220 0 0 349 0 349
-60 4 -60 3 0 -407z"/>
		<path d="M160 1475 l0 -405 65 0 65 0 0 126 0 125 57 60 c31 32 61 59 67 58 6
0 71 -83 144 -185 l134 -184 70 0 69 0 -19 28 c-11 15 -88 117 -170 227 l-150
199 30 36 c17 19 86 97 154 172 68 76 124 140 124 143 0 3 -30 5 -67 4 l-68 0
-185 -205 -185 -205 -3 205 -2 206 -65 0 -65 0 0 -405z"/>
		<path d="M1840 1475 l0 -405 65 0 65 0 2 290 3 291 120 -221 120 -221 34 3
c34 3 36 7 150 215 64 116 119 215 124 219 4 4 7 -124 7 -284 l0 -292 63 0 62
0 0 405 0 405 -70 0 -70 0 -120 -225 c-66 -124 -127 -234 -135 -245 -14 -18
-23 -5 -146 223 l-132 242 -71 3 -71 3 0 -406z"/>
		<path d="M2890 1475 l0 -405 280 0 280 0 0 55 0 55 -215 0 -215 0 0 130 0 130
180 0 180 0 0 50 0 50 -180 0 -180 0 0 115 0 115 210 0 210 0 0 55 0 55 -275
0 -275 0 0 -405z"/>
		<path d="M3630 1475 l0 -407 198 4 c174 4 204 7 254 27 165 64 261 256 229
454 -23 142 -87 234 -199 289 l-66 33 -208 3 -208 3 0 -406z m395 281 c60 -26
104 -66 132 -124 25 -50 28 -68 28 -152 0 -86 -3 -101 -30 -155 -54 -109 -131
-145 -305 -145 l-90 0 0 295 0 295 115 0 c78 0 127 -5 150 -14z"/>
		<path d="M4840 1475 l0 -405 65 0 65 0 0 180 0 180 205 0 205 0 0 -180 0 -180
65 0 65 0 0 405 0 405 -65 0 -65 0 -2 -167 -3 -168 -200 0 -200 0 -3 168 -2
167 -65 0 -65 0 0 -405z"/>
		<path d="M7830 1825 l0 -55 135 0 135 0 0 -350 0 -350 65 0 65 0 0 350 0 350
135 0 135 0 0 55 0 55 -335 0 -335 0 0 -55z"/>
		<path d="M8660 1475 l0 -405 60 0 60 0 0 180 0 180 210 0 210 0 0 -180 0 -180
65 0 65 0 0 405 0 405 -65 0 -65 0 -2 -167 -3 -168 -205 0 -205 0 -3 168 -2
167 -60 0 -60 0 0 -405z"/>
		<path d="M265 584 c-43 -11 -74 -27 -69 -35 3 -5 2 -9 -3 -8 -22 4 -32 -5 -58
-53 -49 -90 -33 -225 34 -295 24 -25 36 -30 25 -11 -4 7 2 3 14 -9 31 -32 88
-38 153 -15 35 12 54 24 54 34 0 9 4 20 9 25 5 5 6 2 2 -7 -4 -8 2 -4 13 9 12
12 18 27 15 32 -3 5 0 9 5 9 6 0 11 7 11 15 0 9 -9 15 -25 15 -24 0 -29 -9
-28 -48 1 -7 -1 -11 -4 -8 -3 3 -21 -7 -40 -23 -29 -24 -41 -28 -79 -24 -79 6
-96 21 -143 122 -10 21 6 136 23 170 9 16 12 31 8 34 -4 2 -1 2 6 0 7 -1 24 4
38 13 33 22 115 22 148 1 30 -20 36 -21 36 -6 0 5 -5 7 -12 3 -7 -5 -8 -3 -3
5 5 9 10 10 18 2 7 -7 7 -14 -1 -23 -6 -8 -7 -19 -2 -28 9 -15 50 -25 50 -11
0 15 -44 74 -70 92 -26 19 -91 31 -125 23z m192 -310 c-3 -3 -12 -4 -19 -1 -8
3 -5 6 6 6 11 1 17 -2 13 -5z"/>
		<path d="M2548 575 c-3 -3 -3 -17 0 -31 6 -33 37 -28 37 6 0 23 -23 39 -37 25z"/>
		<path d="M3484 565 c-8 -20 2 -45 19 -45 7 0 14 13 15 30 2 21 -2 30 -13 30
-9 0 -18 -7 -21 -15z"/>
		<path d="M4450 550 c0 -23 4 -30 20 -30 16 0 20 7 20 30 0 23 -4 30 -20 30
-16 0 -20 -7 -20 -30z"/>
		<path d="M5084 567 c-2 -7 -3 -102 -2 -212 3 -181 5 -200 21 -203 15 -3 17 7
17 98 0 129 15 162 77 168 18 2 41 -1 51 -7 13 -7 23 -7 32 2 11 10 12 9 5 -3
-6 -8 -9 -70 -7 -138 3 -109 5 -123 20 -120 15 3 17 19 20 114 1 61 -2 123 -8
138 -20 53 -117 69 -156 25 -26 -29 -34 -14 -34 72 0 64 -3 79 -15 79 -9 0
-18 -6 -21 -13z"/>
		<path d="M6080 366 c0 -209 1 -215 20 -213 19 1 20 8 20 214 0 206 -1 213 -20
213 -19 0 -20 -7 -20 -214z"/>
		<path d="M6387 574 c-3 -3 -6 -100 -7 -215 0 -205 0 -209 20 -209 20 0 21 5
19 100 -1 95 0 102 26 140 15 22 30 40 32 40 2 0 1 -4 -2 -10 -4 -6 6 -7 24
-4 20 4 39 1 56 -10 24 -16 25 -19 25 -136 0 -113 1 -120 20 -120 19 0 20 7
20 115 0 139 -11 169 -68 186 -32 9 -44 8 -71 -5 -18 -10 -35 -24 -38 -32 -12
-32 -23 10 -23 89 0 57 -3 77 -13 77 -8 0 -16 -3 -20 -6z m24 -207 c-10 -9
-11 -8 -5 6 3 10 9 15 12 12 3 -3 0 -11 -7 -18z"/>
		<path d="M3343 549 c-14 -14 -17 -35 -5 -42 4 -2 1 -2 -7 0 -9 2 -12 -4 -9
-22 4 -21 1 -25 -18 -25 -28 0 -27 -32 2 -40 17 -5 19 -15 19 -117 0 -125 6
-138 64 -149 30 -6 33 -5 29 17 -2 14 -9 23 -17 21 -32 -7 -41 19 -41 124 l0
104 30 0 c20 0 30 5 30 15 0 14 -5 17 -40 19 -11 1 -16 16 -20 54 -4 43 -7 51
-17 41z"/>
		<path d="M6234 539 c-11 -19 -6 -71 8 -81 8 -5 2 -7 -17 -3 -25 4 -31 1 -32
-16 -1 -13 4 -19 15 -17 15 3 18 -12 22 -122 5 -120 6 -125 30 -137 37 -19 60
-16 60 6 0 12 -9 21 -25 25 -14 4 -25 12 -25 19 -7 201 -6 206 20 209 14 2 26
10 28 21 3 13 -3 17 -27 17 -24 0 -29 3 -24 17 5 12 3 14 -7 8 -9 -5 -11 -4
-6 4 14 22 14 61 0 61 -7 0 -16 -5 -20 -11z"/>
		<path d="M629 450 c-40 -12 -75 -38 -87 -66 -28 -60 -4 -199 30 -178 7 5 8 2
3 -6 -9 -15 7 -26 57 -40 29 -8 45 -7 72 4 19 8 38 11 42 8 4 -4 4 -2 1 4 -4
6 5 16 19 23 17 7 24 17 20 27 -3 8 -2 12 4 9 14 -9 18 81 6 131 -8 32 -52 78
-66 69 -8 -5 -11 -4 -7 2 4 6 -7 13 -24 17 -36 7 -35 7 -70 -4z m90 -46 c34
-25 49 -67 41 -121 -9 -61 -45 -93 -101 -93 -28 0 -38 -4 -33 -12 5 -7 3 -8
-5 -4 -7 5 -10 10 -7 13 3 3 -6 19 -19 35 -20 24 -25 41 -25 85 0 47 4 59 29
84 34 34 83 39 120 13z"/>
		<path d="M881 304 c-2 -144 0 -155 16 -152 15 3 19 18 23 108 6 118 12 138 47
151 77 29 93 5 93 -136 0 -112 5 -130 32 -120 10 4 12 25 10 83 -4 96 6 140
38 163 32 22 75 36 66 20 -4 -6 -1 -11 8 -11 27 0 36 -37 36 -150 0 -101 2
-111 18 -108 15 3 17 18 20 118 2 128 -6 157 -52 178 -31 15 -81 8 -70 -10 4
-7 3 -8 -5 -4 -6 4 -23 -2 -37 -13 l-26 -20 -21 24 c-34 36 -76 40 -119 11
-38 -26 -48 -24 -48 6 0 10 -6 18 -14 18 -12 0 -15 -29 -15 -156z"/>
		<path d="M1380 304 c0 -143 1 -155 18 -152 15 3 18 19 22 113 3 61 9 116 13
123 10 15 57 37 72 33 6 -2 16 -4 23 -5 28 -5 33 -28 35 -142 2 -104 4 -119
20 -122 15 -3 17 6 18 85 1 89 2 105 13 140 4 14 -4 27 -36 51 -49 38 -68 40
-117 10 -48 -30 -59 -31 -53 -2 3 17 0 24 -12 24 -14 0 -16 -19 -16 -156z"/>
		<path d="M1680 450 c0 -5 -6 -7 -13 -4 -14 5 -54 -32 -45 -41 3 -3 17 -1 31 6
16 7 37 8 54 4 15 -5 30 -8 33 -7 3 0 7 -56 9 -126 1 -70 4 -129 6 -131 2 -2
11 -1 20 2 12 5 15 27 15 121 0 67 -4 117 -10 121 -6 4 -8 10 -5 15 6 10 -56
50 -79 50 -9 0 -16 -4 -16 -10z"/>
		<path d="M1880 334 c0 -92 3 -123 12 -118 7 4 8 3 4 -5 -10 -16 27 -48 64 -56
31 -7 61 5 98 38 l22 20 0 -32 c0 -26 4 -32 18 -29 15 3 17 18 17 153 0 132
-2 150 -17 153 -14 3 -17 -11 -20 -109 l-3 -111 -33 -28 c-29 -24 -38 -27 -65
-19 -51 14 -57 31 -57 156 0 106 -1 113 -20 113 -19 0 -20 -7 -20 -126z"/>
		<path d="M2215 438 c-3 -13 -4 -81 -3 -153 3 -111 5 -130 19 -133 15 -3 17 12
21 107 3 99 6 113 26 133 15 16 34 23 62 23 65 0 73 -16 71 -141 -2 -104 3
-123 32 -124 4 0 7 58 7 128 0 111 -3 131 -17 144 -53 43 -119 44 -153 1 -21
-27 -20 -28 -36 25 -6 20 -23 14 -29 -10z"/>
		<path d="M2548 438 c-2 -13 -2 -83 0 -156 3 -119 5 -133 20 -130 15 3 17 20
17 153 0 132 -2 150 -17 153 -11 2 -18 -5 -20 -20z"/>
		<path d="M2740 443 c-50 -26 -75 -75 -74 -146 1 -68 21 -103 78 -131 38 -19
106 -16 106 5 0 6 4 8 9 5 13 -8 54 41 46 55 -5 8 -4 10 3 5 7 -4 12 -1 12 8
0 27 -34 18 -52 -13 -28 -51 -112 -54 -144 -6 -21 33 -21 127 0 159 22 35 79
44 122 21 19 -10 31 -22 28 -26 -3 -5 4 -9 15 -9 55 0 -14 79 -75 86 -26 3
-51 -1 -74 -13z"/>
		<path d="M3045 445 c-22 -8 -48 -24 -58 -37 -18 -21 -18 -23 0 -36 15 -11 18
-11 21 2 2 9 8 16 14 16 5 0 8 6 5 13 -3 9 11 13 54 15 48 3 61 0 79 -18 42
-42 20 -59 -94 -75 -57 -8 -118 -57 -97 -78 6 -6 11 -16 11 -22 0 -5 -5 -3
-11 5 -8 12 -9 11 -6 -5 2 -11 8 -19 15 -18 6 2 9 -4 6 -12 -4 -11 5 -20 31
-31 40 -16 80 -12 130 14 44 23 52 23 47 -4 -3 -20 0 -24 18 -24 16 0 20 4 16
16 -3 9 -6 65 -6 125 0 106 -1 111 -27 135 -15 14 -33 22 -40 20 -7 -3 -13 -1
-13 4 0 14 -48 11 -95 -5z m133 -167 c-6 -59 -30 -82 -97 -88 -33 -3 -58 -4
-56 -1 3 2 -5 17 -17 34 -12 17 -17 27 -10 23 7 -4 12 -1 12 8 0 21 14 28 84
42 90 17 88 18 84 -18z"/>
		<path d="M3484 447 c-2 -7 -3 -76 -2 -152 3 -125 5 -140 21 -143 17 -3 18 7
16 152 -1 128 -3 156 -15 156 -8 0 -17 -6 -20 -13z"/>
		<path d="M3692 453 c-13 -2 -19 -9 -16 -15 5 -7 2 -8 -6 -3 -15 10 -63 -43
-55 -62 2 -8 1 -12 -4 -9 -11 7 -22 -62 -15 -94 9 -41 26 -69 46 -76 10 -3 16
-9 13 -14 -7 -11 37 -24 81 -24 44 0 96 24 90 41 -3 8 -2 11 3 8 33 -20 56
121 29 180 -21 47 -104 81 -166 68z m109 -62 c25 -25 29 -37 29 -84 0 -44 -5
-61 -25 -85 -13 -16 -22 -31 -20 -34 3 -2 -18 -1 -47 2 -69 9 -98 41 -98 110
0 84 28 118 98 119 24 1 42 -7 63 -28z"/>
		<path d="M3950 304 c0 -138 2 -155 16 -150 9 3 18 6 20 6 2 0 4 49 4 108 0 94
3 111 19 126 30 27 82 31 111 8 23 -19 25 -27 28 -137 4 -101 6 -116 21 -113
14 3 16 20 17 113 2 128 -10 168 -58 184 -38 13 -71 14 -64 2 4 -5 -2 -7 -12
-4 -10 2 -26 -5 -36 -16 -26 -29 -44 -27 -38 4 3 18 0 25 -12 25 -14 0 -16
-19 -16 -156z"/>
		<path d="M4450 304 c0 -143 1 -155 18 -152 15 3 17 20 20 156 2 147 2 152 -18
152 -19 0 -20 -6 -20 -156z"/>
		<path d="M4585 448 c-3 -8 -4 -77 -3 -153 3 -124 5 -140 21 -143 15 -3 17 7
17 105 1 69 5 114 13 124 22 29 57 41 96 33 20 -4 39 -7 42 -6 4 1 6 -4 6 -11
0 -7 1 -65 1 -129 2 -112 3 -118 23 -118 20 0 20 4 17 131 -3 125 -4 131 -28
149 -14 11 -31 18 -37 15 -7 -2 -13 1 -13 7 0 16 -56 2 -91 -23 -28 -20 -31
-19 -33 10 -1 19 -25 26 -31 9z"/>
		<path d="M5497 450 c-54 -16 -79 -52 -29 -43 44 9 106 8 126 -2 15 -7 18 -5
11 6 -4 8 -4 11 0 6 5 -4 10 -15 11 -25 0 -9 4 -28 8 -42 l7 -25 -97 3 c-103
4 -101 2 -78 56 5 13 4 17 -4 12 -6 -3 -14 -1 -18 5 -13 22 -33 -35 -34 -99 0
-53 4 -67 24 -87 13 -13 22 -26 20 -28 -3 -3 14 -12 38 -21 70 -28 142 -6 173
54 15 29 15 30 -7 30 -12 0 -32 -12 -43 -26 -15 -19 -35 -29 -68 -34 -30 -4
-44 -3 -40 3 4 6 0 8 -10 4 -10 -4 -16 -2 -14 6 1 7 -3 11 -9 10 -11 -2 -13 3
-17 51 l-2 28 112 -1 111 -2 0 35 c0 46 -34 96 -78 118 -39 19 -52 20 -93 8z
m-69 -225 c-3 -3 -9 2 -12 12 -6 14 -5 15 5 6 7 -7 10 -15 7 -18z"/>
		<path d="M5802 439 c-48 -24 -70 -60 -44 -70 10 -4 25 5 40 23 19 23 32 28 68
28 48 0 88 -28 82 -58 -3 -16 -19 -21 -122 -37 -46 -8 -96 -53 -96 -87 0 -80
123 -113 193 -51 15 13 21 15 24 5 7 -17 32 -42 45 -42 5 0 7 7 4 16 -3 9 -6
64 -6 124 0 140 -5 148 -115 166 -19 3 -45 -3 -73 -17z m147 -161 c-2 -18 -8
-40 -15 -48 -7 -8 -13 -19 -13 -25 0 -5 -27 -11 -60 -13 -54 -3 -61 -1 -76 22
-26 39 -7 62 62 76 32 6 63 13 68 15 29 10 36 4 34 -27z"/>
		<path d="M6792 449 c-50 -15 -92 -79 -92 -141 0 -43 21 -108 36 -108 3 0 2 5
-2 12 -4 7 -3 8 4 4 6 -4 9 -13 6 -20 -8 -20 70 -48 112 -40 36 7 84 42 87 65
2 8 6 20 11 27 6 10 3 13 -13 10 -12 -1 -20 -5 -19 -8 8 -14 -45 -53 -81 -60
-22 -4 -38 -3 -35 1 3 5 -1 9 -9 9 -41 0 -75 111 -49 162 30 61 104 78 146 33
22 -24 56 -34 56 -17 0 4 -7 18 -16 30 -26 38 -90 56 -142 41z"/>
		<path d="M7095 453 c-32 -8 -72 -41 -78 -63 -7 -29 17 -26 48 6 23 23 33 26
76 22 57 -6 67 -13 71 -48 3 -23 -1 -26 -60 -35 -35 -6 -60 -14 -56 -18 5 -4
1 -5 -8 -2 -20 8 -73 -19 -82 -40 -10 -26 -7 -67 4 -60 5 3 7 0 5 -8 -3 -7 4
-22 15 -32 31 -28 110 -26 149 3 37 27 39 27 43 0 2 -15 11 -24 27 -26 15 -3
21 0 16 8 -4 6 -8 59 -9 118 -2 63 -8 118 -16 134 -18 38 -83 56 -145 41z
m118 -145 c6 -21 -10 -80 -28 -97 -11 -11 -35 -16 -78 -17 l-62 -1 -2 30 c-3
43 10 55 78 68 33 6 62 16 65 20 8 13 22 11 27 -3z m-180 -33 c-3 -9 -8 -14
-10 -11 -3 3 -2 9 2 15 9 16 15 13 8 -4z"/>
		<path d="M7350 304 c0 -143 1 -155 18 -152 15 3 17 17 18 103 1 55 7 112 13
127 10 28 48 45 75 35 8 -3 17 1 20 10 8 19 8 18 -27 27 -21 5 -33 1 -52 -18
-25 -25 -35 -24 -35 6 0 10 -7 18 -15 18 -13 0 -15 -24 -15 -156z"/>
		<path d="M7613 441 c-68 -32 -97 -106 -73 -192 13 -45 48 -76 104 -90 39 -10
50 -8 82 7 21 11 42 28 48 39 6 11 15 23 21 27 13 9 -21 22 -35 13 -6 -4 -9
-14 -8 -23 2 -9 -2 -17 -9 -17 -6 0 -15 -3 -19 -8 -11 -11 -73 -8 -97 5 -32
17 -43 30 -49 61 l-5 27 112 0 c89 0 114 3 118 14 6 16 -4 61 -22 95 -14 26
-67 54 -87 47 -9 -3 -12 -1 -9 4 10 16 -27 11 -72 -9z m107 -36 c17 -9 30 -20
30 -26 0 -6 3 -8 8 -6 4 3 7 -6 7 -19 0 -24 -1 -24 -92 -24 -78 0 -93 3 -93
16 0 61 75 92 140 59z"/>
	</g>
</svg>
