<?xml version="1.0" encoding="utf-8"?>
<!-- Generator: Adobe Illustrator 19.1.0, SVG Export Plug-In . SVG Version: 6.00 Build 0)  -->
<!DOCTYPE svg PUBLIC "-//W3C//DTD SVG 1.1//EN" "http://www.w3.org/Graphics/SVG/1.1/DTD/svg11.dtd">
<svg version="1.1" id="Layer_1" xmlns="http://www.w3.org/2000/svg" xmlns:xlink="http://www.w3.org/1999/xlink" x="0px" y="0px"
	 viewBox="-230 322 150 150" style="enable-background:new -230 322 150 150;" xml:space="preserve">
<style type="text/css">
	.st0{fill:#F7F7F7;}
	.st1{fill:#C1272D;}
	.st2{fill:#FFFFFF;}
	.st3{fill:#CCCCCC;}
</style>
<g>
	<rect x="-230" y="322" class="st0" width="150" height="150"/>
</g>
<path class="st1" d="M-90.2,395.1c0-6.5-2-12.8-5.8-18.6c-3.5-5.2-8.3-9.8-14.4-13.7c-11.8-7.5-27.2-11.7-43.5-11.7
	c-5.4,0-10.8,0.5-16,1.4c-3.2-3-7-5.7-11-7.9c-21.4-10.4-39.1-0.2-39.1-0.2s16.5,13.5,13.8,25.4c-7.4,7.3-11.4,16.1-11.4,25.3
	c0,0,0,0.1,0,0.1c0,0,0,0.1,0,0.1c0,9.2,4,18,11.4,25.3c2.7,11.9-13.8,25.4-13.8,25.4s17.7,10.1,39.1-0.2c4-2.2,7.8-4.9,11-7.9
	c5.2,0.9,10.6,1.4,16,1.4c16.3,0,31.8-4.1,43.5-11.6c6.1-3.9,10.9-8.5,14.4-13.7c3.8-5.8,5.8-12.1,5.8-18.6
	C-90.2,395.3-90.2,395.3-90.2,395.1C-90.2,395.2-90.2,395.2-90.2,395.1z"/>
<path class="st2" d="M-153.9,360.4c30.2,0,54.7,15.6,54.7,34.9c0,19.3-24.5,34.9-54.7,34.9c-6.7,0-13.2-0.8-19.1-2.2
	c-6,7.3-19.3,17.4-32.3,14.1c4.2-4.5,10.4-12.1,9.1-24.7c-7.7-6-12.4-13.7-12.4-22.1C-208.6,376-184.1,360.4-153.9,360.4"/>
<g>
	<g>
		<circle class="st1" cx="-153.9" cy="396.4" r="7.3"/>
	</g>
	<g>
		<circle class="st1" cx="-128.7" cy="396.4" r="7.3"/>
	</g>
	<g>
		<circle class="st1" cx="-179.2" cy="396.4" r="7.3"/>
	</g>
</g>
<g>
	<path class="st3" d="M-153.9,425.6c-6.7,0-13.2-0.7-19.1-1.9c-5.3,5.6-16.3,13-27.7,12.8c-1.5,2.3-3.1,4.1-4.5,5.6
		c12.9,3.3,26.2-6.8,32.3-14.1c5.9,1.4,12.4,2.2,19.1,2.2c30,0,54.3-15.4,54.7-34.5C-99.7,412.3-124,425.6-153.9,425.6z"/>
</g>
</svg>
