<?xml version="1.0" encoding="UTF-8"?>
<svg version="1.1" viewBox="0 0 1500 272" xmlns="http://www.w3.org/2000/svg">
  <g fill="none" fill-rule="evenodd">
    <g transform="translate(367.73 44.373)" fill-rule="nonzero">
      <path class="text" d="m93.858 88.273c0 15.237-5.6869 25.243-16.607 30.016l15.699 59.582c0.68116 2.7339-0.68116 4.092-3.1858 4.092h-23.663c-2.2741 0-3.4093-1.1347-3.867-3.1842l-15.244-57.759h-15.699v57.309c0 2.2765-1.3623 3.6346-3.6399 3.6346h-23.663c-2.2741 0-3.6399-1.3652-3.6399-3.6346v-174.65c0-2.2729 1.3659-3.6381 3.6399-3.6381h57.107c21.385 0 32.763 11.372 32.763 32.746v55.49zm-40.043 2.7268c5.914 0 9.0998-3.1842 9.0998-9.0952v-42.753c0-5.911-3.1858-9.0917-9.0998-9.0917h-22.524v60.943l22.524-0.0035459z"/>
      <path class="text" d="m112.05 32.783c0-21.375 11.374-32.746 32.763-32.746h25.483c21.385 0 32.763 11.372 32.763 32.746v116.43c0 21.371-11.377 32.743-32.763 32.743h-25.483c-21.389 0-32.763-11.372-32.763-32.743v-116.43zm52.555 119.84c5.914 0 9.0998-2.9573 9.0998-9.0952v-105.06c0-5.911-3.1858-9.0952-9.0998-9.0952h-13.194c-5.914 0-9.0998 3.1842-9.0998 9.0952v105.06c0 6.1344 3.1858 9.0917 9.0998 9.0917h13.194z"/>
      <path class="text" d="m317.03 57.342c0 2.2765-1.3659 3.6381-3.6364 3.6381h-22.751c-2.5047 0-3.6399-1.3616-3.6399-3.6381v-18.19c0-5.911-3.1823-9.0917-9.0963-9.0917h-11.832c-6.141 0-9.0998 3.1807-9.0998 9.0917v103.7c0 6.138 3.1823 9.0881 9.0998 9.0881h11.832c5.914 0 9.0963-2.9537 9.0963-9.0881v-18.198c0-2.2765 1.1353-3.6381 3.6399-3.6381h22.751c2.2812 0 3.6364 1.3616 3.6364 3.6381v24.562c0 21.371-11.604 32.743-32.759 32.743h-25.483c-21.385 0-32.99-11.372-32.99-32.743v-116.44c0-21.375 11.604-32.746 32.99-32.746h25.483c21.158 0 32.759 11.372 32.759 32.746v24.559z"/>
      <path class="text" d="m413.03 181.96c-2.7353 0-4.3211-1.1347-5.2364-3.4076l-28.662-67.542-8.4222 16.148v50.253c0 2.9573-1.5894 4.5494-4.5481 4.5494h-21.843c-2.9588 0-4.5517-1.5921-4.5517-4.5494v-172.83c0-2.9537 1.5929-4.5494 4.5517-4.5494h21.843c2.9552 0 4.5481 1.5921 4.5481 4.5494v70.496l35.037-71.634c1.1388-2.2729 2.7353-3.4112 5.2364-3.4112h23.887c3.4129 0 4.7787 2.2765 3.1823 5.4571l-38.673 79.364 41.174 91.874c1.5929 2.9573 0.22705 5.2302-3.4093 5.2302h-24.114z"/>
      <path class="text" d="m547.94 26.418c0 2.2729-0.91176 3.865-3.6399 3.865h-56.88v45.48h43.456c2.2812 0 3.6399 1.3652 3.6399 3.865v22.513c0 2.5034-1.3659 3.8686-3.6399 3.8686h-43.456v45.934h56.88c2.7353 0 3.6399 1.1382 3.6399 3.6381v22.743c0 2.2729-0.91176 3.631-3.6399 3.631h-83.725c-2.0506 0-3.4164-1.3652-3.4164-3.631v-174.65c0-2.2729 1.3659-3.6381 3.4164-3.6381h83.725c2.7353 0 3.6399 1.3652 3.6399 3.6381v22.743z"/>
      <path class="text" d="m653.5 0.036637c2.5011 0 3.6399 1.3652 3.6399 3.6381v22.743c0 2.2729-1.1388 3.6381-3.6399 3.6381h-26.391v148.27c0 2.4999-1.1353 3.631-3.6364 3.631h-23.663c-2.2812 0-3.6399-1.1311-3.6399-3.631v-148.27h-26.388c-2.2812 0-3.6399-1.3652-3.6399-3.6381v-22.743c0-2.2729 1.3659-3.6381 3.6399-3.6381h83.718z"/>
      <path class="text" d="m654.88 156.53c0-2.9573 1.5929-4.5458 4.5517-4.5458h20.704c2.9588 0 4.5481 1.5886 4.5481 4.5458v20.917c0 2.9608-1.5894 4.5494-4.5481 4.5494h-20.704c-2.9588 0-4.5517-1.5886-4.5517-4.5494v-20.917z"/>
      <path class="text" d="m798.63 57.342c0 2.2765-1.3694 3.6381-3.6399 3.6381h-22.751c-2.5011 0-3.6364-1.3616-3.6364-3.6381v-18.19c0-5.911-3.1823-9.0917-9.0963-9.0917h-11.832c-6.1446 0-9.0998 3.1807-9.0998 9.0917v103.7c0 6.138 3.1823 9.0881 9.0998 9.0881h11.832c5.914 0 9.0963-2.9537 9.0963-9.0881v-18.198c0-2.2765 1.1353-3.6381 3.6364-3.6381h22.751c2.2812 0 3.6399 1.3616 3.6399 3.6381v24.562c0 21.371-11.604 32.743-32.763 32.743h-25.483c-21.385 0-32.99-11.372-32.99-32.743v-116.44c0-21.375 11.604-32.746 32.99-32.746h25.483c21.162 0 32.763 11.372 32.763 32.746v24.559z"/>
      <path class="text" d="m881.44 3.6747c0-2.2729 1.3623-3.6381 3.6364-3.6381h23.432c2.7317 0 3.8634 1.3652 3.8634 3.6381v174.65c0 2.2729-1.1353 3.631-3.8634 3.631h-23.432c-2.2812 0-3.6364-1.3652-3.6364-3.631v-72.315h-29.123v72.319c0 2.2765-1.3659 3.6346-3.6399 3.6346h-23.429c-2.7353 0-3.8705-1.3652-3.8705-3.6346v-174.65c0-2.2729 1.1353-3.6381 3.8705-3.6381h23.429c2.2812 0 3.6399 1.3652 3.6399 3.6381v72.315h29.123v-72.315z"/>
      <path class="text" d="m1016.1 181.96c-2.047 0-3.1823-1.1347-3.6399-3.1842l-6.3681-33.197h-40.5l-6.1375 33.197c-0.45765 2.0495-1.5929 3.1842-3.6399 3.1842h-24.341c-2.5011 0-3.6399-1.3652-2.9623-3.865l37.769-174.88c0.45765-2.2729 1.82-3.1842 3.867-3.1842h31.628c2.047 0 3.4129 0.9113 3.867 3.1842l37.769 174.88c0.45765 2.4999-0.45411 3.865-3.1823 3.865h-24.128zm-30.262-142.13l-14.56 79.364h29.123l-14.563-79.364z"/>
      <path class="text" d="m1128.5 0.036637c2.5011 0 3.6399 1.3652 3.6399 3.6381v22.743c0 2.2729-1.1388 3.6381-3.6399 3.6381h-26.388v148.27c0 2.4999-1.1388 3.631-3.6399 3.631h-23.663c-2.2741 0-3.6364-1.1311-3.6364-3.631v-148.27h-26.388c-2.2776 0-3.6364-1.3652-3.6364-3.6381v-22.743c0-2.2729 1.3659-3.6381 3.6364-3.6381h83.715z"/>
    </g>
    <path class="rocket" d="m270.5 105.32l0.004003 0.006248c-6.67e-4 -0.001041-0.001334-0.002083-0.002002-0.003124-6.67e-4 -0.001041-0.001334-0.002083-0.002001-0.003124zm-177.56-93.85c9.5081 5.2808 18.496 11.962 26.171 19.388 12.373-2.2409 25.13-3.3709 38.072-3.3709 38.744 0 75.477 10.164 103.42 28.613 14.473 9.5589 25.977 20.9 34.189 33.712 9.1447 14.276 13.78 29.629 13.78 46.079 0 16.008-4.6355 31.366-13.78 45.64-8.2114 12.818-19.715 24.157-34.189 33.716-27.948 18.449-64.678 28.607-103.42 28.607-12.942 0-25.697-1.13-38.072-3.3677-7.6786 7.423-16.663 14.108-26.171 19.388-50.802 25.443-92.931 0.59843-92.931 0.59843s39.169-33.254 32.799-62.405c-17.525-17.962-27.021-39.627-27.021-62.612 0-22.552 9.4989-44.217 27.021-62.182 6.3685-29.143-32.786-62.391-32.799-62.402 0.012528-0.0073926 42.136-24.844 92.931 0.59842z" fill="#DB2323" fill-rule="nonzero" />
    <path d="m62.545 186.04c-17.412-13.722-27.863-31.281-27.863-50.419 0-43.916 55.032-79.517 122.92-79.517 67.885 0 122.92 35.601 122.92 79.517 0 43.916-55.032 79.517-122.92 79.517-16.731 0-32.681-2.1625-47.219-6.079l-10.629 10.251c-5.7752 5.5698-12.544 10.61-19.6 14.582-9.3523 4.5928-18.588 7.0986-27.725 7.8632 0.51543-0.93708 0.99005-1.8864 1.4996-2.8249 10.65-19.618 13.523-37.248 8.6189-52.89z" fill="#fff"/>
    <path class="rocket" d="m98.656 154.54c-9.9802 0-18.071-8.2205-18.071-18.361 0-10.141 8.0905-18.361 18.071-18.361 9.9802 0 18.071 8.2205 18.071 18.361 0 10.141-8.0905 18.361-18.071 18.361zm58.179 0c-9.9802 0-18.071-8.2205-18.071-18.361 0-10.141 8.0905-18.361 18.071-18.361s18.071 8.2205 18.071 18.361c0 10.141-8.0905 18.361-18.071 18.361zm58.179 0c-9.9802 0-18.071-8.2205-18.071-18.361 0-10.141 8.0905-18.361 18.071-18.361 9.9802 0 18.071 8.2205 18.071 18.361 0 10.141-8.0905 18.361-18.071 18.361z" fill="#DB2323" fill-rule="nonzero"/>
  </g>
</svg>
