<svg viewBox="0 0 654 111" fill="none" xmlns="http://www.w3.org/2000/svg">
	<path d="M630.178 13.3765H642.452V30.2808H653.808V41.4023H642.452V71.607H653.193V82.528C651.453 82.935 649.305 83.141 646.849 83.141C635.7 83.141 630.174 77.326 630.174 65.692V13.3765H630.178Z" fill="#F5455C"/>
	<path d="M606.995 37.7303V30.2809H619.268V81.708H606.995V74.259C605.255 79.259 599.017 82.83 590.526 82.83C583.265 82.83 577.123 80.28 572.111 75.179C567.2 69.973 564.744 63.65 564.744 55.994C564.744 48.339 567.2 42.0159 572.111 36.9107C577.123 31.7048 583.26 29.1545 590.526 29.1545C599.013 29.1591 605.255 32.7305 606.995 37.7303ZM603.309 67.221C606.38 64.263 607.913 60.486 607.913 55.999C607.913 51.512 606.38 47.735 603.309 44.7722C600.344 41.8145 596.557 40.2806 592.16 40.2806C587.763 40.2806 584.183 41.8099 581.213 44.7722C578.349 47.73 576.917 51.507 576.917 55.999C576.917 60.491 578.349 64.263 581.213 67.221C584.178 70.179 587.758 71.713 592.16 71.713C596.562 71.713 600.344 70.179 603.309 67.221Z" fill="#F5455C"/>
	<path d="M152.724 81.708V30.2808H164.896V37.9317C167.352 32.5243 172.979 29.2598 180.24 29.2598C181.672 29.2598 182.903 29.3605 183.922 29.5665V41.4023C182.388 41.0955 180.649 40.8941 178.808 40.8941C170.317 40.8941 164.896 46.201 164.896 54.671V81.713H152.724V81.708Z" fill="#F5455C"/>
	<path d="M186.992 55.995C186.992 48.339 189.755 41.8099 195.176 36.604C200.597 31.3981 207.248 28.7471 215.124 28.7471C223 28.7471 229.651 31.3981 235.072 36.604C240.493 41.8099 243.256 48.339 243.256 55.995C243.256 63.645 240.493 70.179 235.072 75.38C229.651 80.586 223 83.237 215.124 83.237C207.248 83.237 200.597 80.586 195.176 75.38C189.755 70.179 186.992 63.645 186.992 55.995ZM226.479 67.524C229.55 64.36 231.083 60.582 231.083 55.995C231.083 51.402 229.55 47.625 226.479 44.5662C223.409 41.4024 219.627 39.8731 215.124 39.8731C210.52 39.8731 206.738 41.4024 203.667 44.5662C200.702 47.629 199.165 51.402 199.165 55.995C199.165 60.587 200.698 64.36 203.667 67.524C206.738 70.587 210.52 72.116 215.124 72.116C219.627 72.116 223.409 70.587 226.479 67.524Z" fill="#F5455C"/>
	<path d="M294.3 33.852V46.095C289.903 41.9104 284.583 39.7676 278.446 39.7676C273.641 39.7676 269.647 41.2969 266.48 44.36C263.309 47.423 261.776 51.301 261.776 55.889C261.776 60.481 263.309 64.359 266.48 67.418C269.652 70.481 273.641 72.01 278.446 72.01C284.689 72.01 290.004 69.868 294.3 65.683V77.926C290.004 81.397 284.482 83.132 277.73 83.132C269.753 83.132 263.102 80.582 257.682 75.376C252.261 70.17 249.599 63.741 249.599 55.884C249.599 48.027 252.256 41.5991 257.682 36.3932C263.102 31.1873 269.753 28.637 277.73 28.637C284.377 28.6461 289.903 30.3814 294.3 33.852Z" fill="#F5455C"/>
	<path d="M303.407 81.708V13.3765H315.58V52.217L332.971 30.2762H346.883L327.344 54.868L348.517 81.703H334.197L315.58 57.927V81.703H303.407V81.708Z" fill="#F5455C"/>
	<path d="M348.824 55.994C348.824 47.931 351.28 41.4023 356.292 36.5031C361.304 31.5033 367.749 29.0537 375.524 29.0537C382.992 29.0537 389.028 31.5033 393.631 36.5031C398.336 41.4023 400.691 47.524 400.691 54.767C400.691 56.297 400.59 57.83 400.484 59.154H360.997C361.405 67.317 367.441 72.523 376.548 72.523C384.63 72.523 390.767 70.586 395.063 66.603V78.031C390.051 81.502 383.708 83.237 376.038 83.237C367.955 83.237 361.309 80.788 356.297 75.994C351.284 71.095 348.829 64.566 348.829 56.503V55.994H348.824ZM388.206 50.486C388.206 47.528 386.98 44.8729 384.525 42.7301C382.069 40.5873 379.104 39.4655 375.524 39.4655C371.737 39.4655 368.465 40.5873 365.706 42.7301C362.943 44.8729 361.511 47.423 361.309 50.486H388.206Z" fill="#F5455C"/>
	<path d="M409.944 13.3765H422.218V30.2808H433.573V41.4023H422.218V71.607H432.958V82.528C431.218 82.935 429.07 83.141 426.615 83.141C415.466 83.141 409.939 77.326 409.939 65.692V13.3765H409.944Z" fill="#F5455C"/>
	<path d="M445.713 68.215C441.642 68.215 438.342 71.493 438.342 75.536C438.342 79.579 441.642 82.857 445.713 82.857C449.785 82.857 453.085 79.579 453.085 75.536C453.085 71.493 449.785 68.215 445.713 68.215Z" fill="#F5455C"/>
	<path d="M501.22 33.852V46.095C496.823 41.9104 491.503 39.7676 485.366 39.7676C480.561 39.7676 476.567 41.2969 473.4 44.36C470.229 47.423 468.696 51.301 468.696 55.889C468.696 60.481 470.229 64.359 473.4 67.418C476.572 70.481 480.561 72.01 485.366 72.01C491.604 72.01 496.924 69.868 501.22 65.683V77.926C496.924 81.397 491.402 83.132 484.65 83.132C476.673 83.132 470.022 80.582 464.601 75.376C459.181 70.17 456.519 63.741 456.519 55.884C456.519 48.027 459.176 41.5991 464.601 36.3932C470.022 31.1873 476.673 28.637 484.65 28.637C491.297 28.6461 496.823 30.3814 501.22 33.852Z" fill="#F5455C"/>
	<path d="M510.326 81.708V13.3765H522.499V37.4234C524.853 32.5243 530.476 29.2597 537.535 29.2597C549.4 29.2597 556.359 37.1167 556.359 49.873V81.708H544.186V51.603C544.186 44.5615 540.399 40.1752 533.854 40.1752C527.203 40.1752 522.499 45.074 522.499 52.112V81.703H510.326V81.708Z" fill="#F5455C"/>
	<path d="M117.643 36.8055C114.307 31.6179 109.629 27.0255 103.75 23.152C92.39 15.6796 77.463 11.5635 61.72 11.5635C56.46 11.5635 51.277 12.0213 46.247 12.9279C43.126 9.91971 39.4767 7.2138 35.612 5.0755C21.273 -2.0809 8.63231 0.588505 2.24771 2.8824C0.150107 3.6378 -0.497094 6.298 1.05431 7.896C5.55701 12.5479 13.0065 21.7418 11.1751 30.1023C4.05151 37.3824 0.191406 46.155 0.191406 55.289C0.191406 64.598 4.05151 73.37 11.1705 80.646C13.0019 89.006 5.55251 98.205 1.04971 102.857C-0.497091 104.455 0.145507 107.11 2.24311 107.866C8.62771 110.164 21.2638 112.834 35.6074 105.677C39.4721 103.539 43.121 100.833 46.242 97.825C51.273 98.731 56.455 99.189 61.715 99.189C77.463 99.189 92.39 95.078 103.745 87.605C109.625 83.732 114.302 79.144 117.639 73.952C121.357 68.174 123.239 61.951 123.239 55.468C123.243 48.801 121.357 42.5883 117.643 36.8055ZM61.077 88.397C54.27 88.397 47.78 87.518 41.8635 85.93L37.5398 90.092C35.1897 92.353 32.4358 94.4 29.5625 96.012C25.7574 97.875 21.9982 98.896 18.2804 99.203C18.4915 98.823 18.6843 98.438 18.8908 98.054C23.2237 90.087 24.3942 82.926 22.3975 76.575C15.3107 71.003 11.0604 63.87 11.0604 56.1C11.0604 38.266 33.4547 23.8067 61.077 23.8067C88.699 23.8067 111.098 38.266 111.098 56.1C111.094 73.943 88.699 88.397 61.077 88.397Z" fill="#F5455C"/>
	<path d="M37.1449 48.678C33.0736 48.678 29.7734 51.956 29.7734 55.999C29.7734 60.042 33.0736 63.32 37.1449 63.32C41.2162 63.32 44.516 60.042 44.516 55.999C44.516 51.956 41.2162 48.678 37.1449 48.678Z" fill="#F5455C"/>
	<path d="M60.875 48.678C56.804 48.678 53.504 51.956 53.504 55.999C53.504 60.042 56.804 63.32 60.875 63.32C64.947 63.32 68.247 60.042 68.247 55.999C68.247 51.956 64.947 48.678 60.875 48.678Z" fill="#F5455C"/>
	<path d="M84.605 48.678C80.534 48.678 77.233 51.956 77.233 55.999C77.233 60.042 80.534 63.32 84.605 63.32C88.676 63.32 91.976 60.042 91.976 55.999C91.976 51.956 88.672 48.678 84.605 48.678Z" fill="#F5455C"/>
</svg>
