<svg id="add-reaction" viewBox="0 0 20 20">
  <path d="M16.95,3.05 L18.8,3.05 C19.2142136,3.05 19.55,3.38578644 19.55,3.8 L19.55,3.8 C19.55,4.21421356 19.2142136,4.55 18.8,4.55 L16.95,4.55 L16.95,6.4 C16.95,6.81421356 16.6142136,7.15 16.2,7.15 L16.2,7.15 C15.7857864,7.15 15.45,6.81421356 15.45,6.4 L15.45,4.55 L13.6,4.55 C13.1857864,4.55 12.85,4.21421356 12.85,3.8 L12.85,3.8 C12.85,3.38578644 13.1857864,3.05 13.6,3.05 L15.45,3.05 L15.45,1.2 C15.45,0.785786438 15.7857864,0.45 16.2,0.45 L16.2,0.45 C16.6142136,0.45 16.95,0.785786438 16.95,1.2 L16.95,3.05 Z M12,9 C11.4477153,9 11,8.55228475 11,8 C11,7.44771525 11.4477153,7 12,7 C12.5522847,7 13,7.44771525 13,8 C13,8.55228475 12.5522847,9 12,9 Z M8,9 C7.44771525,9 7,8.55228475 7,8 C7,7.44771525 7.44771525,7 8,7 C8.55228475,7 9,7.44771525 9,8 C9,8.55228475 8.55228475,9 8,9 Z M10,3 L10,3 C10,3.41480353 9.68579856,3.76217498 9.27307529,3.8036656 C9.03223363,3.82788907 8.8360817,3.85621663 8.68462069,3.88866008 C5.86445707,4.49274845 3.75,6.99944527 3.75,10 C3.75,13.4517797 6.54822031,16.25 10,16.25 C13.0012341,16.25 15.5083867,14.1345853 16.11175,11.3134635 C16.1440508,11.1624359 16.1722595,10.9669189 16.196376,10.7269124 L16.1963839,10.7269132 C16.2378544,10.3142014 16.5852098,10 17,10 L17,10 C17.3889047,10 17.7041743,10.3152696 17.7041743,10.7041743 C17.7041743,10.7242198 17.7033184,10.7442561 17.7016088,10.7642286 C17.6787244,11.031456 17.6518033,11.2489037 17.6208345,11.4165707 C16.9552084,15.0203078 13.7963811,17.75 10,17.75 C5.71979319,17.75 2.25,14.2802068 2.25,10 C2.25,6.22375478 4.95081266,3.07831815 8.52616105,2.38996705 C8.70693933,2.35516235 8.94364947,2.32506891 9.23629149,2.29968674 L9.23628937,2.2996622 C9.62307526,2.26611449 9.96382296,2.55247063 9.99737066,2.93925651 C9.99912273,2.95945695 10,2.97972373 10,3 Z M7.2303299,12.173097 L7.2303299,12.173097 C7.52068636,11.8827406 7.97712946,11.841544 8.31478278,12.0752189 C8.42737023,12.1530951 8.52626213,12.2132373 8.6114775,12.2556182 C9.51215306,12.7035592 10.5774132,12.7076494 11.4810945,12.2678891 C11.5725502,12.2233838 11.6792321,12.1590016 11.8011403,12.0747425 L11.8011435,12.074747 C12.139404,11.840952 12.5964263,11.8823392 12.8871841,12.173097 L12.8871841,12.173097 C13.1486957,12.4346086 13.1486957,12.8586027 12.8871841,13.1201143 C12.8639335,13.1433649 12.839002,13.1648715 12.8125918,13.1844594 C12.5352041,13.3902138 12.3016235,13.5385484 12.11186,13.6294765 C10.7554686,14.2794129 9.15439619,14.2483143 7.82142007,13.5361809 C7.67815403,13.459642 7.50500512,13.3449972 7.30197336,13.1922466 L7.30198843,13.1922266 C7.00337553,12.9675657 6.94342558,12.5433685 7.16808647,12.2447556 C7.18713125,12.2194418 7.20793022,12.1954967 7.2303299,12.173097 Z"/>
</svg>