<svg id="app-installed" viewBox="0 0 20 20">
  <path d="M13.4568997,2.78356577 L12.8636154,4.02002442 C12.565843,3.87714565 12.2575374,3.7567242 11.9409333,3.65993188 C11.3176809,3.46939091 10.6658117,3.37142857 10,3.37142857 C6.33914109,3.37142857 3.37142857,6.33914109 3.37142857,10 C3.37142857,13.6608589 6.33914109,16.6285714 10,16.6285714 C13.6608589,16.6285714 16.6285714,13.6608589 16.6285714,10 L18,10 C18,14.418278 14.418278,18 10,18 C5.581722,18 2,14.418278 2,10 C2,5.581722 5.581722,2 10,2 C10.8020723,2 11.5890486,2.11826612 12.3418879,2.34842444 C12.7245426,2.46540977 13.0971306,2.61093939 13.4568997,2.78356577 Z M9.33072219,11.1082059 L16.0883172,4.35061087 C16.3561053,4.08282279 16.7902755,4.08282279 17.0580636,4.35061087 L17.0580636,4.35061087 C17.3258517,4.61839896 17.3258517,5.05256923 17.0580636,5.32035732 L10.037829,12.340592 C9.64730468,12.7311163 9.0141397,12.7311163 8.62361541,12.340592 L5.91336495,9.63034151 C5.64557687,9.36255342 5.64557687,8.92838315 5.91336495,8.66059506 L5.91336495,8.66059506 C6.18115304,8.39280698 6.61532331,8.39280698 6.8831114,8.66059506 L9.33072219,11.1082059 Z"/>
</svg>