<svg id="app-installed" viewBox="0 0 16 16">
  <path d="M8,0 C5.879,0 3.843,0.843 2.343,2.343 C0.843,3.843 0,5.879 0,8 C0,10.121 0.843,12.157 2.343,13.657 C3.843,15.157 5.879,16 8,16 C10.121,16 12.157,15.157 13.657,13.657 C15.157,12.157 16,10.121 16,8 C16,5.879 15.157,3.843 13.657,2.343 C12.157,0.843 10.121,0 8,0 Z" id="Shape" stroke="#E1E5E8"/>
  <path d="M8,0 C5.879,0 3.843,0.843 2.343,2.343 C0.843,3.843 0,5.879 0,8 C0,10.121 0.843,12.157 2.343,13.657 C3.843,15.157 5.879,16 8,16 C10.121,16 12.157,15.157 13.657,13.657 C15.157,12.157 16,10.121 16,8 C16,5.879 15.157,3.843 13.657,2.343 C12.157,0.843 10.121,0 8,0 Z" id="Shape" stroke="#1D74F5"/>
  <g id="Shape">
    <use stroke="#FFFFFF" stroke-width="3" xlink:href="#path-18"/>
    <use stroke="#1D74F5" stroke-width="1" xlink:href="#path-18"/>
  </g>
</svg>