<svg id="at" viewBox="0 0 512 512">
  <path d="M256 8C118.941 8 8 118.919 8 256c0 137.058 110.919 248 248 248 52.925 0 104.68-17.078 147.092-48.319 5.501-4.052 6.423-11.924 2.095-17.211l-5.074-6.198c-4.018-4.909-11.193-5.883-16.307-2.129C346.93 457.208 301.974 472 256 472c-119.373 0-216-96.607-216-216 0-119.375 96.607-216 216-216 118.445 0 216 80.024 216 200 0 72.873-52.819 108.241-116.065 108.241-19.734 0-23.695-10.816-19.503-33.868l32.07-164.071c1.449-7.411-4.226-14.302-11.777-14.302h-12.421a12 12 0 0 0-11.781 9.718c-2.294 11.846-2.86 13.464-3.861 25.647-11.729-27.078-38.639-43.023-73.375-43.023-68.044 0-133.176 62.95-133.176 157.027 0 61.587 33.915 98.354 90.723 98.354 39.729 0 70.601-24.278 86.633-46.982-1.211 27.786 17.455 42.213 45.975 42.213C453.089 378.954 504 321.729 504 240 504 103.814 393.863 8 256 8zm-37.92 342.627c-36.681 0-58.58-25.108-58.58-67.166 0-74.69 50.765-121.545 97.217-121.545 38.857 0 58.102 27.79 58.102 65.735 0 58.133-38.369 122.976-96.739 122.976z"/>
</svg>