<svg id="at" viewBox="0 0 20 20">
  <path d="M13,6 L13,6 C13.4142136,6 13.75,6.33578644 13.75,6.75 L13.75,10.4906996 C13.75,11.5575865 14.2817849,12.25 15,12.25 C15.7146499,12.25 16.25,11.5508106 16.25,10.4906996 L16.25,10 C16.25,6.54822031 13.4517797,3.75 10,3.75 C6.54822031,3.75 3.75,6.54822031 3.75,10 C3.75,13.4517797 6.54822031,16.25 10,16.25 C10.4666766,16.25 10.9258308,16.1989554 11.371598,16.0992063 C11.465614,16.0781683 11.5771135,16.0480706 11.7060965,16.0089131 L11.7060941,16.0089049 C12.1005403,15.8891562 12.5215017,16.0881009 12.6793983,16.4688846 L12.6793983,16.4688846 C12.8287884,16.829154 12.657837,17.2423147 12.2975676,17.3917047 C12.2790349,17.3993896 12.2601832,17.4062811 12.2410636,17.4123606 C12.0409994,17.4759817 11.8721127,17.5235367 11.7344053,17.5550308 C11.1705754,17.6839804 10.5896787,17.75 10,17.75 C5.71979319,17.75 2.25,14.2802068 2.25,10 C2.25,5.71979319 5.71979319,2.25 10,2.25 C14.2802068,2.25 17.75,5.71979319 17.75,10 L17.75,10.5418084 C17.7291358,12.3321269 16.6281915,13.75 15,13.75 C14.0448596,13.75 13.2722107,13.2659389 12.7918879,12.5036211 C12.1053404,13.2687056 11.1088764,13.75 10,13.75 C7.92893219,13.75 6.25,12.0710678 6.25,10 C6.25,7.92893219 7.92893219,6.25 10,6.25 C10.8442044,6.25 11.6232546,6.52895862 12.25,6.99972536 L12.25,6.75 C12.25,6.33578644 12.5857864,6 13,6 Z M10,12.25 C11.2426407,12.25 12.25,11.2426407 12.25,10 C12.25,8.75735931 11.2426407,7.75 10,7.75 C8.75735931,7.75 7.75,8.75735931 7.75,10 C7.75,11.2426407 8.75735931,12.25 10,12.25 Z"/>
</svg>