<svg id="back" viewBox="0 0 20 20">
  <path d="M5.07004108,10.8561568 L8.39124561,14.3434215 C8.70689712,14.6748556 8.70689712,15.1956806 8.39124561,15.5271147 L8.39124561,15.5271147 C8.09476684,15.8384174 7.6020626,15.8504346 7.29075989,15.5539558 C7.28159599,15.5452283 7.27264629,15.5362786 7.26391877,15.5271147 L2.77011093,10.8086165 C2.40229483,10.4224096 2.40229483,9.81551302 2.77011093,9.42930613 L7.51201059,4.45031148 C7.79718127,4.15088227 8.27109312,4.13932344 8.57052233,4.42449412 C8.5793367,4.43288876 8.58794505,4.44149711 8.59633969,4.45031148 L8.59633969,4.45031148 C8.89995184,4.76910424 8.89995184,5.27006428 8.59633969,5.58885704 L5.11333667,9.24601021 L15.4337198,9.24601021 C16.8528205,9.24601021 18,10.4035357 18,11.8401099 L18,14.1738353 C18,14.6140838 17.6431081,14.9709758 17.2028596,14.9709758 L17.2028596,14.9709758 C16.762611,14.9709758 16.4057191,14.6140838 16.4057191,14.1738353 L16.4057191,11.8401099 C16.4057191,11.2931284 15.9726531,10.8561568 15.4337198,10.8561568 L5.07004108,10.8561568 Z"/>
</svg>