<svg id="bell-off" viewBox="0 0 20 20">
  <path d="M5.08119674,11.973678 C4.83458035,12.13189 4.50640211,12.060224 4.34819013,11.8136076 C4.29335093,11.7281258 4.2642,11.6286997 4.2642,11.5271395 L4.2642,7.3337 C4.2642,4.33188017 6.85447346,1.8997 10.0452,1.8997 C11.2707438,1.8997 12.4387201,2.25936158 13.4133125,2.91774084 C13.4761269,2.96017471 13.5474409,3.01226761 13.627392,3.07408265 C13.9086495,3.29157604 13.9603663,3.69588641 13.7428986,3.97715721 C13.7164868,4.01131804 13.686705,4.04273486 13.6540032,4.07093303 C13.3456451,4.33682456 12.8943252,4.35392809 12.5667319,4.11214039 C12.4969629,4.06065159 12.4350499,4.01794718 12.3811336,3.98407589 C11.6918916,3.55108049 10.8869357,3.3167 10.0452,3.3167 C7.69428903,3.3167 5.7902,5.13411599 5.7902,7.3737 L5.7902,10.6764698 C5.7902,11.201399 5.52302222,11.6902334 5.08119674,11.973678 Z M15.870038,14.5503 L14.3017,11.5323 L14.3017,9.02154706 C14.3017,8.70150083 14.4410881,8.39732397 14.6835037,8.18836396 L14.9994094,7.91605608 C15.2090356,7.73536024 15.5254541,7.75881289 15.7061499,7.96843903 C15.784565,8.0594088 15.8277,8.17551606 15.8277,8.2956178 L15.8159628,11.5532927 L17.3050267,14.34922 C17.5906021,14.885428 17.3874242,15.5516151 16.8512162,15.8371905 C16.6920454,15.9219622 16.5144737,15.9663 16.3341363,15.9663 L12.9091383,15.9663 C12.6011967,17.2063168 11.4208805,18.1003 10.0457,18.1003 C8.67135013,18.1003 7.49117283,17.2061862 7.18326181,15.9663 L7.00981682,15.9663 L6.5909615,15.9663 C6.34464863,15.9663 6.14497259,15.766624 6.14497259,15.5203111 C6.14497259,15.3905877 6.20145416,15.2672927 6.29969134,15.1825718 L6.72324991,14.8172901 C6.92296697,14.6450518 7.17791822,14.5503 7.4416471,14.5503 L15.870038,14.5503 Z M2.3859407,16.5908233 C2.09259239,16.2303878 2.13303015,15.7033225 2.47792853,15.3918549 L16.3680269,2.84811316 C16.6949074,2.55291692 17.1992003,2.57860211 17.4943965,2.90548263 C17.5079941,2.92080137 17.5079941,2.92080137 17.5210593,2.93657667 C17.8144076,3.29701218 17.7739698,3.8240775 17.4290715,4.13554514 L3.53897311,16.6792868 C3.21209259,16.9744831 2.70779973,16.9487979 2.41260349,16.6219174 C2.39900588,16.6065986 2.39900588,16.6065986 2.3859407,16.5908233 Z M10,16.6922764 C10.4602829,16.6922764 10.8701366,16.4625414 11.0928591,16.1077236 L8.90714088,16.1077236 C9.12986336,16.4625414 9.53971713,16.6922764 10,16.6922764 Z"/>
</svg>