<svg id="bold" viewBox="0 0 20 20">
  <path d="M10.627 16.25H6.16V4.8h4.38c1.052 0 1.88.257 2.483.77.603.513.905 1.209.905 2.087a2.49 2.49 0 0 1-.576 1.603c-.383.476-.85.764-1.4.865v.126c.783.101 1.404.401 1.865.901.46.5.69 1.128.69 1.884 0 1.006-.343 1.792-1.028 2.361-.685.569-1.636.853-2.852.853zM7.587 6.062v3.674h2.286c.868 0 1.52-.154 1.956-.46.436-.307.655-.765.655-1.373 0-.582-.198-1.034-.592-1.357-.394-.323-.945-.484-1.654-.484h-2.65zm0 8.926h2.826c.862 0 1.515-.172 1.96-.515.444-.344.666-.847.666-1.508s-.231-1.16-.694-1.496c-.463-.335-1.152-.503-2.067-.503h-2.69v4.022z" fill-rule="evenodd"/>
</svg>