<svg id="bold" viewBox="0 0 20 20">
  <path d="M10.5122837,14.5 L7.69000006,14.5 C7.13771531,14.5 6.69000006,14.0522847 6.69000006,13.5 L6.69000006,6.5 C6.69000006,5.94771525 7.13771531,5.5 7.69000006,5.5 L10.4284899,5.5 C12.1752671,5.5 13.2259117,6.36070686 13.2259117,7.74532225 C13.2259117,8.68711019 12.510442,9.52910603 11.5951566,9.67879418 L11.5951566,9.78482328 C12.8520627,9.90956341 13.6900001,10.7765073 13.6900001,11.9490644 C13.6900001,13.533264 12.4975507,14.5 10.5122837,14.5 Z M8.13383063,6.68503119 L8.13383063,9.31081081 L9.84837943,9.31081081 C11.1246225,9.31081081 11.7885268,8.85550936 11.7885268,8.0010395 C11.7885268,7.17151767 11.1632966,6.68503119 10.093315,6.68503119 L8.13383063,6.68503119 Z M8.13383063,13.3149688 L10.2222284,13.3149688 C11.5242542,13.3149688 12.2139411,12.8035343 12.2139411,11.8492723 C12.2139411,10.9074844 11.4984715,10.4147609 10.1384347,10.4147609 L8.13383063,10.4147609 L8.13383063,13.3149688 Z"/>
</svg>