<svg id="calendar" viewBox="0 0 20 20">
  <path d="M15.5,4 L14,4 L14,3 C14,2.44771525 13.5522847,2 13,2 L13,2 C12.4477153,2 12,2.44771525 12,3 L12,4 L8,4 L8,3 C8,2.44771525 7.55228475,2 7,2 L7,2 C6.44771525,2 6,2.44771525 6,3 L6,4 L4.5,4 C3.671875,4 3,4.671875 3,5.5 L3,16.5 C3,17.328125 3.671875,18 4.5,18 L15.5,18 C16.328125,18 17,17.328125 17,16.5 L17,5.5 C17,4.671875 16.328125,4 15.5,4 Z M14.5,16.5 L5.5,16.5 C4.94771525,16.5 4.5,16.0522847 4.5,15.5 L4.5,7 L15.5,7 L15.5,15.5 C15.5,16.0522847 15.0522847,16.5 14.5,16.5 Z"/>
</svg>