<svg id="chat" viewBox="0 0 28 28">
  <path d="M11 6c-4.875 0-9 2.75-9 6 0 1.719 1.156 3.375 3.156 4.531l1.516 0.875-0.547 1.313c0.328-0.187 0.656-0.391 0.969-0.609l0.688-0.484 0.828 0.156c0.781 0.141 1.578 0.219 2.391 0.219 4.875 0 9-2.75 9-6s-4.125-6-9-6zM11 4c6.078 0 11 3.578 11 8s-4.922 8-11 8c-0.953 0-1.875-0.094-2.75-0.25-1.297 0.922-2.766 1.594-4.344 2-0.422 0.109-0.875 0.187-1.344 0.25h-0.047c-0.234 0-0.453-0.187-0.5-0.453v0c-0.063-0.297 0.141-0.484 0.313-0.688 0.609-0.688 1.297-1.297 1.828-2.594-2.531-1.469-4.156-3.734-4.156-6.266 0-4.422 4.922-8 11-8zM23.844 22.266c0.531 1.297 1.219 1.906 1.828 2.594 0.172 0.203 0.375 0.391 0.313 0.688v0c-0.063 0.281-0.297 0.484-0.547 0.453-0.469-0.063-0.922-0.141-1.344-0.25-1.578-0.406-3.047-1.078-4.344-2-0.875 0.156-1.797 0.25-2.75 0.25-2.828 0-5.422-0.781-7.375-2.063 0.453 0.031 0.922 0.063 1.375 0.063 3.359 0 6.531-0.969 8.953-2.719 2.609-1.906 4.047-4.484 4.047-7.281 0-0.812-0.125-1.609-0.359-2.375 2.641 1.453 4.359 3.766 4.359 6.375 0 2.547-1.625 4.797-4.156 6.266z"/>
</svg>