<svg id="checkmark-circled" viewBox="0 0 20 20">
  <path d="M486.4 1024c-129.922 0-252.067-50.594-343.936-142.464s-142.464-214.014-142.464-343.936c0-129.923 50.595-252.067 142.464-343.936s214.013-142.464 343.936-142.464c129.922 0 252.067 50.595 343.936 142.464s142.464 214.014 142.464 343.936-50.594 252.067-142.464 343.936c-91.869 91.87-214.014 142.464-343.936 142.464zM486.4 102.4c-239.97 0-435.2 195.23-435.2 435.2s195.23 435.2 435.2 435.2 435.2-195.23 435.2-435.2-195.23-435.2-435.2-435.2z"/>
  <path d="M384 742.4c-6.552 0-13.102-2.499-18.102-7.499l-153.6-153.6c-9.997-9.997-9.997-26.206 0-36.203 9.998-9.997 26.206-9.997 36.205 0l135.498 135.498 340.299-340.298c9.997-9.997 26.206-9.997 36.203 0 9.998 9.998 9.998 26.206 0 36.205l-358.4 358.4c-5 4.998-11.55 7.498-18.102 7.498z"/>
</svg>