<svg id="circle-check" viewBox="0 0 32 32">
  <g>
    <path d="M16,0C7.163,0,0,7.163,0,16c0,8.837,7.163,16,16,16c8.836,0,16-7.164,16-16C32,7.163,24.836,0,16,0z M16,30   C8.268,30,2,23.732,2,16C2,8.268,8.268,2,16,2s14,6.268,14,14C30,23.732,23.732,30,16,30z" fill="#2db730"/>
    <path d="M23.3,10.393L13.012,20.589l-4.281-4.196c-0.394-0.391-1.034-0.391-1.428,0   c-0.395,0.391-0.395,1.024,0,1.414l4.999,4.899c0.41,0.361,1.023,0.401,1.428,0l10.999-10.899c0.394-0.39,0.394-1.024,0-1.414   C24.334,10.003,23.695,10.003,23.3,10.393z" fill="#2db730"/>
  </g>
</svg>