<svg id="clock" viewBox="0 0 20 20">
  <path d="M10,1.8 C14.5298118,1.8 18.2,5.47018821 18.2,10 C18.2,14.5298118 14.5298118,18.2 10,18.2 C5.47018821,18.2 1.8,14.5298118 1.8,10 C1.8,5.47018821 5.47018821,1.8 10,1.8 Z M16.7677419,10 C16.7677419,6.2562311 13.732142,3.23225806 10,3.23225806 C6.2562311,3.23225806 3.23225806,6.26785803 3.23225806,10 C3.23225806,13.7437689 6.26785803,16.7677419 10,16.7677419 C13.7437689,16.7677419 16.7677419,13.732142 16.7677419,10 Z M10.8129032,10.1014128 L12.7767846,11.5586304 C13.1266558,11.818238 13.1998289,12.3123182 12.9402213,12.6621894 C12.9384428,12.6645863 12.9366507,12.6669731 12.934845,12.6693497 L12.934845,12.6693497 C12.6666231,13.0223849 12.1654044,13.0962702 11.8067224,12.8356477 L9.42599191,11.1057809 C9.27551587,10.9941374 9.18709677,10.8186189 9.18709677,10.6322581 L9.18709677,5.70967742 C9.18709677,5.26072336 9.55104595,4.89677419 10,4.89677419 L10,4.89677419 C10.4489541,4.89677419 10.8129032,5.26072336 10.8129032,5.70967742 L10.8129032,10.1014128 Z" fill-rule="nonzero"/>
</svg>