<svg id="clock" viewBox="0 0 20 20">
  <path d="M10,2 C14.4193286,2 18,5.58067143 18,10 C18,14.4193286 14.4193286,18 10,18 C5.58067143,18 2,14.4193286 2,10 C2,5.58067143 5.58067143,2 10,2 Z M16.6026751,10 C16.6026751,6.34754253 13.6411141,3.39732494 10,3.39732494 C6.34754253,3.39732494 3.39732494,6.35888589 3.39732494,10 C3.39732494,13.6524575 6.35888589,16.6026751 10,16.6026751 C13.6524575,16.6026751 16.6026751,13.6411141 16.6026751,10 Z M10.7930763,10.0989393 L12.7090581,11.520615 C13.0503959,11.7738907 13.1217843,12.2559202 12.8685086,12.597258 C12.8667734,12.5995964 12.865025,12.601925 12.8632635,12.6042436 L12.8632635,12.6042436 C12.6015836,12.9486682 12.1125897,13.0207514 11.762656,12.7664855 L9.4399921,11.0788106 C9.29318621,10.9698901 9.20692368,10.7986526 9.20692368,10.6168371 L9.20692368,5.81431943 C9.20692368,5.37631548 9.56199604,5.02124312 10,5.02124312 L10,5.02124312 C10.438004,5.02124312 10.7930763,5.37631548 10.7930763,5.81431943 L10.7930763,10.0989393 Z"/>
</svg>