<svg id="cloud plus" viewBox="0 0 20 20">
  <path d="M15.6235888,7.35788127 C17.5394793,7.67690518 19,9.34220307 19,11.3486239 C19,13.583097 17.1886016,15.3944954 14.9541284,15.3944954 L13.7429464,15.3944954 C13.3325329,15.3944954 12.9998271,15.0617896 12.9998271,14.6513761 C12.9998271,14.2409627 13.3325329,13.9082569 13.7429464,13.9082569 L14.9541284,13.9082569 C16.3677747,13.9082569 17.5137615,12.7622701 17.5137615,11.3486239 C17.5137615,9.93497757 16.3677747,8.78899083 14.9541284,8.78899083 L14.2110092,8.78899083 L14.2110092,8.04587156 C14.2110092,7.0882402 13.4346956,6.31192661 12.4770642,6.31192661 C12.05549,6.31192661 11.6590957,6.46194543 11.3464227,6.73119941 L10.7567986,7.238946 L10.2767033,6.62659666 C9.71596184,5.91138515 8.86167816,5.48623853 7.93577982,5.48623853 C6.29412606,5.48623853 4.96330275,6.81706184 4.96330275,8.4587156 C4.96330275,8.80109968 5.02090075,9.13456877 5.13225047,9.44960612 L5.48243418,10.440367 L4.22018349,10.440367 C3.26255213,10.440367 2.48623853,11.2166806 2.48623853,12.1743119 C2.48623853,13.1319433 3.26255213,13.9082569 4.22018349,13.9082569 L14.7086088,13.9082569 C15.1190223,13.9082569 15.4517281,14.2409627 15.4517281,14.6513761 C15.4517281,15.0617896 15.1190223,15.3944954 14.7086088,15.3944954 L4.22018349,15.3944954 C2.44172526,15.3944954 1,13.9527702 1,12.1743119 C1,10.6385759 2.07504915,9.35393102 3.51364244,9.03188236 C3.48935799,8.84294988 3.47706422,8.65159838 3.47706422,8.4587156 C3.47706422,5.99623497 5.47329919,4 7.93577982,4 C9.08463113,4 10.1622526,4.43797338 10.9755411,5.19654059 C11.4318843,4.95568218 11.9448818,4.82568807 12.4770642,4.82568807 C14.0193943,4.82568807 15.3084723,5.90998894 15.6235888,7.35788127 Z M9.29954983,8.68011898 C9.29954983,8.3389541 9.57611861,8.06238532 9.91728349,8.06238532 C10.2584484,8.06238532 10.5350172,8.3389541 10.5350172,8.68011898 L10.5350172,9.82248561 L11.6775315,9.82248561 C12.0187779,9.82248561 12.2954128,10.0991205 12.2954128,10.440367 C12.2954128,10.7816134 12.0187779,11.0582483 11.6775315,11.0582483 L10.5350172,11.0582483 L10.5350172,12.200615 C10.5350172,12.5417798 10.2584484,12.8183486 9.91728349,12.8183486 C9.57611861,12.8183486 9.29954983,12.5417798 9.29954983,12.200615 L9.29954983,11.0582483 L8.1573309,11.0582483 C7.81608445,11.0582483 7.53944954,10.7816134 7.53944954,10.440367 C7.53944954,10.0991205 7.81608445,9.82248561 8.1573309,9.82248561 L9.29954983,9.82248561 L9.29954983,8.68011898 Z"/>
</svg>