<svg id="cloud-plus" viewBox="0 0 20 20">
  <path d="M15.6235888,7.35788127 C17.5394793,7.67690518 19,9.64050373 19,11.6469245 C19,13.8813977 17.1886016,15.6927961 14.9541284,15.6927961 L14.9541284,14.2065575 C16.3677747,14.2065575 17.5137615,13.0605708 17.5137615,11.6469245 C17.5137615,10.2332782 16.3677747,8.78899083 14.9541284,8.78899083 L14.2110092,8.78899083 L14.2110092,8.04587156 C14.2110092,7.0882402 13.4346956,6.31192661 12.4770642,6.31192661 C12.05549,6.31192661 11.6590957,6.46194543 11.3464227,6.73119941 L10.7567986,7.238946 L10.2767033,6.62659666 C9.71596184,5.91138515 8.86167816,5.48623853 7.93577982,5.48623853 C6.29412606,5.48623853 4.96330275,6.81706184 4.96330275,8.4587156 C4.96330275,8.80109968 5.02090075,9.13456877 5.13225047,9.44960612 L5.48243418,10.440367 L4.22018349,10.440367 C3,10.440367 2.463,11.258248 2.48623853,12.4726126 C2.50947706,13.6869772 3.26255213,14.2065575 4.22018349,14.2065575 L14.9541284,14.2065575 L14.9541284,15.6927961 L4.22018349,15.6927961 C2.44172526,15.6927961 1,14.2510708 1,12.4726126 C1,10.9368765 2.07504915,9.35393102 3.51364244,9.03188236 C3.48935799,8.84294988 3.47706422,8.65159838 3.47706422,8.4587156 C3.47706422,5.99623497 5.47329919,4 7.93577982,4 C9.08463113,4 10.1622526,4.43797338 10.9755411,5.19654059 C11.4318843,4.95568218 11.9448818,4.82568807 12.4770642,4.82568807 C14.0193943,4.82568807 15.3084723,5.90998894 15.6235888,7.35788127 Z M9.29954983,8.88011866 C9.29954983,8.53895378 9.57611861,8.262385 9.91728349,8.262385 C10.2584484,8.262385 10.5350172,8.53895378 10.5350172,8.88011866 L10.5350172,10.0224853 L11.6775315,10.0224853 C12.0187779,10.0224853 12.2954128,10.2991202 12.2954128,10.6403667 C12.2954128,10.9816131 12.0187779,11.258248 11.6775315,11.258248 L10.5350172,11.258248 L10.5350172,12.4006146 C10.5350172,12.7417795 10.2584484,13.0183483 9.91728349,13.0183483 C9.57611861,13.0183483 9.29954983,12.7417795 9.29954983,12.4006146 L9.29954983,11.258248 L8.1573309,11.258248 C7.81608445,11.258248 7.53944954,10.9816131 7.53944954,10.6403667 C7.53944954,10.2991202 7.81608445,10.0224853 8.1573309,10.0224853 L9.29954983,10.0224853 L9.29954983,8.88011866 Z"/>
</svg>