<svg id="code" viewBox="0 0 20 20">
  <path d="M1.73275857,9.28451182 L4.77630438,6.31269935 C5.08060009,6.01557558 5.56640815,6.01560458 5.87066839,6.31276467 L5.87066839,6.31276467 C6.16579939,6.60100854 6.1713825,7.07392731 5.88313862,7.36905831 C5.8790311,7.37326397 5.87487406,7.37742101 5.87066839,7.38152853 L3.18963282,10 L5.87066839,12.6184715 C6.16579939,12.9067153 6.1713825,13.3796341 5.88313862,13.6747651 C5.8790311,13.6789708 5.87487406,13.6831278 5.87066839,13.6872353 L5.87066839,13.6872353 C5.56640815,13.9843954 5.08060009,13.9844244 4.77630438,13.6873006 L1.73275857,10.7154882 C1.33760536,10.3296483 1.33005538,9.69652837 1.71589523,9.30137516 C1.72144911,9.29568722 1.72707063,9.2900657 1.73275857,9.28451182 Z M12.004118,2.69560395 L12.004118,2.69560395 C12.4124484,2.8023178 12.656957,3.2198437 12.5502431,3.62817415 C12.5494542,3.63119298 12.5486468,3.63420694 12.5478209,3.63721588 L8.94752174,16.7544736 C8.83411284,17.1676653 8.40948445,17.4128053 7.99495291,17.304396 L7.99495291,17.304396 C7.58680834,17.1976572 7.34247075,16.7802617 7.44920963,16.3721171 C7.44998365,16.3691574 7.45077545,16.3662024 7.45158497,16.3632523 L11.0509498,3.24602143 C11.1644082,2.83254307 11.589288,2.58719151 12.004118,2.69560395 Z M14.1293316,6.31316798 L14.1293316,6.31316798 C14.4335919,6.01600789 14.9193999,6.01597889 15.2236956,6.31310266 L18.2671539,9.28482967 C18.6623071,9.67066951 18.6698571,10.3037895 18.2840173,10.6989427 C18.2784356,10.7046591 18.2727856,10.7103084 18.2670685,10.7158894 L15.2237594,13.686761 C14.9194179,13.9838586 14.4336022,13.9838006 14.1293316,13.6866304 L14.1293316,13.6866304 C13.8342478,13.3984326 13.8286656,12.9255894 14.1168634,12.6305056 C14.1209981,12.6262722 14.1251829,12.622088 14.129417,12.617954 L16.8103672,10.0004033 L14.1293316,7.38193184 C13.8342006,7.09368797 13.8286175,6.6207692 14.1168614,6.32563821 C14.1209689,6.32143254 14.1251259,6.3172755 14.1293316,6.31316798 Z"/>
</svg>