<svg id="cog" viewBox="0 0 20 20">
  <path d="M10,16.5070963 L9.51218224,17.0219334 C8.82973952,17.7421754 7.77378795,17.9669088 6.85720105,17.5869813 L6.85720105,17.5869813 C5.9405289,17.2070184 5.35297538,16.3012663 5.37970595,15.3093263 L5.39878805,14.6012119 L4.69067375,14.6202941 C3.69873367,14.6470246 2.79298161,14.0594711 2.41301872,13.142799 L2.41301872,13.142799 C2.03309116,12.226212 2.25782464,11.1702605 2.97806658,10.4878178 L3.49290366,10 L2.63755098,9.18953733 L2.63755098,9.18953733 C2.12239318,8.70141568 1.96165107,7.94613935 2.23339677,7.29054452 L2.41301872,6.85720105 C2.79298161,5.9405289 3.69873367,5.35297538 4.69067375,5.37970595 L5.39878805,5.39878805 L5.37970595,4.69067375 C5.35297538,3.69873367 5.9405289,2.79298161 6.85720105,2.41301872 L6.85720105,2.41301872 C7.77378795,2.03309116 8.82973952,2.25782464 9.51218224,2.97806658 L10,3.49290366 L10.4878178,2.97806658 C11.1702605,2.25782464 12.226212,2.03309116 13.142799,2.41301872 L13.142799,2.41301872 C14.0594711,2.79298161 14.6470246,3.69873367 14.6202941,4.69067375 L14.6012119,5.39878805 L15.3093263,5.37970595 C16.3012663,5.35297538 17.2070184,5.9405289 17.5869813,6.85720105 L17.5869813,6.85720105 C17.9669088,7.77378795 17.7421754,8.82973952 17.0219334,9.51218224 L16.5070963,10 L17.0219334,10.4878178 C17.7421754,11.1702605 17.9669088,12.226212 17.5869813,13.142799 L17.5869813,13.142799 C17.2070184,14.0594711 16.3012663,14.6470246 15.3093263,14.6202941 L14.6012119,14.6012119 L14.6202941,15.3093263 C14.6470246,16.3012663 14.0594711,17.2070184 13.142799,17.5869813 L13.142799,17.5869813 C12.226212,17.9669088 11.1702605,17.7421754 10.4878178,17.0219334 L10,16.5070963 Z M8.29406402,16.1266612 L10,14.3262366 L11.705936,16.1266612 C11.9404372,16.374151 12.3032979,16.4513455 12.6182341,16.3207423 L12.6182341,16.3207423 C12.9332193,16.1901188 13.135097,15.8788544 13.1259113,15.5379823 L13.0591112,13.0591112 L15.5379823,13.1259113 C15.8788544,13.135097 16.1901188,12.9332193 16.3207423,12.6182341 L16.3207423,12.6182341 C16.4513455,12.3032979 16.374151,11.9404372 16.1266612,11.705936 L14.3262366,10 L16.1266612,8.29406402 C16.374151,8.05956283 16.4513455,7.69670214 16.3207423,7.38176595 L16.3207423,7.38176595 C16.1901188,7.06678073 15.8788544,6.86490297 15.5379823,6.87408872 L13.0591112,6.94088877 L13.1259113,4.46201772 C13.135097,4.12114559 12.9332193,3.80988122 12.6182341,3.67925771 L12.6182341,3.67925771 C12.3032979,3.54865454 11.9404372,3.62584905 11.705936,3.87333882 L10,5.6737634 L8.29406402,3.87333882 C8.05956283,3.62584905 7.69670214,3.54865454 7.38176595,3.67925771 L7.38176595,3.67925771 C7.06678073,3.80988122 6.86490297,4.12114559 6.87408872,4.46201772 L6.94088877,6.94088877 L4.46201772,6.87408872 C4.12114559,6.86490297 3.80988122,7.06678073 3.67925771,7.38176595 L3.67925771,7.38176595 C3.54865454,7.69670214 3.62584905,8.05956283 3.87333882,8.29406402 L5.6737634,10 L3.87333882,11.705936 C3.62584905,11.9404372 3.54865454,12.3032979 3.67925771,12.6182341 L3.67925771,12.6182341 C3.80988122,12.9332193 4.12114559,13.135097 4.46201772,13.1259113 L6.94088877,13.0591112 L6.87408872,15.5379823 C6.86490297,15.8788544 7.06678073,16.1901188 7.38176595,16.3207423 L7.38176595,16.3207423 C7.69670214,16.4513455 8.05956283,16.374151 8.29406402,16.1266612 Z M10,12.7083333 C8.5042288,12.7083333 7.29166667,11.4957712 7.29166667,10 C7.29166667,8.5042288 8.5042288,7.29166667 10,7.29166667 C11.4957712,7.29166667 12.7083333,8.5042288 12.7083333,10 C12.7083333,11.4957712 11.4957712,12.7083333 10,12.7083333 Z M10,11.4583333 C10.8054153,11.4583333 11.4583333,10.8054153 11.4583333,10 C11.4583333,9.19458474 10.8054153,8.54166667 10,8.54166667 C9.19458474,8.54166667 8.54166667,9.19458474 8.54166667,10 C8.54166667,10.8054153 9.19458474,11.4583333 10,11.4583333 Z"/>
</svg>