<svg id="cog" viewBox="0 0 20 20">
  <path d="M10,16.5070963 L8.37907467,18.2178017 L7.95349272,18.110725 C7.16256967,17.9117283 6.40826024,17.5980909 5.71180895,17.1814078 L5.33532743,16.9561609 L5.39878805,14.6012119 L3.04383913,14.6646726 L2.81859222,14.288191 C2.40190907,13.5917398 2.08827167,12.8374303 1.88927497,12.0465073 L1.7821983,11.6209253 L3.49290366,10 L1.7821983,8.37907467 L1.88927497,7.95349272 C2.08827167,7.16256967 2.40190907,6.40826024 2.81859222,5.71180895 L3.04383913,5.33532743 L5.39878805,5.39878805 L5.33532743,3.04383913 L5.71180895,2.81859222 C6.40826024,2.40190907 7.16256967,2.08827167 7.95349272,1.88927497 L8.37907467,1.7821983 L10,3.49290366 L11.1477015,2.28163313 C11.4327125,1.98083586 11.8737134,1.8869796 12.256511,2.04565013 L14.0294225,2.7805264 C14.4120535,2.93912791 14.6573061,3.31720072 14.6461484,3.73124953 L14.6012119,5.39878805 L16.9561609,5.33532743 L17.1814078,5.71180895 C17.5980909,6.40826024 17.9117283,7.16256967 18.110725,7.95349272 L18.2178017,8.37907467 L16.5070963,10 L18.2178017,11.6209253 L18.110725,12.0465073 C17.9117283,12.8374303 17.5980909,13.5917398 17.1814078,14.288191 L16.9561609,14.6646726 L14.6012119,14.6012119 L14.6646726,16.9561609 L14.288191,17.1814078 C13.5917398,17.5980909 12.8374303,17.9117283 12.0465073,18.110725 L11.6209253,18.2178017 L10,16.5070963 Z M7.90469302,16.5375987 L10,14.3262366 L12.095307,16.5375987 C12.4558266,16.4221566 12.8054927,16.2770164 13.1411611,16.1038859 L13.0591112,13.0591112 L16.1038859,13.1411611 C16.2770164,12.8054927 16.4221566,12.4558266 16.5375987,12.095307 L14.3262366,10 L16.5375987,7.90469302 C16.4221566,7.54417342 16.2770164,7.19450729 16.1038859,6.85883888 L13.0591112,6.94088877 L13.1411611,3.89611413 C12.8054927,3.72298358 12.4558266,3.57784337 12.095307,3.46240129 L10,5.6737634 L7.90469302,3.46240129 C7.54417342,3.57784337 7.19450729,3.72298358 6.85883888,3.89611413 L6.94088877,6.94088877 L3.89611413,6.85883888 C3.72298358,7.19450729 3.57784337,7.54417342 3.46240129,7.90469302 L5.6737634,10 L3.46240129,12.095307 C3.57784337,12.4558266 3.72298358,12.8054927 3.89611413,13.1411611 L6.94088877,13.0591112 L6.85883888,16.1038859 C7.19450729,16.2770164 7.54417342,16.4221566 7.90469302,16.5375987 Z M10,12.7083333 C8.5042288,12.7083333 7.29166667,11.4957712 7.29166667,10 C7.29166667,8.5042288 8.5042288,7.29166667 10,7.29166667 C11.4957712,7.29166667 12.7083333,8.5042288 12.7083333,10 C12.7083333,11.4957712 11.4957712,12.7083333 10,12.7083333 Z M10,11.4583333 C10.8054153,11.4583333 11.4583333,10.8054153 11.4583333,10 C11.4583333,9.19458474 10.8054153,8.54166667 10,8.54166667 C9.19458474,8.54166667 8.54166667,9.19458474 8.54166667,10 C8.54166667,10.8054153 9.19458474,11.4583333 10,11.4583333 Z"/>
</svg>