<svg id="cog" viewBox="0 0 20 20">
  <g transform="translate(1.667 2.5)" stroke-width="1.5" stroke="currentColor" fill="none" fill-rule="evenodd">
    <circle cx="8.333" cy="7.5" r="2.083"/>
    <path d="M6.47 14.883l1.863-1.966 1.864 1.966a7.568 7.568 0 0 0 2.04-.845l-.074-2.708 2.708.073a7.568 7.568 0 0 0 .846-2.04L13.75 7.5l1.967-1.864a7.568 7.568 0 0 0-.846-2.04l-2.708.074.073-2.708a7.568 7.568 0 0 0-2.04-.845L8.334 2.083 6.47.117a7.568 7.568 0 0 0-2.04.845l.073 2.708-2.707-.073a7.568 7.568 0 0 0-.846 2.04L2.917 7.5.95 9.364a7.56 7.56 0 0 0 .846 2.04l2.707-.074-.073 2.708a7.568 7.568 0 0 0 2.04.845z"/>
  </g>
</svg>