<svg id="computer" viewBox="0 0 20 20">
  <path d="M3.75,5.9973917 L3.75,11.0026083 C3.75,11.6898607 4.31220365,12.25 5.00585866,12.25 L14.9941413,12.25 C15.6890346,12.25 16.25,11.6912113 16.25,11.0026083 L16.25,5.9973917 C16.25,5.31013934 15.6877963,4.75 14.9941413,4.75 L5.00585866,4.75 C4.31096543,4.75 3.75,5.30878868 3.75,5.9973917 Z M2.25,5.9973917 C2.25,4.47905325 3.483841,3.25 5.00585866,3.25 L14.9941413,3.25 C16.5149908,3.25 17.75,4.48047449 17.75,5.9973917 L17.75,11.0026083 C17.75,12.5209467 16.516159,13.75 14.9941413,13.75 L5.00585866,13.75 C3.48500923,13.75 2.25,12.5195255 2.25,11.0026083 L2.25,5.9973917 Z M6.75,16 L6.75,16 C6.75,15.5857864 7.08578644,15.25 7.5,15.25 L12.5,15.25 C12.9142136,15.25 13.25,15.5857864 13.25,16 L13.25,16 C13.25,16.4142136 12.9142136,16.75 12.5,16.75 L7.5,16.75 C7.08578644,16.75 6.75,16.4142136 6.75,16 Z"/>
</svg>