<svg id="cross-circled" viewBox="0 0 20 20">
  <path d="M733.808 723.266l-208.874-185.666 208.874-185.667c10.566-9.394 11.518-25.574 2.126-36.141-9.394-10.566-25.574-11.522-36.142-2.126l-213.392 189.682-213.392-189.68c-10.568-9.392-26.749-8.44-36.141 2.126-9.394 10.566-8.442 26.749 2.126 36.141l208.874 185.666-208.875 185.666c-10.566 9.394-11.518 25.574-2.126 36.142 5.059 5.691 12.085 8.592 19.142 8.592 6.048 0 12.122-2.131 16.998-6.466l213.394-189.683 213.392 189.683c4.878 4.334 10.949 6.466 16.998 6.466 7.058 0 14.086-2.902 19.144-8.592 9.392-10.568 8.44-26.749-2.126-36.142z"/>
  <path d="M486.4 1024c-129.922 0-252.067-50.594-343.936-142.464s-142.464-214.014-142.464-343.936c0-129.923 50.595-252.067 142.464-343.936s214.013-142.464 343.936-142.464c129.922 0 252.067 50.595 343.936 142.464s142.464 214.014 142.464 343.936-50.594 252.067-142.464 343.936c-91.869 91.87-214.014 142.464-343.936 142.464zM486.4 102.4c-239.97 0-435.2 195.23-435.2 435.2s195.23 435.2 435.2 435.2 435.2-195.23 435.2-435.2-195.23-435.2-435.2-435.2z"/>
</svg>