<svg id="cube" viewBox="0 0 20 20">
  <path d="M2.0007076,5.96217225 C1.98838114,5.68852719 2.13715444,5.40864169 2.44282261,5.29373939 L9.75748528,2.54411855 C9.91415584,2.48522524 10.0871302,2.48529613 10.2437517,2.54431781 L17.4658592,5.2659168 C17.761783,5.33329669 18,5.59401049 18,5.93014867 L18,13.1880312 C18,13.445767 17.8532949,13.6813872 17.6210363,13.7966776 L10.3135626,17.4240194 C10.1298622,17.5179521 9.90323339,17.531283 9.69363356,17.4272402 C9.69145039,17.4262068 9.68929478,17.4251186 9.68714505,17.4240194 L2.37967132,13.7966776 C2.1474127,13.6813872 2.0007076,13.445767 2.0007076,13.1880312 L2.0007076,5.96217225 Z M4.51434148,5.97045407 L10.0003538,8.31512996 L15.4796882,5.97330815 L10.000051,3.90834649 L4.51434148,5.97045407 Z M10.6860378,9.53769664 L10.6860378,15.7173301 L16.6286321,12.7674979 L16.6286321,6.96414942 L16.3206133,7.09579405 L10.6860378,9.53769664 Z M3.37207552,6.96915556 L3.37207552,12.7674979 L9.31466984,15.7173301 L9.31466984,9.53814035 L3.37207552,6.96915556 Z"/>
</svg>