<svg id="customize" viewBox="0 0 20 20">
  <path d="M10.4263237,9.4516129 C10.7738504,8.22289261 11.9035598,7.32258065 13.2435484,7.32258065 C14.5835369,7.32258065 15.7132464,8.22289261 16.060773,9.4516129 L17.5016129,9.4516129 C17.9425499,9.4516129 18.3,9.80906298 18.3,10.25 C18.3,10.690937 17.9425499,11.0483871 17.5016129,11.0483871 L16.060773,11.0483871 C15.7132464,12.2771074 14.5835369,13.1774194 13.2435484,13.1774194 C11.9035598,13.1774194 10.7738504,12.2771074 10.4263237,11.0483871 L2.5983871,11.0483871 C2.15745008,11.0483871 1.8,10.690937 1.8,10.25 C1.8,9.80906298 2.15745008,9.4516129 2.5983871,9.4516129 L10.4263237,9.4516129 Z M13.2435484,11.5806452 C13.9784434,11.5806452 14.5741935,10.984895 14.5741935,10.25 C14.5741935,9.51510497 13.9784434,8.91935484 13.2435484,8.91935484 C12.5086534,8.91935484 11.9129032,9.51510497 11.9129032,10.25 C11.9129032,10.984895 12.5086534,11.5806452 13.2435484,11.5806452 Z M7.92096774,12.6451613 C9.26095629,12.6451613 10.3906657,13.5454733 10.7381924,14.7741935 L17.5016129,14.7741935 C17.9425499,14.7741935 18.3,15.1316436 18.3,15.5725806 C18.3,16.0135177 17.9425499,16.3709677 17.5016129,16.3709677 L10.7381924,16.3709677 C10.3906657,17.599688 9.26095629,18.5 7.92096774,18.5 C6.58097919,18.5 5.45126976,17.599688 5.1037431,16.3709677 L2.5983871,16.3709677 C2.15745008,16.3709677 1.8,16.0135177 1.8,15.5725806 C1.8,15.1316436 2.15745008,14.7741935 2.5983871,14.7741935 L5.1037431,14.7741935 C5.45126976,13.5454733 6.58097919,12.6451613 7.92096774,12.6451613 Z M7.92096774,16.9032258 C8.65586277,16.9032258 9.2516129,16.3074757 9.2516129,15.5725806 C9.2516129,14.8376856 8.65586277,14.2419355 7.92096774,14.2419355 C7.18607271,14.2419355 6.59032258,14.8376856 6.59032258,15.5725806 C6.59032258,16.3074757 7.18607271,16.9032258 7.92096774,16.9032258 Z M6.85645161,2 C8.19644016,2 9.32614959,2.90031196 9.67367626,4.12903226 L17.5016129,4.12903226 C17.9425499,4.12903226 18.3,4.48648234 18.3,4.92741935 C18.3,5.36835637 17.9425499,5.72580645 17.5016129,5.72580645 L9.67367626,5.72580645 C9.32614959,6.95452675 8.19644016,7.85483871 6.85645161,7.85483871 C5.51646306,7.85483871 4.38675364,6.95452675 4.03922697,5.72580645 L2.5983871,5.72580645 C2.15745008,5.72580645 1.8,5.36835637 1.8,4.92741935 C1.8,4.48648234 2.15745008,4.12903226 2.5983871,4.12903226 L4.03922697,4.12903226 C4.38675364,2.90031196 5.51646306,2 6.85645161,2 Z M6.85645161,6.25806452 C7.59134664,6.25806452 8.18709677,5.66231438 8.18709677,4.92741935 C8.18709677,4.19252432 7.59134664,3.59677419 6.85645161,3.59677419 C6.12155658,3.59677419 5.52580645,4.19252432 5.52580645,4.92741935 C5.52580645,5.66231438 6.12155658,6.25806452 6.85645161,6.25806452 Z"/>
</svg>