<svg id="customize" viewBox="0 0 20 20">
  <path d="M10.36492,9.22580645 C10.7019155,8.03432011 11.7973914,7.16129032 13.0967742,7.16129032 C14.396157,7.16129032 15.4916328,8.03432011 15.8286284,9.22580645 L17.2258065,9.22580645 C17.6533817,9.22580645 18,9.57242471 18,10 C18,10.4275753 17.6533817,10.7741935 17.2258065,10.7741935 L15.8286284,10.7741935 C15.4916328,11.9656799 14.396157,12.8387097 13.0967742,12.8387097 C11.7973914,12.8387097 10.7019155,11.9656799 10.36492,10.7741935 L2.77419355,10.7741935 C2.34661826,10.7741935 2,10.4275753 2,10 C2,9.57242471 2.34661826,9.22580645 2.77419355,9.22580645 L10.36492,9.22580645 Z M13.0967742,11.2903226 C13.8093997,11.2903226 14.3870968,10.7126255 14.3870968,10 C14.3870968,9.28737452 13.8093997,8.70967742 13.0967742,8.70967742 C12.3841487,8.70967742 11.8064516,9.28737452 11.8064516,10 C11.8064516,10.7126255 12.3841487,11.2903226 13.0967742,11.2903226 Z M7.93548387,12.3225806 C9.23486671,12.3225806 10.3303425,13.1956104 10.6673381,14.3870968 L17.2258065,14.3870968 C17.6533817,14.3870968 18,14.733715 18,15.1612903 C18,15.5888656 17.6533817,15.9354839 17.2258065,15.9354839 L10.6673381,15.9354839 C10.3303425,17.1269702 9.23486671,18 7.93548387,18 C6.63610103,18 5.54062523,17.1269702 5.20362967,15.9354839 L2.77419355,15.9354839 C2.34661826,15.9354839 2,15.5888656 2,15.1612903 C2,14.733715 2.34661826,14.3870968 2.77419355,14.3870968 L5.20362967,14.3870968 C5.54062523,13.1956104 6.63610103,12.3225806 7.93548387,12.3225806 Z M7.93548387,16.4516129 C8.64810935,16.4516129 9.22580645,15.8739158 9.22580645,15.1612903 C9.22580645,14.4486648 8.64810935,13.8709677 7.93548387,13.8709677 C7.22285839,13.8709677 6.64516129,14.4486648 6.64516129,15.1612903 C6.64516129,15.8739158 7.22285839,16.4516129 7.93548387,16.4516129 Z M6.90322581,2 C8.20260864,2 9.29808445,2.87302978 9.63508001,4.06451613 L17.2258065,4.06451613 C17.6533817,4.06451613 18,4.41113439 18,4.83870968 C18,5.26628497 17.6533817,5.61290323 17.2258065,5.61290323 L9.63508001,5.61290323 C9.29808445,6.80438957 8.20260864,7.67741935 6.90322581,7.67741935 C5.60384297,7.67741935 4.50836716,6.80438957 4.17137161,5.61290323 L2.77419355,5.61290323 C2.34661826,5.61290323 2,5.26628497 2,4.83870968 C2,4.41113439 2.34661826,4.06451613 2.77419355,4.06451613 L4.17137161,4.06451613 C4.50836716,2.87302978 5.60384297,2 6.90322581,2 Z M6.90322581,6.12903226 C7.61585129,6.12903226 8.19354839,5.55133516 8.19354839,4.83870968 C8.19354839,4.12608419 7.61585129,3.5483871 6.90322581,3.5483871 C6.19060032,3.5483871 5.61290323,4.12608419 5.61290323,4.83870968 C5.61290323,5.55133516 6.19060032,6.12903226 6.90322581,6.12903226 Z"/>
</svg>