<svg id="discover" viewBox="0 0 20 20">
  <path d="M12.5949091,16.0082424 C12.9837576,15.3149091 13.3047273,14.4732121 13.5374545,13.5374545 C14.4732121,13.3047273 15.3158788,12.9837576 16.0092121,12.5939394 C15.3478788,14.1221818 14.1221818,15.3478788 12.5949091,16.0082424 M3.99175758,12.5939394 C4.68509091,12.9837576 5.52678788,13.3047273 6.46351515,13.5374545 C6.69527273,14.4732121 7.01624242,15.3149091 7.40509091,16.0082424 C5.87781818,15.3478788 4.65309091,14.1221818 3.99175758,12.5939394 M7.40509091,3.99078788 C7.01624242,4.68509091 6.69527273,5.52581818 6.46351515,6.46254545 C5.52678788,6.69527273 4.68509091,7.01527273 3.99175758,7.40509091 C4.65309091,5.87684848 5.87781818,4.65212121 7.40509091,3.99078788 M16.0092121,7.40509091 C15.3158788,7.01527273 14.4732121,6.69527273 13.5374545,6.46254545 C13.3047273,5.52581818 12.9837576,4.68509091 12.5949091,3.99078788 C14.1221818,4.65212121 15.3478788,5.87684848 16.0092121,7.40509091 M10,3.45454545 C10.6710303,3.45454545 11.4351515,4.53963636 11.9413333,6.16678788 C11.3139394,6.08727273 10.6652121,6.03975758 10,6.03975758 C9.33575758,6.03975758 8.6870303,6.08727273 8.05866667,6.16678788 C8.56581818,4.53963636 9.32993939,3.45454545 10,3.45454545 M3.45454545,10 C3.45454545,9.3289697 4.53963636,8.56484848 6.16775758,8.05769697 C6.08727273,8.68606061 6.04072727,9.33575758 6.04072727,10 C6.04072727,10.6642424 6.08727273,11.3139394 6.16775758,11.9413333 C4.53963636,11.4351515 3.45454545,10.6700606 3.45454545,10 M10,12.5047273 C9.19321212,12.5047273 8.41648485,12.4300606 7.69406061,12.3049697 C7.56993939,11.5825455 7.49527273,10.8067879 7.49527273,10 C7.49527273,9.19321212 7.56993939,8.41648485 7.69406061,7.69406061 C8.41648485,7.5689697 9.19321212,7.49430303 10,7.49430303 C10.8067879,7.49430303 11.5835152,7.5689697 12.3059394,7.69406061 C12.4300606,8.41648485 12.5047273,9.19321212 12.5047273,10 C12.5047273,10.8067879 12.4300606,11.5825455 12.3059394,12.3049697 C11.5835152,12.4300606 10.8067879,12.5047273 10,12.5047273 M10,16.5454545 C9.32993939,16.5454545 8.56581818,15.4603636 8.05866667,13.8322424 C8.6870303,13.9127273 9.33575758,13.9592727 10,13.9592727 C10.6652121,13.9592727 11.3139394,13.9127273 11.9413333,13.8322424 C11.4351515,15.4603636 10.6710303,16.5454545 10,16.5454545 M13.8322424,11.9413333 C13.9127273,11.3139394 13.9592727,10.6642424 13.9592727,10 C13.9592727,9.33575758 13.9127273,8.68606061 13.8322424,8.05769697 C15.4603636,8.56484848 16.5454545,9.3289697 16.5454545,10 C16.5454545,10.6700606 15.4603636,11.4351515 13.8322424,11.9413333 M10,2 C5.58206061,2 2,5.58206061 2,10 C2,14.4179394 5.58206061,18 10,18 C14.4189091,18 18,14.4179394 18,10 C18,5.58206061 14.4189091,2 10,2"/>
</svg>