<svg id="download" viewBox="0 0 20 20">
  <path d="M13.4847314,14.7446699 L13.4847314,14.7446699 C13.7776246,15.0375631 13.7776246,15.5124368 13.4847314,15.8053301 L10.6563042,18.6337572 C10.2657799,19.0242815 9.63261497,19.0242815 9.24209068,18.6337572 L6.41366355,15.8053301 C6.12077033,15.5124368 6.12077033,15.0375631 6.41366355,14.7446699 L6.41366355,14.7446699 C6.70655677,14.4517767 7.1814305,14.4517767 7.47432372,14.7446699 L9.15333297,16.4236791 L9.15333297,10.3166666 C9.15333297,9.90245308 9.48911941,9.56666664 9.90333297,9.56666664 L9.90333297,9.56666664 C10.3175465,9.56666664 10.653333,9.90245308 10.653333,10.3166666 L10.653333,16.5154081 L12.4240712,14.7446699 C12.7169644,14.4517767 13.1918381,14.4517767 13.4847314,14.7446699 Z M15.6789925,5.03897274 C17.6126226,5.36095057 19.0866667,7.04166789 19.0866667,9.06666664 C19.0866667,11.3218294 17.2584961,13.15 15.0033334,13.15 L13.2481454,13.15 C12.8339318,13.15 12.4981454,12.8142135 12.4981454,12.4 L12.4981454,12.4 C12.4981454,11.9857864 12.8339318,11.65 13.2481454,11.65 L15.0033334,11.65 C16.430069,11.65 17.5866667,10.4934022 17.5866667,9.06666664 C17.5866667,7.63993104 16.430069,6.48333331 15.0033334,6.48333331 L14.2533334,6.48333331 L14.2533334,5.73333331 C14.2533334,4.766835 13.4698317,3.98333331 12.5033334,3.98333331 C12.0778556,3.98333331 11.677791,4.1347412 11.3622229,4.40648827 L10.7671393,4.91893621 L10.2825987,4.30091698 C9.71666521,3.57908313 8.8544715,3.14999998 7.92000002,3.14999998 C6.26314577,3.14999998 4.92000002,4.49314573 4.92000002,6.14999998 C4.92000002,6.49555428 4.97813132,6.83211105 5.09051207,7.15006542 L5.44393822,8.14999998 L4.17000002,8.14999998 C3.2035017,8.14999998 2.42000002,8.93350166 2.42000002,9.89999998 C2.42000002,10.8664983 3.2035017,11.65 4.17000002,11.65 L6.3314787,11.65 C6.74569226,11.65 7.0814787,11.9857864 7.0814787,12.4 L7.0814787,12.4 C7.0814787,12.8142135 6.74569226,13.15 6.3314787,13.15 L4.17000002,13.15 C2.37507458,13.15 0.920000017,11.6949254 0.920000017,9.89999998 C0.920000017,8.35004415 2.00500333,7.05350443 3.45691693,6.72847384 C3.43240762,6.53779198 3.42000002,6.34466871 3.42000002,6.14999998 C3.42000002,3.6647186 5.43471864,1.64999998 7.92000002,1.64999998 C9.07948885,1.64999998 10.1670883,2.09202867 10.9879072,2.85761964 C11.4484759,2.61453106 11.9662234,2.48333331 12.5033334,2.48333331 C14.0599442,2.48333331 15.3609581,3.577674 15.6789925,5.03897274 Z"/>
</svg>