<svg id="easer" viewBox="0 0 20 20">
  <path d="M12.9850959,16 L17.25,16 C17.6642136,16 18,16.3357864 18,16.75 C18,17.1642136 17.6642136,17.5 17.25,17.5 L10.95,17.5 C10.8963728,17.5 10.8440602,17.4943716 10.7936206,17.4836733 C10.1447925,17.5639974 9.48052095,17.3478097 9.01367178,16.8379452 L2.54802712,9.77655824 C1.75449892,8.90991462 1.8318486,7.52297203 2.72079247,6.67873528 L5.93994302,3.62148355 C6.8288869,2.7772468 8.19280001,2.79541117 8.98632822,3.66205479 L15.4519729,10.7234418 C16.2455011,11.5900854 16.1681514,12.977028 15.2792075,13.8212647 L12.9850959,16 Z M6.98803091,12.1607823 L10.2208532,15.6914758 C10.4192353,15.9081367 10.7602136,15.9126778 10.9824495,15.7016186 L14.2016001,12.6443669 C14.4238361,12.4333077 14.4431735,12.0865721 14.2447914,11.8699112 L11.0119691,8.33921767 L6.98803091,12.1607823 Z M5.91042347,10.9838845 L9.93436165,7.16231984 L7.77914676,4.80852419 C7.58076471,4.59186328 7.23978643,4.58732219 7.01755046,4.79838138 L3.79839992,7.85563311 C3.57616395,8.06669229 3.55682653,8.41342794 3.75520858,8.63008885 L5.91042347,10.9838845 Z"/>
</svg>