<svg id="emoji" viewBox="0 0 20 20">
  <path d="M10,17.75 C5.71979319,17.75 2.25,14.2802068 2.25,10 C2.25,5.71979319 5.71979319,2.25 10,2.25 C14.2802068,2.25 17.75,5.71979319 17.75,10 C17.75,14.2802068 14.2802068,17.75 10,17.75 Z M10,16.25 C13.4517797,16.25 16.25,13.4517797 16.25,10 C16.25,6.54822031 13.4517797,3.75 10,3.75 C6.54822031,3.75 3.75,6.54822031 3.75,10 C3.75,13.4517797 6.54822031,16.25 10,16.25 Z M12,9 C11.4477153,9 11,8.55228475 11,8 C11,7.44771525 11.4477153,7 12,7 C12.5522847,7 13,7.44771525 13,8 C13,8.55228475 12.5522847,9 12,9 Z M8,9 C7.44771525,9 7,8.55228475 7,8 C7,7.44771525 7.44771525,7 8,7 C8.55228475,7 9,7.44771525 9,8 C9,8.55228475 8.55228475,9 8,9 Z M7.2303299,12.173097 L7.2303299,12.173097 C7.51504515,11.8883818 7.9620508,11.8465209 8.29467769,12.0734238 C8.32287552,12.0926876 8.34938095,12.1098364 8.37418069,12.1248899 C9.32635361,12.7028585 10.5113044,12.7475226 11.4994545,12.2588824 C11.5863162,12.2159293 11.6872595,12.1546634 11.8022846,12.0750846 L11.8022946,12.0750991 C12.1401115,11.8413844 12.5967166,11.8826295 12.8871841,12.173097 L12.8871841,12.173097 C13.1500048,12.4359176 13.1500048,12.8620341 12.8871841,13.1248547 C12.864364,13.1476748 12.8399319,13.168824 12.814077,13.1881384 C12.5716396,13.369194 12.3664475,13.5021183 12.1984754,13.5868774 C10.6997005,14.3431622 8.88382073,14.2546629 7.4592601,13.3213796 C7.41241875,13.2906921 7.36051063,13.2539354 7.30353575,13.2111097 L7.30354467,13.2110978 C6.99935514,12.9824508 6.93811587,12.5505013 7.16676294,12.2463118 C7.18620639,12.2204445 7.20744795,12.195979 7.2303299,12.173097 Z"/>
</svg>