<svg id="emoji" viewBox="0 0 20 20">
  <path d="M10,17.75 C5.71979319,17.75 2.25,14.2802068 2.25,10 C2.25,5.71979319 5.71979319,2.25 10,2.25 C14.2802068,2.25 17.75,5.71979319 17.75,10 C17.75,14.2802068 14.2802068,17.75 10,17.75 Z M10,16.25 C13.4517797,16.25 16.25,13.4517797 16.25,10 C16.25,6.54822031 13.4517797,3.75 10,3.75 C6.54822031,3.75 3.75,6.54822031 3.75,10 C3.75,13.4517797 6.54822031,16.25 10,16.25 Z M12,9 C11.4477153,9 11,8.55228475 11,8 C11,7.44771525 11.4477153,7 12,7 C12.5522847,7 13,7.44771525 13,8 C13,8.55228475 12.5522847,9 12,9 Z M8,9 C7.44771525,9 7,8.55228475 7,8 C7,7.44771525 7.44771525,7 8,7 C8.55228475,7 9,7.44771525 9,8 C9,8.55228475 8.55228475,9 8,9 Z M6.69999981,12.7034271 L7.76065998,11.642767 C9.02986393,12.9119709 11.0876501,12.9119709 12.3568541,11.642767 L13.4175142,12.7034271 C11.5625238,14.5584175 8.55499019,14.5584175 6.69999981,12.7034271 Z"/>
</svg>