<svg id="eye-off" viewBox="0 0 20 20">
  <g fill-rule="nonzero" fill="currentColor">
    <path d="M10 3.99c-3.79.004-6.658 2.896-8.542 5.44a.62.62 0 0 0 0 .739c.679.919 1.482 1.873 2.41 2.725a.62.62 0 1 0 .84-.915c-.729-.668-1.371-1.421-1.95-2.172C4.533 7.51 7.014 5.235 10 5.232c.515 0 1.011.066 1.493.187a.62.62 0 1 0 .303-1.203A7.392 7.392 0 0 0 10 3.99zM14.14 5.32a.62.62 0 0 0-.327 1.145c1.33.867 2.47 2.11 3.422 3.342-1.776 2.294-4.254 4.562-7.234 4.566-1.22-.003-2.346-.37-3.389-.972a.62.62 0 1 0-.62 1.076c1.19.686 2.537 1.135 4.008 1.137 3.79-.004 6.659-2.895 8.543-5.44a.62.62 0 0 0 0-.738c-1.052-1.424-2.399-2.934-4.051-4.011a.62.62 0 0 0-.352-.106z"/>
    <path d="M11.722 7.895a.62.62 0 0 0-.468.993c.188.257.298.57.298.914 0 .864-.687 1.552-1.552 1.552-.371 0-.706-.127-.972-.342a.62.62 0 1 0-.779.967 2.79 2.79 0 0 0 1.751.616 2.803 2.803 0 0 0 2.793-2.793c0-.612-.2-1.185-.536-1.646a.62.62 0 0 0-.535-.261z"/>
    <path d="M18.057 1.107a.62.62 0 0 0-.427.187L1.492 17.432a.62.62 0 1 0 .878.879L18.508 2.172a.62.62 0 0 0-.45-1.065z"/>
  </g>
</svg>