<svg id="eye-off" viewBox="0 0 20 20">
  <path d="M3.34075,13.6533 C2.50275,12.9023 1.77075,12.0273 1.20775,11.0313 C0.93075,10.5413 0.93075,9.9313 1.20775,9.4413 C2.96875,6.3233 6.25475,4.2363 9.99975,4.2363 C11.24975,4.2363 12.44875,4.4693 13.55775,4.8953 L12.14875,6.1023 C11.46475,5.9273 10.74475,5.8343 9.99975,5.8343 C6.72575,5.8343 4.00875,7.6603 2.49975,10.2363 C3.02275,11.1623 3.71175,11.9723 4.51375,12.6483 L3.34075,13.6533 Z M18.79245,9.4414 C19.06945,9.9314 19.06945,10.5414 18.79245,11.0314 C17.03145,14.1494 13.74545,16.2364 10.00045,16.2364 C8.56145,16.2364 7.19345,15.9234 5.95145,15.3674 L7.29845,14.2124 C8.15045,14.4994 9.05345,14.6704 10.00045,14.6704 C13.20545,14.6704 16.00245,12.8874 17.50045,10.2364 C16.91445,9.1704 16.10045,8.2414 15.11945,7.5124 C15.11845,7.5124 15.11745,7.5114 15.11545,7.5104 L16.30545,6.4914 C17.30245,7.3024 18.14945,8.3024 18.79245,9.4414 Z M2.83975,17 L1.90675,15.913 L16.97475,3 L17.90675,4.087 L2.83975,17 Z M7.64785,9.9609 L7.02585,10.4939 C7.01885,10.4079 6.99985,10.3239 6.99985,10.2359 C6.99985,9.9319 7.05885,9.6439 7.14285,9.3669 C7.25485,9.6069 7.43285,9.8099 7.64785,9.9609 Z M9.83445,8.0869 C9.68345,7.7789 9.44145,7.5249 9.13045,7.3799 C9.40745,7.2949 9.69545,7.2359 10.00045,7.2359 C10.24845,7.2359 10.48445,7.2749 10.71545,7.3319 L9.83445,8.0869 Z M8.75875,12.9609 L12.87675,9.4309 C12.94875,9.6889 12.99975,9.9549 12.99975,10.2359 C12.99975,11.8939 11.65675,13.2359 9.99975,13.2359 C9.55575,13.2359 9.13775,13.1339 8.75875,12.9609 Z"/>
</svg>