<svg id="file-pdf" viewBox="0 0 20 20">
  <path d="M16.6011696,10.8421053 C15.8401559,10.0935673 13.6693957,10.2994152 12.5840156,10.4366472 C11.5111111,9.78167641 10.7937622,8.87719298 10.288499,7.54853801 C10.5317739,6.54424951 10.9185185,5.01598441 10.6253411,4.05536062 C10.3633528,2.42105263 8.26744639,2.58323587 7.96803119,3.68732943 C7.69356725,4.69161793 7.94307992,6.08888889 8.40467836,7.87290448 C7.78089669,9.36374269 6.85146199,11.3660819 6.19649123,12.5138402 C4.94892788,13.1563353 3.26471735,14.1481481 3.01520468,15.3957115 C2.80935673,16.3812865 4.63703704,18.8389864 7.76218324,13.4495127 C9.15945419,12.9879142 10.6814815,12.4202729 12.0288499,12.1957115 C13.2077973,12.8319688 14.5863548,13.2561404 15.5095517,13.2561404 C17.1001949,13.2561404 17.2561404,11.497076 16.6011696,10.8421053 Z M4.24405458,15.6951267 C4.56218324,14.8405458 5.77231969,13.8549708 6.14035088,13.5118908 C4.95516569,15.4019493 4.24405458,15.7387914 4.24405458,15.6951267 Z M9.33411306,3.80584795 C9.7957115,3.80584795 9.75204678,5.80818713 9.44639376,6.35087719 C9.17192982,5.48382066 9.17816764,3.80584795 9.33411306,3.80584795 Z M7.81208577,12.3267057 C8.417154,11.2725146 8.93489279,10.0187135 9.35282651,8.91461988 C9.8705653,9.85653021 10.5317739,10.611306 11.2304094,11.1290448 C9.93294347,11.397271 8.80389864,11.9461988 7.81208577,12.3267057 Z M16.0210526,12.0148148 C16.0210526,12.0148148 15.7091618,12.3890838 13.694347,11.5282651 C15.8838207,11.3660819 16.245614,11.8651072 16.0210526,12.0148148 Z"/>
</svg>