<svg id="file-document" viewBox="0 0 20 20">
  <path d="M3,3 L17,3 C17.5522847,3 18,3.44771525 18,4 L18,4 C18,4.55228475 17.5522847,5 17,5 L3,5 C2.44771525,5 2,4.55228475 2,4 L2,4 C2,3.44771525 2.44771525,3 3,3 Z M3,7 L17,7 C17.5522847,7 18,7.44771525 18,8 L18,8 C18,8.55228475 17.5522847,9 17,9 L3,9 C2.44771525,9 2,8.55228475 2,8 L2,8 C2,7.44771525 2.44771525,7 3,7 Z M3,11 L17,11 C17.5522847,11 18,11.4477153 18,12 L18,12 C18,12.5522847 17.5522847,13 17,13 L3,13 C2.44771525,13 2,12.5522847 2,12 L2,12 C2,11.4477153 2.44771525,11 3,11 Z M3,15 L9,15 C9.55228475,15 10,15.4477153 10,16 L10,16 C10,16.5522847 9.55228475,17 9,17 L3,17 C2.44771525,17 2,16.5522847 2,16 L2,16 C2,15.4477153 2.44771525,15 3,15 Z"/>
</svg>