<svg id="files-zip" viewBox="0 0 20 20">
  <path d="M9.98571429,13.4285714 L12.2714286,13.4285714 L12.2714286,18 L7.7,18 L7.7,13.4285714 L7.7,11.1428571 L9.98571429,11.1428571 L9.98571429,13.4285714 Z M7.7,4.28571429 L7.7,2 L9.98571429,2 L9.98571429,4.28571429 L7.7,4.28571429 Z M9.98571429,6.57142857 L9.98571429,4.28571429 L12.2714286,4.28571429 L12.2714286,6.57142857 L9.98571429,6.57142857 Z M7.7,8.85714286 L7.7,6.57142857 L9.98571429,6.57142857 L9.98571429,8.85714286 L7.7,8.85714286 Z M9.98571429,11.1428571 L9.98571429,8.85714286 L12.2714286,8.85714286 L12.2714286,11.1428571 L9.98571429,11.1428571 Z M8.84285714,16.8571429 L11.1285714,16.8571429 L11.1285714,14.5714286 L8.84285714,14.5714286 L8.84285714,16.8571429 Z"/>
</svg>