<svg id="flag" viewBox="0 0 20 20">
  <path d="M12.2357284,6.2699585 L14.8713112,8.77519774 C15.2716084,9.15569817 15.2876569,9.78865973 14.9071565,10.188957 C14.7183742,10.3875613 14.456366,10.5 14.1823542,10.5 L5.5,10.5 L5.5,17.25 C5.5,17.6642136 5.16421356,18 4.75,18 C4.33578644,18 4,17.6642136 4,17.25 L4,3 C4,2.44771525 4.44771525,2 5,2 L14.5,2 C14.9854969,2 15.3790699,2.39357302 15.3790699,2.87906994 C15.3790699,3.11851309 15.2813968,3.34759529 15.1086237,3.51337364 L12.2357284,6.2699585 Z M12.4509563,3.5 L5.5,3.5 L5.5,9 L12.4095854,9 C12.5200423,9 12.6095854,8.91045695 12.6095854,8.8 C12.6095854,8.74571612 12.5875198,8.69376406 12.548455,8.65607214 L10.4483546,6.62977814 C10.2496317,6.4380392 10.2439701,6.12150734 10.435709,5.92278444 C10.4398485,5.91849419 10.4440644,5.91427832 10.4483546,5.91013886 L12.589826,3.84392786 C12.6693151,3.76723228 12.6715798,3.64061954 12.5948842,3.56113038 C12.5571923,3.52206556 12.5052402,3.5 12.4509563,3.5 Z"/>
</svg>