<svg id="github" viewBox="0 0 20 20">
  <path d="M7.019 15.128c0 .072-.083.13-.189.13-.12.011-.203-.047-.203-.13 0-.073.084-.13.189-.13.109-.012.203.046.203.13zm-1.128-.163c-.026.072.047.156.156.177.094.037.203 0 .225-.072.021-.073-.048-.156-.156-.189-.095-.025-.2.011-.225.084zm1.603-.062c-.105.025-.177.094-.167.178.011.072.106.12.214.094.106-.025.178-.094.167-.167-.01-.069-.108-.116-.214-.105zM9.882 1C4.849 1 1 4.82 1 9.853c0 4.023 2.532 7.466 6.15 8.678.464.083.627-.203.627-.439 0-.225-.01-1.466-.01-2.228 0 0-2.54.545-3.074-1.08 0 0-.413-1.057-1.008-1.329 0 0-.831-.57.058-.558 0 0 .903.072 1.4.936.795 1.4 2.126.997 2.645.758.084-.58.32-.983.58-1.223-2.027-.225-4.074-.519-4.074-4.009 0-.998.276-1.498.857-2.137-.095-.236-.403-1.208.094-2.463.758-.236 2.503.98 2.503.98a8.524 8.524 0 0 1 2.279-.31 8.49 8.49 0 0 1 2.278.31s1.745-1.22 2.504-.98c.497 1.259.188 2.227.094 2.463.58.642.936 1.143.936 2.137 0 3.501-2.137 3.78-4.165 4.01.334.286.617.83.617 1.683 0 1.222-.011 2.735-.011 3.033 0 .236.167.522.627.439 3.629-1.205 6.088-4.648 6.088-8.671C18.995 4.82 14.914 1 9.882 1zM4.527 13.513c-.048.037-.037.12.025.189.058.058.141.083.189.036.047-.036.036-.12-.026-.188-.058-.058-.141-.084-.188-.037zm-.392-.294c-.026.048.01.106.083.142.058.036.13.025.156-.025.026-.048-.01-.106-.083-.142-.073-.022-.13-.01-.156.025zm1.175 1.292c-.058.047-.036.156.047.225.084.083.189.094.236.036.047-.047.026-.156-.047-.225-.08-.083-.189-.094-.236-.036zm-.413-.533c-.058.036-.058.13 0 .214.058.083.156.12.203.083.058-.047.058-.141 0-.225-.051-.083-.145-.12-.203-.072z"/>
</svg>