<svg id="gitlab" viewBox="0 0 20 20">
  <path d="M2.93066667,8.13558824 L9.99733333,17.2529412 L2.25244444,11.5458824 C2.03934428,11.3888873 1.94979809,11.1151413 2.02933333,10.8638235 L2.93066667,8.13558824 Z M5.28622222,2.71441176 C5.24175306,2.59079107 5.1237933,2.50826874 4.99155556,2.50826874 C4.85931781,2.50826874 4.74135805,2.59079107 4.69688889,2.71441176 L2.93066667,8.13558824 L7.05333333,8.13558824 L5.28622222,2.71441176 Z M7.05333333,8.13558824 L9.99822222,17.2529412 L12.9422222,8.13558824 L7.05333333,8.13558824 Z M17.9671111,10.8638235 L17.0657778,8.13558824 L9.99822222,17.2529412 L17.744,11.5458824 C17.956773,11.3886559 18.0459484,11.1149531 17.9662222,10.8638235 L17.9671111,10.8638235 Z M15.2977778,2.71441176 C15.2533086,2.59079107 15.1353489,2.50826874 15.0031111,2.50826874 C14.8708734,2.50826874 14.7529136,2.59079107 14.7084444,2.71441176 L12.9422222,8.13558824 L17.0648889,8.13558824 L15.2977778,2.71441176 Z"/>
</svg>