<svg id="globe" viewBox="0 0 512 512">
  <path d="M504 256C504 118.815 392.705 8 256 8 119.371 8 8 118.74 8 256c0 136.938 111.041 248 248 248 136.886 0 248-110.987 248-248zm-41.625 64h-99.434c6.872-42.895 6.6-86.714.055-128h99.38c12.841 41.399 12.843 86.598-.001 128zM256.001 470.391c-30.732-27.728-54.128-69.513-67.459-118.391h134.917c-13.332 48.887-36.73 90.675-67.458 118.391zM181.442 320c-7.171-41.387-7.349-85.537.025-128h149.067c7.371 42.453 7.197 86.6.025 128H181.442zM256 41.617c33.557 30.295 55.554 74.948 67.418 118.383H188.582c11.922-43.649 33.98-88.195 67.418-118.383zM449.544 160h-93.009c-10.928-44.152-29.361-83.705-53.893-114.956C366.825 59.165 420.744 101.964 449.544 160zM209.357 45.044C184.826 76.293 166.393 115.847 155.464 160H62.456C91.25 101.975 145.162 59.169 209.357 45.044zM49.625 192h99.38c-6.544 41.28-6.818 85.1.055 128H49.625c-12.842-41.399-12.844-86.598 0-128zm12.831 160h93.122c11.002 44.176 29.481 83.824 53.833 114.968C144.875 452.786 91.108 409.738 62.456 352zm240.139 114.966c24.347-31.138 42.825-70.787 53.827-114.966h93.121c-28.695 57.827-82.504 100.802-146.948 114.966z"/>
</svg>