<svg id="hand-pointer" viewBox="0 0 20 20">
  <path d="M14.2669688,7.879875 C13.7213438,6.98953125 12.570375,6.72165625 11.7001563,7.26446875 C11.20125,6.6135 10.3666563,6.38078125 9.6339375,6.6274375 L9.6339375,3.8828125 C9.6339375,2.844625 8.7968125,2 7.767875,2 C6.7389375,2 5.90178125,2.844625 5.90178125,3.8828125 L5.90178125,9.56725 C5.26621875,9.13996875 4.41496875,9.1331875 3.764625,9.61325 C2.93475,10.2259062 2.753125,11.397 3.35425,12.2359375 L6.92521875,17.2203125 C7.27509375,17.7085313 7.84040625,18 8.4375,18 L14.2410625,18 C15.107125,18 15.8608125,17.3970625 16.0580938,16.546 L16.9509375,12.6944375 C16.983537,12.5538188 16.9999975,12.4099417 17,12.2655937 L17,9.54684375 C17,8.1291875 15.4996563,7.22459375 14.2669688,7.879875 Z M5.56553125,10.612125 L6.44859375,11.8445938 C6.44862899,11.9526624 6.51810772,12.0484712 6.6208164,12.0820831 C6.72352508,12.115695 6.83620335,12.0794978 6.90012135,11.9923581 C6.96403934,11.9052184 6.9647216,11.7868708 6.9018125,11.699 L6.9018125,3.8828125 C6.9018125,2.715625 8.6339375,2.71375 8.6339375,3.8828125 L8.6339375,9.546875 C8.6339375,9.68494619 8.74586631,9.796875 8.8839375,9.796875 L9.1071875,9.796875 C9.24525869,9.796875 9.3571875,9.68494619 9.3571875,9.546875 L9.3571875,8.4140625 C9.3571875,7.246875 11.0893438,7.245 11.0893438,8.4140625 L11.0893438,9.546875 C11.0893438,9.68494619 11.2012726,9.796875 11.3393438,9.796875 L11.5625,9.796875 C11.7005712,9.796875 11.8125,9.68494619 11.8125,9.546875 L11.8125,8.8671875 C11.8125,7.69996875 13.5446563,7.6981875 13.5446563,8.8671875 L13.5446563,9.546875 C13.5446563,9.68494619 13.6565851,9.796875 13.7946563,9.796875 L14.017875,9.796875 C14.1559462,9.796875 14.267875,9.68494619 14.267875,9.546875 C14.267875,8.3796875 16.0000313,8.3778125 16.0000313,9.546875 L16.0000313,12.265625 C16.0000313,12.3339375 15.9922188,12.4022187 15.9768438,12.468625 L15.0839375,16.3202187 C14.9911563,16.7204688 14.6445625,17 14.2410938,17 L8.4375,17 C8.16209375,17 7.90059375,16.864625 7.73809375,16.637875 L4.16675,11.6535 C3.47259375,10.684625 4.91053125,9.69803125 5.56553125,10.612125 Z M8.63390625,14.169625 L8.63390625,12.174125 C8.63390625,11.974405 8.79581128,11.8125 8.99553125,11.8125 C9.19525122,11.8125 9.35715625,11.974405 9.35715625,12.174125 L9.35715625,14.169625 C9.35715625,14.369345 9.19525122,14.53125 8.99553125,14.53125 C8.79581128,14.53125 8.63390625,14.369345 8.63390625,14.169625 Z M11.4508906,11.8125 C11.650602,11.8125 11.8125,11.974398 11.8125,12.1741094 L11.8125,14.1696406 C11.8125,14.369352 11.650602,14.53125 11.4508906,14.53125 C11.2511793,14.53125 11.0892813,14.369352 11.0892813,14.1696406 L11.0892813,12.1741094 C11.0892813,11.974398 11.2511793,11.8125 11.4508906,11.8125 Z M13.5446563,14.1696406 L13.5446563,12.1741094 C13.5446563,11.974398 13.7065543,11.8125 13.9062656,11.8125 C14.105977,11.8125 14.267875,11.974398 14.267875,12.1741094 L14.267875,14.1696406 C14.267875,14.369352 14.105977,14.53125 13.9062656,14.53125 C13.7065543,14.53125 13.5446563,14.369352 13.5446563,14.1696406 Z"/>
</svg>