<svg id="hand-pointer" viewBox="0 0 20 20">
  <path d="M14.3023254,7.75018054 C15.5880081,7.13960586 17.100001,8.0886469 17.100001,9.54684375 L17.100001,12.2655955 C17.0999984,12.4175446 17.0826711,12.568998 17.0483553,12.71702 L16.1555117,16.5685818 C15.9477712,17.4647649 15.1538673,18.1 14.2410635,18.1 L8.437501,18.1 C7.808117,18.1 7.21256299,17.792947 6.84392903,17.2785518 L3.27296408,12.2941821 C2.63958068,11.4102244 2.83193969,10.1775082 3.70523702,9.53279536 C4.32751041,9.07345348 5.14204807,9.02921986 5.80178225,9.38959922 L5.80178225,3.8828125 C5.80178225,2.78960582 6.68349886,1.9 7.767876,1.9 C8.85224772,1.9 9.7339385,2.78960034 9.7339385,3.8828125 L9.7339385,6.49336981 C10.4570105,6.30545294 11.2319638,6.54800333 11.72383,7.13419477 C12.607664,6.63653299 13.7282837,6.9024006 14.3023254,7.75018054 Z M4.41836491,10.5080489 C4.06068275,10.7637557 3.96436348,11.1993141 4.24803883,11.5952566 L7.81937717,16.5796241 C7.96315902,16.7802551 8.19444274,16.9 8.437501,16.9 L14.2410948,16.9 C14.5977369,16.9 14.9041815,16.6528444 14.986522,16.2976349 L15.8794219,12.4460687 C15.8930942,12.3870165 15.9000323,12.3263017 15.9000323,12.265625 L15.9000323,9.546875 C15.9000323,9.079696 15.5723723,8.77747196 15.1321674,8.75084176 C14.7049061,8.72499458 14.3723959,8.97154621 14.3678697,9.37491657 C14.3676521,9.39933405 14.3676521,9.39933405 14.3675326,9.43687436 C14.3668342,9.69112984 14.1605231,9.896875 13.9062666,9.896875 C13.6513268,9.896875 13.4446573,9.69020544 13.4446573,9.43526562 L13.4446573,8.8671875 C13.4446573,8.38918355 13.112837,8.0908822 12.6786305,8.09110546 C12.2444959,8.09132868 11.912501,8.3899009 11.912501,8.8671875 L11.912501,9.43529688 C11.912501,9.69021943 11.7058454,9.896875 11.4509229,9.896875 C11.1960003,9.896875 10.9893448,9.69021943 10.9893448,9.43529688 L10.9893448,8.4140625 C10.9893448,7.93603218 10.6575289,7.63773373 10.2233207,7.63796874 C9.78918828,7.6382037 9.4571885,7.93678728 9.4571885,8.4140625 L9.4571885,9.43525 C9.4571885,9.69019845 9.25051195,9.896875 8.9955635,9.896875 C8.74061505,9.896875 8.5339385,9.69019845 8.5339385,9.43525 L8.5339385,3.8828125 C8.5339385,3.40478173 8.20212911,3.10648373 7.76793013,3.10671874 C7.3338068,3.1069537 7.0018135,3.40553683 7.0018135,3.8828125 L7.0018135,11.4609849 C7.0018135,11.64626 6.88218577,11.8103385 6.70578911,11.8670049 C6.52939285,11.9236711 6.33658902,11.8599649 6.22867972,11.7093585 L5.48424408,10.6703679 C5.21725512,10.297768 4.77269241,10.2547404 4.41836491,10.5080489 Z M8.53390725,14.169625 L8.53390725,12.174125 C8.53390725,11.9191766 8.7405838,11.7125 8.99553225,11.7125 C9.2504807,11.7125 9.45715725,11.9191766 9.45715725,12.174125 L9.45715725,14.169625 C9.45715725,14.4245734 9.2504807,14.63125 8.99553225,14.63125 C8.7405838,14.63125 8.53390725,14.4245734 8.53390725,14.169625 Z M11.4508916,11.7125 C11.7058314,11.7125 11.912501,11.9191696 11.912501,12.1741094 L11.912501,14.1696406 C11.912501,14.4245804 11.7058314,14.63125 11.4508916,14.63125 C11.1959518,14.63125 10.9892823,14.4245804 10.9892823,14.1696406 L10.9892823,12.1741094 C10.9892823,11.9191696 11.1959518,11.7125 11.4508916,11.7125 Z M13.4446573,12.1741094 C13.4446573,11.9191696 13.6513268,11.7125 13.9062666,11.7125 C14.1612064,11.7125 14.367876,11.9191696 14.367876,12.1741094 L14.367876,14.1696406 C14.367876,14.4245804 14.1612064,14.63125 13.9062666,14.63125 C13.6513268,14.63125 13.4446573,14.4245804 13.4446573,14.1696406 L13.4446573,12.1741094 Z"/>
</svg>