<svg id="hashtag" viewBox="0 0 20 20">
  <path d="M6.25,12.25 L6.25,7.75 L3.75,7.75 C3.33578644,7.75 3,7.41421356 3,7 L3,7 C3,6.58578644 3.33578644,6.25 3.75,6.25 L6.25,6.25 L6.25,3.75 C6.25,3.33578644 6.58578644,3 7,3 L7,3 C7.41421356,3 7.75,3.33578644 7.75,3.75 L7.75,6.25 L12.25,6.25 L12.25,3.75 C12.25,3.33578644 12.5857864,3 13,3 L13,3 C13.4142136,3 13.75,3.33578644 13.75,3.75 L13.75,6.25 L16.25,6.25 C16.6642136,6.25 17,6.58578644 17,7 L17,7 C17,7.41421356 16.6642136,7.75 16.25,7.75 L13.75,7.75 L13.75,12.25 L16.25,12.25 C16.6642136,12.25 17,12.5857864 17,13 L17,13 C17,13.4142136 16.6642136,13.75 16.25,13.75 L13.75,13.75 L13.75,16.25 C13.75,16.6642136 13.4142136,17 13,17 L13,17 C12.5857864,17 12.25,16.6642136 12.25,16.25 L12.25,13.75 L7.75,13.75 L7.75,16.25 C7.75,16.6642136 7.41421356,17 7,17 L7,17 C6.58578644,17 6.25,16.6642136 6.25,16.25 L6.25,13.75 L3.75,13.75 C3.33578644,13.75 3,13.4142136 3,13 L3,13 C3,12.5857864 3.33578644,12.25 3.75,12.25 L6.25,12.25 Z M7.75,12.25 L12.25,12.25 L12.25,7.75 L7.75,7.75 L7.75,12.25 Z"/>
</svg>