<svg id="help" viewBox="0 0 20 20">
  <path d="M10.697,17.569 L10.697,14.777 C11.89,14.604 12.932,13.999 13.679,13.121 L16.043,14.598 C14.785,16.247 12.876,17.37 10.697,17.569 M2.417,10.433 L5.204,10.53 C5.35,11.85 6.018,13.002 7.009,13.786 L5.614,16.201 C3.781,14.901 2.551,12.813 2.417,10.433 M9.302,2.43 L9.302,5.222 C8.109,5.396 7.067,6 6.32,6.878 L3.957,5.402 C5.215,3.753 7.124,2.63 9.302,2.43 M17.58,9.517 L14.791,9.419 C14.633,8.12 13.968,6.986 12.991,6.213 L14.385,3.798 C16.206,5.089 17.43,7.157 17.58,9.517 M14.757,10.913 L17.529,11.01 C17.415,11.866 17.159,12.675 16.784,13.417 L14.433,11.948 C14.578,11.62 14.687,11.274 14.757,10.913 M10.697,5.222 L10.697,2.43 C11.577,2.51 12.411,2.745 13.178,3.1 L11.791,5.503 C11.445,5.365 11.077,5.277 10.697,5.222 M5.238,9.135 L2.463,9.038 C2.574,8.165 2.833,7.339 3.216,6.583 L5.566,8.051 C5.415,8.394 5.306,8.757 5.238,9.135 M10,13.453 C8.094,13.453 6.546,11.904 6.546,10 C6.546,8.095 8.094,6.546 10,6.546 C11.905,6.546 13.454,8.095 13.454,10 C13.454,11.904 11.905,13.453 10,13.453 M9.302,14.777 L9.302,17.569 C8.423,17.489 7.589,17.255 6.821,16.899 L8.209,14.496 C8.554,14.634 8.923,14.722 9.302,14.777 M10,1 C5.038,1 1,5.037 1,10 C1,14.962 5.038,19 10,19 C14.962,19 19,14.962 19,10 C19,5.037 14.962,1 10,1"/>
</svg>