<svg id="hubot" viewBox="0 0 20 20">
  <path d="M4.858 7.143A1.29 1.29 0 0 0 3.572 8.43v2.572a1.29 1.29 0 0 0 1.286 1.286h10.286A1.29 1.29 0 0 0 16.43 11V8.429a1.29 1.29 0 0 0-1.286-1.286H4.858zm10.286 2.25l-1.607 1.608h-1.929l-1.607-1.607L8.394 11h-1.93L4.859 9.394v-.965h.964l1.607 1.607L9.036 8.43h1.93l1.607 1.607L14.18 8.43h.964v.965zm-7.715 4.18h5.144v1.285H7.429v-1.285zM10.001 2C5.038 2 1 5.742 1 10.358v5.786a1.29 1.29 0 0 0 1.286 1.286h15.43a1.29 1.29 0 0 0 1.286-1.286v-5.786C19.002 5.742 14.964 2 10 2zm7.715 14.144H2.286v-5.786C2.286 6.385 5.68 3.17 10 3.17s7.715 3.215 7.715 7.188v5.786z"/>
</svg>