<svg id="import" viewBox="0 0 20 20">
  <path d="M10,1.66575398 L10,1.66575398 C10.4142136,1.66575398 10.75,2.00154042 10.75,2.41575398 L10.75,11.2185854 L12.2591672,9.70941821 C12.5572182,9.41136719 13.0404544,9.41136719 13.3385054,9.70941821 L13.3385054,9.70941821 C13.6365564,10.0074692 13.6365564,10.4907054 13.3385054,10.7887564 L10.696194,13.4310678 C10.3056697,13.8215921 9.67250471,13.8215921 9.28198042,13.4310678 L6.63966901,10.7887564 C6.34161799,10.4907054 6.34161799,10.0074692 6.63966901,9.70941821 L6.63966901,9.70941821 C6.93772003,9.41136719 7.4209562,9.41136719 7.71900722,9.70941821 L9.25,11.240411 L9.25,2.41575398 C9.25,2.00154042 9.58578644,1.66575398 10,1.66575398 Z M14.032,4.83242064 L14.032,4.83242064 C14.032,4.41820708 14.3677864,4.08242064 14.782,4.08242064 L16.75,4.08242064 C17.3022847,4.08242064 17.75,4.53013589 17.75,5.08242064 L17.75,16.7490873 C17.75,17.3013721 17.3022847,17.7490873 16.75,17.7490873 L3.25,17.7490873 C2.69771525,17.7490873 2.25,17.3013721 2.25,16.7490873 L2.25,5.08242064 C2.25,4.53013589 2.69771525,4.08242064 3.25,4.08242064 L5.25,4.08242064 C5.66421356,4.08242064 6,4.41820708 6,4.83242064 L6,4.83242064 C6,5.24663421 5.66421356,5.58242064 5.25,5.58242064 L3.75,5.58242064 L3.75,16.2490873 L16.25,16.2490873 L16.25,5.58242064 L14.782,5.58242064 C14.3677864,5.58242064 14.032,5.24663421 14.032,4.83242064 Z"/>
</svg>