<svg id="key" viewBox="0 0 20 20">
  <path d="M15.8613855,16.4547585 L16.4551488,15.8618841 L16.0409367,14.5188057 L10.7548434,9.39893063 L11.0490584,8.93049761 C11.185944,8.71094741 11.3512733,8.26029174 11.3512733,7.35720265 C11.3512733,5.15547858 9.55931701,3.36352229 7.35759294,3.36352229 L7.2393736,3.36530003 C5.1629798,3.4230764 3.42435555,5.16258952 3.36569031,7.24342765 C3.33457996,8.33317885 3.73634794,9.36248707 4.49455166,10.1411347 C5.25186652,10.9215602 6.27050834,11.350883 7.35759294,11.350883 C7.87846912,11.350883 8.33890233,11.2335525 8.77089179,10.9926695 L9.22154747,10.7402312 L10.810842,12.3357479 L12.5494663,12.3357479 L12.5494663,14.0761499 L12.7236843,14.249479 L14.4640863,14.249479 L14.4640863,15.989881 L14.5165294,16.0423241 L15.8613855,16.4547585 Z M17.2409074,13.7837126 L18,16.2449859 L16.2453761,17.9996097 L13.7921026,17.2458503 L13.100564,16.5543116 L13.100564,15.6121124 L12.1583647,15.6121124 L11.185944,14.6405805 L11.185944,13.6983813 L10.2446336,13.6983813 L8.96022051,12.4104127 C8.46067714,12.6130744 7.92291248,12.7144053 7.35759294,12.7144053 C5.89807298,12.7144053 4.53455069,12.1384194 3.51679774,11.0922227 C2.49993365,10.046026 1.96128012,8.66650405 2.00216802,7.20609523 C2.07949946,4.41416333 4.41455361,2.07999805 7.20648551,2.0026666 L7.35759294,2 C10.3112987,2 12.7139067,4.40349693 12.7139067,7.35720265 C12.7139067,8.07540736 12.6276866,8.66561518 12.4516909,9.14382574 L17.2409074,13.7837126 Z M5.40955157,6.77303913 C5.40955157,6.0201686 6.02020334,5.40951683 6.77307386,5.40951683 C7.52683325,5.40951683 8.13659616,6.0201686 8.13659616,6.77303913 C8.13659616,7.52590965 7.52683325,8.13656142 6.77307386,8.13656142 C6.02020334,8.13656142 5.40955157,7.52590965 5.40955157,6.77303913 Z"/>
</svg>