<svg id="keyboard" viewBox="0 0 20 20">
  <path d="M17.5,4.5 L2.5,4.5 C1.6715625,4.5 1,5.11559896 1,5.875 L1,14.125 C1,14.884401 1.6715625,15.5 2.5,15.5 L17.5,15.5 C18.3284375,15.5 19,14.884401 19,14.125 L19,5.875 C19,5.11559896 18.3284375,4.5 17.5,4.5 Z M18,14.125 C18,14.3777422 17.7757187,14.5833333 17.5,14.5833333 L2.5,14.5833333 C2.22428125,14.5833333 2,14.3777422 2,14.125 L2,5.875 C2,5.62225781 2.22428125,5.41666667 2.5,5.41666667 L17.5,5.41666667 C17.7757187,5.41666667 18,5.62225781 18,5.875 L18,14.125 Z M6.25,10.34375 L6.25,9.65625 C6.25,9.46641406 6.08209375,9.3125 5.875,9.3125 L5.125,9.3125 C4.91790625,9.3125 4.75,9.46641406 4.75,9.65625 L4.75,10.34375 C4.75,10.5335859 4.91790625,10.6875 5.125,10.6875 L5.875,10.6875 C6.08209375,10.6875 6.25,10.5335859 6.25,10.34375 Z M9.25,10.34375 L9.25,9.65625 C9.25,9.46641406 9.08209375,9.3125 8.875,9.3125 L8.125,9.3125 C7.91790625,9.3125 7.75,9.46641406 7.75,9.65625 L7.75,10.34375 C7.75,10.5335859 7.91790625,10.6875 8.125,10.6875 L8.875,10.6875 C9.08209375,10.6875 9.25,10.5335859 9.25,10.34375 Z M12.25,10.34375 L12.25,9.65625 C12.25,9.46641406 12.0820938,9.3125 11.875,9.3125 L11.125,9.3125 C10.9179062,9.3125 10.75,9.46641406 10.75,9.65625 L10.75,10.34375 C10.75,10.5335859 10.9179062,10.6875 11.125,10.6875 L11.875,10.6875 C12.0820938,10.6875 12.25,10.5335859 12.25,10.34375 Z M15.25,10.34375 L15.25,9.65625 C15.25,9.46641406 15.0820937,9.3125 14.875,9.3125 L14.125,9.3125 C13.9179062,9.3125 13.75,9.46641406 13.75,9.65625 L13.75,10.34375 C13.75,10.5335859 13.9179062,10.6875 14.125,10.6875 L14.875,10.6875 C15.0820937,10.6875 15.25,10.5335859 15.25,10.34375 Z M4.75,12.6354167 L4.75,11.9479167 C4.75,11.7580807 4.58209375,11.6041667 4.375,11.6041667 L3.625,11.6041667 C3.41790625,11.6041667 3.25,11.7580807 3.25,11.9479167 L3.25,12.6354167 C3.25,12.8252526 3.41790625,12.9791667 3.625,12.9791667 L4.375,12.9791667 C4.58209375,12.9791667 4.75,12.8252526 4.75,12.6354167 Z M16.75,12.6354167 L16.75,11.9479167 C16.75,11.7580807 16.5820938,11.6041667 16.375,11.6041667 L15.625,11.6041667 C15.4179062,11.6041667 15.25,11.7580807 15.25,11.9479167 L15.25,12.6354167 C15.25,12.8252526 15.4179062,12.9791667 15.625,12.9791667 L16.375,12.9791667 C16.5820938,12.9791667 16.75,12.8252526 16.75,12.6354167 Z M4.75,8.05208333 L4.75,7.36458333 C4.75,7.1747474 4.58209375,7.02083333 4.375,7.02083333 L3.625,7.02083333 C3.41790625,7.02083333 3.25,7.1747474 3.25,7.36458333 L3.25,8.05208333 C3.25,8.24191927 3.41790625,8.39583333 3.625,8.39583333 L4.375,8.39583333 C4.58209375,8.39583333 4.75,8.24191927 4.75,8.05208333 Z M7.75,8.05208333 L7.75,7.36458333 C7.75,7.1747474 7.58209375,7.02083333 7.375,7.02083333 L6.625,7.02083333 C6.41790625,7.02083333 6.25,7.1747474 6.25,7.36458333 L6.25,8.05208333 C6.25,8.24191927 6.41790625,8.39583333 6.625,8.39583333 L7.375,8.39583333 C7.58209375,8.39583333 7.75,8.24191927 7.75,8.05208333 Z M10.75,8.05208333 L10.75,7.36458333 C10.75,7.1747474 10.5820937,7.02083333 10.375,7.02083333 L9.625,7.02083333 C9.41790625,7.02083333 9.25,7.1747474 9.25,7.36458333 L9.25,8.05208333 C9.25,8.24191927 9.41790625,8.39583333 9.625,8.39583333 L10.375,8.39583333 C10.5820937,8.39583333 10.75,8.24191927 10.75,8.05208333 Z M13.75,8.05208333 L13.75,7.36458333 C13.75,7.1747474 13.5820938,7.02083333 13.375,7.02083333 L12.625,7.02083333 C12.4179062,7.02083333 12.25,7.1747474 12.25,7.36458333 L12.25,8.05208333 C12.25,8.24191927 12.4179062,8.39583333 12.625,8.39583333 L13.375,8.39583333 C13.5820938,8.39583333 13.75,8.24191927 13.75,8.05208333 Z M16.75,8.05208333 L16.75,7.36458333 C16.75,7.1747474 16.5820938,7.02083333 16.375,7.02083333 L15.625,7.02083333 C15.4179062,7.02083333 15.25,7.1747474 15.25,7.36458333 L15.25,8.05208333 C15.25,8.24191927 15.4179062,8.39583333 15.625,8.39583333 L16.375,8.39583333 C16.5820938,8.39583333 16.75,8.24191927 16.75,8.05208333 Z M13.75,12.40625 L13.75,12.1770833 C13.75,11.9872474 13.5820938,11.8333333 13.375,11.8333333 L6.625,11.8333333 C6.41790625,11.8333333 6.25,11.9872474 6.25,12.1770833 L6.25,12.40625 C6.25,12.5960859 6.41790625,12.75 6.625,12.75 L13.375,12.75 C13.5820938,12.75 13.75,12.5960859 13.75,12.40625 Z"/>
</svg>