<svg id="keyboard" viewBox="0 0 576 512">
  <path d="M528 64H48C21.49 64 0 85.49 0 112v288c0 26.51 21.49 48 48 48h480c26.51 0 48-21.49 48-48V112c0-26.51-21.49-48-48-48zm16 336c0 8.823-7.177 16-16 16H48c-8.823 0-16-7.177-16-16V112c0-8.823 7.177-16 16-16h480c8.823 0 16 7.177 16 16v288zM168 268v-24c0-6.627-5.373-12-12-12h-24c-6.627 0-12 5.373-12 12v24c0 6.627 5.373 12 12 12h24c6.627 0 12-5.373 12-12zm96 0v-24c0-6.627-5.373-12-12-12h-24c-6.627 0-12 5.373-12 12v24c0 6.627 5.373 12 12 12h24c6.627 0 12-5.373 12-12zm96 0v-24c0-6.627-5.373-12-12-12h-24c-6.627 0-12 5.373-12 12v24c0 6.627 5.373 12 12 12h24c6.627 0 12-5.373 12-12zm96 0v-24c0-6.627-5.373-12-12-12h-24c-6.627 0-12 5.373-12 12v24c0 6.627 5.373 12 12 12h24c6.627 0 12-5.373 12-12zm-336 80v-24c0-6.627-5.373-12-12-12H84c-6.627 0-12 5.373-12 12v24c0 6.627 5.373 12 12 12h24c6.627 0 12-5.373 12-12zm384 0v-24c0-6.627-5.373-12-12-12h-24c-6.627 0-12 5.373-12 12v24c0 6.627 5.373 12 12 12h24c6.627 0 12-5.373 12-12zM120 188v-24c0-6.627-5.373-12-12-12H84c-6.627 0-12 5.373-12 12v24c0 6.627 5.373 12 12 12h24c6.627 0 12-5.373 12-12zm96 0v-24c0-6.627-5.373-12-12-12h-24c-6.627 0-12 5.373-12 12v24c0 6.627 5.373 12 12 12h24c6.627 0 12-5.373 12-12zm96 0v-24c0-6.627-5.373-12-12-12h-24c-6.627 0-12 5.373-12 12v24c0 6.627 5.373 12 12 12h24c6.627 0 12-5.373 12-12zm96 0v-24c0-6.627-5.373-12-12-12h-24c-6.627 0-12 5.373-12 12v24c0 6.627 5.373 12 12 12h24c6.627 0 12-5.373 12-12zm96 0v-24c0-6.627-5.373-12-12-12h-24c-6.627 0-12 5.373-12 12v24c0 6.627 5.373 12 12 12h24c6.627 0 12-5.373 12-12zm-96 152v-8c0-6.627-5.373-12-12-12H180c-6.627 0-12 5.373-12 12v8c0 6.627 5.373 12 12 12h216c6.627 0 12-5.373 12-12z"/>
</svg>