<svg id="language" viewBox="0 0 20 20">
  <path d="M18.778 11.018c-.562-1.536-2.13-2.453-4.195-2.453-.081 0-.159.001-.236.005l-.014-1.857 3.172-.546c.104-.017.12-.107.098-.208-.02-.1-.15-.795-.169-.878-.024-.118-.092-.115-.186-.098-.094.016-2.925.415-2.925.415l-.012-1.87c0-.113-.062-.143-.175-.141l-.922.014c-.095.002-.148.044-.146.134l.03 2.076s-2.755.474-2.83.489c-.075.012-.153.047-.136.128.017.081.171.985.187 1.055.017.072.065.116.17.096l2.631-.453.032 1.816a4.23 4.23 0 0 0-2.03 1.173 3.915 3.915 0 0 0-1.087 2.666c0 1.428.874 2.276 2.095 2.426 2.846.348 4.607-2.754 5.192-4.244.988 1.356.23 3.919-1.884 5.382-.039.026-.088.116-.03.187l.557.68c.072.086.186.053.23.02 2.26-1.556 3.295-4.063 2.583-6.014zm-6.648 2.87c-.87-.11-.85-.823-.85-1.308 0-.696.295-1.422.79-1.94a2.889 2.889 0 0 1 1.105-.72l.074 3.85c-.347.117-.72.166-1.119.117zm2.185-.498l.041-3.699c.076-.003.15-.009.227-.009.695 0 1.344.131 1.696.325.352.196-.92 2.442-1.964 3.383zM6.26 6.488a.176.176 0 0 0-.177-.13H4.328a.175.175 0 0 0-.174.13l-3.147 9.936c-.015.046-.01.069.056.069h1.56c.067 0 .089-.02.102-.065l.907-2.986H6.78l.907 2.986c.014.044.035.065.102.065h1.56c.065 0 .07-.023.056-.069-.012-.045-2.775-8.767-3.144-9.936zm-2.357 5.687L5.206 7.45l1.302 4.725H3.903z"/>
</svg>