<svg id="linkedin" viewBox="0 0 20 20">
  <path d="M17.714 1H2.282C1.575 1 1 1.583 1 2.298v15.404C1 18.417 1.575 19 2.282 19h15.432c.707 0 1.286-.583 1.286-1.298V2.298C19 1.583 18.421 1 17.714 1zM6.44 16.429H3.772v-8.59h2.672v8.59H6.44zM5.106 6.665a1.548 1.548 0 0 1 0-3.094 1.55 1.55 0 0 1 1.547 1.547c0 .856-.69 1.547-1.547 1.547zm11.335 9.764h-2.668V12.25c0-.996-.02-2.278-1.386-2.278-1.39 0-1.604 1.085-1.604 2.206v4.25H8.116v-8.59h2.559v1.174h.036c.358-.675 1.23-1.387 2.527-1.387 2.7 0 3.203 1.78 3.203 4.095v4.709z"/>
</svg>