<svg id="list" viewBox="0 0 20 20">
  <path d="M6.7826087,5.75 C6.35038585,5.75 6,5.41421356 6,5 C6,4.58578644 6.35038585,4.25 6.7826087,4.25 L17.2173913,4.25 C17.6496142,4.25 18,4.58578644 18,5 C18,5.41421356 17.6496142,5.75 17.2173913,5.75 L6.7826087,5.75 Z M3,6 C2.44771525,6 2,5.55228475 2,5 C2,4.44771525 2.44771525,4 3,4 C3.55228475,4 4,4.44771525 4,5 C4,5.55228475 3.55228475,6 3,6 Z M6.7826087,10.75 C6.35038585,10.75 6,10.4142136 6,10 C6,9.58578644 6.35038585,9.25 6.7826087,9.25 L17.2173913,9.25 C17.6496142,9.25 18,9.58578644 18,10 C18,10.4142136 17.6496142,10.75 17.2173913,10.75 L6.7826087,10.75 Z M3,11 C2.44771525,11 2,10.5522847 2,10 C2,9.44771525 2.44771525,9 3,9 C3.55228475,9 4,9.44771525 4,10 C4,10.5522847 3.55228475,11 3,11 Z M6.7826087,15.75 C6.35038585,15.75 6,15.4142136 6,15 C6,14.5857864 6.35038585,14.25 6.7826087,14.25 L17.2173913,14.25 C17.6496142,14.25 18,14.5857864 18,15 C18,15.4142136 17.6496142,15.75 17.2173913,15.75 L6.7826087,15.75 Z M3,16 C2.44771525,16 2,15.5522847 2,15 C2,14.4477153 2.44771525,14 3,14 C3.55228475,14 4,14.4477153 4,15 C4,15.5522847 3.55228475,16 3,16 Z"/>
</svg>