<svg id="list" viewBox="0 0 20 20">
  <path d="M6.7826087,5.75 C6.35038585,5.75 6,5.41421356 6,5 C6,4.58578644 6.35038585,4.25 6.7826087,4.25 L17.2173913,4.25 C17.6496142,4.25 18,4.58578644 18,5 C18,5.41421356 17.6496142,5.75 17.2173913,5.75 L6.7826087,5.75 Z M6.7826087,10.75 C6.35038585,10.75 6,10.4142136 6,10 C6,9.58578644 6.35038585,9.25 6.7826087,9.25 L17.2173913,9.25 C17.6496142,9.25 18,9.58578644 18,10 C18,10.4142136 17.6496142,10.75 17.2173913,10.75 L6.7826087,10.75 Z M6.7826087,15.75 C6.35038585,15.75 6,15.4142136 6,15 C6,14.5857864 6.35038585,14.25 6.7826087,14.25 L17.2173913,14.25 C17.6496142,14.25 18,14.5857864 18,15 C18,15.4142136 17.6496142,15.75 17.2173913,15.75 L6.7826087,15.75 Z M1.995652,15 L1.995652,15 C1.995652,14.5857864 2.33143844,14.25 2.745652,14.25 L3.85434765,14.25 C4.26856121,14.25 4.60434765,14.5857864 4.60434765,15 L4.60434765,15 C4.60434765,15.4142136 4.26856121,15.75 3.85434765,15.75 L2.745652,15.75 C2.33143844,15.75 1.995652,15.4142136 1.995652,15 Z M1.995652,10 L1.995652,10 C1.995652,9.58578644 2.33143844,9.25 2.745652,9.25 L3.85434765,9.25 C4.26856121,9.25 4.60434765,9.58578644 4.60434765,10 L4.60434765,10 C4.60434765,10.4142136 4.26856121,10.75 3.85434765,10.75 L2.745652,10.75 C2.33143844,10.75 1.995652,10.4142136 1.995652,10 Z M1.995652,5 L1.995652,5 C1.995652,4.58578644 2.33143844,4.25 2.745652,4.25 L3.85434765,4.25 C4.26856121,4.25 4.60434765,4.58578644 4.60434765,5 L4.60434765,5 C4.60434765,5.41421356 4.26856121,5.75 3.85434765,5.75 L2.745652,5.75 C2.33143844,5.75 1.995652,5.41421356 1.995652,5 Z"/>
</svg>