<svg id="list-alt" viewBox="0 0 20 20">
  <path d="M3.82857143,3.5483871 C3.11849104,3.5483871 2.54285714,4.12608419 2.54285714,4.83870968 L2.54285714,15.1612903 C2.54285714,15.8739158 3.11849104,16.4516129 3.82857143,16.4516129 L16.1714286,16.4516129 C16.881509,16.4516129 17.4571429,15.8739158 17.4571429,15.1612903 L17.4571429,4.83870968 C17.4571429,4.12608419 16.881509,3.5483871 16.1714286,3.5483871 L3.82857143,3.5483871 Z M3.82857143,2 L16.1714286,2 C17.7336054,2 19,3.27093361 19,4.83870968 L19,15.1612903 C19,16.7290664 17.7336054,18 16.1714286,18 L3.82857143,18 C2.26639456,18 1,16.7290664 1,15.1612903 L1,4.83870968 C1,3.27093361 2.26639456,2 3.82857143,2 Z M8.97142857,7.67741935 C8.54538034,7.67741935 8.2,7.3308011 8.2,6.90322581 C8.2,6.47565052 8.54538034,6.12903226 8.97142857,6.12903226 L15.1428571,6.12903226 C15.5689054,6.12903226 15.9142857,6.47565052 15.9142857,6.90322581 C15.9142857,7.3308011 15.5689054,7.67741935 15.1428571,7.67741935 L8.97142857,7.67741935 Z M4.85714286,7.67741935 C4.43109462,7.67741935 4.08571429,7.3308011 4.08571429,6.90322581 C4.08571429,6.47565052 4.43109462,6.12903226 4.85714286,6.12903226 L5.88571429,6.12903226 C6.31176252,6.12903226 6.65714286,6.47565052 6.65714286,6.90322581 C6.65714286,7.3308011 6.31176252,7.67741935 5.88571429,7.67741935 L4.85714286,7.67741935 Z M8.97142857,10.7741935 C8.54538034,10.7741935 8.2,10.4275753 8.2,10 C8.2,9.57242471 8.54538034,9.22580645 8.97142857,9.22580645 L15.1428571,9.22580645 C15.5689054,9.22580645 15.9142857,9.57242471 15.9142857,10 C15.9142857,10.4275753 15.5689054,10.7741935 15.1428571,10.7741935 L8.97142857,10.7741935 Z M4.85714286,10.7741935 C4.43109462,10.7741935 4.08571429,10.4275753 4.08571429,10 C4.08571429,9.57242471 4.43109462,9.22580645 4.85714286,9.22580645 L5.88571429,9.22580645 C6.31176252,9.22580645 6.65714286,9.57242471 6.65714286,10 C6.65714286,10.4275753 6.31176252,10.7741935 5.88571429,10.7741935 L4.85714286,10.7741935 Z M4.85714286,13.8709677 C4.43109462,13.8709677 4.08571429,13.5243495 4.08571429,13.0967742 C4.08571429,12.6691989 4.43109462,12.3225806 4.85714286,12.3225806 L5.88571429,12.3225806 C6.31176252,12.3225806 6.65714286,12.6691989 6.65714286,13.0967742 C6.65714286,13.5243495 6.31176252,13.8709677 5.88571429,13.8709677 L4.85714286,13.8709677 Z M8.97142857,13.8709677 C8.54538034,13.8709677 8.2,13.5243495 8.2,13.0967742 C8.2,12.6691989 8.54538034,12.3225806 8.97142857,12.3225806 L15.1428571,12.3225806 C15.5689054,12.3225806 15.9142857,12.6691989 15.9142857,13.0967742 C15.9142857,13.5243495 15.5689054,13.8709677 15.1428571,13.8709677 L8.97142857,13.8709677 Z"/>
</svg>