<svg id="livechat" viewBox="0 0 20 20">
  <path d="M15.274 6.595c-.39-2.5-2.55-4.361-5.245-4.361-2.98 0-5.314 2.272-5.314 5.173v.262c-.001.016-.005.032-.005.05v5.121a2.577 2.577 0 0 1-2.397-2.563c0-.933.506-1.793 1.321-2.247a.572.572 0 0 0-.556-.999 3.717 3.717 0 0 0-1.908 3.246 3.718 3.718 0 0 0 3.714 3.714c.127 0 .256-.01.385-.023h.012c.019 0 .036-.003.054-.004h.004a.57.57 0 0 0 .514-.567V8.344c.002-.017.005-.033.005-.05v-.887c0-2.298 1.793-4.03 4.171-4.03S14.2 5.108 14.2 7.406v.237c-.003.024-.007.049-.007.075v5.519c-.001.015-.004.03-.004.044v1.286c0 .878-.614 1.491-1.492 1.491h-.77l-.016.002a1.49 1.49 0 0 0-1.388-.96h-.98a1.493 1.493 0 0 0-1.49 1.491c0 .823.668 1.49 1.49 1.491h.98c.606 0 1.126-.365 1.36-.886.015.002.029.006.045.006h.77c1.526 0 2.633-1.109 2.633-2.635v-.559a3.716 3.716 0 0 0 3.544-3.706 3.716 3.716 0 0 0-3.601-3.708zM10.523 16.94h-.98a.353.353 0 0 1-.347-.348c0-.189.16-.348.348-.348h.979c.188 0 .348.16.348.348 0 .189-.16.348-.348.348zm4.813-4.074V8.369c.003-.025.007-.05.007-.075v-.553a2.572 2.572 0 0 1 2.39 2.562c0 1.36-1.06 2.473-2.397 2.563z" fill-rule="nonzero" fill="currentColor"/>
</svg>