<svg id="loading" viewBox="0 0 20 20">
  <path d="M10,2.68571429 L10,2.68571429 C10,3.06313338 9.71071167,3.37755368 9.33459845,3.40892271 C9.20790754,3.4194765 9.10048422,3.43134481 9.01232745,3.44451512 C5.81995673,3.92144386 3.37142857,6.67483402 3.37142857,10 C3.37142857,13.3318378 5.82979236,16.089603 9.03155256,16.5583282 C9.11507258,16.5705552 9.21619411,16.581614 9.33491715,16.5915046 L9.33491811,16.5914931 C9.71084125,16.6228106 10,16.9370603 10,17.3142857 L10,17.3142857 C10,17.6755182 9.70716321,17.968355 9.34593073,17.968355 C9.33009606,17.968355 9.31426661,17.96778 9.29847368,17.9666311 C9.19056934,17.9587473 9.09760236,17.9500547 9.01957518,17.9405194 C5.06413098,17.4571498 2,14.0867607 2,10 C2,5.92222034 5.05067833,2.55766717 8.99351071,2.06270911 C9.07816911,2.05208163 9.17999511,2.04244637 9.29898871,2.03380332 L9.29898642,2.03377176 C9.65904434,2.00761911 9.97212986,2.27830281 9.99828251,2.63836072 C9.99942713,2.6541193 10,2.6699142 10,2.68571429 Z"/>
</svg>