<svg id="lock" viewBox="0 0 20 20">
  <path d="M14.0652174,16.5454545 L5.93478261,16.5454545 L5.93478261,9.91951515 L6.09452174,9.91951515 L13.9054783,9.91951515 L14.0652174,9.91951515 L14.0652174,16.5454545 Z M7.52930435,5.95927273 C7.52930435,4.57842424 8.63791304,3.45454545 10,3.45454545 C11.362087,3.45454545 12.4706957,4.57842424 12.4706957,5.95927273 L12.4706957,8.4649697 L7.52930435,8.4649697 L7.52930435,5.95927273 Z M13.9054783,8.4649697 L13.9054783,5.95927273 C13.9054783,3.77648485 12.1531304,2 10,2 C7.84686957,2 6.09452174,3.77648485 6.09452174,5.95927273 L6.09452174,8.4649697 L4.5,8.4649697 L4.5,18 L15.5,18 L15.5,8.4649697 L13.9054783,8.4649697 Z"/>
</svg>