<svg id="magnifier" viewBox="0 0 20 20">
  <path d="M17.9120609,17.9120609 L17.9120609,17.9120609 C17.5873512,18.2367707 17.0608926,18.2367707 16.7361828,17.9120609 L13.5720891,14.7479672 C12.3007505,15.7634524 10.6889098,16.3705485 8.93527426,16.3705485 C4.82888568,16.3705485 1.5,13.0416628 1.5,8.93527426 C1.5,4.82888568 4.82888568,1.5 8.93527426,1.5 C13.0416628,1.5 16.3705485,4.82888568 16.3705485,8.93527426 C16.3705485,10.6889098 15.7634524,12.3007505 14.7479672,13.5720891 L17.9120609,16.7361828 C18.2367707,17.0608926 18.2367707,17.5873512 17.9120609,17.9120609 Z M8.93527426,14.9526509 C12.2585796,14.9526509 14.9526509,12.2585796 14.9526509,8.93527426 C14.9526509,5.61196891 12.2585796,2.91789763 8.93527426,2.91789763 C5.61196891,2.91789763 2.91789763,5.61196891 2.91789763,8.93527426 C2.91789763,12.2585796 5.61196891,14.9526509 8.93527426,14.9526509 Z"/>
</svg>