<svg id="mail" viewBox="0 0 20 20">
  <path d="M4.256,4.75775 C3.6904,4.75775 3.2304,5.2281875 3.2304,5.8066875 L3.2304,14.1933125 C3.2304,14.7718125 3.6904,15.2414375 4.256,15.2414375 L15.7432,15.2414375 C16.3088,15.2414375 16.7696,14.7718125 16.7696,14.1933125 L16.7696,5.8066875 C16.7696,5.2281875 16.3088,4.75775 15.7432,4.75775 L4.256,4.75775 Z M15.7432,16.5 L4.256,16.5 C3.0112,16.5 2,15.4656875 2,14.1933125 L2,5.8066875 C2,4.5343125 3.0112,3.5 4.256,3.5 L15.7432,3.5 C16.988,3.5 18,4.5343125 18,5.8066875 L18,14.1933125 C18,15.4656875 16.988,16.5 15.7432,16.5 Z M10.05208,11.6572563 L4.77928,8.06031875 L5.46248,7.01381875 L10.05208,10.1443813 L14.64248,7.01381875 L15.32488,8.06031875 L10.05208,11.6572563 Z"/>
</svg>