<svg id="map-pin" viewBox="0 0 20 20">
  <path d="M9.7,5 C11.0794005,5 12.2,6.12133667 12.2,7.5 C12.2,8.87866333 11.0794005,10 9.7,10 C8.32059951,10 7.2,8.87866333 7.2,7.5 C7.2,6.12133667 8.32059951,5 9.7,5 Z M9.7,8.63652609 C10.3273963,8.63652609 10.8371558,8.12723374 10.8371558,7.5 C10.8371558,6.87365976 10.3273963,6.36347391 9.7,6.36347391 C9.07260369,6.36347391 8.5628442,6.87365976 8.5628442,7.5 C8.5628442,8.12723374 9.07260369,8.63652609 9.7,8.63652609 Z M10.1932825,18.5771153 C9.91555092,18.8076282 9.51302051,18.8076282 9.23528892,18.5771153 C9.18315596,18.5338458 9.09192031,18.4551549 8.96713049,18.3428862 C8.76293496,18.1591792 8.53640374,17.9456643 8.29308077,17.7041502 C7.59990139,17.0161239 6.90729649,16.2385842 6.25969946,15.385227 C4.38402962,12.9136031 3.25,10.3130273 3.25,7.68301282 C3.25,4.1292338 6.14507785,1.25 9.71428571,1.25 C13.2834936,1.25 16.1785714,4.1292338 16.1785714,7.68301282 C16.1785714,10.3130273 15.0445418,12.9136031 13.168872,15.385227 C12.5212749,16.2385842 11.82867,17.0161239 11.1354907,17.7041502 C10.8921677,17.9456643 10.6656365,18.1591792 10.4614409,18.3428862 C10.3366511,18.4551549 10.2454155,18.5338458 10.1932825,18.5771153 Z M10.0787951,16.6395402 C10.7249014,15.9982371 11.3715822,15.2722531 11.9739852,14.4784495 C13.6697439,12.2438996 14.6785714,9.93043931 14.6785714,7.68301282 C14.6785714,4.95950922 12.4569036,2.75 9.71428571,2.75 C6.97166786,2.75 4.75,4.95950922 4.75,7.68301282 C4.75,9.93043931 5.75882753,12.2438996 7.45458625,14.4784495 C8.05698922,15.2722531 8.70367004,15.9982371 9.34977637,16.6395402 C9.55152929,16.8397933 9.87704626,16.8397974 10.0788043,16.6395495 Z"/>
</svg>