<svg id="map-pin" viewBox="0 0 20 20">
  <path d="M10,2 C13.309,2 16,4.612 16,7.823 C16,13.084 10.725,17.414 10.499,17.596 L10,18 L9.501,17.596 C9.275,17.414 4,13.084 4,7.823 C4,4.612 6.691,2 10,2 Z M9.999,15.978 C11.253,14.81 14.435,11.485 14.435,7.823 C14.435,5.454 12.445,3.526 10,3.526 C7.555,3.526 5.565,5.454 5.565,7.823 C5.565,11.495 8.744,14.812 9.999,15.978 Z M10,5.0526 C11.583,5.0526 12.869,6.3076 12.869,7.8506 C12.869,9.3936 11.583,10.6486 10,10.6486 C8.417,10.6486 7.131,9.3936 7.131,7.8506 C7.131,6.3076 8.417,5.0526 10,5.0526 Z M10,9.1226 C10.72,9.1226 11.305,8.5526 11.305,7.8506 C11.305,7.1496 10.72,6.5786 10,6.5786 C9.28,6.5786 8.695,7.1496 8.695,7.8506 C8.695,8.5526 9.28,9.1226 10,9.1226 Z"/>
</svg>