<svg id="marketplace-installer" viewBox="0 0 818 18">
  <defs>
    <path d="M4.23904354,6.69174481 L4,6.46190251" id="path-1"/>
    <path d="M5.02490772,7.44735961 L4,6.46190251" id="path-2"/>
    <path d="M6.27864386,8.65283709 L4,6.46190251" id="path-3"/>
    <path d="M7.06030829,9.40441379 L4,6.46190251" id="path-4"/>
    <path d="M7.67973749,10 L4,6.46190251" id="path-5"/>
    <polyline id="path-6" points="8.22245052 9.47817702 7.67973749 10 4 6.46190251"/>
    <polyline id="path-7" points="8.91155959 8.81559304 7.67973749 10 4 6.46190251"/>
    <polyline id="path-8" points="9.5143542 8.23600113 7.67973749 10 4 6.46190251"/>
    <polyline id="path-9" points="10.7210096 7.07579219 7.67973749 10 4 6.46190251"/>
    <polyline id="path-10" points="11.5636902 6.26554796 7.67973749 10 4 6.46190251"/>
    <polyline id="path-11" points="12.0786348 5.77042449 7.67973749 10 4 6.46190251"/>
    <polyline id="path-12" points="12.76451 5.11094988 7.67973749 10 4 6.46190251"/>
    <polyline id="path-13" points="13.4378238 4.46355327 7.67973749 10 4 6.46190251"/>
    <polyline id="path-14" points="13.7997577 4.11555082 7.67973749 10 4 6.46190251"/>
    <polyline id="path-15" points="14.3803465 3.55731005 7.67973749 10 4 6.46190251"/>
    <polyline id="path-16" points="14.6691383 3.27963438 7.67973749 10 4 6.46190251"/>
    <polyline id="path-17" points="14.9249351 3.0336836 7.67973749 10 4 6.46190251"/>
    <polyline id="path-18" points="16 2 7.67973749 10 4 6.46190251"/>
  </defs>
  <g id="Page-1" stroke="none" stroke-width="1" fill="none" fill-rule="evenodd">
    <g id="sprite_30fps" transform="translate(1.000000, 1.000000)">
      <g id="Group">
        <path d="M8,0 C5.879,0 3.843,0.843 2.343,2.343 C0.843,3.843 0,5.879 0,8 C0,10.121 0.843,12.157 2.343,13.657 C3.843,15.157 5.879,16 8,16 C10.121,16 12.157,15.157 13.657,13.657 C15.157,12.157 16,10.121 16,8 C16,5.879 15.157,3.843 13.657,2.343 C12.157,0.843 10.121,0 8,0 Z" id="Shape" stroke="#E1E5E8"/>
        <path d="M8,0 C5.879,0 3.843,0.843 2.343,2.343 C0.843,3.843 0,5.879 0,8 C0,10.121 0.843,12.157 2.343,13.657 C3.843,15.157 5.879,16 8,16 C10.121,16 12.157,15.157 13.657,13.657 C15.157,12.157 16,10.121 16,8 C16,5.879 15.157,3.843 13.657,2.343 C12.157,0.843 10.121,0 8,0 Z" id="Shape" stroke="#1D74F5" stroke-dasharray="0,50.26566726535555"/>
        <g transform="translate(4.000000, 3.000000)" id="Shape" stroke="#1D74F5">
          <path d="M3.9,7.831 L3.9,0 M7.694,4.238 L3.738,8.194 L0,4.456"/>
        </g>
      </g>
      <g id="Group" transform="translate(20.000000, 0.000000)">
        <path d="M8,0 C5.879,0 3.843,0.843 2.343,2.343 C0.843,3.843 0,5.879 0,8 C0,10.121 0.843,12.157 2.343,13.657 C3.843,15.157 5.879,16 8,16 C10.121,16 12.157,15.157 13.657,13.657 C15.157,12.157 16,10.121 16,8 C16,5.879 15.157,3.843 13.657,2.343 C12.157,0.843 10.121,0 8,0 Z" id="Shape" stroke="#E1E5E8"/>
        <path d="M8,0 C5.879,0 3.843,0.843 2.343,2.343 C0.843,3.843 0,5.879 0,8 C0,10.121 0.843,12.157 2.343,13.657 C3.843,15.157 5.879,16 8,16 C10.121,16 12.157,15.157 13.657,13.657 C15.157,12.157 16,10.121 16,8 C16,5.879 15.157,3.843 13.657,2.343 C12.157,0.843 10.121,0 8,0 Z" id="Shape" stroke="#1D74F5" stroke-dasharray="6.309518669750073,43.95614859560548"/>
        <g transform="translate(4.000000, 3.000000)" id="Shape" stroke="#1D74F5">
          <path d="M3.9,7.891023 L3.9,0.060023"/>
          <polyline points="7.694 4.298023 3.738 8.254023 3.55271368e-15 4.516023"/>
        </g>
      </g>
      <g id="Group" transform="translate(40.000000, 0.000000)">
        <path d="M8,0 C5.879,0 3.843,0.843 2.343,2.343 C0.843,3.843 0,5.879 0,8 C0,10.121 0.843,12.157 2.343,13.657 C3.843,15.157 5.879,16 8,16 C10.121,16 12.157,15.157 13.657,13.657 C15.157,12.157 16,10.121 16,8 C16,5.879 15.157,3.843 13.657,2.343 C12.157,0.843 10.121,0 8,0 Z" id="Shape" stroke="#E1E5E8"/>
        <path d="M8,0 C5.879,0 3.843,0.843 2.343,2.343 C0.843,3.843 0,5.879 0,8 C0,10.121 0.843,12.157 2.343,13.657 C3.843,15.157 5.879,16 8,16 C10.121,16 12.157,15.157 13.657,13.657 C15.157,12.157 16,10.121 16,8 C16,5.879 15.157,3.843 13.657,2.343 C12.157,0.843 10.121,0 8,0 Z" id="Shape" stroke="#1D74F5" stroke-dasharray="11.23561634937571,39.03005091597984"/>
        <g transform="translate(4.000000, 3.000000)" id="Shape" stroke="#1D74F5">
          <path d="M3.9,8.147927 L3.9,0.316927"/>
          <polyline points="7.694 4.554927 3.738 8.510927 0 4.772927"/>
        </g>
      </g>
      <g id="Group" transform="translate(60.000000, 0.000000)">
        <path d="M8,0 C5.879,0 3.843,0.843 2.343,2.343 C0.843,3.843 0,5.879 0,8 C0,10.121 0.843,12.157 2.343,13.657 C3.843,15.157 5.879,16 8,16 C10.121,16 12.157,15.157 13.657,13.657 C15.157,12.157 16,10.121 16,8 C16,5.879 15.157,3.843 13.657,2.343 C12.157,0.843 10.121,0 8,0 Z" id="Shape" stroke="#E1E5E8"/>
        <path d="M8,0 C5.879,0 3.843,0.843 2.343,2.343 C0.843,3.843 0,5.879 0,8 C0,10.121 0.843,12.157 2.343,13.657 C3.843,15.157 5.879,16 8,16 C10.121,16 12.157,15.157 13.657,13.657 C15.157,12.157 16,10.121 16,8 C16,5.879 15.157,3.843 13.657,2.343 C12.157,0.843 10.121,0 8,0 Z" id="Shape" stroke="#1D74F5" stroke-dasharray="15.43826769318981,34.82739957216574"/>
        <g transform="translate(4.000000, 3.000000)" id="Shape" stroke="#1D74F5">
          <path d="M3.9,8.677262 L3.9,0.846262"/>
          <polyline points="7.694 5.084262 3.738 9.040262 0 5.302262"/>
        </g>
      </g>
      <g id="Group" transform="translate(80.000000, 0.000000)">
        <path d="M8,0 C5.879,0 3.843,0.843 2.343,2.343 C0.843,3.843 0,5.879 0,8 C0,10.121 0.843,12.157 2.343,13.657 C3.843,15.157 5.879,16 8,16 C10.121,16 12.157,15.157 13.657,13.657 C15.157,12.157 16,10.121 16,8 C16,5.879 15.157,3.843 13.657,2.343 C12.157,0.843 10.121,0 8,0 Z" id="Shape" stroke="#E1E5E8"/>
        <path d="M8,0 C5.879,0 3.843,0.843 2.343,2.343 C0.843,3.843 0,5.879 0,8 C0,10.121 0.843,12.157 2.343,13.657 C3.843,15.157 5.879,16 8,16 C10.121,16 12.157,15.157 13.657,13.657 C15.157,12.157 16,10.121 16,8 C16,5.879 15.157,3.843 13.657,2.343 C12.157,0.843 10.121,0 8,0 Z" id="Shape" stroke="#1D74F5" stroke-dasharray="19.12688492082794,31.13878234452761"/>
        <g transform="translate(4.000000, 4.000000)" id="Shape" stroke="#1D74F5">
          <path d="M3.9,8.162728 L3.9,0.331728"/>
          <polyline points="7.694 4.569728 3.738 8.525728 0 4.787728"/>
        </g>
      </g>
      <g id="Group" transform="translate(100.000000, 0.000000)">
        <path d="M8,0 C5.879,0 3.843,0.843 2.343,2.343 C0.843,3.843 0,5.879 0,8 C0,10.121 0.843,12.157 2.343,13.657 C3.843,15.157 5.879,16 8,16 C10.121,16 12.157,15.157 13.657,13.657 C15.157,12.157 16,10.121 16,8 C16,5.879 15.157,3.843 13.657,2.343 C12.157,0.843 10.121,0 8,0 Z" id="Shape" stroke="#E1E5E8"/>
        <path d="M8,0 C5.879,0 3.843,0.843 2.343,2.343 C0.843,3.843 0,5.879 0,8 C0,10.121 0.843,12.157 2.343,13.657 C3.843,15.157 5.879,16 8,16 C10.121,16 12.157,15.157 13.657,13.657 C15.157,12.157 16,10.121 16,8 C16,5.879 15.157,3.843 13.657,2.343 C12.157,0.843 10.121,0 8,0 Z" id="Shape" stroke="#1D74F5" stroke-dasharray="22.41366130363328,27.85200596172227"/>
        <g transform="translate(4.000000, 4.000000)" id="Shape" stroke="#1D74F5">
          <path d="M3.9,8.4617 L3.9,0.6307"/>
          <polyline points="7.694 4.8687 3.738 8.8247 0 5.0867"/>
        </g>
      </g>
      <g id="Group" transform="translate(120.000000, 0.000000)">
        <path d="M8,0 C5.879,0 3.843,0.843 2.343,2.343 C0.843,3.843 0,5.879 0,8 C0,10.121 0.843,12.157 2.343,13.657 C3.843,15.157 5.879,16 8,16 C10.121,16 12.157,15.157 13.657,13.657 C15.157,12.157 16,10.121 16,8 C16,5.879 15.157,3.843 13.657,2.343 C12.157,0.843 10.121,0 8,0 Z" id="Shape" stroke="#E1E5E8"/>
        <path d="M8,0 C5.879,0 3.843,0.843 2.343,2.343 C0.843,3.843 0,5.879 0,8 C0,10.121 0.843,12.157 2.343,13.657 C3.843,15.157 5.879,16 8,16 C10.121,16 12.157,15.157 13.657,13.657 C15.157,12.157 16,10.121 16,8 C16,5.879 15.157,3.843 13.657,2.343 C12.157,0.843 10.121,0 8,0 Z" id="Shape" stroke="#1D74F5" stroke-dasharray="25.36974071138243,24.89592655397311"/>
        <g transform="translate(4.000000, 4.000000)" id="Shape" stroke="#1D74F5">
          <path d="M3.9,8.64145 L3.9,0.81045"/>
          <polyline points="7.694 5.04845 3.738 9.00445 0 5.26645"/>
        </g>
      </g>
      <g id="Group" transform="translate(140.000000, 0.000000)">
        <path d="M8,0 C5.879,0 3.843,0.843 2.343,2.343 C0.843,3.843 0,5.879 0,8 C0,10.121 0.843,12.157 2.343,13.657 C3.843,15.157 5.879,16 8,16 C10.121,16 12.157,15.157 13.657,13.657 C15.157,12.157 16,10.121 16,8 C16,5.879 15.157,3.843 13.657,2.343 C12.157,0.843 10.121,0 8,0 Z" id="Shape" stroke="#E1E5E8"/>
        <path d="M8,0 C5.879,0 3.843,0.843 2.343,2.343 C0.843,3.843 0,5.879 0,8 C0,10.121 0.843,12.157 2.343,13.657 C3.843,15.157 5.879,16 8,16 C10.121,16 12.157,15.157 13.657,13.657 C15.157,12.157 16,10.121 16,8 C16,5.879 15.157,3.843 13.657,2.343 C12.157,0.843 10.121,0 8,0 Z" id="Shape" stroke="#1D74F5" stroke-dasharray="28.04462514092069,22.22104212443485"/>
        <g transform="translate(4.000000, 4.000000)" id="Shape" stroke="#1D74F5">
          <path d="M3.9,8.748156 L3.9,0.917156"/>
          <polyline points="7.694 5.155156 3.738 9.111156 0 5.373156"/>
        </g>
      </g>
      <g id="Group" transform="translate(160.000000, 0.000000)">
        <path d="M8,0 C5.879,0 3.843,0.843 2.343,2.343 C0.843,3.843 0,5.879 0,8 C0,10.121 0.843,12.157 2.343,13.657 C3.843,15.157 5.879,16 8,16 C10.121,16 12.157,15.157 13.657,13.657 C15.157,12.157 16,10.121 16,8 C16,5.879 15.157,3.843 13.657,2.343 C12.157,0.843 10.121,0 8,0 Z" id="Shape" stroke="#E1E5E8"/>
        <path d="M8,0 C5.879,0 3.843,0.843 2.343,2.343 C0.843,3.843 0,5.879 0,8 C0,10.121 0.843,12.157 2.343,13.657 C3.843,15.157 5.879,16 8,16 C10.121,16 12.157,15.157 13.657,13.657 C15.157,12.157 16,10.121 16,8 C16,5.879 15.157,3.843 13.657,2.343 C12.157,0.843 10.121,0 8,0 Z" id="Shape" stroke="#1D74F5" stroke-dasharray="30.47488513936153,19.79078212599402"/>
        <g transform="translate(4.000000, 4.000000)" id="Shape" stroke="#1D74F5">
          <path d="M3.9,8.806194 L3.9,0.975194"/>
          <polyline points="7.694 5.213194 3.738 9.169194 0 5.431194"/>
        </g>
      </g>
      <g id="Group" transform="translate(180.000000, 0.000000)">
        <path d="M8,0 C5.879,0 3.843,0.843 2.343,2.343 C0.843,3.843 0,5.879 0,8 C0,10.121 0.843,12.157 2.343,13.657 C3.843,15.157 5.879,16 8,16 C10.121,16 12.157,15.157 13.657,13.657 C15.157,12.157 16,10.121 16,8 C16,5.879 15.157,3.843 13.657,2.343 C12.157,0.843 10.121,0 8,0 Z" id="Shape" stroke="#E1E5E8"/>
        <path d="M8,0 C5.879,0 3.843,0.843 2.343,2.343 C0.843,3.843 0,5.879 0,8 C0,10.121 0.843,12.157 2.343,13.657 C3.843,15.157 5.879,16 8,16 C10.121,16 12.157,15.157 13.657,13.657 C15.157,12.157 16,10.121 16,8 C16,5.879 15.157,3.843 13.657,2.343 C12.157,0.843 10.121,0 8,0 Z" id="Shape" stroke="#1D74F5" stroke-dasharray="32.68870296724897,17.57696429810658"/>
        <g transform="translate(4.000000, 4.000000)" id="Shape" stroke="#1D74F5">
          <path d="M3.9,8.829412 L3.9,0.998412"/>
          <polyline points="7.694 5.236412 3.738 9.192412 0 5.454412"/>
        </g>
      </g>
      <g id="Group" transform="translate(200.000000, 0.000000)">
        <path d="M8,0 C5.879,0 3.843,0.843 2.343,2.343 C0.843,3.843 0,5.879 0,8 C0,10.121 0.843,12.157 2.343,13.657 C3.843,15.157 5.879,16 8,16 C10.121,16 12.157,15.157 13.657,13.657 C15.157,12.157 16,10.121 16,8 C16,5.879 15.157,3.843 13.657,2.343 C12.157,0.843 10.121,0 8,0 Z" id="Shape" stroke="#E1E5E8"/>
        <path d="M8,0 C5.879,0 3.843,0.843 2.343,2.343 C0.843,3.843 0,5.879 0,8 C0,10.121 0.843,12.157 2.343,13.657 C3.843,15.157 5.879,16 8,16 C10.121,16 12.157,15.157 13.657,13.657 C15.157,12.157 16,10.121 16,8 C16,5.879 15.157,3.843 13.657,2.343 C12.157,0.843 10.121,0 8,0 Z" id="Shape" stroke="#1D74F5" stroke-dasharray="34.70849140023716,15.55717586511838"/>
        <g transform="translate(4.000000, 5.000000)" id="Shape" stroke="#1D74F5">
          <path d="M3.9,7.831 L3.9,0"/>
          <polyline points="7.694 4.238 3.738 8.194 0 4.456"/>
        </g>
      </g>
      <g id="Group" transform="translate(220.000000, 0.000000)">
        <path d="M8,0 C5.879,0 3.843,0.843 2.343,2.343 C0.843,3.843 0,5.879 0,8 C0,10.121 0.843,12.157 2.343,13.657 C3.843,15.157 5.879,16 8,16 C10.121,16 12.157,15.157 13.657,13.657 C15.157,12.157 16,10.121 16,8 C16,5.879 15.157,3.843 13.657,2.343 C12.157,0.843 10.121,0 8,0 Z" id="Shape" stroke="#E1E5E8"/>
        <path d="M8,0 C5.879,0 3.843,0.843 2.343,2.343 C0.843,3.843 0,5.879 0,8 C0,10.121 0.843,12.157 2.343,13.657 C3.843,15.157 5.879,16 8,16 C10.121,16 12.157,15.157 13.657,13.657 C15.157,12.157 16,10.121 16,8 C16,5.879 15.157,3.843 13.657,2.343 C12.157,0.843 10.121,0 8,0 Z" id="Shape" stroke="#1D74F5" stroke-dasharray="36.55251610281903,13.71315116253652"/>
        <g transform="translate(4.000000, 5.000000)" id="Shape" stroke="#1D74F5">
          <path d="M3.9,7.831 L3.9,0"/>
          <polyline points="7.694 4.238 3.738 8.194 0 4.456"/>
        </g>
      </g>
      <g id="Group" transform="translate(240.000000, 0.000000)">
        <path d="M8,0 C5.879,0 3.843,0.843 2.343,2.343 C0.843,3.843 0,5.879 0,8 C0,10.121 0.843,12.157 2.343,13.657 C3.843,15.157 5.879,16 8,16 C10.121,16 12.157,15.157 13.657,13.657 C15.157,12.157 16,10.121 16,8 C16,5.879 15.157,3.843 13.657,2.343 C12.157,0.843 10.121,0 8,0 Z" id="Shape" stroke="#E1E5E8"/>
        <path d="M8,0 C5.879,0 3.843,0.843 2.343,2.343 C0.843,3.843 0,5.879 0,8 C0,10.121 0.843,12.157 2.343,13.657 C3.843,15.157 5.879,16 8,16 C10.121,16 12.157,15.157 13.657,13.657 C15.157,12.157 16,10.121 16,8 C16,5.879 15.157,3.843 13.657,2.343 C12.157,0.843 10.121,0 8,0 Z" id="Shape" stroke="#1D74F5" stroke-dasharray="38.23595723280788,12.02971003254766"/>
        <g transform="translate(4.000000, 5.000000)" id="Shape" stroke="#1D74F5">
          <path d="M3.9,7.831 L3.9,0"/>
          <polyline points="7.694 4.238 3.738 8.194 0 4.456"/>
        </g>
      </g>
      <g id="Group" transform="translate(260.000000, 0.000000)">
        <path d="M8,0 C5.879,0 3.843,0.843 2.343,2.343 C0.843,3.843 0,5.879 0,8 C0,10.121 0.843,12.157 2.343,13.657 C3.843,15.157 5.879,16 8,16 C10.121,16 12.157,15.157 13.657,13.657 C15.157,12.157 16,10.121 16,8 C16,5.879 15.157,3.843 13.657,2.343 C12.157,0.843 10.121,0 8,0 Z" id="Shape" stroke="#E1E5E8"/>
        <path d="M8,0 C5.879,0 3.843,0.843 2.343,2.343 C0.843,3.843 0,5.879 0,8 C0,10.121 0.843,12.157 2.343,13.657 C3.843,15.157 5.879,16 8,16 C10.121,16 12.157,15.157 13.657,13.657 C15.157,12.157 16,10.121 16,8 C16,5.879 15.157,3.843 13.657,2.343 C12.157,0.843 10.121,0 8,0 Z" id="Shape" stroke="#1D74F5" stroke-dasharray="39.77163469241522,10.49403257294033"/>
        <g transform="translate(4.000000, 5.000000)" id="Shape" stroke="#1D74F5">
          <path d="M3.9,7.831 L3.9,0"/>
          <polyline points="7.694 4.238 3.738 8.194 0 4.456"/>
        </g>
      </g>
      <g id="Group" transform="translate(280.000000, 0.000000)">
        <path d="M8,0 C5.879,0 3.843,0.843 2.343,2.343 C0.843,3.843 0,5.879 0,8 C0,10.121 0.843,12.157 2.343,13.657 C3.843,15.157 5.879,16 8,16 C10.121,16 12.157,15.157 13.657,13.657 C15.157,12.157 16,10.121 16,8 C16,5.879 15.157,3.843 13.657,2.343 C12.157,0.843 10.121,0 8,0 Z" id="Shape" stroke="#E1E5E8"/>
        <path d="M8,0 C5.879,0 3.843,0.843 2.343,2.343 C0.843,3.843 0,5.879 0,8 C0,10.121 0.843,12.157 2.343,13.657 C3.843,15.157 5.879,16 8,16 C10.121,16 12.157,15.157 13.657,13.657 C15.157,12.157 16,10.121 16,8 C16,5.879 15.157,3.843 13.657,2.343 C12.157,0.843 10.121,0 8,0 Z" id="Shape" stroke="#1D74F5" stroke-dasharray="41.17052118313375,9.095146082221799"/>
        <g transform="translate(4.000000, 5.000000)" id="Shape" stroke="#1D74F5">
          <path d="M3.9,7.831 L3.9,0"/>
          <polyline points="7.694 4.238 3.738 8.194 0 4.456"/>
        </g>
      </g>
      <g id="Group" transform="translate(300.000000, 0.000000)">
        <path d="M8,0 C5.879,0 3.843,0.843 2.343,2.343 C0.843,3.843 0,5.879 0,8 C0,10.121 0.843,12.157 2.343,13.657 C3.843,15.157 5.879,16 8,16 C10.121,16 12.157,15.157 13.657,13.657 C15.157,12.157 16,10.121 16,8 C16,5.879 15.157,3.843 13.657,2.343 C12.157,0.843 10.121,0 8,0 Z" id="Shape" stroke="#E1E5E8"/>
        <path d="M8,0 C5.879,0 3.843,0.843 2.343,2.343 C0.843,3.843 0,5.879 0,8 C0,10.121 0.843,12.157 2.343,13.657 C3.843,15.157 5.879,16 8,16 C10.121,16 12.157,15.157 13.657,13.657 C15.157,12.157 16,10.121 16,8 C16,5.879 15.157,3.843 13.657,2.343 C12.157,0.843 10.121,0 8,0 Z" id="Shape" stroke="#1D74F5" stroke-dasharray="42.44211577580978,7.823551489545761"/>
        <g transform="translate(4.000000, 5.000000)" id="Shape" stroke="#1D74F5">
          <path d="M3.9,7.831 L3.9,0"/>
          <polyline points="7.694 4.238 3.738 8.194 0 4.456"/>
        </g>
      </g>
      <g id="Group" transform="translate(320.000000, 0.000000)">
        <path d="M8,0 C5.879,0 3.843,0.843 2.343,2.343 C0.843,3.843 0,5.879 0,8 C0,10.121 0.843,12.157 2.343,13.657 C3.843,15.157 5.879,16 8,16 C10.121,16 12.157,15.157 13.657,13.657 C15.157,12.157 16,10.121 16,8 C16,5.879 15.157,3.843 13.657,2.343 C12.157,0.843 10.121,0 8,0 Z" id="Shape" stroke="#E1E5E8"/>
        <path d="M8,0 C5.879,0 3.843,0.843 2.343,2.343 C0.843,3.843 0,5.879 0,8 C0,10.121 0.843,12.157 2.343,13.657 C3.843,15.157 5.879,16 8,16 C10.121,16 12.157,15.157 13.657,13.657 C15.157,12.157 16,10.121 16,8 C16,5.879 15.157,3.843 13.657,2.343 C12.157,0.843 10.121,0 8,0 Z" id="Shape" stroke="#1D74F5" stroke-dasharray="43.59472260670677,6.670944658648773"/>
        <g transform="translate(4.000000, 5.000000)" id="Shape" stroke="#1D74F5">
          <path d="M3.9,7.831 L3.9,0"/>
          <polyline points="7.694 4.238 3.738 8.194 0 4.456"/>
        </g>
      </g>
      <g id="Group" transform="translate(340.000000, 0.000000)">
        <path d="M8,0 C5.879,0 3.843,0.843 2.343,2.343 C0.843,3.843 0,5.879 0,8 C0,10.121 0.843,12.157 2.343,13.657 C3.843,15.157 5.879,16 8,16 C10.121,16 12.157,15.157 13.657,13.657 C15.157,12.157 16,10.121 16,8 C16,5.879 15.157,3.843 13.657,2.343 C12.157,0.843 10.121,0 8,0 Z" id="Shape" stroke="#E1E5E8"/>
        <path d="M8,0 C5.879,0 3.843,0.843 2.343,2.343 C0.843,3.843 0,5.879 0,8 C0,10.121 0.843,12.157 2.343,13.657 C3.843,15.157 5.879,16 8,16 C10.121,16 12.157,15.157 13.657,13.657 C15.157,12.157 16,10.121 16,8 C16,5.879 15.157,3.843 13.657,2.343 C12.157,0.843 10.121,0 8,0 Z" id="Shape" stroke="#1D74F5" stroke-dasharray="44.63566315322812,5.630004112127423"/>
        <g transform="translate(4.000000, 5.000000)" id="Shape" stroke="#1D74F5">
          <path d="M3.9,7.831 L3.9,0"/>
          <polyline points="7.694 4.238 3.738 8.194 0 4.456"/>
        </g>
      </g>
      <g id="Group" transform="translate(360.000000, 0.000000)">
        <path d="M8,0 C5.879,0 3.843,0.843 2.343,2.343 C0.843,3.843 0,5.879 0,8 C0,10.121 0.843,12.157 2.343,13.657 C3.843,15.157 5.879,16 8,16 C10.121,16 12.157,15.157 13.657,13.657 C15.157,12.157 16,10.121 16,8 C16,5.879 15.157,3.843 13.657,2.343 C12.157,0.843 10.121,0 8,0 Z" id="Shape" stroke="#E1E5E8"/>
        <path d="M8,0 C5.879,0 3.843,0.843 2.343,2.343 C0.843,3.843 0,5.879 0,8 C0,10.121 0.843,12.157 2.343,13.657 C3.843,15.157 5.879,16 8,16 C10.121,16 12.157,15.157 13.657,13.657 C15.157,12.157 16,10.121 16,8 C16,5.879 15.157,3.843 13.657,2.343 C12.157,0.843 10.121,0 8,0 Z" id="Shape" stroke="#1D74F5" stroke-dasharray="45.57144084512059,4.694226420234955"/>
        <g transform="translate(4.000000, 5.000000)" id="Shape" stroke="#1D74F5">
          <path d="M3.9,7.831 L3.9,0"/>
          <polyline points="7.694 4.238 3.738 8.194 0 4.456"/>
        </g>
      </g>
      <g id="Group" transform="translate(380.000000, 0.000000)">
        <path d="M8,0 C5.879,0 3.843,0.843 2.343,2.343 C0.843,3.843 0,5.879 0,8 C0,10.121 0.843,12.157 2.343,13.657 C3.843,15.157 5.879,16 8,16 C10.121,16 12.157,15.157 13.657,13.657 C15.157,12.157 16,10.121 16,8 C16,5.879 15.157,3.843 13.657,2.343 C12.157,0.843 10.121,0 8,0 Z" id="Shape" stroke="#E1E5E8"/>
        <path d="M8,0 C5.879,0 3.843,0.843 2.343,2.343 C0.843,3.843 0,5.879 0,8 C0,10.121 0.843,12.157 2.343,13.657 C3.843,15.157 5.879,16 8,16 C10.121,16 12.157,15.157 13.657,13.657 C15.157,12.157 16,10.121 16,8 C16,5.879 15.157,3.843 13.657,2.343 C12.157,0.843 10.121,0 8,0 Z" id="Shape" stroke="#1D74F5" stroke-dasharray="46.40787072936746,3.857796535988089"/>
        <g transform="translate(4.000000, 5.000000)" id="Shape" stroke="#1D74F5">
          <path d="M3.9,7.831 L3.9,0"/>
          <polyline points="7.694 4.238 3.738 8.194 0 4.456"/>
        </g>
      </g>
      <g id="Group" transform="translate(400.000000, 0.000000)">
        <path d="M8,0 C5.879,0 3.843,0.843 2.343,2.343 C0.843,3.843 0,5.879 0,8 C0,10.121 0.843,12.157 2.343,13.657 C3.843,15.157 5.879,16 8,16 C10.121,16 12.157,15.157 13.657,13.657 C15.157,12.157 16,10.121 16,8 C16,5.879 15.157,3.843 13.657,2.343 C12.157,0.843 10.121,0 8,0 Z" id="Shape" stroke="#E1E5E8"/>
        <path d="M8,0 C5.879,0 3.843,0.843 2.343,2.343 C0.843,3.843 0,5.879 0,8 C0,10.121 0.843,12.157 2.343,13.657 C3.843,15.157 5.879,16 8,16 C10.121,16 12.157,15.157 13.657,13.657 C15.157,12.157 16,10.121 16,8 C16,5.879 15.157,3.843 13.657,2.343 C12.157,0.843 10.121,0 8,0 Z" id="Shape" stroke="#1D74F5" stroke-dasharray="47.15018302776506,3.115484237590489"/>
        <g transform="translate(4.000000, 5.000000)" id="Shape" stroke="#1D74F5">
          <path d="M3.9,7.831 L3.9,0"/>
          <polyline points="7.694 4.238 3.738 8.194 0 4.456"/>
        </g>
      </g>
      <g id="Group" transform="translate(420.000000, 0.000000)">
        <path d="M8,0 C5.879,0 3.843,0.843 2.343,2.343 C0.843,3.843 0,5.879 0,8 C0,10.121 0.843,12.157 2.343,13.657 C3.843,15.157 5.879,16 8,16 C10.121,16 12.157,15.157 13.657,13.657 C15.157,12.157 16,10.121 16,8 C16,5.879 15.157,3.843 13.657,2.343 C12.157,0.843 10.121,0 8,0 Z" id="Shape" stroke="#E1E5E8"/>
        <path d="M8,0 C5.879,0 3.843,0.843 2.343,2.343 C0.843,3.843 0,5.879 0,8 C0,10.121 0.843,12.157 2.343,13.657 C3.843,15.157 5.879,16 8,16 C10.121,16 12.157,15.157 13.657,13.657 C15.157,12.157 16,10.121 16,8 C16,5.879 15.157,3.843 13.657,2.343 C12.157,0.843 10.121,0 8,0 Z" id="Shape" stroke="#1D74F5" stroke-dasharray="47.80310686431982,2.462560401035723"/>
        <g transform="translate(4.000000, 5.000000)" id="Shape" stroke="#1D74F5">
          <path d="M3.9,7.831 L3.9,0"/>
          <polyline points="7.694 4.238 3.738 8.194 0 4.456"/>
        </g>
      </g>
      <g id="Group" transform="translate(440.000000, 0.000000)">
        <path d="M8,0 C5.879,0 3.843,0.843 2.343,2.343 C0.843,3.843 0,5.879 0,8 C0,10.121 0.843,12.157 2.343,13.657 C3.843,15.157 5.879,16 8,16 C10.121,16 12.157,15.157 13.657,13.657 C15.157,12.157 16,10.121 16,8 C16,5.879 15.157,3.843 13.657,2.343 C12.157,0.843 10.121,0 8,0 Z" id="Shape" stroke="#E1E5E8"/>
        <path d="M8,0 C5.879,0 3.843,0.843 2.343,2.343 C0.843,3.843 0,5.879 0,8 C0,10.121 0.843,12.157 2.343,13.657 C3.843,15.157 5.879,16 8,16 C10.121,16 12.157,15.157 13.657,13.657 C15.157,12.157 16,10.121 16,8 C16,5.879 15.157,3.843 13.657,2.343 C12.157,0.843 10.121,0 8,0 Z" id="Shape" stroke="#1D74F5" stroke-dasharray="48.37093870634003,1.89472855901552"/>
        <g transform="translate(4.000000, 5.000000)" id="Shape" stroke="#1D74F5">
          <path d="M3.9,7.831 L3.9,0"/>
          <polyline points="7.694 4.238 3.738 8.194 0 4.456"/>
        </g>
      </g>
      <g id="Group" transform="translate(800.000000, 0.000000)"/>
      <g id="Group" transform="translate(780.000000, 0.000000)"/>
      <g id="Group" transform="translate(760.000000, 0.000000)"/>
      <g id="Group" transform="translate(740.000000, 0.000000)"/>
      <g id="Group" transform="translate(720.000000, 0.000000)"/>
      <g id="Group" transform="translate(700.000000, 0.000000)"/>
      <g id="Group" transform="translate(680.000000, 0.000000)"/>
      <g id="Group" transform="translate(660.000000, 0.000000)"/>
      <g id="Group" transform="translate(640.000000, 0.000000)"/>
      <g id="Group" transform="translate(620.000000, 0.000000)"/>
      <g id="Group" transform="translate(600.000000, 0.000000)"/>
      <g id="Group" transform="translate(580.000000, 0.000000)"/>
      <g id="Group" transform="translate(560.000000, 0.000000)"/>
      <g id="Group" transform="translate(540.000000, 0.000000)"/>
      <g id="Group" transform="translate(520.000000, 0.000000)"/>
      <g id="Group" transform="translate(500.000000, 0.000000)"/>
      <g id="Group" transform="translate(480.000000, 0.000000)"/>
      <g id="Group" transform="translate(460.000000, 0.000000)"/>
      <g id="Group" transform="translate(460.000000, 0.000000)">
        <path d="M8,0 C5.879,0 3.843,0.843 2.343,2.343 C0.843,3.843 0,5.879 0,8 C0,10.121 0.843,12.157 2.343,13.657 C3.843,15.157 5.879,16 8,16 C10.121,16 12.157,15.157 13.657,13.657 C15.157,12.157 16,10.121 16,8 C16,5.879 15.157,3.843 13.657,2.343 C12.157,0.843 10.121,0 8,0 Z" id="Shape" stroke="#E1E5E8"/>
        <path d="M8,0 C5.879,0 3.843,0.843 2.343,2.343 C0.843,3.843 0,5.879 0,8 C0,10.121 0.843,12.157 2.343,13.657 C3.843,15.157 5.879,16 8,16 C10.121,16 12.157,15.157 13.657,13.657 C15.157,12.157 16,10.121 16,8 C16,5.879 15.157,3.843 13.657,2.343 C12.157,0.843 10.121,0 8,0 Z" id="Shape" stroke="#1D74F5"/>
        <g id="Shape">
          <use stroke="#FFFFFF" stroke-width="3" xlink:href="#path-1"/>
          <use stroke="#1D74F5" stroke-width="1" xlink:href="#path-1"/>
        </g>
      </g>
      <g id="Group" transform="translate(480.000000, 0.000000)">
        <path d="M8,0 C5.879,0 3.843,0.843 2.343,2.343 C0.843,3.843 0,5.879 0,8 C0,10.121 0.843,12.157 2.343,13.657 C3.843,15.157 5.879,16 8,16 C10.121,16 12.157,15.157 13.657,13.657 C15.157,12.157 16,10.121 16,8 C16,5.879 15.157,3.843 13.657,2.343 C12.157,0.843 10.121,0 8,0 Z" id="Shape" stroke="#E1E5E8"/>
        <path d="M8,0 C5.879,0 3.843,0.843 2.343,2.343 C0.843,3.843 0,5.879 0,8 C0,10.121 0.843,12.157 2.343,13.657 C3.843,15.157 5.879,16 8,16 C10.121,16 12.157,15.157 13.657,13.657 C15.157,12.157 16,10.121 16,8 C16,5.879 15.157,3.843 13.657,2.343 C12.157,0.843 10.121,0 8,0 Z" id="Shape" stroke="#1D74F5"/>
        <g id="Shape">
          <use stroke="#FFFFFF" stroke-width="3" xlink:href="#path-2"/>
          <use stroke="#1D74F5" stroke-width="1" xlink:href="#path-2"/>
        </g>
      </g>
      <g id="Group" transform="translate(500.000000, 0.000000)">
        <path d="M8,0 C5.879,0 3.843,0.843 2.343,2.343 C0.843,3.843 0,5.879 0,8 C0,10.121 0.843,12.157 2.343,13.657 C3.843,15.157 5.879,16 8,16 C10.121,16 12.157,15.157 13.657,13.657 C15.157,12.157 16,10.121 16,8 C16,5.879 15.157,3.843 13.657,2.343 C12.157,0.843 10.121,0 8,0 Z" id="Shape" stroke="#E1E5E8"/>
        <path d="M8,0 C5.879,0 3.843,0.843 2.343,2.343 C0.843,3.843 0,5.879 0,8 C0,10.121 0.843,12.157 2.343,13.657 C3.843,15.157 5.879,16 8,16 C10.121,16 12.157,15.157 13.657,13.657 C15.157,12.157 16,10.121 16,8 C16,5.879 15.157,3.843 13.657,2.343 C12.157,0.843 10.121,0 8,0 Z" id="Shape" stroke="#1D74F5"/>
        <g id="Shape">
          <use stroke="#FFFFFF" stroke-width="3" xlink:href="#path-3"/>
          <use stroke="#1D74F5" stroke-width="1" xlink:href="#path-3"/>
        </g>
      </g>
      <g id="Group" transform="translate(520.000000, 0.000000)">
        <path d="M8,0 C5.879,0 3.843,0.843 2.343,2.343 C0.843,3.843 0,5.879 0,8 C0,10.121 0.843,12.157 2.343,13.657 C3.843,15.157 5.879,16 8,16 C10.121,16 12.157,15.157 13.657,13.657 C15.157,12.157 16,10.121 16,8 C16,5.879 15.157,3.843 13.657,2.343 C12.157,0.843 10.121,0 8,0 Z" id="Shape" stroke="#E1E5E8"/>
        <path d="M8,0 C5.879,0 3.843,0.843 2.343,2.343 C0.843,3.843 0,5.879 0,8 C0,10.121 0.843,12.157 2.343,13.657 C3.843,15.157 5.879,16 8,16 C10.121,16 12.157,15.157 13.657,13.657 C15.157,12.157 16,10.121 16,8 C16,5.879 15.157,3.843 13.657,2.343 C12.157,0.843 10.121,0 8,0 Z" id="Shape" stroke="#1D74F5"/>
        <g id="Shape">
          <use stroke="#FFFFFF" stroke-width="3" xlink:href="#path-4"/>
          <use stroke="#1D74F5" stroke-width="1" xlink:href="#path-4"/>
        </g>
      </g>
      <g id="Group" transform="translate(540.000000, 0.000000)">
        <path d="M8,0 C5.879,0 3.843,0.843 2.343,2.343 C0.843,3.843 0,5.879 0,8 C0,10.121 0.843,12.157 2.343,13.657 C3.843,15.157 5.879,16 8,16 C10.121,16 12.157,15.157 13.657,13.657 C15.157,12.157 16,10.121 16,8 C16,5.879 15.157,3.843 13.657,2.343 C12.157,0.843 10.121,0 8,0 Z" id="Shape" stroke="#E1E5E8"/>
        <path d="M8,0 C5.879,0 3.843,0.843 2.343,2.343 C0.843,3.843 0,5.879 0,8 C0,10.121 0.843,12.157 2.343,13.657 C3.843,15.157 5.879,16 8,16 C10.121,16 12.157,15.157 13.657,13.657 C15.157,12.157 16,10.121 16,8 C16,5.879 15.157,3.843 13.657,2.343 C12.157,0.843 10.121,0 8,0 Z" id="Shape" stroke="#1D74F5"/>
        <g id="Shape">
          <use stroke="#FFFFFF" stroke-width="3" xlink:href="#path-5"/>
          <use stroke="#1D74F5" stroke-width="1" xlink:href="#path-5"/>
        </g>
      </g>
      <g id="Group" transform="translate(560.000000, 0.000000)">
        <path d="M8,0 C5.879,0 3.843,0.843 2.343,2.343 C0.843,3.843 0,5.879 0,8 C0,10.121 0.843,12.157 2.343,13.657 C3.843,15.157 5.879,16 8,16 C10.121,16 12.157,15.157 13.657,13.657 C15.157,12.157 16,10.121 16,8 C16,5.879 15.157,3.843 13.657,2.343 C12.157,0.843 10.121,0 8,0 Z" id="Shape" stroke="#E1E5E8"/>
        <path d="M8,0 C5.879,0 3.843,0.843 2.343,2.343 C0.843,3.843 0,5.879 0,8 C0,10.121 0.843,12.157 2.343,13.657 C3.843,15.157 5.879,16 8,16 C10.121,16 12.157,15.157 13.657,13.657 C15.157,12.157 16,10.121 16,8 C16,5.879 15.157,3.843 13.657,2.343 C12.157,0.843 10.121,0 8,0 Z" id="Shape" stroke="#1D74F5"/>
        <g id="Shape">
          <use stroke="#FFFFFF" stroke-width="3" xlink:href="#path-6"/>
          <use stroke="#1D74F5" stroke-width="1" xlink:href="#path-6"/>
        </g>
      </g>
      <g id="Group" transform="translate(580.000000, 0.000000)">
        <path d="M8,0 C5.879,0 3.843,0.843 2.343,2.343 C0.843,3.843 0,5.879 0,8 C0,10.121 0.843,12.157 2.343,13.657 C3.843,15.157 5.879,16 8,16 C10.121,16 12.157,15.157 13.657,13.657 C15.157,12.157 16,10.121 16,8 C16,5.879 15.157,3.843 13.657,2.343 C12.157,0.843 10.121,0 8,0 Z" id="Shape" stroke="#E1E5E8"/>
        <path d="M8,0 C5.879,0 3.843,0.843 2.343,2.343 C0.843,3.843 0,5.879 0,8 C0,10.121 0.843,12.157 2.343,13.657 C3.843,15.157 5.879,16 8,16 C10.121,16 12.157,15.157 13.657,13.657 C15.157,12.157 16,10.121 16,8 C16,5.879 15.157,3.843 13.657,2.343 C12.157,0.843 10.121,0 8,0 Z" id="Shape" stroke="#1D74F5"/>
        <g id="Shape">
          <use stroke="#FFFFFF" stroke-width="3" xlink:href="#path-7"/>
          <use stroke="#1D74F5" stroke-width="1" xlink:href="#path-7"/>
        </g>
      </g>
      <g id="Group" transform="translate(600.000000, 0.000000)">
        <path d="M8,0 C5.879,0 3.843,0.843 2.343,2.343 C0.843,3.843 0,5.879 0,8 C0,10.121 0.843,12.157 2.343,13.657 C3.843,15.157 5.879,16 8,16 C10.121,16 12.157,15.157 13.657,13.657 C15.157,12.157 16,10.121 16,8 C16,5.879 15.157,3.843 13.657,2.343 C12.157,0.843 10.121,0 8,0 Z" id="Shape" stroke="#E1E5E8"/>
        <path d="M8,0 C5.879,0 3.843,0.843 2.343,2.343 C0.843,3.843 0,5.879 0,8 C0,10.121 0.843,12.157 2.343,13.657 C3.843,15.157 5.879,16 8,16 C10.121,16 12.157,15.157 13.657,13.657 C15.157,12.157 16,10.121 16,8 C16,5.879 15.157,3.843 13.657,2.343 C12.157,0.843 10.121,0 8,0 Z" id="Shape" stroke="#1D74F5"/>
        <g id="Shape">
          <use stroke="#FFFFFF" stroke-width="3" xlink:href="#path-8"/>
          <use stroke="#1D74F5" stroke-width="1" xlink:href="#path-8"/>
        </g>
      </g>
      <g id="Group" transform="translate(620.000000, 0.000000)">
        <path d="M8,0 C5.879,0 3.843,0.843 2.343,2.343 C0.843,3.843 0,5.879 0,8 C0,10.121 0.843,12.157 2.343,13.657 C3.843,15.157 5.879,16 8,16 C10.121,16 12.157,15.157 13.657,13.657 C15.157,12.157 16,10.121 16,8 C16,5.879 15.157,3.843 13.657,2.343 C12.157,0.843 10.121,0 8,0 Z" id="Shape" stroke="#E1E5E8"/>
        <path d="M8,0 C5.879,0 3.843,0.843 2.343,2.343 C0.843,3.843 0,5.879 0,8 C0,10.121 0.843,12.157 2.343,13.657 C3.843,15.157 5.879,16 8,16 C10.121,16 12.157,15.157 13.657,13.657 C15.157,12.157 16,10.121 16,8 C16,5.879 15.157,3.843 13.657,2.343 C12.157,0.843 10.121,0 8,0 Z" id="Shape" stroke="#1D74F5"/>
        <g id="Shape">
          <use stroke="#FFFFFF" stroke-width="3" xlink:href="#path-9"/>
          <use stroke="#1D74F5" stroke-width="1" xlink:href="#path-9"/>
        </g>
      </g>
      <g id="Group" transform="translate(640.000000, 0.000000)">
        <path d="M8,0 C5.879,0 3.843,0.843 2.343,2.343 C0.843,3.843 0,5.879 0,8 C0,10.121 0.843,12.157 2.343,13.657 C3.843,15.157 5.879,16 8,16 C10.121,16 12.157,15.157 13.657,13.657 C15.157,12.157 16,10.121 16,8 C16,5.879 15.157,3.843 13.657,2.343 C12.157,0.843 10.121,0 8,0 Z" id="Shape" stroke="#E1E5E8"/>
        <path d="M8,0 C5.879,0 3.843,0.843 2.343,2.343 C0.843,3.843 0,5.879 0,8 C0,10.121 0.843,12.157 2.343,13.657 C3.843,15.157 5.879,16 8,16 C10.121,16 12.157,15.157 13.657,13.657 C15.157,12.157 16,10.121 16,8 C16,5.879 15.157,3.843 13.657,2.343 C12.157,0.843 10.121,0 8,0 Z" id="Shape" stroke="#1D74F5"/>
        <g id="Shape">
          <use stroke="#FFFFFF" stroke-width="3" xlink:href="#path-10"/>
          <use stroke="#1D74F5" stroke-width="1" xlink:href="#path-10"/>
        </g>
      </g>
      <g id="Group" transform="translate(660.000000, 0.000000)">
        <path d="M8,0 C5.879,0 3.843,0.843 2.343,2.343 C0.843,3.843 0,5.879 0,8 C0,10.121 0.843,12.157 2.343,13.657 C3.843,15.157 5.879,16 8,16 C10.121,16 12.157,15.157 13.657,13.657 C15.157,12.157 16,10.121 16,8 C16,5.879 15.157,3.843 13.657,2.343 C12.157,0.843 10.121,0 8,0 Z" id="Shape" stroke="#E1E5E8"/>
        <path d="M8,0 C5.879,0 3.843,0.843 2.343,2.343 C0.843,3.843 0,5.879 0,8 C0,10.121 0.843,12.157 2.343,13.657 C3.843,15.157 5.879,16 8,16 C10.121,16 12.157,15.157 13.657,13.657 C15.157,12.157 16,10.121 16,8 C16,5.879 15.157,3.843 13.657,2.343 C12.157,0.843 10.121,0 8,0 Z" id="Shape" stroke="#1D74F5"/>
        <g id="Shape">
          <use stroke="#FFFFFF" stroke-width="3" xlink:href="#path-11"/>
          <use stroke="#1D74F5" stroke-width="1" xlink:href="#path-11"/>
        </g>
      </g>
      <g id="Group" transform="translate(680.000000, 0.000000)">
        <path d="M8,0 C5.879,0 3.843,0.843 2.343,2.343 C0.843,3.843 0,5.879 0,8 C0,10.121 0.843,12.157 2.343,13.657 C3.843,15.157 5.879,16 8,16 C10.121,16 12.157,15.157 13.657,13.657 C15.157,12.157 16,10.121 16,8 C16,5.879 15.157,3.843 13.657,2.343 C12.157,0.843 10.121,0 8,0 Z" id="Shape" stroke="#E1E5E8"/>
        <path d="M8,0 C5.879,0 3.843,0.843 2.343,2.343 C0.843,3.843 0,5.879 0,8 C0,10.121 0.843,12.157 2.343,13.657 C3.843,15.157 5.879,16 8,16 C10.121,16 12.157,15.157 13.657,13.657 C15.157,12.157 16,10.121 16,8 C16,5.879 15.157,3.843 13.657,2.343 C12.157,0.843 10.121,0 8,0 Z" id="Shape" stroke="#1D74F5"/>
        <g id="Shape">
          <use stroke="#FFFFFF" stroke-width="3" xlink:href="#path-12"/>
          <use stroke="#1D74F5" stroke-width="1" xlink:href="#path-12"/>
        </g>
      </g>
      <g id="Group" transform="translate(700.000000, 0.000000)">
        <path d="M8,0 C5.879,0 3.843,0.843 2.343,2.343 C0.843,3.843 0,5.879 0,8 C0,10.121 0.843,12.157 2.343,13.657 C3.843,15.157 5.879,16 8,16 C10.121,16 12.157,15.157 13.657,13.657 C15.157,12.157 16,10.121 16,8 C16,5.879 15.157,3.843 13.657,2.343 C12.157,0.843 10.121,0 8,0 Z" id="Shape" stroke="#E1E5E8"/>
        <path d="M8,0 C5.879,0 3.843,0.843 2.343,2.343 C0.843,3.843 0,5.879 0,8 C0,10.121 0.843,12.157 2.343,13.657 C3.843,15.157 5.879,16 8,16 C10.121,16 12.157,15.157 13.657,13.657 C15.157,12.157 16,10.121 16,8 C16,5.879 15.157,3.843 13.657,2.343 C12.157,0.843 10.121,0 8,0 Z" id="Shape" stroke="#1D74F5"/>
        <g id="Shape">
          <use stroke="#FFFFFF" stroke-width="3" xlink:href="#path-13"/>
          <use stroke="#1D74F5" stroke-width="1" xlink:href="#path-13"/>
        </g>
      </g>
      <g id="Group" transform="translate(720.000000, 0.000000)">
        <path d="M8,0 C5.879,0 3.843,0.843 2.343,2.343 C0.843,3.843 0,5.879 0,8 C0,10.121 0.843,12.157 2.343,13.657 C3.843,15.157 5.879,16 8,16 C10.121,16 12.157,15.157 13.657,13.657 C15.157,12.157 16,10.121 16,8 C16,5.879 15.157,3.843 13.657,2.343 C12.157,0.843 10.121,0 8,0 Z" id="Shape" stroke="#E1E5E8"/>
        <path d="M8,0 C5.879,0 3.843,0.843 2.343,2.343 C0.843,3.843 0,5.879 0,8 C0,10.121 0.843,12.157 2.343,13.657 C3.843,15.157 5.879,16 8,16 C10.121,16 12.157,15.157 13.657,13.657 C15.157,12.157 16,10.121 16,8 C16,5.879 15.157,3.843 13.657,2.343 C12.157,0.843 10.121,0 8,0 Z" id="Shape" stroke="#1D74F5"/>
        <g id="Shape">
          <use stroke="#FFFFFF" stroke-width="3" xlink:href="#path-14"/>
          <use stroke="#1D74F5" stroke-width="1" xlink:href="#path-14"/>
        </g>
      </g>
      <g id="Group" transform="translate(740.000000, 0.000000)">
        <path d="M8,0 C5.879,0 3.843,0.843 2.343,2.343 C0.843,3.843 0,5.879 0,8 C0,10.121 0.843,12.157 2.343,13.657 C3.843,15.157 5.879,16 8,16 C10.121,16 12.157,15.157 13.657,13.657 C15.157,12.157 16,10.121 16,8 C16,5.879 15.157,3.843 13.657,2.343 C12.157,0.843 10.121,0 8,0 Z" id="Shape" stroke="#E1E5E8"/>
        <path d="M8,0 C5.879,0 3.843,0.843 2.343,2.343 C0.843,3.843 0,5.879 0,8 C0,10.121 0.843,12.157 2.343,13.657 C3.843,15.157 5.879,16 8,16 C10.121,16 12.157,15.157 13.657,13.657 C15.157,12.157 16,10.121 16,8 C16,5.879 15.157,3.843 13.657,2.343 C12.157,0.843 10.121,0 8,0 Z" id="Shape" stroke="#1D74F5"/>
        <g id="Shape">
          <use stroke="#FFFFFF" stroke-width="3" xlink:href="#path-15"/>
          <use stroke="#1D74F5" stroke-width="1" xlink:href="#path-15"/>
        </g>
      </g>
      <g id="Group" transform="translate(760.000000, 0.000000)">
        <path d="M8,0 C5.879,0 3.843,0.843 2.343,2.343 C0.843,3.843 0,5.879 0,8 C0,10.121 0.843,12.157 2.343,13.657 C3.843,15.157 5.879,16 8,16 C10.121,16 12.157,15.157 13.657,13.657 C15.157,12.157 16,10.121 16,8 C16,5.879 15.157,3.843 13.657,2.343 C12.157,0.843 10.121,0 8,0 Z" id="Shape" stroke="#E1E5E8"/>
        <path d="M8,0 C5.879,0 3.843,0.843 2.343,2.343 C0.843,3.843 0,5.879 0,8 C0,10.121 0.843,12.157 2.343,13.657 C3.843,15.157 5.879,16 8,16 C10.121,16 12.157,15.157 13.657,13.657 C15.157,12.157 16,10.121 16,8 C16,5.879 15.157,3.843 13.657,2.343 C12.157,0.843 10.121,0 8,0 Z" id="Shape" stroke="#1D74F5"/>
        <g id="Shape">
          <use stroke="#FFFFFF" stroke-width="3" xlink:href="#path-16"/>
          <use stroke="#1D74F5" stroke-width="1" xlink:href="#path-16"/>
        </g>
      </g>
      <g id="Group" transform="translate(780.000000, 0.000000)">
        <path d="M8,0 C5.879,0 3.843,0.843 2.343,2.343 C0.843,3.843 0,5.879 0,8 C0,10.121 0.843,12.157 2.343,13.657 C3.843,15.157 5.879,16 8,16 C10.121,16 12.157,15.157 13.657,13.657 C15.157,12.157 16,10.121 16,8 C16,5.879 15.157,3.843 13.657,2.343 C12.157,0.843 10.121,0 8,0 Z" id="Shape" stroke="#E1E5E8"/>
        <path d="M8,0 C5.879,0 3.843,0.843 2.343,2.343 C0.843,3.843 0,5.879 0,8 C0,10.121 0.843,12.157 2.343,13.657 C3.843,15.157 5.879,16 8,16 C10.121,16 12.157,15.157 13.657,13.657 C15.157,12.157 16,10.121 16,8 C16,5.879 15.157,3.843 13.657,2.343 C12.157,0.843 10.121,0 8,0 Z" id="Shape" stroke="#1D74F5"/>
        <g id="Shape">
          <use stroke="#FFFFFF" stroke-width="3" xlink:href="#path-17"/>
          <use stroke="#1D74F5" stroke-width="1" xlink:href="#path-17"/>
        </g>
      </g>
      <g id="Group" transform="translate(800.000000, 0.000000)">
        <path d="M8,0 C5.879,0 3.843,0.843 2.343,2.343 C0.843,3.843 0,5.879 0,8 C0,10.121 0.843,12.157 2.343,13.657 C3.843,15.157 5.879,16 8,16 C10.121,16 12.157,15.157 13.657,13.657 C15.157,12.157 16,10.121 16,8 C16,5.879 15.157,3.843 13.657,2.343 C12.157,0.843 10.121,0 8,0 Z" id="Shape" stroke="#E1E5E8"/>
        <path d="M8,0 C5.879,0 3.843,0.843 2.343,2.343 C0.843,3.843 0,5.879 0,8 C0,10.121 0.843,12.157 2.343,13.657 C3.843,15.157 5.879,16 8,16 C10.121,16 12.157,15.157 13.657,13.657 C15.157,12.157 16,10.121 16,8 C16,5.879 15.157,3.843 13.657,2.343 C12.157,0.843 10.121,0 8,0 Z" id="Shape" stroke="#1D74F5"/>
        <g id="Shape">
          <use stroke="#FFFFFF" stroke-width="3" xlink:href="#path-18"/>
          <use stroke="#1D74F5" stroke-width="1" xlink:href="#path-18"/>
        </g>
      </g>
    </g>
  </g>
</svg>