<svg id="menu" viewBox="0 0 20 20">
  <path d="M14.95,11.5 C14.2596441,11.5 13.7,10.9403559 13.7,10.25 C13.7,9.55964406 14.2596441,9 14.95,9 C15.6403559,9 16.2,9.55964406 16.2,10.25 C16.2,10.9403559 15.6403559,11.5 14.95,11.5 Z M9.95,11.5 C9.25964406,11.5 8.7,10.9403559 8.7,10.25 C8.7,9.55964406 9.25964406,9 9.95,9 C10.6403559,9 11.2,9.55964406 11.2,10.25 C11.2,10.9403559 10.6403559,11.5 9.95,11.5 Z M4.95,11.5 C4.25964406,11.5 3.7,10.9403559 3.7,10.25 C3.7,9.55964406 4.25964406,9 4.95,9 C5.64035594,9 6.2,9.55964406 6.2,10.25 C6.2,10.9403559 5.64035594,11.5 4.95,11.5 Z"/>
</svg>