<svg id="message" viewBox="0 0 20 20">
  <path d="M10.1102,16.5461 L9.9272,16.5461 C5.5982,16.5461 2.4562,13.7931 2.4562,10.0001 C2.4562,6.3901 5.3992,3.4531 9.0162,3.4531 C12.6332,3.4531 15.5762,6.3901 15.5762,10.0001 C15.5762,10.5901 15.3012,11.1801 15.0102,11.8031 C14.9092,12.0211 14.8092,12.2361 14.7322,12.4211 C13.9762,14.0471 15.4632,14.8301 16.0962,15.1641 C16.1942,15.2151 16.3202,15.2811 16.4222,15.3421 C16.0062,15.8201 14.6082,16.5611 10.1102,16.5461 M16.7762,13.8791 C15.8812,13.4061 15.9242,13.3121 16.0662,13.0041 C16.1472,12.8111 16.2382,12.6151 16.3302,12.4171 C16.6602,11.7121 17.0332,10.9121 17.0332,10.0001 C17.0332,5.5881 13.4362,2.0001 9.0162,2.0001 C4.5962,2.0001 1.0002,5.5881 1.0002,10.0001 C1.0002,14.6351 4.7552,17.9991 9.9272,17.9991 L10.1032,18.0001 L10.3092,18.0001 C13.1662,18.0001 16.9412,17.7441 17.8742,15.7631 C18.3672,14.7171 17.2932,14.1511 16.7762,13.8791"/>
</svg>