<svg id="mic" viewBox="0 0 20 20">
  <path d="M10,3.5 C8.8954305,3.5 8,4.3954305 8,5.5 L8,8.5 C8,9.6045695 8.8954305,10.5 10,10.5 C11.1045695,10.5 12,9.6045695 12,8.5 L12,5.5 C12,4.3954305 11.1045695,3.5 10,3.5 Z M10.75,17 L13,17 L13,18 L7,18 L7,17 L9.25,17 L9.25,14.716139 C6.00613991,14.4134141 4.29997972,12.0875872 4.25005618,8.00918002 L5.74994382,7.99081998 C5.79423117,11.6087897 7.1619064,13.25 10,13.25 C12.8380936,13.25 14.2057688,11.6087897 14.2500562,7.99081998 L15.7499438,8.00918002 C15.7000203,12.0875872 13.9938601,14.4134141 10.75,14.716139 L10.75,17 Z M10,2 C11.9329966,2 13.5,3.56700338 13.5,5.5 L13.5,8.5 C13.5,10.4329966 11.9329966,12 10,12 C8.06700338,12 6.5,10.4329966 6.5,8.5 L6.5,5.5 C6.5,3.56700338 8.06700338,2 10,2 Z"/>
</svg>