<svg id="mobile" viewBox="0 0 20 20">
  <path d="M11.15,15 C11.15,15.6359677 10.6359677,16.15 10,16.15 C9.36403229,16.15 8.85,15.6359677 8.85,15 C8.85,14.3640323 9.36403229,13.85 10,13.85 C10.6359677,13.85 11.15,14.3640323 11.15,15 Z M15.15,3.5 L15.15,16.5 C15.15,17.4109677 14.4109677,18.15 13.5,18.15 L6.5,18.15 C5.58903229,18.15 4.85,17.4109677 4.85,16.5 L4.85,3.5 C4.85,2.58903229 5.58903229,1.85 6.5,1.85 L13.5,1.85 C14.4109677,1.85 15.15,2.58903229 15.15,3.5 Z M13.85,3.5 C13.85,3.30784271 13.6921573,3.15 13.5,3.15 L6.5,3.15 C6.30784271,3.15 6.15,3.30784271 6.15,3.5 L6.15,16.5 C6.15,16.6921573 6.30784271,16.85 6.5,16.85 L13.5,16.85 C13.6921573,16.85 13.85,16.6921573 13.85,16.5 L13.85,3.5 Z"/>
</svg>