<svg id="modal-warning" viewBox="0 0 89 83">
  <g fill="currentColor" fill-rule="evenodd">
    <path d="M44.488 29a2.988 2.988 0 0 1 2.989 2.988v23.056a2.988 2.988 0 1 1-5.977 0V31.988A2.988 2.988 0 0 1 44.488 29zm-.106 34.021c1.947 0 3.382 1.52 3.382 3.493 0 2-1.435 3.519-3.382 3.519-1.946 0-3.382-1.52-3.382-3.52 0-1.972 1.436-3.492 3.382-3.492z"/>
    <path d="M7.471 76.881H81.46L44.465 8.713 7.471 76.881zm78.4 5.626H3.06a3 3 0 0 1-2.637-4.431L41.828 1.778a3 3 0 0 1 5.274 0l41.405 76.298a3 3 0 0 1-2.637 4.43z" fill-rule="nonzero"/>
  </g>
</svg>