<svg id="modal-success" viewBox="0 0 82 82">
  <g fill="currentColor" fill-rule="evenodd">
    <path d="M41 82C18.356 82 0 63.644 0 41S18.356 0 41 0s41 18.356 41 41-18.356 41-41 41zm0-6.308c19.16 0 34.692-15.532 34.692-34.692S60.16 6.308 41 6.308 6.308 21.84 6.308 41 21.84 75.692 41 75.692z" fill-rule="nonzero"/>
    <path d="M33.86 50.585l-8.671-8.723a2.446 2.446 0 0 0-3.47 0 2.475 2.475 0 0 0 0 3.49L31.76 55.45a3 3 0 0 0 4.23.026l23.716-23.277a2.444 2.444 0 0 0 .021-3.467 2.48 2.48 0 0 0-3.493-.025L33.861 50.585z" stroke="currentColor"/>
  </g>
</svg>