<svg id="modal-info" viewBox="0 0 82 82">
  <g fill="currentColor" fill-rule="evenodd">
    <path d="M40.988 61.033a2.988 2.988 0 0 0 2.989-2.989V34.988a2.988 2.988 0 1 0-5.977 0v23.056a2.988 2.988 0 0 0 2.988 2.989zm-.106-34.021c1.947 0 3.382-1.52 3.382-3.493 0-2-1.435-3.519-3.382-3.519-1.946 0-3.382 1.52-3.382 3.52 0 1.972 1.436 3.492 3.382 3.492z"/>
    <path d="M41 82C18.356 82 0 63.644 0 41S18.356 0 41 0s41 18.356 41 41-18.356 41-41 41zm0-6.308c19.16 0 34.692-15.532 34.692-34.692S60.16 6.308 41 6.308 6.308 21.84 6.308 41 21.84 75.692 41 75.692z" fill-rule="nonzero"/>
  </g>
</svg>