<svg id="modal-error" viewBox="0 0 82 82">
  <g fill="currentColor" fill-rule="evenodd">
    <path d="M41 82C18.356 82 0 63.644 0 41S18.356 0 41 0s41 18.356 41 41-18.356 41-41 41zm0-6.308c19.16 0 34.692-15.532 34.692-34.692S60.16 6.308 41 6.308 6.308 21.84 6.308 41 21.84 75.692 41 75.692z" fill-rule="nonzero"/>
    <path d="M56.6 56.203a2.988 2.988 0 0 0 0-4.226L30.796 26.175a2.988 2.988 0 0 0-4.226 4.226l25.802 25.802a2.988 2.988 0 0 0 4.226 0z"/>
    <path d="M26.57 56.203a2.988 2.988 0 0 0 4.227 0L56.6 30.401a2.988 2.988 0 0 0-4.226-4.226L26.571 51.977a2.988 2.988 0 0 0 0 4.226z"/>
  </g>
</svg>