<svg id="modal-warning" viewBox="0 0 20 20">
  <path d="M9.98344445,7.19264254 C10.3363035,7.19264254 10.6223523,7.47811808 10.6223523,7.83027001 L10.6223523,12.3994926 C10.6223523,12.7516446 10.3363035,13.0371201 9.98344445,13.0371201 C9.6305854,13.0371201 9.34453663,12.7516446 9.34453663,12.3994926 L9.34453663,7.83027001 C9.34453663,7.47811808 9.6305854,7.19264254 9.98344445,7.19264254 Z M1.09029342,16.943228 L9.17535565,2.47543659 C9.42072644,2.03635853 9.98669748,1.87248392 10.4411482,2.10674134 C10.6035649,2.19046288 10.7370186,2.31863497 10.8246444,2.47543659 L18.9097066,16.943228 C19.1773333,17.4221319 18.8173998,18 18.2590107,18 L1.74098931,18 C1.18260015,18 0.822666673,17.4221319 1.09029342,16.943228 Z M9.96597455,13.8948416 C10.3667907,13.8948416 10.6696237,14.2092539 10.6696237,14.6151726 C10.6696237,15.0246479 10.3676091,15.3398784 9.96597455,15.3398784 C9.56433998,15.3398784 9.26232535,15.0246479 9.26232535,14.6151726 C9.26232535,14.2092539 9.56515841,13.8948416 9.96597455,13.8948416 Z M2.47982205,16.8623645 L17.520178,16.8623645 L10,3.40540369 L2.47982205,16.8623645 Z"/>
</svg>