<svg id="mute" viewBox="0 0 20 20">
  <path d="M10.767,14.7199341 L10.767,17 L13,17 L13,18 L7,18 L7,17 L9.26699995,17 L9.26699995,14.704471 C8.65058174,14.6342753 8.09343388,14.482666 7.5964999,14.2517 C7.59925188,14.2427 8.85048454,13.1177 8.84773256,13.1107 C9.22383622,13.2037 9.63846757,13.2497 10.0925439,13.2497 C12.7225176,13.2497 14.0333764,11.7117 14.1526288,8.3307 C14.1544634,8.3277 14.5507483,7.9957 14.5507483,7.9957 C14.7837491,7.9957 15.132333,8.0007 15.5964999,8.0087 C15.5484664,12.1060716 13.9003864,14.434712 10.767,14.7199341 Z M9.99009995,11.9979 L13.4911,9.0189 C13.2371,10.7039 11.7861,11.9999 10.0171,11.9999 C10.0081,11.9999 9.99909995,11.9979 9.99009995,11.9979 Z M4.3169999,8.00898058 L5.91149812,7.991 C5.925762,9.04586086 6.05923118,9.93290295 6.3169999,10.6601176 C6.31088681,10.6601176 5.04751442,11.7039904 5.04751442,11.7009936 C4.58190057,10.7030712 4.33635803,9.46840456 4.3169999,8.00898058 Z M8.07599995,9.016 L6.85799995,10.053 C6.62399995,9.585 6.49099995,9.058 6.49099995,8.5 L6.49099995,5.5 C6.49099995,3.567 8.06999995,2 10.017,2 C11.614,2 12.946,3.059 13.381,4.502 L12.033,5.65 L12.033,5.5 C12.033,4.395 11.131,3.5 10.017,3.5 C8.90499995,3.5 8.00299995,4.395 8.00299995,5.5 L8.00299995,8.5 C8.00299995,8.678 8.03099995,8.849 8.07599995,9.016 Z M17.3090589,2.4303983 L18.285341,3.5692017 L2.50534103,17.0972017 L1.52905888,15.9583983 L17.3090589,2.4303983 Z"/>
</svg>