<svg id="pause" viewBox="0 0 20 20">
  <path d="M10,18 C5.58217143,18 2,14.4187429 2,10 C2,5.58125714 5.58217143,2 10,2 C14.4178286,2 18,5.58125714 18,10 C18,14.4187429 14.4178286,18 10,18 Z M11.4,7 C11.1790861,7 11,7.1790861 11,7.4 L11,12.6 C11,12.8209139 11.1790861,13 11.4,13 L12.1,13 C12.3209139,13 12.5,12.8209139 12.5,12.6 L12.5,7.4 C12.5,7.1790861 12.3209139,7 12.1,7 L11.4,7 Z M7.9,7 C7.6790861,7 7.5,7.1790861 7.5,7.4 L7.5,12.6 C7.5,12.8209139 7.6790861,13 7.9,13 L8.6,13 C8.8209139,13 9,12.8209139 9,12.6 L9,7.4 C9,7.1790861 8.8209139,7 8.6,7 L7.9,7 Z"/>
</svg>