<svg id="permalink" viewBox="0 0 20 20">
  <path d="M9.52700239,13.6902274 L9.59772641,13.6609247 L9.52905883,13.6890785 C9.80178435,13.4250444 10.2359432,13.4287887 10.5040743,13.6974873 C10.7722054,13.9661859 10.7750318,14.4003516 10.5094334,14.6735207 L8.15349409,17.0294599 C6.7215713,18.458032 4.40351756,18.458032 2.97142911,17.0292942 C1.54285696,15.5973714 1.54285696,13.2793177 2.97151189,11.847312 L6.34270953,8.47611454 C7.77483036,7.0480546 10.0924528,7.0480546 11.5271288,8.47875782 C11.7820749,8.7523948 11.774652,9.17874888 11.5103352,9.44334543 C11.2460183,9.70794199 10.8196723,9.71581579 10.5432361,9.45872298 C9.65337005,8.57113244 8.21302414,8.57113244 7.32323005,9.45865116 L3.95134531,12.8287578 C3.0638673,13.7183173 3.0638673,15.1583718 3.95117965,16.0477657 C4.84073919,16.9352437 6.28079365,16.9352437 7.17025698,16.0478618 L9.52700239,13.6902274 Z M17.0284788,8.15358628 L13.6564015,11.5247745 C12.2242806,12.9528344 9.90665816,12.9528344 8.47443686,11.5246741 C8.29910366,11.3493409 8.23062824,11.0937872 8.29480465,10.8542776 C8.35898105,10.614768 8.54605936,10.4276897 8.78556897,10.3635133 C9.02507859,10.2993369 9.2806323,10.3678123 9.45584855,10.5430287 C10.3459226,11.4301658 11.7859052,11.4301658 12.6758716,10.5431362 L16.0477657,7.17213119 C16.9352437,6.28257166 16.9352437,4.84251719 16.0479313,3.95312331 C15.1583718,3.06564531 13.7183173,3.06564531 12.8288407,3.95304053 L10.4721327,6.30974854 C10.2968128,6.48525391 10.0411796,6.55389554 9.80152757,6.48981679 C9.56187554,6.42573804 9.37461354,6.23867399 9.31028135,5.99908986 C9.24594917,5.75950574 9.31432039,5.50380007 9.48969096,5.32824397 L11.8473949,2.97142911 C13.2793177,1.54285696 15.5973714,1.54285696 17.0292942,2.97142911 C18.457143,4.40401838 18.4569887,6.72172599 17.0284788,8.15358628 Z"/>
</svg>