<svg id="permalink" viewBox="0 0 20 20">
  <path d="M9.548 14.23l-2.651 2.652a2.676 2.676 0 0 1-3.78 0 2.676 2.676 0 0 1 0-3.78L6.91 9.311a2.677 2.677 0 0 1 3.781 0 .669.669 0 0 0 .945-.946 4.015 4.015 0 0 0-5.67 0l-3.792 3.792a4.014 4.014 0 0 0 0 5.67 4.014 4.014 0 0 0 5.67 0l2.65-2.65a.669.669 0 0 0-.945-.947zm8.28-12.057a4.014 4.014 0 0 0-5.67 0L9.506 4.824a.668.668 0 1 0 .946.945l2.651-2.651a2.676 2.676 0 0 1 3.78 0 2.676 2.676 0 0 1 0 3.78L13.09 10.69a2.678 2.678 0 0 1-3.781 0 .668.668 0 1 0-.945.945 4.015 4.015 0 0 0 5.67 0l3.793-3.792a4.014 4.014 0 0 0 0-5.67z" fill-rule="nonzero" fill="currentColor"/>
</svg>