<svg id="pin" viewBox="0 0 20 20">
  <path d="M9.05694168,12.7295594 L9.28994168,12.2605594 L4.98094168,7.95055944 L4.35394168,8.57755944 C4.21594168,8.71555944 4.03294168,8.79155944 3.83794168,8.79155944 L3.83694168,8.79155944 C3.72794168,8.79155944 3.62094168,8.76755944 3.52494168,8.72055944 C3.47794168,8.62455944 3.45294168,8.51755944 3.45294168,8.40655944 C3.45294168,8.21255944 3.52894168,8.03255944 3.66194168,7.89755944 L7.89794168,3.66255944 C8.11894168,3.44155944 8.44994168,3.39555944 8.71994168,3.52455944 C8.84994168,3.79455944 8.80194168,4.12855944 8.57794168,4.35355944 L7.95094168,4.98055944 L11.8899417,8.92055944 L12.2589417,9.28055944 L12.7229417,9.05955944 C12.7909417,9.02755944 14.2569417,8.35555944 15.9089417,9.58455944 L9.58494168,15.9085594 C8.35594168,14.2565594 9.02794168,12.7915594 9.05694168,12.7295594 Z M17.9989417,9.54855944 L17.4859417,9.03555944 C15.5119417,7.05955944 13.5089417,7.30155944 12.5909417,7.56655944 L9.95294168,4.92855944 C10.3549417,4.23055944 10.3399417,3.35855944 9.90994168,2.67555944 L9.94794168,2.63755944 L9.60794168,2.29855944 L9.56994168,2.33555944 C8.72594168,1.80355944 7.59994168,1.90455944 6.86894168,2.63555944 L2.63494168,6.87055944 C1.90394168,7.60155944 1.80394168,8.72955944 2.33594168,9.56955944 L2.29894168,9.60755944 L2.63794168,9.94655944 L2.67494168,9.90955944 C3.35994168,10.3405594 4.23294168,10.3545594 4.92794168,9.95355944 L7.56694168,12.5925594 C7.30194168,13.5085594 7.05994168,15.5105594 9.03594168,17.4865594 L9.54894168,18.0005594 L13.2609417,14.2885594 L16.6869417,17.7145594 L17.7149417,16.6875594 L14.2879417,13.2605594 L17.9989417,9.54855944 Z"/>
</svg>