<svg id="pin" viewBox="0 0 20 20">
  <path d="M9.28994168,12.2605594 L4.98094168,7.95055944 L4.35394168,8.57755944 C4.21594168,8.71555944 4.03294168,8.79155944 3.83794168,8.79155944 C3.83794168,8.79155944 3.83794168,8.79155944 3.83794168,8.79155944 L3.83794168,8.79155944 C3.63398016,8.79155944 3.46541245,8.63249032 3.4535962,8.42887137 C3.45316578,8.42114703 3.45294168,8.41371006 3.45294168,8.40655944 C3.45294168,8.21255944 3.52894168,8.03255944 3.66194168,7.89755944 L7.89794168,3.66255944 C7.89794168,3.66255944 7.89794168,3.66255944 7.89794168,3.66255944 L7.89794168,3.66255944 C8.08600709,3.47449403 8.39092136,3.47449403 8.57898677,3.66255944 C8.70923179,3.79280446 8.75377449,3.98593376 8.69373016,4.16006649 C8.66661434,4.23877099 8.62801132,4.30326628 8.57794168,4.35355944 L7.95094168,4.98055944 L11.8899417,8.92055944 L12.2589417,9.28055944 L12.7229417,9.05955944 C12.7781378,9.03358478 13.7544347,8.58593313 15.0036419,9.07555785 C15.1418651,9.12973422 15.3356746,9.23200588 15.5850702,9.38237283 L15.5849896,9.3825065 C15.7268064,9.46801144 15.7724562,9.65229213 15.6869513,9.79410894 C15.6744042,9.81491935 15.6593738,9.83412733 15.6421909,9.85131022 L9.85242248,15.641046 C9.73527421,15.7581943 9.54533934,15.7581943 9.42819107,15.641046 C9.41082504,15.62368 9.39565735,15.604247 9.38302855,15.5831835 C9.22476473,15.319216 9.11807576,15.1147682 9.06296163,14.9698401 C8.594201,13.7371867 9.03361339,12.7794337 9.05694168,12.7295594 L9.28994168,12.2605594 Z M17.4859417,9.03555944 C15.5119417,7.05955944 13.5089417,7.30155944 12.5909417,7.56655944 L9.95294168,4.92855944 C10.3549417,4.23055944 10.3399417,3.35855944 9.90994168,2.67555944 L9.56994168,2.33555944 C8.72594168,1.80355944 7.59994168,1.90455944 6.86894168,2.63555944 L2.63494168,6.87055944 C1.90394168,7.60155944 1.80394168,8.72955944 2.33594168,9.56955944 L2.67494168,9.90955944 C3.35994168,10.3405594 4.23294168,10.3545594 4.92794168,9.95355944 L7.56694168,12.5925594 C7.30194168,13.5085594 7.05994168,15.5105594 9.03594168,17.4865594 L9.03594168,17.4865594 C9.31898802,17.7701575 9.77834409,17.7706048 10.0619422,17.4875585 C10.0621088,17.4873921 10.0622754,17.4872257 10.0624419,17.4870592 L13.2609417,14.2885594 L16.1731916,17.2008094 C16.4569684,17.4845861 16.9170269,17.4846981 17.2009417,17.2010594 L17.2009417,17.2010594 C17.4846779,16.9175992 17.4849017,16.4577956 17.2014414,16.1740593 C17.2013582,16.173976 17.2012749,16.1738927 17.2011916,16.1738094 L14.2879417,13.2605594 L17.4860108,10.0616285 C17.7693059,9.77825712 17.7692749,9.3188927 17.4859417,9.03555944 Z"/>
</svg>