<svg id="podcast" viewBox="0 0 20 20">
  <path d="M13.64325,12.0167734 C13.5344313,11.8125243 13.4010052,11.6219277 13.2458571,11.4491055 C13.1796071,11.3752773 13.1775357,11.2657656 13.2364286,11.1861016 C13.7164286,10.536625 14,9.73783984 14,8.875 C14,6.65238672 12.1195357,4.85400391 9.8425,4.94048828 C7.78064286,5.01881641 6.10357143,6.65344141 6.00471429,8.68227344 C5.95907143,9.61869531 6.248,10.4884961 6.76357143,11.1861016 C6.82242857,11.2657656 6.82042857,11.3752773 6.75417857,11.4491055 C6.59903436,11.6218973 6.4656193,11.8124717 6.35682143,12.0167031 C6.28528571,12.1508594 6.09789286,12.1721641 6.00107143,12.0543906 C5.28603571,11.1847656 4.85714286,10.0783281 4.85714286,8.875 C4.85714286,6.06970703 7.18707143,3.79007031 10.0420714,3.81267578 C12.8128929,3.83461328 15.0845714,6.04158203 15.1417143,8.76861719 C15.1677857,10.0116719 14.7359286,11.1566406 14.0014286,12.0514023 C13.9036429,12.1705117 13.7155714,12.1524062 13.64325,12.0167734 Z M10,1 C5.57878571,1 2,4.52212891 2,8.875 C2,11.757918 3.56303571,14.2381914 5.84282143,15.6068945 C5.99725,15.6996016 6.19192857,15.5741992 6.16703571,15.3978906 C6.12260714,15.0834531 6.08446429,14.7741836 6.05592857,14.4824922 C6.04991866,14.4221405 6.01791958,14.3672187 5.96803571,14.3316367 C4.24617857,13.0954023 3.12892857,11.0898086 3.143,8.83288281 C3.16571429,5.18939453 6.15542857,2.20153516 9.856,2.12647656 C13.7026429,2.04842969 16.8571429,5.10589844 16.8571429,8.875 C16.8571429,11.1147344 15.7431429,13.1030664 14.032,14.3316016 C13.9821008,14.3671907 13.9500891,14.4221248 13.9440714,14.4824922 C13.9155357,14.7741836 13.8774286,15.0833828 13.833,15.3977852 C13.8080714,15.5740937 14.00275,15.6995664 14.1571071,15.6068594 C16.4145357,14.2511641 18,11.7841797 18,8.875 C18,4.52279687 14.4219286,1 10,1 Z M12.2857143,13.5068359 C12.2857143,14.6651992 11.8260357,17.1693789 11.5510357,18.176043 C11.3673571,18.8443633 10.6735,19 10,19 C9.32653571,19 8.63264286,18.8443633 8.449,18.1760078 C8.17596429,17.1765859 7.71428571,14.6721953 7.71428571,13.5068359 C7.71428571,12.2708828 8.8265,11.96875 10,11.96875 C11.1735,11.96875 12.2857143,12.2708828 12.2857143,13.5068359 Z M11.1428571,13.5068359 C11.1428571,12.9331914 8.85714286,12.9337891 8.85714286,13.5068359 C8.85714286,14.4798555 9.26714286,16.804668 9.53607143,17.8221602 C9.75171429,17.8930703 10.2485,17.8930352 10.4639643,17.8221602 C10.7326071,16.8062852 11.1428571,14.480207 11.1428571,13.5068359 Z M12.2857143,8.875 C12.2857143,10.1176328 11.2623571,11.125 10,11.125 C8.73764286,11.125 7.71428571,10.1176328 7.71428571,8.875 C7.71428571,7.63236719 8.73764286,6.625 10,6.625 C11.2623571,6.625 12.2857143,7.63236719 12.2857143,8.875 Z M11.1428571,8.875 C11.1428571,8.25466797 10.6301786,7.75 10,7.75 C9.36982143,7.75 8.85714286,8.25466797 8.85714286,8.875 C8.85714286,9.49533203 9.36982143,10 10,10 C10.6301786,10 11.1428571,9.49533203 11.1428571,8.875 Z"/>
</svg>