<svg id="podcast" viewBox="0 0 20 20">
  <path d="M13.5270684,10.7251829 C13.5599292,10.6676681 13.5874376,10.6161595 13.6095937,10.5706571 C13.8597624,10.056882 14,9.48177983 14,8.875 C14,6.65238672 12.1195357,4.85400391 9.8425,4.94048828 C7.78064286,5.01881641 6.10357143,6.65344141 6.00471429,8.68227344 C5.97049282,9.38437076 6.12435039,10.0490171 6.42079723,10.631715 C6.43583759,10.6612784 6.45338928,10.6937092 6.47345227,10.7290073 L6.47343923,10.7290147 C6.63607927,11.0151574 6.59950072,11.3729354 6.38232143,11.6202461 L6.38232143,11.6202461 C6.21611884,11.8095076 5.92795826,11.8282005 5.73869676,11.6619979 C5.70865826,11.6356192 5.68221844,11.6054055 5.66005705,11.5721336 C5.55677399,11.4171112 5.47674354,11.2850608 5.41994671,11.1759952 C5.06025095,10.4852799 4.85714286,9.70308188 4.85714286,8.875 C4.85714286,6.06970703 7.18707143,3.79007031 10.0420714,3.81267578 C12.8128929,3.83461328 15.0845714,6.04158203 15.1417143,8.76861719 C15.1598042,9.63112089 14.9574293,10.4464022 14.5864629,11.1636449 C14.5288303,11.2750742 14.4472367,11.4102002 14.341682,11.569023 L14.3416897,11.5690282 C14.2020307,11.7791659 13.9184645,11.8363002 13.7083267,11.6966412 C13.6752704,11.6746718 13.645218,11.6484882 13.6189286,11.618752 L13.6189286,11.618752 C13.4001477,11.3712863 13.3632133,11.0119856 13.5270742,10.7251862 Z M10,1 C5.57878571,1 2,4.52212891 2,8.875 C2,11.1600066 2.98192715,13.1920648 4.52439306,14.6181811 C4.71189117,14.7915361 4.99701421,15.0145068 5.37976218,15.2870933 L5.37974367,15.2871193 C5.54253009,15.403053 5.76847736,15.3650713 5.88441103,15.2022849 C5.92628518,15.143488 5.94961765,15.0735111 5.95140916,15.0013494 L5.95574046,14.8251854 C5.96334599,14.5188371 5.83006294,14.2259156 5.59410021,14.030394 C5.36053688,13.8368606 5.18067007,13.6754013 5.0544998,13.5460161 C3.86198692,12.3231171 3.13160587,10.6603956 3.143,8.83288281 C3.16571429,5.18939453 6.15542857,2.20153516 9.856,2.12647656 C13.7026429,2.04842969 16.8571429,5.10589844 16.8571429,8.875 C16.8571429,10.6598101 16.1497248,12.2849733 14.9964399,13.4932208 C14.8658881,13.6299944 14.6796363,13.799675 14.4376845,14.0022628 L14.4377129,14.0022966 C14.1844319,14.2143704 14.0522336,14.5378494 14.0844866,14.8666142 L14.0945536,14.9692305 C14.1152491,15.1801867 14.30304,15.3344235 14.5139962,15.3137279 C14.5795183,15.3073 14.6422852,15.2841254 14.6962635,15.2464318 C14.8347198,15.1497195 14.9486047,15.065673 15.0379055,14.9942742 C16.8161694,13.5724965 18,11.3888369 18,8.875 C18,4.52279687 14.4219286,1 10,1 Z M12.2857143,13.5068359 C12.2857143,14.6651992 11.8260357,17.1693789 11.5510357,18.176043 C11.3673571,18.8443633 10.6735,19 10,19 C9.32653571,19 8.63264286,18.8443633 8.449,18.1760078 C8.17596429,17.1765859 7.71428571,14.6721953 7.71428571,13.5068359 C7.71428571,12.2708828 8.8265,11.96875 10,11.96875 C11.1735,11.96875 12.2857143,12.2708828 12.2857143,13.5068359 Z M11.1428571,13.5068359 C11.1428571,12.9331914 8.85714286,12.9337891 8.85714286,13.5068359 C8.85714286,14.3283098 9.14937516,16.1132899 9.40223219,17.2616532 C9.41370366,17.3137515 9.42701415,17.372055 9.44216366,17.4365636 L9.44225237,17.4365428 C9.49530771,17.6624595 9.69685794,17.8221602 9.92892098,17.8221602 L10.0713214,17.8221526 C10.3034557,17.8221526 10.5050588,17.6623816 10.5580912,17.4363863 C10.5702875,17.3844123 10.5811443,17.3369779 10.5906615,17.2940832 C10.8449797,16.147854 11.1428571,14.336253 11.1428571,13.5068359 Z M12.2857143,8.875 C12.2857143,10.1176328 11.2623571,11.125 10,11.125 C8.73764286,11.125 7.71428571,10.1176328 7.71428571,8.875 C7.71428571,7.63236719 8.73764286,6.625 10,6.625 C11.2623571,6.625 12.2857143,7.63236719 12.2857143,8.875 Z M11.1428571,8.875 C11.1428571,8.25466797 10.6301786,7.75 10,7.75 C9.36982143,7.75 8.85714286,8.25466797 8.85714286,8.875 C8.85714286,9.49533203 9.36982143,10 10,10 C10.6301786,10 11.1428571,9.49533203 11.1428571,8.875 Z"/>
</svg>