<svg id="podcast" viewBox="0 0 448 512">
  <path d="M326.011 313.366a81.658 81.658 0 0 0-11.127-16.147c-1.855-2.1-1.913-5.215-.264-7.481C328.06 271.264 336 248.543 336 224c0-63.221-52.653-114.375-116.41-111.915-57.732 2.228-104.69 48.724-107.458 106.433-1.278 26.636 6.812 51.377 21.248 71.22 1.648 2.266 1.592 5.381-.263 7.481a81.609 81.609 0 0 0-11.126 16.145c-2.003 3.816-7.25 4.422-9.961 1.072C92.009 289.7 80 258.228 80 224c0-79.795 65.238-144.638 145.178-143.995 77.583.624 141.19 63.4 142.79 140.969.73 35.358-11.362 67.926-31.928 93.377-2.738 3.388-8.004 2.873-10.029-.985zM224 0C100.206 0 0 100.185 0 224c0 82.003 43.765 152.553 107.599 191.485 4.324 2.637 9.775-.93 9.078-5.945-1.244-8.944-2.312-17.741-3.111-26.038a6.025 6.025 0 0 0-2.461-4.291c-48.212-35.164-79.495-92.212-79.101-156.409.636-103.637 84.348-188.625 187.964-190.76C327.674 29.822 416 116.79 416 224c0 63.708-31.192 120.265-79.104 155.21a6.027 6.027 0 0 0-2.462 4.292c-.799 8.297-1.866 17.092-3.11 26.035-.698 5.015 4.753 8.584 9.075 5.947C403.607 376.922 448 306.75 448 224 448 100.204 347.814 0 224 0zm64 355.75c0 32.949-12.871 104.179-20.571 132.813C262.286 507.573 242.858 512 224 512c-18.857 0-38.286-4.427-43.428-23.438C172.927 460.134 160 388.898 160 355.75c0-35.156 31.142-43.75 64-43.75 32.858 0 64 8.594 64 43.75zm-32 0c0-16.317-64-16.3-64 0 0 27.677 11.48 93.805 19.01 122.747 6.038 2.017 19.948 2.016 25.981 0C244.513 449.601 256 383.437 256 355.75zM288 224c0 35.346-28.654 64-64 64s-64-28.654-64-64 28.654-64 64-64 64 28.654 64 64zm-32 0c0-17.645-14.355-32-32-32s-32 14.355-32 32 14.355 32 32 32 32-14.355 32-32z"/>
</svg>