<svg id="podcast" viewBox="0 0 20 20">
  <path d="M10,1.95 C13.896608,1.95 17.05,5.10356705 17.05,9 C17.05,11.166632 16.0752466,13.1497307 14.4396905,14.4781658 C14.3616646,14.5415402 14.2628445,14.6156881 14.1432231,14.7006337 C14.0879961,14.7398628 14.0234522,14.7639325 13.9560242,14.7704441 C13.742952,14.7910206 13.5535424,14.634972 13.5329659,14.4218999 L13.5292192,14.3831022 C13.4963668,14.0429118 13.6311483,13.7080071 13.8904975,13.4853765 C14.0815528,13.3214113 14.2299297,13.1831473 14.3354462,13.0708474 C15.3658812,11.9741689 15.95,10.5315715 15.95,9 C15.95,5.67254537 13.2076794,2.98261044 9.87503003,3.05130189 C6.6644569,3.11745551 4.06983488,5.75096688 4.05012406,8.96286936 C4.04050357,10.5303988 4.64271407,12.0068291 5.70875821,13.1173893 C5.81098305,13.2238829 5.95473284,13.3557943 6.13982416,13.5128701 C6.38175827,13.7181849 6.51787079,14.0218935 6.51011831,14.3391177 L6.50746809,14.4468654 C6.50564638,14.5214082 6.48126144,14.5936461 6.43753247,14.6540424 C6.31813058,14.8189546 6.08765197,14.8558333 5.92280013,14.7363965 C5.58892408,14.4946592 5.33965696,14.2965117 5.17461304,14.141495 C3.76582853,12.8183014 2.95,10.9804919 2.95,9 C2.95,5.103393 6.10359727,1.95 10,1.95 Z M11.95,13.1171875 C11.95,14.0277566 11.5963304,16.1856359 11.3088716,17.2546095 C11.1757748,17.7465731 10.7168743,17.95 10,17.95 C9.28313669,17.95 8.82422922,17.7465627 8.69114068,17.2545078 C8.40387709,16.1863155 8.05,14.030791 8.05,13.1171875 C8.05,12.1876528 8.75460924,11.8 10,11.8 C11.2453908,11.8 11.95,12.1876528 11.95,13.1171875 Z M11.05,13.1171875 C11.05,12.8412327 10.589751,12.6848787 9.99999336,12.684957 C9.41033132,12.6850353 8.95,12.8414581 8.95,13.1171875 C8.95,13.7858443 9.17483118,15.2969593 9.42808784,16.4653944 C9.43947589,16.5174314 9.43947589,16.5174314 9.45254137,16.5751986 C9.50956821,16.8254758 9.73212203,17.0030313 9.98880538,17.0030313 L10.0115725,17.002968 C10.2682152,17.0029681 10.4908174,16.8252654 10.5477048,16.5748639 C10.557191,16.5328663 10.557191,16.5328663 10.5656773,16.4942983 C10.8205419,15.3273734 11.05,13.7921015 11.05,13.1171875 Z M12.05,9 C12.05,10.1321767 11.1321767,11.05 10,11.05 C8.86782326,11.05 7.95,10.1321767 7.95,9 C7.95,7.86782326 8.86782326,6.95 10,6.95 C11.1321767,6.95 12.05,7.86782326 12.05,9 Z M10.95,9 C10.95,8.47620799 10.523792,8.05 10,8.05 C9.47620799,8.05 9.05,8.47620799 9.05,9 C9.05,9.52379201 9.47620799,9.95 10,9.95 C10.523792,9.95 10.95,9.52379201 10.95,9 Z M13.0855842,10.6456747 C13.1146337,10.5940653 13.1388935,10.547936 13.1583945,10.5072508 C13.3834398,10.0377359 13.5,9.52540255 13.5,9 C13.5,7.01680949 11.8470792,5.42607119 9.8621879,5.50265623 C8.05785099,5.57228941 6.59061486,7.0254926 6.50412496,8.82868827 C6.4750802,9.43403747 6.60023848,10.0264619 6.86799166,10.5611179 C6.88048805,10.5855118 6.88048805,10.5855118 6.888266,10.6003672 C6.89803953,10.6185604 6.89803953,10.6185604 6.91482622,10.6489988 C7.05728494,10.9033432 7.02518243,11.2196706 6.83453125,11.4402188 C6.69134879,11.6058544 6.44100227,11.6240562 6.27536666,11.4808738 C6.24758281,11.4568562 6.22327115,11.4290944 6.20312797,11.398383 C6.11256863,11.2602981 6.04230573,11.1425789 5.99245338,11.0453291 C5.66850559,10.4133856 5.5,9.7162776 5.5,9 C5.5,6.50447574 7.54061717,4.48007802 10.0368125,4.50015625 C12.4615655,4.51965854 14.4490059,6.48169037 14.499,8.90543654 C14.5143807,9.65041307 14.3477956,10.3770722 14.013155,11.034351 C13.9625568,11.1337328 13.890906,11.2542131 13.7983328,11.3956635 C13.6782411,11.5791526 13.4321411,11.6305504 13.2486502,11.5104636 C13.2181302,11.4904895 13.1905078,11.4664054 13.1665625,11.4388906 C12.9745221,11.2182234 12.9420958,10.9005951 13.0855842,10.6456747 Z"/>
</svg>