<svg id="queue" viewBox="0 0 20 20">
  <path d="M9.98 11.894c-.1 0-.2-.025-.29-.077L1.493 7.161a.587.587 0 0 1-.01-1.017l8.238-4.899a.588.588 0 0 1 .6-.001l8.195 4.828a.588.588 0 0 1-.006 1.017l-8.237 4.727a.586.586 0 0 1-.293.078zM2.954 6.638l7.025 3.991 7.069-4.057-7.025-4.138-7.07 4.204z"/>
  <path d="M9.98 15.172c-.1 0-.2-.025-.29-.076l-8.197-4.657a.588.588 0 1 1 .581-1.022l7.905 4.49 7.946-4.56a.588.588 0 1 1 .585 1.02l-8.237 4.727a.584.584 0 0 1-.293.078z"/>
  <path d="M9.98 18.447c-.1 0-.2-.025-.29-.076l-8.197-4.657a.588.588 0 1 1 .581-1.022l7.905 4.49 7.946-4.56a.588.588 0 0 1 .585 1.02l-8.237 4.727a.584.584 0 0 1-.293.078z"/>
</svg>