<svg id="queue" viewBox="0 0 20 20">
  <path d="M9.62029444,12.0358623 L2.18233282,7.72628678 C1.95469237,7.59542514 1.81343942,7.3515933 1.81088688,7.08679406 C1.80833466,6.82202866 1.94482386,6.57547577 2.16920544,6.4404914 L9.64486198,1.90569935 C9.87612405,1.76522592 10.1647045,1.76473531 10.3961951,1.90428364 L17.8328499,6.37336561 C18.0575948,6.50828056 18.1943886,6.75398431 18.1928599,7.01829966 C18.191331,7.28263521 18.0516826,7.52671401 17.8255056,7.65884865 L10.3508071,12.0343981 C10.2392316,12.0998445 10.1125516,12.1342584 9.9835741,12.1340877 C9.85553957,12.134061 9.73009255,12.1005797 9.62029444,12.0358623 Z M3.99947782,7.06457851 L9.98230897,10.5316639 L16.005694,7.00543868 L10.0232368,3.41087527 L3.99947782,7.06457851 Z M9.62027832,15.0711225 L2.18624986,10.7628243 C1.95160562,10.6348562 1.80413385,10.388155 1.80008543,10.118583 C1.79603782,9.84906499 1.93597426,9.59797582 2.16656564,9.4627949 C2.39850692,9.32682261 2.68506108,9.32993013 2.90951434,9.46815252 L9.98230239,13.5660161 L17.0898401,9.40542673 C17.3182111,9.26684484 17.6026649,9.26459584 17.8331422,9.39956643 C18.0622833,9.53375445 18.2021233,9.78246726 18.1999756,10.0502422 C18.1978278,10.3180458 18.0539855,10.5644458 17.8255056,10.6931925 L10.3509669,15.0686481 C10.2393593,15.1342524 10.1125635,15.1687063 9.98348053,15.1684315 C9.85636169,15.1683888 9.73140368,15.1353564 9.62027832,15.0711225 Z M9.62027832,18.1026893 L2.18624986,13.7943911 C1.95160562,13.666423 1.80413385,13.4197218 1.80008543,13.1501498 C1.79603782,12.8806318 1.93597426,12.6295427 2.16656564,12.4943617 C2.39850692,12.3583894 2.68506108,12.361497 2.90951434,12.4997194 L9.98230241,16.597583 L17.095395,12.4337438 C17.4471338,12.2354944 17.8899456,12.3617863 18.0888611,12.7155679 C18.286491,13.067063 18.1712214,13.5149987 17.8255056,13.7247593 L10.3509669,18.100215 C10.2393593,18.1658192 10.1125635,18.2002731 9.98348053,18.1999984 C9.85636169,18.1999556 9.73140368,18.1669232 9.62027832,18.1026893 Z"/>
</svg>