<svg id="quote" viewBox="0 0 20 20">
  <path d="M8.2,7.69993333 C8.2,6.31925022 7.08073367,5.2 5.7,5.2 C4.31928813,5.2 3.2,6.31928813 3.2,7.7 L3.2,8.7 C3.2,9.52842712 3.87157288,10.2 4.7,10.2 C4.96703337,10.2 5.21080448,10.3519255 5.32843012,10.5916567 C5.86061008,11.6762852 5.64486024,13.0376152 4.75173982,14.6887273 C6.7330353,13.8125337 8.2,11.1618519 8.2,7.69993333 Z M1.8,8.7 L1.8,7.7 C1.8,5.54608948 3.54608948,3.8 5.7,3.8 C7.85392781,3.8 9.6,5.54604706 9.6,7.69993333 C9.6,12.6620035 6.85577559,16.4 3.3,16.4 C2.73494881,16.4 2.4027529,15.7650421 2.72495065,15.3008531 C3.8840617,13.6309264 4.33899559,12.376227 4.18452765,11.5543249 C2.82881234,11.3111148 1.8,10.1257034 1.8,8.7 Z M13.1845276,11.5543249 C11.8288123,11.3111148 10.8,10.1257034 10.8,8.7 L10.8,7.7 C10.8,5.54608948 12.5460895,3.8 14.7,3.8 C16.8539278,3.8 18.6,5.54604706 18.6,7.69993333 C18.6,12.6620035 15.8557756,16.4 12.3,16.4 C11.7349488,16.4 11.4027529,15.7650421 11.7249507,15.3008531 C12.8840617,13.6309264 13.3389956,12.376227 13.1845276,11.5543249 Z M17.2,7.69993333 C17.2,6.31925022 16.0807337,5.2 14.7,5.2 C13.3192881,5.2 12.2,6.31928813 12.2,7.7 L12.2,8.7 C12.2,9.52842712 12.8715729,10.2 13.7,10.2 C13.9670334,10.2 14.2108045,10.3519255 14.3284301,10.5916567 C14.8606101,11.6762852 14.6448602,13.0376152 13.7517398,14.6887273 C15.7330353,13.8125337 17.2,11.1618519 17.2,7.69993333 Z"/>
</svg>