<svg id="reload" viewBox="0 0 20 20">
  <path d="M12.4186047,11.7097994 L18,11.7097994 L18,17.2573682 L16.6286498,17.2573682 L16.6286498,14.597863 C16.3534655,14.985498 16.0563396,15.3585052 15.7144163,15.6922004 C14.1995315,17.1796583 12.1900463,17.9988115 10.0562254,17.9988115 C5.86629335,17.9988115 2.4178047,14.8785327 2.03474087,10.740712 C2.01279927,10.4947832 2,10.2488544 2,9.99926861 L3.37135021,9.99926861 C3.37135021,10.2077138 3.38232101,10.4134164 3.40060568,10.615462 C3.71784469,14.042009 6.57939546,16.6274613 10.0562254,16.6274613 C11.8280098,16.6274613 13.4974001,15.9481858 14.7553854,14.7130564 C15.1640478,14.3126221 15.5196846,13.8609908 15.8122393,13.3700474 C15.8670933,13.2777098 15.9054911,13.1762299 15.9566882,13.0811496 L12.4186047,13.0811496 L12.4186047,11.7097994 Z M7.58230958,6.91766185 L7.58230958,8.28901206 L2.00091423,8.28901206 L2.00091423,2.74144335 L3.37226444,2.74144335 L3.37226444,5.40094852 C3.64836295,5.01331352 3.94548883,4.64030627 4.28558368,4.30752528 C5.80138278,2.82006742 7.81178218,2 9.94377464,2 C14.1346209,2 17.5831095,5.12027884 17.9661734,9.25901377 C17.9890292,9.50311411 18,9.74995715 18,9.99954288 L16.6286498,9.99954288 C16.6286498,9.79201189 16.6195075,9.58722359 16.6003086,9.38517799 C16.2839838,5.95680247 13.4215188,3.37135021 9.94377464,3.37135021 C8.17290441,3.37135021 6.50442832,4.05153991 5.24552883,5.28666933 C4.8377807,5.68618936 4.48214388,6.1378207 4.18867493,6.6296783 C4.13382092,6.72201588 4.09450889,6.82258157 4.04422604,6.91766185 L7.58230958,6.91766185 Z"/>
</svg>