<svg id="share" viewBox="0 0 20 20">
  <path d="M9.25,4.15776362 L7.71900722,5.6887564 C7.4209562,5.98680742 6.93772003,5.98680742 6.63966901,5.6887564 L6.63966901,5.6887564 C6.34161799,5.39070539 6.34161799,4.90746921 6.63966901,4.60941819 L9.28198042,1.96710678 C9.67250471,1.57658249 10.3056697,1.57658249 10.696194,1.96710678 L13.3385054,4.60941819 C13.6365564,4.90746921 13.6365564,5.39070539 13.3385054,5.6887564 L13.3385054,5.6887564 C13.0404544,5.98680742 12.5572182,5.98680742 12.2591672,5.6887564 L10.75,4.17958922 L10.75,12.8990873 C10.75,13.3133009 10.4142136,13.6490873 10,13.6490873 L10,13.6490873 C9.58578644,13.6490873 9.25,13.3133009 9.25,12.8990873 L9.25,4.15776362 Z M12.5,8.73242063 L12.5,8.73242063 C12.5,8.31820707 12.8357864,7.98242063 13.25,7.98242063 L14.75,7.98242063 C15.3022847,7.98242063 15.75,8.43013588 15.75,8.98242063 L15.75,17.6490873 C15.75,18.201372 15.3022847,18.6490873 14.75,18.6490873 L5.25,18.6490873 C4.69771525,18.6490873 4.25,18.201372 4.25,17.6490873 L4.25,8.98242063 C4.25,8.43013588 4.69771525,7.98242063 5.25,7.98242063 L6.75,7.98242063 C7.16421356,7.98242063 7.5,8.31820707 7.5,8.73242063 L7.5,8.73242063 C7.5,9.14663419 7.16421356,9.48242063 6.75,9.48242063 L5.75,9.48242063 L5.75,17.1490873 L14.25,17.1490873 L14.25,9.48242063 L13.25,9.48242063 C12.8357864,9.48242063 12.5,9.14663419 12.5,8.73242063 Z"/>
</svg>