<svg id="shield-alt" viewBox="0 0 512 512">
  <path d="M256 410.955V99.999l-142.684 59.452C123.437 279.598 190.389 374.493 256 410.955zm-32-66.764c-36.413-39.896-65.832-97.846-76.073-164.495L224 147.999v196.192zM466.461 83.692l-192-80a47.996 47.996 0 0 0-36.923 0l-192 80A48 48 0 0 0 16 128c0 198.487 114.495 335.713 221.539 380.308a48 48 0 0 0 36.923 0C360.066 472.645 496 349.282 496 128a48 48 0 0 0-29.539-44.308zM262.154 478.768a16.64 16.64 0 0 1-12.31-.001C152 440 48 304 48 128c0-6.48 3.865-12.277 9.846-14.769l192-80a15.99 15.99 0 0 1 12.308 0l192 80A15.957 15.957 0 0 1 464 128c0 176-104 312-201.846 350.768z"/>
</svg>