<svg id="shield-check" viewBox="0 0 512 512">
  <path d="M466.461 83.692l-192-80a47.996 47.996 0 0 0-36.923 0l-192 80A48 48 0 0 0 16 128c0 198.487 114.495 335.713 221.539 380.308a48 48 0 0 0 36.923 0C360.066 472.645 496 349.282 496 128a48 48 0 0 0-29.539-44.308zM262.154 478.768a16.64 16.64 0 0 1-12.31-.001C152 440 48 304 48 128c0-6.48 3.865-12.277 9.846-14.769l192-80a15.99 15.99 0 0 1 12.308 0l192 80A15.957 15.957 0 0 1 464 128c0 176-104 312-201.846 350.768zm144.655-299.505l-180.48 179.032c-4.705 4.667-12.303 4.637-16.97-.068l-85.878-86.572c-4.667-4.705-4.637-12.303.068-16.97l8.52-8.451c4.705-4.667 12.303-4.637 16.97.068l68.976 69.533 163.441-162.13c4.705-4.667 12.303-4.637 16.97.068l8.451 8.52c4.668 4.705 4.637 12.303-.068 16.97z"/>
</svg>