<svg id="sign-out" viewBox="0 0 20 20">
  <path d="M2.684 3h4.63c.232 0 .421.19.421.42v.282c0 .231-.19.42-.42.42H2.683a.563.563 0 0 0-.561.562v10.102c0 .309.252.562.56.562h4.631c.232 0 .421.189.421.42v.281c0 .232-.19.421-.42.421H2.683c-.93 0-1.684-.754-1.684-1.684V4.684A1.686 1.686 0 0 1 2.684 3zm9.787.684l-.25.25a.421.421 0 0 0 0 .595l4.63 4.61H7.034c-.231 0-.42.19-.42.42v.351c0 .232.189.421.42.421h9.819l-4.627 4.61a.421.421 0 0 0 0 .596l.25.249a.421.421 0 0 0 .595 0l5.77-5.753a.421.421 0 0 0 0-.596l-5.773-5.753a.421.421 0 0 0-.596 0z"/>
</svg>