<svg id="sign-out" viewBox="0 0 20 20">
  <path d="M2,3.00010667 C2,2.44782192 2.44771525,2.00010667 3,2.00010667 L13.1724138,2.00010667 C13.629477,2.00010667 14,2.37062963 14,2.82769287 C14,3.28475611 13.629477,3.65527908 13.1724138,3.65527908 L3.6744186,3.65527908 L3.6744186,16.3449343 L13.1724138,16.3449343 C13.629477,16.3449343 14,16.7154572 14,17.1725205 C14,17.6295837 13.629477,18.0001067 13.1724138,18.0001067 L3,18.0001067 C2.44771525,18.0001067 2,17.5523914 2,17.0001067 L2,3.00010667 Z M13.365092,7.68763891 C13.3629376,7.68551041 13.3607953,7.68336955 13.3586655,7.68121644 C13.0514625,7.37066137 13.05418,6.86986958 13.3647351,6.56266667 C13.6799034,6.25090026 14.1872667,6.25081211 14.5025433,6.56246899 L17.2605623,9.28882239 C17.2632998,9.29152839 17.2660216,9.29425019 17.2687276,9.29698762 C17.6569906,9.68976017 17.6533349,10.3229146 17.2605623,10.7111776 L14.5025433,13.437531 C14.1872667,13.7491879 13.6799034,13.7490997 13.3647351,13.4373333 C13.3625819,13.4352035 13.3604411,13.4330612 13.3583126,13.4309068 C13.0513068,13.1201568 13.0543421,12.6193669 13.365092,12.3123611 L14.8958976,10.8 L7.78000002,10.8 C7.33817222,10.8 6.98000002,10.4418278 6.98000002,10 C6.98000002,9.5581722 7.33817222,9.2 7.78000002,9.2 L14.8958976,9.2 L13.365092,7.68763891 Z"/>
</svg>