<svg id="sort" viewBox="0 0 320 512">
  <path d="M288 288H32c-28.4 0-42.8 34.5-22.6 54.6l128 128c12.5 12.5 32.8 12.5 45.3 0l128-128c20-20.1 5.7-54.6-22.7-54.6zM160 448L32 320h256L160 448zM32 224h256c28.4 0 42.8-34.5 22.6-54.6l-128-128c-12.5-12.5-32.8-12.5-45.3 0l-128 128C-10.7 189.5 3.6 224 32 224zM160 64l128 128H32L160 64z"/>
</svg>.686 4.687 12.284 0 16.97zm100.492-220.355h61.547l15.5 44.317A12 12 0 0 0 393.351 224h11.552c8.31 0 14.105-8.243 11.291-16.062l-60.441-168A11.999 11.999 0 0 0 344.462 32h-16.924a11.999 11.999 0 0 0-11.291 7.938l-60.441 168c-2.813 7.82 2.981 16.062 11.291 16.062h11.271c5.12 0 9.676-3.248 11.344-8.088l15.265-44.267zm10.178-31.067l18.071-51.243c.853-2.56 1.776-5.626 2.668-8.743.871 3.134 1.781 6.219 2.644 8.806l17.821 51.18h-41.204zm-3.482 307.342c4.795-6.044-1.179 2.326 92.917-133.561a12.011 12.011 0 0 0 2.136-6.835V300c0-6.627-5.373-12-12-12h-113.84c-6.627 0-12 5.373-12 12v8.068c0 6.644 5.393 12.031 12.037 12.031 81.861.001 76.238.011 78.238-.026-2.973 3.818 4.564-7.109-92.776 133.303a12.022 12.022 0 0 0-2.142 6.847V468c0 6.627 5.373 12 12 12h119.514c6.627 0 12-5.373 12-12v-8.099c0-6.627-5.373-12-12-12-87.527-.001-81.97-.01-84.084.019z"/>
</svg>