<svg id="sort" viewBox="0 0 20 20">
  <path d="M13.0077313,8.78407383 C12.9196425,9.01277182 12.7326708,9.13412698 12.4764671,9.13412698 L12.1177859,9.13412698 C11.939089,9.13412698 11.7905005,9.05798835 11.6862275,8.91296169 C11.5815305,8.76734547 11.5581135,8.6001569 11.6182809,8.42453163 L13.575572,3.08894204 C13.6636608,2.86024405 13.8506324,2.73888889 14.1068361,2.73888889 L14.6285542,2.73888889 C14.884758,2.73888889 15.0717296,2.86024405 15.1606667,3.09119829 L17.1181985,8.42760291 C17.1772769,8.6001569 17.1538598,8.76734547 17.0491629,8.91296169 C16.9448899,9.05798835 16.7963014,9.13412698 16.6176045,9.13412698 L16.2263159,9.13412698 C15.9894849,9.13412698 15.814868,9.01048751 15.726063,8.77973132 L15.2721178,7.48333333 L13.4632672,7.48333333 L13.0077313,8.78407383 Z M14.811261,6.19920635 L14.3665113,4.87436936 L13.895471,6.19920635 L14.811261,6.19920635 Z M8.31466657,13.6795053 C8.62771586,13.3818642 9.13228414,13.3818642 9.44533343,13.6795053 C9.76266664,13.9812195 9.76266664,14.4736825 9.44533343,14.7753966 L6.83200009,17.2601025 C6.5189508,17.5577436 6.01438253,17.5577436 5.70133324,17.2601025 L3.08799991,14.7753966 C2.7706667,14.4736825 2.7706667,13.9812195 3.08799991,13.6795053 C3.4010492,13.3818642 3.90561747,13.3818642 4.21866676,13.6795053 L5.46333333,14.8629098 L5.46333333,3.28784314 C5.46333333,2.8601936 5.82464386,2.51666667 6.26666667,2.51666667 C6.70868947,2.51666667 7.07,2.8601936 7.07,3.28784314 L7.07,14.8629098 L8.31466657,13.6795053 Z M16.324138,15.9452381 C16.4716645,15.9452381 16.601663,15.9973529 16.7059378,16.0988732 C16.8109964,16.2011566 16.8654266,16.3298523 16.8654266,16.4761905 L16.8654266,16.7301587 C16.8654266,16.8764969 16.8109964,17.0051926 16.7059378,17.107476 C16.601663,17.2089963 16.4716645,17.2611111 16.324138,17.2611111 L12.4112523,17.2611111 C12.2637259,17.2611111 12.1337274,17.2089963 12.0294526,17.107476 C11.924394,17.0051926 11.8699638,16.8764969 11.8699638,16.7301587 L11.8699638,16.4761905 C11.8699638,16.362019 11.9003913,16.258336 11.9633457,16.1664654 L14.8252527,12.181746 L12.5742892,12.181746 C12.4267628,12.181746 12.2967643,12.1296312 12.1924895,12.028111 C12.0874309,11.9258275 12.0330007,11.7971318 12.0330007,11.6507937 L12.0330007,11.3968254 C12.0330007,11.2504873 12.0874309,11.1217915 12.1924895,11.0195081 C12.2967643,10.9179878 12.4267628,10.865873 12.5742892,10.865873 L16.2915307,10.865873 C16.4390571,10.865873 16.5690556,10.9179878 16.6733304,11.0195081 C16.778389,11.1217915 16.8328192,11.2504873 16.8328192,11.3968254 L16.8328192,11.6507937 C16.8328192,11.7462212 16.8011524,11.8387119 16.739474,11.9287217 L15.0766281,14.2459998 C14.4414646,15.1339373 14.0271831,15.7112841 13.8429308,15.9452381 L16.324138,15.9452381 Z"/>
</svg>