<svg id="sort" viewBox="0 0 20 20">
  <path d="M13.3568664,7.33333333 L12.8677557,8.73015873 C12.8025409,8.89947074 12.6721114,8.98412698 12.4764671,8.98412698 L12.1177859,8.98412698 C11.9873564,8.98412698 11.8840995,8.93121677 11.8080158,8.82539683 C11.7319321,8.71957688 11.7156284,8.6031746 11.7591047,8.47619048 L13.7155476,3.14285714 C13.7807623,2.97354514 13.9111919,2.88888889 14.1068361,2.88888889 L14.6285542,2.88888889 C14.8241985,2.88888889 14.954628,2.97354514 15.0198428,3.14285714 L16.9762857,8.47619048 C17.019762,8.6031746 17.0034583,8.71957688 16.9273746,8.82539683 C16.8512909,8.93121677 16.748034,8.98412698 16.6176045,8.98412698 L16.2263159,8.98412698 C16.05241,8.98412698 15.9328495,8.89947074 15.8676347,8.73015873 L15.378524,7.33333333 L13.3568664,7.33333333 Z M13.6829402,6.34920635 L15.0198428,6.34920635 L14.4655173,4.6984127 L14.3676952,4.44444444 L14.269873,4.6984127 L13.6829402,6.34920635 Z M6.92,15.2125042 L8.41802357,13.7882129 C8.67316611,13.5456284 9.08683389,13.5456284 9.34197643,13.7882129 C9.59711897,14.0307974 9.59711897,14.4241046 9.34197643,14.6666891 L6.7286431,17.151395 C6.47350056,17.3939795 6.05983277,17.3939795 5.80469024,17.151395 L3.1913569,14.6666891 C2.93621437,14.4241046 2.93621437,14.0307974 3.1913569,13.7882129 C3.44649944,13.5456284 3.86016723,13.5456284 4.11530976,13.7882129 L5.61333333,15.2125042 L5.61333333,3.28784314 C5.61333333,2.94477685 5.90584063,2.66666667 6.26666667,2.66666667 C6.6274927,2.66666667 6.92,2.94477685 6.92,3.28784314 L6.92,15.2125042 Z M13.5851181,16.0952381 L16.324138,16.0952381 C16.4328291,16.0952381 16.5252171,16.1322753 16.6013008,16.2063492 C16.6773845,16.2804231 16.7154266,16.3703705 16.7154266,16.4761905 L16.7154266,16.7301587 C16.7154266,16.8359787 16.6773845,16.9259261 16.6013008,17 C16.5252171,17.0740739 16.4328291,17.1111111 16.324138,17.1111111 L12.4112523,17.1111111 C12.3025612,17.1111111 12.2101733,17.0740739 12.1340896,17 C12.0580059,16.9259261 12.0199638,16.8359787 12.0199638,16.7301587 L12.0199638,16.4761905 C12.0199638,16.3915342 12.0417022,16.3174603 12.0851785,16.2539683 L15.117665,12.031746 L12.5742892,12.031746 C12.4655981,12.031746 12.3732102,11.9947088 12.2971265,11.9206349 C12.2210428,11.846561 12.1830007,11.7566136 12.1830007,11.6507937 L12.1830007,11.3968254 C12.1830007,11.2910055 12.2210428,11.201058 12.2971265,11.1269841 C12.3732102,11.0529102 12.4655981,11.015873 12.5742892,11.015873 L16.2915307,11.015873 C16.4002218,11.015873 16.4926097,11.0529102 16.5686934,11.1269841 C16.6447771,11.201058 16.6828192,11.2910055 16.6828192,11.3968254 L16.6828192,11.6507937 C16.6828192,11.7142857 16.6610808,11.7777778 16.6176045,11.8412698 L14.954628,14.1587302 C14.1068361,15.3439152 13.6503328,15.9788358 13.5851181,16.0634921 L13.5851181,16.0952381 Z"/>
</svg>