<svg id="sort-amount-down" viewBox="0 0 20 20">
  <path d="M16.75,14.1893398 L18.4696699,12.4696699 C18.7625631,12.1767767 19.2374369,12.1767767 19.5303301,12.4696699 C19.8232233,12.7625631 19.8232233,13.2374369 19.5303301,13.5303301 L16.5303301,16.5303301 C16.2374369,16.8232233 15.7625631,16.8232233 15.4696699,16.5303301 L12.4696699,13.5303301 C12.1767767,13.2374369 12.1767767,12.7625631 12.4696699,12.4696699 C12.7625631,12.1767767 13.2374369,12.1767767 13.5303301,12.4696699 L15.25,14.1893398 L15.25,5 C15.25,4.58578644 15.5857864,4.25 16,4.25 C16.4142136,4.25 16.75,4.58578644 16.75,5 L16.75,14.1893398 Z M1,5.75 C0.585786438,5.75 0.25,5.41421356 0.25,5 C0.25,4.58578644 0.585786438,4.25 1,4.25 L12,4.25 C12.4142136,4.25 12.75,4.58578644 12.75,5 C12.75,5.41421356 12.4142136,5.75 12,5.75 L1,5.75 Z M1,10.75 C0.585786438,10.75 0.25,10.4142136 0.25,10 C0.25,9.58578644 0.585786438,9.25 1,9.25 L10,9.25 C10.4142136,9.25 10.75,9.58578644 10.75,10 C10.75,10.4142136 10.4142136,10.75 10,10.75 L1,10.75 Z M1,15.75 C0.585786438,15.75 0.25,15.4142136 0.25,15 C0.25,14.5857864 0.585786438,14.25 1,14.25 L8,14.25 C8.41421356,14.25 8.75,14.5857864 8.75,15 C8.75,15.4142136 8.41421356,15.75 8,15.75 L1,15.75 Z"/>
</svg>