<svg id="star-filled" viewBox="0 0 20 20">
  <path d="M10,15.8473318 L5.89916345,18.0032692 C5.41031886,18.26027 4.80569171,18.0723235 4.5486909,17.5834789 C4.44635183,17.3888184 4.41103715,17.1658503 4.448214,16.9490927 L5.23140409,12.3827441 L1.91375763,9.14883803 C1.51827405,8.76333682 1.51018174,8.13022355 1.89568295,7.73473997 C2.04919156,7.57725634 2.25033397,7.47476916 2.467971,7.44314465 L7.05284565,6.77692337 L9.10326392,2.62232215 C9.34768622,2.12706849 9.94731205,1.9237295 10.4425657,2.16815179 C10.6397783,2.26548203 10.7994058,2.42510955 10.8967361,2.62232215 L12.9471544,6.77692337 L17.532029,7.44314465 C18.0785739,7.52256227 18.4572553,8.03000512 18.3778377,8.57654998 C18.3462132,8.79418701 18.243726,8.99532942 18.0862424,9.14883803 L14.7685959,12.3827441 L15.551786,16.9490927 C15.645147,17.4934291 15.2795592,18.0103851 14.7352227,18.1037461 C14.5184651,18.1409229 14.295497,18.1056082 14.1008366,18.0032692 L10,15.8473318 Z"/>
</svg>