<svg id="star" viewBox="0 0 20 20">
  <path d="M10,13.953358 L13.0799846,15.5613441 C13.2268585,15.6380235 13.4080842,15.5811195 13.4847635,15.4342457 C13.5152167,15.3759146 13.5256471,15.3091891 13.514448,15.2443471 L12.9267662,11.8417214 L15.4142964,9.43383643 C15.533344,9.31860047 15.5364339,9.12867611 15.421198,9.0096285 C15.3749905,8.96189268 15.3142446,8.93084546 15.2484889,8.92135703 L11.808841,8.42502178 L10.2686514,5.32595343 C10.1949127,5.17758136 10.0148564,5.11707902 9.86648436,5.19081767 C9.80791217,5.21992715 9.76045808,5.26738124 9.7313486,5.32595343 L8.19115901,8.42502178 L4.75151107,8.92135703 C4.58752412,8.94502006 4.47376911,9.09714043 4.49743214,9.26112739 C4.50692057,9.32688303 4.53796779,9.387629 4.58570361,9.43383643 L7.07323379,11.8417214 L6.48555204,15.2443471 C6.45735331,15.4076153 6.56684872,15.5628299 6.73011688,15.5910286 C6.79495888,15.6022277 6.86168441,15.5917974 6.92001542,15.5613441 L10,13.953358 Z M4.60975082,17.5038067 L5.5,12.3493422 L1.73206005,8.70204331 C1.53364738,8.50998337 1.52849747,8.19344277 1.72055741,7.99503009 C1.79756979,7.91547039 1.89881308,7.86372502 2.00840582,7.84791098 L7.21884705,7.09605331 L9.55224767,2.40093784 C9.67514542,2.15365105 9.97523928,2.05281382 10.2225261,2.17571157 C10.3201464,2.22422738 10.3992365,2.30331752 10.4477523,2.40093784 L12.7811529,7.09605331 L17.9915942,7.84791098 C18.2649058,7.88734936 18.4544975,8.14088332 18.4150591,8.41419491 C18.399245,8.52378765 18.3474997,8.62503093 18.2679399,8.70204331 L14.5,12.3493422 L15.3902492,17.5038067 C15.4372471,17.7759203 15.2547547,18.0346113 14.9826411,18.0816092 C14.8745711,18.1002744 14.7633619,18.0828905 14.6661436,18.0321351 L10,15.5960533 L5.33385645,18.0321351 C5.08906663,18.159934 4.7870238,18.0650941 4.6592249,17.8203043 C4.60846953,17.723086 4.59108559,17.6118768 4.60975082,17.5038067 Z"/>
</svg>