<svg id="strike" viewBox="0 0 20 20">
  <path d="M8.71102759,10.75 L4.25,10.75 L4.25,9.25 L6.88021354,9.25 C6.78204757,8.97819605 6.73413086,8.67389293 6.73413086,8.33496094 C6.73413086,6.70361328 8.06713867,5.61816406 10.0666504,5.61816406 C11.9265137,5.61816406 13.2849121,6.70361328 13.3674316,8.24609375 L11.9836426,8.24609375 C11.8503418,7.40185547 11.1140137,6.875 10.0476074,6.875 C8.92407227,6.875 8.17504883,7.41455078 8.17504883,8.23974609 C8.17504883,8.68801286 8.40182573,9.00498773 8.9290297,9.25 L15.75,9.25 L15.75,10.75 L12.9104183,10.75 C13.3255701,11.1645854 13.5134277,11.6936468 13.5134277,12.3720703 C13.5134277,14.1240234 12.1550293,15.222168 9.98413086,15.222168 C7.95288086,15.222168 6.58813477,14.1748047 6.48657227,12.5371094 L7.89575195,12.5371094 C8.01635742,13.4067383 8.86694336,13.9589844 10.092041,13.9589844 C11.2346191,13.9589844 12.0725098,13.3686523 12.0725098,12.5561523 C12.0725098,11.8579102 11.5393066,11.4389648 10.3269043,11.1533203 L9.14624023,10.8676758 C8.99355133,10.8319899 8.84851854,10.7927994 8.71102759,10.75 Z"/>
</svg>