<svg id="strike" viewBox="0 0 20 20">
  <g fill="none" fill-rule="evenodd">
    <path d="M5.775 13.259c.074.989.498 1.78 1.273 2.372.775.593 1.768.889 2.98.889 1.312 0 2.352-.311 3.122-.933.77-.621 1.155-1.458 1.155-2.51 0-.842-.258-1.511-.774-2.008-.516-.498-1.366-.894-2.551-1.19L9.782 9.56c-.788-.2-1.353-.442-1.694-.722a1.35 1.35 0 0 1-.512-1.095c0-.582.231-1.047.694-1.396.463-.35 1.075-.524 1.837-.524.714 0 1.3.165 1.758.496.457.33.736.79.837 1.377h1.436c-.058-.926-.46-1.685-1.206-2.278-.746-.592-1.672-.888-2.777-.888-1.212 0-2.189.3-2.932.9-.743.6-1.115 1.387-1.115 2.36 0 .815.235 1.467.706 1.957.471.489 1.225.866 2.262 1.13l1.468.381c.788.196 1.367.455 1.737.778.37.322.556.727.556 1.214 0 .566-.253 1.035-.758 1.408s-1.144.56-1.916.56c-.815 0-1.487-.178-2.016-.532-.529-.355-.838-.83-.928-1.428H5.775z" fill="currentColor"/>
    <path d="M4.375 10h11.25" stroke="currentColor" stroke-width="1.5" stroke-linecap="square"/>
  </g>
</svg>