<svg id="team" viewBox="0 0 20 20">
  <path d="M6.15502564,16.4968711 C7.03684992,16.7158997 8.29793983,16.85 10,16.85 C11.7020602,16.85 12.9631501,16.7158997 13.8449744,16.4968711 C13.8449744,16.4968711 13.8449744,16.4968711 13.8449744,16.4968711 L13.8449744,16.4968711 C14.0990036,16.433775 14.2537855,16.1766942 14.1906894,15.922665 C14.1859048,15.9034018 14.1799148,15.8844582 14.1727548,15.8659462 C14.1115492,15.7077931 14.0479398,15.5868394 13.9818953,15.5030972 C13.7406985,15.197268 13.3759681,14.9649958 12.8731134,14.7536137 C12.6690328,14.6678255 11.8331422,14.3606204 11.9922193,14.4208037 C11.0532148,14.0655522 10.6,13.7226248 10.6018335,13.020916 C10.6006359,13.004346 10.6006359,13.004346 10.5986387,12.9631755 C10.5874059,12.6923935 10.6072228,12.3823712 10.6868414,12.0703527 C10.766791,11.7570371 10.8994444,11.4824082 11.1242859,11.2465122 C11.6216676,10.7596911 11.85,10.26047 11.85,9.50412476 C11.85,8.27899634 11.0021199,7.31666667 10,7.31666667 C8.99788008,7.31666667 8.15,8.27899634 8.15,9.50412476 C8.15,10.2600014 8.3731062,10.7462004 8.87398657,11.2572034 C9.08511147,11.4736784 9.22272811,11.7438373 9.30655039,12.0502104 C9.39372955,12.3688529 9.41489999,12.6855324 9.40166617,12.9638097 C9.4,13.7226142 8.94679797,14.0655426 8.00782031,14.4207887 C8.16671898,14.3606714 7.33095029,14.6678327 7.12688659,14.7536137 C6.54260145,14.9992263 6.14479736,15.2730424 5.91058555,15.6576822 C5.87946547,15.7087899 5.84869082,15.7747132 5.81826158,15.8554521 L5.8182721,15.855456 C5.72385502,16.1059759 5.85040137,16.3856026 6.10092128,16.4800197 C6.11861203,16.4866871 6.13667768,16.4923138 6.15502564,16.4968711 C6.15502564,16.4968711 6.15502564,16.4968711 6.15502564,16.4968711 Z M8.05263419,12.3932762 C8.0225415,12.2832865 7.98288767,12.205441 7.94446002,12.1660366 C7.21879983,11.4257152 6.85,10.6220168 6.85,9.50412476 C6.85,7.59508351 8.24069617,6.01666667 10,6.01666667 C11.7593038,6.01666667 13.15,7.59508351 13.15,9.50412476 C13.15,10.6255735 12.7713184,11.4535148 12.0500386,12.1588904 C12.0147484,12.1960117 11.9759214,12.2763943 11.9464786,12.3917778 C11.9034412,12.560438 11.8910752,12.7538951 11.8975216,12.9092945 C11.8984041,12.9271588 11.8984041,12.9271588 11.9,12.9721291 C11.9,12.9572707 12.0023408,13.0347074 12.4522252,13.2049112 C12.26408,13.1337306 13.1406263,13.4558775 13.3768866,13.5551929 C14.8389784,14.1698039 15.65,15.1016639 15.65,16.7554066 L15.65,16.7554066 C15.65,16.9603056 15.5533862,17.1532096 15.3893023,17.2759291 C15.1912071,17.4240858 14.8004352,17.5990531 14.1583481,17.7585354 C13.1665567,18.0048778 11.801816,18.15 10,18.15 C8.198184,18.15 6.8334433,18.0048778 5.84165193,17.7585354 C5.19956482,17.5990531 4.80879292,17.4240858 4.61069773,17.2759291 L4.61069773,17.2759291 C4.44661377,17.1532096 4.35,16.9603056 4.35,16.7554066 C4.35,15.1016639 5.16102155,14.1698039 6.62311341,13.5551929 C6.85937367,13.4558775 7.73591997,13.1337306 7.54777484,13.2049112 C7.99141564,13.0370695 8.09709245,12.9594379 8.10222923,12.9181943 C8.11044186,12.7483829 8.09771859,12.5580611 8.05263419,12.3932762 Z M1.98835897,12.3302044 C2.36847078,12.4246171 2.83070824,12.5049127 3.38224325,12.5653243 C3.52276719,12.5807163 3.7143526,12.5972004 3.95699947,12.6147765 L3.95700088,12.614757 C4.31534758,12.6407137 4.58786304,12.9472969 4.57162389,13.3062153 L4.57162389,13.3062153 C4.55571629,13.6578056 4.25780033,13.9299302 3.90620999,13.9140226 C3.90062473,13.9137699 3.89504303,13.9134437 3.88946636,13.9130441 C3.61456289,13.8933399 3.39830606,13.8748588 3.24069629,13.8575953 C2.63298779,13.7910309 2.11353528,13.7007964 1.67498526,13.5918688 C1.03289815,13.4323864 0.642126248,13.2574192 0.444031066,13.1092625 L0.444031066,13.1092625 C0.279947104,12.986543 0.183333333,12.7936389 0.183333333,12.5887399 C0.183333333,10.9349972 0.994354884,10.0031372 2.45644674,9.3885262 C2.69207418,9.28947687 3.56456221,8.96878813 3.38259714,9.03768098 C3.82498207,8.87023159 3.93043145,8.79272576 3.93556256,8.75152765 C3.94377519,8.58171619 3.93105193,8.39139444 3.88596752,8.22660952 C3.85587483,8.1166198 3.81622101,8.03877433 3.77779336,7.99936996 C3.05213316,7.25904853 2.68333333,6.45535016 2.68333333,5.33745809 C2.68333333,3.42841684 4.07402951,1.85 5.83333333,1.85 C7.15132499,1.85 8.26244167,2.7358605 8.73694517,3.98294585 C8.80051192,4.15001135 8.85550991,4.37942944 8.90193913,4.67120013 L8.90195519,4.67119757 C8.9519283,4.98523875 8.73785884,5.28033064 8.42381766,5.33030375 C8.39389147,5.33506588 8.36363605,5.33745809 8.33333333,5.33745809 L8.33333333,5.33745809 C7.97070973,5.33745809 7.65634154,5.08653962 7.57595013,4.73293942 C7.51001362,4.44282696 7.4328749,4.22417923 7.34455383,4.07699173 C7.00613979,3.51302303 6.44882879,3.15 5.83333333,3.15 C4.83121341,3.15 3.98333333,4.11232968 3.98333333,5.33745809 C3.98333333,6.09333475 4.20643954,6.57953371 4.7073199,7.09053678 C4.9184448,7.30701178 5.05606144,7.57717063 5.13988373,7.88354372 C5.22706288,8.20218625 5.24823332,8.51886572 5.23499951,8.79714308 C5.23333333,9.55594755 4.7801313,9.89887591 3.84115364,10.254122 C4.00005231,10.1940048 3.16428362,10.501166 2.96021993,10.5869471 C2.31085575,10.8599165 1.89182749,11.1677222 1.67171468,11.6237806 C1.63951935,11.6904871 1.60704251,11.7850354 1.57428418,11.9074255 L1.57424223,11.9074142 C1.53217038,12.064601 1.6230582,12.2266748 1.77911743,12.2727535 C1.8570315,12.2957587 1.92677868,12.3149091 1.98835897,12.3302044 Z M18.011641,12.3302044 C18.0729659,12.3149725 18.1423902,12.2959175 18.2199137,12.2730395 L18.2199118,12.2730332 C18.376308,12.2268791 18.4671965,12.0642509 18.424556,11.9068605 C18.3884365,11.7735396 18.3524504,11.6712778 18.3165978,11.6000751 C18.0934997,11.157006 17.6778293,10.8551601 17.0397801,10.5869471 C16.8357164,10.501166 15.9999477,10.1940048 16.1588464,10.254122 C15.2198687,9.89887591 14.7666667,9.55594755 14.7650005,8.79714308 C14.7517667,8.51886572 14.7729371,8.20218625 14.8601163,7.88354372 C14.9439386,7.57717063 15.0815552,7.30701178 15.2926801,7.09053678 C15.7935605,6.57953371 16.0166667,6.09333475 16.0166667,5.33745809 C16.0166667,4.11232968 15.1687866,3.15 14.1666667,3.15 C13.5621459,3.15 13.0137531,3.50019259 12.6737564,4.04701656 C12.5792039,4.19908745 12.4967392,4.4277412 12.4263623,4.7329778 L12.4263746,4.73298064 C12.3447966,5.08679824 12.029767,5.33745809 11.6666667,5.33745809 L11.6666667,5.33745809 C11.3479509,5.33745809 11.0895807,5.07908789 11.0895807,4.7603721 C11.0895807,4.73032332 11.0919276,4.70032044 11.0966001,4.67063716 C11.1399747,4.39487474 11.191198,4.17704433 11.2502372,4.01714076 C11.7173177,2.75208511 12.8366602,1.85 14.1666667,1.85 C15.9259705,1.85 17.3166667,3.42841684 17.3166667,5.33745809 C17.3166667,6.45535016 16.9478668,7.25904853 16.2222066,7.99936996 C16.183779,8.03877433 16.1441252,8.1166198 16.1140325,8.22660952 C16.0689481,8.39139444 16.0562248,8.58171619 16.0644374,8.75152765 C16.0695742,8.79277127 16.175251,8.87040288 16.6188918,9.0382445 C16.4307467,8.96706398 17.307293,9.28921085 17.5435533,9.3885262 C19.0056451,10.0031372 19.8166667,10.9349972 19.8166667,12.5887399 L19.8166667,12.5887399 C19.8166667,12.7936389 19.7200529,12.986543 19.5559689,13.1092625 C19.3578738,13.2574192 18.9671018,13.4323864 18.3250147,13.5918688 C17.8864647,13.7007964 17.3670122,13.7910309 16.7593037,13.8575953 C16.6016939,13.8748588 16.3854371,13.8933399 16.1105332,13.9130384 L16.1105336,13.9130441 C15.7594837,13.938199 15.4545095,13.6740088 15.4293546,13.3229589 C15.428955,13.3173822 15.4286288,13.3118005 15.4283761,13.3062153 L15.4283761,13.3062153 C15.412137,12.9472969 15.6846524,12.6407137 16.0429991,12.614757 C16.2856474,12.5972004 16.4772328,12.5807163 16.6177568,12.5653243 C17.1692918,12.5049127 17.6315292,12.4246171 18.011641,12.3302044 Z"/>
</svg>