<svg id="team" viewBox="0 0 640 512">
  <path d="M573.127 249.095C584.979 233.127 592 213.369 592 192c0-52.935-43.065-96-96-96-26.331 0-50.217 10.658-67.578 27.885a128.993 128.993 0 0 0-17.913-22.394C386.334 77.314 354.19 64 320 64s-66.334 13.314-90.51 37.49a129.115 129.115 0 0 0-17.913 22.394C194.217 106.658 170.331 96 144 96c-52.935 0-96 43.065-96 96 0 21.369 7.021 41.127 18.873 57.095C28.987 255.378 0 288.36 0 328v44c0 24.262 19.738 44 44 44h117.677c5.238 18.445 22.222 32 42.323 32h232c20.102 0 37.085-13.555 42.323-32H596c24.262 0 44-19.738 44-44v-44c0-39.64-28.986-72.622-66.873-78.905zM496 128c35.346 0 64 28.654 64 64s-28.654 64-64 64c-22.083 0-41.554-11.185-53.057-28.199C446.27 216.314 448 204.291 448 192s-1.73-24.314-5.057-35.801C454.446 139.185 473.917 128 496 128zM320 96c53.02 0 96 42.981 96 96s-42.98 96-96 96-96-42.981-96-96 42.98-96 96-96zm-176 32c22.083 0 41.554 11.185 53.057 28.199C193.73 167.686 192 179.709 192 192s1.73 24.314 5.057 35.801C185.554 244.815 166.083 256 144 256c-35.346 0-64-28.654-64-64s28.654-64 64-64zm16 224v32H44c-6.627 0-12-5.373-12-12v-44c0-26.51 21.49-48 48-48h25.655c24.374 10.662 52.272 10.681 76.689 0h22.81C178.452 292.976 160 320.372 160 352zm288 52c0 6.627-5.373 12-12 12H204c-6.627 0-12-5.373-12-12v-52c0-26.51 21.49-48 48-48h17.929c37.818 21.031 85.208 21.651 124.142 0H400c26.51 0 48 21.49 48 48v52zm160-32c0 6.627-5.373 12-12 12H480v-32c0-31.628-18.452-59.024-45.154-72h22.81c24.374 10.662 52.272 10.681 76.689 0H560c26.51 0 48 21.49 48 48v44z"/>
</svg>35 60.704 8.19 4.106 17.812 10.004 27.115 18.256 9.439 8.373 17.094 17.933 22.892 28.478A95.573 95.573 0 0 0 512 288c17.595 0 34.096-4.763 48.292-13.06l12.895 3.684C593.793 284.512 608 303.347 608 324.778v45.508c0 7.574-6.14 13.714-13.714 13.714H496v13.714c0 6.343-.914 12.473-2.585 18.286h100.871C619.493 416 640 395.493 640 370.286v-45.508c0-38.369-25.689-64.987-51.558-74.775zM512 256c-35.346 0-64-28.654-64-64s28.654-64 64-64 64 28.654 64 64-28.654 64-64 64z"/>
</svg>