<svg id="th-list" viewBox="0 0 20 20">
  <path d="M16.2258065,2 C17.7917419,2 19.0645161,3.27277419 19.0645161,4.83870968 L19.0645161,15.1612903 C19.0645161,16.7272258 17.7917419,18 16.2258065,18 L3.83870968,18 C2.27277419,18 1,16.7272258 1,15.1612903 L1,4.83870968 C1,3.27277419 2.27277419,2 3.83870968,2 L16.2258065,2 Z M16.2258065,16.4516129 C16.9370323,16.4516129 17.516129,15.8725161 17.516129,15.1612903 L17.516129,12.8387097 L7.70967742,12.8387097 L7.70967742,16.4516129 L16.2258065,16.4516129 Z M2.5483871,15.1612903 C2.5483871,15.8725161 3.12748387,16.4516129 3.83870968,16.4516129 L6.16129032,16.4516129 L6.16129032,12.8387097 L2.5483871,12.8387097 L2.5483871,15.1612903 Z M3.83870968,3.5483871 C3.12748387,3.5483871 2.5483871,4.12748387 2.5483871,4.83870968 L2.5483871,6.12903226 L6.16129032,6.12903226 L6.16129032,3.5483871 L3.83870968,3.5483871 Z M17.516129,4.83870968 C17.516129,4.12748387 16.9370323,3.5483871 16.2258065,3.5483871 L7.70967742,3.5483871 L7.70967742,6.12903226 L17.516129,6.12903226 L17.516129,4.83870968 Z M2.5483871,11.2903226 L6.16129032,11.2903226 L6.16129032,7.67741935 L2.5483871,7.67741935 L2.5483871,11.2903226 Z M7.70967742,11.2903226 L17.516129,11.2903226 L17.516129,7.67741935 L7.70967742,7.67741935 L7.70967742,11.2903226 Z"/>
</svg>