<svg id="trash" viewBox="0 0 20 20">
  <path d="M12.1492186,3.45454545 L15.0265167,3.45454545 C15.8400972,3.45454545 16.5,4.10133269 16.5,4.90822364 L16.5,7.19480519 L15.6612903,7.19480519 L15.6612903,16.5466994 C15.6612903,17.348586 14.9981972,18 14.191474,18 L5.80852599,18 C4.99741268,18 4.33870968,17.3496052 4.33870968,16.5466994 L4.33870968,7.40135259 C4.33870968,7.33124157 4.34377866,7.26228083 4.35356944,7.19480519 L3.5,7.19480519 L3.5,4.90822364 C3.5,4.10412026 4.16026768,3.45454545 4.9734833,3.45454545 L7.85078142,3.45454545 C8.18629427,2.60314663 9.02207188,2 10,2 C10.9779281,2 11.8137057,2.60314663 12.1492186,3.45454545 Z M10.6291345,3.45454545 C10.4538978,3.32407054 10.23606,3.24675325 10,3.24675325 C9.76393996,3.24675325 9.54610219,3.32407054 9.37086553,3.45454545 L10.6291345,3.45454545 Z M14.4032258,7.19480519 L5.80852599,7.19480519 C5.69416365,7.19480519 5.59677419,7.29047932 5.59677419,7.40135259 L5.59677419,16.5466994 C5.59677419,16.6600184 5.69119346,16.7532468 5.80852599,16.7532468 L14.191474,16.7532468 C14.3058363,16.7532468 14.4032258,16.6575726 14.4032258,16.5466994 L14.4032258,7.19480519 Z M5.80852599,5.94805195 L15.2419355,5.94805195 L15.2419355,4.90822364 C15.2419355,4.79299635 15.1483784,4.7012987 15.0265167,4.7012987 L4.9734833,4.7012987 C4.8530312,4.7012987 4.75806452,4.79472742 4.75806452,4.90822364 L4.75806452,5.94805195 L5.80852599,5.94805195 Z M7.69354839,9.27272727 L8.9516129,9.27272727 L8.9516129,14.6753247 L7.69354839,14.6753247 L7.69354839,9.27272727 Z M11.0483871,9.27272727 L12.3064516,9.27272727 L12.3064516,14.6753247 L11.0483871,14.6753247 L11.0483871,9.27272727 Z"/>
</svg>