<svg id="twitter" viewBox="0 0 20 20">
  <path d="M17.13 6.634c.01.16.01.319.01.478 0 4.864-3.701 10.468-10.467 10.468-2.085 0-4.021-.604-5.65-1.652.296.035.58.046.888.046 1.72 0 3.304-.581 4.568-1.572a3.686 3.686 0 0 1-3.44-2.551c.228.034.456.056.695.056.33 0 .66-.045.968-.125a3.68 3.68 0 0 1-2.95-3.61v-.046c.49.273 1.06.444 1.663.467a3.677 3.677 0 0 1-1.64-3.064c0-.684.182-1.31.5-1.857a10.458 10.458 0 0 0 7.587 3.85 4.153 4.153 0 0 1-.091-.843A3.676 3.676 0 0 1 13.45 3a3.67 3.67 0 0 1 2.688 1.162 7.243 7.243 0 0 0 2.335-.889 3.67 3.67 0 0 1-1.617 2.028 7.376 7.376 0 0 0 2.118-.57 7.91 7.91 0 0 1-1.845 1.903z"/>
</svg>