<svg id="upload" viewBox="0 0 20 20">
  <path d="M16.89 16.188a.705.705 0 0 1-.703.703.705.705 0 0 1-.703-.703c0-.387.317-.704.704-.704.386 0 .703.317.703.704zm-2.953-.704a.705.705 0 0 0-.703.704c0 .386.317.703.704.703a.705.705 0 0 0 .703-.703.705.705 0 0 0-.704-.704zM19 13.797v3.656c0 .854-.693 1.547-1.547 1.547H2.547A1.547 1.547 0 0 1 1 17.453v-3.656c0-.854.693-1.547 1.547-1.547h4.36V8.759H5.053c-1.252 0-1.878-1.515-.995-2.401L9.005 1.41a1.409 1.409 0 0 1 1.99 0l4.946 4.947c.886.886.257 2.401-.995 2.401h-1.852v3.491h4.36c.853 0 1.546.693 1.546 1.547zM8.031 7.634v6.585c0 .154.127.281.281.281h3.376a.282.282 0 0 0 .28-.281V7.634h2.978c.25 0 .377-.302.2-.482L10.2 2.206a.282.282 0 0 0-.397 0L4.857 7.152a.283.283 0 0 0 .2.482h2.974zm9.844 6.163a.423.423 0 0 0-.422-.422h-4.36v.844c0 .777-.629 1.406-1.405 1.406H8.312c-.776 0-1.406-.63-1.406-1.406v-.844h-4.36a.423.423 0 0 0-.421.422v3.656c0 .232.19.422.422.422h14.906c.232 0 .422-.19.422-.422v-3.656z"/>
</svg>