<svg id="user-plus" viewBox="0 0 20 20">
  <path d="M6.15502564,16.4968711 C7.03684992,16.7158997 8.29793983,16.85 10,16.85 C11.7020602,16.85 12.9631501,16.7158997 13.8449744,16.4968711 C13.9029573,16.4824692 13.9681807,16.4646497 14.0406448,16.4434124 L14.0406007,16.4432618 C14.1995152,16.3966882 14.2905856,16.2301072 14.2440121,16.0711926 C14.2433725,16.0690104 14.2427081,16.0668354 14.2420191,16.0646682 C14.1595168,15.805186 14.0722862,15.6173341 13.9803275,15.5011126 C13.7391191,15.1962627 13.3748798,14.9645383 12.8731134,14.7536137 C12.6690328,14.6678255 11.8331422,14.3606204 11.9922193,14.4208037 C11.0532148,14.0655522 10.6,13.7226248 10.6018335,13.020916 C10.6006359,13.004346 10.6006359,13.004346 10.5986387,12.9631755 C10.5874059,12.6923935 10.6072228,12.3823712 10.6868414,12.0703527 C10.766791,11.7570371 10.8994444,11.4824082 11.1242859,11.2465122 C11.6216676,10.7596911 11.85,10.26047 11.85,9.50412476 C11.85,8.27899634 11.0021199,7.31666667 10,7.31666667 C8.99788008,7.31666667 8.15,8.27899634 8.15,9.50412476 C8.15,10.2600014 8.3731062,10.7462004 8.87398657,11.2572034 C9.08511147,11.4736784 9.22272811,11.7438373 9.30655039,12.0502104 C9.39372955,12.3688529 9.41489999,12.6855324 9.40166617,12.9638097 C9.4,13.7226142 8.94679797,14.0655426 8.00782031,14.4207887 C8.16671898,14.3606714 7.33095029,14.6678327 7.12688659,14.7536137 C6.60356156,14.9736008 6.2298353,15.2162134 5.98926174,15.5408158 C5.9076998,15.6508662 5.82970339,15.8259974 5.75527252,16.0662096 L5.75530546,16.0662198 C5.70627283,16.2244638 5.79480611,16.3924947 5.95305007,16.4415273 C5.95449087,16.4419737 5.95593502,16.4424093 5.9573824,16.4428339 C6.03063595,16.4643263 6.09651703,16.4823387 6.15502564,16.4968711 Z M4.95,4.05 L6.8,4.05 C7.21421356,4.05 7.55,4.38578644 7.55,4.8 L7.55,4.8 C7.55,5.21421356 7.21421356,5.55 6.8,5.55 L4.95,5.55 L4.95,7.4 C4.95,7.81421356 4.61421356,8.15 4.2,8.15 L4.2,8.15 C3.78578644,8.15 3.45,7.81421356 3.45,7.4 L3.45,5.55 L1.6,5.55 C1.18578644,5.55 0.85,5.21421356 0.85,4.8 L0.85,4.8 C0.85,4.38578644 1.18578644,4.05 1.6,4.05 L3.45,4.05 L3.45,2.2 C3.45,1.78578644 3.78578644,1.45 4.2,1.45 L4.2,1.45 C4.61421356,1.45 4.95,1.78578644 4.95,2.2 L4.95,4.05 Z M8.05263419,12.3932762 C8.0225415,12.2832865 7.98288767,12.205441 7.94446002,12.1660366 C7.21879983,11.4257152 6.85,10.6220168 6.85,9.50412476 C6.85,7.59508351 8.24069617,6.01666667 10,6.01666667 C11.7593038,6.01666667 13.15,7.59508351 13.15,9.50412476 C13.15,10.6255735 12.7713184,11.4535148 12.0500386,12.1588904 C12.0147484,12.1960117 11.9759214,12.2763943 11.9464786,12.3917778 C11.9034412,12.560438 11.8910752,12.7538951 11.8975216,12.9092945 C11.8984041,12.9271588 11.8984041,12.9271588 11.9,12.9721291 C11.9,12.9572707 12.0023408,13.0347074 12.4522252,13.2049112 C12.26408,13.1337306 13.1406263,13.4558775 13.3768866,13.5551929 C14.8389784,14.1698039 15.65,15.1016639 15.65,16.7554066 L15.65,17.0809516 L15.3893023,17.2759291 C15.1912071,17.4240858 14.8004352,17.5990531 14.1583481,17.7585354 C13.1665567,18.0048778 11.801816,18.15 10,18.15 C8.198184,18.15 6.8334433,18.0048778 5.84165193,17.7585354 C5.19956482,17.5990531 4.80879292,17.4240858 4.61069773,17.2759291 L4.35,17.0809516 L4.35,16.7554066 C4.35,15.1016639 5.16102155,14.1698039 6.62311341,13.5551929 C6.85937367,13.4558775 7.73591997,13.1337306 7.54777484,13.2049112 C7.99141564,13.0370695 8.09709245,12.9594379 8.10222923,12.9181943 C8.11044186,12.7483829 8.09771859,12.5580611 8.05263419,12.3932762 Z M18.011641,12.3302044 C18.0725236,12.3150823 18.1413891,12.2961922 18.2182375,12.2735339 L18.21824,12.2735427 C18.3752854,12.2272389 18.4662034,12.0635727 18.4225393,11.9057731 C18.3806459,11.7543725 18.3385551,11.6394732 18.296267,11.5610753 C18.0686819,11.1391553 17.6589315,10.8472161 17.0397801,10.5869471 C16.8357164,10.501166 15.9999477,10.1940048 16.1588464,10.254122 C15.2198687,9.89887591 14.7666667,9.55594755 14.7650005,8.79714308 C14.7517667,8.51886572 14.7729371,8.20218625 14.8601163,7.88354372 C14.9439386,7.57717063 15.0815552,7.30701178 15.2926801,7.09053678 C15.7935605,6.57953371 16.0166667,6.09333475 16.0166667,5.33745809 C16.0166667,4.11232968 15.1687866,3.15 14.1666667,3.15 C13.5550463,3.15 13.00088,3.50846632 12.661864,4.06636363 C12.5713618,4.21529743 12.4923591,4.4374863 12.424856,4.73293026 L12.4248868,4.73293729 C12.3440764,5.08662371 12.0294674,5.33745809 11.6666667,5.33745809 L11.6666667,5.33745809 C11.3491851,5.33745809 11.0918154,5.08008842 11.0918154,4.76260684 C11.0918154,4.73213424 11.0942384,4.70170988 11.0990615,4.67162139 C11.1475197,4.36923052 11.205074,4.13216381 11.2717105,3.96041904 C11.7509698,2.72520613 12.8566248,1.85 14.1666667,1.85 C15.9259705,1.85 17.3166667,3.42841684 17.3166667,5.33745809 C17.3166667,6.45535016 16.9478668,7.25904853 16.2222066,7.99936996 C16.183779,8.03877433 16.1441252,8.1166198 16.1140325,8.22660952 C16.0689481,8.39139444 16.0562248,8.58171619 16.0644374,8.75152765 C16.0695742,8.79277127 16.175251,8.87040288 16.6188918,9.0382445 C16.4307467,8.96706398 17.307293,9.28921085 17.5435533,9.3885262 C19.0056451,10.0031372 19.8166667,10.9349972 19.8166667,12.5887399 L19.8166667,12.5887399 C19.8166667,12.7936389 19.7200529,12.986543 19.5559689,13.1092625 C19.3578738,13.2574192 18.9671018,13.4323864 18.3250147,13.5918688 C17.8864647,13.7007964 17.3670122,13.7910309 16.7593037,13.8575953 C16.6016939,13.8748588 16.3854371,13.8933399 16.1105332,13.9130384 L16.1105336,13.9130441 C15.7594837,13.938199 15.4545095,13.6740088 15.4293546,13.3229589 C15.428955,13.3173822 15.4286288,13.3118005 15.4283761,13.3062153 L15.4283761,13.3062153 C15.412137,12.9472969 15.6846524,12.6407137 16.0429991,12.614757 C16.2856474,12.5972004 16.4772328,12.5807163 16.6177568,12.5653243 C17.1692918,12.5049127 17.6315292,12.4246171 18.011641,12.3302044 Z"/>
</svg>