<svg id="user-rounded" viewBox="0 0 20 20">
  <path d="M16,15.5 C16,15.71 15.87,15.888 15.687,15.962 C15.478,14.704 14.686,13.927 13.413,13.396 C13.208,13.312 12.539,13.066 12.469,13.042 C12.23,12.951 12.08,12.882 11.996,12.825 C11.993,12.686 12.005,12.516 12.043,12.369 C12.068,12.271 12.099,12.208 12.12,12.186 C12.858,11.47 13.249,10.622 13.249,9.479 C13.249,7.53 11.815,5.917 10,5.917 C8.185,5.917 6.751,7.53 6.751,9.479 C6.751,10.618 7.132,11.441 7.876,12.194 C7.9,12.219 7.932,12.28 7.957,12.373 C7.997,12.517 8.01,12.686 8.005,12.825 C7.921,12.882 7.771,12.951 7.531,13.042 C7.462,13.066 6.792,13.312 6.588,13.396 C5.315,13.927 4.523,14.704 4.313,15.962 C4.13,15.889 4,15.71 4,15.5 L4,4.5 C4,4.224 4.225,4 4.5,4 L15.5,4 C15.776,4 16,4.224 16,4.5 L16,15.5 Z M8.05,14.449 C9.022,14.083 9.501,13.723 9.502,12.914 C9.516,12.627 9.494,12.303 9.403,11.974 C9.315,11.653 9.169,11.37 8.944,11.141 C8.462,10.653 8.251,10.198 8.251,9.479 C8.251,8.322 9.056,7.417 10,7.417 C10.945,7.417 11.749,8.322 11.749,9.479 C11.749,10.198 11.534,10.665 11.057,11.129 C10.814,11.38 10.675,11.668 10.59,11.996 C10.508,12.317 10.487,12.634 10.499,12.913 C10.501,12.956 10.501,12.956 10.502,12.974 C10.5,13.723 10.979,14.083 11.95,14.449 C12.029,14.477 12.663,14.709 12.836,14.781 C13.573,15.088 13.994,15.435 14.161,16 L5.839,16 C6.007,15.435 6.427,15.088 7.165,14.781 C7.338,14.709 7.97,14.478 8.05,14.449 Z M15.5,2.5 L4.5,2.5 C3.396,2.5 2.5,3.396 2.5,4.5 L2.5,15.5 C2.5,16.605 3.396,17.5 4.5,17.5 L15.5,17.5 C16.604,17.5 17.5,16.605 17.5,15.5 L17.5,4.5 C17.5,3.396 16.604,2.5 15.5,2.5 Z"/>
</svg>