<svg id="user-plus" viewBox="0 0 640 512">
  <path d="M640 252v8c0 6.627-5.373 12-12 12h-68v68c0 6.627-5.373 12-12 12h-8c-6.627 0-12-5.373-12-12v-68h-68c-6.627 0-12-5.373-12-12v-8c0-6.627 5.373-12 12-12h68v-68c0-6.627 5.373-12 12-12h8c6.627 0 12 5.373 12 12v68h68c6.627 0 12 5.373 12 12zm-264.942 32.165l-43.497-12.428C355.115 245.342 368 211.663 368 176c0-79.525-64.339-144-144-144-79.525 0-144 64.339-144 144 0 35.663 12.885 69.342 36.439 95.737l-43.497 12.428C17.501 300.005 0 350.424 0 380.866v39.705C0 453.34 26.66 480 59.429 480h329.143C421.34 480 448 453.34 448 420.571v-39.705c0-57.659-43.675-88.339-72.942-96.701zM224 64c61.856 0 112 50.144 112 112s-50.144 112-112 112-112-50.144-112-112S162.144 64 224 64zm192 356.571C416 435.72 403.72 448 388.571 448H59.429C44.28 448 32 435.72 32 420.571v-39.705c0-30.616 20.296-57.522 49.733-65.933l63.712-18.203C168.611 311.87 195.679 320 224 320s55.389-8.13 78.555-23.27l63.712 18.203C395.704 323.344 416 350.251 416 380.866v39.705z"/>
</svg>