<svg id="user" viewBox="0 0 20 20">
  <path d="M5.33350019,15.978169 C6.29166382,16.1688395 7.77799343,16.3448276 10,16.3448276 C12.1610093,16.3448276 13.6261667,16.1782616 14.5862685,15.9936563 C14.882162,15.9367628 15.1935383,15.8601063 15.5203974,15.7636866 L15.5203503,15.763527 C15.678916,15.7167519 15.7697014,15.5504558 15.7232958,15.3917816 C15.6077741,14.9967791 15.4892176,14.7180627 15.3676264,14.5556326 C14.8930034,13.921598 14.0809481,13.5768149 13.0522222,13.2055172 C12.0111111,12.8292414 10.8333333,12.4044138 10.8333333,11.1773793 C10.8166667,10.9897931 10.76,9.71089655 11.5,8.93737931 C12.2166667,8.24110345 12.5,7.5657931 12.5,6.58482759 C12.5,4.96937931 11.3777778,3.65517241 10,3.65517241 C8.62111111,3.65517241 7.5,4.96937931 7.5,6.58482759 C7.5,7.77765517 7.96777778,8.41544828 8.47333333,8.92855172 C9.26777778,9.73958621 9.17555556,11.0957241 9.16333333,11.248 C9.16666667,12.4044138 7.98777778,12.8292414 6.94777778,13.2055172 C5.87516785,13.59237 5.03887782,13.9504399 4.57391241,14.6368649 C4.47051019,14.7895168 4.375834,15.0459729 4.28988382,15.4062331 L4.28975397,15.4062021 C4.25308488,15.5599006 4.34186498,15.7157068 4.492785,15.762515 C4.78279882,15.8524633 5.06303722,15.924348 5.33350019,15.978169 Z M2.83333333,16.8491034 L2.83185658,16.8480035 C2.62303969,16.6924709 2.5,16.447409 2.5,16.1870345 C2.5,13.049931 4.92666667,12.1737931 6.37777778,11.6496552 C6.78777778,11.5017931 7.40777778,11.2777931 7.51555556,11.1277241 C7.52555556,10.8 7.46222222,10.2703448 7.28111111,10.0849655 C6.60777778,9.40303448 5.83333333,8.38675862 5.83333333,6.58482759 C5.83333333,4.05682759 7.70222222,2 10,2 C12.2966667,2 14.1666667,4.05682759 14.1666667,6.58482759 C14.1666667,8.00275862 13.6966667,9.11944828 12.6877778,10.0993103 C12.54,10.2537931 12.4766667,10.8055172 12.4977778,11.1188966 C12.5922222,11.2777931 13.2111111,11.5017931 13.6211111,11.6496552 C15.0722222,12.1737931 17.5,13.049931 17.5,16.1870345 L17.5,16.1870345 C17.5,16.4473539 17.3767702,16.6923076 17.16775,16.8474744 L17.1655556,16.8491034 C16.9066667,17.0422069 15.3455556,18 10,18 C4.65333333,18 3.09222222,17.0422069 2.83333333,16.8491034 Z"/>
</svg>