<svg id="user" viewBox="0 0 20 20">
  <path d="M5.95570017,15.2308979 C6.78610865,15.3977346 8.07426097,15.5517241 10,15.5517241 C11.8728748,15.5517241 13.1426778,15.4059789 13.974766,15.2444492 C14.2197732,15.1968871 14.4770289,15.1335399 14.7465332,15.0544076 L14.746492,15.0542675 C14.9053889,15.007612 14.9963784,14.8409789 14.9497229,14.6820821 C14.9496505,14.6818355 14.9495778,14.681589 14.9495047,14.6813425 C14.852764,14.3549749 14.7535767,14.1232536 14.6519429,13.9861785 C14.2406029,13.4313983 13.5368217,13.1297131 12.6452593,12.8048276 C11.742963,12.4755862 10.7222222,12.1038621 10.7222222,11.0302069 C10.7077778,10.866069 10.6586667,9.74703448 11.3,9.0702069 C11.9211111,8.46096552 12.1666667,7.87006897 12.1666667,7.01172414 C12.1666667,5.5982069 11.1940741,4.44827586 10,4.44827586 C8.80496296,4.44827586 7.83333333,5.5982069 7.83333333,7.01172414 C7.83333333,8.05544828 8.23874074,8.61351724 8.67688889,9.06248276 C9.36540741,9.77213793 9.28548148,10.9587586 9.27488889,11.092 C9.27777778,12.1038621 8.25607407,12.4755862 7.35474074,12.8048276 C6.42514547,13.1433237 5.70036078,13.4566349 5.29739075,14.0572568 C5.21110401,14.1858661 5.13182847,14.3986822 5.05956413,14.6957051 L5.05961152,14.6957166 C5.02210866,14.8498619 5.11111984,15.0065546 5.26272631,15.0532741 C5.50140633,15.1268264 5.73239762,15.1860343 5.95570017,15.2308979 Z M3.78888889,15.9929655 L3.78888889,15.9929655 C3.60699861,15.856186 3.5,15.641848 3.5,15.4142679 L3.5,15.4136552 C3.5,12.6686897 5.60311111,11.902069 6.86074074,11.4434483 C7.21607407,11.314069 7.75340741,11.118069 7.84681481,10.9867586 C7.85548148,10.7 7.80059259,10.2365517 7.64362963,10.0743448 C7.06007407,9.47765517 6.38888889,8.58841379 6.38888889,7.01172414 C6.38888889,4.79972414 8.00859259,3 10,3 C11.9904444,3 13.6111111,4.79972414 13.6111111,7.01172414 C13.6111111,8.25241379 13.2037778,9.22951724 12.3294074,10.0868966 C12.2013333,10.222069 12.1464444,10.7048276 12.1647407,10.9790345 C12.2465926,11.118069 12.782963,11.314069 13.1382963,11.4434483 C14.3959259,11.902069 16.5,12.6686897 16.5,15.4136552 L16.5,15.4136552 C16.5,15.6415731 16.3926529,15.8561798 16.2102741,15.9928711 L16.2101481,15.9929655 C15.9857778,16.161931 14.6328148,17 10,17 C5.36622222,17 4.01325926,16.161931 3.78888889,15.9929655 Z"/>
</svg>