<svg id="video" viewBox="0 0 20 20">
  <path d="M16.5377171,13.563598 L16.5435345,9.3186138 L13.1500431,10.4043391 L13.1500431,12.4740328 L16.5377171,13.563598 Z M11.6956896,14.5600461 L11.6956896,8.32024575 L3.45435345,8.32024575 L3.45435345,14.5600461 L11.6956896,14.5600461 Z M17.4277814,8.10713257 C17.7904002,8.36824422 17.9978879,8.79639052 17.9978879,9.28309494 L17.9978879,13.595277 C17.9978879,14.0819814 17.7894306,14.5091677 17.4277814,14.7702794 C17.1941152,14.938274 16.9148794,15.0237112 16.6201304,15.0237112 C16.4562733,15.0237112 16.2885378,14.9977921 16.121772,14.9440338 L13.1500431,13.9879044 L13.1500431,16 L2,16 L2,6.88029183 L13.1500431,6.88029183 L13.1500431,8.88950754 L16.1227415,7.9343381 C16.5910433,7.78362292 17.0661321,7.8469809 17.4277814,8.10713257 Z M4.42382545,5.43995392 L4.42382545,4 L10.7260237,4 L10.7260237,5.43995392 L4.42382545,5.43995392 Z"/>
</svg>