<?xml version="1.0" encoding="utf-8"?>
<!-- Generator: Adobe Illustrator 16.0.0, SVG Export Plug-In . SVG Version: 6.00 Build 0)  -->
<!DOCTYPE svg PUBLIC "-//W3C//DTD SVG 1.1//EN" "http://www.w3.org/Graphics/SVG/1.1/DTD/svg11.dtd">
<svg version="1.1" id="Layer_1" xmlns="http://www.w3.org/2000/svg" xmlns:xlink="http://www.w3.org/1999/xlink" x="0px" y="0px"
	 width="90.001px" height="87px" viewBox="0 0 90.001 87" enable-background="new 0 0 90.001 87" xml:space="preserve">
<rect fill="#13233E" width="90.001" height="87"/>
<g id="Core" transform="translate(-296.000000, -422.000000)">
	<g id="star" transform="translate(296.000000, 422.500000)">
		<path id="Shape" fill="#172944" d="M10,14.773l6.18,3.727l-1.635-7.029L20,6.744l-7.191-0.617L10-0.5L7.191,6.127L0,6.744
			l5.455,4.727L3.82,18.5L10,14.773z"/>
	</g>
</g>
<g id="Page-1_1_">
	<g id="Core_1_" transform="translate(-296.000000, -422.000000)">
		<g id="star_1_" transform="translate(296.000000, 422.500000)">
			<path id="Shape_1_" fill="#172944" d="M40,14.773l6.18,3.727l-1.635-7.029L50,6.744l-7.191-0.617L40-0.5l-2.809,6.627L30,6.744
				l5.455,4.727L33.82,18.5L40,14.773z"/>
		</g>
	</g>
</g>
<g id="Page-1_2_">
	<g id="Core_2_" transform="translate(-296.000000, -422.000000)">
		<g id="star_2_" transform="translate(296.000000, 422.500000)">
			<path id="Shape_2_" fill="#172944" d="M70,14.773l6.18,3.727l-1.635-7.029L80,6.744l-7.191-0.617L70-0.5l-2.809,6.627L60,6.744
				l5.455,4.727L63.82,18.5L70,14.773z"/>
		</g>
	</g>
</g>
<g id="Page-1_3_">
	<g id="Core_3_" transform="translate(-296.000000, -422.000000)">
		<g id="star_3_" transform="translate(296.000000, 422.500000)">
			<path id="Shape_3_" fill="#172944" d="M10,43.773l6.18,3.727l-1.635-7.029L20,35.744l-7.191-0.617L10,28.5l-2.809,6.627L0,35.744
				l5.455,4.727L3.82,47.5L10,43.773z"/>
		</g>
	</g>
</g>
<g id="Page-1_4_">
	<g id="Core_4_" transform="translate(-296.000000, -422.000000)">
		<g id="star_4_" transform="translate(296.000000, 422.500000)">
			<path id="Shape_4_" fill="#172944" d="M40,43.773l6.18,3.727l-1.635-7.029L50,35.744l-7.191-0.617L40,28.5l-2.809,6.627
				L30,35.744l5.455,4.727L33.82,47.5L40,43.773z"/>
		</g>
	</g>
</g>
<g id="Page-1_5_">
	<g id="Core_5_" transform="translate(-296.000000, -422.000000)">
		<g id="star_5_" transform="translate(296.000000, 422.500000)">
			<path id="Shape_5_" fill="#172944" d="M70.001,43.773l6.18,3.727l-1.635-7.029l5.455-4.727l-7.191-0.617L70.001,28.5l-2.81,6.627
				l-7.19,0.617l5.455,4.727L63.82,47.5L70.001,43.773z"/>
		</g>
	</g>
</g>
<g id="Page-1_6_">
	<g id="Core_6_" transform="translate(-296.000000, -422.000000)">
		<g id="star_6_" transform="translate(296.000000, 422.500000)">
			<path id="Shape_6_" fill="#172944" d="M10,72.773l6.18,3.727l-1.635-7.029L20,64.744l-7.191-0.617L10,57.5l-2.809,6.627L0,64.744
				l5.455,4.727L3.82,76.5L10,72.773z"/>
		</g>
	</g>
</g>
<g id="Page-1_7_">
	<g id="Core_7_" transform="translate(-296.000000, -422.000000)">
		<g id="star_7_" transform="translate(296.000000, 422.500000)">
			<path id="Shape_7_" fill="#172944" d="M40,72.772l6.18,3.727l-1.635-7.029L50,64.743l-7.191-0.617L40,57.499l-2.809,6.627
				L30,64.743l5.455,4.727l-1.635,7.029L40,72.772z"/>
		</g>
	</g>
</g>
<g id="Page-1_8_">
	<g id="Core_8_" transform="translate(-296.000000, -422.000000)">
		<g id="star_8_" transform="translate(296.000000, 422.500000)">
			<path id="Shape_8_" fill="#172944" d="M70.001,72.771l6.18,3.727l-1.635-7.029l5.455-4.727l-7.191-0.617l-2.809-6.627
				l-2.809,6.627l-7.191,0.617l5.455,4.727l-1.636,7.029L70.001,72.771z"/>
		</g>
	</g>
</g>
</svg>
