<svg height="88" viewBox="0 0 264 88" width="264" xmlns="http://www.w3.org/2000/svg"><g fill="none" fill-rule="evenodd"><g fill="#fff"><path d="m67.002 59.5v3.768c-6.307.84-9.184 5.75-10.002 9.732 2.22-2.83 5.564-5.098 10.002-5.098v3.598l5.998-5.915z"/><path d="m13 29v-5h2v3h3v2zm0-14h5v2h-3v3h-2zm18 0v5h-2v-3h-3v-2zm0 14h-5v-2h3v-3h2z"/><path d="m62 24v5h-2v-3h-3v-2zm0-4h-5v-2h3v-3h2zm8 0v-5h2v3h3v2zm0 4h5v2h-3v3h-2z"/><path d="m20.586 66-5.656-5.656 1.414-1.414 5.656 5.656 5.656-5.656 1.414 1.414-5.656 5.656 5.656 5.656-1.414 1.414-5.656-5.656-5.656 5.656-1.414-1.414z"/><path d="m111.785 65.03-1.785-1.53 3-3.5h-10v-2h10l-3-3.5 1.785-1.468 5.215 5.968z"/><path d="m152.215 65.03 1.785-1.53-3-3.5h10v-2h-10l3-3.5-1.785-1.468-5.215 5.968z"/><path d="m160.957 28.543-3.25-3.25-1.413 1.414 3.25 3.25z"/></g><path d="m152.5 27c3.038 0 5.5-2.462 5.5-5.5s-2.462-5.5-5.5-5.5-5.5 2.462-5.5 5.5 2.462 5.5 5.5 5.5z" stroke="#fff" stroke-width="1.5"/><path d="m150 21h5v1h-5z" fill="#fff"/><path d="m116.957 28.543-1.414 1.414-3.25-3.25 1.414-1.414z" fill="#fff"/><path d="m108.5 27c3.038 0 5.5-2.462 5.5-5.5s-2.462-5.5-5.5-5.5-5.5 2.462-5.5 5.5 2.462 5.5 5.5 5.5z" stroke="#fff" stroke-width="1.5"/><path d="m106 21h5v1h-5z" fill="#fff"/><path d="m109.043 19.008-.085 5-1-.017.085-5z" fill="#fff"/></g></svg>