<?xml version="1.0" encoding="UTF-8" standalone="no"?>
<svg
   xmlns:dc="http://purl.org/dc/elements/1.1/"
   xmlns:cc="http://creativecommons.org/ns#"
   xmlns:rdf="http://www.w3.org/1999/02/22-rdf-syntax-ns#"
   xmlns:svg="http://www.w3.org/2000/svg"
   xmlns="http://www.w3.org/2000/svg"
   xmlns:sodipodi="http://sodipodi.sourceforge.net/DTD/sodipodi-0.dtd"
   xmlns:inkscape="http://www.inkscape.org/namespaces/inkscape"
   height="11px"
   version="1.1"
   viewBox="0 0 24 11"
   width="24px"
   id="svg2"
   inkscape:version="0.91 r13725"
   sodipodi:docname="hangup.svg">
  <metadata
     id="metadata16">
    <rdf:RDF>
      <cc:Work
         rdf:about="">
        <dc:format>image/svg+xml</dc:format>
        <dc:type
           rdf:resource="http://purl.org/dc/dcmitype/StillImage" />
        <dc:title></dc:title>
      </cc:Work>
    </rdf:RDF>
  </metadata>
  <sodipodi:namedview
     pagecolor="#ffffff"
     bordercolor="#666666"
     borderopacity="1"
     objecttolerance="10"
     gridtolerance="10"
     guidetolerance="10"
     inkscape:pageopacity="0"
     inkscape:pageshadow="2"
     inkscape:window-width="1418"
     inkscape:window-height="818"
     id="namedview14"
     showgrid="false"
     inkscape:zoom="13.416667"
     inkscape:cx="12"
     inkscape:cy="5.5"
     inkscape:window-x="0"
     inkscape:window-y="0"
     inkscape:window-maximized="0"
     inkscape:current-layer="svg2" />
  <desc
     id="desc6" />
  <defs
     id="defs8" />
  <g
     fill="none"
     fill-rule="evenodd"
     id="Page-1"
     stroke="none"
     stroke-width="1">
    <g
       fill="#000000"
       id="Icons-Communication"
       transform="translate(-40.000000, -4.000000)">
      <g
         id="call-end"
         transform="translate(40.000000, 4.500000)">
        <path
           d="M12,2 C10.4,2 8.9,2.3 7.4,2.7 L7.4,5.8 C7.4,6.2 7.2,6.5 6.8,6.7 C5.8,7.2 4.9,7.8 4.1,8.6 C3.9,8.8 3.7,8.9 3.4,8.9 C3.1,8.9 2.9,8.8 2.7,8.6 L0.2,6.1 C0.1,5.9 0,5.7 0,5.4 C0,5.1 0.1,4.9 0.3,4.7 C3.3,1.8 7.5,-8.8817842e-16 12,-8.8817842e-16 C16.5,-8.8817842e-16 20.7,1.8 23.7,4.7 C23.9,4.9 24,5.1 24,5.4 C24,5.7 23.9,5.9 23.7,6.1 L21.2,8.6 C21,8.8 20.8,8.9 20.5,8.9 C20.2,8.9 20,8.8 19.8,8.6 C19,7.9 18.1,7.2 17.1,6.7 C16.8,6.5 16.5,6.2 16.5,5.8 L16.5,2.7 C15.1,2.3 13.6,2 12,2 L12,2 Z"
           id="Shape" />
      </g>
    </g>
  </g>
  <path
     style="fill:#ff0000"
     d="M 2.8173941,9.1310927 C 2.6575168,9.0129135 2.0017714,8.3840316 1.360182,7.7335769 -0.45723375,5.8910479 -0.44297639,5.722565 1.6695652,4.0775151 4.0641359,2.2128473 7.1734953,0.96434703 10.25669,0.62952914 14.690931,0.14799508 19.420655,1.6049736 22.874534,4.5164217 c 0.860909,0.7257035 1.080746,1.0108744 1.080746,1.4019404 0,0.3549918 -0.09071,0.4724936 -1.371747,1.7768242 -1.415629,1.4413742 -1.681987,1.6507764 -2.099781,1.6507764 -0.286934,0 -0.385793,-0.048966 -0.79455,-0.3935463 C 18.891821,8.2802256 18.345983,7.8844979 17.567621,7.4142873 17.154891,7.164956 16.754636,6.8687018 16.678166,6.7559447 16.554531,6.5736403 16.53651,6.3632783 16.515473,4.8567995 L 16.491815,3.1626673 16.180069,3.07861 C 13.375374,2.32237 11.030796,2.2942865 8.1354037,2.9822505 l -0.8012422,0.1903804 0,1.7349994 c 0,2.0352683 0.037729,1.9305905 -0.8759707,2.4303608 C 5.650897,7.7795602 5.1189016,8.1503476 4.3717754,8.7921687 3.7940387,9.2884753 3.6949892,9.3459627 3.4175998,9.3459627 c -0.2242038,0 -0.389644,-0.059226 -0.6002057,-0.21487 z"
     id="path3344"
     inkscape:connector-curvature="0" />
</svg>
