<?xml version="1.0" encoding="utf-8"?>
<!-- Generator: Adobe Illustrator 21.1.0, SVG Export Plug-In . SVG Version: 6.00 Build 0)  -->
<svg version="1.1" id="Layer_1" xmlns="http://www.w3.org/2000/svg" xmlns:xlink="http://www.w3.org/1999/xlink" x="0px" y="0px"
	 viewBox="0 0 1000 1000" style="enable-background:new 0 0 1000 1000;" xml:space="preserve">
<path d="M850.6,385.3c0,16-13,28.9-28.9,28.9H316.2c-16,0-28.9-13-28.9-28.9c0-16,13-28.9,28.9-28.9h505.5
	C837.7,356.3,850.6,369.3,850.6,385.3z M821.7,207H316.2c-16,0-28.9,13-28.9,28.9c0,16,13,28.9,28.9,28.9h505.5
	c16,0,28.9-13,28.9-28.9C850.6,219.9,837.7,207,821.7,207z M821.7,505.7H316.2c-16,0-28.9,13-28.9,28.9c0,16,13,28.9,28.9,28.9
	h505.5c16,0,28.9-13,28.9-28.9C850.6,518.7,837.7,505.7,821.7,505.7z M1000,155.5V615c0,54-43.9,97.9-97.9,97.9h-96.5l20.2,197.8
	c1.1,11.8-5.6,23.5-16.3,28.7c-3.7,1.8-8,2.8-12.3,2.8c-7.6,0-15-2.9-20.3-8L555,712.9h-72v29.2c0,40.9-33.4,74.2-74.5,74.2H238.2
	l-120,117.8c-5.3,5.2-12.8,8.2-20.6,8.2c-4.7,0-9.3-1.1-13.3-3.2c-10.9-5.7-17.2-18.7-15-30.8l16.4-92.1H74.5
	C33.4,816.3,0,783,0,742.1V522.4c0-40.9,33.4-74.2,74.5-74.2h63.3V155.5c0-54,43.9-97.9,97.9-97.9h666.4
	C956.1,57.6,1000,101.5,1000,155.5z M902.1,109.5c12.1,0,23,4.4,31.1,11.8C925.1,113.9,914.3,109.5,902.1,109.5z M22.9,477.7
	c12.6-14.4,31.2-23.5,51.6-23.5h0C54.1,454.2,35.6,463.3,22.9,477.7z M6,742.1V522.4c0-9.4,1.9-18.3,5.4-26.5
	C7.9,504.1,6,513,6,522.4L6,742.1c0,9.4,1.9,18.3,5.4,26.5C7.9,760.5,6,751.5,6,742.1z M74.5,810.4c-20.4,0-39-9.1-51.6-23.5
	C35.6,801.2,54.1,810.4,74.5,810.4L74.5,810.4z M100,936c-4.4,0.4-9,0-12.9-2.1c-4.3-2.3-7.7-6-9.8-10.4c2.1,4.4,5.5,8.1,9.8,10.4
	c3.2,1.7,6.9,2.5,10.5,2.5C98.4,936.4,99.2,936.1,100,936z M114,929.9c-3.1,3-7.2,4.7-11.5,5.6C106.8,934.6,110.9,933,114,929.9z
	 M217.7,766.1c-2.7,1.1-5.3,2.7-7.4,4.8C212.4,768.8,214.9,767.2,217.7,766.1z M226.4,764.4c-0.1,0-0.1,0-0.2,0
	c-1.9,0-3.8,0.6-5.7,1.1C222.5,765,224.4,764.4,226.4,764.4z M425.1,712.9H235.7c-54,0-97.9-43.9-97.9-97.9V506.1H74.5
	c-9.5,0-16.7,7-16.7,16.3v219.7c0,9.3,7.2,16.3,16.7,16.3h45.6c8.1,0,16,3.9,21.7,10.6c5.7,6.8,8.2,15.3,6.8,23.3l-6.5,37.3l64-63.1
	c5.3-5.2,12.7-8.1,20.3-8.1h182c9.5,0,16.7-7,16.7-16.3V712.9z M773.6,661L773.6,661C773.6,661,773.5,661,773.6,661
	c-2.1,0-3.9,0.8-5.8,1.3C769.7,661.8,771.6,661,773.6,661z M795.7,935.6c0.6,0,1,0.6,1.6,0.6c3.4,0,6.7-0.7,9.8-2.2
	c3.7-1.8,6.7-4.6,9-8c-2.2,3.4-5.3,6.2-9,8C803.5,935.7,799.5,935.8,795.7,935.6z M933.2,649.2c-8.1,7.4-19,11.8-31.1,11.8
	C914.3,661,925.1,656.6,933.2,649.2z M942.1,155.5c0-22.4-17.6-40-40-40H235.7c-22.4,0-40,17.6-40,40V615c0,22.4,17.6,40,40,40h331
	c7.6,0,14.9,3,20.4,8.2l173.1,172.4l-15.5-148.9c-0.7-7.7,2.1-15.7,7.7-21.9c5.6-6.2,13.3-9.8,21.2-9.8h128.5c22.4,0,40-17.6,40-40
	V155.5z M759.2,667c1.6-1.4,3.3-2.9,5.2-3.9C762.5,664.1,760.9,665.6,759.2,667z M752.7,675.5c1.1-2.4,2.3-4.8,4.1-6.7
	C755.1,670.8,753.8,673.1,752.7,675.5z M750.5,683.8c0.1-2.4,0.5-4.7,1.4-6.9C751.1,679.1,750.6,681.4,750.5,683.8z"/>
</svg>
