<svg width="185" height="185" viewBox="0 0 185 185" fill="none" xmlns="http://www.w3.org/2000/svg">
<path d="M150.479 73.2679C147.083 67.994 142.323 63.3253 136.339 59.3873C124.777 51.7907 109.586 47.606 93.5629 47.606C88.2094 47.606 82.9354 48.0715 77.8156 48.9932C74.639 45.935 70.9253 43.184 66.992 41.0102C52.3985 33.7347 39.5382 36.4438 33.0403 38.7805C30.9054 39.5486 30.2468 42.2484 31.8257 43.8775C36.4083 48.6068 43.99 57.9536 42.1261 66.4533C34.8808 73.8498 30.9521 82.7684 30.9521 92.0547C30.9521 101.518 34.8808 110.436 42.1261 117.833C43.99 126.333 36.4083 135.684 31.8257 140.413C30.2514 142.038 30.9054 144.738 33.0403 145.506C39.5382 147.842 52.3985 150.556 66.9966 143.281C70.9299 141.107 74.6437 138.356 77.8203 135.298C82.9401 136.219 88.2141 136.685 93.5675 136.685C109.595 136.685 124.786 132.505 136.344 124.908C142.328 120.97 147.088 116.306 150.484 111.028C154.268 105.153 156.183 98.8274 156.183 92.2362C156.178 85.4682 154.263 79.1469 150.479 73.2679ZM92.9089 125.723C85.9812 125.723 79.3758 124.829 73.3544 123.214L68.9539 127.445C66.5622 129.745 63.7594 131.825 60.8351 133.464C56.9625 135.358 53.1366 136.396 49.3528 136.708C49.5677 136.322 49.7639 135.931 49.9741 135.54C54.3839 127.44 55.5751 120.16 53.543 113.704C46.3304 108.039 42.0047 100.787 42.0047 92.8879C42.0047 74.7575 64.7964 60.0576 92.9089 60.0576C121.021 60.0576 143.818 74.7575 143.818 92.8879C143.818 111.023 121.026 125.723 92.9089 125.723Z" fill="#F5455C"/>
<path d="M68.5569 85.3376C64.4134 85.3376 61.0547 88.6705 61.0547 92.7807C61.0547 96.8909 64.4134 100.224 68.5569 100.224C72.7005 100.224 76.0592 96.8909 76.0592 92.7807C76.0592 88.6705 72.7005 85.3376 68.5569 85.3376Z" fill="#F5455C"/>
<path d="M92.7034 85.3376C88.5599 85.3376 85.2012 88.6705 85.2012 92.7807C85.2012 96.8909 88.5599 100.224 92.7034 100.224C96.847 100.224 100.206 96.8909 100.206 92.7807C100.206 88.6705 96.847 85.3376 92.7034 85.3376Z" fill="#F5455C"/>
<path d="M116.854 85.3376C112.71 85.3376 109.352 88.6705 109.352 92.7807C109.352 96.8909 112.71 100.224 116.854 100.224C120.997 100.224 124.356 96.8909 124.356 92.7807C124.356 88.6705 120.997 85.3376 116.854 85.3376Z" fill="#F5455C"/>
</svg>
