<svg viewBox="0 0 32 32" xmlns="http://www.w3.org/2000/svg">
  <path
    d="M25.293 5.29214C25.6835 4.90164 26.3165 4.90165 26.707 5.29214C27.0975 5.68265 27.0975 6.31567 26.707 6.7062L5.70703 27.7062C5.31651 28.0967 4.68349 28.0967 4.29297 27.7062C3.90247 27.3157 3.90245 26.6827 4.29297 26.2921L25.293 5.29214Z"
  />
  <path
    fill-rule="evenodd"
    clip-rule="evenodd"
    d="M26.9922 10.755C28.3255 9.97726 30 10.939 30 12.4826V19.5177C29.9999 21.0129 28.4285 21.9627 27.1182 21.3136L26.9922 21.2453L24 19.4992V23.0001C23.9999 24.0357 23.2127 24.8871 22.2041 24.9894L22 25.0001H11.2422L13.2422 23.0001H22V14.2423L24 12.5L26.9922 10.755ZM24 14.8156V17.1847L28 19.5177V12.4826L24 14.8156Z"
  />
  <path
    d="M18.7578 9.00014H4V23.0001H4.75781L3.0166 24.7404C2.46618 24.4287 2.07774 23.8644 2.01074 23.2042L2 23.0001V9.00014C2 7.89558 2.89543 7.00015 4 7.00015H20.7578L18.7578 9.00014Z"
  />
</svg>
