<svg id="add-reaction" viewBox="0 0 20 20">
  <path d="M16.5953757,3.40462428 L18.3063584,3.40462428 C18.6894461,3.40462428 19,3.71517821 19,4.0982659 L19,4.0982659 C19,4.48135358 18.6894461,4.79190751 18.3063584,4.79190751 L16.5953757,4.79190751 L16.5953757,6.50289017 C16.5953757,6.88597786 16.2848218,7.19653179 15.9017341,7.19653179 L15.9017341,7.19653179 C15.5186464,7.19653179 15.2080925,6.88597786 15.2080925,6.50289017 L15.2080925,4.79190751 L13.4971098,4.79190751 C13.1140221,4.79190751 12.8034682,4.48135358 12.8034682,4.0982659 L12.8034682,4.0982659 C12.8034682,3.71517821 13.1140221,3.40462428 13.4971098,3.40462428 L15.2080925,3.40462428 L15.2080925,1.69364162 C15.2080925,1.31055393 15.5186464,1 15.9017341,1 L15.9017341,1 C16.2848218,1 16.5953757,1.31055393 16.5953757,1.69364162 L16.5953757,3.40462428 Z M12.017341,8.90751445 C11.5065575,8.90751445 11.0924855,8.49344254 11.0924855,7.98265896 C11.0924855,7.47187538 11.5065575,7.05780347 12.017341,7.05780347 C12.5281246,7.05780347 12.9421965,7.47187538 12.9421965,7.98265896 C12.9421965,8.49344254 12.5281246,8.90751445 12.017341,8.90751445 Z M8.31791908,8.90751445 C7.80713549,8.90751445 7.39306358,8.49344254 7.39306358,7.98265896 C7.39306358,7.47187538 7.80713549,7.05780347 8.31791908,7.05780347 C8.82870266,7.05780347 9.24277457,7.47187538 9.24277457,7.98265896 C9.24277457,8.49344254 8.82870266,8.90751445 8.31791908,8.90751445 Z M10.1676301,2.66473988 L10.1676301,4.05202312 C9.61809223,4.08150564 9.2125803,4.12425249 8.95109428,4.18026366 C6.34285047,4.73895811 4.38728324,7.05729042 4.38728324,9.83236994 C4.38728324,13.0247673 6.97523266,15.6127168 10.1676301,15.6127168 C12.9433379,15.6127168 15.2620917,13.6562638 15.8201156,11.0471339 C15.8759626,10.786012 15.9185831,10.3810907 15.9479769,9.83236994 L17.3352601,9.83236994 C17.3079241,10.4226104 17.2681043,10.8593182 17.2158007,11.1424932 C16.6001927,14.4754291 13.678734,17 10.1676301,17 C6.20905728,17 3,13.7909427 3,9.83236994 C3,6.33988881 5.49786142,3.43081447 8.80454201,2.79418918 C9.09873901,2.73754831 9.55310169,2.69439855 10.1676301,2.66473988 Z M7.60608545,11.8421707 L7.60608545,11.8421707 C7.87462322,11.5736329 8.29676713,11.535532 8.60904766,11.7516475 C8.71317478,11.8236717 8.8046355,11.8792946 8.8834474,11.9184909 C9.71644214,12.3327715 10.7016538,12.3365544 11.5374284,11.9298396 C11.6220117,11.8886787 11.7206771,11.8291344 11.8334246,11.7512069 L11.8334275,11.7512111 C12.1462696,11.5349845 12.5689492,11.5732617 12.8378582,11.8421707 L12.8378582,11.8421707 C13.0797095,12.084022 13.0797095,12.4761405 12.8378582,12.7179919 C12.8163559,12.7394941 12.7932992,12.7593834 12.7688751,12.7774985 C12.5123387,12.9678207 12.2963037,13.1050136 12.1207954,13.1891112 C10.8663293,13.7902084 9.38556873,13.7614468 8.15275845,13.1028262 C8.02025806,13.0320388 7.86012034,12.926009 7.6723453,12.7847368 L7.67235924,12.7847182 C7.39618546,12.5769394 7.34074042,12.1846182 7.54851928,11.9084445 C7.56613295,11.8850329 7.58536899,11.8628871 7.60608545,11.8421707 Z"/>
</svg>