<svg id="at" viewBox="0 0 20 20">
  <path d="M13.0967742,5.87096774 L13.0967742,5.87096774 C13.5243495,5.87096774 13.8709677,6.217586 13.8709677,6.64516129 L13.8709677,10.5065287 C13.8709677,11.6078313 14.419907,12.3225806 15.1612903,12.3225806 C15.8989934,12.3225806 16.4516129,11.6008368 16.4516129,10.5065287 L16.4516129,10 C16.4516129,6.43687258 13.5631274,3.5483871 10,3.5483871 C6.43687258,3.5483871 3.5483871,6.43687258 3.5483871,10 C3.5483871,13.5631274 6.43687258,16.4516129 10,16.4516129 C10.4817307,16.4516129 10.9556963,16.3989217 11.4158431,16.2959548 C11.5128919,16.2742383 11.6279881,16.2431697 11.7611319,16.202749 L11.7611293,16.2027405 C12.1682997,16.079129 12.6028405,16.2844912 12.7658305,16.6775583 L12.7658305,16.6775583 C12.9200397,17.0494493 12.7435737,17.4759377 12.3716827,17.6301468 C12.3525522,17.6380795 12.3330923,17.6451934 12.313356,17.651469 C12.1068381,17.7171424 11.9325035,17.7662314 11.7903539,17.7987414 C11.2083359,17.9318507 10.6087006,18 10,18 C5.581722,18 2,14.418278 2,10 C2,5.581722 5.581722,2 10,2 C14.418278,2 18,5.581722 18,10 L18,10.5592861 C17.9784628,12.4073568 16.8420042,13.8709677 15.1612903,13.8709677 C14.1753389,13.8709677 13.3777659,13.3712917 12.8819488,12.5843831 C12.1732546,13.3741478 11.1446466,13.8709677 10,13.8709677 C7.86212355,13.8709677 6.12903226,12.1378765 6.12903226,10 C6.12903226,7.86212355 7.86212355,6.12903226 10,6.12903226 C10.8714368,6.12903226 11.6756177,6.41698954 12.3225806,6.90294231 L12.3225806,6.64516129 C12.3225806,6.217586 12.6691989,5.87096774 13.0967742,5.87096774 Z M10,12.3225806 C11.2827259,12.3225806 12.3225806,11.2827259 12.3225806,10 C12.3225806,8.71727413 11.2827259,7.67741935 10,7.67741935 C8.71727413,7.67741935 7.67741935,8.71727413 7.67741935,10 C7.67741935,11.2827259 8.71727413,12.3225806 10,12.3225806 Z"/>
</svg>