<svg id="bell" viewBox="0 0 20 20">
  <path d="M14.230914,11.532003 L14.230914,7.37413156 C14.230914,5.16259338 12.3382192,3.36626016 10,3.36626016 C7.66178075,3.36626016 5.76908601,5.16259338 5.76908601,7.37413156 L5.76908601,11.532003 L5.75179606,11.6019175 L4.22480908,14.5004065 L15.7765389,14.5004065 L14.230914,11.532003 Z M10,16.6922764 C10.4602829,16.6922764 10.8701366,16.4625414 11.0928591,16.1077236 L8.90714088,16.1077236 C9.12986336,16.4625414 9.53971713,16.6922764 10,16.6922764 Z M2.45998038,14.5187666 L4.13571429,11.6 L4.13571429,7.33333333 C4.13571429,4.30302287 6.76395308,1.85 10,1.85 C13.2360469,1.85 15.8642857,4.30302287 15.8642857,7.33333333 L15.8465077,11.5291668 L17.4424987,14.5494626 C17.7005284,15.0377648 17.5138556,15.6427865 17.0255533,15.9008162 C16.8815744,15.9768978 16.7211937,16.0166667 16.5583492,16.0166667 L12.9174942,16.0166667 C12.5875967,17.2589069 11.3904582,18.15 10,18.15 C8.60954177,18.15 7.41240327,17.2589069 7.08250582,16.0166667 L3.32721479,16.0166667 C2.77493004,16.0166667 2.32721479,15.5689514 2.32721479,15.0166667 C2.32721479,14.8419516 2.37298975,14.6702855 2.45998038,14.5187666 Z"/>
</svg>