<svg id="book" width="20px" height="20px" viewBox="0 0 20 20">
<path d="M6.57142857,6.34373726 L6.57142857,5.21873994 C6.57142857,5.14842761 6.60119029,5.08397482 6.66071429,5.02538103 C6.72023828,4.96678724 6.78571429,4.93749061 6.85714286,4.93749061 L14.2857143,4.93749061 C14.3571429,4.93749061 14.4226189,4.96678724 14.4821429,5.02538103 C14.5416668,5.08397482 14.5714286,5.14842761 14.5714286,5.21873994 L14.5714286,6.34373726 C14.5714286,6.41404959 14.5416668,6.47850238 14.4821429,6.53709617 C14.4226189,6.59568996 14.3571429,6.62498659 14.2857143,6.62498659 L6.85714286,6.62498659 C6.78571429,6.62498659 6.72023828,6.59568996 6.66071429,6.53709617 C6.60119029,6.47850238 6.57142857,6.41404959 6.57142857,6.34373726 Z M14.2857143,9.43747988 L6.85714286,9.43747988 C6.78571429,9.43747988 6.72023828,9.40818326 6.66071429,9.34958947 C6.60119029,9.29099568 6.57142857,9.22654289 6.57142857,9.15623055 L6.57142857,8.03123324 C6.57142857,7.9609209 6.60119029,7.89646811 6.66071429,7.83787432 C6.72023828,7.77928053 6.78571429,7.74998391 6.85714286,7.74998391 L14.2857143,7.74998391 C14.3571429,7.74998391 14.4226189,7.77928053 14.4821429,7.83787432 C14.5416668,7.89646811 14.5714286,7.9609209 14.5714286,8.03123324 L14.5714286,9.15623055 C14.5714286,9.22654289 14.5416668,9.29099568 14.4821429,9.34958947 C14.4226189,9.40818326 14.3571429,9.43747988 14.2857143,9.43747988 Z M17.5357143,15.0624665 C17.4642857,15.2734035 17.4285714,15.6484028 17.4285714,16.1874638 C17.4285714,16.7265248 17.4642857,17.1015241 17.5357143,17.3124611 C17.6785714,17.3358987 17.7916668,17.4003515 17.875,17.50582 C17.9583332,17.6112885 18,17.7343351 18,17.8749598 L18,18.4374584 C18,18.6015207 17.9464286,18.7362858 17.8392857,18.8417543 C17.7321429,18.9472228 17.5952383,18.9999571 17.4285714,18.9999571 L4.85714286,18.9999571 C4.07142857,18.9999571 3.39880971,18.7245673 2.83928571,18.1737872 C2.27976172,17.6230071 2,16.9608994 2,16.1874638 L2,3.81249329 C2,3.03905764 2.27976172,2.37695002 2.83928571,1.82616991 C3.39880971,1.27538979 4.07142857,1 4.85714286,1 L17.4285714,1 C17.5952383,1 17.7321429,1.05273425 17.8392857,1.15820275 C17.9464286,1.26367125 18,1.39843637 18,1.56249866 L18,14.4999678 C18,14.6405925 17.9583332,14.7636391 17.875,14.8691076 C17.7916668,14.9745761 17.6785714,15.0390288 17.5357143,15.0624665 Z M16.0714286,15.0624665 L4.85714286,15.0624665 C4.54761887,15.0624665 4.27976172,15.1737945 4.05357143,15.3964501 C3.82738113,15.6191056 3.71428571,15.8827768 3.71428571,16.1874638 C3.71428571,16.4921507 3.82738113,16.755822 4.05357143,16.9784775 C4.27976172,17.2011331 4.54761887,17.3124611 4.85714286,17.3124611 L16.0714286,17.3124611 C16.0238097,17.0077742 16,16.6327754 16,16.1874638 C16,15.7421522 16.0238097,15.3671534 16.0714286,15.0624665 Z M16.2857143,2.68749598 L4.85714286,2.68749598 C4.54761887,2.68749598 4.27976172,2.79882402 4.05357143,3.02147956 C3.82738113,3.2441351 3.71428571,3.50780634 3.71428571,3.81249329 L3.71428571,13.6210637 C4.07142857,13.4570014 4.45238113,13.3749705 4.85714286,13.3749705 L16.2857143,13.3749705 L16.2857143,2.68749598 Z"></path>
</svg>
