<svg id="card" viewBox="0 0 20 20">
  <path d="M3.2304,9.5 L16.7696,9.5 L16.7696,5.8066875 C16.7696,5.2281875 16.3088,4.75775 15.7432,4.75775 L4.256,4.75775 C3.6904,4.75775 3.2304,5.2281875 3.2304,5.8066875 L3.2304,9.5 Z M3.2304,11 L3.2304,14.1933125 C3.2304,14.7718125 3.6904,15.2414375 4.256,15.2414375 L15.7432,15.2414375 C16.3088,15.2414375 16.7696,14.7718125 16.7696,14.1933125 L16.7696,11 L3.2304,11 Z M15.7432,16.5 L4.256,16.5 C3.0112,16.5 2,15.4656875 2,14.1933125 L2,5.8066875 C2,4.5343125 3.0112,3.5 4.256,3.5 L15.7432,3.5 C16.988,3.5 18,4.5343125 18,5.8066875 L18,14.1933125 C18,15.4656875 16.988,16.5 15.7432,16.5 Z M14.45,14.3 C13.7596441,14.3 13.2,13.7403559 13.2,13.05 C13.2,12.3596441 13.7596441,11.8 14.45,11.8 C15.1403559,11.8 15.7,12.3596441 15.7,13.05 C15.7,13.7403559 15.1403559,14.3 14.45,14.3 Z"/>
</svg>
