<svg id="checkmark-circled" viewBox="0 0 20 20">
  <path d="M8.41274756,11.8558336 L13.2598877,7.11571988 C13.5555359,6.82659964 14.0290012,6.82993441 14.3205476,7.12319045 C14.6121493,7.42028697 14.6077287,7.89201411 14.3140497,8.18024003 L9.02524413,13.3708422 C8.68427798,13.7054772 8.13712493,13.7021137 7.80029854,13.3633122 L5.56150395,11.1113891 C5.26997473,10.8181503 5.26997473,10.3445269 5.56150395,10.0512882 C5.85652852,9.75796559 6.32848163,9.75934533 6.61872247,10.0512882 L8.41274756,11.8558336 Z M10,18 C5.58217143,18 2,14.4178286 2,10 C2,5.58125714 5.58217143,2 10,2 C14.4187429,2 18,5.58125714 18,10 C18,14.4178286 14.4187429,18 10,18 Z M10,16.6285714 C13.6608,16.6285714 16.6285714,13.6608 16.6285714,10 C16.6285714,6.3392 13.6608,3.37142857 10,3.37142857 C6.3392,3.37142857 3.37142857,6.3392 3.37142857,10 C3.37142857,13.6608 6.3392,16.6285714 10,16.6285714 Z"/>
</svg>