<svg id="circle-cross" viewBox="0 0 20 20">
  <path d="M10,18 C5.58217143,18 2,14.4178286 2,10 C2,5.58125714 5.58217143,2 10,2 C14.4187429,2 18,5.58125714 18,10 C18,14.4178286 14.4187429,18 10,18 Z M9.28950527,10.0368634 L7.18453113,7.93188926 C6.95680963,7.70416776 6.95680963,7.33495825 7.18453113,7.10723675 C7.41225263,6.87951525 7.78146213,6.87951525 8.00918363,7.10723675 L10.1141578,9.21221089 L12.2191319,7.10723675 C12.4468534,6.87951525 12.8160629,6.87951525 13.0437844,7.10723675 C13.2715059,7.33495825 13.2715059,7.70416776 13.0437844,7.93188926 L10.9388103,10.0368634 L13.0437844,12.1418375 C13.2715059,12.369559 13.2715059,12.7387685 13.0437844,12.96649 C12.8160629,13.1942115 12.4468534,13.1942115 12.2191319,12.96649 L10.1141578,10.8615159 L8.00918363,12.96649 C7.78146213,13.1942115 7.41225263,13.1942115 7.18453113,12.96649 C6.95680963,12.7387685 6.95680963,12.369559 7.18453113,12.1418375 L9.28950527,10.0368634 Z M10,16.6285714 C13.6608,16.6285714 16.6285714,13.6608 16.6285714,10 C16.6285714,6.3392 13.6608,3.37142857 10,3.37142857 C6.3392,3.37142857 3.37142857,6.3392 3.37142857,10 C3.37142857,13.6608 6.3392,16.6285714 10,16.6285714 Z"/>
</svg>