<svg id="clipboard" viewBox="0 0 20 20">
  <path d="M14.3902439,3.96319018 C15.2792978,3.96319018 16,4.6883139 16,5.58282209 L16,16.3803681 C16,17.2748763 15.2792978,18 14.3902439,18 L5.6097561,18 C4.72070223,18 4,17.2748763 4,16.3803681 L4,5.58282209 C4,4.6883139 4.72070223,3.96319018 5.6097561,3.96319018 L8.14897761,3.96319018 C8.14722516,3.93046164 8.14634146,3.89774204 8.14634146,3.86503067 C8.14634146,2.83651427 8.97776528,2 10,2 C11.0222347,2 11.8536585,2.83651427 11.8536585,3.86503067 C11.8536585,3.89772526 11.8527719,3.93044356 11.8510148,3.96319018 L14.3902439,3.96319018 Z M10,2.98159509 C9.51506199,2.98159509 9.12195122,3.37711758 9.12195122,3.86503067 C9.12195122,4.35294377 9.51506199,4.74846626 10,4.74846626 C10.484938,4.74846626 10.8780488,4.35294377 10.8780488,3.86503067 C10.8780488,3.37711758 10.484938,2.98159509 10,2.98159509 Z M6.92682927,5.2392638 L5.6097561,5.2392638 C5.42161484,5.2392638 5.26829268,5.39352659 5.26829268,5.58282209 L5.26829268,16.3803681 C5.26829268,16.5696636 5.42161484,16.7239264 5.6097561,16.7239264 L14.3902439,16.7239264 C14.5783852,16.7239264 14.7317073,16.5696636 14.7317073,16.3803681 L14.7317073,5.58282209 C14.7317073,5.39352659 14.5783852,5.2392638 14.3902439,5.2392638 L13.0731707,5.2392638 L13.0731707,6.02541126 C13.0731707,6.31001147 12.8438405,6.54074868 12.5609756,6.54074868 L7.43902439,6.54074868 C7.15615955,6.54074868 6.92682927,6.31001147 6.92682927,6.02541126 L6.92682927,5.2392638 Z"/>
</svg>