<svg id="computer" viewBox="0 0 20 20">
  <path d="M3.5483871,5.84914695 L3.5483871,11.0397419 C3.5483871,11.7524481 4.12872635,12.3333333 4.84475733,12.3333333 L15.1552427,12.3333333 C15.8725518,12.3333333 16.4516129,11.7538488 16.4516129,11.0397419 L16.4516129,5.84914695 C16.4516129,5.1364408 15.8712736,4.55555556 15.1552427,4.55555556 L4.84475733,4.55555556 C4.12744819,4.55555556 3.5483871,5.13504012 3.5483871,5.84914695 Z M2,5.84914695 C2,4.27457375 3.27364232,3 4.84475733,3 L15.1552427,3 C16.7251518,3 18,4.27604762 18,5.84914695 L18,11.0397419 C18,12.6143151 16.7263577,13.8888889 15.1552427,13.8888889 L4.84475733,13.8888889 C3.27484823,13.8888889 2,12.6128413 2,11.0397419 L2,5.84914695 Z M6.64516129,16.2222222 L6.64516129,16.2222222 C6.64516129,15.7926674 6.99338426,15.4444444 7.42293907,15.4444444 L12.5770609,15.4444444 C13.0066157,15.4444444 13.3548387,15.7926674 13.3548387,16.2222222 L13.3548387,16.2222222 C13.3548387,16.651777 13.0066157,17 12.5770609,17 L7.42293907,17 C6.99338426,17 6.64516129,16.651777 6.64516129,16.2222222 Z"/>
</svg>