<svg id="cross" viewBox="0 0 20 20">
  <path d="M10,8.74246426 L14.1136964,4.62876787 C14.4609553,4.28150896 15.0239732,4.28150896 15.3712321,4.62876787 L15.3712321,4.62876787 C15.718491,4.97602678 15.718491,5.5390447 15.3712321,5.88630361 L11.2575357,10 L15.3712321,14.1136964 C15.718491,14.4609553 15.718491,15.0239732 15.3712321,15.3712321 L15.3712321,15.3712321 C15.0239732,15.718491 14.4609553,15.718491 14.1136964,15.3712321 L10,11.2575357 L5.88630361,15.3712321 C5.5390447,15.718491 4.97602678,15.718491 4.62876787,15.3712321 L4.62876787,15.3712321 C4.28150896,15.0239732 4.28150896,14.4609553 4.62876787,14.1136964 L8.74246426,10 L4.62876787,5.88630361 C4.28150896,5.5390447 4.28150896,4.97602678 4.62876787,4.62876787 L4.62876787,4.62876787 C4.97602678,4.28150896 5.5390447,4.28150896 5.88630361,4.62876787 L10,8.74246426 Z"/>
</svg>