<svg id="discover" viewBox="0 0 20 20">
  <path d="M6.40211645,13.5 L4.36976532,13.5 C5.08834307,14.6534694 6.15151935,15.5700421 7.41528581,16.1057095 C6.99352323,15.3908207 6.64680853,14.5042677 6.40211645,13.5 Z M6.12601749,12 C6.043753,11.3607602 6,10.6905991 6,10 C6,9.4873059 6.02411418,8.98587614 6.07019789,8.5 L3.54187189,8.5 C3.43036499,8.98199332 3.37142857,9.4841153 3.37142857,10 C3.37142857,10.697025 3.47901938,11.3689256 3.67849919,12 L6.12601749,12 Z M6.29075852,7 C6.53582402,5.7891713 6.92480779,4.72565214 7.41528581,3.89429054 C5.97389689,4.50524604 4.79344659,5.61170376 4.08759864,7 L6.29075852,7 Z M13.7092415,7 L15.9124014,7 C15.2065534,5.61170376 14.0261031,4.50524604 12.5847142,3.89429054 C13.0751922,4.72565214 13.464176,5.7891713 13.7092415,7 Z M13.9298021,8.5 C13.9758858,8.98587614 14,9.4873059 14,10 C14,10.6905991 13.956247,11.3607602 13.8739825,12 L16.3215008,12 C16.5209806,11.3689256 16.6285714,10.697025 16.6285714,10 C16.6285714,9.4841153 16.569635,8.98199332 16.4581281,8.5 L13.9298021,8.5 Z M13.5978835,13.5 C13.3531915,14.5042677 13.0064768,15.3908207 12.5847142,16.1057095 C13.8484806,15.5700421 14.9116569,14.6534694 15.6302347,13.5 L13.5978835,13.5 Z M7.87449573,13.5 C8.31545266,15.3608884 9.10249541,16.6 10,16.6 C10.8975046,16.6 11.6845473,15.3608884 12.1255043,13.5 L7.87449573,13.5 Z M7.61266,12 L12.38734,12 C12.4605549,11.3840508 12.5,10.7290943 12.5,10.05 C12.5,9.51599804 12.4756096,8.99692139 12.4295883,8.5 L7.57041167,8.5 C7.5243904,8.99692139 7.5,9.51599804 7.5,10.05 C7.5,10.7290943 7.53944513,11.3840508 7.61266,12 Z M7.7870057,7 L12.2129943,7 C11.7942682,4.91878844 10.9603738,3.5 10,3.5 C9.03962624,3.5 8.20573179,4.91878844 7.7870057,7 Z M10,18 C5.58217143,18 2,14.4178286 2,10 C2,5.58125714 5.58217143,2 10,2 C14.4187429,2 18,5.58125714 18,10 C18,14.4178286 14.4187429,18 10,18 Z"/>
</svg>