<svg id="discussion" viewBox="0 0 20 20">
    <path d="M3.36312881,15.7593532 C3.32888874,15.7771726 3.29959994,15.7925621 3.27370934,15.8064174 C3.73031444,16.1917386 4.92393678,16.4549204 7.10274479,16.4476544 L7.21881505,16.4476539 C8.55574002,16.4476543 9.6998097,16.021859 10.6510241,15.170268 L12.188241,15.2712054 C11.5513943,15.8887667 11.2142468,16.2130071 11.1767984,16.2439265 C10.1491488,17.09241 8.76567843,17.5637907 7.21881505,17.5637907 L7.10806092,17.5644215 L6.97721254,17.5644231 C4.30241208,17.5644231 2.62246666,17.1951018 2.10341288,16.0930165 C1.82161029,15.4951149 2.13151102,15.1455492 2.84114675,14.7722012 C3.31318797,14.5227311 3.32172914,14.5103228 3.24657386,14.3473099 C3.20302404,14.2436958 3.16526615,14.1604157 3.07972552,13.9763174 C2.74839464,13.2684751 2.62592155,12.9023078 2.62592155,12.4061039 C2.62592155,11.562445 2.83045155,10.7486059 3.21214892,10.0211892 C3.42204019,9.66099218 3.78721597,9.06536542 4.270822,8.82818513 C4.270822,8.80275057 4.53792399,10.0211892 4.53792399,10 C4.45304843,10.1183326 4.36401443,10.2496015 4.270822,10.3938065 C3.78721597,11.0991197 3.7445882,11.6631394 3.7445882,12.4061039 C3.7445882,12.6985231 3.82924269,12.9394008 4.09330148,13.5047226 C4.19543836,13.7251753 4.22995648,13.801243 4.270822,13.8994264 C4.58782821,14.5810467 4.36137367,15.1036933 3.78721597,15.5080098 C3.65916127,15.5981847 3.55361796,15.6588423 3.36312881,15.7593532 Z M16.5696621,12.3226926 C16.5350205,12.3039671 16.4951623,12.2829692 16.4468239,12.2578135 C16.2265134,12.1415693 16.1048536,12.0716493 15.9574055,11.9678178 C15.2986909,11.5039571 15.0399564,10.9068098 15.4049351,10.1218159 C15.4504792,10.0121781 15.4903754,9.92425877 15.608285,9.66976084 C15.914896,9.01333804 16.0132801,8.73339397 16.0132801,8.39198996 C16.0132801,5.80517045 13.90418,3.70028722 11.3120655,3.70028722 C8.71995111,3.70028722 6.61085101,5.80517045 6.61085101,8.39198996 C6.61085101,11.1096858 8.86296092,13.082961 11.9786225,13.082961 L12.112848,13.0829616 C14.6633683,13.0914671 16.0501708,12.7797435 16.5696621,12.3226926 Z M16.5612822,10.6280948 C16.4685253,10.8294269 16.4833349,10.8509584 17.0358533,11.1429611 C17.8499187,11.5712649 18.2032866,11.969896 17.8824254,12.6506683 C17.2857779,13.9175051 15.3458564,14.3439799 12.2581228,14.3439799 L12.1073975,14.3439799 L11.9780624,14.3432467 C8.14202747,14.3432482 5.34836876,11.8401459 5.34836876,8.39198996 C5.34836876,5.10955211 8.0234498,2.44 11.3120655,2.44 C14.6008168,2.44 17.276494,5.10968724 17.276494,8.39198996 C17.276494,8.96303774 17.1353362,9.38506819 16.7528285,10.2022436 C16.6539056,10.4151439 16.6101724,10.5116034 16.5612822,10.6280948 Z"></path>
</svg>
