<svg id="edit" viewBox="0 0 20 20">
  <path d="M15.1213389,7.00412324 L12.9966071,4.88036516 L14.058973,3.81702548 C14.5195588,3.35838722 15.3199848,3.35643971 15.7786231,3.81605173 L16.1846786,4.22210727 C16.6579232,4.6963256 16.6579232,5.46753899 16.1846786,5.94175732 L15.1213389,7.00412324 Z M7.24366679,14.8817954 L5.08862298,15.5366315 C4.82440906,15.6169161 4.54513783,15.467812 4.46485323,15.203598 C4.43606986,15.1088729 4.43605509,15.0077351 4.46481077,14.9130016 L5.11893496,12.7580373 L11.9634538,5.91254469 L14.0891594,8.03727653 L7.24366679,14.8817954 Z M16.8117763,2.78289844 C16.3063979,2.27849372 15.6354812,2 14.9197718,2 C14.2050361,2 13.5321719,2.27849372 13.0267935,2.78387219 L3.82773678,11.9839026 L2.54424548,16.2097824 C2.38374422,16.7382308 2.68202437,17.2967349 3.21047284,17.4572362 C3.39999018,17.5147967 3.60233225,17.5147817 3.79184106,17.4571931 L8.01780145,16.1729935 L17.2178319,6.97491061 C18.2607227,5.93007227 18.2607227,4.23281856 17.2178319,3.18895397 L16.8117763,2.78289844 Z"/>
</svg>