<svg   xmlns="http://www.w3.org/2000/svg" xmlns:xlink="http://www.w3.org/1999/xlink"  id="eraser" viewBox="0 0 20 20">
  <path d="M10.507766,16.2409748 L17.1750714,16.2409748 C17.6306669,16.2409748 18,16.6221045 18,17.0922519 C18,17.5623993 17.6306669,17.9435291 17.1750714,17.9435291 L8.10085694,18 C7.54625212,18 7.05723068,17.7716825 6.63379263,17.3150476 L2.43394192,13.1151969 C1.66077075,12.3420258 1.65683485,11.0924035 2.42515084,10.3240875 L10.0765262,2.67271216 C10.8448422,1.90439617 12.0944644,1.90833207 12.8676356,2.68150324 L17.0674863,6.88135395 C17.8406575,7.65452511 17.8445934,8.90414735 17.0762774,9.67246334 L10.507766,16.2409748 Z M7.648591,7.20057274 L12.5484168,12.1003986 L16.0263147,8.62250066 C16.2183937,8.43042167 16.2174097,8.11801611 16.024117,7.92472332 L11.8242662,3.72487261 C11.6309735,3.53157981 11.3185679,3.53059584 11.1264889,3.72267484 L7.648591,7.20057274 Z M6.60522163,8.2439421 L3.47511352,11.3740502 C3.28303452,11.5661292 3.2840185,11.8785348 3.47731129,12.0718276 L7.677162,16.2716783 C7.87045479,16.4649711 8.18286035,16.465955 8.37493935,16.273876 L11.5050475,13.1437679 L6.60522163,8.2439421 Z"></path>
</svg>
