<svg id="eye-off" viewBox="0 0 20 20">
  <path d="M6.35238084,15.3065498 L7.72916775,14.1265903 C8.45286533,14.3275492 9.21420137,14.4347826 9.99999958,14.4347826 C12.7803251,14.4347826 15.2544325,13.0923291 16.8386179,11.0057537 C16.9278243,10.8882574 17.0351425,10.7331722 17.1605724,10.5404979 C17.3750154,10.2110898 17.3765995,9.78660712 17.1646122,9.4556134 C17.043769,9.26691964 16.9398374,9.11467807 16.8528173,8.99888869 C16.4425132,8.45293561 15.9663177,7.95674277 15.434908,7.52247384 L16.612292,6.51341035 C17.4770696,7.27561203 18.216165,8.18516965 18.7922972,9.2053587 C19.0692343,9.69571101 19.0692343,10.304289 18.7922972,10.7946413 C17.0311127,13.9132391 13.7456183,16 9.99999958,16 C8.71593561,16 7.48572405,15.7547236 6.35238084,15.3065498 Z M3.29638938,13.4051322 C2.47083844,12.6598918 1.76345645,11.7787513 1.20770194,10.7946739 C0.930766021,10.3043096 0.930766021,9.69572301 1.20770194,9.2053587 C2.96888646,6.08676087 6.25438091,4 9.99999958,4 C11.2359223,4 12.4219583,4.22722969 13.5197473,4.64390126 L12.1073062,5.85433742 C11.4353766,5.68684143 10.729725,5.59759783 9.99999958,5.59759783 C7.14559137,5.59759783 4.71436027,6.98525595 3.13837526,9.04835832 C3.05887081,9.15243661 2.96392758,9.28696306 2.85354559,9.4519377 C2.63092196,9.78466633 2.62818895,10.2181002 2.84659901,10.5536097 L2.84661092,10.553602 C2.95184204,10.7152523 3.04261244,10.8471696 3.11892214,10.9493539 C3.51665242,11.4819443 3.97196332,11.9670134 4.4753327,12.3947993 L3.29638938,13.4051322 Z M9.17703173,12.8857151 L12.9772581,9.62877454 C12.9922695,9.75041115 13,9.8743028 13,10 C13,11.6568542 11.6568542,13 10,13 C9.7146166,13 9.43854032,12.9601515 9.17703173,12.8857151 Z M7.00824668,10.2241383 C7.00278123,10.1501398 7,10.0753947 7,10 C7,8.34314575 8.34314575,7 10,7 C10.2339211,7 10.461589,7.02677276 10.6801068,7.07742125 L7.00824668,10.2241383 Z M2.37325,16.4565 C2.1158086,16.1565656 2.15025599,15.7047232 2.4501904,15.4472818 L2.45061108,15.446921 L16.4311361,3.46586714 C16.7313873,3.20855741 17.1833669,3.24331175 17.44075,3.5435 C17.6980602,3.84360324 17.6633696,4.29547615 17.3632664,4.55278638 L17.3631514,4.55288497 L3.3835958,16.5339032 C3.08317284,16.7913772 2.63094678,16.7567319 2.37325,16.4565 Z"/>
</svg>