<svg id="files-audio" viewBox="0 0 20 20">
  <path d="M16.9948918,2.94434783 C16.9897835,2.88 16.9778643,2.81565217 16.959134,2.75478261 C16.9574313,2.74086957 16.952323,2.72521739 16.945512,2.71130435 C16.9472148,2.70956522 16.9472148,2.70956522 16.945512,2.70782609 C16.9404038,2.69043478 16.9335928,2.67130435 16.9267818,2.65391304 C16.9250791,2.65043478 16.9233763,2.64695652 16.9216736,2.64347826 C16.9114571,2.61565217 16.8978351,2.58782609 16.8842131,2.56 C16.8671856,2.52869565 16.8501581,2.4973913 16.8297251,2.46608696 C16.8144004,2.44173913 16.7973729,2.41913043 16.7803454,2.39652174 C16.7718317,2.38608696 16.7633179,2.37565217 16.7548042,2.36521739 C16.7462904,2.35304348 16.7360739,2.34086957 16.7241547,2.33043478 C16.7105327,2.31652174 16.6969107,2.3026087 16.6832887,2.28869565 C16.667964,2.27304348 16.6526393,2.25913043 16.6356118,2.24521739 C16.620287,2.23130435 16.6032595,2.21913043 16.5862321,2.20695652 C16.5777183,2.19826087 16.5692046,2.19130435 16.5606908,2.18782609 C16.5521771,2.18086957 16.5419606,2.17391304 16.5334468,2.16869565 C16.5334468,2.16869565 16.5317441,2.16521739 16.5300414,2.16695652 C16.5164194,2.15652174 16.5027974,2.14608696 16.4874726,2.13913043 C16.4857699,2.1373913 16.4823644,2.13565217 16.4806616,2.13565217 C16.4619314,2.12521739 16.4432012,2.11478261 16.4244709,2.10608696 C16.3887132,2.08695652 16.34955,2.07130435 16.3103868,2.0573913 C16.2967648,2.05217391 16.2831428,2.04869565 16.2695208,2.04347826 C16.2167356,2.02608696 16.1605449,2.01565217 16.1043542,2.00869565 C16.0924349,2.00695652 16.0788129,2.00521739 16.065191,2.00521739 C16.037947,2.00173913 16.0072975,2 15.9783508,2 C15.942593,2 15.9085381,2.00173913 15.8744831,2.00521739 C15.8455364,2.00869565 15.8182924,2.01217391 15.7910484,2.0173913 C15.7706154,2.02086957 15.7501824,2.02608696 15.7297495,2.03130435 L7.90902457,4.03304348 C7.89029433,4.03826087 7.8715641,4.04173913 7.85283386,4.04869565 C7.83069813,4.05391304 7.80856239,4.06086957 7.78812941,4.06782609 C7.78131841,4.06956522 7.77621017,4.07130435 7.77280467,4.07304348 C7.74896619,4.08173913 7.72512771,4.09217391 7.70128922,4.1026087 C7.59401605,4.15130435 7.49695938,4.2173913 7.41352469,4.29913043 C7.39479445,4.31652174 7.37606422,4.33565217 7.36073948,4.35478261 C7.34541474,4.37217391 7.33009,4.38956522 7.31646801,4.40695652 C7.30284602,4.4226087 7.28922403,4.44 7.27900754,4.45913043 C7.23984432,4.51478261 7.20578935,4.57391304 7.18024811,4.63826087 C7.16832887,4.66434783 7.15811238,4.69043478 7.14959864,4.71826087 C7.13938215,4.74434783 7.13257115,4.77217391 7.12576016,4.8 C7.11894916,4.8226087 7.11384091,4.84521739 7.11043542,4.86782609 C7.10702992,4.88695652 7.10362442,4.90782609 7.10192167,4.92695652 C7.09681343,4.96869565 7.09340793,5.01217391 7.09340793,5.05565217 L7.09340793,11.9113043 C6.77329117,11.7930435 6.42763318,11.7304348 6.0683532,11.7304348 C4.37582097,11.7304348 3,13.1373913 3,14.866087 C3,16.5947826 4.37582097,18 6.0683532,18 C7.72512771,18 9.07540744,16.6521739 9.13159815,14.9721739 C9.13500365,14.9373913 9.1367064,14.9026087 9.1367064,14.866087 L9.1367064,5.86956522 L14.9567015,4.38086957 L14.9567015,9.89913043 C14.6365848,9.78086957 14.2909268,9.71826087 13.9316468,9.71826087 C12.2391146,9.71826087 10.8632936,11.1252174 10.8632936,12.8521739 C10.8632936,14.5808696 12.2391146,15.9878261 13.9316468,15.9878261 C15.5887619,15.9878261 16.938701,14.6382609 16.9947215,12.9594783 C16.9982973,12.9241739 17,12.8885217 17,12.8521739 L17,3.04347826 C17,3.01043478 16.9982973,2.97565217 16.9948918,2.94434783 Z"/>
</svg>