<svg id="files-zip" viewBox="0 0 20 20">
  <path d="M9.98571429,13.4285714 L11.2714286,13.4285714 C11.8237133,13.4285714 12.2714286,13.8762867 12.2714286,14.4285714 L12.2714286,17 C12.2714286,17.5522847 11.8237133,18 11.2714286,18 L8.7,18 C8.14771525,18 7.7,17.5522847 7.7,17 L7.7,13.4285714 L7.7,11.6428571 C7.7,11.3667148 7.92385763,11.1428571 8.2,11.1428571 L9.98571429,11.1428571 L9.98571429,13.4285714 Z M8.2,4.28571429 C7.92385763,4.28571429 7.7,4.06185666 7.7,3.78571429 L7.7,2.5 C7.7,2.22385763 7.92385763,2 8.2,2 L9.48571429,2 C9.76185666,2 9.98571429,2.22385763 9.98571429,2.5 L9.98571429,4.28571429 L8.2,4.28571429 Z M9.98571429,6.57142857 L9.98571429,4.28571429 L11.7714286,4.28571429 C12.0475709,4.28571429 12.2714286,4.50957191 12.2714286,4.78571429 L12.2714286,6.07142857 C12.2714286,6.34757095 12.0475709,6.57142857 11.7714286,6.57142857 L9.98571429,6.57142857 Z M8.2,8.85714286 C7.92385763,8.85714286 7.7,8.63328523 7.7,8.35714286 L7.7,7.07142857 C7.7,6.7952862 7.92385763,6.57142857 8.2,6.57142857 L9.98571429,6.57142857 L9.98571429,8.85714286 L8.2,8.85714286 Z M9.98571429,11.1428571 L9.98571429,8.85714286 L11.7714286,8.85714286 C12.0475709,8.85714286 12.2714286,9.08100048 12.2714286,9.35714286 L12.2714286,10.6428571 C12.2714286,10.9189995 12.0475709,11.1428571 11.7714286,11.1428571 L9.98571429,11.1428571 Z M9.34285714,16.8571429 L10.6285714,16.8571429 C10.9047138,16.8571429 11.1285714,16.6332852 11.1285714,16.3571429 L11.1285714,15.0714286 C11.1285714,14.7952862 10.9047138,14.5714286 10.6285714,14.5714286 L9.34285714,14.5714286 C9.06671477,14.5714286 8.84285714,14.7952862 8.84285714,15.0714286 L8.84285714,16.3571429 C8.84285714,16.6332852 9.06671477,16.8571429 9.34285714,16.8571429 Z"/>
</svg>