<svg id="folder" viewBox="0 0 20 20">
  <path d="M7.325376,4.5 L4,4.5 C3.72385763,4.5 3.5,4.72385763 3.5,5 L3.5,15 C3.5,15.2761424 3.72385763,15.5 4,15.5 L16,15.5 C16.2761424,15.5 16.5,15.2761424 16.5,15 L16.5,7 C16.5,6.72385763 16.2761424,6.5 16,6.5 L9.316214,6.5 L7.700244,4.66913179 C7.60533058,4.56159644 7.46880685,4.5 7.325376,4.5 Z M9.992979,5 L17,5 C17.5522847,5 18,5.44771525 18,6 L18,16 C18,16.5522847 17.5522847,17 17,17 L3,17 C2.44771525,17 2,16.5522847 2,16 L2,4 C2,3.44771525 2.44771525,3 3,3 L7.776552,3 C8.0634137,3 8.33646216,3.12319287 8.526289,3.33826358 L9.992979,5 Z"/>
</svg>