<svg id="github" viewBox="0 0 20 20">
  <path d="M7.26894971,14.8834111 C7.26894971,14.9490684 7.19284523,15.001959 7.09565157,15.001959 C6.98562101,15.0119899 6.90951653,14.9590994 6.90951653,14.8834111 C6.90951653,14.816842 6.98653793,14.7648633 7.08281467,14.7648633 C7.1827591,14.7539205 7.26894971,14.806811 7.26894971,14.8834111 Z M6.23466241,14.7347704 C6.21082245,14.8004277 6.27775771,14.8770278 6.37770214,14.8961778 C6.46389275,14.9299184 6.56383718,14.8961778 6.58400945,14.8305206 C6.6032648,14.7639514 6.53999722,14.6882632 6.44096971,14.6581703 C6.35386218,14.6353727 6.25758544,14.6682013 6.23466241,14.7347704 Z M7.70448736,14.6782322 C7.60821061,14.7010299 7.54219228,14.7639514 7.55136149,14.8405516 C7.56144762,14.9062088 7.64855515,14.9499803 7.74758266,14.9262707 C7.84477633,14.9034731 7.91079467,14.8405516 7.90070853,14.7739824 C7.89153932,14.7110609 7.80168102,14.6682013 7.70448736,14.6782322 Z M9.89409558,2 C5.27923034,2 1.75,5.48348178 1.75,10.0731058 C1.75,13.7417045 4.0716449,16.8813977 7.38906641,17.986628 C7.81451792,18.0623162 7.9639761,17.8015111 7.9639761,17.5863012 C7.9639761,17.3811223 7.95480689,16.2494467 7.95480689,15.5545741 C7.95480689,15.5545741 5.62582662,16.051563 5.13619061,14.5697154 C5.13619061,14.5697154 4.75750208,13.6058305 4.21193387,13.357792 C4.21193387,13.357792 3.44997221,12.8380055 4.26511531,12.8489484 C4.26511531,12.8489484 5.0930953,12.9146056 5.54880522,13.7024926 C6.27775771,14.9791613 7.49818005,14.6116631 7.97406224,14.3937175 C8.05108363,13.8648119 8.26747708,13.4973137 8.50587663,13.2784562 C6.64727702,13.0732773 4.77033898,12.8051769 4.77033898,9.62262413 C4.77033898,8.71254172 5.02340928,8.25658861 5.55614059,7.67388053 C5.46903306,7.45867066 5.18662128,6.57229781 5.6423312,5.4278555 C6.3373576,5.21264563 7.93738538,6.3215236 7.93738538,6.3215236 C8.61789979,6.13383695 9.32085186,6.03874118 10.0270492,6.03883267 C10.7329655,6.0384409 11.4356553,6.13354292 12.1157961,6.3215236 C12.1157961,6.3215236 13.7158238,5.208998 14.4117672,5.4278555 C14.8674771,6.57594544 14.5841484,7.45867066 14.4979578,7.67388053 C15.0297722,8.25932433 15.3561962,8.71618935 15.3561962,9.62262413 C15.3561962,12.8152078 13.3967352,13.0696297 11.5372187,13.2793681 C11.8434704,13.5401733 12.1029592,14.0362503 12.1029592,14.8141063 C12.1029592,15.9284557 12.092873,17.3081698 12.092873,17.5799178 C12.092873,17.7951277 12.2459989,18.0559329 12.6677827,17.9802447 C15.9952904,16.8813977 18.25,13.7417045 18.25,10.0731058 C18.25,5.48348178 14.5080439,2 9.89409558,2 Z M4.98398166,13.4106826 C4.93996944,13.4444231 4.95005557,13.5201113 5.0069047,13.5830329 C5.06008614,13.6359234 5.13619061,13.6587211 5.18020283,13.6158615 C5.22329814,13.5830329 5.213212,13.5064327 5.15636288,13.4444231 C5.10318144,13.3915326 5.02707697,13.367823 4.98398166,13.4106826 Z M4.62454849,13.1425822 C4.60070853,13.1863537 4.6337177,13.2392442 4.70065296,13.2720728 C4.7538344,13.3049015 4.81985274,13.2948705 4.84369269,13.2492752 C4.86753265,13.2055037 4.83452348,13.1526131 4.76758822,13.1197845 C4.70065296,13.0997226 4.64838844,13.1106654 4.62454849,13.1425822 Z M5.70193109,14.320765 C5.64874965,14.3636246 5.66892192,14.4630224 5.7450264,14.5259439 C5.82204779,14.6016321 5.91832453,14.6116631 5.96141984,14.5587725 C6.00451514,14.5159129 5.98525979,14.4165152 5.91832453,14.3535936 C5.84497083,14.2779054 5.7450264,14.2678744 5.70193109,14.320765 Z M5.32324257,13.834719 C5.27006113,13.8675476 5.27006113,13.9532668 5.32324257,14.0298669 C5.37642401,14.1055551 5.4662823,14.1392957 5.5093776,14.1055551 C5.56255904,14.0626955 5.56255904,13.9769764 5.5093776,13.9003762 C5.46261462,13.824688 5.37642401,13.7909475 5.32324257,13.834719 Z"/>
</svg>