<svg width="32" height="32" viewBox="0 0 32 32" fill="none" xmlns="http://www.w3.org/2000/svg">
<path fill-rule="evenodd" clip-rule="evenodd" d="M4 8.5C4 7.94772 4.44772 7.5 5 7.5H27C27.5523 7.5 28 7.94772 28 8.5C28 9.05228 27.5523 9.5 27 9.5H5C4.44772 9.5 4 9.05228 4 8.5ZM9 13.5C9 14.0523 8.55228 14.5 8 14.5C7.44772 14.5 7 14.0523 7 13.5C7 12.9477 7.44772 12.5 8 12.5C8.55228 12.5 9 12.9477 9 13.5ZM9 23.5C9 24.0523 8.55228 24.5 8 24.5C7.44772 24.5 7 24.0523 7 23.5C7 22.9477 7.44772 22.5 8 22.5C8.55228 22.5 9 22.9477 9 23.5ZM14 19.5C14.5523 19.5 15 19.0523 15 18.5C15 17.9477 14.5523 17.5 14 17.5C13.4477 17.5 13 17.9477 13 18.5C13 19.0523 13.4477 19.5 14 19.5ZM12 12.5C11.4477 12.5 11 12.9477 11 13.5C11 14.0523 11.4477 14.5 12 14.5H27C27.5523 14.5 28 14.0523 28 13.5C28 12.9477 27.5523 12.5 27 12.5H12ZM11 23.5C11 22.9477 11.4477 22.5 12 22.5H27C27.5523 22.5 28 22.9477 28 23.5C28 24.0523 27.5523 24.5 27 24.5H12C11.4477 24.5 11 24.0523 11 23.5ZM18 17.5C17.4477 17.5 17 17.9477 17 18.5C17 19.0523 17.4477 19.5 18 19.5H27C27.5523 19.5 28 19.0523 28 18.5C28 17.9477 27.5523 17.5 27 17.5H18Z" fill="#2F343D"/>
</svg>
