<svg id="hand-pointer" viewBox="0 0 20 20">
  <path d="M14.2417329,7.77795608 C15.5093053,7.17491936 17,8.11224385 17,9.55243827 L17,12.2376252 C16.9999974,12.3876984 16.9829142,12.537282 16.9490818,12.6834766 L16.0688149,16.4874882 C15.8640008,17.3726073 15.0812798,18 14.181334,18 L8.45952151,18 C7.83900313,18 7.25183819,17.6967378 6.88839688,17.1886932 L3.36773318,12.2658589 C2.74327173,11.3928142 2.93292113,10.1753167 3.79391704,9.53856332 C4.40742498,9.08489233 5.21048892,9.0412048 5.86092997,9.39713504 L5.86092997,3.95833333 C5.86092997,2.87862304 6.73022656,2 7.79932897,2 C8.86842603,2 9.73769716,2.87861762 9.73769716,3.95833333 L9.73769716,6.53666154 C10.4505838,6.35106463 11.214621,6.59062057 11.6995587,7.16957508 C12.5709429,6.67805728 13.6757773,6.94064257 14.2417329,7.77795608 Z M4.49699968,10.5017767 C4.1443559,10.7543267 4.0493934,11.1845078 4.32907285,11.5755621 L7.85010469,16.4983942 C7.99186119,16.6965482 8.21988702,16.8148148 8.45952151,16.8148148 L14.1813648,16.8148148 C14.5329833,16.8148148 14.8351112,16.5707105 14.9162919,16.2198863 L15.7966142,12.4158704 C15.8100939,12.3575472 15.8169342,12.2975819 15.8169342,12.2376543 L15.8169342,9.55246914 C15.8169342,9.09105778 15.4938898,8.7925649 15.0598857,8.76626347 C14.6386429,8.74073539 14.3108164,8.98424317 14.306354,9.38263365 C14.3061394,9.40674968 14.3061394,9.40674968 14.3060216,9.44382653 C14.305333,9.69494305 14.1019281,9.89814815 13.8512531,9.89814815 C13.5999044,9.89814815 13.3961461,9.69403007 13.3961461,9.44223765 L13.3961461,8.88117284 C13.3961461,8.40907017 13.0689999,8.11445155 12.6409098,8.11467205 C12.2128904,8.11489252 11.885572,8.40977866 11.885572,8.88117284 L11.885572,9.44226852 C11.885572,9.69404389 11.6818275,9.89814815 11.4304958,9.89814815 C11.1791641,9.89814815 10.9754195,9.69404389 10.9754195,9.44226852 L10.9754195,8.43364198 C10.9754195,7.96151327 10.6482777,7.66689751 10.2201859,7.66712962 C9.79216869,7.66736168 9.46484551,7.96225904 9.46484551,8.43364198 L9.46484551,9.44222222 C9.46484551,9.69402316 9.26108024,9.89814815 9.00972305,9.89814815 C8.75836585,9.89814815 8.55460058,9.69402316 8.55460058,9.44222222 L8.55460058,3.95833333 C8.55460058,3.48620418 8.22746511,3.19158887 7.79938233,3.19182097 C7.37137414,3.19205304 7.04405736,3.48694996 7.04405736,3.95833333 L7.04405736,11.442948 C7.04405736,11.6259358 6.92611473,11.7879886 6.75220282,11.8439554 C6.57829131,11.899922 6.38820335,11.8370024 6.28181408,11.6882553 L5.54786469,10.6620917 C5.28463659,10.2940918 4.84633607,10.2515955 4.49699968,10.5017767 Z M8.55456977,14.1181481 L8.55456977,12.147284 C8.55456977,11.895483 8.75833504,11.691358 9.00969224,11.691358 C9.26104943,11.691358 9.4648147,11.895483 9.4648147,12.147284 L9.4648147,14.1181481 C9.4648147,14.3699491 9.26104943,14.5740741 9.00969224,14.5740741 C8.75833504,14.5740741 8.55456977,14.3699491 8.55456977,14.1181481 Z M11.430465,11.691358 C11.6818137,11.691358 11.885572,11.8954761 11.885572,12.1472685 L11.885572,14.1181636 C11.885572,14.369956 11.6818137,14.5740741 11.430465,14.5740741 C11.1791163,14.5740741 10.9753579,14.369956 10.9753579,14.1181636 L10.9753579,12.1472685 C10.9753579,11.8954761 11.1791163,11.691358 11.430465,11.691358 Z M13.3961461,12.1472685 C13.3961461,11.8954761 13.5999044,11.691358 13.8512531,11.691358 C14.1026018,11.691358 14.3063602,11.8954761 14.3063602,12.1472685 L14.3063602,14.1181636 C14.3063602,14.369956 14.1026018,14.5740741 13.8512531,14.5740741 C13.5999044,14.5740741 13.3961461,14.369956 13.3961461,14.1181636 L13.3961461,12.1472685 Z"/>
</svg>