<svg id='hashtag-lock' viewBox="0 0 32 32" xmlns="http://www.w3.org/2000/svg">
    <path d="M11.5 5C11.5 4.44771 11.0523 4 10.5 4C9.94771 4 9.5 4.44771 9.5 5V9.5H5C4.44771 9.5 4 9.94771 4 10.5C4 11.0523 4.44771 11.5 5 11.5H9.5V20.5H5C4.44771 20.5 4 20.9477 4 21.5C4 22.0523 4.44771 22.5 5 22.5H9.5V27C9.5 27.5523 9.94771 28 10.5 28C11.0523 28 11.5 27.5523 11.5 27V22.5H20.5V27C20.5 27.5523 20.9477 28 21.5 28C22.0523 28 22.5 27.5523 22.5 27V22.5H27C27.5523 22.5 28 22.0523 28 21.5C28 20.9477 27.5523 20.5 27 20.5H22.5V18H20.6667C20.6109 18 20.5554 17.9987 20.5 17.9963V20.5H11.5V11.5H16.7747C16.7584 11.3356 16.7501 11.1688 16.7501 11V9.5H11.5V5Z" />
    <path d="M23.7501 3C21.955 3 20.5 4.45507 20.5 6.25V8H19.7501C19.1978 8 18.7501 8.44771 18.7501 9V15C18.7501 15.5523 19.1978 16 19.7501 16H27.7501C28.3022 16 28.7501 15.5523 28.7501 15V9C28.7501 8.44771 28.3022 8 27.7501 8H27V6.25C27 4.45507 25.545 3 23.7501 3ZM25 7.97619H22.5V6.25C22.5 5.55965 23.0597 5 23.7501 5C24.4403 5 25 5.55965 25 6.25V7.97619Z" />
</svg>
