<svg width="24" height="24" viewBox="0 0 24 24" xmlns="http://www.w3.org/2000/svg">
<path fill-rule="evenodd" clip-rule="evenodd" d="M12.1887 4.58677C12.089 4.47108 11.9097 4.47108 11.81 4.58677L6.56305 10.6734V19.251C6.56305 19.3891 6.67498 19.501 6.81305 19.501H10V16C10 15.4477 10.4477 15 11 15H13C13.5523 15 14 15.4477 14 16V19.501H17.187C17.3251 19.501 17.437 19.3891 17.437 19.251V10.675L12.1887 4.58677ZM3.75001 13.5379H5.06305V19.251C5.06305 20.2175 5.84655 21.001 6.81305 21.001H17.187C18.1535 21.001 18.937 20.2175 18.937 19.251V13.5379H20.2487C20.542 13.5379 20.8083 13.367 20.9305 13.1004C21.0527 12.8338 21.0082 12.5204 20.8167 12.2982L13.3248 3.60737C12.6267 2.79754 11.372 2.79754 10.6739 3.60737L3.18195 12.2982C2.99046 12.5204 2.94601 12.8338 3.06819 13.1004C3.19036 13.367 3.45673 13.5379 3.75001 13.5379Z"/>
</svg>
