<svg id="key" viewBox="0 0 20 20">
  <path d="M16.1582671,16.1583213 L16.1582671,16.1583213 C16.3408718,15.97599 16.4075561,15.7075652 16.331507,15.4609771 L16.2480427,15.1903449 C16.1121717,14.7497844 15.8673112,14.3506398 15.5361442,14.0298862 L11.1521877,9.78378063 C10.9205531,9.5594297 10.8775438,9.20357382 11.0490584,8.93049761 C11.185944,8.71094741 11.3512733,8.26029174 11.3512733,7.35720265 C11.3512733,5.15547858 9.55931701,3.36352229 7.35759294,3.36352229 L7.2393736,3.36530003 C5.1629798,3.4230764 3.42435555,5.16258952 3.36569031,7.24342765 C3.33457996,8.33317885 3.73634794,9.36248707 4.49455166,10.1411347 C5.25186652,10.9215602 6.27050834,11.350883 7.35759294,11.350883 C7.87846912,11.350883 8.33890233,11.2335525 8.77089179,10.9926695 L8.77089179,10.9926695 C9.03733399,10.8434199 9.37055803,10.8898252 9.58608354,11.1061945 L10.810842,12.3357479 L11.5494663,12.3357479 C12.101751,12.3357479 12.5494663,12.7834631 12.5494663,13.3357479 L12.5494663,14.0761499 L12.7236843,14.249479 L13.4640863,14.249479 C14.016371,14.249479 14.4640863,14.6971942 14.4640863,15.249479 L14.4640863,15.989881 L14.5165294,16.0423241 L15.4602836,16.3317504 C15.7071147,16.4074475 15.9755713,16.3407436 16.1582671,16.1583213 Z M17.6204537,15.0143492 L17.6343436,15.0593856 C17.859277,15.7887071 17.6623661,16.5826197 17.1226881,17.1222978 L17.1226881,17.1222978 C16.5829166,17.6620692 15.7890737,17.8594125 15.0593864,17.6352187 L14.2595292,17.3894654 C13.9525826,17.2951572 13.6733908,17.1271385 13.4463333,16.900081 L13.4463333,16.900081 C13.2249409,16.6786886 13.100564,16.3784161 13.100564,16.0653199 L13.100564,15.6121124 L12.8456558,15.6121124 C12.4055691,15.6121124 11.9834849,15.4373925 11.6721544,15.1263465 L11.6721544,15.1263465 C11.3608544,14.8153311 11.185944,14.3933329 11.185944,13.9532894 L11.185944,13.6983813 L11.185944,13.6983813 C10.5833229,13.6983813 10.0054754,13.4585611 9.57994729,13.031855 L8.96022051,12.4104127 C8.46067714,12.6130744 7.92291248,12.7144053 7.35759294,12.7144053 C5.89807298,12.7144053 4.53455069,12.1384194 3.51679774,11.0922227 C2.49993365,10.046026 1.96128012,8.66650405 2.00216802,7.20609523 C2.07949946,4.41416333 4.41455361,2.07999805 7.20648551,2.0026666 L7.35759294,2 C10.3112987,2 12.7139067,4.40349693 12.7139067,7.35720265 C12.7139067,8.07540736 12.6276866,8.66561518 12.4516909,9.14382574 L16.3159639,12.8876091 C16.922775,13.4754996 17.3714516,14.2069875 17.6204537,15.0143492 Z M5.40955157,6.77303913 C5.40955157,6.0201686 6.02020334,5.40951683 6.77307386,5.40951683 C7.52683325,5.40951683 8.13659616,6.0201686 8.13659616,6.77303913 C8.13659616,7.52590965 7.52683325,8.13656142 6.77307386,8.13656142 C6.02020334,8.13656142 5.40955157,7.52590965 5.40955157,6.77303913 Z"/>
</svg>