<svg id="language" viewBox="0 0 20 20">
  <path d="M17.7998302,10.6536852 C17.2937025,9.28855506 15.8815881,8.47356524 14.0218839,8.47356524 C13.9489367,8.47356524 13.8786912,8.474454 13.8093463,8.47800903 L13.7967381,6.827588 L16.1222758,6.43254726 C16.4017823,6.3850673 16.5898769,6.11999245 16.542397,5.84048601 C16.5410146,5.83234811 16.5394361,5.82424475 16.5376629,5.81618297 L16.5376629,5.81618297 C16.4723515,5.51924415 16.1895214,5.32258138 15.8884219,5.36474046 C15.1881921,5.46278466 14.4879622,5.56082886 13.7877323,5.65887305 L13.7805648,4.55660742 C13.7785542,4.24740304 13.526419,3.9982904 13.2172129,4.00000884 L13.2172129,4.00000884 C12.9108878,4.00171126 12.6639424,4.2514169 12.6656448,4.55774197 C12.6656541,4.55942157 12.6656711,4.56110111 12.6656957,4.56278055 L12.684518,5.84817821 C12.0245664,5.96071474 11.3646149,6.07325126 10.7046633,6.18578779 L10.7046633,6.18578779 C10.3919165,6.23911813 10.1816179,6.53588233 10.2349482,6.84862918 C10.235091,6.84946646 10.2352356,6.85030342 10.2353821,6.85114005 L10.2353821,6.85114005 C10.2904231,7.16549738 10.5891193,7.37630318 10.9037492,7.32284226 L12.7043308,7.01689316 L12.7331494,8.63087516 C12.0363926,8.80144379 11.4026525,9.16283053 10.9049657,9.67338667 C10.2855409,10.3118189 9.93554005,11.1589659 9.9260318,12.0428118 C9.9260318,13.3119562 10.7131415,14.0656218 11.8127535,14.1989353 C14.3758131,14.5082226 15.96174,11.7512996 16.4885811,10.4270523 C17.305914,11.5340857 16.7964499,13.5462816 15.2324233,14.8744161 C15.2202253,14.8847744 15.2070791,14.8957162 15.1929846,14.9072416 L15.1929795,14.9072354 C14.9842554,15.0779137 14.9534131,15.3854801 15.1240913,15.5942043 C15.1269312,15.5976771 15.1298187,15.6011107 15.1327532,15.6045039 L15.1641777,15.6407924 C15.3438064,15.8485049 15.6551506,15.8779209 15.8705031,15.7075265 C15.8705031,15.7075265 15.8705031,15.7075265 15.8705031,15.7075265 C17.6275932,14.3172561 18.3977689,12.2706217 17.7998302,10.6536852 Z M11.0472578,12.041923 C11.0472578,11.4233484 11.3129298,10.7781111 11.7587185,10.3177352 C12.0360007,10.0315652 12.3765896,9.81255726 12.7538629,9.67783045 L12.820506,13.0995434 C12.5080037,13.2035279 12.1720862,13.247077 11.8127535,13.2035279 C11.0292461,13.1066535 11.0472578,12.47297 11.0472578,12.041923 Z M13.8174515,9.47430519 C13.8858959,9.47163892 13.952539,9.46630638 14.0218839,9.46630638 C14.6477892,9.46630638 15.2322677,9.5827335 15.5492729,9.75515228 C15.8662782,9.92934857 14.7207364,11.9254959 13.7805276,12.7618159 L13.8174515,9.47430519 Z M4.36328477,7.39683057 L2.02663154,14.7785388 C1.93197459,15.077569 2.09765188,15.3967155 2.39668211,15.4913724 C2.45170301,15.5087891 2.5090572,15.5177175 2.56676875,15.5178502 L2.56676875,15.5178502 C3.02589444,15.5189051 3.43131911,15.2185905 3.56410294,14.779084 L4.15959797,12.8080312 L6.99463369,12.8080312 L7.66630803,14.8123594 C7.80789554,15.2348675 8.20364619,15.5196277 8.649247,15.5196277 L8.649247,15.5196277 C8.94953571,15.5196277 9.19296781,15.2761956 9.19296781,14.9759069 C9.19296781,14.9194184 9.18416506,14.863275 9.16687638,14.8094973 L6.78341636,7.39556659 C6.61416135,6.86908622 6.12438741,6.5120794 5.57136948,6.5120794 L5.57136948,6.5120794 C5.01885224,6.5120794 4.53002757,6.87007433 4.36328477,7.39683057 Z M4.403656,11.6819766 L5.38442093,8.17218475 C5.41414787,8.06580314 5.52448565,8.00366225 5.63086726,8.03338919 C5.69822895,8.05221252 5.7508636,8.10485764 5.76967353,8.17222307 L6.74967507,11.6819766 L4.403656,11.6819766 Z"/>
</svg>