<svg id="lock" viewBox="0 0 20 20">
  <path d="M13.5652174,16.5454545 L6.43478261,16.5454545 C6.15864023,16.5454545 5.93478261,16.3215969 5.93478261,16.0454545 L5.93478261,10.4195152 C5.93478261,10.1433728 6.15864023,9.91951515 6.43478261,9.91951515 L13.5652174,9.91951515 C13.8413598,9.91951515 14.0652174,10.1433728 14.0652174,10.4195152 L14.0652174,16.0454545 C14.0652174,16.3215969 13.8413598,16.5454545 13.5652174,16.5454545 Z M7.52930435,5.95927273 C7.52930435,4.57842424 8.63791304,3.45454545 10,3.45454545 C11.362087,3.45454545 12.4706957,4.57842424 12.4706957,5.95927273 L12.4706957,8.4649697 L7.52930435,8.4649697 L7.52930435,5.95927273 Z M13.9054783,8.4649697 L13.9054783,5.95927273 C13.9054783,3.77648485 12.1531304,2 10,2 C7.84686957,2 6.09452174,3.77648485 6.09452174,5.95927273 L6.09452174,8.4649697 L5.5,8.4649697 C4.94771525,8.4649697 4.5,8.91268495 4.5,9.4649697 L4.5,17 C4.5,17.5522847 4.94771525,18 5.5,18 L14.5,18 C15.0522847,18 15.5,17.5522847 15.5,17 L15.5,9.4649697 C15.5,8.91268495 15.0522847,8.4649697 14.5,8.4649697 L13.9054783,8.4649697 Z"/>
</svg>