<svg id="mute" viewBox="0 0 20 20">
  <path d="M8.07162956,9.03236085 L6.868093,10.0641379 C6.6325462,9.59341351 6.5,9.06218567 6.5,8.5 L6.5,5.5 C6.5,3.56700338 8.06700338,2 10,2 C11.5863668,2 12.9262329,3.05539481 13.3557571,4.50234323 L12,5.66461716 L12,5.5 C12,4.3954305 11.1045695,3.5 10,3.5 C8.8954305,3.5 8,4.3954305 8,5.5 L8,8.5 C8,8.684342 8.02493988,8.86285898 8.07162956,9.03236085 Z M7.37145588,14.2427133 L8.69338552,13.1094393 C9.08788589,13.2036768 9.52319165,13.25 10,13.25 C12.5473822,13.25 13.9101536,11.9277943 14.1946327,9.04074514 C14.2030058,8.95577013 14.2109047,8.85128998 14.2183292,8.72730468 L14.2183104,8.72730356 C14.2429945,8.31509415 14.5870831,7.99494551 15,8 C15.402301,8.00492454 15.7244382,8.33504606 15.7195137,8.73734705 C15.7193751,8.74867236 15.7189723,8.75999289 15.7183058,8.77129942 C15.7126924,8.86709227 15.7067695,8.95009551 15.7005706,9.02031109 C15.39585,12.4718915 13.7154723,14.4393939 10.75,14.716139 L10.75,17 L12.5,17 C12.7761424,17 13,17.2238576 13,17.5 C13,17.7761424 12.7761424,18 12.5,18 L7.5,18 C7.22385763,18 7,17.7761424 7,17.5 C7,17.2238576 7.22385763,17 7.5,17 L9.25,17 L9.25,14.716139 C8.55228772,14.6510268 7.92571318,14.4923209 7.37145588,14.2427133 Z M4.94084799,11.7163414 C4.60618286,10.9564611 4.39181379,10.0586727 4.30015364,9.02848274 C4.29372099,8.95618468 4.28758275,8.87041985 4.28173892,8.77118824 L4.28175695,8.77118718 C4.25810647,8.3695884 4.5644941,8.02485576 4.96609288,8.00120528 C4.97738436,8.00054032 4.9886898,8.00013845 5,8 C5.41277955,7.99494719 5.75675134,8.31499417 5.78141823,8.72706702 C5.78840657,8.84343937 5.79579487,8.94198439 5.80360528,9.02270073 C5.86440242,9.65100643 5.97602995,10.2055069 6.13957636,10.6886863 L4.94084799,11.7163414 Z M13.4613488,9.02192297 C13.2093532,10.7073691 11.7556316,12 10,12 C9.9958443,12 9.99169029,11.9999928 9.98753799,11.9999783 L13.4613488,9.02192297 Z M17.7972,2.9998 C18.0667928,3.31427187 18.0304112,3.7877499 17.7159393,4.05734277 L3.07474272,16.6090606 C2.76027085,16.8786535 2.28679282,16.8422719 2.01719995,16.5278 C1.74760708,16.2133281 1.7839887,15.7398501 2.09846057,15.4702572 L16.7396572,2.91853938 C17.0541291,2.64894651 17.5276071,2.68532813 17.7972,2.9998 Z"/>
</svg>