<svg id="pause" viewBox="0 0 20 20">
  <path d="M10,18 C5.58217143,18 2,14.4187429 2,10 C2,5.58125714 5.58217143,2 10,2 C14.4178286,2 18,5.58125714 18,10 C18,14.4187429 14.4178286,18 10,18 Z M11.0146065,7.74166381 L11.0020833,12.2500029 C11.0009359,12.6630659 11.3348595,12.9988497 11.7479225,12.9999971 C11.748615,12.999999 11.7493075,13 11.75,13 L11.75,13 C12.1642136,13 12.5,12.6642136 12.5,12.25 L12.5,7.74166667 C12.5,7.33205548 12.1679445,7 11.7583333,7 L11.7583333,7 C11.3483893,7 11.0157452,7.33172136 11.0146065,7.74166381 Z M7.5,7.75 L7.5,12.25 C7.5,12.6642136 7.83578644,13 8.25,13 L8.25,13 C8.66421356,13 9,12.6642136 9,12.25 L9,7.75 C9,7.33578644 8.66421356,7 8.25,7 L8.25,7 C7.83578644,7 7.5,7.33578644 7.5,7.75 Z"/>
</svg>