<svg id="play" viewBox="0 0 20 20">
  <path d="M10,18 C5.58217143,18 2,14.4187429 2,10 C2,5.58125714 5.58217143,2 10,2 C14.4178286,2 18,5.58125714 18,10 C18,14.4187429 14.4178286,18 10,18 Z M8.91894653,7.07082336 C8.82337695,7.01084454 8.71283175,6.97902914 8.6,6.97902914 C8.26862915,6.97902914 8,7.24765829 8,7.57902914 L8,12.4208747 C8,12.5337065 8.0318154,12.6442517 8.09179422,12.7398213 C8.26794352,13.0204956 8.63827223,13.1052298 8.91894653,12.9290805 L12.7764174,10.5081577 C12.8529497,10.4601266 12.9176456,10.3954307 12.9656767,10.3188985 C13.141826,10.0382242 13.0570918,9.66789546 12.7764174,9.49174616 L8.91894653,7.07082336 Z"/>
</svg>