<svg id="post" viewBox="0 0 20 20">
  <path d="M5.56521739,4.0483871 L5.56521739,15.9516129 C5.56521739,16.2277553 5.78907502,16.4516129 6.06521739,16.4516129 L13.9347826,16.4516129 C14.210925,16.4516129 14.4347826,16.2277553 14.4347826,15.9516129 L14.4347826,7.64129078 C14.4347826,7.37420071 14.3279362,7.11820976 14.1380569,6.93037218 L11.0115347,3.8374685 C10.8243186,3.65226549 10.5716043,3.5483871 10.3082604,3.5483871 L6.06521739,3.5483871 C5.78907502,3.5483871 5.56521739,3.77224472 5.56521739,4.0483871 Z M11.659869,2.28908141 L15.7032743,6.28900925 C15.8931536,6.47684683 16,6.73283777 16,6.99992784 L16,17 C16,17.5522847 15.5522847,18 15,18 L5,18 C4.44771525,18 4,17.5522847 4,17 L4,3 C4,2.44771525 4.44771525,2 5,2 L10.9565947,2 C11.2199386,2 11.4726529,2.10387839 11.659869,2.28908141 Z M7.69999981,13.75 L7.69999981,13.75 C7.69999981,13.3357864 8.03578625,13 8.44999981,13 L11.4499998,13 C11.8642134,13 12.1999998,13.3357864 12.1999998,13.75 L12.1999998,13.75 C12.1999998,14.1642136 11.8642134,14.5 11.4499998,14.5 L8.44999981,14.5 C8.03578625,14.5 7.69999981,14.1642136 7.69999981,13.75 Z M7.69999981,10.75 L7.69999981,10.75 C7.69999981,10.3357864 8.03578625,10 8.44999981,10 L11.4499998,10 C11.8642134,10 12.1999998,10.3357864 12.1999998,10.75 L12.1999998,10.75 C12.1999998,11.1642136 11.8642134,11.5 11.4499998,11.5 L8.44999981,11.5 C8.03578625,11.5 7.69999981,11.1642136 7.69999981,10.75 Z"/>
</svg>