<svg id="quote" viewBox="0 0 20 20">
  <path d="M8.0952381,7.71422222 C8.0952381,6.39928593 7.02927016,5.33333333 5.71428571,5.33333333 C4.39932202,5.33333333 3.33333333,6.39932202 3.33333333,7.71428571 L3.33333333,8.66666667 C3.33333333,9.45564488 3.97292655,10.0952381 4.76190476,10.0952381 C5.01622226,10.0952381 5.24838522,10.2399291 5.36040964,10.4682445 C5.7463125,11.2547477 5.71927332,12.1940215 5.30895345,13.2915646 C5.2635387,13.4130421 5.19561509,13.5710758 5.10518262,13.7656655 L5.10516725,13.7656583 C5.0586117,13.8658351 5.10208028,13.9847852 5.20225705,14.0313407 C5.26488644,14.0604467 5.3381002,14.0551845 5.39592335,14.017421 C5.67324106,13.8363086 5.88943617,13.6697674 6.04450868,13.5177975 C7.27582192,12.3111199 8.0952381,10.2392411 8.0952381,7.71422222 Z M2,8.66666667 L2,7.71428571 C2,5.66294236 3.66294236,4 5.71428571,4 C7.76564553,4 9.42857143,5.66290197 9.42857143,7.71422222 C9.42857143,12.4400033 6.81502438,16 3.42857143,16 C2.89042744,16 2.57405038,15.3952782 2.88090538,14.9531934 C3.98482067,13.3627871 4.41809104,12.1678353 4.27097871,11.3850713 C2.97982128,11.1534427 2,10.0244794 2,8.66666667 Z M12.8424073,11.3850713 C11.5512498,11.1534427 10.5714286,10.0244794 10.5714286,8.66666667 L10.5714286,7.71428571 C10.5714286,5.66294236 12.2343709,4 14.2857143,4 C16.3370741,4 18,5.66290197 18,7.71422222 C18,12.4400033 15.3864529,16 12,16 C11.461856,16 11.1454789,15.3952782 11.452334,14.9531934 C12.5562492,13.3627871 12.9895196,12.1678353 12.8424073,11.3850713 Z M16.6666667,7.71422222 C16.6666667,6.39928593 15.6006987,5.33333333 14.2857143,5.33333333 C12.9707506,5.33333333 11.9047619,6.39932202 11.9047619,7.71428571 L11.9047619,8.66666667 C11.9047619,9.45564488 12.5443551,10.0952381 13.3333333,10.0952381 C13.5876508,10.0952381 13.8198138,10.2399291 13.9318382,10.4682445 C14.3101542,11.2392851 14.2916055,12.1571483 13.904138,13.2270151 C13.8547002,13.3635217 13.7779392,13.5440692 13.673855,13.7686578 L13.6738131,13.7686384 C13.6273572,13.8688792 13.6709584,13.9878004 13.7711991,14.0342564 C13.8337008,14.0632224 13.9067089,14.0579924 13.9644435,14.0204131 C14.2348893,13.8443809 14.4461273,13.6826212 14.5981574,13.5351337 C15.8393561,12.3310224 16.6666667,10.2513752 16.6666667,7.71422222 Z"/>
</svg>