<svg id="reply-directly" viewBox="0 0 20 20">
    <path d="M4.97783071,10.8395119 L8.3227205,14.2589793 C8.63824773,14.5815415 8.63824773,15.0970975 8.3227205,15.4196598 L8.3227205,15.4196598 C8.01603557,15.7331825 7.51325788,15.7387257 7.19973511,15.4320408 C7.19556273,15.4279594 7.19143548,15.4238321 7.18735411,15.4196598 L2.68401754,10.8159169 C2.30382986,10.4272526 2.30382986,9.80604448 2.68401754,9.41738015 L7.4372152,4.55820531 C7.73220276,4.25664071 8.21580384,4.25130896 8.51736845,4.54629653 C8.52138168,4.55022224 8.52535151,4.55419207 8.52927722,4.55820531 L8.52927722,4.55820531 C8.83276982,4.86846457 8.83276982,5.36435666 8.52927722,5.67461592 L5.02143506,9.26066884 L15.4154183,9.26066884 C16.8446394,9.26066884 18,10.3956904 18,11.8043355 L18,14.0715077 C18,14.5148958 17.6405629,14.874333 17.1971747,14.874333 L17.1971747,14.874333 C16.7537866,14.874333 16.3943494,14.5148958 16.3943494,14.0715077 L16.3943494,11.8043355 C16.3943494,11.2679881 15.9581951,10.8395119 15.4154183,10.8395119 L4.97783071,10.8395119 Z"></path>
</svg>
