<svg id="report" viewBox="0 0 20 20">
    <path d="M9.98344445,7.04264254 C10.4190789,7.04264254 10.7723523,7.39520794 10.7723523,7.83027001 L10.7723523,12.3994926 C10.7723523,12.8345547 10.4190789,13.1871201 9.98344445,13.1871201 C9.54780997,13.1871201 9.19453663,12.8345547 9.19453663,12.3994926 L9.19453663,7.83027001 C9.19453663,7.39520794 9.54780997,7.04264254 9.98344445,7.04264254 Z M0.959352356,16.870054 L9.04441459,2.40226256 C9.32933111,1.8924195 9.98368057,1.7021729 10.5098756,1.97341266 C10.6984618,2.07062387 10.853564,2.21970064 10.9555854,2.40226256 L19.0406476,16.870054 C19.3644696,17.4495162 18.9313899,18.15 18.2590107,18.15 L1.74098931,18.15 C1.06861014,18.15 0.635530413,17.4495162 0.959352356,16.870054 Z M9.96597455,13.7448416 C10.4490813,13.7448416 10.8196237,14.1257886 10.8196237,14.6151726 C10.8196237,15.1078483 10.450184,15.4898784 9.96597455,15.4898784 C9.48176512,15.4898784 9.11232535,15.1078483 9.11232535,14.6151726 C9.11232535,14.1257886 9.48286785,13.7448416 9.96597455,13.7448416 Z M2.73547986,16.7123645 L17.2645201,16.7123645 L10,3.71288982 L2.73547986,16.7123645 Z"></path>
</svg>
