<svg id="share" viewBox="0 0 20 20">
  <path d="M9.2826087,4.66628243 L7.81818082,6.07497537 C7.52990623,6.35227846 7.07404495,6.35227846 6.78577036,6.07497537 L6.78577036,6.07497537 C6.51152846,5.8111709 6.50306726,5.37499814 6.76687173,5.10075624 C6.77304849,5.0943351 6.77934922,5.08803437 6.78577036,5.08185761 L9.2963023,2.66687448 C9.6834527,2.29445871 10.2956706,2.29445871 10.682821,2.66687448 L13.193353,5.08185761 C13.4675949,5.34566208 13.4760561,5.78183485 13.2122516,6.05607674 C13.2060749,6.06249788 13.1997741,6.06879861 13.193353,6.07497537 L13.193353,6.07497537 C12.9050784,6.35227846 12.4492171,6.35227846 12.1609425,6.07497537 L10.7173913,4.68636454 L10.7173913,12.6820222 C10.7173913,13.0782265 10.3962043,13.3994135 10,13.3994135 L10,13.3994135 C9.60379572,13.3994135 9.2826087,13.0782265 9.2826087,12.6820222 L9.2826087,4.66628243 Z M12.3913043,9.56559144 L12.3913043,8.1854155 L14.5,8.1854155 C15.0522847,8.1854155 15.5,8.63313075 15.5,9.1854155 L15.5,17 C15.5,17.5522847 15.0522847,18 14.5,18 L5.5,18 C4.94771525,18 4.5,17.5522847 4.5,17 L4.5,9.1854155 C4.5,8.63313075 4.94771525,8.1854155 5.5,8.1854155 L7.60869565,8.1854155 L7.60869565,9.56559144 L5.93478261,9.56559144 L5.93478261,16.6198241 L14.0652174,16.6198241 L14.0652174,9.56559144 L12.3913043,9.56559144 Z"/>
</svg>