<svg id="shield-check" viewBox="0 0 20 20">
  <path d="M16.5634606,4.43985056 C17.2203536,4.71330239 17.65,5.35910027 17.65,6.07323887 C17.65,11.6074651 14.7408211,16.3197059 10.6777136,18.0145133 C10.2432,18.1951858 9.75368361,18.1951639 9.31885591,18.0143605 C5.24652225,16.3146728 2.35,11.4967576 2.35,6.07323887 C2.35,5.35806806 2.78065408,4.71262465 3.43960311,4.43985055 L9.32238332,1.98544685 C9.75721162,1.80482366 10.2459134,1.8048491 10.6811077,1.98562473 L16.5634606,4.43985056 Z M10.0771359,16.560036 C13.4472864,15.2212106 16.0750853,10.7589742 16.0724265,6.07323887 C16.0724265,5.9925855 16.0269548,5.92362138 15.9549216,5.89356782 L10.0706297,3.43852492 C10.0256153,3.41936846 9.97139556,3.41951627 9.92436743,3.43934205 L4.04365897,5.89287596 C3.97148842,5.92349719 3.9245098,5.99445698 3.9245098,6.07323887 C3.9245098,10.7602943 6.55399678,15.2218703 9.9235012,16.5590516 C9.97468601,16.5795526 10.0294474,16.5796264 10.0771359,16.560036 Z M12.9976656,6.78918962 C13.2757126,6.507667 13.7293335,6.50484948 14.0110768,6.78311497 C14.2967871,7.07232303 14.2967871,7.52767697 14.0171492,7.81081038 L9.33585469,12.5506211 C9.02538174,12.8649749 8.51885952,12.868121 8.20428493,12.5574296 L8.19747865,12.5506211 L6.20027998,10.5284574 C5.91098135,10.2355426 5.91098135,9.76445743 6.20027998,9.47154256 C6.48783406,9.18039406 6.95696519,9.1774802 7.24942922,9.46634978 L8.80152299,11.037784 L12.9976656,6.78918962 Z"/>
</svg>