<svg id="sort" viewBox="0 0 20 20">
  <path d="M12.2343103,8.86260804 C12.1542295,9.07653489 11.9842551,9.19005197 11.7513424,9.19005197 L11.4252683,9.19005197 C11.2628163,9.19005197 11.1277358,9.11883097 11.032942,8.98317129 C10.9377629,8.84696013 10.9164747,8.69056993 10.9711723,8.52628794 L12.7505296,3.53531327 C12.8306104,3.32138642 13.0005848,3.20786934 13.2334975,3.20786934 L13.7077872,3.20786934 C13.9406999,3.20786934 14.1106743,3.32138642 14.1915262,3.53742379 L15.9711023,8.52916085 C16.02481,8.69056993 16.0035218,8.84696013 15.9083427,8.98317129 C15.8135489,9.11883097 15.6784684,9.19005197 15.5160164,9.19005197 L15.1602992,9.19005197 C14.9449981,9.19005197 14.7862553,9.07439811 14.7055234,8.858546 L14.2928455,7.64587973 L12.6484342,7.64587973 L12.2343103,8.86260804 Z M13.8738844,6.44469191 L13.4695661,5.20542345 L13.0413472,6.44469191 L13.8738844,6.44469191 Z M7.96788361,13.4418535 C8.25247416,13.1634365 8.71117304,13.1634365 8.99576359,13.4418535 C9.28424861,13.7240806 9.28424861,14.1847364 8.99576359,14.4669634 L6.62000366,16.7911872 C6.33541312,17.0696043 5.87671424,17.0696043 5.59212369,16.7911872 L3.21636376,14.4669634 C2.92787875,14.1847364 2.92787875,13.7240806 3.21636376,13.4418535 C3.50095431,13.1634365 3.95965319,13.1634365 4.24424374,13.4418535 L5.37575992,14.5488243 L5.37575992,3.72136775 C5.37575992,3.32133923 5.70422437,3 6.10606368,3 C6.50790299,3 6.83636743,3.32133923 6.83636743,3.72136775 L6.83636743,14.5488243 L7.96788361,13.4418535 Z M15.2492285,15.5612472 C15.3833436,15.5612472 15.5015242,15.609996 15.5963195,15.7049593 C15.6918275,15.8006365 15.7413095,15.92102 15.7413095,16.0579065 L15.7413095,16.2954714 C15.7413095,16.4323579 15.6918275,16.5527414 15.5963195,16.6484186 C15.5015242,16.7433819 15.3833436,16.7921307 15.2492285,16.7921307 L11.6920562,16.7921307 C11.5579411,16.7921307 11.4397605,16.7433819 11.3449652,16.6484186 C11.2494572,16.5527414 11.1999752,16.4323579 11.1999752,16.2954714 L11.1999752,16.0579065 C11.1999752,15.9511091 11.2276366,15.8541227 11.2848679,15.7681859 L13.8866041,12.0408315 L11.8402717,12.0408315 C11.7061566,12.0408315 11.587976,11.9920827 11.4931807,11.8971194 C11.3976727,11.8014422 11.3481907,11.6810587 11.3481907,11.5441722 L11.3481907,11.3066073 C11.3481907,11.1697208 11.3976727,11.0493373 11.4931807,10.9536601 C11.587976,10.8586968 11.7061566,10.809948 11.8402717,10.809948 L15.2195854,10.809948 C15.3537005,10.809948 15.4718811,10.8586968 15.5666764,10.9536601 C15.6621844,11.0493373 15.7116664,11.1697208 15.7116664,11.3066073 L15.7116664,11.5441722 C15.7116664,11.6334363 15.6828784,11.7199532 15.626807,11.8041494 L14.1151274,13.9717593 C13.5377055,14.8023467 13.1610856,15.3424039 12.9935834,15.5612472 L15.2492285,15.5612472 Z"/>
</svg>