<svg id='stopwatch' viewBox="0 0 32 32">
  <path d="M11.7236 2C10.6896 2 9.85129 2.83828 9.85129 3.87235C9.85129 4.90642 10.6896 5.7447 11.7236 5.7447H17.3407C18.3748 5.7447 19.213 4.90642 19.213 3.87235C19.213 2.83828 18.3748 2 17.3407 2H11.7236ZM25.6323 6.72534C25.0907 6.1837 24.2125 6.1837 23.6708 6.72534C23.1292 7.26698 23.1292 8.14516 23.6708 8.6868L25.6323 10.6483C26.174 11.1899 27.0521 11.1899 27.5938 10.6483C28.1354 10.1066 28.1354 9.22844 27.5938 8.6868L25.6323 6.72534ZM15.4682 11.8297C14.1721 11.8297 12.9051 12.2141 11.8274 12.9341C10.7497 13.6542 9.90979 14.6777 9.41379 15.8751C8.9178 17.0726 8.78802 18.3902 9.04088 19.6614C9.29374 20.9326 9.91787 22.1003 10.8344 23.0168C11.7508 23.9333 12.9185 24.5574 14.1897 24.8103C15.4609 25.0631 16.7785 24.9333 17.976 24.4373C19.1734 23.9413 20.1969 23.1014 20.917 22.0237C21.6371 20.9461 22.0214 19.6791 22.0214 18.383H15.4682V11.8297ZM15.4681 29.8511C21.8018 29.8511 26.9363 24.7167 26.9363 18.383C26.9363 12.0493 21.8018 6.91484 15.4681 6.91484C9.13446 6.91484 4 12.0493 4 18.383C4 24.7167 9.13446 29.8511 15.4681 29.8511ZM15.4681 27.7997C10.2674 27.7997 6.05139 23.5837 6.05139 18.383C6.05139 13.1823 10.2674 8.96623 15.4681 8.96623C20.6689 8.96623 24.8849 13.1823 24.8849 18.383C24.8849 23.5837 20.6689 27.7997 15.4681 27.7997Z"/>
</svg>
