<svg id="strike" viewBox="0 0 20 20">
  <path d="M8.71102759,10.75 L5,10.75 C4.58578644,10.75 4.25,10.4142136 4.25,10 L4.25,10 C4.25,9.58578644 4.58578644,9.25 5,9.25 L6.88021354,9.25 C6.78204757,8.97819605 6.73413086,8.67389293 6.73413086,8.33496094 C6.73413086,6.70361328 8.06713867,5.61816406 10.0666504,5.61816406 C11.5263549,5.61816406 12.6771661,6.28678096 13.1446936,7.32020595 C13.1695523,7.37515376 13.1934632,7.44023864 13.2164262,7.51546057 L13.2164124,7.51546477 C13.3076018,7.81418196 13.1393672,8.13026367 12.8406501,8.22145303 C12.7871345,8.23778972 12.7314907,8.24609375 12.6755371,8.24609375 L12.6755371,8.24609375 C12.3043577,8.24609375 11.9639819,8.03966144 11.7924307,7.7105044 C11.7758164,7.67864214 11.7591627,7.65042465 11.7424631,7.62585529 C11.4203111,7.15188772 10.8206952,6.875 10.0476074,6.875 C8.92407227,6.875 8.17504883,7.41455078 8.17504883,8.23974609 C8.17504883,8.68801286 8.40182573,9.00498773 8.9290297,9.25 L15,9.25 C15.4142136,9.25 15.75,9.58578644 15.75,10 L15.75,10 C15.75,10.4142136 15.4142136,10.75 15,10.75 L12.9104183,10.75 C13.3255701,11.1645854 13.5134277,11.6936468 13.5134277,12.3720703 C13.5134277,14.1240234 12.1550293,15.222168 9.98413086,15.222168 C8.52589796,15.222168 7.41116742,14.6823785 6.86070505,13.7718969 C6.78574215,13.647906 6.71604692,13.4771436 6.65161933,13.2596098 L6.65162579,13.2596079 C6.56337292,12.9616302 6.73338846,12.6485285 7.03136614,12.5602756 C7.08324081,12.5449118 7.13706008,12.5371094 7.19116211,12.5371094 L7.19116211,12.5371094 C7.57915564,12.5371094 7.93595779,12.749696 8.12065234,13.0909099 C8.18486373,13.2095241 8.25166957,13.3024132 8.32107535,13.3695742 C8.70741909,13.7434222 9.32663713,13.9589844 10.092041,13.9589844 C11.2346191,13.9589844 12.0725098,13.3686523 12.0725098,12.5561523 C12.0725098,11.8579102 11.5393066,11.4389648 10.3269043,11.1533203 L9.14624023,10.8676758 C8.99355133,10.8319899 8.84851854,10.7927994 8.71102759,10.75 Z"/>
</svg>