<svg id='team' viewBox="0 0 32 32" xmlns="http://www.w3.org/2000/svg">
    <path d="M8.78698 10.5C9.33926 10.5 9.78698 10.0523 9.78698 9.5C9.78698 8.94771 9.33926 8.5 8.78698 8.5C8.23469 8.5 7.78698 8.94771 7.78698 9.5C7.78698 10.0523 8.23469 10.5 8.78698 10.5ZM8.78698 12.5C7.13013 12.5 5.78698 11.1568 5.78698 9.5C5.78698 7.84315 7.13013 6.5 8.78698 6.5C10.4438 6.5 11.787 7.84315 11.787 9.5C11.787 11.1568 10.4438 12.5 8.78698 12.5ZM18 10C18 9.17157 17.3285 8.5 16.5 8.5C15.6716 8.5 15 9.17157 15 10C15 10.8284 15.6716 11.5 16.5 11.5C17.3285 11.5 18 10.8284 18 10ZM20 10C20 11.933 18.433 13.5 16.5 13.5C14.567 13.5 13 11.933 13 10C13 8.06701 14.567 6.5 16.5 6.5C18.433 6.5 20 8.06701 20 10ZM14.9344 14.9536C14.0419 14.6112 13.0503 14.6345 12.1748 15.0182C10.8535 15.5974 9.99998 16.9034 9.99998 18.3459V22.5C9.99998 24.1568 11.3431 25.5 13 25.5H20C21.6568 25.5 23 24.1568 23 22.5V18.5918C23 16.993 22.0146 15.5595 20.5216 14.987C19.5731 14.6232 18.5195 14.648 17.5893 15.0557L17.5245 15.0841C16.8518 15.3789 16.0901 15.3968 15.4044 15.1338L14.9344 14.9536ZM12.9776 16.8501C13.3713 16.6774 13.817 16.667 14.2183 16.821L14.6883 17.0011C15.8653 17.4526 17.1728 17.4219 18.3274 16.9158L18.3922 16.8875C18.8405 16.6909 19.3483 16.679 19.8054 16.8544C20.525 17.1304 21 17.8213 21 18.5918V22.5C21 23.0523 20.5523 23.5 20 23.5H13C12.4477 23.5 12 23.0523 12 22.5V18.3459C12 17.6974 12.3837 17.1104 12.9776 16.8501ZM24 10.5C23.4477 10.5 23 10.0523 23 9.5C23 8.94771 23.4477 8.5 24 8.5C24.5523 8.5 25 8.94771 25 9.5C25 10.0523 24.5523 10.5 24 10.5ZM24 12.5C25.6568 12.5 27 11.1568 27 9.5C27 7.84315 25.6568 6.5 24 6.5C22.3432 6.5 21 7.84315 21 9.5C21 11.1568 22.3432 12.5 24 12.5ZM26.2723 21.3053H24V19.3053H26.2723C26.8246 19.3053 27.2723 18.8574 27.2723 18.3053V16.9086C27.2723 16.4384 26.9702 16.0214 26.5235 15.8746C26.2882 15.7973 26.0333 15.8026 25.8013 15.8897L25.659 15.9431C25.0413 16.175 24.3811 16.2549 23.7334 16.1816C23.3446 15.1915 22.5546 14.3832 21.5216 13.987C21.4669 13.966 21.4117 13.9463 21.3562 13.9278C21.9205 13.7618 22.5237 13.7703 23.0856 13.9549L23.5288 14.1005C23.9941 14.2534 24.4976 14.2428 24.956 14.0707L25.0984 14.0173C25.7566 13.7701 26.4797 13.755 27.1477 13.9745C28.4154 14.3909 29.2723 15.5744 29.2723 16.9086V18.3053C29.2723 19.9621 27.9291 21.3053 26.2723 21.3053ZM19.5397 19.5H19.5147C19.5229 19.5187 19.5312 19.5373 19.5397 19.5558V19.5ZM11.1748 14.0182C11.2538 13.9836 11.3338 13.9519 11.4146 13.9231C10.855 13.762 10.2579 13.7721 9.70133 13.9549L9.25811 14.1005C8.79288 14.2534 8.28942 14.2428 7.83098 14.0707L7.68866 14.0173C7.0303 13.7701 6.30733 13.755 5.63925 13.9745C4.37158 14.3909 3.5147 15.5744 3.5147 16.9086V18.3053C3.5147 19.9621 4.85784 21.3053 6.5147 21.3053H9V19.3053H6.5147C5.96242 19.3053 5.5147 18.8574 5.5147 18.3053V16.9086C5.5147 16.4384 5.81669 16.0214 6.26344 15.8746C6.49888 15.7973 6.75368 15.8026 6.9857 15.8897L7.12802 15.9431C7.79171 16.1923 8.50429 16.2659 9.19794 16.1627C9.52288 15.2198 10.229 14.4328 11.1748 14.0182ZM13.2474 19.5H13.2723C13.2642 19.5187 13.2559 19.5373 13.2474 19.5558V19.5Z"/>
</svg>