<svg id="th-list" viewBox="0 0 20 20">
  <path d="M15.4857143,3 C16.8726857,3 18,4.11367742 18,5.48387097 L18,14.516129 C18,15.8863226 16.8726857,17 15.4857143,17 L4.51428571,17 C3.12731429,17 2,15.8863226 2,14.516129 L2,5.48387097 C2,4.11367742 3.12731429,3 4.51428571,3 L15.4857143,3 Z M15.4857143,15.6451613 C16.1156571,15.6451613 16.6285714,15.1384516 16.6285714,14.516129 L16.6285714,12.483871 L7.94285714,12.483871 L7.94285714,15.6451613 L15.4857143,15.6451613 Z M3.37142857,14.516129 C3.37142857,15.1384516 3.88434286,15.6451613 4.51428571,15.6451613 L6.57142857,15.6451613 L6.57142857,12.483871 L3.37142857,12.483871 L3.37142857,14.516129 Z M4.51428571,4.35483871 C3.88434286,4.35483871 3.37142857,4.86154839 3.37142857,5.48387097 L3.37142857,6.61290323 L6.57142857,6.61290323 L6.57142857,4.35483871 L4.51428571,4.35483871 Z M16.6285714,5.48387097 C16.6285714,4.86154839 16.1156571,4.35483871 15.4857143,4.35483871 L7.94285714,4.35483871 L7.94285714,6.61290323 L16.6285714,6.61290323 L16.6285714,5.48387097 Z M3.37142857,11.1290323 L6.57142857,11.1290323 L6.57142857,7.96774194 L3.37142857,7.96774194 L3.37142857,11.1290323 Z M7.94285714,11.1290323 L16.6285714,11.1290323 L16.6285714,7.96774194 L7.94285714,7.96774194 L7.94285714,11.1290323 Z"/>
</svg>