<svg viewBox="0 0 20 20" id="thread">
    <path d="M10.1102,16.5461 C14.6082,16.5611 16.0062,15.8201 16.4222,15.3421 C16.3202,15.2811 16.1942,15.2151 16.0962,15.1641 C15.4632,14.8301 13.9762,14.0471 14.7322,12.4211 C14.8092,12.2361 14.9092,12.0211 15.0102,11.8031 C15.3012,11.1801 15.5762,10.5901 15.5762,10.0001 C15.5762,6.3901 12.6332,3.4531 9.0162,3.4531 C5.3992,3.4531 2.4562,6.3901 2.4562,10.0001 C2.4562,13.7931 5.5982,16.5461 9.9272,16.5461 L10.1102,16.5461 Z M16.7762,13.8791 C17.2932,14.1511 18.3672,14.7171 17.8742,15.7631 C16.9412,17.7441 13.1662,18.0001 10.3092,18.0001 L10.1032,18.0001 L9.9272,17.9991 C4.7552,17.9991 1.0002,14.6351 1.0002,10.0001 C1.0002,5.5881 4.5962,2.0001 9.0162,2.0001 C13.4362,2.0001 17.0332,5.5881 17.0332,10.0001 C17.0332,10.9121 16.6602,11.7121 16.3302,12.4171 C16.2382,12.6151 16.1472,12.8111 16.0662,13.0041 C15.9242,13.3121 15.8812,13.4061 16.7762,13.8791 Z M5.643,8.5885 L5.643,8.5885 C5.643,8.18726513 5.96826513,7.862 6.3695,7.862 L11.2955,7.862 C11.6967349,7.862 12.022,8.18726513 12.022,8.5885 L12.022,8.5885 C12.022,8.98973487 11.6967349,9.315 11.2955,9.315 L6.3695,9.315 C5.96826513,9.315 5.643,8.98973487 5.643,8.5885 Z M5.643,11.01 L5.643,11.01 C5.643,10.608489 5.96848899,10.283 6.37,10.283 L12.103,10.283 C12.504511,10.283 12.83,10.608489 12.83,11.01 L12.83,11.01 C12.83,11.411511 12.504511,11.737 12.103,11.737 L6.37,11.737 C5.96848899,11.737 5.643,11.411511 5.643,11.01 Z" id="path-1"></path>
</svg>
