<svg id="user-plus" viewBox="0 0 20 20">
  <path d="M6.47524131,15.6933183 C7.21913526,15.8780876 8.28297209,15.9912127 9.71880492,15.9912127 C11.1546378,15.9912127 12.2184746,15.8780876 12.9623685,15.6933183 C12.9977477,15.6845308 13.0363223,15.674235 13.0780925,15.6624308 L13.0780738,15.6623647 C13.2374784,15.6173172 13.3301831,15.451576 13.2851356,15.2921714 C13.2838275,15.2875426 13.2824082,15.282946 13.2808791,15.2783855 C13.2161577,15.0853646 13.1480482,14.9436731 13.0765504,14.8533111 C12.8730706,14.5961443 12.5658037,14.400665 12.142521,14.2227321 C11.9703616,14.1503625 11.2652166,13.8912088 11.3994117,13.9419785 C10.6072814,13.6422936 10.2249561,13.3530051 10.2265028,12.7610539 C10.2254925,12.7470757 10.2254925,12.7470757 10.2238077,12.7123449 C10.2143319,12.4839172 10.2310491,12.2223869 10.2982142,11.9591728 C10.3656585,11.6948643 10.477563,11.4631914 10.6672359,11.264193 C11.0868197,10.853518 11.2794376,10.4323824 11.2794376,9.79434075 C11.2794376,8.7608405 10.5641785,7.94903339 9.71880492,7.94903339 C8.87343135,7.94903339 8.15817223,8.7608405 8.15817223,9.79434075 C8.15817223,10.4319871 8.34638133,10.8421374 8.76891661,11.273212 C8.94701846,11.4558272 9.06310983,11.6837292 9.13382107,11.942181 C9.20736412,12.2109831 9.22522319,12.4781293 9.21405934,12.7128799 C9.21265378,13.3529962 8.83033924,13.6422855 8.03823154,13.9419659 C8.17227611,13.8912518 7.46723399,14.1503685 7.29508887,14.2227321 C6.85361959,14.40831 6.53834964,14.6129744 6.33540533,14.8868042 C6.27241167,14.9718006 6.21193925,15.1028167 6.15398807,15.2798525 L6.15399772,15.2798556 C6.10245502,15.437314 6.18831666,15.6067429 6.34577508,15.6582856 C6.34962196,15.6595449 6.35349394,15.6607261 6.35738864,15.6618287 C6.39997771,15.6738852 6.43926194,15.6843817 6.47524131,15.6933183 Z M5.45869947,5.19332162 L7.01933216,5.19332162 C7.36875661,5.19332162 7.65202109,5.4765861 7.65202109,5.82601054 L7.65202109,5.82601054 C7.65202109,6.17543499 7.36875661,6.45869947 7.01933216,6.45869947 L5.45869947,6.45869947 L5.45869947,8.01933216 C5.45869947,8.36875661 5.17543499,8.65202109 4.82601054,8.65202109 L4.82601054,8.65202109 C4.4765861,8.65202109 4.19332162,8.36875661 4.19332162,8.01933216 L4.19332162,6.45869947 L2.63268893,6.45869947 C2.28326448,6.45869947 2,6.17543499 2,5.82601054 L2,5.82601054 C2,5.4765861 2.28326448,5.19332162 2.63268893,5.19332162 L4.19332162,5.19332162 L4.19332162,3.63268893 C4.19332162,3.28326448 4.4765861,3 4.82601054,3 L4.82601054,3 C5.17543499,3 5.45869947,3.28326448 5.45869947,3.63268893 L5.45869947,5.19332162 Z M8.07603587,12.2315862 C8.05065012,12.1388005 8.01719874,12.0731312 7.98478174,12.0398903 C7.37262551,11.4153661 7.06151142,10.737378 7.06151142,9.79434075 C7.06151142,8.18390173 8.23468218,6.85237258 9.71880492,6.85237258 C11.2029277,6.85237258 12.3760984,8.18390173 12.3760984,9.79434075 C12.3760984,10.7403784 12.0566482,11.4388174 11.4481872,12.0338619 C11.4184169,12.0651769 11.385663,12.1329864 11.3608256,12.2303222 C11.3245198,12.3726014 11.3140881,12.5357991 11.3195261,12.6668917 C11.3202706,12.6819617 11.3202706,12.6819617 11.3216169,12.719898 C11.3216169,12.7073637 11.40795,12.7726882 11.7874659,12.9162695 C11.6287494,12.8562227 12.3681909,13.127981 12.5674966,13.211762 C13.8008957,13.7302388 14.4850615,14.5163421 14.4850615,15.911415 L14.4850615,16.18604 L14.2651408,16.3505202 C14.0980306,16.475503 13.7683812,16.6231028 13.226726,16.7576397 C12.3900654,16.9654505 11.2387903,17.0878735 9.71880492,17.0878735 C8.19881954,17.0878735 7.04754444,16.9654505 6.21088388,16.7576397 C5.66922867,16.6231028 5.33957926,16.475503 5.17246909,16.3505202 L4.95254833,16.18604 L4.95254833,15.911415 C4.95254833,14.5163421 5.63671414,13.7302388 6.87011324,13.211762 C7.06941891,13.127981 7.80886043,12.8562227 7.65014398,12.9162695 C8.0243928,12.7746808 8.11354021,12.7091919 8.11787351,12.6743994 C8.12480157,12.531149 8.11406841,12.3705964 8.07603587,12.2315862 Z M16.477307,12.1783798 C16.5158371,12.1688097 16.5581573,12.1574506 16.6042675,12.1443024 L16.6042817,12.1443522 C16.7636436,12.0989109 16.8559945,11.9328851 16.8105532,11.7735232 C16.810273,11.7725406 16.8099878,11.7715595 16.8096976,11.7705799 C16.779061,11.6671559 16.7482995,11.5868139 16.7174133,11.5295539 C16.5254259,11.1736284 16.1797665,10.9273528 15.6574595,10.7077937 C15.4853143,10.63543 14.7802722,10.3763133 14.9143168,10.4270274 C14.1222091,10.127347 13.7398946,9.83805769 13.738489,9.19794144 C13.7273251,8.96319076 13.7451842,8.69604464 13.8187273,8.42724251 C13.8894385,8.16879069 14.0055299,7.94088867 14.1836317,7.75827356 C14.606167,7.32719891 14.7943761,6.91704865 14.7943761,6.27940226 C14.7943761,5.24590201 14.079117,4.4340949 13.2337434,4.4340949 C12.7177895,4.4340949 12.250303,4.7364918 11.9643141,5.20712573 C11.8425844,5.40744863 11.7455166,5.6689139 11.6731107,5.99152156 L10.5764499,5.99152156 C10.627452,5.64723748 10.699169,5.35598111 10.7916011,5.11775244 C11.1958972,4.07574507 12.1286114,3.33743409 13.2337434,3.33743409 C14.7178661,3.33743409 15.8910369,4.66896324 15.8910369,6.27940226 C15.8910369,7.2224395 15.5799228,7.90042758 14.9677666,8.52495181 C14.9353496,8.55819276 14.9018982,8.62386204 14.8765125,8.71664775 C14.8384799,8.85565787 14.8277468,9.01621049 14.8346748,9.15946093 C14.8390081,9.19425344 14.9281555,9.25974232 15.3024044,9.40133103 C15.1436879,9.3412842 15.8831294,9.61304255 16.0824351,9.69682351 C17.3158342,10.2153003 18,11.0014036 18,12.3964765 L18,12.3964765 C18,12.5693263 17.918498,12.7320573 17.7800792,12.8355817 C17.6129691,12.9605645 17.2833197,13.1081643 16.7416645,13.2427013 C16.3717101,13.334591 15.9335077,13.4107115 15.4208537,13.4668642 C15.1961607,13.4914756 14.9240143,13.5192959 14.6044143,13.550325 L14.6044143,12.4539581 C14.860183,12.425352 15.0925272,12.3996071 15.3014468,12.3767234 C15.7667136,12.3257612 16.1566503,12.2580249 16.477307,12.1783798 Z"/>
</svg>