<svg id="video-off" viewBox="0 0 20 20">
  <path d="M11.6956896,10.3846732 L13.8429459,8.6668682 L16.1227415,7.9343381 C16.5910433,7.78362292 17.0661321,7.8469809 17.4277814,8.10713257 C17.7904002,8.36824422 17.9978879,8.79639052 17.9978879,9.28309494 L17.9978879,13.595277 C17.9978879,14.0819814 17.7894306,14.5091677 17.4277814,14.7702794 C17.1941152,14.938274 16.9148794,15.0237112 16.6201304,15.0237112 C16.4562733,15.0237112 16.2885378,14.9977921 16.121772,14.9440338 L13.1500431,13.9879044 L13.1500431,15 C13.1500431,15.5522847 12.7023278,16 12.1500431,16 L4.67653119,16 L6.47647359,14.5600461 L11.1956896,14.5600461 C11.471832,14.5600461 11.6956896,14.3361885 11.6956896,14.0600461 L11.6956896,10.3846732 Z M8.67391188,8.32024575 L3.95435345,8.32024575 C3.67821107,8.32024575 3.45435345,8.54410338 3.45435345,8.82024575 L3.45435345,12.4958925 L2,13.6593753 L2,7.88029183 C2,7.32800708 2.44771525,6.88029183 3,6.88029183 L10.4738543,6.88029183 L8.67391188,8.32024575 Z M16.5386559,12.8785475 L16.5425945,10.0045389 C16.5429729,9.72839678 16.3194223,9.50423259 16.0432801,9.50385415 C15.9913385,9.50378297 15.9397029,9.51180575 15.8902315,9.52763379 L13.1500431,10.4043391 L13.1500431,12.4740328 L15.8855664,13.3538492 C16.1484467,13.4383984 16.430094,13.2938325 16.5146432,13.0309522 C16.5304843,12.981699 16.538585,12.9302855 16.5386559,12.8785475 Z M4.42382545,4.71997696 C4.42382545,4.32234467 4.74617012,4 5.14380242,4 L10.0060468,4 C10.4036791,4 10.7260237,4.32234467 10.7260237,4.71997696 C10.7260237,5.11760926 10.4036791,5.43995392 10.0060468,5.43995392 L5.14380242,5.43995392 C4.74617012,5.43995392 4.42382545,5.11760926 4.42382545,4.71997696 Z M1.26850001,16.4855001 C1.00978155,16.162171 1.06215878,15.6903283 1.38548783,15.4316098 L1.3855488,15.4315611 L15.2144512,4.36843912 C15.5378508,4.1097195 16.0097467,4.16212751 16.2685,4.4855001 C16.5272185,4.80882915 16.4748412,5.28067188 16.1515122,5.53939034 L16.1514512,5.53943912 L2.3225488,16.6025611 C1.99914927,16.8612807 1.52725331,16.8088727 1.26850001,16.4855001 Z"/>
</svg>