<svg id="volume" viewBox="0 0 20 20">
  <path d="M3.75,7.09517135 L3.75,12.9048286 L5.43245947,12.9048286 L5.63894611,13.3223525 C5.65922749,13.3633623 5.71508736,13.4593296 5.80756519,13.5916741 C5.96863714,13.8221831 6.16885566,14.0544177 6.40846127,14.2708248 C6.92022706,14.7330418 7.52853553,15.0539812 8.25,15.1846116 L8.25,4.81079103 C7.49756658,4.93809941 6.88088684,5.25989714 6.37652571,5.72431357 C5.98186506,6.08771765 5.74423392,6.44589062 5.65005042,6.65418049 L5.45064532,7.09517135 L3.75,7.09517135 Z M2.25,13.4048286 L2.25,6.59517135 C2.25,6.0428866 2.69771525,5.59517135 3.25,5.59517135 L4.52731222,5.59517135 C4.72123957,5.29556612 4.9952979,4.95710146 5.36046207,4.62085778 C6.28946638,3.76542931 7.5026227,3.25 9,3.25 C9.41421356,3.25 9.75,3.58578644 9.75,4 L9.75,16 C9.75,16.4142136 9.41421356,16.75 9,16.75 C7.54610131,16.75 6.34565499,16.2353378 5.40305955,15.3840038 C5.02776988,15.0450494 4.74311016,14.7042759 4.54040759,14.4048286 L3.25,14.4048286 C2.69771525,14.4048286 2.25,13.9571134 2.25,13.4048286 Z M13.1059297,13.4256479 C12.751374,13.226302 12.6043325,12.7915868 12.7650753,12.4179423 C12.7729955,12.3994984 12.7803982,12.3818808 12.7872713,12.3650844 C13.0908386,11.6232232 13.25,10.8236722 13.25,10 C13.25,9.25397869 13.1194336,8.52774488 12.8692642,7.84624031 C12.8425298,7.77341141 12.8080786,7.6890624 12.7659105,7.59319327 C12.6002964,7.21667708 12.7473848,6.77594091 13.1059297,6.57435207 C13.4474603,6.38232932 13.8799908,6.50352942 14.0720136,6.84506006 C14.0817194,6.86232277 14.0906981,6.87998432 14.0989261,6.89799829 C14.1570809,7.02536538 14.2040637,7.13577994 14.239857,7.22924999 C14.5747836,8.10387215 14.75,9.03965062 14.75,10 C14.75,11.0478243 14.5414102,12.0663977 14.1443715,13.0081991 C14.1328828,13.0354511 14.1201673,13.0646263 14.1062251,13.0957246 L14.1062527,13.095737 C13.9451147,13.4551586 13.5231178,13.6158992 13.1636963,13.4547612 C13.1440103,13.4459355 13.124735,13.436221 13.1059297,13.4256479 Z M15.5950323,15.383161 C15.2366851,15.1816833 15.0967913,14.73628 15.2755886,14.3660941 C15.2982072,14.3193204 15.3183178,14.2765515 15.3359423,14.237798 C15.9345682,12.921521 16.25,11.4842764 16.25,10 C16.25,8.49373507 15.9251532,7.03590572 15.3091513,5.70378267 C15.2986944,5.6811693 15.2873237,5.65706979 15.2750393,5.63148416 L15.2750558,5.63147622 C15.0975612,5.26179594 15.2375748,4.81781648 15.5950323,4.61683897 C15.9442732,4.42048119 16.3865684,4.54441745 16.5829261,4.89365836 C16.5897537,4.90580172 16.5962299,4.91813923 16.602347,4.93065554 C16.6229626,4.97276348 16.6415196,5.01157619 16.6580474,5.04707933 C17.3727819,6.58239346 17.75,8.26442372 17.75,10 C17.75,11.6998647 17.3881456,13.3483643 16.7017379,14.8579624 C16.6734975,14.9200708 16.6396953,14.9911622 16.6003313,15.0712366 L16.6003442,15.071243 C16.4238097,15.4303503 15.9895861,15.5783547 15.6304788,15.4018201 C15.6184936,15.3959283 15.6066736,15.3897062 15.5950323,15.383161 Z"/>
</svg>