<svg id="volume-disable" viewBox="0 0 20 20">
  <path d="M15.3606606,10 L16.4213208,11.0606602 C16.714214,11.3535534 16.714214,11.8284271 16.4213208,12.1213203 C16.1284276,12.4142136 15.6535538,12.4142136 15.3606606,12.1213203 L14.3000004,11.0606602 L13.2393403,12.1213203 C12.946447,12.4142136 12.4715733,12.4142136 12.1786801,12.1213203 C11.8857869,11.8284271 11.8857869,11.3535534 12.1786801,11.0606602 L13.2393403,10 L12.1786801,8.93933983 C11.8857869,8.64644661 11.8857869,8.17157288 12.1786801,7.87867966 C12.4715733,7.58578644 12.946447,7.58578644 13.2393403,7.87867966 L14.3000004,8.93933983 L15.3606606,7.87867966 C15.6535538,7.58578644 16.1284276,7.58578644 16.4213208,7.87867966 C16.714214,8.17157288 16.714214,8.64644661 16.4213208,8.93933983 L15.3606606,10 Z M3.75,7.09517135 L3.75,12.9048286 L5.43245947,12.9048286 L5.63894611,13.3223525 C5.65922749,13.3633623 5.71508736,13.4593296 5.80756519,13.5916741 C5.96863714,13.8221831 6.16885566,14.0544177 6.40846127,14.2708248 C6.92022706,14.7330418 7.52853553,15.0539812 8.25,15.1846116 L8.25,4.81079103 C7.49756658,4.93809941 6.88088684,5.25989714 6.37652571,5.72431357 C5.98186506,6.08771765 5.74423392,6.44589062 5.65005042,6.65418049 L5.45064532,7.09517135 L3.75,7.09517135 Z M2.25,13.4048286 L2.25,6.59517135 C2.25,6.0428866 2.69771525,5.59517135 3.25,5.59517135 L4.52731222,5.59517135 C4.72123957,5.29556612 4.9952979,4.95710146 5.36046207,4.62085778 C6.28946638,3.76542931 7.5026227,3.25 9,3.25 C9.41421356,3.25 9.75,3.58578644 9.75,4 L9.75,16 C9.75,16.4142136 9.41421356,16.75 9,16.75 C7.54610131,16.75 6.34565499,16.2353378 5.40305955,15.3840038 C5.02776988,15.0450494 4.74311016,14.7042759 4.54040759,14.4048286 L3.25,14.4048286 C2.69771525,14.4048286 2.25,13.9571134 2.25,13.4048286 Z"/>
</svg>