<?xml version="1.0" encoding="UTF-8"?>
<!-- Created with EazyDraw for Mac ( http://www.eazydraw.com/ ) -->

<svg
    version="1.1"
    xmlns:dc="http://purl.org/dc/elements/1.1/"
    xmlns:cc="http://creativecommons.org/ns#"
    xmlns:rdf="http://www.w3.org/1999/02/22-rdf-syntax-ns#"
    xmlns:svg="http://www.w3.org/2000/svg"
    xmlns:xlink="http://www.w3.org/1999/xlink"
    xmlns="http://www.w3.org/2000/svg"
    width="182.16519"
    height="197.32876"
    viewBox="0, 0, 182.16519, 197.32876"
    preserveAspectRatio="none"
    id="svg2">
   <defs
       id="defs_C575F5E2">
      <clipPath
          id="2408BED2_clip">
         <path
             d="M86.7994580063,11.7488201391 L86.7994580063,138.051328222 C86.7994580063,153.024286954 97.9632486059,163.462967865 107.98581467,163.46511075 L107.990318007,163.46511075 C114.79370139,163.46511075 119.51252924,158.830216007 120.616376074,151.071850635
C121.016570792,148.25451654 122.107222848,147.847763084 124.745897176,146.873682329 C126.05204519,146.389856278 127.59566545,145.811830998 129.101913638,144.799222166 L129.101913638,132.56009628 C129.101913638,124.990123886 122.775687011,118.830958684 115.000393324,118.830958684
C113.443578285,118.830958684 112.179215614,117.604264182 112.179215614,116.086416896 C112.179215614,114.566426725 113.443578285,113.339732223 115.000393324,113.339732223 C125.887127341,113.339732223 134.742079311,121.965132775 134.742079311,132.56009628
L134.742079311,135.998269501 C134.814639337,135.717820178 134.885003986,135.439513739 134.948771245,135.180471339 C135.533681609,132.831985026 135.790951653,132.048440133 137.327980152,131.284164759 C145.86848658,127.013209627 152.298059174,115.197974793 151.660375323,104.934835033
C151.633974507,104.506669174 151.79451286,103.960759758 152.029789729,103.372031016 L143.61022043,93.8646115344 C140.518577898,88.8679145853 135.093902555,85.8814570312 129.101913638,85.8814570312 C116.660559959,85.8814570312 106.539044312,76.029361977 106.539044312,63.9165511854
C106.539044312,62.3986984186 107.803412612,61.1720039166 109.360227651,61.1720039166 C110.91704832,61.1720039166 112.179215614,62.3986984186 112.179215614,63.9165511854 C112.179215614,73.0022279811 119.769799283,80.3902305698 129.101913638,80.3902305698
C137.006937221,80.3902305698 144.170942243,84.2865371497 148.311462747,90.826774077 L155.0774628,98.4609672393 C156.161517466,97.0330388938 157.318137787,95.6436386248 158.241670987,94.528264506 C159.651164968,92.8348705874 160.869351543,91.3705406081 161.702733555,90.1138786062
C167.079031795,81.9637380477 167.079031795,70.5809493613 161.702733555,62.4308142834 C159.521429444,59.131797022 158.301041863,51.9685802763 158.573702063,47.609851828 C159.130027492,38.6676079919 154.908148567,29.7938701454 148.058589087,24.8571180608
L134.742079311,24.8571180608 C130.076019319,24.8571180608 126.280730299,28.5521891532 126.280730299,33.092888503 C126.280730299,34.6128770297 125.018563005,35.8395720797 123.459546959,35.8395720797 C121.904927297,35.8395720797 120.640564626,34.6128770297 120.640564626,33.092888503
C120.640564626,25.5229161092 126.966785624,19.3658910514 134.742079311,19.3658910514 L136.929980812,19.3658910514 C136.809038053,19.1817794577 136.679302529,19.0297804406 136.562761783,18.7964301843 C132.945579762,11.4726532967 128.947989562,8.880108881292 121.300230394,8.880108881292
C120.180993403,8.880108881292 118.965002206,8.929345899924 117.577501399,9.012840571652 C116.785899101,9.012840571652 115.552316741,7.726201753216 114.356117713,6.484520760994 C112.267171425,4.311579435668 109.476768397,1.400051591954 105.050392916,0.905519887424
L103.625508778,0.764224879784 C94.5066893757,0.764224879784 86.7995649605,5.797314693772 86.7995649605,11.7488201391 M99.8983834008,37.1775908013 C99.6279185785,35.6832916781 100.654803375,34.2574996403 102.187435491,33.9963181921
C107.218507877,33.1421271657 112.278165197,34.2360910735 116.449466013,37.0833943122 C120.620772458,39.930697003 123.404572467,44.1952289624 124.286331582,49.0848830764 C125.566090039,56.1924390824 132.558574193,60.9707700731 139.856705495,59.7141025906
C141.398136007,59.4507799021 142.856001463,60.4526852727 143.122069902,61.9448453478 C143.396931107,63.4391428269 142.370046311,64.8649337686 140.835218817,65.1239761686 C139.724774593,65.3123691468 138.618732382,65.4065683761 137.528080326,65.4065683761
C128.435644852,65.4065683761 120.361301408,59.04616385 118.73412172,50.0354112843 C118.109632648,46.5886763904 116.150416256,43.5850927499 113.21269217,41.5769945953 C110.270571702,39.5731783735 106.706163167,38.7939165095 103.163742178,39.4083346546
C103.005421719,39.4340218659 102.847101259,39.4468682118 102.690981805,39.4468682118 C101.338657694,39.4468682118 100.138062282,38.5156073307 99.8983834008,37.1775891572 M103.185729724,134.499691733 C99.5795414752,130.988731686 97.591740148,126.321721079 97.591740148,121.363563168
C97.591740148,116.403262372 99.5795414752,111.736251764 103.185729724,108.223148833 C108.425700678,103.119411789 108.425700678,94.8129941175 103.185729724,89.7092570737 C102.084083895,88.6367022809 102.084083895,86.9004890362 103.185729724,85.8279342435
C104.289576558,84.7532420469 106.075082335,84.7532420469 107.174527157,85.8257420343 C114.613387756,93.0724457789 114.613387756,104.859855998 107.174527157,112.104422338 C104.632607035,114.577075381 103.231905821,117.867532065 103.231905821,121.359222593
C103.231905821,124.853056006 104.632607035,128.141369806 107.174527157,130.616171213 C108.276172985,131.688726006 108.276172985,133.424939251 107.174527157,134.497494043 C106.624804746,135.036985767 105.903567096,135.304588744 105.18012844,135.304588744
C104.458890791,135.304588744 103.735457764,135.036985767 103.185729724,134.499636928"
             clip-rule="nonzero"/>
      </clipPath>
      <clipPath
          id="C408BED2_clip">
         <path
             d="M86.3354904,0.4195515 L166.26973138,0.4195515 L166.26973138,163.7391369 L86.3354904,163.7391369 z"
             clip-rule="nonzero"/>
      </clipPath>
   </defs>
   <metadata
       id="metadata7">
      <rdf:RDF>
         <cc:Work
             rdf:about="">
            <dc:format>image/svg+xml</dc:format>
            <dc:type rdf:resource="http://purl.org/dc/dcmitype/StillImage"/>
            <dc:title></dc:title>
         </cc:Work>
      </rdf:RDF>
   </metadata>
   <g
       id="layer_Paper"
       style="fill:#000000;fill-opacity:1;stroke:#000000;stroke-opacity:1;fill-rule:nonzero;stroke-linecap:square;stroke-linejoin:miter;stroke-width:1;stroke-miterlimit:10">
      <path
          style="fill:#FFFFFF;stroke:none"
          id="FEF7BED2"
          d="M176.81563,192.11803 C166.94477,182.50355 163.20007,162.69657 161.80594,147.41534 C172.11658,133.49566 177.55891,117.37093 177.55891,100.72389 C177.55891,97.15725 177.30364,93.64199 176.81997,90.1867 C175.87892,98.23192 174.01864,106.00315 171.34034,113.39969
C169.28662,124.73325 164.49521,135.568 157.1641,145.24454 L156.59897,145.98953 L156.67777,146.9144 C157.87396,160.80407 160.98323,178.65004 168.85748,190.30903 C158.27203,188.30303 136.95811,183.40267 121.31959,174.20787
L120.21571,173.55919 L119.0261,174.04513 C113.08466,176.48352 106.94321,178.34173 100.64996,179.62842 C90.43386,182.70478 79.58015,184.36389 68.3262,184.36389 C62.40456,184.36389 56.5929,183.89709 50.92636,183.01518
C59.93083,185.40437 69.47621,186.69533 79.36029,186.69533 C93.44422,186.69533 107.04434,184.13056 119.80674,179.06968 C142.14969,191.74763 173.33442,196.12139 174.67356,196.30548 L182.16519,197.32876 z"/>
      <path
          style="fill:#FFFFFF;stroke:none"
          id="4FF7BED2"
          d="M53.23769,71.87617 C45.10842,79.12076 38.27423,87.88534 30.60007,93.66986 C23.00732,99.39012 20.17073,107.91493 12.36468,112.75963 C10.94419,113.63949 8.951969999977,115.31362 8.024079999982,114.90472 C6.50682000002,114.23253 4.897179999986,112.26506 4.637730000019,110.64658
C3.580069999995,104.03358 0.325709999996,97.55114 3.221670000025,90.57635 C3.668000000008,89.50377 2.583970000016,87.58129 1.776920000009,86.31178 C-0.129490000022,83.30823 -0.19325,81.20592 3.608720000012,79.5532
C12.5538,75.66544 21.16683,70.95138 30.33185,67.68441 C38.17522,64.89068 44.50153,64.80289 53.23769,71.87617"/>
      <path
          style="fill:#FFFFFF;stroke:none"
          id="9FF7BED2"
          d="M77.94233,142.65411 C80.71291,152.6668 74.52961,157.36807 66.67075,161.21084 C57.6333,165.62953 48.75858,165.66592 40.1411,160.4444 C39.1758,159.85787 38.70526,157.63996 38.87015,156.27624 C39.91464,147.5695 47.48985,142.85114 52.13171,136.3387
C54.73075,132.69502 57.98948,129.50517 60.7404,125.95353 C62.62917,123.51299 64.51147,123.21751 66.90825,125.08009 C67.67128,125.67518 68.46069,126.29821 69.34462,126.67496 C76.64717,129.77063 80.60958,134.60246 77.94233,142.65411"/>
      <path
          style="fill:#FFFFFF;stroke:none"
          id="DFF7BED2"
          d="M39.7673,42.64321 C41.55718,38.98237 43.34047,35.31936 45.13478,31.66284 C49.63818,22.48297 54.24044,13.34808 58.59864,4.10397 C60.04769,1.02969 62.16741,-0.04068 65.50316,0 C74.12944,0.10727 78.7867,4.50429 78.75146,12.80645
C78.72736,17.90373 78.97372,23.02243 78.5099,28.08121 C78.35207,29.82177 76.76179,32.395 75.23133,32.90668 C63.85427,36.71735 52.32986,40.10627 40.85163,43.62795 C40.48887,43.30046 40.12817,42.97073 39.76755,42.64321"/>
      <path
          style="fill:#FFFFFF;stroke:none"
          id="2008BED2"
          d="M78.33368,34.70067 L78.33368,77.18115 C77.75545,77.36315 77.28261,77.62241 77.18809,77.52799 C70.83551,71.11619 61.10314,73.1585 53.88639,68.67781 C51.14,66.97365 49.19836,65.68927 49.504,62.22319 C49.96577,57.01455 49.92182,51.75449 50.53969,46.56946
C50.72447,45.02804 52.11405,42.81443 53.46864,42.35199 C61.41323,39.64168 69.51174,37.35958 78.33368,34.70067"/>
      <path
          style="fill:#FFFFFF;stroke:none"
          id="7008BED2"
          d="M6.5398,49.57305 C7.107089999985,45.40696 7.768929999989,42.37341 7.885490000002,39.32273 C8.191070000008,31.39097 13.49267,24.82932 21.42629,23.43353 C22.75444,23.20055 25.2876,24.1357 25.69657,25.13547
C28.48257,31.96044 33.53121,37.97402 33.34207,45.92294 C33.26077,49.40174 36.64485,50.5064 39.62656,48.38698 C41.85841,46.80068 44.18268,45.33632 47.20397,43.3261 L47.20397,64.19491 C46.76195,64.50349 46.32003,64.81148 45.87801,65.11759
C44.3124,64.13069 42.71162,63.19299 41.19221,62.14183 C39.90139,61.25119 38.65683,59.34805 37.47161,59.40801 C25.50304,60.02245 16.70304,51.96861 6.5398,49.57305"/>
      <path
          style="fill:#FFFFFF;stroke:none"
          id="B008BED2"
          d="M67.84723,80.88696 C66.52781,85.2521 65.60866,88.45265 64.59723,91.62535 C62.66881,97.67107 60.74256,103.72105 58.71077,109.73244 C57.20012,114.20038 55.15734,114.91114 51.09821,112.38709 C45.6119,108.97676 40.20705,105.43794 34.7428,101.99339
C31.64018,100.03666 30.90573,97.86373 33.71809,95.05923 C40.54128,88.24927 47.40404,81.47353 54.08431,74.53077 C57.28586,71.2018 60.43025,73.31907 62.85789,74.83935 C65.16014,76.28017 66.50145,79.1724 67.84723,80.88723"/>
      <path
          style="fill:#FFFFFF;stroke:none"
          id="0108BED2"
          d="M36.28206,148.53073 C34.11616,133.64336 31.94798,118.75393 29.56,102.35516 C32.84959,104.04428 34.69443,104.84712 36.38537,105.88755 C40.80735,108.60427 45.19414,111.3852 49.52819,114.23463 C50.71339,115.01606 52.24158,115.94943 52.62862,117.12046
C53.87761,120.92473 56.34472,122.1086 60.45011,120.83264 C60.64175,121.24364 60.83219,121.65689 61.02402,122.06793 C53.29712,131.11936 45.56796,140.17077 37.84104,149.22432 C37.32213,148.99312 36.8032,148.76199 36.28206,148.53073"/>
      <path
          style="fill:#FFFFFF;stroke:none"
          id="4108BED2"
          d="M32.84516,152.79954 C25.46349,150.88136 21.84849,147.95484 21.61096,141.77426 C21.56076,140.45341 19.57044,138.70646 18.05759,138.01495 C10.23394,134.44194 7.53591,121.44711 13.49928,115.28153 C17.47489,111.17113 21.42408,107.03287 26.30125,103.25858
C28.80138,119.8115 33.81488,135.63863 32.84516,152.79954"/>
      <path
          style="fill:#FFFFFF;stroke:none"
          id="9108BED2"
          d="M78.47225,129.53515 C72.69356,125.87001 67.66031,123.37167 63.60767,119.81366 C61.6265,118.07315 60.12244,114.0377 60.73153,111.59497 C63.11518,102.06403 66.23319,92.68718 69.58433,83.42596 C70.167,81.81821 73.12018,80.29394 75.12555,80.08623
C77.92913,79.79524 78.5272,82.16714 78.51405,84.71691 C78.42845,99.28092 78.47225,113.84504 78.47225,129.53515"/>
      <path
          style="fill:#FFFFFF;stroke:none"
          id="D108BED2"
          d="M0.00028,77.24107 C0.61816,72.81599 1.37678,68.40378 1.80117,63.95939 C2.04072,61.46531 1.44929,58.89209 1.73277,56.40658 C2.26714,51.701 3.68319,50.98387 8.20851,52.76074 C15.16361,55.49244 22.10335,58.26049 29.02763,61.0671
C30.12053,61.5103 31.09467,62.23603 33.35068,63.54197 C21.96917,68.66283 11.75534,73.26343 1.53928,77.86197 C1.0269,77.65449 0.51238,77.44878 0,77.24107"/>
      <path
          style="fill:#FFFFFF;stroke:none"
          id="1208BED2"
          d="M35.79392,41.24092 C33.1662,35.18451 30.42417,29.17093 28.02963,23.02889 C27.63386,22.01413 28.33963,19.89687 29.26098,19.21388 C32.92871,16.49722 36.58767,13.23459 40.82059,11.92444 C44.8489,10.67842 48.4309,9.80929 50.83429,6.10994
C51.66775,4.82971 53.42903,4.11895 54.76598,3.14701 C55.14403,3.43361 55.52019,3.71864 55.89831,4.00546 C49.81183,16.41801 43.72532,28.82837 37.63879,41.24092 C37.0231,41.24092 36.40957,41.24092 35.79392,41.24092"/>
      <g
          id="C408BED2"
          clip-path="url(#C408BED2_clip)">
         <g
             id="4208BED2">
            <g
                id="2408BED2"
                clip-path="url(#2408BED2_clip)">
               <g
                   id="C208BED2">
                  <polyline
                      style="fill:#FFFFFF;stroke:none"
                      id="6308BED2"
                      points="167.078924841,0.764224879784 167.078924841,163.46511075 86.7994580063,163.46511075 86.7994580063,0.764224879784 167.078924841,0.764224879784"/>
               </g>
            </g>
         </g>
      </g>
      <path
          style="fill:#FFFFFF;stroke:none"
          id="3808BED2"
          d="M72.58118,126.28041 C69.35734,124.29721 65.75598,121.907 64.57802,120.96891 C62.10697,119.0011 60.59106,116.05509 60.55068,113.14246 C60.49358,108.99826 68.57796,83.71423 70.50753,82.00323 C72.16456,80.53394 73.5567,79.96078 75.46848,79.96078
C78.78984,79.96078 78.71128,79.30044 78.56932,106.03577 L78.44254,129.88634 L72.58109,126.28041 z"/>
      <path
          style="fill:#FFFFFF;stroke:none"
          id="8808BED2"
          d="M75.80202,76.44171 C74.19176,74.7729 70.88043,73.52493 64.24077,72.08448 C57.69092,70.66346 54.35628,69.31216 51.54464,66.93955 L49.62376,65.31856 L49.77035,59.20518 C49.99019,50.04208 50.57292,45.35114 51.66977,43.92084
C52.70118,42.57586 54.55171,41.88292 67.86156,37.8574 C72.51936,36.44868 76.75291,35.16552 77.26945,35.00591 C78.18769,34.72195 78.20574,35.18834 78.08141,55.99091 C77.99531,70.41958 77.78791,77.32006 77.43763,77.43369
C77.1534,77.52559 76.41749,77.0794 75.80207,76.44171 z"/>
      <path
          style="fill:#FFFFFF;stroke:none"
          id="D808BED2"
          d="M40.18289,43.19575 C39.85396,42.8041 41.76332,38.44503 46.37507,29.05984 C50.04239,21.59652 54.52165,12.44779 56.32891,8.72937000001 C60.1404,0.887460000022 61.00804,0.071999999984 65.54305,0.069050000001
C70.99911,0.06605 75.30559,2.200069999984 77.34813,5.920419999997 C78.35755,7.759009999978 78.45504,8.650590000011 78.6025,17.39251 C78.78408,28.16934 78.6347,29.45216 76.94491,31.40472 C75.66254,32.88852 71.32849,34.42132 50.60065,40.72182
C45.76496,42.19172 41.54979,43.47704 41.23363,43.57813 C40.91759,43.67968 40.44467,43.50733 40.18289,43.19572 z"/>
      <path
          style="fill:#FFFFFF;stroke:none"
          id="2908BED2"
          d="M32.77763,34.45089 C27.11875,21.41907 27.08634,21.2533 29.72491,18.8512 C32.5691,16.26196 38.29073,12.80241 41.47032,11.74952 C46.34675,10.13474 47.72866,9.321350000019 50.88913,6.205929999989 C53.63987,3.494370000013 54.85313,2.87593 55.48109,3.865189999987
C55.64492,4.122780000019 51.71372,12.62965 46.74539,22.76854 C39.89801,36.7419 37.4847,41.23766 36.77308,41.34654 C35.98911,41.4661 35.32984,40.32862 32.77763,34.45089 z"/>
      <path
          style="fill:#FFFFFF;stroke:none"
          id="8908BED2"
          d="M43.76228,63.93257 C42.68775,63.25607 41.02293,62.01932 40.06292,61.18416 C38.50761,59.83132 37.89505,59.63342 34.44566,59.36941 C29.86984,59.01907 25.27735,57.57068 18.17821,54.23854 C15.32454,52.89911 11.5609,51.30401 9.814689999994,50.69385
C7.431140000015,49.86101 6.65375,49.3697 6.696049999986,48.7226 C6.728250000003,48.24843 7.107939999994,44.999 7.542399999999,41.50136 C8.437870000016,34.29387 9.694379999985,30.95921 12.64884,27.94983
C14.74199,25.8178 19.65555,23.36289 21.78185,23.3868 C24.38212,23.4176 25.30494,24.37742 28.16075,30.03277 C32.10542,37.84425 32.80985,39.7813 33.25264,44.03522 C33.57474,47.13423 33.84896,47.9783 34.76585,48.70119
C36.33002,49.93429 37.63428,49.51851 42.6714,46.18053 C45.02652,44.61985 47.05974,43.34292 47.18961,43.34292 C47.31917,43.34292 47.42554,48.00815 47.42554,53.71005 C47.42554,61.13933 47.2596,64.23892 46.83941,64.64786
C46.08209,65.38521 46.0622,65.38054 43.76212,63.93257 z"/>
      <path
          style="fill:#FFFFFF;stroke:none"
          id="C908BED2"
          d="M0.04561,76.86651 C0.04561,76.47221 0.390660000013,73.95796 0.812540000007,71.27875 C1.234330000006,68.59947 1.619030000011,63.72286 1.667340000014,60.44176 C1.739439999991,55.53503 1.915740000011,54.23774 2.659090000009,53.13331
C3.444710000015,51.96624 3.796179999987,51.82175 5.345559999988,52.02923 C8.865420000005,52.50046 33.86856,62.88286 33.1556,63.577 C32.42,64.29312 2.08986999999,77.58299 1.191080000012,77.58299 C0.496220000006,77.58299 0.04561,77.30119 0.04561,76.86651
z"/>
      <path
          style="fill:#FFFFFF;stroke:none"
          id="2A08BED2"
          d="M6.163339999985,113.73752 C5.016839999998,112.57246 4.528659999992,111.25197 3.394280000009,106.24752 C1.916439999992,99.72797 1.663729999976,95.24034 2.561129999979,91.45509 C3.083070000014,89.25395 3.034669999993,88.939 1.879720000019,87.01994
C0.446530000008,84.63855 0.19934,83.55758 0.680340000018,81.77562 C1.046710000024,80.41733 2.976420000012,79.4077 19.58378,71.88408 C33.04162,65.78733 38.44657,64.64646 44.46863,66.63141 C47.37867,67.59056 52.42052,70.4202 53.0851,71.46718
C53.46396,72.06365 36.11856,89.60676 31.20619,93.59575 C28.75284,95.588 25.58955,98.93018 22.5567,102.73432 C17.497,109.08081 15.04049,111.50569 11.384,113.76337 C8.567830000022,115.5021 7.896520000021,115.49885 6.163339999985,113.73707
z"/>
      <path
          style="fill:#FFFFFF;stroke:none"
          id="6A08BED2"
          d="M50.71597,112.10841 C49.19917,111.21908 44.55707,108.30474 40.40035,105.63203 C32.06964,100.27564 31.1144,99.20738 32.47821,96.77301 C32.89616,96.02683 38.35365,90.32933 44.60591,84.11184 C54.91777,73.85744 56.12298,72.80825 57.58064,72.81734
C60.58373,72.83484 64.01395,75.23481 66.8922,79.32876 L67.95239,80.8368 L65.48152,88.83987 C60.98736,103.39643 58.06024,111.7603 57.11385,112.74926 C55.77461,114.14887 53.87121,113.95818 50.71597,112.10841
z"/>
      <path
          style="fill:#FFFFFF;stroke:none"
          id="BA08BED2"
          d="M30.81824,152.27618 C25.3301,150.64495 21.55274,146.45749 21.54039,141.99096 C21.53739,140.88401 19.83758,139.1965 16.78058,137.26512 C11.49467,133.92565 8.89545,125.64033 11.10068,119.16001 C11.76985,117.1935 13.04184,115.70691 19.00602,109.92085
L26.11379,103.02528 L26.49467,104.6897 C27.46475,108.92471 31.34188,130.22015 32.01715,135.02278 C32.79166,140.5317 33.06034,152.75317 32.40524,152.68006 C32.20396,152.65376 31.4894,152.47611 30.81771,152.27611
z"/>
      <path
          style="fill:#FFFFFF;stroke:none"
          id="0B08BED2"
          d="M36.47262,148.49938 C36.01482,147.77816 29.67075,103.27067 29.98249,102.9671 C30.44356,102.51802 36.70287,105.97063 44.6148,111.03768 C51.01065,115.13379 51.95119,115.90771 53.01307,117.9479 C54.39041,120.59416 56.24973,121.61266 58.83961,121.13963
C60.0009,120.92777 60.57544,121.02569 60.74916,121.46668 C61.05515,122.24425 38.39493,148.91659 37.42785,148.91659 C37.04818,148.91659 36.61823,148.72801 36.47262,148.49943 z"/>
      <path
          style="fill:#FFFFFF;stroke:none"
          id="5B08BED2"
          d="M48.60341,163.90418 C46.96752,163.5578 44.29417,162.61802 42.66246,161.8161 C40.2777,160.64405 39.58835,160.04117 39.14809,158.74241 C37.88795,155.02499 40.47666,149.53555 46.83712,142.43771 C49.17573,139.82794 51.73719,136.84752 52.52935,135.81451
C56.59025,130.51884 62.40168,124.12692 63.37094,123.89006 C64.11829,123.70764 65.45136,124.1925 67.54802,125.40898 C74.11414,129.21985 75.78972,130.43963 77.09291,132.35742 C78.43683,134.33517 78.44254,134.3789 78.42406,142.46232
C78.40826,149.84383 78.30985,150.7585 77.34942,152.53667 C74.20453,158.36024 61.67536,164.68694 53.5314,164.56376 C52.45686,164.55046 50.23915,164.25078 48.60341,163.90418 z"/>
      <path
          style="fill:#FFFFFF;stroke:none"
          id="3C08BED2"
          d="M105.30277,163.18227 C98.06409,162.16775 90.9702,155.42584 88.21868,146.94565 L86.99061,143.16068 L86.99061,76.3459200001 C86.99061,1.711210000049 86.64881,8.354679999954 90.66656,4.911470000025 C93.66953,2.33792000007 97.75902,1.0184 102.73168,1.0184
C107.67271,1.0184 109.24233,1.692589999973 113.39997,5.600369999944 L116.77547,8.773150000013 L121.30797,8.877279999991 C126.86902,9.00528999999 130.04704,10.18111 132.85948,13.1516400001 C134.51032,14.89535 136.813,18.4812400001 136.813,19.30836
C136.813,19.44945 135.63918,19.5655 134.20451,19.5655 C131.04062,19.5655 126.3058,21.68154 124.29969,23.992 C121.36578,27.3711100001 119.84963,33.08671 121.43476,34.79205 C122.4652,35.90057 124.2402,36.01843 125.24033,35.0448
C125.63006,34.6654499999 126.09639,33.39719 126.2767,32.2263799999 C126.69872,29.4865399999 128.28134,27.22758 130.72177,25.88191 C132.50853,24.8965899999 133.27994,24.81186 140.52418,24.8046400001 L148.38723,24.79664
L151.16175,27.62861 C156.17758,32.74832 158.76187,39.8423 158.79223,48.57451 C158.81233,54.27115 159.75459,58.2379 162.25047,63.1283699999 C164.82836,68.17959 165.61905,71.2357800001 165.62602,76.1756600001
C165.63832,83.3407199999 163.91295,87.66756 158.25684,94.6771 L155.13005,98.5521399999 L153.26654,96.50885 C152.24159,95.38514 149.85298,92.59413 147.95856,90.3067399999 C142.36676,83.55505 138.04815,81.27149 129.35725,80.4710399999
C119.4241,79.5559999999 113.73973,74.6841799999 112.28724,65.84099 C111.99454,64.0603099999 111.54162,62.33589 111.28033,62.00888 C110.4339,60.9497299999 108.09257,61.3016900001 107.20431,62.62162 C106.49029,63.68253 106.46207,64.24287 106.97121,67.2443
C108.38466,75.5772700001 114.34488,82.2568099999 122.57716,84.7338200001 C124.28452,85.24752 126.71111,85.66784 127.96965,85.66784 C133.42685,85.66784 139.65906,88.46188 142.50437,92.1840900001 C143.26374,93.17735 145.73034,96.0841500001 147.98581,98.6435799999
L152.08669,103.29695 L151.74767,107.36342 C150.92714,117.20805 145.91088,125.981 138.41237,130.68529 C136.56405,131.8449 135.74974,132.70124 135.46001,133.78989 C135.11254,135.09509 134.98436,134.74401 134.4871,131.12536
C134.16781,128.80181 133.38192,125.82529 132.71119,124.39896 C130.12566,118.90047 124.30268,114.7142 117.82785,113.69909 C114.05501,113.10746 112.39011,113.82958 112.39011,116.05618 C112.39011,117.88668 113.26094,118.47171 116.68787,118.94328
C121.39953,119.59175 124.95504,121.9397 127.42877,126.03652 C128.73647,128.20222 128.75332,128.33897 128.75332,136.77363 L128.75332,145.31712 L125.66644,146.57271 C121.77344,148.15616 121.17732,148.75239 120.6391,151.60151
C120.39915,152.87127 119.54255,155.22346 118.7354,156.82843 C116.11817,162.03346 111.77191,164.08931 105.30261,163.18269 z M107.45442,133.64653 C108.12912,132.47061 108.05971,132.24971 106.13293,129.44056
C101.7302,123.02151 102.16714,117.58742 107.57467,111.50965 C113.96274,104.32987 114.15286,93.75813 108.01629,86.95352 C104.57498,83.13761 100.4869,86.4539900001 103.84399,90.3382299999 C105.96463,92.7919500001 106.99579,95.62023 106.99579,98.98308
C106.99579,102.70537 105.92337,105.26686 103.04701,108.41499 C101.93178,109.63552 100.33569,112.02514 99.50012,113.72529 C98.12946,116.51402 97.98089,117.25838 97.98089,121.33424 C97.98089,125.40147 98.13178,126.16023 99.4922,128.94308
C102.34326,134.77417 105.67714,136.74356 107.45442,133.64653 z M142.18603,64.26739 C142.72331,63.7443 143.15953,62.9418100001 143.15548,62.48408 C143.13968,60.6439300001 142.33124,60.25155 137.93609,59.94887
C132.85704,59.5989599999 130.57592,58.6292099999 127.70862,55.6007100001 C125.75257,53.53464 124.77193,51.48138 123.58301,46.9624500001 C122.30508,42.1051200001 118.03657,37.5359900001 112.58254,35.1871000001
C109.71272,33.9511900001 103.39978,33.50323 101.64427,34.41098 C100.18864,35.1636299999 99.7228,37.62684 100.86204,38.5473700001 C101.27645,38.88233 103.2598,39.1899000001 105.42509,39.2552 C108.58117,39.3505999999 109.70909,39.61128 111.83549,40.73813
C115.70658,42.78937 117.62113,45.38884 118.9197,50.3566799999 C119.93393,54.23652 121.28015,56.7425900001 123.75344,59.3549599999 C127.48779,63.2992699999 131.86686,65.13464 137.66783,65.18673 C140.58535,65.2130299999 141.3812,65.0509399999 142.18603,64.26739
z"/>
   </g>
</svg>
