<?xml version="1.0" encoding="UTF-8"?>
<svg width="512px" height="512px" viewBox="0 0 512 512" version="1.1" xmlns="http://www.w3.org/2000/svg" xmlns:xlink="http://www.w3.org/1999/xlink">
    <!-- Generator: Sketch 51 (57462) - http://www.bohemiancoding.com/sketch -->
    <title>Icon </title>
    <desc>Created with Sketch.</desc>
    <defs></defs>
    <g id="Icon-" stroke="none" stroke-width="1" fill="none" fill-rule="evenodd">
        <g id="Group" transform="translate(84.000000, 104.000000)">
            <g id="icon" transform="translate(0.039251, 0.592328)">
                <path d="M302.2871,117.711837 L302.291573,117.71882 C302.290828,117.717656 302.290082,117.716493 302.289336,117.715329 C302.288591,117.714165 302.287845,117.713001 302.2871,117.711837 Z M103.853555,12.8161369 C114.479165,18.7184801 124.523069,26.1862428 133.10066,34.4865241 C146.927378,31.9818529 161.184352,30.7188439 175.647849,30.7188439 C218.945405,30.7188439 259.995302,42.0788089 291.228471,62.6996534 C307.402667,73.3836418 320.258727,86.0599822 329.435234,100.380013 C339.654682,116.336619 344.834969,133.495752 344.834969,151.882316 C344.834969,169.77435 339.654682,186.940598 329.435234,202.893646 C320.258727,217.220793 307.402667,229.893575 291.228471,240.577564 C259.995302,261.198408 218.948847,272.551258 175.647849,272.551258 C161.184352,272.551258 146.93082,271.288249 133.10066,268.787135 C124.519627,277.083859 114.479165,284.555179 103.853555,290.457522 C47.08037,318.894791 0,291.126383 0,291.126383 C0,291.126383 43.7725592,253.958343 36.6543983,221.37627 C17.0691296,201.299764 6.45728718,177.08557 6.45728718,151.394901 C6.45728718,126.188089 17.0725716,101.973895 36.6543983,81.8938316 C43.7713805,49.320711 0.0144948349,12.1595847 3.60012553e-06,12.1472789 C0.014004383,12.1390162 47.0888136,-15.6204599 103.853555,12.8161369 Z" id="rocket" fill="#DB2323" fill-rule="nonzero"></path>
                <path d="M69.925033,208.173342 C50.4407832,192.793554 38.7455021,173.112627 38.7455021,151.661726 C38.7455021,102.438964 100.327182,62.5360308 176.292035,62.5360308 C252.256887,62.5360308 313.838567,102.438964 313.838567,151.661726 C313.838567,200.884488 252.256887,240.787421 176.292035,240.787421 C157.569795,240.787421 139.72122,238.363631 123.452894,233.973894 L111.559161,245.463137 C105.096582,251.705932 97.5219247,257.355364 89.6264401,261.807163 C79.1610588,266.954973 68.8266947,269.763549 58.6022549,270.620523 C59.1790333,269.570206 59.7101411,268.506214 60.2802987,267.454244 C72.1977791,245.465877 75.4126905,225.705576 69.925033,208.173342 Z" id="bubble" fill="#FFFFFF"></path>
                <path d="M110.48867,171.559023 C99.2955147,171.559023 90.2216692,162.515313 90.2216692,151.359331 C90.2216692,140.20335 99.2955147,131.15964 110.48867,131.15964 C121.681826,131.15964 130.755671,140.20335 130.755671,151.359331 C130.755671,162.515313 121.681826,171.559023 110.48867,171.559023 Z M175.738527,171.559023 C164.545372,171.559023 155.471526,162.515313 155.471526,151.359331 C155.471526,140.20335 164.545372,131.15964 175.738527,131.15964 C186.931683,131.15964 196.005529,140.20335 196.005529,151.359331 C196.005529,162.515313 186.931683,171.559023 175.738527,171.559023 Z M240.988385,171.559023 C229.795229,171.559023 220.721383,162.515313 220.721383,151.359331 C220.721383,140.20335 229.795229,131.15964 240.988385,131.15964 C252.18154,131.15964 261.255386,140.20335 261.255386,151.359331 C261.255386,162.515313 252.18154,171.559023 240.988385,171.559023 Z" id="circles" fill="#DB2323" fill-rule="nonzero"></path>
            </g>
        </g>
    </g>
</svg>