<?xml version="1.0" encoding="utf-8"?>
<!-- Generator: Adobe Illustrator 16.0.0, SVG Export Plug-In . SVG Version: 6.00 Build 0)  -->
<!DOCTYPE svg PUBLIC "-//W3C//DTD SVG 1.1//EN" "http://www.w3.org/Graphics/SVG/1.1/DTD/svg11.dtd">
<svg version="1.1" id="Layer_1" xmlns="http://www.w3.org/2000/svg" xmlns:xlink="http://www.w3.org/1999/xlink" x="0px" y="0px"
	 width="195.07px" height="89px" viewBox="0 0 195.07 89" enable-background="new 0 0 195.07 89" xml:space="preserve">
<g>
	<path fill="#BE1E2D" d="M0,83.471C9.91,86.99,21.29,89,33.4,89c13.38,0,25.87-2.439,36.45-6.67C81.33,85,94.21,86.5,107.82,86.5
		c48.188,0,87.25-18.8,87.25-42s-39.062-42-87.25-42C94.21,2.5,81.33,4,69.85,6.67C59.271,2.44,46.78,0,33.4,0
		C21.29,0,9.91,2.01,0,5.53c11.551,4.8,20.46,14.92,23.9,27.43c-2.17,3.67-3.33,7.54-3.33,11.54s1.16,7.87,3.33,11.54
		C20.46,68.55,11.551,78.67,0,83.471z"/>
	<path fill="#E6E7E8" d="M36.221,74.46c5.3,0.961,11.188,0.938,17.27-0.267c5.29-1.049,10.17-2.895,14.41-5.303
		c2.79,0.784,5.72,1.48,8.77,2.088c9.42,1.867,19.98,2.929,31.15,2.929c39.54,0,71.58-13.191,71.58-29.466
		c0-16.274-32.04-29.466-71.58-29.466c-11.17,0-21.73,1.061-31.15,2.928C58.5,21.527,44.601,28.222,38.971,36.343
		c-1.78,2.574-2.73,5.292-2.73,8.099c0,2.806,0.95,5.524,2.73,8.098c1.56,2.243,3.76,4.387,6.51,6.387
		C44.45,65.355,41.08,71.002,36.221,74.46z"/>
	<g>
		<g>
			<defs>
				<path id="SVGID_1_" d="M36.221,69.703c10.098,1.684,21.162,0.373,31.68-5.123c2.79,0.722,5.72,1.361,8.77,1.92
					c9.42,1.719,19.98,2.695,31.15,2.695c39.54,0,71.58-12.137,71.58-27.11c0-14.972-32.04-27.109-71.58-27.109
					c-11.17,0-21.73,0.976-31.15,2.693c-18.17,3.334-32.068,9.494-37.698,16.965c-1.78,2.369-2.73,4.87-2.73,7.451
					C36.24,44.666,41.08,66.521,36.221,69.703z"/>
			</defs>
			<clipPath id="SVGID_2_">
				<use xlink:href="#SVGID_1_"  overflow="visible"/>
			</clipPath>
			<path clip-path="url(#SVGID_2_)" fill="#FFFFFF" d="M36.221,74.46c5.3,0.961,11.188,0.938,17.27-0.267
				c5.29-1.049,10.17-2.895,14.41-5.303c2.79,0.784,5.72,1.48,8.77,2.088c9.42,1.867,19.98,2.929,31.15,2.929
				c39.54,0,71.58-13.191,71.58-29.466c0-16.274-32.04-29.466-71.58-29.466c-11.17,0-21.73,1.061-31.15,2.928
				C58.5,21.527,44.601,28.222,38.971,36.343c-1.78,2.574-2.73,5.292-2.73,8.099c0,2.806,0.95,5.524,2.73,8.098
				c1.56,2.243,3.76,4.387,6.51,6.387C44.45,65.355,41.08,71.002,36.221,74.46z"/>
		</g>
	</g>
	<circle fill="#BE1E2D" cx="135.904" cy="45.06" r="8.833"/>
	<circle fill="#BE1E2D" cx="106.237" cy="45.06" r="8.833"/>
	<circle fill="#BE1E2D" cx="76.57" cy="45.06" r="8.834"/>
</g>
</svg>
