<?xml version="1.0" encoding="UTF-8"?>
<svg width="257px" height="243px" viewBox="0 0 257 243" version="1.1" xmlns="http://www.w3.org/2000/svg" xmlns:xlink="http://www.w3.org/1999/xlink">
    <!-- Generator: Sketch 52.5 (67469) - http://www.bohemiancoding.com/sketch -->
    <title>Group 4</title>
    <desc>Created with Sketch.</desc>
    <defs>
        <radialGradient cx="67.6804714%" cy="5.08502053%" fx="67.6804714%" fy="5.08502053%" r="118.128208%" gradientTransform="translate(0.676805,0.050850),scale(0.941164,1.000000),rotate(123.703220),translate(-0.676805,-0.050850)" id="radialGradient-1">
            <stop stop-color="#BDD735" offset="0%"></stop>
            <stop stop-color="#7EB55C" offset="48.5323338%"></stop>
            <stop stop-color="#0474A6" offset="100%"></stop>
        </radialGradient>
    </defs>
    <g id="Page-1" stroke="none" stroke-width="1" fill="none" fill-rule="evenodd">
        <g id="Group-4" transform="translate(5.000000, 5.000000)">
            <path d="M12.1284563,232.467499 C27.1553358,205.882549 31.7340731,189.128969 25.864668,182.20676 C17.0605605,171.823447 0,139.074189 0,113 C0,50.5918233 55.2928334,8.52651283e-14 123.5,8.52651283e-14 C191.707167,8.52651283e-14 247,50.5918233 247,113 C247,175.408177 191.707167,226 123.5,226 C102.27312,226 82.297029,221.100039 64.8490904,212.468876 C47.2755457,219.135084 29.702001,225.801292 12.1284563,232.467499 Z" id="Path-Copy" stroke="#FFFFFF" stroke-width="10" fill="url(#radialGradient-1)" stroke-linecap="round" stroke-linejoin="round"></path>
            <path d="M58.5,136 C65.1114575,136 66,139.283989 66,143.333463 L66,143.666537 C66,147.721854 65.1114575,151 58.5,151 C51.8885425,151 51,147.721854 51,143.666537 L51,143.333463 C51,139.283989 51.8885425,136 58.5,136 Z M107.976521,97.9697712 C113.682395,96.3331058 119.630696,99.6420163 121.268548,105.358485 L127.051289,125.745643 L142.702533,71.0063021 C144.050657,66.0429365 147.899905,62.0402222 152.961282,60.5814553 C160.860814,58.3102855 169.10329,62.8941346 171.367902,70.8165438 L189.419752,133.95862 C191.684363,141.881029 187.119664,150.141445 179.220131,152.418545 C171.320599,154.689714 163.078123,150.105865 160.813512,142.183456 L146.309356,91.4705493 L130.953753,145.178079 C129.966311,148.629309 127.281889,151.517193 123.586375,152.572723 C117.8805,154.221249 111.926287,150.906408 110.294347,145.184009 L102.980185,119.608148 L95.062914,147.289141 C94.3533751,149.785648 92.3844049,151.908569 89.6763317,152.691322 C85.5077911,153.889172 81.1618658,151.469753 79.9674755,147.289141 L75.3081705,130.999576 C74.1078674,126.818963 76.5202994,122.454522 80.6947528,121.256673 C84.8632934,120.058824 89.2092187,122.478242 90.403609,126.658855 L92.4612716,133.845951 L100.60323,105.376275 C101.590671,101.919116 104.275093,99.0371617 107.976521,97.9697712 Z" id="Combined-Shape-Copy-4" fill="#FFFFFF"></path>
        </g>
    </g>
</svg>