<?xml version="1.0" encoding="UTF-8"?>
<svg width="512px" height="512px" viewBox="0 0 512 512" version="1.1" xmlns="http://www.w3.org/2000/svg" xmlns:xlink="http://www.w3.org/1999/xlink">
    <!-- Generator: Sketch 51 (57462) - http://www.bohemiancoding.com/sketch -->
    <title>Icon</title>
    <desc>Created with Sketch.</desc>
    <defs></defs>
    <g id="Icon--Copy" stroke="none" stroke-width="1" fill="none" fill-rule="evenodd">
        <g id="icon" transform="translate(10.000000, 40.000000)">
            <path d="M431.294,167.947654 L431.300383,167.957617 C431.299319,167.955956 431.298255,167.954296 431.297191,167.952636 C431.296127,167.950975 431.295064,167.949314 431.294,167.947654 Z M148.17508,18.2856726 C163.335376,26.7069556 177.665712,37.3617313 189.903956,49.2043192 C209.631494,45.6307307 229.97291,43.8287081 250.608986,43.8287081 C312.384616,43.8287081 370.953355,60.0367591 415.515886,89.4579503 C438.592735,104.701538 456.935368,122.787754 470.028129,143.219137 C484.608926,165.985535 492,190.467661 492,216.701049 C492,242.228856 484.608926,266.721135 470.028129,289.482457 C456.935368,309.923992 438.592735,328.005131 415.515886,343.248719 C370.953355,372.66991 312.389527,388.867809 250.608986,388.867809 C229.97291,388.867809 209.636405,387.065786 189.903956,383.497274 C177.660801,395.334786 163.335376,405.994638 148.17508,414.41592 C67.1728337,454.989347 0,415.370231 0,415.370231 C0,415.370231 62.4533504,362.340006 52.2973758,315.8529 C24.3537127,287.208355 9.2130601,252.660282 9.2130601,216.00562 C9.2130601,180.041311 24.3586237,145.493238 52.2973758,116.843617 C62.4516687,70.3692838 0.0206807877,17.348924 5.13654914e-06,17.3313664 C0.0199810259,17.3195775 67.1848809,-22.2867951 148.17508,18.2856726 Z" id="rocket" fill="#DB2323" fill-rule="nonzero"></path>
            <path d="M99.7669012,297.015365 C71.9673687,275.071954 55.2808989,246.991809 55.2808989,216.386318 C55.2808989,146.156784 143.143759,89.2244985 251.52809,89.2244985 C359.912421,89.2244985 447.775281,146.156784 447.775281,216.386318 C447.775281,286.615851 359.912421,343.548137 251.52809,343.548137 C224.81577,343.548137 199.349969,340.089947 176.138818,333.826805 L159.169203,350.219305 C149.948593,359.126335 139.141303,367.186772 127.876267,373.538462 C112.944581,380.883202 98.1998255,384.890391 83.6119072,386.113095 C84.434837,384.614535 85.1926054,383.096465 86.0060888,381.595546 C103.009586,350.223215 107.596523,322.029821 99.7669012,297.015365 Z" id="bubble" fill="#FFFFFF"></path>
            <path d="M157.64186,244.775173 C141.671807,244.775173 128.725522,231.871884 128.725522,215.95487 C128.725522,200.037857 141.671807,187.134568 157.64186,187.134568 C173.611912,187.134568 186.558198,200.037857 186.558198,215.95487 C186.558198,231.871884 173.611912,244.775173 157.64186,244.775173 Z M250.738363,244.775173 C234.76831,244.775173 221.822025,231.871884 221.822025,215.95487 C221.822025,200.037857 234.76831,187.134568 250.738363,187.134568 C266.708415,187.134568 279.654701,200.037857 279.654701,215.95487 C279.654701,231.871884 266.708415,244.775173 250.738363,244.775173 Z M343.834866,244.775173 C327.864813,244.775173 314.918528,231.871884 314.918528,215.95487 C314.918528,200.037857 327.864813,187.134568 343.834866,187.134568 C359.804918,187.134568 372.751204,200.037857 372.751204,215.95487 C372.751204,231.871884 359.804918,244.775173 343.834866,244.775173 Z" id="circles" fill="#DB2323" fill-rule="nonzero"></path>
        </g>
    </g>
</svg>
