<svg height="512" viewBox="0 0 512 512" width="512" xmlns="http://www.w3.org/2000/svg"><g fill="none" fill-rule="evenodd" transform="translate(10 40)"><path d="m431.294 167.947654.006383.009963c-.001064-.001661-.002128-.003321-.003192-.004981-.001064-.001661-.002127-.003322-.003191-.004982zm-283.11892-149.6619814c15.160296 8.421283 29.490632 19.0760587 41.728876 30.9186466 19.727538-3.5735885 40.068954-5.3756111 60.70503-5.3756111 61.77563 0 120.344369 16.208051 164.9069 45.6292422 23.076849 15.2435877 41.419482 33.3298037 54.512243 53.7611867 14.580797 22.766398 21.971871 47.248524 21.971871 73.481912 0 25.527807-7.391074 50.020086-21.971871 72.781408-13.092761 20.441535-31.435394 38.522674-54.512243 53.766262-44.562531 29.421191-103.126359 45.61909-164.9069 45.61909-20.636076 0-40.972581-1.802023-60.70503-5.370535-12.243155 11.837512-26.56858 22.497364-41.728876 30.918646-81.0022463 40.573427-148.17508.954311-148.17508.954311s62.4533504-53.030225 52.2973758-99.517331c-27.9436631-28.644545-43.0843157-63.192618-43.0843157-99.84728 0-35.964309 15.1455636-70.512382 43.0843157-99.162003 10.1542929-46.4743332-52.27669501-99.494693-52.29737066-99.5122506.01997589-.0117889 67.18487576-39.6181615 148.17507486.9543062z" fill="#db2323" fill-rule="nonzero"/><path d="m99.7669012 297.015365c-27.7995325-21.943411-44.4860023-50.023556-44.4860023-80.629047 0-70.229534 87.8628601-127.1618195 196.2471911-127.1618195s196.247191 56.9322855 196.247191 127.1618195c0 70.229533-87.86286 127.161819-196.247191 127.161819-26.71232 0-52.178121-3.45819-75.389272-9.721332l-16.969615 16.3925c-9.22061 8.90703-20.0279 16.967467-31.292936 23.319157-14.931686 7.34474-29.6764415 11.351929-44.2643598 12.574633.8229298-1.49856 1.5806982-3.01663 2.3941816-4.517549 17.0034972-31.372331 21.5904342-59.565725 13.7608124-84.580181z" fill="#fff"/><path d="m157.64186 244.775173c-15.970053 0-28.916338-12.903289-28.916338-28.820303 0-15.917013 12.946285-28.820302 28.916338-28.820302 15.970052 0 28.916338 12.903289 28.916338 28.820302 0 15.917014-12.946286 28.820303-28.916338 28.820303zm93.096503 0c-15.970053 0-28.916338-12.903289-28.916338-28.820303 0-15.917013 12.946285-28.820302 28.916338-28.820302 15.970052 0 28.916338 12.903289 28.916338 28.820302 0 15.917014-12.946286 28.820303-28.916338 28.820303zm93.096503 0c-15.970053 0-28.916338-12.903289-28.916338-28.820303 0-15.917013 12.946285-28.820302 28.916338-28.820302 15.970052 0 28.916338 12.903289 28.916338 28.820302 0 15.917014-12.946286 28.820303-28.916338 28.820303z" fill="#db2323" fill-rule="nonzero"/></g></svg>