<?xml version="1.0" encoding="utf-8"?>
<!-- Generator: Adobe Illustrator 16.0.0, SVG Export Plug-In . SVG Version: 6.00 Build 0)  -->
<!DOCTYPE svg PUBLIC "-//W3C//DTD SVG 1.1//EN" "http://www.w3.org/Graphics/SVG/1.1/DTD/svg11.dtd">
<svg version="1.1" id="Layer_5" xmlns="http://www.w3.org/2000/svg" xmlns:xlink="http://www.w3.org/1999/xlink" x="0px" y="0px"
	 width="518.085px" height="418.775px" viewBox="-15.5 51.678 518.085 418.775"
	 enable-background="new -15.5 51.678 518.085 418.775" xml:space="preserve">
<path fill="#C1272D" d="M502.586,258.858c0-24.821-7.55-48.623-22.445-70.749c-13.373-19.863-32.108-37.446-55.687-52.259
	C378.938,107.253,319.108,91.502,256,91.502c-21.079,0-41.856,2.315-62.01,5.787c-12.504-11.51-26.002-19.891-41.491-28.082
	c-82.746-39.441-168,0-168,0s72.672,30.49,68.924,93.266c-28.542,27.848-44.01,61.426-44.01,96.387c0,0.11,0.006,0.222,0.006,0.334
	c0,0.111-0.006,0.223-0.006,0.333c0,34.961,15.469,68.54,44.01,96.388C63.798,401.1-15.5,456.072-15.5,456.072
	s84.118,35.088,166.863-4.352c15.488-8.19,30.124-18.548,42.627-30.059c20.154,3.471,40.931,5.224,62.009,5.224
	c63.108,0,122.937-15.752,168.454-44.35c23.577-14.813,42.312-32.396,55.687-52.26c14.896-22.126,22.445-45.927,22.445-70.749
	c0-0.11-0.006-0.222-0.006-0.333C502.58,259.081,502.586,258.971,502.586,258.858z"/>
<path fill="#FFFFFF" d="M256,127.5c116.854,0,211.586,59.247,211.586,132.334c0,73.085-94.73,132.336-211.586,132.336
	c-26.019,0-50.937-2.947-73.959-8.318c-23.396,27.56-74.868,65.877-124.869,53.489c16.265-17.105,40.361-46.008,35.201-93.607
	c-29.968-22.836-47.959-52.056-47.959-83.899C44.414,186.747,139.145,127.5,256,127.5"/>
<g>
	<g>
		<circle fill="#C1272D" cx="256" cy="260.353" r="29.317"/>
	</g>
	<g>
		<circle fill="#C1272D" cx="357.938" cy="260.353" r="29.315"/>
	</g>
	<g>
		<circle fill="#C1272D" cx="154.062" cy="260.353" r="29.317"/>
	</g>
</g>
<g>
	<path fill="#CCCCCC" d="M256,376.373c-26.019,0-51.978-2.368-75-7.123c-20.659,21.54-73.352,62.192-117.45,61.127
		c-11.638,11.488-13.695,11.945-19.136,17.789c50,12.651,114.231-34.356,137.627-62.504c23.023,5.486,47.941,8.495,73.959,8.495
		c115.917,0,210.048-59.55,211.551-133.364C466.048,324.766,371.917,376.373,256,376.373z"/>
</g>
<path fill="none" d="M182.041,382.661"/>
<path fill="none" d="M182.041,93"/>
<line fill="none" x1="-15.5" y1="62.5" x2="-15.5" y2="479.166"/>
<path fill="none" d="M193.99,420.847"/>
</svg>
