<svg width="123" height="24" viewBox="0 0 123 24" xmlns="http://www.w3.org/2000/svg"><g fill-rule="nonzero" fill="none"><g fill="#1F2329"><path d="M40.353 10.944c0 1.2-.447 1.987-1.306 2.363l1.235 4.689c.053.215-.054.322-.25.322H38.17c-.178 0-.268-.09-.304-.25l-1.198-4.546h-1.235v4.51c0 .18-.107.286-.286.286h-1.86c-.18 0-.287-.107-.287-.286V4.286c0-.179.107-.286.286-.286h4.49c1.682 0 2.577.895 2.577 2.577v4.367zm-3.149.215c.465 0 .716-.25.716-.716V7.078c0-.465-.25-.715-.716-.715h-1.77v4.796h1.77zM42 6.577C42 4.895 42.894 4 44.576 4h2.004c1.682 0 2.576.895 2.576 2.577v9.164c0 1.682-.894 2.577-2.576 2.577h-2.004c-1.682 0-2.576-.895-2.576-2.577V6.577zm4.133 9.432c.465 0 .715-.233.715-.716V7.025c0-.465-.25-.716-.715-.716h-1.038c-.465 0-.715.25-.715.716v8.268c0 .483.25.716.715.716h1.038zM58.174 8.51c0 .18-.107.286-.286.286H56.1c-.197 0-.286-.107-.286-.286V7.078c0-.465-.25-.715-.715-.715h-.93c-.484 0-.716.25-.716.715v8.162c0 .483.25.715.715.715h.93c.466 0 .716-.232.716-.715v-1.432c0-.18.09-.286.286-.286h1.79c.178 0 .285.107.285.286v1.933c0 1.682-.913 2.577-2.576 2.577h-2.004c-1.681 0-2.594-.895-2.594-2.577V6.577C51 4.895 51.913 4 53.594 4h2.004c1.664 0 2.576.895 2.576 2.577V8.51zM65.761 18.318c-.215 0-.34-.09-.412-.268l-2.254-5.316-.662 1.27v3.956c0 .233-.125.358-.357.358h-1.718c-.233 0-.358-.125-.358-.358V4.358c0-.232.125-.358.358-.358h1.718c.232 0 .357.125.357.358v5.548l2.755-5.638c.09-.178.215-.268.412-.268h1.878c.269 0 .376.18.25.43l-3.04 6.246 3.237 7.23c.126.233.018.412-.268.412h-1.896zM76.139 6.076c0 .18-.072.304-.287.304H71.38v3.58h3.417c.18 0 .286.107.286.304v1.772c0 .197-.107.304-.286.304H71.38v3.615h4.472c.215 0 .287.09.287.287v1.79c0 .179-.072.285-.287.285H69.27c-.162 0-.269-.107-.269-.285V4.286c0-.179.107-.286.269-.286h6.583c.215 0 .287.107.287.286v1.79zM84.87 4c.196 0 .286.107.286.286v1.79c0 .18-.09.287-.287.287h-2.075v11.669c0 .196-.09.285-.286.285h-1.86c-.18 0-.287-.089-.287-.285V6.362h-2.075c-.18 0-.286-.107-.286-.286v-1.79c0-.179.107-.286.286-.286h6.583zM85 16.358c0-.233.125-.358.358-.358h1.628c.233 0 .358.125.358.358v1.646c0 .233-.125.358-.358.358h-1.628c-.233 0-.358-.125-.358-.358v-1.646zM96.174 8.51c0 .18-.107.286-.286.286H94.1c-.197 0-.286-.107-.286-.286V7.078c0-.465-.25-.715-.715-.715h-.93c-.484 0-.716.25-.716.715v8.162c0 .483.25.715.715.715h.93c.466 0 .716-.232.716-.715v-1.432c0-.18.09-.286.286-.286h1.79c.178 0 .285.107.285.286v1.933c0 1.682-.912 2.577-2.576 2.577h-2.004c-1.681 0-2.594-.895-2.594-2.577V6.577C89 4.895 89.913 4 91.594 4h2.004c1.664 0 2.576.895 2.576 2.577V8.51zM102.723 4.286c0-.179.107-.286.286-.286h1.843c.214 0 .303.107.303.286v13.746c0 .179-.089.285-.303.285h-1.843c-.18 0-.286-.107-.286-.285V12.34h-2.29v5.692c0 .18-.108.286-.286.286h-1.843c-.215 0-.304-.107-.304-.286V4.286c0-.179.09-.286.304-.286h1.843c.18 0 .286.107.286.286v5.692h2.29V4.286zM112.903 18.318c-.161 0-.25-.09-.287-.25l-.5-2.613h-3.185l-.483 2.612c-.036.162-.125.251-.286.251h-1.914c-.197 0-.286-.107-.233-.304l2.97-13.763c.036-.18.143-.251.304-.251h2.487c.161 0 .269.072.304.25l2.97 13.764c.036.197-.036.304-.25.304h-1.897zm-2.38-11.186l-1.145 6.246h2.29l-1.145-6.246zM121.869 4c.196 0 .286.107.286.286v1.79c0 .18-.09.287-.286.287h-2.075v11.669c0 .196-.09.285-.286.285h-1.861c-.179 0-.286-.089-.286-.285V6.362h-2.075c-.18 0-.286-.107-.286-.286v-1.79c0-.179.107-.286.286-.286h6.583z"/></g><path d="M28 11.98c0-1.416-.42-2.773-1.25-4.036-.746-1.133-1.79-2.137-3.103-2.982-2.536-1.632-5.869-2.531-9.385-2.531-1.174 0-2.332.1-3.454.298a11.433 11.433 0 0 0-2.375-1.715C3.823-1.236 0 .961 0 .961s3.554 2.942 2.976 5.52C1.386 8.07.524 9.986.524 11.98v.038c0 1.995.862 3.911 2.452 5.5C3.554 20.097 0 23.039 0 23.039s3.823 2.197 8.433-.053a11.45 11.45 0 0 0 2.375-1.715c1.123.198 2.28.298 3.454.298 3.516 0 6.85-.899 9.385-2.53 1.314-.846 2.357-1.849 3.103-2.983.83-1.262 1.25-2.62 1.25-4.037V12v-.02z" fill="#C1272D"/><path d="M14 4c6.627 0 12 3.416 12 7.629 0 4.213-5.373 7.629-12 7.629a18.23 18.23 0 0 1-4.195-.48c-1.327 1.589-4.246 3.798-7.081 3.084.922-.986 2.288-2.652 1.996-5.397-1.7-1.316-2.72-3-2.72-4.836C2 7.415 7.373 4 14 4" fill="#FFF"/><g transform="translate(7 11)" fill="#C1272D"><ellipse cx="7.615" cy="1.368" rx="1.615" ry="1.368"/><ellipse cx="12.615" cy="1.368" rx="1.615" ry="1.368"/><ellipse cx="1.614" cy="1.368" rx="1.614" ry="1.368"/></g><path d="M14.144 18.353c-1.459 0-2.855-.144-4.146-.405-1.157 1.184-3.542 2.775-6.014 2.717-.325.484-.68.88-.984 1.2 2.802.696 5.687-1.455 6.998-3.002a18.26 18.26 0 0 0 4.146.467C20.64 19.33 25.916 16.057 26 12c-.084 3.516-5.36 6.353-11.856 6.353z" fill="#CCC"/></g></svg>