<?xml version="1.0" encoding="utf-8"?>
<!-- Generator: Adobe Illustrator 16.0.0, SVG Export Plug-In . SVG Version: 6.00 Build 0)  -->
<!DOCTYPE svg PUBLIC "-//W3C//DTD SVG 1.1//EN" "http://www.w3.org/Graphics/SVG/1.1/DTD/svg11.dtd">
<svg version="1.1" id="Layer_1" xmlns="http://www.w3.org/2000/svg" xmlns:xlink="http://www.w3.org/1999/xlink" x="0px" y="0px"
	 width="645.5px" height="89px" viewBox="0 0 645.5 89" enable-background="new 0 0 645.5 89" xml:space="preserve">
<g>
	<path fill="#BE1E2D" d="M0.331,83.471c9.91,3.521,21.29,5.529,33.4,5.529c13.38,0,25.87-2.439,36.45-6.67
		C81.66,85,94.54,86.5,108.151,86.5c48.189,0,87.25-18.8,87.25-42s-39.061-42-87.25-42c-13.61,0-26.49,1.5-37.97,4.17
		C59.602,2.44,47.111,0,33.731,0c-12.11,0-23.49,2.01-33.4,5.53c11.551,4.8,20.46,14.92,23.9,27.43c-2.17,3.67-3.33,7.54-3.33,11.54
		s1.16,7.87,3.33,11.54C20.791,68.55,11.882,78.67,0.331,83.471z"/>
	<path fill="#E6E7E8" d="M36.552,74.46c5.3,0.961,11.189,0.938,17.27-0.267c5.29-1.049,10.17-2.896,14.41-5.303
		c2.79,0.783,5.72,1.479,8.77,2.088c9.42,1.867,19.98,2.929,31.15,2.929c39.54,0,71.58-13.191,71.58-29.466
		c0-16.274-32.04-29.466-71.58-29.466c-11.17,0-21.73,1.061-31.15,2.928c-18.17,3.624-32.069,10.319-37.699,18.439
		c-1.78,2.574-2.73,5.292-2.73,8.099c0,2.806,0.95,5.524,2.73,8.098c1.56,2.243,3.76,4.387,6.51,6.387
		C44.781,65.355,41.411,71.002,36.552,74.46z"/>
	<g>
		<g>
			<g>
				<defs>
					<path id="SVGID_1_" d="M36.552,69.703c10.098,1.684,21.163,0.373,31.68-5.123c2.79,0.722,5.72,1.361,8.77,1.92
						c9.42,1.719,19.98,2.695,31.15,2.695c39.54,0,71.58-12.137,71.58-27.11c0-14.972-32.04-27.109-71.58-27.109
						c-11.17,0-21.73,0.976-31.15,2.693c-18.17,3.334-32.069,9.494-37.699,16.965c-1.78,2.369-2.73,4.87-2.73,7.451
						C36.571,44.666,41.411,66.521,36.552,69.703z"/>
				</defs>
				<clipPath id="SVGID_2_">
					<use xlink:href="#SVGID_1_"  overflow="visible"/>
				</clipPath>
				<path clip-path="url(#SVGID_2_)" fill="#FFFFFF" d="M36.552,74.46c5.3,0.961,11.189,0.938,17.27-0.267
					c5.29-1.049,10.17-2.896,14.41-5.303c2.79,0.783,5.72,1.479,8.77,2.088c9.42,1.867,19.98,2.929,31.15,2.929
					c39.54,0,71.58-13.191,71.58-29.466c0-16.274-32.04-29.466-71.58-29.466c-11.17,0-21.73,1.061-31.15,2.928
					c-18.17,3.624-32.069,10.319-37.699,18.439c-1.78,2.574-2.73,5.292-2.73,8.099c0,2.806,0.95,5.524,2.73,8.098
					c1.56,2.243,3.76,4.387,6.51,6.387C44.781,65.355,41.411,71.002,36.552,74.46z"/>
			</g>
		</g>
	</g>
	<circle fill="#BE1E2D" cx="136.235" cy="45.06" r="8.833"/>
	<circle fill="#BE1E2D" cx="106.568" cy="45.06" r="8.833"/>
	<circle fill="#BE1E2D" cx="76.901" cy="45.06" r="8.834"/>
</g>
<g>
	<path fill="#383838" d="M224.612,61.379c0,0.318,0.102,0.578,0.306,0.782s0.736,0.353,1.598,0.442v0.814h-14.008v-0.814
		c0.861-0.09,1.394-0.238,1.598-0.442s0.306-0.464,0.306-0.782V29.691c0-0.316-0.102-0.578-0.306-0.782
		c-0.204-0.204-0.737-0.351-1.598-0.442v-0.816h24.888c5.032,0,8.681,0.918,10.948,2.754c2.266,1.836,3.4,4.682,3.4,8.534
		c0,3.128-0.918,5.576-2.754,7.344c-1.836,1.768-4.16,3.037-6.97,3.808l8.024,11.288c0.544,0.816,1.201,1.225,1.972,1.225v0.815
		h-14.144v-0.815c0.997-0.045,1.496-0.453,1.496-1.225c0-0.09-0.182-0.408-0.544-0.952c-0.364-0.544-0.816-1.2-1.36-1.972
		s-1.145-1.598-1.802-2.482c-0.658-0.884-1.292-1.732-1.904-2.55c-0.612-0.815-1.145-1.541-1.598-2.176
		c-0.454-0.634-0.748-1.065-0.884-1.292h-6.664V61.379L224.612,61.379z M236.036,42.747c1.994,0,3.366-0.374,4.114-1.122
		s1.122-1.621,1.122-2.618s-0.374-1.87-1.122-2.618s-2.12-1.122-4.114-1.122h-11.424v7.48H236.036z"/>
	<path fill="#383838" d="M273.843,27.243c2.901,0,5.632,0.397,8.194,1.19c2.561,0.793,4.804,1.961,6.732,3.502
		c1.926,1.542,3.456,3.446,4.59,5.712c1.133,2.268,1.7,4.896,1.7,7.888s-0.567,5.622-1.7,7.888c-1.134,2.269-2.664,4.171-4.59,5.712
		c-1.928,1.542-4.171,2.676-6.732,3.4c-2.562,0.727-5.293,1.088-8.194,1.088c-2.901,0-5.633-0.361-8.194-1.088
		c-2.562-0.725-4.806-1.858-6.732-3.4c-1.927-1.541-3.458-3.443-4.59-5.712c-1.134-2.266-1.7-4.896-1.7-7.888s0.566-5.621,1.7-7.888
		c1.132-2.266,2.663-4.17,4.59-5.712c1.926-1.541,4.17-2.708,6.732-3.502C268.209,27.64,270.941,27.243,273.843,27.243z
		 M273.843,35.539c-1.496,0-2.913,0.227-4.25,0.68c-1.337,0.454-2.516,1.1-3.536,1.938c-1.02,0.839-1.836,1.882-2.448,3.128
		c-0.612,1.247-0.918,2.664-0.918,4.25c0,1.587,0.306,3.003,0.918,4.25c0.612,1.247,1.428,2.29,2.448,3.128
		c1.02,0.839,2.198,1.485,3.536,1.938c1.337,0.453,2.754,0.68,4.25,0.68c1.496,0,2.913-0.227,4.25-0.68
		c1.337-0.453,2.516-1.101,3.536-1.938s1.836-1.881,2.448-3.128c0.612-1.247,0.918-2.663,0.918-4.25c0-1.586-0.306-3.003-0.918-4.25
		c-0.612-1.247-1.428-2.289-2.448-3.128c-1.02-0.838-2.199-1.484-3.536-1.938C276.755,35.766,275.339,35.539,273.843,35.539z"/>
	<path fill="#383838" d="M329.669,40.367c0.044-0.136,0.079-0.283,0.104-0.442c0.021-0.158,0.032-0.351,0.032-0.578
		c0-0.362-0.306-0.725-0.918-1.088c-0.61-0.362-1.428-0.69-2.446-0.986c-1.021-0.294-2.188-0.544-3.503-0.748
		c-1.315-0.204-2.697-0.306-4.147-0.306c-1.36,0-2.788,0.16-4.284,0.476c-1.496,0.318-2.868,0.839-4.114,1.564
		c-1.247,0.726-2.267,1.689-3.06,2.89c-0.794,1.202-1.19,2.664-1.19,4.386c0,1.723,0.396,3.186,1.19,4.386
		c0.792,1.202,1.812,2.166,3.06,2.89c1.247,0.728,2.618,1.248,4.114,1.564c1.496,0.318,2.924,0.477,4.284,0.477
		c0.588,0,1.518-0.103,2.788-0.307c1.269-0.204,2.539-0.486,3.808-0.85c1.271-0.362,2.393-0.771,3.366-1.225
		c0.974-0.451,1.462-0.929,1.462-1.429c0-0.228-0.046-0.408-0.136-0.544c-0.091-0.137-0.184-0.294-0.272-0.477l0.748-0.477
		l7.004,10.676l-0.814,0.478c-0.091-0.228-0.215-0.374-0.374-0.442c-0.159-0.066-0.354-0.104-0.578-0.104
		c-0.318,0-0.952,0.193-1.904,0.578c-0.952,0.388-2.188,0.795-3.706,1.226c-1.519,0.433-3.298,0.815-5.338,1.155
		c-2.04,0.341-4.33,0.511-6.868,0.511c-2.72,0-5.417-0.353-8.092-1.056c-2.675-0.7-5.078-1.812-7.208-3.332
		c-2.131-1.518-3.854-3.422-5.168-5.711c-1.315-2.289-1.972-4.951-1.972-7.989c0-3.037,0.657-5.701,1.972-7.99
		c1.314-2.289,3.037-4.192,5.168-5.712c2.13-1.519,4.533-2.663,7.208-3.434c2.674-0.771,5.372-1.156,8.092-1.156
		c2.722,0,5.066,0.147,7.038,0.442c1.974,0.295,3.64,0.624,4.998,0.986c1.314,0.363,2.334,0.669,3.062,0.918
		c0.725,0.25,1.269,0.374,1.632,0.374c0.408,0,0.748-0.181,1.02-0.544l0.748,0.204l-6.12,11.22L329.669,40.367z"/>
	<path fill="#383838" d="M366.252,62.604c0.408,0,0.725-0.035,0.952-0.103c0.227-0.067,0.34-0.328,0.34-0.782
		c0-0.136-0.204-0.544-0.612-1.224c-0.406-0.681-0.93-1.519-1.562-2.517c-0.635-0.996-1.337-2.062-2.108-3.195
		c-0.771-1.133-1.496-2.221-2.176-3.264s-1.292-1.949-1.836-2.722c-0.544-0.771-0.907-1.292-1.088-1.563l-6.664,5.983v8.16
		c0,0.317,0.102,0.578,0.306,0.782s0.736,0.354,1.6,0.441v0.815h-14.01v-0.815c0.861-0.09,1.396-0.237,1.6-0.441
		s0.306-0.465,0.306-0.782V29.691c0-0.316-0.102-0.578-0.306-0.782c-0.204-0.204-0.737-0.351-1.6-0.442v-0.816H353.4v0.816
		c-0.862,0.091-1.396,0.238-1.6,0.442c-0.204,0.204-0.306,0.465-0.306,0.782v12.24h0.476c1.36-1.314,2.822-2.674,4.388-4.08
		c1.562-1.405,3.002-2.708,4.316-3.91c1.314-1.201,2.414-2.221,3.298-3.06c0.886-0.838,1.326-1.348,1.326-1.53
		c0-0.408-0.114-0.646-0.34-0.714c-0.228-0.068-0.522-0.124-0.884-0.17v-0.816h17.271v0.816c-0.454,0.046-0.828,0.114-1.122,0.204
		c-0.295,0.091-0.565,0.228-0.814,0.408c-0.25,0.182-0.521,0.397-0.816,0.646c-0.295,0.25-0.646,0.556-1.054,0.918l-11.764,10.132
		l13.871,20.741c0.361,0.543,0.701,0.86,1.021,0.951c0.316,0.092,0.702,0.137,1.156,0.137v0.815h-15.572L366.252,62.604
		L366.252,62.604z"/>
	<path fill="#383838" d="M408.479,50.363c-0.091-0.453-0.282-0.827-0.576-1.122c-0.295-0.294-0.782-0.442-1.462-0.442h-12.648v6.324
		h21.828c0.362,0,0.634-0.125,0.814-0.374c0.182-0.249,0.317-0.804,0.408-1.666h0.816v11.628h-0.816
		c-0.091-0.59-0.228-0.952-0.408-1.088c-0.182-0.137-0.452-0.204-0.814-0.204h-33.933v-0.815c0.86-0.09,1.395-0.237,1.599-0.441
		s0.306-0.464,0.306-0.782V29.691c0-0.316-0.102-0.578-0.306-0.782c-0.204-0.204-0.737-0.351-1.599-0.442v-0.816h33.933
		c0.362,0,0.634-0.124,0.814-0.374c0.183-0.249,0.317-0.758,0.408-1.53h0.816v11.832h-0.816c-0.091-0.771-0.228-1.28-0.408-1.53
		c-0.182-0.249-0.452-0.374-0.814-0.374h-21.828v5.644h12.648c0.68,0,1.167-0.146,1.462-0.442c0.294-0.294,0.484-0.668,0.576-1.122
		h0.816v10.608H408.479z"/>
	<path fill="#383838" d="M429.83,62.604c0.861-0.09,1.394-0.237,1.598-0.441s0.308-0.464,0.308-0.782V35.947h-11.696
		c-0.363,0-0.635,0.125-0.816,0.374c-0.182,0.25-0.315,0.76-0.406,1.53H418V25.747h0.816c0.09,0.771,0.226,1.281,0.406,1.53
		c0.183,0.25,0.453,0.374,0.816,0.374h33.593c0.361,0,0.633-0.124,0.814-0.374c0.182-0.249,0.316-0.758,0.406-1.53h0.816v12.104
		h-0.816c-0.09-0.771-0.227-1.28-0.406-1.53c-0.184-0.249-0.453-0.374-0.814-0.374h-11.697v25.432c0,0.318,0.104,0.578,0.308,0.782
		s0.734,0.353,1.598,0.442v0.814h-14.01V62.604z"/>
	<path fill="#383838" d="M461.246,53.083c1.45,0,2.708,0.533,3.771,1.599c1.064,1.064,1.601,2.322,1.601,3.773
		s-0.534,2.675-1.601,3.672c-1.063,0.998-2.321,1.496-3.771,1.496c-1.452,0-2.71-0.499-3.774-1.496
		c-1.063-0.997-1.598-2.221-1.598-3.672s0.532-2.708,1.598-3.773C458.536,53.616,459.794,53.083,461.246,53.083z"/>
	<path fill="#383838" d="M502.861,40.367c0.045-0.136,0.078-0.283,0.102-0.442c0.022-0.158,0.034-0.351,0.034-0.578
		c0-0.362-0.306-0.725-0.918-1.088c-0.612-0.362-1.428-0.69-2.448-0.986c-1.02-0.294-2.188-0.544-3.502-0.748
		s-2.697-0.306-4.146-0.306c-1.36,0-2.788,0.16-4.284,0.476c-1.496,0.318-2.868,0.839-4.114,1.564
		c-1.247,0.726-2.268,1.689-3.06,2.89c-0.796,1.202-1.19,2.664-1.19,4.386c0,1.723,0.396,3.186,1.19,4.386
		c0.792,1.202,1.812,2.166,3.06,2.89c1.246,0.728,2.618,1.248,4.114,1.564c1.496,0.318,2.924,0.477,4.284,0.477
		c0.589,0,1.519-0.103,2.786-0.307c1.271-0.204,2.538-0.486,3.81-0.85c1.269-0.362,2.391-0.771,3.366-1.225
		c0.975-0.451,1.462-0.929,1.462-1.429c0-0.228-0.046-0.408-0.138-0.544c-0.092-0.137-0.182-0.294-0.271-0.477l0.748-0.477
		l7.004,10.676l-0.815,0.478c-0.092-0.228-0.216-0.374-0.374-0.442c-0.158-0.066-0.352-0.104-0.576-0.104
		c-0.318,0-0.952,0.193-1.904,0.578c-0.952,0.388-2.188,0.795-3.706,1.226c-1.521,0.433-3.298,0.815-5.338,1.155
		c-2.04,0.341-4.33,0.511-6.868,0.511c-2.72,0-5.417-0.353-8.092-1.056c-2.676-0.7-5.078-1.812-7.208-3.332
		c-2.132-1.518-3.854-3.422-5.168-5.711c-1.315-2.289-1.974-4.951-1.974-7.989c0-3.037,0.656-5.701,1.974-7.99
		c1.312-2.289,3.036-4.192,5.168-5.712c2.13-1.519,4.532-2.663,7.208-3.434c2.675-0.771,5.372-1.156,8.092-1.156
		s5.066,0.147,7.038,0.442s3.638,0.624,4.998,0.986c1.312,0.363,2.334,0.669,3.061,0.918c0.727,0.25,1.271,0.374,1.632,0.374
		c0.407,0,0.748-0.181,1.021-0.544l0.748,0.204l-6.12,11.22L502.861,40.367z"/>
	<path fill="#383838" d="M552.568,61.379c0,0.318,0.102,0.578,0.306,0.782s0.736,0.353,1.599,0.442v0.814h-14.009v-0.814
		c0.861-0.09,1.396-0.238,1.601-0.442c0.202-0.204,0.306-0.464,0.306-0.782v-12.58h-17.68v12.58c0,0.318,0.102,0.578,0.306,0.782
		s0.736,0.353,1.598,0.442v0.814h-14.008v-0.814c0.86-0.09,1.396-0.238,1.601-0.442c0.201-0.204,0.306-0.464,0.306-0.782V29.691
		c0-0.316-0.104-0.578-0.306-0.782c-0.204-0.204-0.738-0.351-1.601-0.442v-0.816h14.008v0.816c-0.859,0.091-1.394,0.238-1.598,0.442
		c-0.204,0.204-0.306,0.465-0.306,0.782v10.812h17.68V29.691c0-0.316-0.103-0.578-0.306-0.782c-0.204-0.204-0.737-0.351-1.601-0.442
		v-0.816h14.009v0.816c-0.86,0.091-1.395,0.238-1.599,0.442c-0.204,0.204-0.306,0.465-0.306,0.782V61.379z"/>
	<path fill="#383838" d="M566.78,61.923c0,0.228,0.079,0.397,0.236,0.511c0.158,0.114,0.486,0.17,0.986,0.17v0.815h-12.036v-0.815
		c0.498-0.09,0.86-0.237,1.088-0.441c0.229-0.204,0.453-0.578,0.682-1.122c0.091-0.228,0.315-0.838,0.681-1.836
		c0.362-0.997,0.838-2.255,1.428-3.772c0.589-1.52,1.246-3.207,1.974-5.066c0.725-1.858,1.449-3.75,2.176-5.678
		c0.726-1.926,1.438-3.808,2.143-5.644c0.702-1.836,1.326-3.479,1.87-4.93c0.544-1.45,0.985-2.628,1.326-3.536
		c0.34-0.906,0.51-1.382,0.51-1.428c0-0.227-0.146-0.385-0.44-0.476c-0.295-0.09-0.604-0.158-0.918-0.204v-0.816h17.748v0.816
		c-0.363,0.046-0.657,0.114-0.886,0.204c-0.228,0.091-0.34,0.318-0.34,0.68c0,0.091,0.215,0.68,0.646,1.768
		c0.431,1.088,0.984,2.505,1.666,4.25c0.681,1.746,1.462,3.717,2.347,5.916c0.884,2.199,1.802,4.443,2.754,6.732
		s1.87,4.521,2.754,6.696c0.885,2.177,1.688,4.126,2.414,5.849c0.362,0.815,0.668,1.359,0.918,1.633
		c0.248,0.271,0.578,0.408,0.985,0.408v0.814h-13.396v-0.814c0.86-0.045,1.292-0.317,1.292-0.816c0-0.045-0.112-0.352-0.34-0.918
		s-0.477-1.201-0.748-1.904c-0.271-0.701-0.533-1.371-0.781-2.006c-0.25-0.634-0.396-1.064-0.441-1.292h-16.115
		c-0.454,1.224-0.815,2.222-1.088,2.992c-0.271,0.771-0.488,1.383-0.646,1.836c-0.158,0.454-0.271,0.782-0.341,0.985
		C566.814,61.686,566.78,61.833,566.78,61.923z M583.305,50.227l-6.596-16.184l-6.053,16.184H583.305z"/>
	<path fill="#383838" d="M609.212,62.604c0.86-0.09,1.394-0.237,1.598-0.441s0.308-0.464,0.308-0.782V35.947H599.42
		c-0.363,0-0.636,0.125-0.816,0.374c-0.182,0.25-0.315,0.76-0.406,1.53h-0.815V25.747h0.815c0.091,0.771,0.227,1.281,0.406,1.53
		c0.183,0.25,0.453,0.374,0.816,0.374h33.592c0.362,0,0.634-0.124,0.815-0.374c0.181-0.249,0.315-0.758,0.408-1.53h0.814v12.104
		h-0.814c-0.093-0.771-0.229-1.28-0.408-1.53c-0.184-0.249-0.453-0.374-0.815-0.374h-11.694v25.432c0,0.318,0.103,0.578,0.307,0.782
		c0.203,0.204,0.735,0.353,1.598,0.442v0.814h-14.008L609.212,62.604L609.212,62.604z"/>
</g>
</svg>
