<svg height="1024pt" preserveAspectRatio="xMidYMid meet" viewBox="0 0 1024 1024" width="1024pt" xmlns="http://www.w3.org/2000/svg"><g transform="matrix(.1 0 0 -.1 0 1024)"><path d="m1405 9290c-352-31-743-133-1026-267l-117-55 139-135c466-453 775-935 865-1348 20-96 29-285 16-368-11-67-12-70-110-180-486-550-732-1159-732-1812 0-666 271-1324 760-1847 65-71 69-78 81-143 14-85 7-270-16-375-87-407-379-866-842-1327-84-83-153-153-153-155 0-9 214-106 314-143 179-66 409-123 646-160 139-22 565-31 723-16 402 39 816 160 1157 337 224 117 515 323 729 518 46 42 91 76 100 76 10 0 89-11 177-25 1173-180 2437-25 3454 422 1128 497 1896 1311 2120 2248 53 219 65 328 64 585 0 267-14 385-71 615-251 1008-1135 1870-2399 2338-489 181-1001 296-1574 353-225 22-784 30-1020 15-221-15-473-43-639-71l-122-21-92 84c-170 153-371 305-558 420-347 214-790 366-1229 422-148 19-504 27-645 15zm4160-1731c695-56 1323-222 1869-496 774-388 1290-959 1430-1583 132-591-57-1167-548-1669-432-441-1042-772-1780-966-459-120-903-175-1421-175-477 0-857 43-1297 146l-157 37-214-205c-381-366-619-532-932-653-187-73-488-145-601-145h-34l84 168c203 406 289 721 290 1062 0 170-9 252-45 400-20 81-23 87-72 125-95 75-289 269-370 370-214 265-346 536-408 835-21 99-24 143-24 315 0 207 7 264 56 444 139 506 561 1000 1159 1358 534 320 1193 530 1920 613 340 39 762 46 1095 19z"/><path d="m3220 5680c-218-33-398-196-455-410-19-71-19-210 0-280 50-188 200-341 390-396 93-26 232-23 324 9 438 153 517 731 135 987-116 77-261 110-394 90z"/><path d="m5020 5680c-273-42-474-276-473-550 0-246 156-456 393-531 46-15 93-21 160-21 195-1 362 89 471 255 61 94 84 174 84 297 0 83-5 119-23 172-88 255-352 418-612 378z"/><path d="m6820 5680c-128-20-242-80-330-176-69-75-105-141-130-240-25-98-25-170 0-268 27-107 63-169 145-252 111-113 240-167 396-167 153 1 283 54 390 162 172 172 213 410 109 630-104 217-346 347-580 311z"/></g></svg>