<?xml version="1.0" standalone="no"?>
<!DOCTYPE svg PUBLIC "-//W3C//DTD SVG 20010904//EN"
 "http://www.w3.org/TR/2001/REC-SVG-20010904/DTD/svg10.dtd">
<svg version="1.0" xmlns="http://www.w3.org/2000/svg"
 width="512.000000pt" height="512.000000pt" viewBox="0 0 512.000000 512.000000"
 preserveAspectRatio="xMidYMid meet">
<metadata>
Created by potrace 1.11, written by Peter Selinger 2001-2013
</metadata>
<g transform="translate(0.000000,512.000000) scale(0.100000,-0.100000)"
fill="#000000" stroke="none">
<path d="M4350 4075 c0 -2 26 -42 59 -87 70 -100 171 -262 171 -276 0 -6 3
-12 8 -14 21 -9 144 -293 183 -426 11 -37 25 -77 30 -90 5 -13 9 -32 9 -42 0
-11 6 -39 14 -62 19 -61 35 -174 51 -355 19 -217 1 -432 -59 -703 -15 -71 -78
-267 -101 -315 -7 -17 -23 -53 -35 -80 -40 -93 -64 -140 -138 -260 -108 -176
-195 -286 -344 -435 -342 -344 -751 -559 -1233 -650 -288 -54 -692 -39 -971
36 -33 9 -72 20 -89 24 -161 40 -514 211 -670 323 -17 12 -62 45 -100 73 -87
63 -356 328 -415 409 -24 33 -46 62 -49 65 -4 3 -17 22 -31 42 -14 21 -28 38
-32 38 -5 0 -8 5 -8 10 0 6 -17 37 -37 68 -46 72 -74 122 -135 247 -27 55 -56
113 -64 128 -8 16 -14 36 -14 46 0 9 -7 26 -15 37 -8 10 -15 30 -15 44 0 14
-7 34 -15 44 -8 11 -15 32 -15 46 0 14 -5 31 -11 37 -7 7 -13 33 -16 60 -5 65
-13 84 -23 58 -4 -12 -7 17 -6 67 1 75 -6 111 -18 97 -8 -9 -16 -120 -8 -115
5 3 12 -43 16 -102 4 -79 16 -142 45 -243 162 -570 494 -1029 979 -1353 112
-74 353 -206 378 -206 5 0 22 -7 38 -15 52 -28 259 -93 376 -119 191 -42 282
-51 520 -51 238 0 329 9 520 51 107 24 342 97 365 113 6 4 31 15 56 24 85 32
299 152 417 234 449 314 789 791 929 1303 36 131 43 170 49 262 4 54 11 95 15
92 8 -4 14 97 25 381 4 103 2 162 -7 190 -6 22 -15 81 -19 130 -9 105 -29 216
-41 230 -5 5 -9 23 -9 40 0 16 -7 43 -15 59 -8 15 -15 40 -15 55 0 14 -7 35
-15 45 -8 11 -15 30 -15 42 0 13 -4 25 -9 28 -5 3 -12 22 -15 41 -4 19 -11 35
-16 35 -6 0 -10 7 -10 16 0 9 -6 28 -14 42 -8 15 -28 56 -45 92 -39 80 -72
138 -122 214 -22 32 -39 62 -39 66 0 4 -11 19 -24 33 -13 14 -26 30 -27 35 -9
22 -129 160 -129 147z m-4103 -2092 c-3 -10 -5 -2 -5 17 0 19 2 27 5 18 2 -10
2 -26 0 -35z m4630 -15 c-2 -13 -4 -5 -4 17 -1 22 1 32 4 23 2 -10 2 -28 0
-40z"/>
<path d="M2395 3991 c-11 -5 -42 -10 -68 -10 -27 -1 -57 -6 -68 -12 -11 -6
-41 -14 -67 -19 -52 -9 -168 -49 -240 -83 -244 -113 -457 -295 -606 -517 -75
-110 -176 -329 -176 -379 0 -11 -6 -35 -14 -53 -30 -71 -51 -303 -37 -403 6
-38 13 -90 17 -115 3 -25 12 -59 20 -77 8 -17 14 -40 14 -52 0 -11 4 -30 9
-43 5 -13 16 -41 24 -63 45 -118 72 -182 84 -196 7 -8 13 -21 13 -27 0 -7 11
-30 25 -52 14 -22 25 -41 25 -44 0 -2 17 -30 39 -62 21 -33 46 -82 56 -111 18
-50 18 -55 0 -130 -10 -43 -27 -103 -37 -133 -11 -30 -22 -64 -25 -75 -2 -11
-16 -42 -30 -68 -14 -26 -22 -54 -19 -62 7 -19 45 -19 70 0 11 8 28 15 37 15
10 0 30 6 46 14 51 26 158 66 175 66 9 0 19 4 22 9 3 5 18 12 33 16 15 3 51
18 81 32 l53 25 57 -27 c31 -15 71 -33 87 -40 53 -23 199 -65 226 -65 14 0 49
-7 78 -16 78 -23 429 -23 537 1 115 24 155 35 192 51 18 8 39 14 47 14 9 0 23
4 33 10 9 5 59 30 111 55 326 158 552 406 705 773 14 35 26 73 26 85 0 12 6
39 14 62 47 136 49 432 5 610 -6 22 -14 59 -19 82 -21 98 -129 320 -202 418
-95 127 -218 250 -326 328 -84 60 -236 147 -258 147 -7 0 -15 4 -18 9 -5 7
-101 40 -245 83 -19 6 -62 15 -95 20 -86 13 -387 19 -411 9z m622 -733 c59
-25 123 -112 123 -167 0 -10 6 -37 14 -62 7 -24 19 -64 25 -89 12 -44 23 -83
55 -205 9 -33 21 -76 26 -95 5 -19 16 -60 24 -90 8 -30 22 -84 31 -120 9 -36
21 -75 26 -88 37 -94 -55 -232 -153 -232 -81 0 -145 55 -169 145 -4 16 -22 80
-39 140 -18 61 -35 126 -39 145 -4 19 -13 51 -19 70 -6 19 -16 55 -22 80 -7
25 -18 63 -26 85 -8 23 -14 48 -14 57 0 8 -7 21 -15 28 -12 10 -17 6 -29 -22
-21 -49 -46 -134 -46 -158 0 -12 -4 -29 -10 -39 -8 -16 -27 -82 -75 -266 -50
-193 -63 -224 -104 -248 -56 -33 -123 -13 -154 47 -9 17 -25 65 -36 106 -10
41 -24 88 -30 103 -6 16 -11 40 -11 55 0 30 -34 81 -46 70 -10 -10 -43 -109
-44 -130 0 -10 -11 -52 -25 -94 -14 -42 -25 -85 -25 -96 0 -30 -54 -78 -88
-78 -44 0 -60 25 -100 160 -31 106 -35 138 -23 168 16 38 60 56 98 41 34 -13
50 -35 57 -82 11 -67 52 -61 66 10 4 21 15 65 25 98 9 33 21 78 25 100 12 57
39 127 57 148 9 9 33 22 53 28 31 10 43 8 77 -9 24 -13 45 -32 51 -49 20 -49
40 -117 47 -155 10 -55 31 -112 43 -116 15 -5 33 33 48 98 7 30 25 98 40 150
14 52 32 118 39 145 6 28 14 57 18 65 3 8 15 51 26 95 35 143 51 183 80 211
54 50 114 65 168 42z m-1177 -987 c14 -27 12 -93 -4 -113 -18 -24 -98 -25
-117 -1 -8 9 -14 35 -14 58 0 58 17 75 76 75 38 0 51 -4 59 -19z"/>
<path d="M186 2679 c-8 -44 -6 -239 4 -269 4 -14 9 -20 10 -15 3 15 -1 309 -4
313 -2 1 -6 -12 -10 -29z"/>
<path d="M202 2105 c0 -16 2 -22 5 -12 2 9 2 23 0 30 -3 6 -5 -1 -5 -18z"/>
<path d="M4911 2104 c0 -11 3 -14 6 -6 3 7 2 16 -1 19 -3 4 -6 -2 -5 -13z"/>
</g>
</svg>
