<?xml version="1.0" standalone="no"?>
<!DOCTYPE svg PUBLIC "-//W3C//DTD SVG 20010904//EN"
 "http://www.w3.org/TR/2001/REC-SVG-20010904/DTD/svg10.dtd">
<svg version="1.0" xmlns="http://www.w3.org/2000/svg"
 width="512.000000pt" height="512.000000pt" viewBox="0 0 512.000000 512.000000"
 preserveAspectRatio="xMidYMid meet">
<metadata>
Created by potrace 1.11, written by Peter Selinger 2001-2013
</metadata>
<g transform="translate(0.000000,512.000000) scale(0.100000,-0.100000)"
fill="#000000" stroke="none">
<path d="M758 4695 c-2 -1 -43 -5 -93 -8 -91 -6 -217 -26 -297 -47 -23 -7 -50
-14 -58 -15 -44 -10 -223 -79 -257 -100 -1 -1 55 -60 126 -131 284 -288 418
-537 413 -768 -2 -77 1 -72 -96 -182 -166 -192 -292 -437 -331 -649 -20 -109
-25 -288 -12 -405 28 -241 151 -503 334 -714 111 -128 104 -115 105 -213 0
-49 -5 -99 -10 -113 -5 -14 -10 -29 -11 -35 -1 -5 -8 -32 -17 -60 -54 -165
-199 -371 -400 -569 l-105 -103 61 -27 c118 -53 233 -87 405 -120 134 -26 387
-26 545 -1 200 32 441 115 575 199 122 76 286 197 337 248 13 13 28 18 46 14
66 -12 133 -21 242 -32 41 -3 89 -8 105 -10 37 -5 433 -4 495 0 41 3 69 6 210
22 25 3 81 11 125 19 44 8 94 16 110 19 17 3 62 12 100 21 39 9 80 18 91 21
35 7 345 110 389 129 187 81 401 199 525 291 122 90 302 258 348 326 9 13 19
25 23 28 22 17 130 190 170 275 89 189 122 337 122 545 0 212 -36 376 -124
556 -209 431 -652 781 -1241 980 -103 35 -302 88 -368 99 -19 3 -42 8 -50 10
-16 4 -30 7 -145 25 -303 48 -822 48 -1068 -1 -73 -14 -89 -11 -128 24 -71 62
-92 79 -172 136 -206 145 -406 232 -651 281 -87 18 -101 19 -221 25 -60 4
-118 8 -127 9 -9 2 -18 3 -20 1z"/>
</g>
</svg>
