<?xml version="1.0" encoding="UTF-8" standalone="no"?>
<svg
   xmlns:dc="http://purl.org/dc/elements/1.1/"
   xmlns:cc="http://creativecommons.org/ns#"
   xmlns:rdf="http://www.w3.org/1999/02/22-rdf-syntax-ns#"
   xmlns:svg="http://www.w3.org/2000/svg"
   xmlns="http://www.w3.org/2000/svg"
   xml:space="preserve"
   enable-background="new 0 0 24 24"
   viewBox="0 0 24 24"
   height="24px"
   width="24px"
   y="0px"
   x="0px"
   id="Слой_1"
   version="1.1"><metadata
     id="metadata4213"><rdf:RDF><cc:Work
         rdf:about=""><dc:format>image/svg+xml</dc:format><dc:type
           rdf:resource="http://purl.org/dc/dcmitype/StillImage" /><dc:title></dc:title></cc:Work></rdf:RDF></metadata><defs
     id="defs4211" /><g
     id="g4205"><path
       style="fill:#000000;fill-opacity:1"
       id="path4207"
       d="M12,0C5.373,0,0,5.372,0,12c0,6.627,5.373,12,12,12c6.628,0,12-5.373,12-12C24,5.372,18.628,0,12,0    M21.949,11H17.05c0.224-2.527,1.232-4.773,1.968-6.113C20.634,6.481,21.712,8.618,21.949,11 M13,11V2.051   c1.623,0.162,3.13,0.719,4.432,1.564C16.574,5.106,15.276,7.835,15.04,11H13z M11,11H8.961C8.723,7.835,7.425,5.106,6.568,3.615   C7.871,2.77,9.377,2.213,11,2.051V11z M11,13v8.949c-1.623-0.162-3.129-0.718-4.432-1.564C7.425,18.893,8.723,16.164,8.961,13H11z    M15.04,13c0.236,3.164,1.534,5.893,2.392,7.385c-1.302,0.847-2.809,1.402-4.432,1.564V13H15.04z M4.982,4.887   C5.718,6.227,6.726,8.473,6.951,11h-4.9C2.289,8.618,3.367,6.481,4.982,4.887 M2.051,13h4.9c-0.226,2.527-1.233,4.771-1.969,6.113   C3.367,17.52,2.289,15.383,2.051,13 M19.018,19.113c-0.735-1.342-1.744-3.586-1.968-6.113h4.899   C21.712,15.383,20.634,17.52,19.018,19.113"
       fill="#010202" /></g></svg>