<?xml version="1.0" encoding="UTF-8" standalone="no"?>
<svg
   xmlns:dc="http://purl.org/dc/elements/1.1/"
   xmlns:cc="http://creativecommons.org/ns#"
   xmlns:rdf="http://www.w3.org/1999/02/22-rdf-syntax-ns#"
   xmlns:svg="http://www.w3.org/2000/svg"
   xmlns="http://www.w3.org/2000/svg"
   xml:space="preserve"
   enable-background="new 0 0 24 24"
   viewBox="0 0 24 24"
   height="24px"
   width="24px"
   y="0px"
   x="0px"
   id="Слой_1"
   version="1.1"><metadata
     id="metadata4838"><rdf:RDF><cc:Work
         rdf:about=""><dc:format>image/svg+xml</dc:format><dc:type
           rdf:resource="http://purl.org/dc/dcmitype/StillImage" /><dc:title></dc:title></cc:Work></rdf:RDF></metadata><defs
     id="defs4836" /><g
     id="g4820"><g
       id="g4822" /><g
       id="g4830"><g
         id="g5383"><path
           style="fill:#000000;fill-opacity:1"
           d="M 12 0 C 7.029 0 3 4.029 3 9 C 3 12.120081 4.5888411 14.867862 7 16.482422 L 7 21 C 7 21 9.035 24 12 24 C 14.965 24 17 21 17 21 L 17 16.482422 C 19.411159 14.867862 21 12.120081 21 9 C 21 4.029 16.971 0 12 0 z M 12 2 C 15.86 2 19 5.141 19 9 C 19 12.859 15.86 16 12 16 C 8.14 16 5 12.859 5 9 C 5 5.141 8.14 2 12 2 z M 9 17.476562 C 9.9397054 17.809261 10.946226 18 12 18 C 13.053774 18 14.060295 17.809261 15 17.476562 L 15 18.310547 C 14.089581 18.746635 13.074971 19 12 19 C 10.925029 19 9.9104192 18.746635 9 18.310547 L 9 17.476562 z M 9.2363281 20.546875 C 10.108023 20.832252 11.032636 21 12 21 C 12.965197 21 13.887813 20.832689 14.757812 20.548828 C 14.155076 21.173162 13.152816 22 12 22 C 10.89775 22 9.8827458 21.211335 9.2363281 20.546875 z "
           id="path4824" /><path
           fill="#010202"
           d="M14.745,12.449h-0.004c-0.852-0.024-1.188-0.858-1.577-1.824c-0.421-1.061-0.703-1.561-1.182-1.566h-0.009    c-0.481,0-0.783,0.497-1.235,1.537c-0.436,0.982-0.801,1.811-1.636,1.791l-0.276-0.043c-0.565-0.171-0.853-0.691-1.284-1.794    c-0.125-0.313-0.202-0.632-0.27-0.913C7.221,9.424,7.145,9.107,7.077,9.003C7.067,9.004,7.039,9,6.99,9    C6.438,8.994,5.994,8.543,6,7.99C6.006,7.441,6.452,7,7,7h0.01c1.662,0.017,2.015,1.373,2.198,2.134    c0.486-0.981,1.304-2.058,2.797-2.075c1.531,0.018,2.28,1.153,2.731,2.141c0-0.002,0.001-0.006,0.002-0.008    C14.944,8.424,15.327,7,16.979,7h0.032C17.563,7.007,18.006,7.459,18,8.012C17.994,8.56,17.547,9,17,9h-0.011    c-0.149,0.076-0.256,0.474-0.319,0.709c-0.079,0.295-0.169,0.629-0.311,0.951C15.93,11.633,15.569,12.449,14.745,12.449"
           id="path4832" /></g></g></g></svg>