<?xml version="1.0" encoding="UTF-8"?>
<svg xmlns="http://www.w3.org/2000/svg" version="1.1" viewBox="0 0 18 18">
	<g stroke="none" fill="currentColor" fill-rule="evenodd">
		<path d="M4.69 9.806 3.021 11.245 3.364 10.6 3.364 6.334C3.364 3.389 5.908 1 9.045 1 10.621 1 12.046 1.603 13.075 2.576L12.102 3.415C11.315 2.676 10.237 2.217 9.045 2.217 6.64 2.217 4.69 4.078 4.69 6.374L4.69 9.806ZM14.728 6.42 14.728 10.6 17 14.866 11.83 14.866C11.567 16.084 10.421 17 9.046 17 7.672 17 6.526 16.084 6.263 14.866L4.932 14.866 6.342 13.65 15.035 13.65 13.402 10.532 13.402 7.563 14.728 6.42ZM1.927 16.097 1 14.958 15.98 1.43 16.907 2.569 1.927 16.097ZM9.046 15.842C9.661 15.842 10.178 15.472 10.373 14.957L7.719 14.957C7.914 15.472 8.431 15.842 9.046 15.842Z" />
	</g>
</svg>
