<?xml version="1.0" encoding="UTF-8"?>
<svg xmlns="http://www.w3.org/2000/svg" version="1.1" viewBox="0 0 18 18">
	<g stroke="none" fill="currentColor" fill-rule="evenodd">
		<path d="M4.619 10.532V6.374C4.619 4.078 6.581 2.216 9 2.216 11.419 2.216 13.381 4.078 13.381 6.374V10.532L15.024 13.65H2.976L4.619 10.532ZM7.666 14.958H10.334C10.139 15.472 9.618 15.842 9 15.842S7.861 15.472 7.666 14.958ZM14.714 6.333C14.714 3.388 12.155 1 9 1 5.845 1 3.286 3.388 3.286 6.333V10.6L1 14.867H6.201C6.465 16.084 7.618 17 9 17S11.535 16.084 11.799 14.867H17L14.714 10.6V6.333Z" />
	</g>
</svg>
