<?xml version="1.0" encoding="UTF-8"?>
<svg xmlns="http://www.w3.org/2000/svg" xmlns:xlink="http://www.w3.org/1999/xlink" version="1.1" viewBox="0 0 32 32">
	<g stroke="none" stroke-width="1" fill="none" fill-rule="evenodd" transform="translate(7.000000, 4.000000)">
		<path d="M13.5007334,0 L18,4.52002448 L18,22 C18,23.1045695 17.1045695,24 16,24 L2,24 C0.8954305,24 1.3527075e-16,23.1045695 0,22 L0,2 C-1.3527075e-16,0.8954305 0.8954305,2.02906125e-16 2,0 L13.5007334,0 Z" fill="#1D74F5" />
		<path d="M13.5,0.00217437744 L13.5,3.50313568 C13.5,4.05542043 13.9477153,4.50313568 14.5,4.50313568 L18,4.50313568 L13.5,0.00217437744 Z" fill="#FFFFFF" opacity="0.5" />
		<path d="M0.75,5.25 L0.75,3.75 L12.75,3.75 L12.75,5.25 L0.75,5.25 Z M0.75,8.25 L0.75,6.75 L12.75,6.75 L12.75,8.25 L0.75,8.25 Z M0.75,11.25 L0.75,9.75 L8.25,9.75 L8.25,11.25 L0.75,11.25 Z M0.75,2.25 L0.75,0.75 L12.75,0.75 L12.75,2.25 L0.75,2.25 Z" fill="#FFFFFF" fill-rule="nonzero" transform="translate(2.250000, 6.750000)" />
	</g>
</svg>
