<?xml version="1.0" encoding="UTF-8"?>
<svg xmlns="http://www.w3.org/2000/svg" xmlns:xlink="http://www.w3.org/1999/xlink" version="1.1" viewBox="0 0 32 32">
	<g stroke="none" stroke-width="1" fill="none" fill-rule="evenodd" transform="translate(7.000000, 4.000000)">
		<path d="M13.5,0.00217437744 L13.5,3.50313568 C13.5,4.05542043 13.9477153,4.50313568 14.5,4.50313568 L18,4.50313568 L13.5,0.00217437744 Z" fill="#FFFFFF" opacity="0.5" />
		<path d="M13.5007334,0 L18,4.52002448 L18,22 C18,23.1045695 17.1045695,24 16,24 L2,24 C0.8954305,24 1.3527075e-16,23.1045695 0,22 L0,2 C-1.3527075e-16,0.8954305 0.8954305,2.02906125e-16 2,0 L13.5007334,0 Z" fill="#1D74F5" />
		<path d="M13.5,0.00217437744 L13.5,3.50313568 C13.5,4.05542043 13.9477153,4.50313568 14.5,4.50313568 L18,4.50313568 L13.5,0.00217437744 Z" fill="#FFFFFF" opacity="0.5" />
		<path d="M11.3033009,15.9532486 C11.3033009,17.1131232 10.2959614,18.0533009 9.05337083,18.0533009 C7.81064031,18.0533009 6.80330086,17.1131232 6.80330086,15.9532486 C6.80330086,15.9532486 6.80330086,9.02012427 6.80330086,9.07001977 C6.80330086,8.23237609 7.53074605,7.55330086 8.428227,7.55330086 C9.32570795,7.55330086 10.0532931,8.23237609 10.0532931,9.07001977 C10.0532931,8.99752761 10.0532931,15.9532486 10.0532931,15.9532486 C10.0532931,16.4686614 9.60560221,16.8866342 9.05323089,16.8866342 C8.50085956,16.8866342 8.05316869,16.4686614 8.05316869,15.9532486 L8.05316869,10.9366603 C8.05316869,10.7433479 8.2209653,10.5867387 8.42808705,10.5867387 C8.6352088,10.5867387 8.80314536,10.7433479 8.80314536,10.9366603 L8.80314536,15.9532486 C8.80314536,16.0821671 8.91510307,16.1866603 9.05323089,16.1866603 C9.19121876,16.1866603 9.30317646,16.0821671 9.30317646,15.9532486 C9.30317646,15.9532486 9.30317646,5.90701037 9.30317646,9.07001977 C9.30317646,8.61887035 8.91146444,8.25327474 8.428227,8.25327474 C7.94498955,8.25327474 7.55327753,8.61887035 7.55327753,9.07001977 C7.55327753,5.89878153 7.55327753,15.9532486 7.55327753,15.9532486 C7.55327753,16.7263677 8.22488382,17.353327 9.05337083,17.353327 C9.8817179,17.353327 10.5533242,16.7264984 10.5533242,15.9532486 L10.5533242,9.30317024 C10.5533242,9.10998842 10.7212607,8.95324861 10.9282425,8.95324861 C11.1353643,8.95324861 11.3033009,9.10998842 11.3033009,9.30317024 L11.3033009,15.9532486 Z" fill="#FFFFFF" transform="translate(9.053301, 12.803301) rotate(45.000000) translate(-9.053301, -12.803301)" />
	</g>
</svg>
