<?xml version="1.0" encoding="UTF-8"?>
<svg version="1.1" viewBox="0 0 20 20" xmlns="http://www.w3.org/2000/svg">
	<g fill="none" fill-rule="evenodd">
		<g transform="translate(-330 -19)">
			<g transform="translate(329 18)">
				<g transform="translate(2 2)" fill="currentColor" stroke="currentColor">
					<path d="m14.286 0h-12.571c-0.94679 0-1.7143 0.7675-1.7143 1.7143v12.571c0 0.94679 0.7675 1.7143 1.7143 1.7143h12.571c0.94679 0 1.7143-0.7675 1.7143-1.7143v-12.571c0-0.94679-0.7675-1.7143-1.7143-1.7143zm0.57143 14.286c0 0.31507-0.25636 0.57143-0.57143 0.57143h-12.571c-0.31507 0-0.57143-0.25636-0.57143-0.57143v-12.571c0-0.31507 0.25636-0.57143 0.57143-0.57143h12.571c0.31507 0 0.57143 0.25636 0.57143 0.57143v12.571zm-11.303-2.0419c-0.16736-0.16736-0.16736-0.43871 0-0.60611l6.9696-6.9696-0.02525-0.02525-3.2128 0.012214c-0.23668 0-0.42857-0.19189-0.42857-0.42857v-0.35711c0-0.23671 0.19186-0.42857 0.42857-0.42857l4.8571-0.01225c0.23668 0 0.42857 0.19186 0.42857 0.42857l-0.01225 4.8571c0 0.23668-0.19189 0.42857-0.42857 0.42857h-0.35711c-0.23668 0-0.42857-0.19189-0.42857-0.42857l0.012214-3.2128-0.02525-0.02525-6.9696 6.9696c-0.16736 0.16736-0.43871 0.16736-0.60611 0l-0.20204-0.20204z" fill-rule="nonzero" stroke-width=".3"/>
				</g>
			</g>
		</g>
	</g>
</svg>
