<?xml version="1.0" encoding="UTF-8"?>
<svg xmlns="http://www.w3.org/2000/svg" xmlns:xlink="http://www.w3.org/1999/xlink" version="1.1" viewBox="0 0 32 32">
	<g stroke="none" stroke-width="1" fill="none" fill-rule="evenodd" transform="translate(7.000000, 4.000000)">
		<path d="M13.5007334,0 L18,4.52002448 L18,22 C18,23.1045695 17.1045695,24 16,24 L2,24 C0.8954305,24 1.3527075e-16,23.1045695 0,22 L0,2 C-1.3527075e-16,0.8954305 0.8954305,2.02906125e-16 2,0 L13.5007334,0 Z" fill="#F5455C" />
		<path d="M13.5,0.00217437744 L13.5,3.50313568 C13.5,4.05542043 13.9477153,4.50313568 14.5,4.50313568 L18,4.50313568 L13.5,0.00217437744 Z" fill="#FFFFFF" opacity="0.5" />
		<path d="M6.96080409,14.9169531 C7.31179136,14.2225492 7.97577027,12.4509017 8.29505953,11.2825362 C8.74198052,12.1911938 9.28441539,13.080432 10.1782574,13.8981811 C8.96533606,14.1250254 8.14181748,14.4432049 6.96080409,14.9169531 Z M8.41618372,7.14214771 C9.34193364,7.68076953 8.76738091,8.95924946 8.44830158,10.1338035 C8.23754128,9.37473943 7.94386234,7.68738493 8.41618372,7.14214771 Z M8.32696746,6.82418157 C8.02678098,6.86302039 7.70770164,7.04483727 7.58006991,7.33036658 C7.22236518,8.14811572 7.96947265,10.5559089 8.08429923,10.9581681 C7.35650445,13.1907598 4.86684595,17.6036602 3.64741709,17.9024204 C3.62201669,17.6102757 3.77525874,16.7664917 5.38388042,15.7152829 C5.46700899,15.6243744 5.56273279,15.5140466 5.60744588,15.4425576 C4.24758013,16.117542 2.48550648,17.2014011 3.54539567,18.0125348 C3.60270399,18.057989 3.69213018,18.0970413 3.79436152,18.1358801 C4.60507494,18.4410422 5.74137523,17.4414762 6.88418307,15.1764476 C8.14181748,14.7547691 9.15678366,14.4365895 10.5932704,14.2159338 C12.1636866,15.2997929 13.2170682,15.520662 13.9320578,15.2415347 C14.130013,15.1636436 14.4427947,14.9105511 14.5322209,14.5793542 C13.9511606,15.3064083 12.5915048,14.8002233 11.5062152,14.1058194 C12.5083762,13.9954916 13.5426551,13.9304045 13.9895761,14.0731692 C14.5576213,14.2549861 14.5385185,14.5405154 14.5322209,14.5793542 C14.576934,14.4237855 14.6407498,14.170693 14.5194157,13.9694567 C14.0405868,13.1777424 11.8443973,13.6384732 11.046489,13.7229796 C9.78885463,12.9506847 8.92062296,11.5746809 8.56942577,10.5817303 C8.89501265,9.3032504 9.24620984,8.37517342 8.99094637,7.45371184 C8.86961225,7.01218705 8.57593331,6.79174476 8.32696746,6.82418157 Z" fill="#FFFFFF" />
	</g>
</svg>
