<svg viewBox="0 0 32 32" xmlns="http://www.w3.org/2000/svg">
<g stroke="none" fill="currentColor" fill-rule="evenodd">
    <path d="M25.0351 20.5497C25.7374 20.7914 26.6274 20.6304 27.1415 19.9077C27.8415 18.9237 28.5476 17.3882 28.6704 15.8571C28.7326 15.0809 28.6487 14.2526 28.2839 13.4927C27.9105 12.7149 27.2739 12.0755 26.3552 11.6562C24.6313 10.8693 22.4226 10.398 20.499 10.1204C18.5632 9.84115 16.8273 9.74603 16 9.74603V11.6982C16.725 11.6982 18.3674 11.7853 20.2202 12.0526C22.085 12.3217 24.0752 12.7614 25.5445 13.4321C26.0679 13.671 26.3578 13.9913 26.524 14.3375C26.6988 14.7016 26.7677 15.1616 26.7244 15.7011C26.6396 16.7587 26.1394 17.9131 25.6145 18.6845L21.6332 17.3141C21.6312 17.3128 21.6259 17.3088 21.6183 17.2986C21.6042 17.2796 21.589 17.247 21.5842 17.2052C21.5438 16.8501 21.4716 16.434 21.3456 16.041C21.2274 15.672 21.0245 15.2022 20.6497 14.86C20.3231 14.5619 19.8645 14.4178 19.5405 14.3352C19.1682 14.2402 18.7415 14.1733 18.3234 14.1253C17.4841 14.0288 16.5806 13.9974 16 13.9974V15.9496C16.5281 15.9496 17.3543 15.9789 18.1006 16.0647C18.4752 16.1078 18.8053 16.1623 19.058 16.2268C19.2284 16.2702 19.3135 16.3062 19.3443 16.3192L19.3472 16.3204C19.3719 16.3568 19.4268 16.4502 19.4866 16.6368C19.5606 16.8678 19.6129 17.1485 19.6446 17.4264C19.7278 18.1553 20.195 18.8836 20.9975 19.1598L25.0351 20.5497ZM6.96482 20.5495C6.26251 20.7913 5.37252 20.6303 4.85836 19.9075C4.15836 18.9236 3.45233 17.3881 3.32956 15.857C3.26731 15.0808 3.35116 14.2525 3.71601 13.4925C4.0894 12.7148 4.72604 12.0754 5.64471 11.6561C7.36862 10.8692 9.57726 10.3979 11.5009 10.1203C13.4367 9.84102 15.1726 9.74591 15.9999 9.74591V11.6981C15.2749 11.6981 13.6325 11.7852 11.7797 12.0525C9.91486 12.3215 7.92472 12.7613 6.45536 13.432C5.93197 13.6709 5.6421 13.9912 5.47588 14.3374C5.30111 14.7015 5.23223 15.1615 5.27549 15.701C5.36029 16.7586 5.86053 17.913 6.38542 18.6844L10.3667 17.3139C10.3687 17.3127 10.374 17.3087 10.3816 17.2985C10.3957 17.2794 10.4109 17.2469 10.4157 17.2051C10.4562 16.85 10.5283 16.4338 10.6543 16.0409C10.7725 15.6719 10.9754 15.2021 11.3502 14.8599C11.6768 14.5617 12.1354 14.4177 12.4594 14.3351C12.8318 14.2401 13.2584 14.1732 13.6765 14.1252C14.5158 14.0287 15.4193 13.9973 15.9999 13.9973V15.9495C15.4718 15.9495 14.6456 15.9788 13.8993 16.0646C13.5247 16.1076 13.1946 16.1622 12.9419 16.2267C12.7715 16.2701 12.6864 16.3061 12.6556 16.3191L12.6527 16.3203C12.628 16.3566 12.5731 16.4501 12.5133 16.6367C12.4393 16.8676 12.387 17.1483 12.3553 17.4263C12.2721 18.1551 11.8049 18.8834 11.0024 19.1597L6.96482 20.5495Z"/>
    </g>
</svg>
