<svg xmlns="http://www.w3.org/2000/svg" version="1.0" width="268.000000pt" height="248.000000pt" viewBox="0 0 268.000000 248.000000" preserveAspectRatio="xMidYMid meet">

<g transform="translate(0.000000,248.000000) scale(0.100000,-0.100000)" fill="currentColor" stroke="none">
<path d="M832 2174 c-201 -54 -376 -180 -434 -314 -54 -124 -42 -227 47 -407 154 -310 457 -681 740 -907 242 -193 543 -369 679 -396 222 -45 432 128 525 434 37 120 26 195 -38 249 -17 14 -119 69 -228 122 -267 132 -277 132 -430 35 l-53 -33 -56 37 c-66 44 -277 246 -332 319 -80 105 -78 92 -22 187 75 127 74 135 -51 395 -55 116 -112 223 -127 239 -53 56 -118 68 -220 40z m173 -350 c47 -97 85 -180 85 -185 0 -5 -15 -32 -33 -61 -18 -29 -38 -66 -45 -81 -18 -41 -14 -126 7 -172 64 -139 373 -449 525 -527 75 -38 186 -19 273 48 41 31 32 33 256 -77 l149 -73 -6 -35 c-9 -57 -81 -196 -127 -246 -96 -104 -158 -108 -331 -22 -280 140 -599 395 -806 646 -257 310 -416 593 -395 704 17 92 118 179 271 233 37 13 73 24 80 24 6 0 50 -79 97 -176z"/>
</g>
</svg>