<svg viewBox="0 0 32 32" xmlns="http://www.w3.org/2000/svg">
<g stroke="none" fill="currentColor" fill-rule="evenodd">
  <path d="M8 6.3335C8 5.78121 8.59695 5.3335 9.33333 5.3335H17.3333C18.0697 5.3335 18.6667 5.78121 18.6667 6.3335C18.6667 6.88578 18.0697 7.3335 17.3333 7.3335H9.33333C8.59695 7.3335 8 6.88578 8 6.3335ZM5 11.9998V23.9998C5 24.1839 5.14924 24.3332 5.33333 24.3332H21.3333C21.5174 24.3332 21.6667 24.1839 21.6667 23.9998V21.3332C21.6667 20.9777 21.8554 20.649 22.1623 20.4697C22.4692 20.2904 22.8482 20.2875 23.1578 20.4621L26.215 22.186C26.2941 22.2306 26.3668 22.2857 26.431 22.3499C26.641 22.5599 27 22.4112 27 22.1142V13.8855C27 13.5885 26.641 13.4398 26.431 13.6498C26.3668 13.714 26.2941 13.7691 26.215 13.8137L23.1578 15.5376C22.8482 15.7122 22.4692 15.7093 22.1623 15.53C21.8554 15.3507 21.6667 15.022 21.6667 14.6665V11.9998C21.6667 11.8157 21.5174 11.6665 21.3333 11.6665H5.33333C5.14924 11.6665 5 11.8157 5 11.9998ZM5.33333 9.6665H21.3333C22.622 9.6665 23.6667 10.7112 23.6667 11.9998V12.9546L25.1285 12.1303C26.6103 10.8181 29 11.8585 29 13.8855V22.1142C29 24.1412 26.6103 25.1815 25.1285 23.8693L23.6667 23.0451V23.9998C23.6667 25.2885 22.622 26.3332 21.3333 26.3332H5.33333C4.04467 26.3332 3 25.2885 3 23.9998V11.9998C3 10.7112 4.04467 9.6665 5.33333 9.6665Z"/>
</g>
</svg>
