<?xml version="1.0" encoding="utf-8"?> <!-- Generator: IcoMoon.io --> <!DOCTYPE svg PUBLIC "-//W3C//DTD SVG 1.1//EN" "http://www.w3.org/Graphics/SVG/1.1/DTD/svg11.dtd"> <svg width="120" height="24" viewBox="0 0 120 24" fill="#ffffff" xmlns="http://www.w3.org/2000/svg" xmlns:xlink="http://www.w3.org/1999/xlink"><path d="M 17.384,17.705q0.00,0.536 -0.375,0.911l-1.821,1.821q-0.375,0.375 -0.911,0.375t-0.911-0.375l-3.938-3.938l-3.938,3.938q-0.375,0.375 -0.911,0.375t-0.911-0.375l-1.821-1.821q-0.375-0.375 -0.375-0.911t 0.375-0.911l 3.938-3.938l-3.938-3.938q-0.375-0.375 -0.375-0.911t 0.375-0.911l 1.821-1.821q 0.375-0.375 0.911-0.375t 0.911,0.375l 3.938,3.938l 3.938-3.938q 0.375-0.375 0.911-0.375t 0.911,0.375l 1.821,1.821q 0.375,0.375 0.375,0.911 t-0.375,0.911l-3.938,3.938l 3.938,3.938q 0.375,0.375 0.375,0.911zM 57.938,21.067l-8.732-8.719q-0.496-0.496 -0.496-1.212t 0.496-1.212l 8.732-8.719q 0.496-0.496 1.212-0.496t 1.212,0.496l 1.004,1.004q 0.496,0.496 0.496,1.212t-0.496,1.212l-6.509,6.509l 6.509,6.496q 0.496,0.509 0.496,1.219t-0.496,1.205l-1.004,1.004q-0.496,0.496 -1.212,0.496t-1.212-0.496zM 110.719,11.143q0.00,0.696 -0.496,1.219l-8.732,8.719q-0.496,0.496 -1.205,0.496t-1.205-0.496l-1.018-1.004q-0.496-0.522 -0.496-1.219q0.00-0.71 0.496-1.205l 6.509-6.509l-6.509-6.496q-0.496-0.522 -0.496-1.219q0.00-0.71 0.496-1.205l 1.018-1.004q 0.482-0.509 1.205-0.509t 1.205,0.509l 8.732,8.719q 0.496,0.496 0.496,1.205z"></path></svg>