<svg width="544" height="200" viewBox="0 0 544 200" fill="none" xmlns="http://www.w3.org/2000/svg">
<g clip-path="url(#clip0_433_7799)">
<rect width="544" height="200" fill="#F2F3F5"/>
<rect x="108.68" y="5.40675" width="266.031" height="266.031" transform="rotate(-15 108.68 5.40675)" stroke="#E4E7EA" stroke-width="1.96875" stroke-dasharray="7.88 7.88"/>
<rect x="47.4429" y="-29.9486" width="366.031" height="366.031" transform="rotate(-15 47.4429 -29.9486)" stroke="#E4E7EA" stroke-width="1.96875" stroke-dasharray="7.88 7.88"/>
<rect x="-13.7944" y="-65.3039" width="466.031" height="466.031" transform="rotate(-15 -13.7944 -65.3039)" stroke="#E4E7EA" stroke-width="1.96875" stroke-dasharray="7.88 7.88"/>
<g filter="url(#filter0_d_433_7799)">
<g clip-path="url(#clip1_433_7799)">
<rect x="189.59" y="53" width="133.647" height="133.647" rx="12" transform="rotate(-15 189.59 53)" fill="white"/>
<path d="M301.795 79.9823C299.021 77.4653 295.554 75.5081 291.494 74.1616C283.652 71.5669 274.243 71.5011 265.001 73.9774C261.914 74.8047 258.944 75.8883 256.133 77.2111C253.828 75.9381 251.261 74.9254 248.657 74.2795C239.115 72.3385 232.116 75.8886 228.73 78.2406C227.617 79.0135 227.654 80.6724 228.817 81.3681C232.191 83.3876 238.008 87.6068 238.247 92.7973C235.211 98.1831 234.323 103.934 235.759 109.29C237.221 114.748 240.865 119.285 246.187 122.432C248.576 127.046 245.648 133.611 243.736 137.047C243.079 138.228 243.874 139.684 245.224 139.797C249.332 140.14 257.169 139.718 264.465 133.266C266.397 131.404 268.114 129.243 269.474 126.988C272.569 126.729 275.683 126.182 278.771 125.355C288.015 122.878 296.131 118.119 301.623 111.952C304.466 108.755 306.49 105.33 307.633 101.76C308.908 97.7874 309.035 93.8428 308.016 90.0412C306.968 86.1382 304.886 82.7883 301.795 79.9823ZM276.697 119.134C272.701 120.205 268.753 120.71 265.031 120.709L263.146 123.83C262.122 125.525 260.827 127.159 259.394 128.556C257.453 130.247 255.407 131.437 253.273 132.202C253.337 131.945 253.389 131.69 253.45 131.432C254.742 126.079 254.304 121.696 252.134 118.286C247.099 116.133 243.483 112.619 242.262 108.063C239.46 97.6057 250.334 85.6048 266.548 81.2602C282.763 76.9155 298.183 81.8709 300.985 92.328C303.788 102.788 292.914 114.789 276.697 119.134Z" fill="#F5455C"/>
<path d="M256.41 99.6046C254.02 100.245 252.598 102.686 253.233 105.057C253.868 107.428 256.321 108.831 258.71 108.19C261.1 107.55 262.522 105.109 261.887 102.738C261.252 100.367 258.8 98.9642 256.41 99.6046Z" fill="#F5455C"/>
<path d="M270.337 95.8728C267.947 96.5132 266.525 98.9546 267.16 101.325C267.795 103.696 270.248 105.099 272.638 104.459C275.027 103.818 276.45 101.377 275.814 99.0063C275.179 96.6357 272.727 95.2325 270.337 95.8728Z" fill="#F5455C"/>
<path d="M284.267 92.1404C281.877 92.7808 280.455 95.2222 281.09 97.5928C281.725 99.9634 284.177 101.367 286.567 100.726C288.957 100.086 290.379 97.6446 289.744 95.2739C289.109 92.9033 286.656 91.5001 284.267 92.1404Z" fill="#F5455C"/>
</g>
</g>
<g opacity="0.3">
<g filter="url(#filter1_d_433_7799)">
<rect x="75" y="28.4939" width="56" height="56" rx="16" transform="rotate(-15 75 28.4939)" fill="#0A2136"/>
<path d="M119.981 30.7087L120.901 34.1423L117.022 35.1817L122.542 55.7831L126.421 54.7437L127.341 58.1772L120.013 60.1407L112.653 32.6722L119.981 30.7087ZM98.6048 65.8771L97.6848 62.4435L101.564 61.404L96.044 40.8027L92.1646 41.8421L91.2446 38.4086L98.5724 36.4451L105.933 63.9136L98.6048 65.8771Z" fill="#F3F4F6"/>
</g>
</g>
<g opacity="0.3">
<g filter="url(#filter2_d_433_7799)">
<rect x="422" y="36.4939" width="56" height="56" rx="16" transform="rotate(-15 422 36.4939)" fill="#17A0DB"/>
<path d="M449.396 73.4607C449.449 73.5676 449.504 73.6754 449.558 73.7821C449.593 72.0911 450.258 70.4947 451.374 69.2298C450.96 69.1298 450.395 68.8991 450.215 68.4742C449.841 67.5989 449.805 66.6717 449.477 65.7656C449.367 65.462 449.235 65.1895 448.985 64.9734C448.578 65.4439 448.288 65.9806 448.14 66.5889C447.57 68.9278 448.348 71.3642 449.396 73.4607ZM451.438 68.0146C452.282 67.5301 452.921 66.7236 453.465 65.9323C452.524 65.7485 451.599 65.4815 450.703 65.141C450.855 65.8997 450.94 66.6671 451.077 67.4298C451.117 67.6801 451.233 67.8646 451.438 68.0146ZM463.563 58.8206C464.41 58.5669 465.217 58.206 465.953 57.7153C464.895 57.3602 463.895 56.8451 462.83 56.5152C460.566 55.8156 458.588 55.9261 456.41 56.859C456.041 57.0176 455.769 57.1953 455.451 57.4216C455.34 57.499 455.502 57.4556 455.629 57.4144C456.124 57.2516 456.649 57.1284 457.174 57.1053C458.236 57.0574 459.432 57.2647 460.376 57.7728C460.789 57.9955 462.008 58.8061 462.419 58.886C462.779 58.9572 463.202 58.9348 463.563 58.8206ZM465.253 62.5231C465.301 62.5488 465.35 62.5753 465.399 62.6018C466.525 61.2024 467.059 59.4954 467.326 57.7425C466.608 58.5408 465.589 59.0399 464.624 59.4755C464.823 60.4021 464.938 61.3571 464.81 62.3015C464.958 62.3727 465.108 62.4466 465.253 62.5231ZM456.652 69.0403C457.134 68.9659 457.605 68.8433 458.071 68.6951C459.971 68.0939 461.672 66.7547 462.671 65.0236C463.54 63.5182 464.084 61.6118 463.634 59.8796C463.622 59.8361 463.588 59.802 463.565 59.7639C462.722 59.9165 461.774 59.8231 461.077 59.2829C459.215 60.5321 457.298 61.7265 455.526 63.1042C455.409 63.1949 455.369 63.2022 455.366 63.3731C455.328 65.4086 454.174 67.1405 452.594 68.3471C453.849 69.0268 455.242 69.2502 456.652 69.0403ZM454.157 61.9014C454.369 61.9286 454.942 61.677 455.12 61.5875C456.913 60.727 458.628 59.7292 460.337 58.7097C459.338 58.157 458.085 57.8846 456.948 57.9981C455.452 58.1472 454.033 58.8769 452.785 59.681C452.647 59.7168 452.514 59.6068 452.437 59.5075C452.4 59.3715 452.414 59.2689 452.497 59.1498C452.91 58.5556 453.373 57.9876 453.907 57.4972C454.677 56.791 455.602 56.1387 456.578 55.7502C458.64 54.9298 460.897 54.9251 463.028 55.5204C464.079 55.8135 465.08 56.2445 466.108 56.6028C466.265 56.6576 466.445 56.6965 466.608 56.7309C466.658 56.685 466.77 56.6607 466.757 56.5944C466.713 56.3848 466.699 56.2614 466.606 56.0593C466.347 55.5028 466.064 54.9553 465.746 54.4299C464.842 52.9289 463.791 51.5512 462.891 50.0794C462.57 49.5559 462.482 48.977 462.474 48.3649C462.15 48.5965 461.807 48.8886 461.57 49.211C460.831 50.2128 459.524 52.3227 458.49 52.9039C457.629 53.3885 456.606 52.6128 455.854 52.1979C455.731 52.1296 455.649 52.1433 455.511 52.2002C454.088 52.7866 451.608 53.9753 450.895 55.383C450.324 56.5077 450.532 57.7154 451.038 58.8358C451.65 60.1901 452.613 61.6322 454.157 61.9014ZM467.228 55.3123C467.253 55.3707 467.28 55.4312 467.305 55.4919L467.383 55.2709C467.328 54.5188 467.227 53.7639 467.094 53.0224C466.788 51.3039 466.143 48.5762 464.345 47.8543C464.165 47.7825 463.679 47.6926 463.573 47.932C463.487 48.1273 463.477 48.1965 463.467 48.4135C463.45 48.7618 463.47 49.2156 463.66 49.5237C464.838 51.4454 466.332 53.2298 467.228 55.3123ZM459.883 47.6856C460.293 47.7283 460.615 47.318 460.674 46.9525C460.812 46.0928 460.468 45.3088 459.813 44.7467C459.473 45.1618 458.677 46.0649 458.817 46.6356C458.94 47.1376 459.322 47.6401 459.883 47.6856ZM454.735 47.9624C454.75 48.0806 454.782 48.141 454.865 48.0558C455.589 47.3166 456.452 46.7565 457.248 46.1004C457.386 45.9842 457.508 45.8315 457.599 45.6754C458.216 44.6105 458.46 43.3904 458.548 42.1737C458.558 42.0323 458.551 41.8826 458.475 42.001C457.806 43.0423 456.845 43.7674 455.902 44.5466C455.512 44.8679 455.074 45.2859 454.825 45.7303C454.472 46.3549 454.644 47.262 454.735 47.9624ZM459.29 42.9046C459.273 42.9942 459.377 42.9594 459.406 42.8734C459.735 41.9394 459.863 40.888 459.503 39.9414C459.481 39.8856 459.499 39.7643 459.44 39.7743L459.348 39.7838C459.458 40.8181 459.479 41.8798 459.29 42.9046ZM457.239 51.7045C457.475 51.7893 457.707 51.8913 457.953 51.7695C458.603 51.438 459.17 50.8666 459.585 50.2671C459.918 49.7875 460.05 49.2617 460.188 48.699C458.936 48.7419 458.167 48.024 457.786 46.8758C457.28 47.2048 454.855 48.7962 455.018 49.3979C455.316 50.4916 456.165 51.3127 457.239 51.7045ZM450.498 76.8955C448.502 74.7385 447.365 71.8876 446.861 69.0243C446.618 67.6422 446.775 66.0481 447.5 64.8261C448.131 63.7607 448.952 63.5372 450.124 63.7755C451.37 64.0279 452.532 64.5776 453.779 64.8297C453.971 64.8679 454.07 64.6689 454.118 64.522C454.267 64.0709 454.248 63.5399 454.157 63.0795C452.457 62.8337 451.205 61.3697 450.402 59.9362C449.522 58.3715 449.119 56.4753 449.976 54.8183C450.875 53.0823 452.839 52.0316 454.582 51.335C454.608 51.3245 454.813 51.167 454.843 51.1403C454.353 50.3813 454.04 49.5413 453.884 48.6555C453.747 47.8799 453.627 46.6536 453.787 45.8905C453.949 45.1211 454.445 44.4452 455.048 43.9654C455.73 43.4227 456.33 43.0861 456.967 42.4468C457.789 41.6196 458.411 40.5359 458.287 39.3361C458.198 38.4675 458.055 37.6295 457.776 36.7987C457.729 36.6575 457.887 36.4616 458.031 36.4392C458.089 36.4295 458.151 36.4211 458.206 36.439C459.154 37.2686 460.178 38.8109 460.638 39.9856C461.109 41.1845 460.737 42.6406 460.097 43.6986C461.046 44.5829 461.769 45.8248 461.715 47.1526C463.389 46.4979 465.075 46.6311 466.348 47.9902C467.968 49.7198 468.482 54.1641 468.483 56.4872C468.485 58.6111 467.988 60.7346 466.753 62.4791C466.456 62.8988 466.07 63.2739 465.649 63.566C465.458 63.6975 464.819 63.4085 464.613 63.3252C463.762 67.007 460.331 69.8235 456.62 70.2259C455.252 70.3744 453.861 70.0945 452.65 69.4495C451.268 70.9536 450.683 72.2465 450.611 74.2981C450.577 75.23 450.588 76.1606 450.677 77.0888C450.618 77.0243 450.557 76.96 450.498 76.8955Z" fill="white"/>
</g>
</g>
<g opacity="0.45">
<g filter="url(#filter3_d_433_7799)">
<rect x="121" y="127.494" width="56" height="56" rx="16" transform="rotate(-15 121 127.494)" fill="#F7F8FA"/>
<g clip-path="url(#clip2_433_7799)">
<path d="M157.014 146.832L160.351 149.066L164.373 150.34L163.607 145.084L161.673 140.264L158.689 143.13L157.014 146.832Z" fill="#00832D"/>
<path d="M143.436 155.443L144.599 159.783C144.865 160.776 145.884 161.364 146.877 161.098L151.218 159.934L151.238 156.413L149.574 153.798L146.354 153.698L143.436 155.443Z" fill="#0066DA"/>
<path d="M145.443 138.382L140.949 146.163L144.349 146.215L147.088 144.519L147.216 141.465L145.443 138.382Z" fill="#E94235"/>
<path d="M147.088 144.519L140.949 146.163L143.436 155.443L149.574 153.798L147.088 144.519Z" fill="#2684FC"/>
<path d="M164.735 135.998L161.673 140.264L164.373 150.34L169.179 152.514C169.893 152.816 170.642 152.165 170.441 151.415L166.391 136.298C166.188 135.54 165.194 135.36 164.735 135.998ZM157.014 146.832L158.258 151.471L149.574 153.798L151.218 159.934L164.094 156.484C165.087 156.218 165.675 155.199 165.409 154.207L164.373 150.34L157.014 146.832Z" fill="#00AC47"/>
<path d="M158.319 134.932L145.443 138.382L147.088 144.519L155.771 142.192L157.014 146.832L161.674 140.267L160.597 136.247C160.331 135.255 159.312 134.666 158.319 134.932Z" fill="#FFBA00"/>
</g>
</g>
</g>
<g opacity="0.35">
<g filter="url(#filter4_d_433_7799)">
<g clip-path="url(#clip3_433_7799)">
<rect x="398" y="142.494" width="56" height="56" rx="16" transform="rotate(-15 398 142.494)" fill="white"/>
<rect x="398" y="142.494" width="56" height="56" transform="rotate(-15 398 142.494)" fill="white" fill-opacity="0.1"/>
<g clip-path="url(#clip4_433_7799)">
<path d="M423.902 156.332C423.784 155.894 424.162 155.413 424.746 155.257L431.085 153.558C431.668 153.402 432.236 153.63 432.354 154.067C432.471 154.505 432.093 154.986 431.509 155.143L425.17 156.841C424.587 156.998 424.019 156.77 423.902 156.332ZM422.728 161.459C422.689 161.313 422.775 161.163 422.921 161.124L435.599 157.727C435.745 157.688 435.895 157.774 435.934 157.92L436.5 160.033C436.575 160.315 436.795 160.535 437.076 160.612C437.357 160.689 437.658 160.611 437.866 160.407L439.923 158.392C439.976 158.34 440.022 158.28 440.059 158.216C440.181 158.005 440.497 158.047 440.56 158.282L442.307 164.802C442.37 165.037 442.117 165.231 441.906 165.11C441.842 165.072 441.772 165.044 441.7 165.026L438.912 164.309C438.629 164.236 438.33 164.319 438.125 164.526C437.919 164.733 437.84 165.034 437.915 165.316L438.481 167.429C438.52 167.574 438.434 167.724 438.288 167.763L425.61 171.16C425.464 171.199 425.314 171.113 425.275 170.967L422.728 161.459ZM422.496 159.539C421.475 159.813 420.869 160.862 421.143 161.883L423.691 171.392C423.964 172.413 425.014 173.019 426.035 172.745L438.713 169.348C439.734 169.075 440.34 168.025 440.066 167.004L439.863 166.247L441.197 166.59C442.649 167.315 444.322 165.984 443.892 164.377L442.145 157.857C441.714 156.251 439.6 155.934 438.704 157.289L437.721 158.252L437.518 157.496C437.245 156.474 436.195 155.869 435.174 156.142L422.496 159.539Z" fill="#1F2329"/>
</g>
</g>
</g>
</g>
<g opacity="0.35">
<g filter="url(#filter5_d_433_7799)">
<g clip-path="url(#clip5_433_7799)">
<rect x="15" y="115.494" width="56" height="56" rx="16" transform="rotate(-15 15 115.494)" fill="white"/>
<rect x="15" y="115.494" width="56" height="56" transform="rotate(-15 15 115.494)" fill="white" fill-opacity="0.1"/>
<path d="M57.2338 135.546L53.7947 134.88C53.4809 134.823 53.1576 134.857 52.8621 134.977C52.5667 135.096 52.3111 135.297 52.125 135.556C51.9913 135.732 51.8459 135.899 51.6898 136.055C51.6169 136.118 51.5378 136.173 51.4538 136.22C51.3712 136.21 51.2897 136.192 51.2102 136.166C50.9571 136.088 50.7084 135.996 50.4655 135.89C49.8983 135.643 49.3104 135.351 48.9245 135.114C48.5385 134.878 47.9754 134.519 47.482 134.168C47.2691 134.01 47.065 133.841 46.8707 133.661C46.8092 133.604 46.7529 133.543 46.7024 133.476C46.7011 133.38 46.7094 133.284 46.7274 133.189C46.7847 132.976 46.8563 132.767 46.9417 132.563C47.0728 132.272 47.1189 131.95 47.0749 131.635C47.0308 131.319 46.8983 131.022 46.6927 130.778L44.396 128.133C44.1816 127.89 43.8956 127.723 43.5795 127.655C43.2634 127.587 42.9339 127.622 42.6389 127.754C41.5498 128.252 40.6039 129.016 39.8891 129.977C39.4971 130.532 39.2608 131.182 39.2047 131.859C39.1539 132.608 39.374 133.351 39.8249 133.952C40.8396 135.26 42.0233 136.428 43.3451 137.425C44.3121 138.193 45.3289 138.896 46.3887 139.531C47.4615 140.127 48.5722 140.652 49.7138 141.102C51.2457 141.749 52.8568 142.188 54.5046 142.409C55.2504 142.503 56.0048 142.322 56.6268 141.9C57.169 141.51 57.5993 140.985 57.8744 140.377C58.358 139.277 58.5553 138.073 58.448 136.877C58.4142 136.554 58.2781 136.251 58.0597 136.012C57.8412 135.772 57.5518 135.609 57.2338 135.546ZM56.4402 139.682C56.2911 140.035 56.0512 140.343 55.745 140.573C55.4264 140.776 55.0477 140.862 54.6728 140.818C53.1777 140.606 51.7165 140.201 50.3253 139.614C49.2557 139.17 48.2146 138.661 47.208 138.088C46.2159 137.489 45.2619 136.828 44.3515 136.11C43.1473 135.201 42.0684 134.137 41.1428 132.945C40.9083 132.647 40.7903 132.274 40.8108 131.896C40.8573 131.515 41.0035 131.154 41.2348 130.848C41.7575 130.156 42.4376 129.598 43.2187 129.221L45.5286 131.821C45.5387 131.843 45.5452 131.867 45.5477 131.892C45.4175 132.192 45.3162 132.503 45.245 132.822C45.1492 133.192 45.1537 133.581 45.2581 133.948C45.3788 134.265 45.5739 134.547 45.827 134.772C46.0724 135.001 46.3311 135.216 46.6018 135.414C47.1618 135.825 47.7873 136.226 48.1992 136.464C48.611 136.702 49.2671 137.027 49.9067 137.323C50.2138 137.458 50.5287 137.575 50.8497 137.673C51.171 137.78 51.5134 137.807 51.8477 137.754C52.2181 137.66 52.5569 137.47 52.8292 137.202C53.0698 136.981 53.2889 136.737 53.4834 136.475C53.4998 136.451 53.5204 136.432 53.5441 136.416L56.8802 137.11C56.9435 137.99 56.7925 138.873 56.4402 139.682Z" fill="#2F343D"/>
</g>
</g>
</g>
</g>
<defs>
<filter id="filter0_d_433_7799" x="108.59" y="-22.5904" width="325.683" height="325.683" filterUnits="userSpaceOnUse" color-interpolation-filters="sRGB">
<feFlood flood-opacity="0" result="BackgroundImageFix"/>
<feColorMatrix in="SourceAlpha" type="matrix" values="0 0 0 0 0 0 0 0 0 0 0 0 0 0 0 0 0 0 127 0" result="hardAlpha"/>
<feOffset dy="40"/>
<feGaussianBlur stdDeviation="40.5"/>
<feComposite in2="hardAlpha" operator="out"/>
<feColorMatrix type="matrix" values="0 0 0 0 0 0 0 0 0 0 0 0 0 0 0 0 0 0 0.25 0"/>
<feBlend mode="normal" in2="BackgroundImageFix" result="effect1_dropShadow_433_7799"/>
<feBlend mode="normal" in="SourceGraphic" in2="effect1_dropShadow_433_7799" result="shape"/>
</filter>
<filter id="filter1_d_433_7799" x="-6" y="-27" width="230.586" height="230.586" filterUnits="userSpaceOnUse" color-interpolation-filters="sRGB">
<feFlood flood-opacity="0" result="BackgroundImageFix"/>
<feColorMatrix in="SourceAlpha" type="matrix" values="0 0 0 0 0 0 0 0 0 0 0 0 0 0 0 0 0 0 127 0" result="hardAlpha"/>
<feOffset dy="40"/>
<feGaussianBlur stdDeviation="40.5"/>
<feComposite in2="hardAlpha" operator="out"/>
<feColorMatrix type="matrix" values="0 0 0 0 0 0 0 0 0 0 0 0 0 0 0 0 0 0 0.25 0"/>
<feBlend mode="normal" in2="BackgroundImageFix" result="effect1_dropShadow_433_7799"/>
<feBlend mode="normal" in="SourceGraphic" in2="effect1_dropShadow_433_7799" result="shape"/>
</filter>
<filter id="filter2_d_433_7799" x="341" y="-19" width="230.586" height="230.586" filterUnits="userSpaceOnUse" color-interpolation-filters="sRGB">
<feFlood flood-opacity="0" result="BackgroundImageFix"/>
<feColorMatrix in="SourceAlpha" type="matrix" values="0 0 0 0 0 0 0 0 0 0 0 0 0 0 0 0 0 0 127 0" result="hardAlpha"/>
<feOffset dy="40"/>
<feGaussianBlur stdDeviation="40.5"/>
<feComposite in2="hardAlpha" operator="out"/>
<feColorMatrix type="matrix" values="0 0 0 0 0 0 0 0 0 0 0 0 0 0 0 0 0 0 0.25 0"/>
<feBlend mode="normal" in2="BackgroundImageFix" result="effect1_dropShadow_433_7799"/>
<feBlend mode="normal" in="SourceGraphic" in2="effect1_dropShadow_433_7799" result="shape"/>
</filter>
<filter id="filter3_d_433_7799" x="40" y="72" width="230.586" height="230.586" filterUnits="userSpaceOnUse" color-interpolation-filters="sRGB">
<feFlood flood-opacity="0" result="BackgroundImageFix"/>
<feColorMatrix in="SourceAlpha" type="matrix" values="0 0 0 0 0 0 0 0 0 0 0 0 0 0 0 0 0 0 127 0" result="hardAlpha"/>
<feOffset dy="40"/>
<feGaussianBlur stdDeviation="40.5"/>
<feComposite in2="hardAlpha" operator="out"/>
<feColorMatrix type="matrix" values="0 0 0 0 0 0 0 0 0 0 0 0 0 0 0 0 0 0 0.25 0"/>
<feBlend mode="normal" in2="BackgroundImageFix" result="effect1_dropShadow_433_7799"/>
<feBlend mode="normal" in="SourceGraphic" in2="effect1_dropShadow_433_7799" result="shape"/>
</filter>
<filter id="filter4_d_433_7799" x="317" y="87" width="230.586" height="230.586" filterUnits="userSpaceOnUse" color-interpolation-filters="sRGB">
<feFlood flood-opacity="0" result="BackgroundImageFix"/>
<feColorMatrix in="SourceAlpha" type="matrix" values="0 0 0 0 0 0 0 0 0 0 0 0 0 0 0 0 0 0 127 0" result="hardAlpha"/>
<feOffset dy="40"/>
<feGaussianBlur stdDeviation="40.5"/>
<feComposite in2="hardAlpha" operator="out"/>
<feColorMatrix type="matrix" values="0 0 0 0 0 0 0 0 0 0 0 0 0 0 0 0 0 0 0.25 0"/>
<feBlend mode="normal" in2="BackgroundImageFix" result="effect1_dropShadow_433_7799"/>
<feBlend mode="normal" in="SourceGraphic" in2="effect1_dropShadow_433_7799" result="shape"/>
</filter>
<filter id="filter5_d_433_7799" x="-66" y="60" width="230.586" height="230.586" filterUnits="userSpaceOnUse" color-interpolation-filters="sRGB">
<feFlood flood-opacity="0" result="BackgroundImageFix"/>
<feColorMatrix in="SourceAlpha" type="matrix" values="0 0 0 0 0 0 0 0 0 0 0 0 0 0 0 0 0 0 127 0" result="hardAlpha"/>
<feOffset dy="40"/>
<feGaussianBlur stdDeviation="40.5"/>
<feComposite in2="hardAlpha" operator="out"/>
<feColorMatrix type="matrix" values="0 0 0 0 0 0 0 0 0 0 0 0 0 0 0 0 0 0 0.25 0"/>
<feBlend mode="normal" in2="BackgroundImageFix" result="effect1_dropShadow_433_7799"/>
<feBlend mode="normal" in="SourceGraphic" in2="effect1_dropShadow_433_7799" result="shape"/>
</filter>
<clipPath id="clip0_433_7799">
<rect width="544" height="200" fill="white"/>
</clipPath>
<clipPath id="clip1_433_7799">
<rect x="189.59" y="53" width="133.647" height="133.647" rx="12" transform="rotate(-15 189.59 53)" fill="white"/>
</clipPath>
<clipPath id="clip2_433_7799">
<rect width="27.125" height="22.3125" fill="white" transform="translate(139.305 140.027) rotate(-15)"/>
</clipPath>
<clipPath id="clip3_433_7799">
<rect x="398" y="142.494" width="56" height="56" rx="16" transform="rotate(-15 398 142.494)" fill="white"/>
</clipPath>
<clipPath id="clip4_433_7799">
<rect width="26.25" height="26.25" fill="white" transform="translate(416.218 153.012) rotate(-15)"/>
</clipPath>
<clipPath id="clip5_433_7799">
<rect x="15" y="115.494" width="56" height="56" rx="16" transform="rotate(-15 15 115.494)" fill="white"/>
</clipPath>
</defs>
</svg>
