<svg width="608" height="280" viewBox="0 0 608 280" fill="none" xmlns="http://www.w3.org/2000/svg">
<g clip-path="url(#clip0_4891_465)">
<rect width="608" height="256" transform="translate(0 24)" fill="#F7F8FA"/>
<g opacity="0.5">
<path opacity="0.2" d="M36.5791 -324.928L36.5791 593.265" stroke="url(#paint0_linear_4891_465)" stroke-width="0.810766" stroke-dasharray="3.16 3.16"/>
<path opacity="0.2" d="M88.8945 -324.928L88.8945 593.265" stroke="url(#paint1_linear_4891_465)" stroke-width="0.810766" stroke-dasharray="3.16 3.16"/>
<path opacity="0.2" d="M141.21 -324.928L141.21 593.265" stroke="url(#paint2_linear_4891_465)" stroke-width="0.810766" stroke-dasharray="3.16 3.16"/>
<path opacity="0.2" d="M193.526 -324.928L193.526 593.265" stroke="url(#paint3_linear_4891_465)" stroke-width="0.810766" stroke-dasharray="3.16 3.16"/>
<path opacity="0.2" d="M245.842 -324.928L245.842 593.265" stroke="url(#paint4_linear_4891_465)" stroke-width="0.810766" stroke-dasharray="3.16 3.16"/>
<path opacity="0.2" d="M298.158 -324.928V593.265" stroke="url(#paint5_linear_4891_465)" stroke-width="0.810766" stroke-dasharray="3.16 3.16"/>
<path opacity="0.2" d="M350.473 -324.928V593.265" stroke="url(#paint6_linear_4891_465)" stroke-width="0.810766" stroke-dasharray="3.16 3.16"/>
<path opacity="0.2" d="M402.789 -324.928V593.265" stroke="url(#paint7_linear_4891_465)" stroke-width="0.810766" stroke-dasharray="3.16 3.16"/>
<path opacity="0.2" d="M455.105 -324.928V593.265" stroke="url(#paint8_linear_4891_465)" stroke-width="0.810766" stroke-dasharray="3.16 3.16"/>
<path opacity="0.2" d="M507.421 -324.928V593.265" stroke="url(#paint9_linear_4891_465)" stroke-width="0.810766" stroke-dasharray="3.16 3.16"/>
<path opacity="0.2" d="M559.736 -324.928V593.265" stroke="url(#paint10_linear_4891_465)" stroke-width="0.810766" stroke-dasharray="3.16 3.16"/>
<path opacity="0.2" d="M-225 254.833L769 254.833" stroke="url(#paint11_linear_4891_465)" stroke-width="0.810766" stroke-dasharray="3.16 3.16"/>
<path opacity="0.2" d="M-225 206.514L769 206.514" stroke="url(#paint12_linear_4891_465)" stroke-width="0.810766" stroke-dasharray="3.16 3.16"/>
<path opacity="0.2" d="M-225 158.195L769 158.195" stroke="url(#paint13_linear_4891_465)" stroke-width="0.810766" stroke-dasharray="3.16 3.16"/>
<path opacity="0.2" d="M-225 109.875L769 109.875" stroke="url(#paint14_linear_4891_465)" stroke-width="0.810766" stroke-dasharray="3.16 3.16"/>
<path opacity="0.2" d="M-225 61.5556L769 61.5556" stroke="url(#paint15_linear_4891_465)" stroke-width="0.810766" stroke-dasharray="3.16 3.16"/>
</g>
<g filter="url(#filter0_d_4891_465)">
<rect x="194" y="85" width="220" height="134" rx="8" fill="white"/>
<rect x="318.5" y="109.5" width="70" height="84" rx="7.5" stroke="#14161A"/>
<rect x="331" y="125" width="46" height="2" rx="1" fill="#14161A"/>
<rect x="331" y="135" width="46" height="2" rx="1" fill="#14161A"/>
<rect x="331" y="145" width="46" height="2" rx="1" fill="#14161A"/>
<rect x="363" y="173" width="14" height="8" rx="2" fill="#064FBC"/>
<rect x="365" y="176" width="10" height="2" rx="1" fill="white"/>
<rect x="346" y="173" width="14" height="8" rx="2" fill="#E4E7EA"/>
<rect x="348" y="176" width="10" height="2" rx="1" fill="#14161A"/>
<path d="M229.193 169H220.125L231.903 134.091H243.136L254.915 169H245.847L237.648 142.886H237.375L229.193 169ZM227.983 155.261H246.938V161.67H227.983V155.261ZM266.054 169.443C264.384 169.443 262.901 169.165 261.605 168.608C260.321 168.04 259.304 167.187 258.554 166.051C257.815 164.903 257.446 163.466 257.446 161.739C257.446 160.284 257.702 159.057 258.213 158.057C258.724 157.057 259.429 156.244 260.327 155.619C261.224 154.994 262.259 154.523 263.429 154.205C264.599 153.875 265.849 153.653 267.179 153.54C268.668 153.403 269.866 153.261 270.776 153.114C271.685 152.955 272.344 152.733 272.753 152.449C273.173 152.153 273.384 151.739 273.384 151.205V151.119C273.384 150.244 273.082 149.568 272.48 149.091C271.878 148.614 271.065 148.375 270.043 148.375C268.94 148.375 268.054 148.614 267.384 149.091C266.713 149.568 266.287 150.227 266.105 151.068L258.418 150.795C258.645 149.205 259.23 147.784 260.173 146.534C261.128 145.273 262.435 144.284 264.094 143.568C265.764 142.841 267.77 142.477 270.111 142.477C271.781 142.477 273.321 142.676 274.73 143.074C276.139 143.46 277.366 144.028 278.412 144.778C279.457 145.517 280.264 146.426 280.832 147.506C281.412 148.585 281.702 149.818 281.702 151.205V169H273.861V165.352H273.656C273.19 166.239 272.594 166.989 271.866 167.602C271.151 168.216 270.304 168.676 269.327 168.983C268.361 169.29 267.27 169.443 266.054 169.443ZM268.628 163.989C269.526 163.989 270.332 163.807 271.048 163.443C271.776 163.08 272.355 162.58 272.787 161.943C273.219 161.295 273.435 160.545 273.435 159.693V157.205C273.196 157.33 272.906 157.443 272.565 157.545C272.236 157.648 271.872 157.744 271.474 157.835C271.077 157.926 270.668 158.006 270.247 158.074C269.827 158.142 269.423 158.205 269.037 158.261C268.253 158.386 267.582 158.58 267.026 158.841C266.48 159.102 266.06 159.443 265.764 159.864C265.48 160.273 265.338 160.761 265.338 161.33C265.338 162.193 265.645 162.852 266.259 163.307C266.884 163.761 267.673 163.989 268.628 163.989Z" fill="#14161A"/>
<circle cx="224" cy="189" r="5" fill="#14161A"/>
<circle cx="238" cy="189" r="4.5" fill="white" stroke="#14161A"/>
<circle cx="252" cy="189" r="5" fill="#064FBC"/>
<circle cx="266" cy="189" r="5" fill="#7020C0"/>
<circle cx="280" cy="189" r="5" fill="#AE091F"/>
</g>
</g>
<defs>
<filter id="filter0_d_4891_465" x="182" y="73" width="244" height="158" filterUnits="userSpaceOnUse" color-interpolation-filters="sRGB">
<feFlood flood-opacity="0" result="BackgroundImageFix"/>
<feColorMatrix in="SourceAlpha" type="matrix" values="0 0 0 0 0 0 0 0 0 0 0 0 0 0 0 0 0 0 127 0" result="hardAlpha"/>
<feOffset/>
<feGaussianBlur stdDeviation="6"/>
<feComposite in2="hardAlpha" operator="out"/>
<feColorMatrix type="matrix" values="0 0 0 0 0.184314 0 0 0 0 0.203922 0 0 0 0 0.239216 0 0 0 0.1 0"/>
<feBlend mode="normal" in2="BackgroundImageFix" result="effect1_dropShadow_4891_465"/>
<feBlend mode="normal" in="SourceGraphic" in2="effect1_dropShadow_4891_465" result="shape"/>
</filter>
<linearGradient id="paint0_linear_4891_465" x1="37.0791" y1="-324.928" x2="37.0791" y2="593.265" gradientUnits="userSpaceOnUse">
<stop stop-color="#9598A2" stop-opacity="0.13"/>
<stop offset="0.161458" stop-color="#9598A2"/>
<stop offset="0.765625" stop-color="#9598A2"/>
<stop offset="1" stop-color="#9598A2" stop-opacity="0"/>
</linearGradient>
<linearGradient id="paint1_linear_4891_465" x1="89.3945" y1="-324.928" x2="89.3945" y2="593.265" gradientUnits="userSpaceOnUse">
<stop stop-color="#9598A2" stop-opacity="0.13"/>
<stop offset="0.161458" stop-color="#9598A2"/>
<stop offset="0.765625" stop-color="#9598A2"/>
<stop offset="1" stop-color="#9598A2" stop-opacity="0"/>
</linearGradient>
<linearGradient id="paint2_linear_4891_465" x1="141.71" y1="-324.928" x2="141.71" y2="593.265" gradientUnits="userSpaceOnUse">
<stop stop-color="#9598A2" stop-opacity="0.13"/>
<stop offset="0.161458" stop-color="#9598A2"/>
<stop offset="0.765625" stop-color="#9598A2"/>
<stop offset="1" stop-color="#9598A2" stop-opacity="0"/>
</linearGradient>
<linearGradient id="paint3_linear_4891_465" x1="194.026" y1="-324.928" x2="194.026" y2="593.265" gradientUnits="userSpaceOnUse">
<stop stop-color="#9598A2" stop-opacity="0.13"/>
<stop offset="0.161458" stop-color="#9598A2"/>
<stop offset="0.765625" stop-color="#9598A2"/>
<stop offset="1" stop-color="#9598A2" stop-opacity="0"/>
</linearGradient>
<linearGradient id="paint4_linear_4891_465" x1="246.342" y1="-324.928" x2="246.342" y2="593.265" gradientUnits="userSpaceOnUse">
<stop stop-color="#9598A2" stop-opacity="0.13"/>
<stop offset="0.161458" stop-color="#9598A2"/>
<stop offset="0.765625" stop-color="#9598A2"/>
<stop offset="1" stop-color="#9598A2" stop-opacity="0"/>
</linearGradient>
<linearGradient id="paint5_linear_4891_465" x1="298.658" y1="-324.928" x2="298.658" y2="593.265" gradientUnits="userSpaceOnUse">
<stop stop-color="#9598A2" stop-opacity="0.13"/>
<stop offset="0.161458" stop-color="#9598A2"/>
<stop offset="0.765625" stop-color="#9598A2"/>
<stop offset="1" stop-color="#9598A2" stop-opacity="0"/>
</linearGradient>
<linearGradient id="paint6_linear_4891_465" x1="350.973" y1="-324.928" x2="350.973" y2="593.265" gradientUnits="userSpaceOnUse">
<stop stop-color="#9598A2" stop-opacity="0.13"/>
<stop offset="0.161458" stop-color="#9598A2"/>
<stop offset="0.765625" stop-color="#9598A2"/>
<stop offset="1" stop-color="#9598A2" stop-opacity="0"/>
</linearGradient>
<linearGradient id="paint7_linear_4891_465" x1="403.289" y1="-324.928" x2="403.289" y2="593.265" gradientUnits="userSpaceOnUse">
<stop stop-color="#9598A2" stop-opacity="0.13"/>
<stop offset="0.161458" stop-color="#9598A2"/>
<stop offset="0.765625" stop-color="#9598A2"/>
<stop offset="1" stop-color="#9598A2" stop-opacity="0"/>
</linearGradient>
<linearGradient id="paint8_linear_4891_465" x1="455.605" y1="-324.928" x2="455.605" y2="593.265" gradientUnits="userSpaceOnUse">
<stop stop-color="#9598A2" stop-opacity="0.13"/>
<stop offset="0.161458" stop-color="#9598A2"/>
<stop offset="0.765625" stop-color="#9598A2"/>
<stop offset="1" stop-color="#9598A2" stop-opacity="0"/>
</linearGradient>
<linearGradient id="paint9_linear_4891_465" x1="507.921" y1="-324.928" x2="507.921" y2="593.265" gradientUnits="userSpaceOnUse">
<stop stop-color="#9598A2" stop-opacity="0.13"/>
<stop offset="0.161458" stop-color="#9598A2"/>
<stop offset="0.765625" stop-color="#9598A2"/>
<stop offset="1" stop-color="#9598A2" stop-opacity="0"/>
</linearGradient>
<linearGradient id="paint10_linear_4891_465" x1="560.236" y1="-324.928" x2="560.236" y2="593.265" gradientUnits="userSpaceOnUse">
<stop stop-color="#9598A2" stop-opacity="0.13"/>
<stop offset="0.161458" stop-color="#9598A2"/>
<stop offset="0.765625" stop-color="#9598A2"/>
<stop offset="1" stop-color="#9598A2" stop-opacity="0"/>
</linearGradient>
<linearGradient id="paint11_linear_4891_465" x1="-225" y1="254.333" x2="769" y2="254.333" gradientUnits="userSpaceOnUse">
<stop stop-color="#9598A2" stop-opacity="0.13"/>
<stop offset="0.161458" stop-color="#9598A2"/>
<stop offset="0.765625" stop-color="#9598A2"/>
<stop offset="1" stop-color="#9598A2" stop-opacity="0"/>
</linearGradient>
<linearGradient id="paint12_linear_4891_465" x1="-225" y1="206.014" x2="769" y2="206.014" gradientUnits="userSpaceOnUse">
<stop stop-color="#9598A2" stop-opacity="0.13"/>
<stop offset="0.161458" stop-color="#9598A2"/>
<stop offset="0.765625" stop-color="#9598A2"/>
<stop offset="1" stop-color="#9598A2" stop-opacity="0"/>
</linearGradient>
<linearGradient id="paint13_linear_4891_465" x1="-225" y1="157.695" x2="769" y2="157.695" gradientUnits="userSpaceOnUse">
<stop stop-color="#9598A2" stop-opacity="0.13"/>
<stop offset="0.161458" stop-color="#9598A2"/>
<stop offset="0.765625" stop-color="#9598A2"/>
<stop offset="1" stop-color="#9598A2" stop-opacity="0"/>
</linearGradient>
<linearGradient id="paint14_linear_4891_465" x1="-225" y1="109.375" x2="769" y2="109.375" gradientUnits="userSpaceOnUse">
<stop stop-color="#9598A2" stop-opacity="0.13"/>
<stop offset="0.161458" stop-color="#9598A2"/>
<stop offset="0.765625" stop-color="#9598A2"/>
<stop offset="1" stop-color="#9598A2" stop-opacity="0"/>
</linearGradient>
<linearGradient id="paint15_linear_4891_465" x1="-225" y1="61.0556" x2="769" y2="61.0556" gradientUnits="userSpaceOnUse">
<stop stop-color="#9598A2" stop-opacity="0.13"/>
<stop offset="0.161458" stop-color="#9598A2"/>
<stop offset="0.765625" stop-color="#9598A2"/>
<stop offset="1" stop-color="#9598A2" stop-opacity="0"/>
</linearGradient>
<clipPath id="clip0_4891_465">
<rect width="608" height="256" fill="white" transform="translate(0 24)"/>
</clipPath>
</defs>
</svg>
