<svg xmlns="http://www.w3.org/2000/svg" xmlns:xlink="http://www.w3.org/1999/xlink" style="display: none">
    <symbol viewBox="0 0 20 20" id="icon-add-reaction"><g fill="none" fill-rule="evenodd"><g transform="translate(3 3)"><circle fill="currentColor" cx="9" cy="5" r="1" /><circle fill="currentColor" cx="5" cy="5" r="1" /><path d="M7 0a7 7 0 1 0 0 14 7 7 0 0 0 7-7M4.172 9.328a4 4 0 0 0 5.656 0" stroke="currentColor" stroke-width="1.5" /></g><path d="M16.2 1.2v5.2m-2.6-2.6h5.2" stroke="currentColor" stroke-width="1.5" stroke-linecap="square" /><</symbol>
    <symbol viewBox="0 0 20 20" id="icon-at"><g transform="translate(3 3)" stroke="currentColor" stroke-width="1.5" fill="none" fill-rule="evenodd"><circle cx="7" cy="7" r="3" /><path d="M9.68 13.469A7 7 0 1 1 14 7v.542" /><path d="M14 7.49c0 1.387-.781 2.51-2 2.51-1.219 0-2-1.112-2-2.51V3" /><</symbol>
    <symbol viewBox="0 0 20 20" id="icon-back"><g stroke-width="1.5" stroke="currentColor" fill="none" fill-rule="evenodd"><path d="M7.5 15.06L2.44 10 7.5 4.94" /><path d="M3.333 10h11.67c.918 0 1.664.74 1.664 1.667v2.916" /><</symbol>
    <symbol viewBox="0 0 20 20" id="icon-bell"><path d="M18.19 15.552a.646.646 0 0 0-.212-.718c-.059-.047-1.454-1.169-1.454-3.353V8.154a6.57 6.57 0 0 0-6.563-6.563 6.57 6.57 0 0 0-6.563 6.563v3.537c0 1.862-1.399 3.161-1.412 3.172a.644.644 0 0 0 .431 1.123h15.165a.642.642 0 0 0 .608-.434zm-14.425-.854c.461-.721.922-1.755.922-3.007V8.154a5.281 5.281 0 0 1 5.275-5.275 5.28 5.28 0 0 1 5.275 5.275v3.327c0 1.412.464 2.487.94 3.217H3.765zm4.824 2.422a.644.644 0 1 0 0 1.288h2.824a.644.644 0 1 0 0-1.288H8.589z" /></symbol>
    <symbol viewBox="0 0 20 20" id="icon-bold"><path d="M10.627 16.25H6.16V4.8h4.38c1.052 0 1.88.257 2.483.77.603.513.905 1.209.905 2.087a2.49 2.49 0 0 1-.576 1.603c-.383.476-.85.764-1.4.865v.126c.783.101 1.404.401 1.865.901.46.5.69 1.128.69 1.884 0 1.006-.343 1.792-1.028 2.361-.685.569-1.636.853-2.852.853zM7.587 6.062v3.674h2.286c.868 0 1.52-.154 1.956-.46.436-.307.655-.765.655-1.373 0-.582-.198-1.034-.592-1.357-.394-.323-.945-.484-1.654-.484h-2.65zm0 8.926h2.826c.862 0 1.515-.172 1.96-.515.444-.344.666-.847.666-1.508s-.231-1.16-.694-1.496c-.463-.335-1.152-.503-2.067-.503h-2.69v4.022z" fill-rule="evenodd" /></symbol>
    <symbol viewBox="0 0 28 28" id="icon-chat"><path d="M11 6c-4.875 0-9 2.75-9 6 0 1.719 1.156 3.375 3.156 4.531l1.516 0.875-0.547 1.313c0.328-0.187 0.656-0.391 0.969-0.609l0.688-0.484 0.828 0.156c0.781 0.141 1.578 0.219 2.391 0.219 4.875 0 9-2.75 9-6s-4.125-6-9-6zM11 4c6.078 0 11 3.578 11 8s-4.922 8-11 8c-0.953 0-1.875-0.094-2.75-0.25-1.297 0.922-2.766 1.594-4.344 2-0.422 0.109-0.875 0.187-1.344 0.25h-0.047c-0.234 0-0.453-0.187-0.5-0.453v0c-0.063-0.297 0.141-0.484 0.313-0.688 0.609-0.688 1.297-1.297 1.828-2.594-2.531-1.469-4.156-3.734-4.156-6.266 0-4.422 4.922-8 11-8zM23.844 22.266c0.531 1.297 1.219 1.906 1.828 2.594 0.172 0.203 0.375 0.391 0.313 0.688v0c-0.063 0.281-0.297 0.484-0.547 0.453-0.469-0.063-0.922-0.141-1.344-0.25-1.578-0.406-3.047-1.078-4.344-2-0.875 0.156-1.797 0.25-2.75 0.25-2.828 0-5.422-0.781-7.375-2.063 0.453 0.031 0.922 0.063 1.375 0.063 3.359 0 6.531-0.969 8.953-2.719 2.609-1.906 4.047-4.484 4.047-7.281 0-0.812-0.125-1.609-0.359-2.375 2.641 1.453 4.359 3.766 4.359 6.375 0 2.547-1.625 4.797-4.156 6.266z"></path></symbol>
    <symbol viewBox="0 0 20 20" id="icon-clip"><path d="M4.819 12.659l6.48-6.48a2.499 2.499 0 0 1 3.534-.005l-.583-.584a2.502 2.502 0 0 1 0 3.53l-6.017 6.017a3.997 3.997 0 0 1-5.654.006l.934.934a3.998 3.998 0 0 1 .007-5.655l6.902-6.902a4.586 4.586 0 0 1 6.481 0 4.586 4.586 0 0 1 0 6.483l-7.37 7.37" stroke-width="1.5" stroke="currentColor" fill="none" /></symbol>
    <symbol viewBox="0 0 20 20" id="icon-code"><g stroke-width="1.5" stroke="currentColor" fill="none" fill-rule="evenodd"><path d="M5.833 13.88L1.953 10l3.88-3.88" /><path d="M11.661 3.8l-3.37 12.576L11.662 3.8z" stroke-linecap="square" /><path d="M14.167 6.12l3.88 3.88-3.88 3.88" /></g></symbol>
    <symbol viewBox="0 0 20 20" id="icon-cog"><g transform="translate(1.667 2.5)" stroke-width="1.5" stroke="currentColor" fill="none" fill-rule="evenodd"><circle cx="8.333" cy="7.5" r="2.083" /><path d="M6.47 14.883l1.863-1.966 1.864 1.966a7.568 7.568 0 0 0 2.04-.845l-.074-2.708 2.708.073a7.568 7.568 0 0 0 .846-2.04L13.75 7.5l1.967-1.864a7.568 7.568 0 0 0-.846-2.04l-2.708.074.073-2.708a7.568 7.568 0 0 0-2.04-.845L8.334 2.083 6.47.117a7.568 7.568 0 0 0-2.04.845l.073 2.708-2.707-.073a7.568 7.568 0 0 0-.846 2.04L2.917 7.5.95 9.364a7.56 7.56 0 0 0 .846 2.04l2.707-.074-.073 2.708a7.568 7.568 0 0 0 2.04.845z" /></g></symbol>
    <symbol viewBox="0 0 20 20" id="icon-computer"><g stroke="currentColor" stroke-width="1.5" fill="none" fill-rule="evenodd"><path d="M3 4h14v9H3z" /><path d="M7.5 16h5" stroke-linecap="square" /></g></symbol>
    <symbol viewBox="0 0 20 20" id="icon-copy"><g fill="none" fill-rule="evenodd"><path d="M0 0h20v20H0z"/><path stroke="currentColor" stroke-width="1.5" d="M7 5h5l5 5v8H7z"/><path stroke="currentColor" stroke-width="1.5" d="M6.959 15H3V2h5l3.043 3.043M17 10h-5V5"/></g></symbol>
    <symbol viewBox="0 0 20 20" id="icon-customize"><g transform="translate(3 3)" stroke="currentColor" stroke-width="1.5" fill="none" fill-rule="evenodd"><path d="M0 7h8m4 0h2M0 2h2m3.996 0H14M0 12h3m4 0h7" stroke-linecap="square" /><circle cx="4" cy="2" r="2" /><circle cx="10" cy="7" r="2" /><circle cx="5" cy="12" r="2" /></g></symbol>
    <symbol viewBox="0 0 20 20" id="icon-edit"><g stroke-width="1.2" stroke="currentColor" fill="none" fill-rule="evenodd"><path d="M12.73 3.412c.78-.78 2.044-.78 2.83.006l.7.7c.783.783.788 2.047.005 2.83l-8.901 8.901-4.596 1.06 1.06-4.595 8.902-8.902z" /><path d="M11.24 5.609l2.829 2.828" stroke-linecap="square" /></g></symbol>
    <symbol viewBox="0 0 20 20" id="icon-emoji"><g fill="none" fill-rule="evenodd"><path d="M0 0h20v20H0z" /><circle fill="currentColor" cx="12" cy="8" r="1" /><circle fill="currentColor" cx="8" cy="8" r="1" /><circle stroke="currentColor" stroke-width="1.5" cx="10" cy="10" r="7" /><path d="M7.172 12.328a4 4 0 0 0 5.656 0" stroke="currentColor" stroke-width="1.5" /></g></symbol>
    <symbol viewBox="0 0 20 20" id="icon-facebook"><path d="M19 1.992v16.012c0 .55-.446.992-.992.992h-4.589v-6.967h2.339l.35-2.716h-2.693V7.577c0-.787.217-1.322 1.346-1.322H16.2v-2.43a19.082 19.082 0 0 0-2.098-.109c-2.073 0-3.495 1.266-3.495 3.592v2.005H8.26v2.716h2.347V19H1.992A.995.995 0 0 1 1 18.008V1.992C1 1.446 1.446 1 1.992 1h16.012c.55 0 .996.446.996.992z" /></symbol>
    <symbol viewBox="0 0 20 20" id="icon-github"><path d="M7.019 15.128c0 .072-.083.13-.189.13-.12.011-.203-.047-.203-.13 0-.073.084-.13.189-.13.109-.012.203.046.203.13zm-1.128-.163c-.026.072.047.156.156.177.094.037.203 0 .225-.072.021-.073-.048-.156-.156-.189-.095-.025-.2.011-.225.084zm1.603-.062c-.105.025-.177.094-.167.178.011.072.106.12.214.094.106-.025.178-.094.167-.167-.01-.069-.108-.116-.214-.105zM9.882 1C4.849 1 1 4.82 1 9.853c0 4.023 2.532 7.466 6.15 8.678.464.083.627-.203.627-.439 0-.225-.01-1.466-.01-2.228 0 0-2.54.545-3.074-1.08 0 0-.413-1.057-1.008-1.329 0 0-.831-.57.058-.558 0 0 .903.072 1.4.936.795 1.4 2.126.997 2.645.758.084-.58.32-.983.58-1.223-2.027-.225-4.074-.519-4.074-4.009 0-.998.276-1.498.857-2.137-.095-.236-.403-1.208.094-2.463.758-.236 2.503.98 2.503.98a8.524 8.524 0 0 1 2.279-.31 8.49 8.49 0 0 1 2.278.31s1.745-1.22 2.504-.98c.497 1.259.188 2.227.094 2.463.58.642.936 1.143.936 2.137 0 3.501-2.137 3.78-4.165 4.01.334.286.617.83.617 1.683 0 1.222-.011 2.735-.011 3.033 0 .236.167.522.627.439 3.629-1.205 6.088-4.648 6.088-8.671C18.995 4.82 14.914 1 9.882 1zM4.527 13.513c-.048.037-.037.12.025.189.058.058.141.083.189.036.047-.036.036-.12-.026-.188-.058-.058-.141-.084-.188-.037zm-.392-.294c-.026.048.01.106.083.142.058.036.13.025.156-.025.026-.048-.01-.106-.083-.142-.073-.022-.13-.01-.156.025zm1.175 1.292c-.058.047-.036.156.047.225.084.083.189.094.236.036.047-.047.026-.156-.047-.225-.08-.083-.189-.094-.236-.036zm-.413-.533c-.058.036-.058.13 0 .214.058.083.156.12.203.083.058-.047.058-.141 0-.225-.051-.083-.145-.12-.203-.072z" /></symbol>
    <symbol viewBox="0 0 20 20" id="icon-gitlab"><path d="M2.047 8.387l7.95 10.333-8.713-6.468a.701.701 0 0 1-.251-.773l1.014-3.092zm2.65-6.144a.352.352 0 0 0-.663 0L2.047 8.387h4.638L4.697 2.243zm1.988 6.144L9.998 18.72 13.31 8.387H6.685zm12.278 3.092l-1.014-3.092L9.998 18.72l8.714-6.468a.701.701 0 0 0 .25-.773zM15.96 2.243a.352.352 0 0 0-.663 0L13.31 8.387h4.638L15.96 2.243z" /></symbol>
    <symbol viewBox="0 0 20 20" id="icon-google"><path d="M18.71 10.21c0 5.136-3.517 8.79-8.71 8.79a8.99 8.99 0 0 1-9-9c0-4.979 4.021-9 9-9 2.424 0 4.464.89 6.035 2.355l-2.45 2.355C10.381 2.62 4.422 4.941 4.422 10c0 3.14 2.508 5.683 5.578 5.683 3.564 0 4.9-2.555 5.11-3.88H10V8.709h8.568c.084.461.142.904.142 1.502z" /></symbol>
    <symbol viewBox="0 0 20 20" id="icon-hashtag"><path d="M7.5 4.167v11.666m5-11.666v11.666M4.167 7.5h11.666m-11.666 5h11.666" stroke="currentColor" stroke-width="1.5" fill="none" stroke-linecap="square" /></symbol>
    <symbol viewBox="0 0 20 20" id="icon-help"><g stroke="currentColor" stroke-width="1.5" fill="none" fill-rule="evenodd"><circle cx="10" cy="10" r="8.333" /><circle cx="10" cy="10" r="4.167" /><path d="M10 2.083v3.434m0 9.066v3.434m3.958-14.873l-1.716 2.973M7.708 13.97l-1.716 2.973M17.912 10.276l-3.431-.12M5.42 9.84l-3.432-.12m14.726 4.475l-2.912-1.82M6.113 7.571l-2.912-1.82" stroke-linecap="square" /></g></symbol>
    <symbol viewBox="0 0 20 20" id="icon-hubot"><path d="M4.858 7.143A1.29 1.29 0 0 0 3.572 8.43v2.572a1.29 1.29 0 0 0 1.286 1.286h10.286A1.29 1.29 0 0 0 16.43 11V8.429a1.29 1.29 0 0 0-1.286-1.286H4.858zm10.286 2.25l-1.607 1.608h-1.929l-1.607-1.607L8.394 11h-1.93L4.859 9.394v-.965h.964l1.607 1.607L9.036 8.43h1.93l1.607 1.607L14.18 8.43h.964v.965zm-7.715 4.18h5.144v1.285H7.429v-1.285zM10.001 2C5.038 2 1 5.742 1 10.358v5.786a1.29 1.29 0 0 0 1.286 1.286h15.43a1.29 1.29 0 0 0 1.286-1.286v-5.786C19.002 5.742 14.964 2 10 2zm7.715 14.144H2.286v-5.786C2.286 6.385 5.68 3.17 10 3.17s7.715 3.215 7.715 7.188v5.786z" /></symbol>
    <symbol viewBox="0 0 20 20" id="icon-info-circled"><g transform="translate(1 1)"><path d="M9 18A9 9 0 1 1 9 0a9 9 0 0 1 0 18zM9 1.636A7.359 7.359 0 0 0 1.636 9 7.359 7.359 0 0 0 9 16.364 7.359 7.359 0 0 0 16.364 9 7.359 7.359 0 0 0 9 1.636z" /><path d="M9 13.705a.82.82 0 0 1-.818-.819V8.182A.82.82 0 0 1 9 7.364a.82.82 0 0 1 .818.818v4.704a.82.82 0 0 1-.818.819z" /><circle cx="9" cy="5.523" r="1" /><path d="M9 6.545c-.573 0-1.023-.45-1.023-1.022C7.977 4.95 8.427 4.5 9 4.5s1.023.45 1.023 1.023c0 .572-.45 1.022-1.023 1.022zM9 4.91a.603.603 0 0 0-.614.614c0 .347.266.613.614.613a.603.603 0 0 0 .614-.613A.603.603 0 0 0 9 4.909z" /></g></symbol>
    <symbol viewBox="0 0 20 20" id="icon-italic"><path d="M9.357 16.25h1.365V7.697H9.357v8.553zm.683-10.291a.91.91 0 0 0 .674-.282.922.922 0 0 0 .278-.67.918.918 0 0 0-.278-.675.918.918 0 0 0-.674-.277.922.922 0 0 0-.67.277.912.912 0 0 0-.282.675c0 .259.093.482.281.67a.916.916 0 0 0 .67.282z" fill-rule="evenodd" /></symbol>
    <symbol viewBox="0 0 20 20" id="icon-key"><g transform="matrix(-1 0 0 1 18 2)" fill="none" fill-rule="evenodd"><path d="M5.714 5.143c0 .944.15 1.654.448 2.13L.646 12.615 0 14.709 1.292 16l2.088-.642.41-.409v-1.475h1.475l.63-.63v-1.476h1.476l1.566-1.572c.582.327 1.223.49 1.92.49a5.143 5.143 0 0 0 5.141-5.289c-.075-2.684-2.312-4.92-4.995-4.995a5.143 5.143 0 0 0-5.288 5.14z" stroke="currentColor" stroke-width="1.5" /><circle fill="currentColor" cx="11.5" cy="4.5" r="1.5" /></g></symbol>
    <symbol viewBox="0 0 20 20" id="icon-keyboard"><path d="M9.953 1.96a.409.409 0 0 0-.364.415v3.68H2.227C1.554 6.056 1 6.61 1 7.284v9.407c0 .672.554 1.227 1.227 1.227h15.542c.673 0 1.227-.555 1.227-1.227V7.283c0-.673-.554-1.227-1.227-1.227h-6.135a.409.409 0 1 0 0 .818h6.135a.4.4 0 0 1 .41.409v9.407a.4.4 0 0 1-.41.409H2.227a.4.4 0 0 1-.409-.41V7.284a.4.4 0 0 1 .409-.41h7.771a.409.409 0 0 0 .41-.408v-4.09a.409.409 0 0 0-.455-.416zM3.007 7.691a.409.409 0 0 0-.371.409v7.77c0 .227.183.41.409.41h13.906a.409.409 0 0 0 .41-.41v-7.77a.409.409 0 0 0-.41-.41H3.007zm.447.818H5.09v1.636H3.454V8.51zm2.454 0H7.34v1.636H5.908V8.51zm2.25 0h1.431v1.636H8.158V8.51zm2.25 0h1.43v1.636h-1.43V8.51zm2.249 0h1.431v1.636h-1.431V8.51zm2.25 0h1.635v4.499h-3.885v-2.045h1.84a.409.409 0 0 0 .41-.41V8.51zM3.453 10.964H5.09v2.045H3.454v-2.045zm2.454 0H7.34v2.045H5.908v-2.045zm2.25 0h1.431v2.045H8.158v-2.045zm2.25 0h1.43v2.045h-1.43v-2.045zm-6.954 2.863H5.09v1.636H3.454v-1.636zm2.454 0h8.18v1.636h-8.18v-1.636zm8.998 0h1.636v1.636h-1.636v-1.636z" fill-rule="nonzero" fill="currentColor"/></symbol>
    <symbol viewBox="0 0 20 20" id="icon-language"><path d="M18.778 11.018c-.562-1.536-2.13-2.453-4.195-2.453-.081 0-.159.001-.236.005l-.014-1.857 3.172-.546c.104-.017.12-.107.098-.208-.02-.1-.15-.795-.169-.878-.024-.118-.092-.115-.186-.098-.094.016-2.925.415-2.925.415l-.012-1.87c0-.113-.062-.143-.175-.141l-.922.014c-.095.002-.148.044-.146.134l.03 2.076s-2.755.474-2.83.489c-.075.012-.153.047-.136.128.017.081.171.985.187 1.055.017.072.065.116.17.096l2.631-.453.032 1.816a4.23 4.23 0 0 0-2.03 1.173 3.915 3.915 0 0 0-1.087 2.666c0 1.428.874 2.276 2.095 2.426 2.846.348 4.607-2.754 5.192-4.244.988 1.356.23 3.919-1.884 5.382-.039.026-.088.116-.03.187l.557.68c.072.086.186.053.23.02 2.26-1.556 3.295-4.063 2.583-6.014zm-6.648 2.87c-.87-.11-.85-.823-.85-1.308 0-.696.295-1.422.79-1.94a2.889 2.889 0 0 1 1.105-.72l.074 3.85c-.347.117-.72.166-1.119.117zm2.185-.498l.041-3.699c.076-.003.15-.009.227-.009.695 0 1.344.131 1.696.325.352.196-.92 2.442-1.964 3.383zM6.26 6.488a.176.176 0 0 0-.177-.13H4.328a.175.175 0 0 0-.174.13l-3.147 9.936c-.015.046-.01.069.056.069h1.56c.067 0 .089-.02.102-.065l.907-2.986H6.78l.907 2.986c.014.044.035.065.102.065h1.56c.065 0 .07-.023.056-.069-.012-.045-2.775-8.767-3.144-9.936zm-2.357 5.687L5.206 7.45l1.302 4.725H3.903z" /></symbol>
    <symbol viewBox="0 0 20 20" id="icon-linkedin"><path d="M17.714 1H2.282C1.575 1 1 1.583 1 2.298v15.404C1 18.417 1.575 19 2.282 19h15.432c.707 0 1.286-.583 1.286-1.298V2.298C19 1.583 18.421 1 17.714 1zM6.44 16.429H3.772v-8.59h2.672v8.59H6.44zM5.106 6.665a1.548 1.548 0 0 1 0-3.094 1.55 1.55 0 0 1 1.547 1.547c0 .856-.69 1.547-1.547 1.547zm11.335 9.764h-2.668V12.25c0-.996-.02-2.278-1.386-2.278-1.39 0-1.604 1.085-1.604 2.206v4.25H8.116v-8.59h2.559v1.174h.036c.358-.675 1.23-1.387 2.527-1.387 2.7 0 3.203 1.78 3.203 4.095v4.709z" /></symbol>
    <symbol viewBox="0 0 20 20" id="icon-livechat"><path d="M15.274 6.595c-.39-2.5-2.55-4.361-5.245-4.361-2.98 0-5.314 2.272-5.314 5.173v.262c-.001.016-.005.032-.005.05v5.121a2.577 2.577 0 0 1-2.397-2.563c0-.933.506-1.793 1.321-2.247a.572.572 0 0 0-.556-.999 3.717 3.717 0 0 0-1.908 3.246 3.718 3.718 0 0 0 3.714 3.714c.127 0 .256-.01.385-.023h.012c.019 0 .036-.003.054-.004h.004a.57.57 0 0 0 .514-.567V8.344c.002-.017.005-.033.005-.05v-.887c0-2.298 1.793-4.03 4.171-4.03S14.2 5.108 14.2 7.406v.237c-.003.024-.007.049-.007.075v5.519c-.001.015-.004.03-.004.044v1.286c0 .878-.614 1.491-1.492 1.491h-.77l-.016.002a1.49 1.49 0 0 0-1.388-.96h-.98a1.493 1.493 0 0 0-1.49 1.491c0 .823.668 1.49 1.49 1.491h.98c.606 0 1.126-.365 1.36-.886.015.002.029.006.045.006h.77c1.526 0 2.633-1.109 2.633-2.635v-.559a3.716 3.716 0 0 0 3.544-3.706 3.716 3.716 0 0 0-3.601-3.708zM10.523 16.94h-.98a.353.353 0 0 1-.347-.348c0-.189.16-.348.348-.348h.979c.188 0 .348.16.348.348 0 .189-.16.348-.348.348zm4.813-4.074V8.369c.003-.025.007-.05.007-.075v-.553a2.572 2.572 0 0 1 2.39 2.562c0 1.36-1.06 2.473-2.397 2.563z" fill-rule="nonzero" fill="currentColor"/></symbol>
    <symbol viewBox="0 0 20 20" id="icon-lock"><path d="M5 8h10v9H5zm2-3c0-1.657 1.347-3 3-3 1.657 0 3 1.347 3 3v3H7V5z" stroke="currentColor" stroke-width="1.5" fill="none" /></symbol>
    <symbol viewBox="0 0 20 20" id="icon-magnifier"><g transform="translate(3 3)" stroke="currentColor" stroke-width="1.5" fill="none" fill-rule="evenodd"><circle cx="5" cy="5" r="5" /><path d="M13 13L9 9" stroke-linecap="square" /></g></symbol>
    <symbol viewBox="0 0 20 20" id="icon-mail"><g stroke="currentColor" stroke-width="1.5" fill="none" fill-rule="evenodd"><path d="M3 3.75c-.69 0-1.25.56-1.25 1.25v10c0 .69.56 1.25 1.25 1.25h14c.69 0 1.25-.56 1.25-1.25V5c0-.69-.56-1.25-1.25-1.25H3z" /><path d="M16.074 7.064l-6.01 4.01-6.01-4.01" /></g></symbol>
    <symbol viewBox="0 0 20 20" id="icon-map-pin"><g stroke="currentColor" stroke-width="1.5" fill="none" fill-rule="evenodd"><path d="M10 17s5-4.15 5-9.027C15 5.226 12.761 3 10 3S5 5.226 5 7.973C5 12.85 10 17 10 17z" /><circle cx="10" cy="8" r="2" /></g></symbol>
    <symbol viewBox="0 0 20 20" id="icon-menu"><g transform="translate(8.75 2.5)" fill-rule="evenodd"><circle cx="1.25" cy="7.5" r="1.25" /><circle cx="1.25" cy="13.75" r="1.25" /><circle cx="1.25" cy="1.25" r="1.25" /></g></symbol>
    <symbol viewBox="0 0 20 20" id="icon-message"><g stroke="currentColor" stroke-width="1.5" fill="none" fill-rule="evenodd"><path d="M11 18c1.219 0 7 .127 8-2 .506-1.076-2.891-1.076-2-3 .391-.943 1-1.915 1-3a8 8 0 1 0-16 0c0 4.418 3.582 8 9 8z" /><path d="M6.5 8.5h6.083m-6.083 3h7.083" stroke-linecap="square" /></g></symbol>
    <symbol viewBox="0 0 20 20" id="icon-mic"><g fill="none" fill-rule="evenodd"><path d="M10 2.75A2.75 2.75 0 0 0 7.25 5.5v3a2.75 2.75 0 0 0 5.5 0v-3A2.75 2.75 0 0 0 10 2.75zM10 14v3" stroke="currentColor" stroke-width="1.5" /><path fill="currentColor" d="M7 17h6v1H7z" /><path d="M5 8c.049 4 1.716 6 5 6s4.951-2 5-6" stroke="currentColor" stroke-width="1.5" /></g></symbol>
    <symbol viewBox="0 0 20 20" id="icon-multi-line"><g stroke-width="1.5" stroke="currentColor" fill="none" fill-rule="evenodd"><path d="M12.5 5h5v6.25H5" /><path d="M8.17 15.714l-4.42-4.42 4.42-4.419" /></g></symbol>
    <symbol viewBox="0 0 20 20" id="icon-mute"><g fill="none" fill-rule="evenodd"><path d="M9.47 2.265A2.735 2.735 0 0 0 6.737 5v3.53a2.735 2.735 0 0 0 5.47 0V5A2.735 2.735 0 0 0 9.47 2.265zm0 11.559v3.529-3.53z" stroke="currentColor" stroke-width="1.5" /><path fill="currentColor" fill-rule="nonzero" d="M6.824 16.47h5.294v1.324H6.824z" /><path d="M4.176 8.53c.052 3.529 1.817 5.294 5.295 5.294 3.477 0 5.242-1.765 5.294-5.294" stroke="currentColor" stroke-width="1.5" /><path d="M18.238 2.353L1.529 16.676" stroke="currentColor" stroke-width="2.5" /></g></symbol>
    <symbol viewBox="0 0 20 20" id="icon-permalink"><path d="M9.548 14.23l-2.651 2.652a2.676 2.676 0 0 1-3.78 0 2.676 2.676 0 0 1 0-3.78L6.91 9.311a2.677 2.677 0 0 1 3.781 0 .669.669 0 0 0 .945-.946 4.015 4.015 0 0 0-5.67 0l-3.792 3.792a4.014 4.014 0 0 0 0 5.67 4.014 4.014 0 0 0 5.67 0l2.65-2.65a.669.669 0 0 0-.945-.947zm8.28-12.057a4.014 4.014 0 0 0-5.67 0L9.506 4.824a.668.668 0 1 0 .946.945l2.651-2.651a2.676 2.676 0 0 1 3.78 0 2.676 2.676 0 0 1 0 3.78L13.09 10.69a2.678 2.678 0 0 1-3.781 0 .668.668 0 1 0-.945.945 4.015 4.015 0 0 0 5.67 0l3.793-3.792a4.014 4.014 0 0 0 0-5.67z" fill-rule="nonzero" fill="currentColor"/></symbol>
    <symbol viewBox="0 0 20 20" id="icon-pin"><g stroke="currentColor" stroke-width="1.5" fill="none" fill-rule="evenodd"><path d="M13.497 14.719l3.119 3.12" stroke-linecap="square" /><path d="M2.48 9.725a1.588 1.588 0 0 1-.004-2.239l4.627-4.627a1.583 1.583 0 0 1 2.24.004l-.37-.37a1.59 1.59 0 0 1-.003 2.243l-.124.124 3.743 3.744s2.496-1.247 4.992 1.248l-8.112 8.111c-2.495-2.495-1.248-4.991-1.248-4.991L4.478 9.228l-.125.125c-.62.62-1.624.621-2.244.002l.371.37z" /></g></symbol>
    <symbol viewBox="0 0 20 20" id="icon-plus"><path d="M10 5v10m5-5H5" stroke="currentColor" stroke-width="1.5" fill="none" stroke-linecap="square" /></symbol>
    <symbol viewBox="0 0 20 20" id="icon-queue"><path d="M9.98 11.894c-.1 0-.2-.025-.29-.077L1.493 7.161a.587.587 0 0 1-.01-1.017l8.238-4.899a.588.588 0 0 1 .6-.001l8.195 4.828a.588.588 0 0 1-.006 1.017l-8.237 4.727a.586.586 0 0 1-.293.078zM2.954 6.638l7.025 3.991 7.069-4.057-7.025-4.138-7.07 4.204z" /><path d="M9.98 15.172c-.1 0-.2-.025-.29-.076l-8.197-4.657a.588.588 0 1 1 .581-1.022l7.905 4.49 7.946-4.56a.588.588 0 1 1 .585 1.02l-8.237 4.727a.584.584 0 0 1-.293.078z" /><path d="M9.98 18.447c-.1 0-.2-.025-.29-.076l-8.197-4.657a.588.588 0 1 1 .581-1.022l7.905 4.49 7.946-4.56a.588.588 0 0 1 .585 1.02l-8.237 4.727a.584.584 0 0 1-.293.078z" /></symbol>
    <symbol viewBox="0 0 20 20" id="icon-quote"><path d="M5.7 4.5a3.2 3.2 0 0 1 3.2 3.2c0 4.8-2.622 8-5.6 8 1.467-2.113 1.933-3.713 1.4-4.8a2.2 2.2 0 0 1-2.2-2.2v-1a3.2 3.2 0 0 1 3.2-3.2zm9 0a3.2 3.2 0 0 1 3.2 3.2c0 4.8-2.622 8-5.6 8 1.467-2.113 1.933-3.713 1.4-4.8a2.2 2.2 0 0 1-2.2-2.2v-1a3.2 3.2 0 0 1 3.2-3.2z" stroke-width="1.5" stroke="currentColor" fill="none" stroke-linejoin="round" /></symbol>
    <symbol viewBox="0 0 20 20" id="icon-reload"><g stroke="currentColor" stroke-width="1.5" fill="none" fill-rule="evenodd"><path d="M5.905 14.322a6 6 0 1 0 0-8.485l-.873.873" /><path d="M9.981 7.417L5 6.98 5.436 2" /></g></symbol>
    <symbol viewBox="0 0 20 20" id="icon-send"><path d="M17.28 1.186L1.562 10.253a1.123 1.123 0 0 0 .134 2.01l4.919 2.035v3.58c0 1.059 1.326 1.518 1.99.711L10.734 16l4.434 1.832a1.122 1.122 0 0 0 1.537-.867L18.951 2.33c.144-.937-.863-1.61-1.67-1.144zM7.738 17.877v-3.116l1.912.79-1.912 2.326zm7.86-1.084l-7.236-2.99 7-8.273c.169-.197-.101-.463-.298-.295L6.105 12.87l-3.982-1.642 15.72-9.07-2.247 14.635z" /></symbol>
    <symbol viewBox="0 0 20 20" id="icon-share"><g stroke="currentColor" stroke-width="1.5" fill="none" fill-rule="evenodd"><path d="M10 12.5V2.917" stroke-linecap="square" /><path d="M6.667 5.419l3.291-3.292L13.25 5.42m-.75 2.913H15V17.5H5V8.333h2.5" /></g></symbol>
    <symbol viewBox="0 0 20 20" id="icon-sign-out"><path d="M2.684 3h4.63c.232 0 .421.19.421.42v.282c0 .231-.19.42-.42.42H2.683a.563.563 0 0 0-.561.562v10.102c0 .309.252.562.56.562h4.631c.232 0 .421.189.421.42v.281c0 .232-.19.421-.42.421H2.683c-.93 0-1.684-.754-1.684-1.684V4.684A1.686 1.686 0 0 1 2.684 3zm9.787.684l-.25.25a.421.421 0 0 0 0 .595l4.63 4.61H7.034c-.231 0-.42.19-.42.42v.351c0 .232.189.421.42.421h9.819l-4.627 4.61a.421.421 0 0 0 0 .596l.25.249a.421.421 0 0 0 .595 0l5.77-5.753a.421.421 0 0 0 0-.596l-5.773-5.753a.421.421 0 0 0-.596 0z" /></symbol>
    <symbol viewBox="0 0 20 20" id="icon-snippet"><g stroke="currentColor" stroke-width="1.5" fill="none" fill-rule="evenodd"><path d="M5.833 13.88L1.953 10l3.88-3.88" /><path d="M11.941 2.756L8.06 17.244" stroke-linecap="square" /><path d="M14.167 6.12l3.88 3.88-3.88 3.88" /></g></symbol>
    <symbol viewBox="0 0 20 20" id="icon-star"><path d="M10 15l-4.898 2.575.935-5.454-3.962-3.863 5.476-.796L10 2.5l2.45 4.962 5.475.796-3.962 3.863.935 5.454z" stroke-width="1.5" stroke="currentColor" /></symbol>
    <symbol viewBox="0 0 20 20" id="icon-strike"><g fill="none" fill-rule="evenodd"><path d="M5.775 13.259c.074.989.498 1.78 1.273 2.372.775.593 1.768.889 2.98.889 1.312 0 2.352-.311 3.122-.933.77-.621 1.155-1.458 1.155-2.51 0-.842-.258-1.511-.774-2.008-.516-.498-1.366-.894-2.551-1.19L9.782 9.56c-.788-.2-1.353-.442-1.694-.722a1.35 1.35 0 0 1-.512-1.095c0-.582.231-1.047.694-1.396.463-.35 1.075-.524 1.837-.524.714 0 1.3.165 1.758.496.457.33.736.79.837 1.377h1.436c-.058-.926-.46-1.685-1.206-2.278-.746-.592-1.672-.888-2.777-.888-1.212 0-2.189.3-2.932.9-.743.6-1.115 1.387-1.115 2.36 0 .815.235 1.467.706 1.957.471.489 1.225.866 2.262 1.13l1.468.381c.788.196 1.367.455 1.737.778.37.322.556.727.556 1.214 0 .566-.253 1.035-.758 1.408s-1.144.56-1.916.56c-.815 0-1.487-.178-2.016-.532-.529-.355-.838-.83-.928-1.428H5.775z" fill="currentColor" /><path d="M4.375 10h11.25" stroke="currentColor" stroke-width="1.5" stroke-linecap="square" /></g></symbol>
    <symbol viewBox="0 0 20 20" id="icon-team"><path d="M5.5 16.08c0-2.838 3.375-2.27 3.375-3.405 0 0 .065-.754-.307-1.135-.464-.473-.818-1.041-.818-1.986C7.75 8.144 8.757 7 10 7s2.25 1.143 2.25 2.554c0 .932-.345 1.512-.829 1.986-.353.372-.296 1.135-.296 1.135 0 1.135 3.375.567 3.375 3.405 0 0-.896.67-4.5.67s-4.5-.67-4.5-.67zm-.386-3.104a17.84 17.84 0 0 1-1.134-.086c-1.735-.19-2.23-.56-2.23-.56 0-2.838 3.375-2.27 3.375-3.405 0 0 .065-.754-.307-1.135C4.354 7.317 4 6.749 4 5.804 4 4.394 5.007 3.25 6.25 3.25S8.5 4.393 8.5 5.804m6.386 7.172c.426-.02.803-.05 1.134-.086 1.735-.19 2.23-.56 2.23-.56 0-2.838-3.375-2.27-3.375-3.405 0 0-.065-.754.307-1.135.464-.473.818-1.041.818-1.986 0-1.41-1.007-2.554-2.25-2.554S11.5 4.393 11.5 5.804" stroke="currentColor" stroke-width="1.5" fill="none" /></symbol>
    <symbol viewBox="0 0 20 20" id="icon-trash"><g stroke="currentColor" stroke-width="1.5" fill="none" fill-rule="evenodd"><path d="M4 6h12l-1 12H5zm8-2.5a2 2 0 1 0-4 0" /><path d="M8 10v5m4-5v5" stroke-linecap="square" /><path d="M2.5 3.5h15" stroke-linecap="round" stroke-linejoin="round" /></g></symbol>
    <symbol viewBox="0 0 20 20" id="icon-twitter"><path d="M17.13 6.634c.01.16.01.319.01.478 0 4.864-3.701 10.468-10.467 10.468-2.085 0-4.021-.604-5.65-1.652.296.035.58.046.888.046 1.72 0 3.304-.581 4.568-1.572a3.686 3.686 0 0 1-3.44-2.551c.228.034.456.056.695.056.33 0 .66-.045.968-.125a3.68 3.68 0 0 1-2.95-3.61v-.046c.49.273 1.06.444 1.663.467a3.677 3.677 0 0 1-1.64-3.064c0-.684.182-1.31.5-1.857a10.458 10.458 0 0 0 7.587 3.85 4.153 4.153 0 0 1-.091-.843A3.676 3.676 0 0 1 13.45 3a3.67 3.67 0 0 1 2.688 1.162 7.243 7.243 0 0 0 2.335-.889 3.67 3.67 0 0 1-1.617 2.028 7.376 7.376 0 0 0 2.118-.57 7.91 7.91 0 0 1-1.845 1.903z" /></symbol>
    <symbol viewBox="0 0 20 20" id="icon-upload"><path d="M16.89 16.188a.705.705 0 0 1-.703.703.705.705 0 0 1-.703-.703c0-.387.317-.704.704-.704.386 0 .703.317.703.704zm-2.953-.704a.705.705 0 0 0-.703.704c0 .386.317.703.704.703a.705.705 0 0 0 .703-.703.705.705 0 0 0-.704-.704zM19 13.797v3.656c0 .854-.693 1.547-1.547 1.547H2.547A1.547 1.547 0 0 1 1 17.453v-3.656c0-.854.693-1.547 1.547-1.547h4.36V8.759H5.053c-1.252 0-1.878-1.515-.995-2.401L9.005 1.41a1.409 1.409 0 0 1 1.99 0l4.946 4.947c.886.886.257 2.401-.995 2.401h-1.852v3.491h4.36c.853 0 1.546.693 1.546 1.547zM8.031 7.634v6.585c0 .154.127.281.281.281h3.376a.282.282 0 0 0 .28-.281V7.634h2.978c.25 0 .377-.302.2-.482L10.2 2.206a.282.282 0 0 0-.397 0L4.857 7.152a.283.283 0 0 0 .2.482h2.974zm9.844 6.163a.423.423 0 0 0-.422-.422h-4.36v.844c0 .777-.629 1.406-1.405 1.406H8.312c-.776 0-1.406-.63-1.406-1.406v-.844h-4.36a.423.423 0 0 0-.421.422v3.656c0 .232.19.422.422.422h14.906c.232 0 .422-.19.422-.422v-3.656z" /></symbol>
    <symbol viewBox="0 0 20 20" id="icon-user"><g fill="none" fill-rule="evenodd"><path d="M0 0h20v20H0z" /><path d="M4 15.106c0-3.783 4.5-3.026 4.5-4.54 0 0 .086-1.004-.41-1.513C7.473 8.423 7 7.665 7 6.405 7 4.525 8.343 3 10 3s3 1.524 3 3.405c0 1.243-.46 2.017-1.105 2.648-.472.496-.395 1.514-.395 1.514 0 1.513 4.5.756 4.5 4.54 0 0-1.195.893-6 .893s-6-.894-6-.894z" stroke="currentColor" stroke-width="1.5" /></g></symbol>
    <symbol viewBox="0 0 20 20" id="icon-user-rounded"><g transform="translate(2.5 2.5)" stroke="currentColor" stroke-width="1.5" fill="none" fill-rule="evenodd"><rect x=".75" y=".75" width="13.5" height="13.5" rx="2" /><path d="M2.502 14.167c0-3.125 3.748-2.5 3.748-3.75 0 0 .072-.83-.34-1.25C5.394 8.646 5 8.02 5 6.979c0-1.553 1.12-2.812 2.5-2.812S10 5.426 10 6.979c0 1.027-.384 1.666-.922 2.188-.392.41-.328 1.25-.328 1.25 0 1.25 3.748.625 3.748 3.75" /></g></symbol>
    <symbol viewBox="0 0 20 20" id="icon-video"><g stroke-width="1.5" stroke="currentColor" fill="none" fill-rule="evenodd"><path d="M3 8h10v8H3zm10 2.376l4.048-1.314c.526-.171.952.137.952.69v4.494c0 .552-.426.862-.952.69L13 13.624v-3.247z" /><path d="M5.5 5h5" stroke-linecap="square" /></g></symbol>
    <symbol viewBox="0 0 20 20" id="icon-volume"><path d="M3 6.345h1.967S6.027 4 9 4v12c-2.874 0-4.033-2.345-4.033-2.345H3v-7.31zm10.106 7.081A6.968 6.968 0 0 0 14 10a6.968 6.968 0 0 0-.894-3.426m2.489 8.809A10.95 10.95 0 0 0 17 10c0-1.956-.51-3.792-1.405-5.383" stroke="currentColor" stroke-width="1.5" fill="none" /></symbol>
    <symbol viewBox="0 0 20 20" id="icon-warning"><g stroke="currentColor" stroke-width="1.5" fill="none" fill-rule="evenodd"><path d="M10 3l8 14H2z" /><path d="M10 9v5" stroke-linecap="square" /></g></symbol>
    <symbol viewBox="0 0 20 20" id="icon-checkmark-circled"><path d="M486.4 1024c-129.922 0-252.067-50.594-343.936-142.464s-142.464-214.014-142.464-343.936c0-129.923 50.595-252.067 142.464-343.936s214.013-142.464 343.936-142.464c129.922 0 252.067 50.595 343.936 142.464s142.464 214.014 142.464 343.936-50.594 252.067-142.464 343.936c-91.869 91.87-214.014 142.464-343.936 142.464zM486.4 102.4c-239.97 0-435.2 195.23-435.2 435.2s195.23 435.2 435.2 435.2 435.2-195.23 435.2-435.2-195.23-435.2-435.2-435.2z"></path><path d="M384 742.4c-6.552 0-13.102-2.499-18.102-7.499l-153.6-153.6c-9.997-9.997-9.997-26.206 0-36.203 9.998-9.997 26.206-9.997 36.205 0l135.498 135.498 340.299-340.298c9.997-9.997 26.206-9.997 36.203 0 9.998 9.998 9.998 26.206 0 36.205l-358.4 358.4c-5 4.998-11.55 7.498-18.102 7.498z"></path></symbol>
    <symbol viewBox="0 0 20 20" id="icon-cross-circled"><path d="M733.808 723.266l-208.874-185.666 208.874-185.667c10.566-9.394 11.518-25.574 2.126-36.141-9.394-10.566-25.574-11.522-36.142-2.126l-213.392 189.682-213.392-189.68c-10.568-9.392-26.749-8.44-36.141 2.126-9.394 10.566-8.442 26.749 2.126 36.141l208.874 185.666-208.875 185.666c-10.566 9.394-11.518 25.574-2.126 36.142 5.059 5.691 12.085 8.592 19.142 8.592 6.048 0 12.122-2.131 16.998-6.466l213.394-189.683 213.392 189.683c4.878 4.334 10.949 6.466 16.998 6.466 7.058 0 14.086-2.902 19.144-8.592 9.392-10.568 8.44-26.749-2.126-36.142z"></path><path d="M486.4 1024c-129.922 0-252.067-50.594-343.936-142.464s-142.464-214.014-142.464-343.936c0-129.923 50.595-252.067 142.464-343.936s214.013-142.464 343.936-142.464c129.922 0 252.067 50.595 343.936 142.464s142.464 214.014 142.464 343.936-50.594 252.067-142.464 343.936c-91.869 91.87-214.014 142.464-343.936 142.464zM486.4 102.4c-239.97 0-435.2 195.23-435.2 435.2s195.23 435.2 435.2 435.2 435.2-195.23 435.2-435.2-195.23-435.2-435.2-435.2z"></path></symbol>
    <symbol viewBox="0 0 20 20" id="icon-jump"><path d="M11.6 7.257V4L18 9.7l-6.4 5.7v-3.257S2 11.385 2 16c0-9.23 9.6-8.743 9.6-8.743z" stroke="currentColor" stroke-width="1.5" fill="none" fill-rule="evenodd"/></symbol>
    <symbol viewBox="0 0 20 20" id="icon-flag"><path d="M12.928 6.063l3.263-3.77a.74.74 0 0 0 .112-.759.71.71 0 0 0-.647-.422H3.141v17.72h1.406v-7.876h11.11a.71.71 0 0 0 .646-.422.691.691 0 0 0-.112-.759l-3.263-3.713zM4.547 9.578V2.547h9.562l-2.643 3.065c-.225.254-.225.647 0 .929l2.643 3.065H4.547v-.028z" fill-rule="nonzero" fill="currentColor"/></symbol>
    <symbol viewBox="0 0 20 20" id="icon-circle"><circle cx="10" cy="10" r="9" fill="currentColor" fill-rule="evenodd"/></symbol>
    <symbol viewBox="0 0 20 20" id="icon-eye-off"><g fill-rule="nonzero" fill="currentColor"><path d="M10 3.99c-3.79.004-6.658 2.896-8.542 5.44a.62.62 0 0 0 0 .739c.679.919 1.482 1.873 2.41 2.725a.62.62 0 1 0 .84-.915c-.729-.668-1.371-1.421-1.95-2.172C4.533 7.51 7.014 5.235 10 5.232c.515 0 1.011.066 1.493.187a.62.62 0 1 0 .303-1.203A7.392 7.392 0 0 0 10 3.99zM14.14 5.32a.62.62 0 0 0-.327 1.145c1.33.867 2.47 2.11 3.422 3.342-1.776 2.294-4.254 4.562-7.234 4.566-1.22-.003-2.346-.37-3.389-.972a.62.62 0 1 0-.62 1.076c1.19.686 2.537 1.135 4.008 1.137 3.79-.004 6.659-2.895 8.543-5.44a.62.62 0 0 0 0-.738c-1.052-1.424-2.399-2.934-4.051-4.011a.62.62 0 0 0-.352-.106z"/><path d="M11.722 7.895a.62.62 0 0 0-.468.993c.188.257.298.57.298.914 0 .864-.687 1.552-1.552 1.552-.371 0-.706-.127-.972-.342a.62.62 0 1 0-.779.967 2.79 2.79 0 0 0 1.751.616 2.803 2.803 0 0 0 2.793-2.793c0-.612-.2-1.185-.536-1.646a.62.62 0 0 0-.535-.261z"/><path d="M18.057 1.107a.62.62 0 0 0-.427.187L1.492 17.432a.62.62 0 1 0 .878.879L18.508 2.172a.62.62 0 0 0-.45-1.065z"/></g></symbol>
    <symbol viewBox="0 0 20 20" id="icon-cross"><path d="M16.364 3.636l-6.018 6.018-6.71 6.71m12.728 0L3.636 3.636" stroke="currentColor" stroke-width="1.5" fill="none" fill-rule="evenodd" stroke-linecap="square"/></symbol>
    <symbol viewBox="0 0 20 20" id="icon-post"><g fill="none" fill-rule="evenodd"><path d="M0 0h20v20H0z"/><path stroke="currentColor" stroke-width="1.5" d="M5 3h6l4 4v10H5z"/><path d="M8.5 10.5h3M8.5 13.5h3" stroke="currentColor" stroke-width="1.5" stroke-linecap="square"/></g></symbol>
    <symbol viewBox="0 0 20 20" id="icon-discover"><g transform="translate(1 1)" fill="none" fill-rule="evenodd"><path d="M0 0h18v18H0z"/><circle stroke="currentColor" stroke-width="1.5" cx="9" cy="9" r="6.75"/><path d="M9 15.75c1.5 0 3-3.022 3-6.75s-1.5-6.75-3-6.75S6 5.272 6 9s1.5 6.75 3 6.75z" stroke="currentColor" stroke-width="1.5"/><path d="M2.25 9c0 1.5 3.022 3 6.75 3s6.75-1.5 6.75-3S12.728 6 9 6 2.25 7.5 2.25 9z" stroke="currentColor" stroke-width="1.5"/></g></symbol>
    <symbol viewBox="0 0 20 20" id="icon-import"><g stroke="currentColor" stroke-width="1.5" fill="none" fill-rule="evenodd"><path d="M10 7.5v9.583" stroke-linecap="square"/><path d="M13.333 14.581l-3.291 3.292L6.75 14.58m.75-2.913H5V2.5h10v9.167h-2.5"/></g></symbol>
    <symbol viewBox="0 0 89 83" id="icon-modal-warning"><g fill="currentColor" fill-rule="evenodd"><path d="M44.488 29a2.988 2.988 0 0 1 2.989 2.988v23.056a2.988 2.988 0 1 1-5.977 0V31.988A2.988 2.988 0 0 1 44.488 29zm-.106 34.021c1.947 0 3.382 1.52 3.382 3.493 0 2-1.435 3.519-3.382 3.519-1.946 0-3.382-1.52-3.382-3.52 0-1.972 1.436-3.492 3.382-3.492z"/><path d="M7.471 76.881H81.46L44.465 8.713 7.471 76.881zm78.4 5.626H3.06a3 3 0 0 1-2.637-4.431L41.828 1.778a3 3 0 0 1 5.274 0l41.405 76.298a3 3 0 0 1-2.637 4.43z" fill-rule="nonzero"/></g></symbol>
    <symbol viewBox="0 0 82 82" id="icon-modal-success"><g fill="currentColor" fill-rule="evenodd"><path d="M41 82C18.356 82 0 63.644 0 41S18.356 0 41 0s41 18.356 41 41-18.356 41-41 41zm0-6.308c19.16 0 34.692-15.532 34.692-34.692S60.16 6.308 41 6.308 6.308 21.84 6.308 41 21.84 75.692 41 75.692z" fill-rule="nonzero"/><path d="M33.86 50.585l-8.671-8.723a2.446 2.446 0 0 0-3.47 0 2.475 2.475 0 0 0 0 3.49L31.76 55.45a3 3 0 0 0 4.23.026l23.716-23.277a2.444 2.444 0 0 0 .021-3.467 2.48 2.48 0 0 0-3.493-.025L33.861 50.585z" stroke="currentColor"/></g></symbol>
    <symbol viewBox="0 0 82 82" id="icon-modal-info"><g fill="currentColor" fill-rule="evenodd"><path d="M40.988 61.033a2.988 2.988 0 0 0 2.989-2.989V34.988a2.988 2.988 0 1 0-5.977 0v23.056a2.988 2.988 0 0 0 2.988 2.989zm-.106-34.021c1.947 0 3.382-1.52 3.382-3.493 0-2-1.435-3.519-3.382-3.519-1.946 0-3.382 1.52-3.382 3.52 0 1.972 1.436 3.492 3.382 3.492z"/><path d="M41 82C18.356 82 0 63.644 0 41S18.356 0 41 0s41 18.356 41 41-18.356 41-41 41zm0-6.308c19.16 0 34.692-15.532 34.692-34.692S60.16 6.308 41 6.308 6.308 21.84 6.308 41 21.84 75.692 41 75.692z" fill-rule="nonzero"/></g></symbol>
    <symbol viewBox="0 0 82 82" id="icon-modal-error"><g fill="currentColor" fill-rule="evenodd"><path d="M41 82C18.356 82 0 63.644 0 41S18.356 0 41 0s41 18.356 41 41-18.356 41-41 41zm0-6.308c19.16 0 34.692-15.532 34.692-34.692S60.16 6.308 41 6.308 6.308 21.84 6.308 41 21.84 75.692 41 75.692z" fill-rule="nonzero"/><path d="M56.6 56.203a2.988 2.988 0 0 0 0-4.226L30.796 26.175a2.988 2.988 0 0 0-4.226 4.226l25.802 25.802a2.988 2.988 0 0 0 4.226 0z"/><path d="M26.57 56.203a2.988 2.988 0 0 0 4.227 0L56.6 30.401a2.988 2.988 0 0 0-4.226-4.226L26.571 51.977a2.988 2.988 0 0 0 0 4.226z"/></g></symbol>
</svg>
