<svg xmlns="http://www.w3.org/2000/svg" display="none">
    <symbol id="icon-arrow-down" viewBox="0 0 10 6"><title>arrow-down</title><path d="M8.657.828L4.828 4.657 1 .828" stroke-width="1.5" fill="none"/></symbol>
    <symbol id="icon-arrow-back" viewBox="0 0 20 14"><title>arrow-back</title><g stroke-width="1.5" fill="none" fill-rule="evenodd"><path d="M8 13.071L1.929 7 8 .929"/><path d="M3 7h14.003C18.106 7 19 7.89 19 9v3.5"/></g></symbol>
    <symbol id="icon-at" viewBox="0 0 16 16"><title>at</title><g transform="translate(1 1)" stroke-width="1.5" fill="none" fill-rule="evenodd"><circle cx="7" cy="7" r="3"/><path d="M9.68 13.469A7 7 0 1 1 14 7v.542"/><path d="M14 7.49c0 1.387-.781 2.51-2 2.51-1.219 0-2-1.112-2-2.51V3"/></g></symbol>
    <symbol id="icon-cross" viewBox="0 0 12 12"><title>cross</title><g stroke-width="1.5" fill="none" fill-rule="evenodd" stroke-linecap="square"><path d="M10.243 1.757l-8.486 8.486M1.757 1.757l8.486 8.486"/></g></symbol>
    <symbol id="icon-customize" viewBox="0 0 16 16"><title>customize</title><g transform="translate(1 1)" stroke-width="1.5" fill="none" fill-rule="evenodd"><path d="M0 7h8m4 0h2M0 2h2m3.996 0H14M0 12h3m4 0h7" stroke-linecap="square"/><circle cx="4" cy="2" r="2"/><circle cx="10" cy="7" r="2"/><circle cx="5" cy="12" r="2"/></g></symbol>
    <symbol id="icon-hashtag" viewBox="0 0 16 16"><title>hashtag</title><g stroke-width="1.5" fill="none" fill-rule="evenodd" stroke-linecap="square"><path d="M5 1v14M11 1v14M1 5h14M1 11h14"/></g></symbol>
    <symbol id="icon-lock" viewBox="0 0 14 20"><title>lock</title><g stroke-width="1.5" fill="none" fill-rule="evenodd"><path d="M1 9h12v10H1zM3 5c0-2.21 1.795-4 4-4 2.21 0 4 1.795 4 4v4H3V5z"/></g></symbol>
    <symbol id="icon-magnifier" viewBox="0 0 19 19"><title>magnifier</title><g transform="translate(1 1)" stroke-width="1.5" fill="none" fill-rule="evenodd"><circle cx="6.5" cy="6.5" r="6.5"/><path d="M17 17l-5-5" stroke-linecap="square"/></g></symbol>
    <symbol id="icon-plus" viewBox="0 0 14 14"><title>plus</title><g stroke-width="1.5" fill="none" fill-rule="evenodd" stroke-linecap="square"><path d="M7 1v12M13 7H1"/></g></symbol>
    <symbol id="icon-user" viewBox="0 0 18 19"><title>user</title><path d="M1 16.832c0-4.948 6-3.958 6-5.937 0 0 .115-1.314-.546-1.98C5.63 8.092 5 7.102 5 5.454 5 2.993 6.79 1 9 1s4 1.994 4 4.453c0 1.625-.614 2.637-1.474 3.463-.628.648-.526 1.979-.526 1.979 0 1.979 6 .99 6 5.937 0 0-1.593 1.168-8 1.168s-8-1.168-8-1.168z" stroke-width="1.5" fill="none" fill-rule="evenodd"/></symbol>
    <symbol id="icon-user-rounded" viewBox="0 0 18 18"><title>user-rounded</title><g stroke-width="1.5" fill="none" fill-rule="evenodd"><rect x=".75" y=".75" width="16.5" height="16.5" rx="2"/><path d="M3.002 17c0-3.75 4.499-3 4.499-4.5 0 0 .086-.996-.41-1.5-.618-.625-1.09-1.376-1.09-2.625C6.001 6.511 7.344 5 9 5c1.656 0 2.999 1.511 2.999 3.375 0 1.232-.46 2-1.105 2.625-.471.491-.395 1.5-.395 1.5 0 1.5 4.499.75 4.499 4.5"/></g></symbol>
    <symbol id="icon-warning" viewBox="0 0 20 20"><title>warning</title><g stroke-width="1.5" fill="none" fill-rule="evenodd"><path d="M10 3l8 14H2z"/><path d="M10 9v5" stroke-linecap="square"/></g></symbol>
    <symbol id="icon-smile" viewBox="0 0 1792 1792"><title>smile</title><path d="M1262 1075q-37 121-138 195t-228 74-228-74-138-195q-8-25 4-48.5t38-31.5q25-8 48.5 4t31.5 38q25 80 92.5 129.5t151.5 49.5 151.5-49.5 92.5-129.5q8-26 32-38t49-4 37 31.5 4 48.5zm-494-435q0 53-37.5 90.5t-90.5 37.5-90.5-37.5-37.5-90.5 37.5-90.5 90.5-37.5 90.5 37.5 37.5 90.5zm512 0q0 53-37.5 90.5t-90.5 37.5-90.5-37.5-37.5-90.5 37.5-90.5 90.5-37.5 90.5 37.5 37.5 90.5zm256 256q0-130-51-248.5t-136.5-204-204-136.5-248.5-51-248.5 51-204 136.5-136.5 204-51 248.5 51 248.5 136.5 204 204 136.5 248.5 51 248.5-51 204-136.5 136.5-204 51-248.5zm128 0q0 209-103 385.5t-279.5 279.5-385.5 103-385.5-103-279.5-279.5-103-385.5 103-385.5 279.5-279.5 385.5-103 385.5 103 279.5 279.5 103 385.5z"/></symbol>
</svg>
