<svg xmlns="http://www.w3.org/2000/svg" display="none">
    <symbol id="icon-arrow-down" viewBox="0 0 10 6"><path d="M8.657.828L4.828 4.657 1 .828" stroke-width="1.5" fill="none"/></symbol>
    <symbol id="icon-arrow-back" viewBox="0 0 20 14"><g stroke-width="1.5" fill="none" fill-rule="evenodd"><path d="M8 13.071L1.929 7 8 .929"/><path d="M3 7h14.003C18.106 7 19 7.89 19 9v3.5"/></g></symbol>
    <symbol id="icon-at" viewBox="0 0 16 16"><g transform="translate(1 1)" stroke-width="1.5" fill="none" fill-rule="evenodd"><circle cx="7" cy="7" r="3"/><path d="M9.68 13.469A7 7 0 1 1 14 7v.542"/><path d="M14 7.49c0 1.387-.781 2.51-2 2.51-1.219 0-2-1.112-2-2.51V3"/></g></symbol>
    <symbol id="icon-comment-alt" viewBox="0 0 576 512"><path d="M288 32C129 32 0 125.1 0 240c0 50.2 24.6 96.3 65.6 132.2-10.4 36.3-29.7 45.9-52.3 62.1-27.6 19.7-7.9 47.6 17.4 45.6 58.7-4.7 113.3-19.9 159.2-44.2 30.6 8 63.6 12.3 98 12.3 159.1 0 288-93 288-208C576 125.1 447.1 32 288 32zm0 384c-35.4 0-69.7-4.9-102-14.7-40.9 24-90 46.7-154 54.7 48-32 62.5-56.9 69.1-96.3C61.6 330.6 32 289.2 32 240c0-96.5 115.7-176 256-176 141.5 0 256 80.2 256 176 0 96.5-115.6 176-256 176zm32-176c0 17.7-14.3 32-32 32s-32-14.3-32-32 14.3-32 32-32 32 14.3 32 32zm96 0c0 17.7-14.3 32-32 32s-32-14.3-32-32 14.3-32 32-32 32 14.3 32 32zm-192 0c0 17.7-14.3 32-32 32s-32-14.3-32-32 14.3-32 32-32 32 14.3 32 32z"/></symbol>
    <symbol id="icon-cross" viewBox="0 0 12 12"><g stroke-width="1.5" fill="none" fill-rule="evenodd" stroke-linecap="square"><path d="M10.243 1.757l-8.486 8.486M1.757 1.757l8.486 8.486"/></g></symbol>
    <symbol id="icon-customize" viewBox="0 0 16 16"><g transform="translate(1 1)" stroke-width="1.5" fill="none" fill-rule="evenodd"><path d="M0 7h8m4 0h2M0 2h2m3.996 0H14M0 12h3m4 0h7" stroke-linecap="square"/><circle cx="4" cy="2" r="2"/><circle cx="10" cy="7" r="2"/><circle cx="5" cy="12" r="2"/></g></symbol>
    <symbol id="icon-hashtag" viewBox="0 0 16 16"><g stroke-width="1.5" fill="none" fill-rule="evenodd" stroke-linecap="square"><path d="M5 1v14M11 1v14M1 5h14M1 11h14"/></g></symbol>
    <symbol id="icon-lock" viewBox="0 0 14 20"><g stroke-width="1.5" fill="none" fill-rule="evenodd"><path d="M1 9h12v10H1zM3 5c0-2.21 1.795-4 4-4 2.21 0 4 1.795 4 4v4H3V5z"/></g></symbol>
    <symbol id="icon-magnifier" viewBox="0 0 19 19"><g transform="translate(1 1)" stroke-width="1.5" fill="none" fill-rule="evenodd"><circle cx="6.5" cy="6.5" r="6.5"/><path d="M17 17l-5-5" stroke-linecap="square"/></g></symbol>
    <symbol id="icon-map-pin" viewBox="0 0 12 16"><g transform="translate(1 1)" stroke-width="1.5" fill="none" fill-rule="evenodd"><path d="M5 14s5-4.15 5-9.027C10 2.226 7.761 0 5 0S0 2.226 0 4.973C0 9.85 5 14 5 14z"/><circle cx="5" cy="5" r="2"/></g></symbol>
    <symbol id="icon-plus" viewBox="0 0 14 14"><g stroke-width="1.5" fill="none" fill-rule="evenodd" stroke-linecap="square"><path d="M7 1v12M13 7H1"/></g></symbol>
    <symbol id="icon-sign-out" viewBox="0 0 512 512"><path d="M48 64h132c6.6 0 12 5.4 12 12v8c0 6.6-5.4 12-12 12H48c-8.8 0-16 7.2-16 16v288c0 8.8 7.2 16 16 16h132c6.6 0 12 5.4 12 12v8c0 6.6-5.4 12-12 12H48c-26.5 0-48-21.5-48-48V112c0-26.5 21.5-48 48-48zm279 19.5l-7.1 7.1c-4.7 4.7-4.7 12.3 0 17l132 131.4H172c-6.6 0-12 5.4-12 12v10c0 6.6 5.4 12 12 12h279.9L320 404.4c-4.7 4.7-4.7 12.3 0 17l7.1 7.1c4.7 4.7 12.3 4.7 17 0l164.5-164c4.7-4.7 4.7-12.3 0-17L344 83.5c-4.7-4.7-12.3-4.7-17 0z"/></symbol>
    <symbol id="icon-user" viewBox="0 0 18 19"><path d="M1 16.832c0-4.948 6-3.958 6-5.937 0 0 .115-1.314-.546-1.98C5.63 8.092 5 7.102 5 5.454 5 2.993 6.79 1 9 1s4 1.994 4 4.453c0 1.625-.614 2.637-1.474 3.463-.628.648-.526 1.979-.526 1.979 0 1.979 6 .99 6 5.937 0 0-1.593 1.168-8 1.168s-8-1.168-8-1.168z" stroke-width="1.5" fill="none" fill-rule="evenodd"/></symbol>
    <symbol id="icon-user-rounded" viewBox="0 0 18 18"><g stroke-width="1.5" fill="none" fill-rule="evenodd"><rect x=".75" y=".75" width="16.5" height="16.5" rx="2"/><path d="M3.002 17c0-3.75 4.499-3 4.499-4.5 0 0 .086-.996-.41-1.5-.618-.625-1.09-1.376-1.09-2.625C6.001 6.511 7.344 5 9 5c1.656 0 2.999 1.511 2.999 3.375 0 1.232-.46 2-1.105 2.625-.471.491-.395 1.5-.395 1.5 0 1.5 4.499.75 4.499 4.5"/></g></symbol>
    <symbol id="icon-warning" viewBox="0 0 20 20"><g stroke-width="1.5" fill="none" fill-rule="evenodd"><path d="M10 3l8 14H2z"/><path d="M10 9v5" stroke-linecap="square"/></g></symbol>
    <symbol id="icon-smile" viewBox="0 0 16 16"><g transform="translate(1 1)" fill="none" fill-rule="evenodd"><circle fill="none" cx="9" cy="5" r="0.5"/><circle fill="none" cx="5" cy="5" r="0.5"/><circle fill="none" stroke-width="1.5" cx="7" cy="7" r="7"/><path d="M4.172 9.328a4 4 0 0 0 5.656 0" fill="none" stroke-width="1.5"/></g></symbol>
</svg>
