<svg id="calendar" viewBox="0 0 20 20">
  <path d="M15.5,4 C16.328125,4 17,4.671875 17,5.5 L17,16.5 C17,17.328125 16.328125,18 15.5,18 L4.5,18 C3.671875,18 3,17.328125 3,16.5 L3,5.5 C3,4.671875 3.671875,4 4.5,4 L6,4 L6,3 C6,2.44771525 6.44771525,2 7,2 C7.55228475,2 8,2.44771525 8,3 L8,4 L12,4 L12,3 C12,2.44771525 12.4477153,2 13,2 C13.5522847,2 14,2.44771525 14,3 L14,4 L15.5,4 Z M14.5,16.5 C15.0522847,16.5 15.5,16.0522847 15.5,15.5 L15.5,7 L4.5,7 L4.5,15.5 C4.5,16.0522847 4.94771525,16.5 5.5,16.5 L14.5,16.5 Z M6.3,9 L7.7,9 C7.86568542,9 8,9.13431458 8,9.3 L8,10.7 C8,10.8656854 7.86568542,11 7.7,11 L6.3,11 C6.13431458,11 6,10.8656854 6,10.7 L6,9.3 C6,9.13431458 6.13431458,9 6.3,9 Z M6.3,12 L7.7,12 C7.86568542,12 8,12.1343146 8,12.3 L8,13.7 C8,13.8656854 7.86568542,14 7.7,14 L6.3,14 C6.13431458,14 6,13.8656854 6,13.7 L6,12.3 C6,12.1343146 6.13431458,12 6.3,12 Z M9.3,9 L10.7,9 C10.8656854,9 11,9.13431458 11,9.3 L11,10.7 C11,10.8656854 10.8656854,11 10.7,11 L9.3,11 C9.13431458,11 9,10.8656854 9,10.7 L9,9.3 C9,9.13431458 9.13431458,9 9.3,9 Z M9.3,12 L10.7,12 C10.8656854,12 11,12.1343146 11,12.3 L11,13.7 C11,13.8656854 10.8656854,14 10.7,14 L9.3,14 C9.13431458,14 9,13.8656854 9,13.7 L9,12.3 C9,12.1343146 9.13431458,12 9.3,12 Z M12.3,9 L13.7,9 C13.8656854,9 14,9.13431458 14,9.3 L14,10.7 C14,10.8656854 13.8656854,11 13.7,11 L12.3,11 C12.1343146,11 12,10.8656854 12,10.7 L12,9.3 C12,9.13431458 12.1343146,9 12.3,9 Z M12.3,12 L13.7,12 C13.8656854,12 14,12.1343146 14,12.3 L14,13.7 C14,13.8656854 13.8656854,14 13.7,14 L12.3,14 C12.1343146,14 12,13.8656854 12,13.7 L12,12.3 C12,12.1343146 12.1343146,12 12.3,12 Z"/>
</svg>