<svg id="circled-arrow-down" viewBox="0 0 20 20">
  <path d="M10,18 C5.58217143,18 2,14.4187429 2,10 C2,5.58125714 5.58217143,2 10,2 C14.4178286,2 18,5.58125714 18,10 C18,14.4187429 14.4178286,18 10,18 Z M10,16.6285714 C13.6608,16.6285714 16.6285714,13.6608 16.6285714,10 C16.6285714,6.3392 13.6608,3.37142857 10,3.37142857 C6.3392,3.37142857 3.37142857,6.3392 3.37142857,10 C3.37142857,13.6608 6.3392,16.6285714 10,16.6285714 Z M10.6990629,11.0017829 L12.26752,9.43332571 C12.5353939,9.16545183 12.9697033,9.16545183 13.2375771,9.43332571 L13.2375771,9.43332571 C13.505451,9.7011996 13.505451,10.135509 13.2375771,10.4033829 L10.7123137,12.9288202 C10.3217894,13.3193445 9.68862447,13.3193445 9.29810018,12.9288202 C9.29807119,12.9287912 9.2980422,12.9287622 9.29801322,12.9287332 L6.773289,10.403214 C6.50552765,10.1353867 6.50545201,9.70124623 6.77312,9.43332571 L6.77312,9.43332571 C7.04055621,9.16563721 7.4743605,9.16543268 7.742049,9.43286889 C7.74216085,9.43298063 7.74227266,9.43309241 7.74238443,9.43320423 L9.32763429,11.0191543 L9.32763429,6.27401143 C9.32763429,5.89530189 9.63463903,5.58829714 10.0133486,5.58829714 L10.0133486,5.58829714 C10.3920581,5.58829714 10.6990629,5.89530189 10.6990629,6.27401143 L10.6990629,11.0017829 Z"/>
</svg>