<svg id="clip" viewBox="0 0 20 20">
  <path d="M5.15879562,13.4638624 L5.15879562,13.4638624 C4.90599039,13.2480772 4.87287013,12.8694565 5.08437038,12.6130557 L10.5580734,5.97730965 C11.4745445,4.86627574 13.0944944,4.71955997 14.1887917,5.65361162 C15.2780481,6.58336059 15.4186756,8.24043454 14.5053645,9.34763752 L8.64526707,16.4518079 C7.31075341,18.0696329 4.93412315,18.2783509 3.34272418,16.9202886 C1.75000514,15.5610997 1.54554911,13.1390247 2.88321939,11.5173729 L9.25165016,3.79695237 C11.0084462,1.66719622 14.1363767,1.39165004 16.2300793,3.17904132 C18.3256583,4.96803453 18.5993827,8.14860581 16.8423124,10.2786944 L10.8542425,17.5380051 C10.6472844,17.7888995 10.2761216,17.8245169 10.0252273,17.6175588 C10.0226788,17.6154566 10.020148,17.613333 10.0176353,17.6111882 L10.0176353,17.6111882 C9.76483006,17.395403 9.73170981,17.0167823 9.94321006,16.7603815 L15.9312799,9.50107076 C17.2661487,7.88281524 17.0580903,5.46525642 15.465561,4.10571614 C13.8746589,2.74756498 11.496974,2.9570204 10.1626826,4.57457596 L3.79425183,12.2949965 C2.87823836,13.4054756 3.01826627,15.0643071 4.10707307,15.9934691 C5.1958048,16.9225671 6.8222928,16.7797273 7.73423463,15.6741843 L13.5943321,8.57001393 C14.0858446,7.97415549 14.0099812,7.080225 13.4243447,6.58034733 C12.8338231,6.07629989 11.9639083,6.15508641 11.4691058,6.75493324 L5.99540282,13.3906793 C5.78844473,13.6415736 5.41728196,13.6771911 5.16638758,13.470233 C5.1638391,13.4681308 5.16130836,13.4660072 5.15879562,13.4638624 Z"/>
</svg>