<svg id="cloud-plus" viewBox="0 0 20 20">
  <path d="M15.6235888,7.44610262 C17.5394793,7.77350822 19,9.78869625 19,11.8478316 C19,14.1410109 17.1886016,16 14.9541284,16 L14.9541284,14.4747136 C16.3677747,14.4747136 17.5137615,13.2986185 17.5137615,11.8478316 C17.5137615,10.3970447 16.3677747,8.91481161 14.9541284,8.91481161 L14.2110092,8.91481161 L14.2110092,8.15216843 C14.2110092,7.1693773 13.4346956,6.37266767 12.4770642,6.37266767 C12.05549,6.37266767 11.6590957,6.52662793 11.3464227,6.802956 L10.7567986,7.32404257 L10.2767033,6.69560503 C9.71596184,5.96160282 8.86167816,5.52528636 7.93577982,5.52528636 C6.29412606,5.52528636 4.96330275,6.89107429 4.96330275,8.57585909 C4.96330275,8.9272386 5.02090075,9.2694689 5.13225047,9.5927832 L5.48243418,10.6095742 L4.22018349,10.6095742 C3,10.6095742 2.463,11.4489434 2.48623853,12.6952129 C2.50947706,13.9414824 3.26255213,14.4747136 4.22018349,14.4747136 L14.9541284,14.4747136 L14.9541284,16 L4.22018349,16 C2.44172526,16 1,14.5203964 1,12.6952129 C1,11.1191286 2.07504915,9.49459444 3.51364244,9.16408462 C3.48935799,8.97018833 3.47706422,8.77380947 3.47706422,8.57585909 C3.47706422,6.0486819 5.47329919,4 7.93577982,4 C9.08463113,4 10.1622526,4.44948022 10.9755411,5.22797721 C11.4318843,4.98079074 11.9448818,4.84738131 12.4770642,4.84738131 C14.0193943,4.84738131 15.3084723,5.96016993 15.6235888,7.44610262 Z M9.29954983,9.08011866 C9.29954983,8.73895378 9.57611861,8.462385 9.91728349,8.462385 C10.2584484,8.462385 10.5350172,8.73895378 10.5350172,9.08011866 L10.5350172,10.2224853 L11.6775315,10.2224853 C12.0187779,10.2224853 12.2954128,10.4991202 12.2954128,10.8403667 C12.2954128,11.1816131 12.0187779,11.458248 11.6775315,11.458248 L10.5350172,11.458248 L10.5350172,12.6006146 C10.5350172,12.9417795 10.2584484,13.2183483 9.91728349,13.2183483 C9.57611861,13.2183483 9.29954983,12.9417795 9.29954983,12.6006146 L9.29954983,11.458248 L8.1573309,11.458248 C7.81608445,11.458248 7.53944954,11.1816131 7.53944954,10.8403667 C7.53944954,10.4991202 7.81608445,10.2224853 8.1573309,10.2224853 L9.29954983,10.2224853 L9.29954983,9.08011866 Z"/>
</svg>