<svg id="code" viewBox="0 0 20 20">
  <path d="M2.30568731,9.29244056 L5.12296559,6.47871347 C5.4052247,6.19681014 5.8624883,6.19683744 6.14471375,6.47877447 L6.14471375,6.47877447 C6.42655656,6.76032924 6.42679005,7.21705322 6.14523528,7.49889603 C6.14506153,7.49906996 6.14488768,7.4992438 6.14471375,7.49941756 L3.64158004,9.99999314 L6.14471375,12.5005687 C6.42655656,12.7821235 6.42679005,13.2388475 6.14523528,13.5206903 C6.14506153,13.5208642 6.14488768,13.5210381 6.14471375,13.5212118 L6.14471375,13.5212118 C5.8624883,13.8031488 5.4052247,13.8031761 5.12296559,13.5212728 L2.30568731,10.7075457 C1.91491681,10.3172678 1.91451751,9.68410293 2.30479544,9.29333243 C2.30509254,9.29303495 2.30538983,9.29273766 2.30568731,9.29244056 Z M11.8711743,3.02447532 L11.8711743,3.02447532 C12.2567387,3.12754162 12.4857488,3.52365513 12.3826825,3.90921961 C12.3826229,3.90944259 12.3825632,3.90966554 12.3825033,3.90988846 L9.01369933,16.4641414 C8.91020731,16.8498168 8.51379668,17.0786998 8.12803998,16.975511 L8.12803998,16.975511 C7.74265022,16.8724203 7.51380162,16.4764286 7.6168923,16.0910389 C7.6169372,16.090871 7.61698216,16.0907032 7.61702718,16.0905354 L10.9849573,3.53630666 C11.0884944,3.15036395 11.4851392,2.92128322 11.8711743,3.02447532 Z M13.855368,6.47915961 L13.855368,6.47915961 C14.1375934,6.19722259 14.594857,6.19719529 14.8771161,6.47909861 L17.6943098,9.2927412 C18.0850803,9.68301913 18.0854796,10.316184 17.6952017,10.7069545 C17.6948764,10.7072801 17.694551,10.7076055 17.6942253,10.7079307 L14.8771771,13.5207561 C14.5948744,13.8026356 14.1376033,13.802581 13.855368,13.5206341 L13.855368,13.5206341 C13.5735702,13.2391243 13.5733368,12.7824734 13.8548465,12.5006757 C13.8550474,12.5004745 13.8552484,12.5002736 13.8554496,12.5000727 L16.3585017,10.0003783 L13.855368,7.49980271 C13.5735252,7.21824793 13.5732917,6.76152395 13.8548464,6.47968115 C13.8550202,6.47950721 13.855194,6.47933337 13.855368,6.47915961 Z"/>
</svg>