<svg id="cog" viewBox="0 0 20 20">
  <path d="M8.76861665,2.03647301 C8.82939512,2.01361157 8.89477454,2.00087644 8.96246329,2.00002629 L11.0325076,2.00002629 C11.2904411,1.99756405 11.5180277,2.16825397 11.5878853,2.4165596 L12.0281313,3.96370984 C12.1354473,4.00009741 12.2408804,4.03967517 12.3447609,4.0819971 C12.5103851,4.14580551 12.6740057,4.21647033 12.8352947,4.29618728 L14.2365526,3.51573988 C14.461528,3.3895581 14.743152,3.4297901 14.9237974,3.61391773 L16.3875398,5.07766008 C16.4306937,5.12191174 16.4654797,5.17180846 16.491611,5.22517005 C16.5770042,5.39049277 16.5782012,5.59151558 16.4853072,5.76144823 L15.702838,7.16232045 C15.8320801,7.42054258 15.9452672,7.69169351 16.0394547,7.96944375 L17.0033826,8.24612675 C17.0252732,8.25130193 17.0466704,8.2577188 17.0674958,8.26530117 L17.5834404,8.41211469 C17.831746,8.48197232 18.002436,8.70955888 17.9999737,8.96749242 L17.9999737,11.0375367 C17.9997485,11.0554653 17.9986896,11.0732319 17.9968295,11.0907939 C17.9942551,11.1196948 17.9894767,11.1486032 17.9824261,11.1772846 C17.9332835,11.3771948 17.781223,11.5357022 17.5835244,11.5930986 L16.040881,12.0300323 C15.9498361,12.3031385 15.8384323,12.5740276 15.7090405,12.8362032 L16.1949961,13.7134476 C16.220004,13.7539408 16.2395196,13.7968026 16.2535277,13.8409973 L16.4767924,14.2439003 C16.6006944,14.4647931 16.564365,14.7408965 16.3875398,14.9222199 L14.9729157,16.336844 C14.9300475,16.3925697 14.8767081,16.4408054 14.8146428,16.4783775 C14.6385358,16.5849863 14.4189312,16.589545 14.2385518,16.4903363 L13.0869359,15.8470914 L12.8364344,15.7082784 C12.5707614,15.8396782 12.3002129,15.9502826 12.0233519,16.0422474 L11.9052994,16.4537448 L11.5857509,17.5819469 C11.5171965,17.830699 11.2904079,18.0026194 11.0323848,18.001434 L8.96172494,18.001434 C8.70370185,18.0026194 8.47691325,17.830699 8.40835893,17.5819469 L8.02195892,16.2177183 L7.97161892,16.0422474 C7.85958883,16.0050105 7.74939342,15.9636007 7.64028839,15.9187827 C7.47617989,15.8554497 7.31567572,15.7862368 7.15882277,15.7076426 L6.38549103,16.1361768 L5.76273021,16.4840252 C5.58672373,16.583979 5.37529693,16.5816495 5.20466072,16.4875247 C5.15601363,16.4610111 5.11064601,16.4270734 5.07031235,16.3859623 L3.60656999,14.9222199 C3.5850396,14.9001418 3.56559215,14.8766585 3.54826328,14.8520408 C3.42021358,14.673411 3.40461649,14.4333583 3.51597482,14.2372698 L4.15017776,13.101842 L4.29381488,12.8426347 C4.16290119,12.5814917 4.04967779,12.311609 3.95465507,12.0304362 L2.41058539,11.5930986 C2.16537406,11.5212233 1.99771666,11.2952503 2.00002351,11.0397326 L2.00002351,8.96014741 C2.00168566,8.70793335 2.16855052,8.48665604 2.41058539,8.41570666 L3.95465507,7.96944375 C4.04894146,7.691402 4.16226732,7.41997343 4.29167878,7.16150746 L3.50966371,5.76144823 C3.42298322,5.60288218 3.4182275,5.41724603 3.4873574,5.25880397 C3.51455891,5.19275134 3.55446477,5.13109079 3.60656999,5.07766008 L5.07031235,3.61391773 C5.24048888,3.44046085 5.50027904,3.39470451 5.71790312,3.49547438 C5.73089752,3.50136024 5.74374545,3.50776509 5.7564191,3.51469284 L7.16379676,4.29095945 C7.42663325,4.16124158 7.69822718,4.0496024 7.97203296,3.95843091 L8.40835893,2.41793312 C8.46024081,2.23734412 8.5963624,2.0967791 8.76861665,2.03647301 Z M15.1846994,11.1829536 C15.2560343,11.0969513 15.3522175,11.0322984 15.4629072,10.99967 L16.8576627,10.6020701 L16.8576627,9.39033684 L16.7529516,9.36082734 C16.7321479,9.35639273 16.7114655,9.35076836 16.6909986,9.34393351 L16.4927559,9.28749947 L15.4692183,8.99904798 C15.4044329,8.98105851 15.3443995,8.95212084 15.2911969,8.91431379 C15.1842753,8.84066665 15.1038975,8.73155091 15.0666016,8.60313708 C14.9506063,8.18208767 14.7889586,7.78194763 14.5757124,7.40715248 C14.4743021,7.23426606 14.470915,7.02087909 14.5667871,6.84486121 L15.269891,5.58105421 L14.4152629,4.72642608 L13.1593519,5.42695936 C13.1126845,5.45262007 13.0633495,5.47128413 13.0128081,5.48296796 C12.8729654,5.51759737 12.723038,5.4985231 12.594305,5.42574515 C12.3453679,5.28410944 12.0852509,5.16129735 11.8152557,5.06080016 C11.6780494,5.01103819 11.5389996,4.96696656 11.398552,4.92838162 C11.338686,4.91175819 11.2828778,4.88578613 11.2327677,4.85210574 C11.1201195,4.77847293 11.035304,4.66619252 10.9966838,4.53321932 L10.6039725,3.1498043 L9.39580133,3.1498043 L9.00032996,4.53709277 C8.94365835,4.72934805 8.79037595,4.87784038 8.59641888,4.92838162 C8.1806108,5.04261394 7.78336688,5.21125348 7.40361897,5.42695936 C7.35253931,5.45504624 7.29826373,5.47475089 7.24270822,5.48609483 C7.10670406,5.51633608 6.96217181,5.49621952 6.83751348,5.42574515 L6.10566995,5.01570516 L5.579708,4.72642608 L4.72770806,5.57842602 L5.15738345,6.359654 L5.42732267,6.84486121 C5.46551842,6.91498726 5.48795925,6.99104471 5.49472333,7.06810936 C5.50629306,7.18455517 5.4820287,7.30375534 5.42193023,7.4086481 C5.25655882,7.69978388 5.1225577,7.99749769 5.01755165,8.30795236 C4.98527661,8.40410875 4.9555785,8.50146757 4.92838113,8.599972 C4.87664718,8.79163917 4.72902966,8.94284812 4.53837474,8.99904798 L3.23868655,9.36954733 L3.1436193,9.3971475 L3.1436193,10.6027325 L3.80782765,10.7955672 L4.53206363,10.99967 C4.72516237,11.0532892 4.87604443,11.2041713 4.9296636,11.39727 C5.04390561,11.813072 5.20622213,12.2166446 5.42193023,12.596381 C5.52229584,12.7695743 5.52469012,12.9826652 5.42824134,13.1580699 L5.02817791,13.8724689 L4.72268595,14.421581 L5.579708,15.278603 L6.49510256,14.7659821 L6.83751348,14.5741348 C7.01196938,14.4755079 7.22534884,14.4755079 7.39980475,14.5741348 C7.51717442,14.6409104 7.63702969,14.7035044 7.759234,14.7615491 C8.03193837,14.8887777 8.31439382,14.9911158 8.60272999,15.0703364 C8.79582873,15.1239556 8.94671078,15.2748376 9.00032996,15.4679364 L9.39161881,16.8563807 L10.6033521,16.8563807 L10.7318193,16.4057256 L10.9966838,15.4666607 C11.0308108,15.3491579 11.1010096,15.2478131 11.1946096,15.1750151 C11.2557322,15.1266807 11.327022,15.0906202 11.4048631,15.0703364 C11.5491807,15.0306892 11.6905026,14.9852475 11.8294007,14.933791 C12.0943388,14.8342821 12.349719,14.7132882 12.594305,14.5741348 C12.7687609,14.4755079 12.9821404,14.4755079 13.1565963,14.5741348 L13.4523663,14.7398499 L14.420119,15.274169 L15.2718825,14.4224055 L14.5667871,13.1550188 C14.4754387,12.9873063 14.4742034,12.7856681 14.5620121,12.6174628 C14.5655322,12.6103793 14.5692084,12.6033504 14.5730406,12.596381 C14.6360095,12.4855249 14.6949676,12.3731779 14.7497321,12.2593133 C14.8796117,11.9865318 14.9845332,11.7035651 15.0666016,11.4056682 C15.0892749,11.3221552 15.1301159,11.2464419 15.1846994,11.1829536 Z M9.10437645,6.98503323 C9.38755247,6.90067068 9.6872034,6.85534048 9.99703138,6.85534048 C10.2880631,6.85534048 10.5701152,6.89533747 10.8379678,6.97011166 C11.3444998,7.10949072 11.8224116,7.37742783 12.2189066,7.77392285 C12.5679028,8.12291907 12.8172978,8.53499358 12.9670914,8.9741421 C13.0782797,9.29507071 13.1387223,9.63926604 13.1387223,9.99703138 C13.1387223,10.4460052 13.0435327,10.8736082 12.872318,11.2606759 C12.7202639,11.6081981 12.5024601,11.9333912 12.2189066,12.2169447 C11.9883262,12.4475252 11.7302107,12.6346277 11.4549442,12.7782523 C11.0187338,13.0083232 10.5225204,13.1387223 9.99703138,13.1387223 C9.44231466,13.1387223 8.92022083,12.9934142 8.46689476,12.7389431 C8.21893494,12.6010394 7.98597996,12.4270399 7.77588475,12.2169447 C7.53372291,11.9747829 7.33951624,11.7022507 7.19326472,11.4113765 C6.97723916,10.9858096 6.85534048,10.5051041 6.85534048,9.99703138 C6.85534048,9.59056278 6.93335942,9.2016103 7.07517689,8.84439428 C7.22791067,8.4539263 7.46147997,8.08832764 7.77588475,7.77392285 C8.15866802,7.39113958 8.61733395,7.12817641 9.10437646,6.98503323 Z M11.1323752,8.13858987 C10.8024873,7.93756264 10.4140164,7.8220146 9.99703138,7.8220146 C9.60767964,7.8220146 9.24318797,7.9227555 8.92803486,8.09975898 C8.76055089,8.19493488 8.60272115,8.31417011 8.45942657,8.45746468 C8.26781214,8.64907912 8.11921873,8.86668448 8.01364637,9.09860985 C7.89046152,9.37205341 7.8220146,9.67609689 7.8220146,9.99703138 C7.8220146,10.228768 7.85770177,10.451698 7.92391499,10.6606604 C8.02667878,10.9791572 8.20518263,11.279159 8.45942657,11.5334029 C8.75939132,11.8333676 9.12305103,12.0279022 9.5056313,12.1170066 C9.66340025,12.1530318 9.82786946,12.1720482 9.99703138,12.1720482 C10.1804462,12.1720482 10.3583442,12.1496923 10.5281664,12.1075395 C10.8964276,12.0145344 11.2456122,11.8231555 11.5353648,11.5334029 C11.7569896,11.3117781 11.9210623,11.0553839 12.027583,10.7822782 C12.1209451,10.539036 12.1720482,10.274339 12.1720482,9.99703138 C12.1720482,9.61711037 12.0761284,9.26085998 11.9070315,8.95102246 C11.8096435,8.77425455 11.6857546,8.60785446 11.5353648,8.45746468 C11.4109304,8.33303025 11.2755351,8.22673864 11.1323752,8.13858987 Z"/>
</svg>