<svg id="copy" viewBox="0 0 20 20">
  <path d="M3,3 L3,14.2571429 C3,14.8094276 3.44771525,15.2571429 4,15.2571429 L6.61290323,15.2571429 L6.61290323,17 C6.61290323,17.5522847 7.06061848,18 7.61290323,18 L16,18 C16.5522847,18 17,17.5522847 17,17 L17,10.1263643 C17,9.86322398 16.8962817,9.61068815 16.7113319,9.42350804 L12.3800548,5.04000087 C12.1921856,4.8498662 11.9360168,4.74285714 11.6687229,4.74285714 L11.1832258,4.74285714 L8.76808469,2.2973277 C8.58020168,2.10708066 8.32395462,2 8.05657107,2 L4,2 C3.44771525,2 3,2.44771525 3,3 Z M4.85483871,3.37051429 L7.70455922,3.37051429 C7.83827986,3.37051429 7.96642858,3.42407767 8.06037453,3.51923738 L9.2683871,4.74285714 L6.61290323,4.74285714 L6.61290323,13.8857143 L4.85483871,13.8857143 C4.57869633,13.8857143 4.35483871,13.6618567 4.35483871,13.3857143 L4.35483871,3.87051429 C4.35483871,3.59437191 4.57869633,3.37051429 4.85483871,3.37051429 Z M8.46774194,6.11428571 L10.6290323,6.11428571 C10.9051746,6.11428571 11.1290323,6.33814334 11.1290323,6.61428571 L11.1290323,10.1848 C11.1290323,10.4609424 11.3528899,10.6848 11.6290323,10.6848 L15.1451613,10.6848 C15.4213037,10.6848 15.6451613,10.9086576 15.6451613,11.1848 L15.6451613,16.1276571 C15.6451613,16.4037995 15.4213037,16.6276571 15.1451613,16.6276571 L8.46774194,16.6276571 C8.19159956,16.6276571 7.96774194,16.4037995 7.96774194,16.1276571 L7.96774194,6.61428571 C7.96774194,6.33814334 8.19159956,6.11428571 8.46774194,6.11428571 Z M12.6550106,7.25666381 L14.5186194,9.14309234 C14.5574335,9.18238168 14.5570482,9.24569701 14.5177589,9.28451108 C14.4990414,9.3030021 14.4737906,9.31337143 14.4474798,9.31337143 L12.583871,9.31337143 C12.5286425,9.31337143 12.483871,9.2685999 12.483871,9.21337143 L12.483871,7.3269429 C12.483871,7.27171442 12.5286425,7.2269429 12.583871,7.2269429 C12.6106035,7.2269429 12.6362232,7.23764635 12.6550106,7.25666381 Z"/>
</svg>