<svg id="cube" viewBox="0 0 20 20">
  <path d="M2.0007076,5.69298374 C1.98838114,5.40109567 2.13715444,5.10255114 2.44282261,4.97998868 L9.75748528,2.04705978 C9.91415584,1.98424026 10.0871302,1.98431587 10.2437517,2.04727233 L17.4658592,4.95031125 C17.761783,5.02218314 18,5.30027786 18,5.65882525 L18,13.4005666 C18,13.6754848 17.8532949,13.926813 17.6210363,14.0497894 L10.3135626,17.918954 C10.1298622,18.0191489 9.90323339,18.0333686 9.69363356,17.9223895 C9.69145039,17.9212873 9.68929478,17.9201265 9.68714505,17.918954 L2.37967132,14.0497894 C2.1474127,13.926813 2.0007076,13.6754848 2.0007076,13.4005666 L2.0007076,5.69298374 Z M4.51434148,5.70181767 L10.0003538,8.20280529 L15.4796882,5.70486203 L10.000051,3.50223626 L4.51434148,5.70181767 Z M10.6860378,9.50687642 L10.6860378,16.0984854 L16.6286321,12.9519978 L16.6286321,6.76175938 L16.3206133,6.90218032 L10.6860378,9.50687642 Z M3.37207552,6.76709927 L3.37207552,12.9519978 L9.31466984,16.0984854 L9.31466984,9.5073497 L3.37207552,6.76709927 Z"/>
</svg>