<svg id="edit-rounded" viewBox="0 0 20 20">
  <path d="M15.6533333,11.0020275 L16.9333333,11.0020275 L16.9333333,15.842963 C16.9333333,17.0342616 15.967595,18 14.7762963,18 L4.15703704,18 C2.96573838,18 2,17.0342616 2,15.842963 L2,5.2237037 C2,4.03240504 2.96573838,3.06666667 4.15703704,3.06666667 L9.19453663,3.06666667 L9.20692368,4.34666667 L4.15703704,4.34666667 C3.67266286,4.34666667 3.28,4.73932952 3.28,5.2237037 L3.28,15.842963 C3.28,16.3273371 3.67266286,16.72 4.15703704,16.72 L14.7762963,16.72 C15.2606705,16.72 15.6533333,16.3273371 15.6533333,15.842963 L15.6533333,11.0020275 Z M15.5435425,6.27018517 L16.4509257,5.36363291 C16.8547611,4.9589666 16.8547611,4.30086451 16.4509257,3.8961982 L16.104425,3.54969748 C15.7130537,3.15749522 15.0300235,3.15915709 14.6369903,3.55052841 L13.730438,4.4579116 L15.5435425,6.27018517 Z M8.82126233,12.9924654 L14.6627493,7.15180931 L12.8488139,5.33870481 L7.00815783,11.1801918 L6.44997186,13.0190947 C6.42543367,13.099934 6.42544628,13.1862382 6.45000809,13.2670703 C6.51851762,13.4925329 6.75682906,13.6197684 6.98229161,13.5512589 L8.82126233,12.9924654 Z M16.9860491,2.66807334 L17.3325499,3.01457406 C18.2224834,3.90533851 18.2224834,5.35366167 17.3325499,6.24525706 L9.48185723,14.0942878 L5.87570438,15.1901381 C5.71399019,15.2392804 5.54132496,15.2392932 5.37960349,15.1901749 C4.92866079,15.0532138 4.6741284,14.5766236 4.81108947,14.1256809 L5.90633539,10.5195969 L13.7561971,2.66890427 C14.1874534,2.23764798 14.7616308,2 15.3715386,2 C15.9822773,2 16.5547928,2.23764798 16.9860491,2.66807334 Z"/>
</svg>