<svg id="emoji" viewBox="0 0 20 20">
  <path d="M10,18 C5.581722,18 2,14.418278 2,10 C2,5.581722 5.581722,2 10,2 C14.418278,2 18,5.581722 18,10 C18,14.418278 14.418278,18 10,18 Z M10,16.4516129 C13.5631274,16.4516129 16.4516129,13.5631274 16.4516129,10 C16.4516129,6.43687258 13.5631274,3.5483871 10,3.5483871 C6.43687258,3.5483871 3.5483871,6.43687258 3.5483871,10 C3.5483871,13.5631274 6.43687258,16.4516129 10,16.4516129 Z M12.0645161,8.96774194 C11.4944157,8.96774194 11.0322581,8.50558426 11.0322581,7.93548387 C11.0322581,7.36538348 11.4944157,6.90322581 12.0645161,6.90322581 C12.6346165,6.90322581 13.0967742,7.36538348 13.0967742,7.93548387 C13.0967742,8.50558426 12.6346165,8.96774194 12.0645161,8.96774194 Z M7.93548387,8.96774194 C7.36538348,8.96774194 6.90322581,8.50558426 6.90322581,7.93548387 C6.90322581,7.36538348 7.36538348,6.90322581 7.93548387,6.90322581 C8.50558426,6.90322581 8.96774194,7.36538348 8.96774194,7.93548387 C8.96774194,8.50558426 8.50558426,8.96774194 7.93548387,8.96774194 Z M7.1409857,12.2431969 L7.1409857,12.2431969 C7.43488531,11.9492973 7.8963105,11.9060861 8.2396673,12.1403084 C8.26877473,12.1601936 8.29613517,12.1778957 8.3217349,12.1934347 C9.30462309,12.7900475 10.5277981,12.8361524 11.547824,12.3317496 C11.6374877,12.2874109 11.7416873,12.2241686 11.8604228,12.1420228 L11.8604331,12.1420378 C12.2091473,11.9007839 12.6804816,11.9433595 12.9803191,12.2431969 L12.9803191,12.2431969 C13.2516178,12.5144956 13.2516178,12.9543577 12.9803191,13.2256564 C12.9567628,13.2492127 12.9315426,13.2710441 12.9048537,13.2909816 C12.6545958,13.4778777 12.4427846,13.6150899 12.269394,13.7025831 C10.7222715,14.4832642 8.84781495,14.3919101 7.37730075,13.4285209 C7.32894838,13.3968434 7.27536581,13.3589011 7.21655303,13.3146939 L7.21656224,13.3146816 C6.90256014,13.0786588 6.83934542,12.6327756 7.0753682,12.3187735 C7.09543885,12.2920717 7.11736562,12.266817 7.1409857,12.2431969 Z"/>
</svg>