<svg id="eye" viewBox="0 0 20 20">
  <path d="M18.7922972,9.2053587 C19.0692343,9.69571101 19.0692343,10.304289 18.7922972,10.7946413 C17.0311127,13.9132391 13.7456183,16 9.99999958,16 C6.25594341,16 2.96973021,13.9147065 1.20770194,10.7946739 C0.930766021,10.3043096 0.930766021,9.69572301 1.20770194,9.2053587 C2.96888646,6.08676087 6.25438091,4 9.99999958,4 C13.7440558,4 17.0303002,6.08529348 18.7922972,9.2053587 Z M9.99999958,14.4347826 C12.7803251,14.4347826 15.2544325,13.0923291 16.8386179,11.0057537 C16.9278243,10.8882574 17.0351425,10.7331722 17.1605724,10.5404979 C17.3750154,10.2110898 17.3765995,9.78660712 17.1646122,9.4556134 C17.043769,9.26691964 16.9398374,9.11467807 16.8528173,8.99888869 C15.3105232,6.94670287 12.8372247,5.59759783 9.99999958,5.59759783 C7.14559137,5.59759783 4.71436027,6.98525595 3.13837526,9.04835832 C3.05887081,9.15243661 2.96392758,9.28696306 2.85354559,9.4519377 C2.63092196,9.78466633 2.62818895,10.2181002 2.84659901,10.5536097 L2.84661092,10.553602 C2.95184204,10.7152523 3.04261244,10.8471696 3.11892214,10.9493539 C4.70117419,13.068107 7.1947033,14.4347826 9.99999958,14.4347826 Z M10,13 C8.34314575,13 7,11.6568542 7,10 C7,8.34314575 8.34314575,7 10,7 C11.6568542,7 13,8.34314575 13,10 C13,11.6568542 11.6568542,13 10,13 Z"/>
</svg>