<svg id="facebook" viewBox="0 0 20 20">
  <path d="M18,2.88177778 L18,17.1146667 C18,17.6035556 17.6035556,17.9964444 17.1182222,17.9964444 L13.0391111,17.9964444 L13.0391111,11.8035556 L15.1182222,11.8035556 L15.4293333,9.38933333 L13.0355556,9.38933333 L13.0355556,7.84622222 C13.0355556,7.14666667 13.2284444,6.67111111 14.232,6.67111111 L15.5111111,6.67111111 L15.5111111,4.51111111 C14.8917323,4.44459425 14.2691594,4.41224895 13.6462222,4.41422222 C11.8035556,4.41422222 10.5395556,5.53955556 10.5395556,7.60711111 L10.5395556,9.38933333 L8.45333333,9.38933333 L8.45333333,11.8035556 L10.5395556,11.8035556 L10.5395556,18 L2.88177778,18 C2.39539318,17.9985357 2.00146429,17.6046068 2,17.1182222 L2,2.88177778 C2,2.39644444 2.39644444,2 2.88177778,2 L17.1146667,2 C17.6035556,2 18,2.39644444 18,2.88177778 Z"/>
</svg>