<svg id="file-keynote" viewBox="0 0 20 20">
  <path d="M10.0846348,10.6119311 C12.0019618,10.6119311 13.9192889,10.6119311 15.836616,10.6119311 C15.8501239,10.6119311 15.8642808,10.6119311 15.8790866,10.6119311 L15.8790866,10.6119092 C16.1919556,10.6119092 16.445586,10.8655397 16.445586,11.1784086 C16.445586,11.1942214 16.4449239,11.2100273 16.4436015,11.2257847 C16.1273576,14.9940214 12.9290911,17.9965658 9.08463478,17.9965658 C5.03356017,17.9965658 1.7,14.6626082 1.7,10.6119311 C1.7,6.82462424 4.6135924,3.66443812 8.30317899,3.26897093 C8.69098612,3.22740394 9.03906262,3.50808703 9.0806296,3.89589416 C9.08330905,3.92089258 9.08465164,3.94601625 9.08465164,3.97115785 C9.08463478,3.98791546 9.08463478,4.00399864 9.08463478,4.01940741 C9.08463478,5.88358196 9.08463478,7.74775651 9.08463478,9.61193106 C9.08463478,10.1642158 9.53235003,10.6119311 10.0846348,10.6119311 Z M10.3153642,8.38464258 C10.3153649,5.67779521 10.3153652,3.75020455 10.3153652,2.60187061 C10.3153652,2.58498492 10.3153652,2.56703332 10.3153652,2.54801582 L10.3153931,2.54801582 C10.3153929,2.25658861 10.5516412,2.02034002 10.8430684,2.02033982 C10.8566249,2.02033981 10.8701764,2.02086222 10.8836927,2.02190589 C12.6338449,2.1570452 14.2871656,2.91288439 15.5371213,4.1624812 C16.7504235,5.37613189 17.4985395,6.97005636 17.6647343,8.66393046 C17.7001437,9.0248272 17.4362842,9.34609685 17.0753874,9.38150631 C17.0540801,9.38359688 17.0326834,9.38464405 17.0112738,9.38464408 L11.3153568,9.38463411 C10.7630769,9.3846348 10.3153649,8.93692402 10.3153642,8.38464407 Z"/>
</svg>