<svg id="file-generic" viewBox="0 0 20 20">
  <path d="M4.92010385,13.6451085 L4.92010385,13.6451085 C4.65568219,13.4232324 4.62119221,13.0290102 4.84306833,12.7645885 L10.5951031,5.9095804 C11.5583751,4.76159756 13.26105,4.61000255 14.411229,5.57511735 C15.5561098,6.53578638 15.7039186,8.24796856 14.7439681,9.39199307 L8.58461673,16.7324222 C7.18195431,18.4040501 4.68395818,18.6197093 3.01129225,17.2164828 C1.33723883,15.8120924 1.12234198,13.3094679 2.52832222,11.6338859 L9.2219656,3.65671239 C11.0684749,1.45612833 14.3561374,1.17141849 16.5567578,3.01825189 C18.7593504,4.86674048 19.0470528,8.15308594 17.2002554,10.3540134 L10.9075868,17.8533238 C10.6857107,18.1177454 10.2914885,18.1522354 10.0270668,17.9303593 L10.0270668,17.9303593 C9.76264514,17.7084832 9.72815517,17.3142609 9.95003129,17.0498392 L16.2426998,9.55052894 C17.6457355,7.87845614 17.4270523,5.38049815 15.7531983,3.97574452 C14.0810546,2.57242622 11.5819499,2.78884736 10.1795212,4.46019691 L3.48587777,12.4373705 C2.52308683,13.58478 2.67026545,15.2987782 3.81467366,16.2588408 C4.95900296,17.2188371 6.66854979,17.071247 7.62706118,15.9289377 L13.7864125,8.58850856 C14.3030248,7.97283404 14.2232873,7.04917468 13.6077445,6.53267291 C12.987067,6.01186269 12.0727289,6.09326937 11.5526587,6.71306491 L5.80062389,13.568073 C5.57874777,13.8324947 5.18452552,13.8669847 4.92010385,13.6451085 Z"/>
</svg>