<svg id="files-video" viewBox="0 0 20 20">
  <path d="M14.8900591,8.11919475 C15.4026183,7.94519228 15.9372288,8.02000212 16.3502535,8.33339955 C16.7650937,8.64849115 17,9.15964973 17,9.72570467 L17,13.457467 C17,14.0227392 16.7648414,14.5331979 16.3501607,14.8490117 C16.0844743,15.0504997 15.7663574,15.1551197 15.4321591,15.1551197 C15.2502252,15.1551197 15.0673908,15.1245457 14.8892982,15.0639886 L13.0227273,13.6912005 L13.0227273,15 C13.0227273,15.5522847 12.575012,16 12.0227273,16 L4,16 C3.44771525,16 3,15.5522847 3,15 L3,8.18483314 C3,7.63254839 3.44771525,7.18483314 4,7.18483314 L12.0227273,7.18483314 C12.575012,7.18483314 13.0227273,7.63254839 13.0227273,8.18483314 L13.0227273,9.53782884 L14.8900591,8.11919475 Z M5.98855682,4 L10.0340114,4 C10.5862961,4 11.0340114,4.44771525 11.0340114,5 L11.0340114,5.16910759 C11.0340114,5.72139234 10.5862961,6.16910759 10.0340114,6.16910759 L5.98855682,6.16910759 C5.43627207,6.16910759 4.98855682,5.72139234 4.98855682,5.16910759 L4.98855682,5 C4.98855682,4.44771525 5.43627207,4 5.98855682,4 Z"/>
</svg>