<svg id="flag" viewBox="0 0 20 20">
  <path d="M12.6851335,6.2699585 L15.464534,8.77519774 C15.8866745,9.15569817 15.9035988,9.78865973 15.5023353,10.188957 C15.3032516,10.3875613 15.0269462,10.5 14.7379822,10.5 L5.5818516,10.5 L5.5818516,17.25 C5.5818516,17.6642136 5.22774206,18 4.7909258,18 C4.35410954,18 4,17.6642136 4,17.25 L4,3 C4,2.44771525 4.47214606,2 5.05456773,2 L15.0729612,2 C15.5849506,2 16,2.39357302 16,2.87906994 C16,3.11851309 15.8969971,3.34759529 15.7147961,3.51337364 L12.6851335,6.2699585 Z M12.9121059,3.5 L5.5818516,3.5 L5.5818516,9 L12.8684774,9 C12.9849618,9 13.079391,8.91045695 13.079391,8.8 C13.079391,8.74571612 13.0561213,8.69376406 13.0149248,8.65607214 L10.8002267,6.62977814 C10.59066,6.4380392 10.5846894,6.12150734 10.7868911,5.92278444 C10.7912564,5.91849419 10.7957024,5.91427832 10.8002267,5.91013886 L13.0585533,3.84392786 C13.14238,3.76723228 13.1447682,3.64061954 13.0638876,3.56113038 C13.0241389,3.52206556 12.9693519,3.5 12.9121059,3.5 Z"/>
</svg>