<svg id="game" viewBox="0 0 20 20">
    <path fill-rule="evenodd" d="M10 20C15.5229 20 20 15.5228 20 10C20 4.47715 15.5229 0 10 0C4.47716 0 7.62939e-06 4.47715 7.62939e-06 10C7.62939e-06 15.5228 4.47716 20 10 20ZM16.3276 14.8957C17.203 13.7658 17.7825 12.3952 17.9499 10.9H14.9439C15.0872 12.3612 15.5759 13.7203 16.3276 14.8957ZM15.042 16.2115C13.8851 17.1517 12.4604 17.7752 10.9 17.9499V10.9H13.1367C13.2973 12.8635 13.9787 14.6807 15.042 16.2115ZM14.9439 9.1H17.9499C17.7825 7.60479 17.203 6.23416 16.3276 5.10434C15.5759 6.27969 15.0872 7.63879 14.9439 9.1ZM15.042 3.7885C13.9787 5.31935 13.2973 7.13646 13.1367 9.1H10.9V2.05006C12.4604 2.22475 13.8851 2.84826 15.042 3.7885ZM9.10001 17.9499C7.53945 17.7752 6.1146 17.1516 4.9576 16.2111C6.02095 14.6803 6.70261 12.8633 6.86331 10.9H9.10001V17.9499ZM5.05607 10.9C4.91267 12.3612 4.42373 13.72 3.67202 14.8952C2.79682 13.7654 2.21744 12.395 2.05007 10.9H5.05607ZM9.10001 9.1H6.86333C6.70272 7.13674 6.02142 5.31947 4.95804 3.7885C6.11496 2.84826 7.53965 2.22475 9.10001 2.05006V9.1ZM5.0561 9.1C4.91278 7.63858 4.42402 6.2796 3.67238 5.10437C2.79698 6.23418 2.21747 7.6048 2.05007 9.1H5.0561Z"/>
</svg>
