<svg width="24" height="24" viewBox="0 0 24 24" xmlns="http://www.w3.org/2000/svg">
<path fill-rule="evenodd" clip-rule="evenodd" d="M12.75 19.463C14.2643 19.3126 15.6461 18.7119 16.7595 17.7966C15.6994 16.3648 15.0217 14.6317 14.8784 12.75H12.75V19.463ZM19.463 12.75C19.3145 14.2453 18.7269 15.6114 17.8309 16.7175C17.0317 15.5731 16.5157 14.2173 16.3836 12.75H19.463ZM16.7595 6.20342C15.6994 7.63521 15.0217 9.36838 14.8784 11.25H12.75V4.53703C14.2643 4.68738 15.6461 5.28813 16.7595 6.20342ZM16.3836 11.25C16.5157 9.78269 17.0317 8.42685 17.8309 7.28252C18.7269 8.38861 19.3145 9.75471 19.463 11.25H16.3836ZM11.25 19.463V12.75H9.12675C8.99677 14.6397 8.32797 16.3822 7.27341 17.8235C8.3811 18.7236 9.7506 19.3141 11.25 19.463ZM6.19597 16.7504C5.28487 15.6386 4.68697 14.2602 4.53703 12.75H7.62254C7.50234 14.2283 6.99272 15.5956 6.19597 16.7504ZM7.60964 11.25H4.53703C4.684 9.76971 5.26138 8.41604 6.14224 7.3159C6.94359 8.44966 7.46579 9.79388 7.60964 11.25ZM9.11584 11.25C8.9594 9.37658 8.27295 7.65289 7.20746 6.23073C8.32654 5.30008 9.7207 4.68887 11.25 4.53703V11.25H9.11584ZM12 21C16.9706 21 21 16.9706 21 12C21 7.02944 16.9706 3 12 3C7.02944 3 3 7.02944 3 12C3 16.9706 7.02944 21 12 21Z"/>
</svg>
