<svg viewBox="0 0 16 16" fill="none" xmlns="http://www.w3.org/2000/svg">
    <path fill-rule="evenodd" clip-rule="evenodd" d="M4.66669 0.666687C6.0474 0.666687 7.16669 1.78598 7.16669 3.16669C7.16669 4.5474 6.0474 5.66669 4.66669 5.66669C3.28598 5.66669 2.16669 4.5474 2.16669 3.16669C2.16669 1.78597 3.28598 0.666687 4.66669 0.666687ZM5.83336 3.16669C5.83336 2.52235 5.31102 2.00002 4.66669 2.00002C4.02236 2.00002 3.50002 2.52235 3.50002 3.16669C3.50002 3.81102 4.02236 4.33335 4.66669 4.33335C5.31102 4.33335 5.83336 3.81102 5.83336 3.16669Z" />
    <path fill-rule="evenodd" clip-rule="evenodd" d="M5.90093 6.27198C7.38054 5.96655 9.00002 7.0074 9.00002 8.6586V10.1111C9.00002 10.7862 8.45281 11.3334 7.7778 11.3334H1.55558C0.880562 11.3334 0.333353 10.7862 0.333353 10.1111V8.6586C0.333353 7.0074 1.95283 5.96655 3.43244 6.27198C3.88712 6.36583 4.3178 6.42504 4.66669 6.42504C5.01558 6.42504 5.44625 6.36583 5.90093 6.27198ZM7.66669 8.6586C7.66669 7.98969 6.96307 7.41417 6.17048 7.57778C5.67613 7.67982 5.14527 7.75837 4.66669 7.75837C4.1881 7.75837 3.65725 7.67982 3.1629 7.57778C2.37031 7.41417 1.66669 7.98969 1.66669 8.6586V10H7.66669V8.6586Z" />
    <path fill-rule="evenodd" clip-rule="evenodd" d="M12 3.33335C12 2.22878 11.1046 1.33335 10 1.33335C8.89545 1.33335 8.00002 2.22878 8.00002 3.33335C8.00002 4.43792 8.89545 5.33335 10 5.33335C11.1046 5.33335 12 4.43792 12 3.33335ZM10 2.66669C10.3682 2.66669 10.6667 2.96516 10.6667 3.33335C10.6667 3.70154 10.3682 4.00002 10 4.00002C9.63183 4.00002 9.33335 3.70154 9.33335 3.33335C9.33335 2.96516 9.63183 2.66669 10 2.66669Z" />
    <path d="M10.8376 7.22276C11.6565 7.10237 12.3334 7.68142 12.3334 8.33107V8.66669H9.70217C9.72965 9.11069 9.72307 9.56509 9.70856 10H12.4445C13.1195 10 13.6667 9.45281 13.6667 8.7778V8.33107C13.6667 6.69484 12.0864 5.69151 10.6437 5.9036C10.4039 5.93885 10.1852 5.95835 10 5.95835C9.81486 5.95835 9.59617 5.93885 9.35637 5.9036C9.02127 5.85434 8.67876 5.87065 8.35034 5.94523C8.90819 6.22492 9.24568 6.69464 9.44613 7.25916C9.6332 7.27941 9.82019 7.29169 10 7.29169C10.271 7.29169 10.5583 7.26381 10.8376 7.22276Z" />
</svg>
