<svg id="hashtag" viewBox="0 0 20 20">
  <path d="M5.71428571,12.5714286 L5.71428571,7.42857143 L2.85714286,7.42857143 C2.38375593,7.42857143 2,7.0448155 2,6.57142857 L2,6.57142857 C2,6.09804164 2.38375593,5.71428571 2.85714286,5.71428571 L5.71428571,5.71428571 L5.71428571,2.85714286 C5.71428571,2.38375593 6.09804164,2 6.57142857,2 L6.57142857,2 C7.0448155,2 7.42857143,2.38375593 7.42857143,2.85714286 L7.42857143,5.71428571 L12.5714286,5.71428571 L12.5714286,2.85714286 C12.5714286,2.38375593 12.9551845,2 13.4285714,2 L13.4285714,2 C13.9019584,2 14.2857143,2.38375593 14.2857143,2.85714286 L14.2857143,5.71428571 L17.1428571,5.71428571 C17.6162441,5.71428571 18,6.09804164 18,6.57142857 L18,6.57142857 C18,7.0448155 17.6162441,7.42857143 17.1428571,7.42857143 L14.2857143,7.42857143 L14.2857143,12.5714286 L17.1428571,12.5714286 C17.6162441,12.5714286 18,12.9551845 18,13.4285714 L18,13.4285714 C18,13.9019584 17.6162441,14.2857143 17.1428571,14.2857143 L14.2857143,14.2857143 L14.2857143,17.1428571 C14.2857143,17.6162441 13.9019584,18 13.4285714,18 L13.4285714,18 C12.9551845,18 12.5714286,17.6162441 12.5714286,17.1428571 L12.5714286,14.2857143 L7.42857143,14.2857143 L7.42857143,17.1428571 C7.42857143,17.6162441 7.0448155,18 6.57142857,18 L6.57142857,18 C6.09804164,18 5.71428571,17.6162441 5.71428571,17.1428571 L5.71428571,14.2857143 L2.85714286,14.2857143 C2.38375593,14.2857143 2,13.9019584 2,13.4285714 L2,13.4285714 C2,12.9551845 2.38375593,12.5714286 2.85714286,12.5714286 L5.71428571,12.5714286 Z M7.42857143,12.5714286 L12.5714286,12.5714286 L12.5714286,7.42857143 L7.42857143,7.42857143 L7.42857143,12.5714286 Z"/>
</svg>