<svg id="help" viewBox="0 0 20 20">
  <path d="M10.6195556,16.728 L10.6195556,14.2462222 C11.68,14.0924444 12.6062222,13.5546667 13.2702222,12.7742222 L15.3715556,14.0871111 C14.2533333,15.5528889 12.5564444,16.5511111 10.6195556,16.728 M3.25955556,10.3848889 L5.73688889,10.4711111 C5.86666667,11.6444444 6.46044444,12.6684444 7.34133333,13.3653333 L6.10133333,15.512 C4.472,14.3564444 3.37866667,12.5004444 3.25955556,10.3848889 M9.37955556,3.27111111 L9.37955556,5.75288889 C8.31911111,5.90755556 7.39288889,6.44444444 6.72888889,7.22488889 L4.62844444,5.91288889 C5.74666667,4.44711111 7.44355556,3.44888889 9.37955556,3.27111111 M16.7377778,9.57066667 L14.2586667,9.48355556 C14.1182222,8.32888889 13.5271111,7.32088889 12.6586667,6.63377778 L13.8977778,4.48711111 C15.5164444,5.63466667 16.6044444,7.47288889 16.7377778,9.57066667 M14.2284444,10.8115556 L16.6924444,10.8977778 C16.5911111,11.6586667 16.3635556,12.3777778 16.0302222,13.0373333 L13.9404444,11.7315556 C14.0693333,11.44 14.1662222,11.1324444 14.2284444,10.8115556 M10.6195556,5.75288889 L10.6195556,3.27111111 C11.4017778,3.34222222 12.1431111,3.55111111 12.8248889,3.86666667 L11.592,6.00266667 C11.2844444,5.88 10.9573333,5.80177778 10.6195556,5.75288889 M5.76711111,9.23111111 L3.30044444,9.14488889 C3.39911111,8.36888889 3.62933333,7.63466667 3.96977778,6.96266667 L6.05866667,8.26755556 C5.92444444,8.57244444 5.82755556,8.89511111 5.76711111,9.23111111 M10,13.0693333 C8.30577778,13.0693333 6.92977778,11.6924444 6.92977778,10 C6.92977778,8.30666667 8.30577778,6.92977778 10,6.92977778 C11.6933333,6.92977778 13.0702222,8.30666667 13.0702222,10 C13.0702222,11.6924444 11.6933333,13.0693333 10,13.0693333 M9.37955556,14.2462222 L9.37955556,16.728 C8.59822222,16.6568889 7.85688889,16.4488889 7.17422222,16.1324444 L8.408,13.9964444 C8.71466667,14.1191111 9.04266667,14.1973333 9.37955556,14.2462222 M10,2 C5.58933333,2 2,5.58844444 2,10 C2,14.4106667 5.58933333,18 10,18 C14.4106667,18 18,14.4106667 18,10 C18,5.58844444 14.4106667,2 10,2"/>
</svg>