<svg id='home' width="24" height="24" viewBox="0 0 20 20" xmlns="http://www.w3.org/2000/svg">
<path fill-rule="evenodd" clip-rule="evenodd" d="M10.5858 3.58579C11.3668 2.80474 12.6332 2.80474 13.4142 3.58579L20.7071 10.8787C20.9931 11.1647 21.0787 11.5948 20.9239 11.9685C20.7691 12.3421 20.4045 12.5858 20 12.5858H19V19C19 20.1046 18.1046 21 17 21H13H11H7C5.89543 21 5 20.1046 5 19V12.5858H4C3.59554 12.5858 3.2309 12.3421 3.07612 11.9685C2.92134 11.5948 3.00689 11.1647 3.29289 10.8787L10.5858 3.58579ZM7 10V19H10V15C10 14.4477 10.4477 14 11 14H13C13.5523 14 14 14.4477 14 15V19H17L17 12.5858V10.5858L17 10L12 5L7 10Z"/>
</svg>
