<svg id="hubot" viewBox="0 0 20 20">
  <path d="M5.42895234,7.66636423 C4.79816416,7.66835922 4.28743215,8.19014656 4.28596823,8.83408944 L4.28596823,11.1677252 C4.28792007,11.8113138 4.7985099,12.3325505 5.42895234,12.3345431 L14.5710477,12.3345431 C15.2021819,12.332546 15.7130563,11.8102077 15.7140318,11.1659106 L15.7140318,8.83318211 C15.7120799,8.18959354 15.2014901,7.66835677 14.5710477,7.66636423 L5.42895234,7.66636423 Z M14.5710477,9.70784187 L13.1427619,11.1668179 L11.4282857,11.1668179 L10,9.70874919 L8.57171425,11.1659106 L6.85634929,11.1659106 L5.42984113,9.70874919 L5.42984113,8.83318211 L6.28663482,8.83318211 L7.71492056,10.2912508 L9.14231752,8.83408944 L10.8576825,8.83408944 L12.2859682,10.2921581 L13.714254,8.83408944 L14.5710477,8.83408944 L14.5710477,9.70965651 L14.5710477,9.70784187 Z M7.71403177,13.5004537 L12.2859682,13.5004537 L12.2859682,14.6663642 L7.71403177,14.6663642 L7.71403177,13.5004537 Z M10,3 C5.58893456,3 2,6.39520415 2,10.5834089 L2,15.8331821 C2.00195185,16.4767707 2.51254167,16.9980075 3.14298411,17 L16.8570159,17 C17.4874583,16.9980075 17.9980482,16.4767707 18,15.8331821 L18,10.5834089 C18,6.39520415 14.4110654,3 9.99911121,3 L10,3 Z M16.8570159,15.8331821 L3.14298411,15.8331821 L3.14298411,10.5834089 C3.14298411,6.97861309 6.15953783,4.06156837 9.99911121,4.06156837 C13.8386846,4.06156837 16.8561271,6.97861309 16.8561271,10.5834089 L16.8561271,15.8331821 L16.8570159,15.8331821 Z"/>
</svg>