<svg id="import" viewBox="0 0 20 20">
  <path d="M10,2 L10,2 C10.4008518,2 10.7258065,2.32495462 10.7258065,2.72580645 L10.7258065,11.5033349 L12.1862908,10.0019872 C12.4668767,9.71355074 12.9281605,9.70718658 13.2165969,9.98777246 C13.2214003,9.99244512 13.226139,9.99718382 13.2308117,10.0019872 L13.2308117,10.0019872 C13.5215499,10.3008601 13.5215499,10.7768601 13.2308117,11.075733 L10.7062335,13.6709471 C10.3211338,14.0668216 9.68802903,14.0755563 9.29215449,13.6904566 C9.28556191,13.6840434 9.27905812,13.6775396 9.27264497,13.6709471 L6.74806678,11.075733 C6.45732857,10.7768601 6.45732857,10.3008601 6.74806678,10.0019872 L6.74806678,10.0019872 C7.02865266,9.71355074 7.48993642,9.70718658 7.77837288,9.98777246 C7.78317628,9.99244512 7.78791498,9.99718382 7.79258763,10.0019872 L9.27419355,11.5250474 L9.27419355,2.72580645 C9.27419355,2.32495462 9.59914817,2 10,2 Z M13.5,5.89637306 L13.5,4.40414508 L16.5,4.40414508 C17.0522847,4.40414508 17.5,4.85186033 17.5,5.40414508 L17.5,17 C17.5,17.5522847 17.0522847,18 16.5,18 L3.5,18 C2.94771525,18 2.5,17.5522847 2.5,17 L2.5,5.40414508 C2.5,4.85186033 2.94771525,4.40414508 3.5,4.40414508 L6.5,4.40414508 L6.5,5.89637306 L3.9516129,5.89637306 L3.9516129,16.507772 L16.0483871,16.507772 L16.0483871,5.89637306 L13.5,5.89637306 Z"/>
</svg>