<svg id="info-circled" viewBox="0 0 20 20">
  <path d="M10,18 C5.58217143,18 2,14.4178286 2,10 C2,5.58125714 5.58217143,2 10,2 C14.4187429,2 18,5.58125714 18,10 C18,14.4178286 14.4187429,18 10,18 Z M10,16.6285714 C13.6608,16.6285714 16.6285714,13.6608 16.6285714,10 C16.6285714,6.3392 13.6608,3.37142857 10,3.37142857 C6.3392,3.37142857 3.37142857,6.3392 3.37142857,10 C3.37142857,13.6608 6.3392,16.6285714 10,16.6285714 Z M10.0008229,7.38395429 C9.52905143,7.38395429 9.17339429,7.01915429 9.17339429,6.53366857 C9.17339429,6.04726857 9.52905143,5.67972571 10.0008229,5.67972571 C10.4725943,5.67972571 10.8273371,6.04726857 10.8273371,6.53366857 C10.8273371,7.01915429 10.4725943,7.38395429 10.0008229,7.38395429 Z M10.0223086,14.3197257 C9.61088,14.3197257 9.27533714,13.9850971 9.27533714,13.5736686 L9.27533714,8.87241143 C9.27533714,8.46098286 9.61088,8.12635429 10.0223086,8.12635429 C10.4337371,8.12635429 10.7683657,8.46098286 10.7683657,8.87241143 L10.7683657,13.5736686 C10.7683657,13.9850971 10.4337371,14.3197257 10.0223086,14.3197257 Z"/>
</svg>