<svg id="italic" viewBox="0 0 20 20">
  <path d="M10,15 L10,15 C10.3751114,15 10.6791992,14.6959122 10.6791992,14.3208008 L10.6791992,8.76660156 C10.6791992,8.39149019 10.3751114,8.08740234 10,8.08740234 L10,8.08740234 C9.62488863,8.08740234 9.32080078,8.39149019 9.32080078,8.76660156 L9.32080078,14.3208008 C9.32080078,14.6959122 9.62488863,15 10,15 Z M10,6.875 C10.5078125,6.875 10.8823242,6.51318359 10.8823242,6.04345703 C10.8823242,5.56738281 10.5078125,5.20556641 10,5.20556641 C9.4921875,5.20556641 9.11767578,5.56738281 9.11767578,6.04345703 C9.11767578,6.51318359 9.4921875,6.875 10,6.875 Z"/>
</svg>