<svg id="jump" viewBox="0 0 20 20">
  <path d="M4.0005,8.7785 L4.0005,4.9995 C4.0005,4.44721525 4.44821525,3.9995 5.0005,3.9995 L10.7535,3.9995 C11.3057847,3.9995 11.7535,4.44721525 11.7535,4.9995 L11.7535,15.2825 L14.4092596,12.7317704 C14.7055423,12.4472052 15.1735723,12.4470858 15.47,12.7315 L15.47,12.7315 C15.75137,13.0014667 15.7606142,13.4484134 15.4906475,13.7297834 C15.4840569,13.7366524 15.4773281,13.7433874 15.4704651,13.7499843 L11.7414224,17.3344438 C11.3543692,17.7064901 10.7426012,17.7065209 10.3555104,17.3345137 L6.62558631,13.7499308 C6.3444641,13.4797629 6.3355839,13.0328539 6.60575182,12.7517317 C6.61236379,12.7448517 6.61911457,12.7381064 6.626,12.7315 L6.626,12.7315 C6.92240772,12.447105 7.39042333,12.447281 7.68661714,12.7318987 L10.2525,15.1975 L10.2525,5.4425 L5.5005,5.4425 L5.5005,8.7785 C5.5005,9.19271356 5.16471356,9.5285 4.7505,9.5285 L4.7505,9.5285 C4.33628644,9.5285 4.0005,9.19271356 4.0005,8.7785 Z"/>
</svg>