<svg id="keyboard" viewBox="0 0 20 20">
  <path d="M16.6666667,4.9 C17.456893,4.9 18.1,5.50291282 18.1,6.25 L18.1,13.75 C18.1,14.4970872 17.456893,15.1 16.6666667,15.1 L3.33333333,15.1 C2.543107,15.1 1.9,14.4970872 1.9,13.75 L1.9,6.25 C1.9,5.50291282 2.543107,4.9 3.33333333,4.9 L16.6666667,4.9 Z M17.0111111,13.75 L17.0111111,6.25 C17.0111111,6.07695698 16.8579126,5.93333333 16.6666667,5.93333333 L3.33333333,5.93333333 C3.14208744,5.93333333 2.98888889,6.07695698 2.98888889,6.25 L2.98888889,13.75 C2.98888889,13.923043 3.14208744,14.0666667 3.33333333,14.0666667 L16.6666667,14.0666667 C16.8579126,14.0666667 17.0111111,13.923043 17.0111111,13.75 Z M6.76666667,10.3125 C6.76666667,10.5418007 6.57125411,10.725 6.33333333,10.725 L5.66666667,10.725 C5.42874589,10.725 5.23333333,10.5418007 5.23333333,10.3125 L5.23333333,9.6875 C5.23333333,9.45819927 5.42874589,9.275 5.66666667,9.275 L6.33333333,9.275 C6.57125411,9.275 6.76666667,9.45819927 6.76666667,9.6875 L6.76666667,10.3125 Z M9.43333333,10.3125 C9.43333333,10.5418007 9.23792078,10.725 9,10.725 L8.33333333,10.725 C8.09541256,10.725 7.9,10.5418007 7.9,10.3125 L7.9,9.6875 C7.9,9.45819927 8.09541256,9.275 8.33333333,9.275 L9,9.275 C9.23792078,9.275 9.43333333,9.45819927 9.43333333,9.6875 L9.43333333,10.3125 Z M12.1,10.3125 C12.1,10.5418007 11.9045874,10.725 11.6666667,10.725 L11,10.725 C10.7620792,10.725 10.5666667,10.5418007 10.5666667,10.3125 L10.5666667,9.6875 C10.5666667,9.45819927 10.7620792,9.275 11,9.275 L11.6666667,9.275 C11.9045874,9.275 12.1,9.45819927 12.1,9.6875 L12.1,10.3125 Z M14.7666667,10.3125 C14.7666667,10.5418007 14.5712541,10.725 14.3333333,10.725 L13.6666667,10.725 C13.4287459,10.725 13.2333333,10.5418007 13.2333333,10.3125 L13.2333333,9.6875 C13.2333333,9.45819927 13.4287459,9.275 13.6666667,9.275 L14.3333333,9.275 C14.5712541,9.275 14.7666667,9.45819927 14.7666667,9.6875 L14.7666667,10.3125 Z M5.43333333,12.3958333 C5.43333333,12.6251341 5.23792078,12.8083333 5,12.8083333 L4.33333333,12.8083333 C4.09541256,12.8083333 3.9,12.6251341 3.9,12.3958333 L3.9,11.7708333 C3.9,11.5415326 4.09541256,11.3583333 4.33333333,11.3583333 L5,11.3583333 C5.23792078,11.3583333 5.43333333,11.5415326 5.43333333,11.7708333 L5.43333333,12.3958333 Z M16.1,12.3958333 C16.1,12.6251341 15.9045874,12.8083333 15.6666667,12.8083333 L15,12.8083333 C14.7620792,12.8083333 14.5666667,12.6251341 14.5666667,12.3958333 L14.5666667,11.7708333 C14.5666667,11.5415326 14.7620792,11.3583333 15,11.3583333 L15.6666667,11.3583333 C15.9045874,11.3583333 16.1,11.5415326 16.1,11.7708333 L16.1,12.3958333 Z M5.43333333,8.22916667 C5.43333333,8.45846739 5.23792078,8.64166667 5,8.64166667 L4.33333333,8.64166667 C4.09541256,8.64166667 3.9,8.45846739 3.9,8.22916667 L3.9,7.60416667 C3.9,7.37486594 4.09541256,7.19166667 4.33333333,7.19166667 L5,7.19166667 C5.23792078,7.19166667 5.43333333,7.37486594 5.43333333,7.60416667 L5.43333333,8.22916667 Z M8.1,8.22916667 C8.1,8.45846739 7.90458744,8.64166667 7.66666667,8.64166667 L7,8.64166667 C6.76207922,8.64166667 6.56666667,8.45846739 6.56666667,8.22916667 L6.56666667,7.60416667 C6.56666667,7.37486594 6.76207922,7.19166667 7,7.19166667 L7.66666667,7.19166667 C7.90458744,7.19166667 8.1,7.37486594 8.1,7.60416667 L8.1,8.22916667 Z M10.7666667,8.22916667 C10.7666667,8.45846739 10.5712541,8.64166667 10.3333333,8.64166667 L9.66666667,8.64166667 C9.42874589,8.64166667 9.23333333,8.45846739 9.23333333,8.22916667 L9.23333333,7.60416667 C9.23333333,7.37486594 9.42874589,7.19166667 9.66666667,7.19166667 L10.3333333,7.19166667 C10.5712541,7.19166667 10.7666667,7.37486594 10.7666667,7.60416667 L10.7666667,8.22916667 Z M13.4333333,8.22916667 C13.4333333,8.45846739 13.2379208,8.64166667 13,8.64166667 L12.3333333,8.64166667 C12.0954126,8.64166667 11.9,8.45846739 11.9,8.22916667 L11.9,7.60416667 C11.9,7.37486594 12.0954126,7.19166667 12.3333333,7.19166667 L13,7.19166667 C13.2379208,7.19166667 13.4333333,7.37486594 13.4333333,7.60416667 L13.4333333,8.22916667 Z M16.1,8.22916667 C16.1,8.45846739 15.9045874,8.64166667 15.6666667,8.64166667 L15,8.64166667 C14.7620792,8.64166667 14.5666667,8.45846739 14.5666667,8.22916667 L14.5666667,7.60416667 C14.5666667,7.37486594 14.7620792,7.19166667 15,7.19166667 L15.6666667,7.19166667 C15.9045874,7.19166667 16.1,7.37486594 16.1,7.60416667 L16.1,8.22916667 Z M13.4333333,12.1875 C13.4333333,12.4168007 13.2379208,12.6 13,12.6 L7,12.6 C6.76207922,12.6 6.56666667,12.4168007 6.56666667,12.1875 L6.56666667,11.9791667 C6.56666667,11.7498659 6.76207922,11.5666667 7,11.5666667 L13,11.5666667 C13.2379208,11.5666667 13.4333333,11.7498659 13.4333333,11.9791667 L13.4333333,12.1875 Z"/>
</svg>