<svg id="linkedin" viewBox="0 0 20 20">
  <path d="M16.8568889,2 L3.13955556,2 C2.51111111,2 2,2.51822222 2,3.15377778 L2,16.8462222 C2,17.4817778 2.51111111,18 3.13955556,18 L16.8568889,18 C17.4853333,18 18,17.4817778 18,16.8462222 L18,3.15377778 C18,2.51822222 17.4853333,2 16.8568889,2 Z M6.83555556,15.7146667 L4.464,15.7146667 L4.464,8.07911111 L6.83911111,8.07911111 L6.83911111,15.7146667 L6.83555556,15.7146667 Z M5.64977778,7.03555556 C4.90955743,7.00893599 4.32322909,6.40114328 4.32322909,5.66044444 C4.32322909,4.91974561 4.90955743,4.3119529 5.64977778,4.28533333 C6.40862206,4.28680065 7.02342157,4.90160016 7.02488889,5.66044444 C7.02488889,6.42133333 6.41155556,7.03555556 5.64977778,7.03555556 Z M15.7253333,15.7146667 L13.3537778,15.7146667 L13.3537778,12 C13.3537778,11.1146667 13.336,9.97511111 12.1217778,9.97511111 C10.8862222,9.97511111 10.696,10.9395556 10.696,11.936 L10.696,15.7137778 L8.32533333,15.7137778 L8.32533333,8.07822222 L10.6,8.07822222 L10.6,9.12177778 L10.632,9.12177778 C10.9502222,8.52177778 11.7253333,7.88888889 12.8782222,7.88888889 C15.2782222,7.88888889 15.7253333,9.47111111 15.7253333,11.5288889 L15.7253333,15.7146667 Z"/>
</svg>