<svg id="list-alt" viewBox="0 0 20 20">
  <path d="M4.51428571,4.35483871 C3.88310314,4.35483871 3.37142857,4.86032367 3.37142857,5.48387097 L3.37142857,14.516129 C3.37142857,15.1396763 3.88310314,15.6451613 4.51428571,15.6451613 L15.4857143,15.6451613 C16.1168969,15.6451613 16.6285714,15.1396763 16.6285714,14.516129 L16.6285714,5.48387097 C16.6285714,4.86032367 16.1168969,4.35483871 15.4857143,4.35483871 L4.51428571,4.35483871 Z M4.51428571,3 L15.4857143,3 C16.8743159,3 18,4.11206691 18,5.48387097 L18,14.516129 C18,15.8879331 16.8743159,17 15.4857143,17 L4.51428571,17 C3.12568406,17 2,15.8879331 2,14.516129 L2,5.48387097 C2,4.11206691 3.12568406,3 4.51428571,3 Z M9.08571429,7.96774194 C8.70700474,7.96774194 8.4,7.66445096 8.4,7.29032258 C8.4,6.9161942 8.70700474,6.61290323 9.08571429,6.61290323 L14.5714286,6.61290323 C14.9501381,6.61290323 15.2571429,6.9161942 15.2571429,7.29032258 C15.2571429,7.66445096 14.9501381,7.96774194 14.5714286,7.96774194 L9.08571429,7.96774194 Z M5.42857143,7.96774194 C5.04986189,7.96774194 4.74285714,7.66445096 4.74285714,7.29032258 C4.74285714,6.9161942 5.04986189,6.61290323 5.42857143,6.61290323 L6.34285714,6.61290323 C6.72156669,6.61290323 7.02857143,6.9161942 7.02857143,7.29032258 C7.02857143,7.66445096 6.72156669,7.96774194 6.34285714,7.96774194 L5.42857143,7.96774194 Z M9.08571429,10.6774194 C8.70700474,10.6774194 8.4,10.3741284 8.4,10 C8.4,9.62587162 8.70700474,9.32258065 9.08571429,9.32258065 L14.5714286,9.32258065 C14.9501381,9.32258065 15.2571429,9.62587162 15.2571429,10 C15.2571429,10.3741284 14.9501381,10.6774194 14.5714286,10.6774194 L9.08571429,10.6774194 Z M5.42857143,10.6774194 C5.04986189,10.6774194 4.74285714,10.3741284 4.74285714,10 C4.74285714,9.62587162 5.04986189,9.32258065 5.42857143,9.32258065 L6.34285714,9.32258065 C6.72156669,9.32258065 7.02857143,9.62587162 7.02857143,10 C7.02857143,10.3741284 6.72156669,10.6774194 6.34285714,10.6774194 L5.42857143,10.6774194 Z M5.42857143,13.3870968 C5.04986189,13.3870968 4.74285714,13.0838058 4.74285714,12.7096774 C4.74285714,12.335549 5.04986189,12.0322581 5.42857143,12.0322581 L6.34285714,12.0322581 C6.72156669,12.0322581 7.02857143,12.335549 7.02857143,12.7096774 C7.02857143,13.0838058 6.72156669,13.3870968 6.34285714,13.3870968 L5.42857143,13.3870968 Z M9.08571429,13.3870968 C8.70700474,13.3870968 8.4,13.0838058 8.4,12.7096774 C8.4,12.335549 8.70700474,12.0322581 9.08571429,12.0322581 L14.5714286,12.0322581 C14.9501381,12.0322581 15.2571429,12.335549 15.2571429,12.7096774 C15.2571429,13.0838058 14.9501381,13.3870968 14.5714286,13.3870968 L9.08571429,13.3870968 Z"/>
</svg>