<svg id="loading" viewBox="0 0 20 20">
  <path d="M10,2.68702533 L10,2.68702533 C10,3.06515396 9.71022961,3.38019545 9.333419,3.41173939 C9.20724273,3.42233281 9.10021136,3.43419215 9.01232745,3.44734802 C5.81995673,3.92523329 3.37142857,6.68414566 3.37142857,10.0159806 C3.37142857,13.3545008 5.82979236,16.117797 9.03155256,16.5874622 C9.11479793,16.5996735 9.21552923,16.6107219 9.33374646,16.6206074 L9.33374367,16.6206408 C9.7103617,16.6521342 10,16.9670034 10,17.3449359 L10,17.3449359 C10,17.7068101 9.70664301,18.0001671 9.34476882,18.0001671 C9.32883938,18.0001671 9.31291523,17.9995862 9.29702812,17.9984256 C9.18973641,17.9906119 9.09725269,17.9819371 9.01957518,17.9724256 C5.06413098,17.4880865 2,14.1109378 2,10.0159806 C2,5.93002254 5.05067833,2.5587214 8.99351071,2.06277065 C9.07782726,2.05216486 9.17917305,2.04254526 9.29754807,2.03391185 L9.29755023,2.03394136 C9.65823854,2.00763539 9.9719594,2.27870584 9.99826537,2.63939416 C9.99942141,2.6552449 10,2.67113248 10,2.68702533 Z"/>
</svg>