<svg id="magnifier" viewBox="0 0 20 20">
  <path d="M17.7660535,17.7660535 L17.7660535,17.7660535 C17.4541249,18.0779822 16.9483886,18.0779822 16.63646,17.7660535 L13.5969106,14.7265041 C12.3756141,15.7020179 10.8272183,16.2852177 9.14260887,16.2852177 C5.19785492,16.2852177 2,13.0873628 2,9.14260887 C2,5.19785492 5.19785492,2 9.14260887,2 C13.0873628,2 16.2852177,5.19785492 16.2852177,9.14260887 C16.2852177,10.8272183 15.7020179,12.3756141 14.7265041,13.5969106 L17.7660535,16.63646 C18.0779822,16.9483886 18.0779822,17.4541249 17.7660535,17.7660535 Z M9.14260887,14.923131 C12.3351031,14.923131 14.923131,12.3351031 14.923131,9.14260887 C14.923131,5.95011463 12.3351031,3.3620867 9.14260887,3.3620867 C5.95011463,3.3620867 3.3620867,5.95011463 3.3620867,9.14260887 C3.3620867,12.3351031 5.95011463,14.923131 9.14260887,14.923131 Z"/>
</svg>