<svg id="mail" viewBox="0 0 20 20">
  <path d="M4.256,4.75775 C3.6904,4.75775 3.2304,5.2281875 3.2304,5.8066875 L3.2304,14.1933125 C3.2304,14.7718125 3.6904,15.2414375 4.256,15.2414375 L15.7432,15.2414375 C16.3088,15.2414375 16.7696,14.7718125 16.7696,14.1933125 L16.7696,5.8066875 C16.7696,5.2281875 16.3088,4.75775 15.7432,4.75775 L4.256,4.75775 Z M15.7432,16.5 L4.256,16.5 C3.0112,16.5 2,15.4656875 2,14.1933125 L2,5.8066875 C2,4.5343125 3.0112,3.5 4.256,3.5 L15.7432,3.5 C16.988,3.5 18,4.5343125 18,5.8066875 L18,14.1933125 C18,15.4656875 16.988,16.5 15.7432,16.5 Z M9.4885457,11.272831 L5.29549282,8.41246282 C5.00871798,8.21683409 4.93110888,7.827753 5.12088,7.53706875 L5.12088,7.53706875 C5.30576018,7.25387626 5.68520805,7.17417839 5.96840054,7.35905857 C5.97185996,7.36131703 5.97529644,7.36361044 5.97870945,7.36593844 L10.05208,10.1443813 L14.1264026,7.36577341 C14.405586,7.17537578 14.7862567,7.24735092 14.9766544,7.52653438 C14.9790325,7.53002151 14.9813745,7.53353316 14.98368,7.53706875 L14.98368,7.53706875 C15.1732579,7.82779753 15.0955662,8.21674938 14.8088477,8.41233965 L10.6156143,11.272831 C10.2757034,11.5047074 9.82845656,11.5047074 9.4885457,11.272831 Z"/>
</svg>