<svg id="map-pin" viewBox="0 0 20 20">
  <path d="M9.961429,5.428571 C11.2028894,5.428571 12.211429,6.437774 12.211429,7.678571 C12.211429,8.919368 11.2028894,9.928571 9.961429,9.928571 C8.71996856,9.928571 7.711429,8.919368 7.711429,7.678571 C7.711429,6.437774 8.71996856,5.428571 9.961429,5.428571 Z M9.961429,8.70144448 C10.5260857,8.70144448 10.9848692,8.24308136 10.9848692,7.678571 C10.9848692,7.11486478 10.5260857,6.65569752 9.961429,6.65569752 C9.39677233,6.65569752 8.93798878,7.11486478 8.93798878,7.678571 C8.93798878,8.24308136 9.39677233,8.70144448 9.961429,8.70144448 Z M10.4445937,17.841934 C10.1868097,18.0526887 9.81319031,18.0526887 9.55540629,17.841934 C9.50701769,17.8023733 9.42233487,17.7304274 9.30650786,17.6277817 C9.1169783,17.459821 8.90671729,17.2646073 8.68087055,17.0437945 C8.03747753,16.4147419 7.39461774,15.7038484 6.7935332,14.9236361 C5.05257997,12.6638657 4,10.2861964 4,7.88161172 C4,4.63244233 6.68714408,2 10,2 C13.3128559,2 16,4.63244233 16,7.88161172 C16,10.2861964 14.94742,12.6638657 13.2064668,14.9236361 C12.6053823,15.7038484 11.9625225,16.4147419 11.3191294,17.0437945 C11.0932827,17.2646073 10.8830217,17.459821 10.6934921,17.6277817 C10.5776651,17.7304274 10.4929823,17.8023733 10.4445937,17.841934 Z M10.3383291,16.0704368 C10.93803,15.4841025 11.5382641,14.8203457 12.0974006,14.0945824 C13.6713645,12.0515653 14.6077348,9.93640165 14.6077348,7.88161172 C14.6077348,5.39155128 12.5456342,3.37142857 10,3.37142857 C7.45436575,3.37142857 5.39226519,5.39155128 5.39226519,7.88161172 C5.39226519,9.93640165 6.3286355,12.0515653 7.90259939,14.0945824 C8.46173585,14.8203457 9.06196998,15.4841025 9.66167088,16.0704368 C9.84893326,16.2535253 10.1510706,16.2535291 10.3383377,16.0704452 Z"/>
</svg>