<svg id="menu" viewBox="0 0 20 20">
  <path d="M8.7,15.25 C8.7,14.5596441 9.25964406,14 9.95,14 C10.6403559,14 11.2,14.5596441 11.2,15.25 C11.2,15.9403559 10.6403559,16.5 9.95,16.5 C9.25964406,16.5 8.7,15.9403559 8.7,15.25 Z M8.7,10.25 C8.7,9.55964406 9.25964406,9 9.95,9 C10.6403559,9 11.2,9.55964406 11.2,10.25 C11.2,10.9403559 10.6403559,11.5 9.95,11.5 C9.25964406,11.5 8.7,10.9403559 8.7,10.25 Z M8.7,5.25 C8.7,4.55964406 9.25964406,4 9.95,4 C10.6403559,4 11.2,4.55964406 11.2,5.25 C11.2,5.94035594 10.6403559,6.5 9.95,6.5 C9.25964406,6.5 8.7,5.94035594 8.7,5.25 Z"/>
</svg>