<svg id="message" viewBox="0 0 20 20">
  <path d="M10.574127,16.136875 L10.4018915,16.136875 C6.32753412,16.136875 3.37035443,13.5559375 3.37035443,10 C3.37035443,6.615625 6.1402398,3.8621875 9.5444788,3.8621875 C12.9487178,3.8621875 15.7186032,6.615625 15.7186032,10 C15.7186032,10.553125 15.4597794,11.10625 15.1858967,11.6903125 C15.0908378,11.8946875 14.99672,12.09625 14.9242494,12.2696875 C14.2127192,13.7940625 15.6122501,14.528125 16.2080155,14.84125 C16.3002509,14.8890625 16.4188392,14.9509375 16.5148393,15.008125 C16.1233095,15.45625 14.8075434,16.1509375 10.574127,16.136875 M16.8480162,13.6365625 C16.0056623,13.193125 16.0461329,13.105 16.1797801,12.81625 C16.2560155,12.6353125 16.3416627,12.4515625 16.428251,12.2659375 C16.7388396,11.605 17.0898988,10.855 17.0898988,10 C17.0898988,5.86375 13.7044833,2.5 9.5444788,2.5 C5.38447427,2.5 2,5.86375 2,10 C2,14.3453125 5.53412149,17.4990625 10.4018915,17.4990625 L10.5675387,17.5 L10.7614213,17.5 C13.4503654,17.5 17.0033104,17.26 17.881429,15.4028125 C18.3454296,14.4221875 17.3346049,13.8915625 16.8480162,13.6365625"/>
</svg>