<svg id="mic" viewBox="0 0 20 20">
  <path d="M10,3.5 C8.8954305,3.5 8,4.3954305 8,5.5 L8,8.5 C8,9.6045695 8.8954305,10.5 10,10.5 C11.1045695,10.5 12,9.6045695 12,8.5 L12,5.5 C12,4.3954305 11.1045695,3.5 10,3.5 Z M13,17.5 L13,17.5 C13,17.7761424 12.7761424,18 12.5,18 L7.5,18 C7.22385763,18 7,17.7761424 7,17.5 L7,17.5 C7,17.2238576 7.22385763,17 7.5,17 L9.25,17 L9.25,14.716139 C6.28686875,14.4396124 4.6068039,12.4749969 4.30015364,9.02848274 C4.29372099,8.95618468 4.28758275,8.87041985 4.28173892,8.77118824 L4.28175695,8.77118718 C4.25810647,8.3695884 4.5644941,8.02485576 4.96609288,8.00120528 C4.97738436,8.00054032 4.9886898,8.00013845 5,8 L5,8 C5.41277955,7.99494719 5.75675134,8.31499417 5.78141823,8.72706702 C5.78840657,8.84343937 5.79579487,8.94198439 5.80360528,9.02270073 C6.08417964,11.9222855 7.44731661,13.25 10,13.25 C12.5473822,13.25 13.9101536,11.9277943 14.1946327,9.04074514 C14.2030058,8.95577013 14.2109047,8.85128998 14.2183292,8.72730468 L14.2183104,8.72730356 C14.2429945,8.31509415 14.5870831,7.99494551 15,8 L15,8 C15.402301,8.00492454 15.7244382,8.33504606 15.7195137,8.73734705 C15.7193751,8.74867236 15.7189723,8.75999289 15.7183058,8.77129942 C15.7126924,8.86709227 15.7067695,8.95009551 15.7005706,9.02031109 C15.39585,12.4718915 13.7154723,14.4393939 10.75,14.716139 L10.75,17 L12.5,17 C12.7761424,17 13,17.2238576 13,17.5 Z M10,2 C11.9329966,2 13.5,3.56700338 13.5,5.5 L13.5,8.5 C13.5,10.4329966 11.9329966,12 10,12 C8.06700338,12 6.5,10.4329966 6.5,8.5 L6.5,5.5 C6.5,3.56700338 8.06700338,2 10,2 Z"/>
</svg>