<svg id="mobile" viewBox="0 0 20 20">
  <path d="M11.1165049,14.9079755 C11.1165049,15.5322382 10.6174444,16.0368098 10,16.0368098 C9.38255562,16.0368098 8.88349515,15.5322382 8.88349515,14.9079755 C8.88349515,14.2837127 9.38255562,13.7791411 10,13.7791411 C10.6174444,13.7791411 11.1165049,14.2837127 11.1165049,14.9079755 Z M15,3.6196319 L15,16.3803681 C15,17.2745695 14.2824929,18 13.3980583,18 L6.60194175,18 C5.71750708,18 5,17.2745695 5,16.3803681 L5,3.6196319 C5,2.72543047 5.71750708,2 6.60194175,2 L13.3980583,2 C14.2824929,2 15,2.72543047 15,3.6196319 Z M13.7378641,3.6196319 C13.7378641,3.43101125 13.5846187,3.27607362 13.3980583,3.27607362 L6.60194175,3.27607362 C6.41538127,3.27607362 6.26213592,3.43101125 6.26213592,3.6196319 L6.26213592,16.3803681 C6.26213592,16.5689887 6.41538127,16.7239264 6.60194175,16.7239264 L13.3980583,16.7239264 C13.5846187,16.7239264 13.7378641,16.5689887 13.7378641,16.3803681 L13.7378641,3.6196319 Z"/>
</svg>