<svg id="multiline" viewBox="0 0 20 20">
  <path d="M11.472,5.75 L11.472,5.75 C11.472,6.16421356 11.8077864,6.5 12.222,6.5 L15.558,6.5 L15.558,11.252 L5.803,11.252 L8.26860127,8.68611714 C8.55321902,8.38992333 8.55339497,7.92190772 8.269,7.6255 L8.269,7.6255 C7.99906056,7.3441584 7.55215897,7.33491512 7.27081737,7.60485457 C7.26393194,7.61146095 7.25718116,7.61820625 7.25056918,7.62508631 L3.66598633,11.3550104 C3.29397907,11.7421012 3.29400993,12.3538692 3.66605623,12.7409224 L7.25051571,16.4699651 C7.52073927,16.7510884 7.96769424,16.7599244 8.24881757,16.4897009 C8.25568054,16.483104 8.26240939,16.476369 8.269,16.4695 L8.269,16.4695 C8.55341416,16.1730723 8.55329484,15.7050423 8.26872957,15.4087596 L5.718,12.753 L16.001,12.753 C16.5532847,12.753 17.001,12.3052847 17.001,11.753 L17.001,6 C17.001,5.44771525 16.5532847,5 16.001,5 L12.222,5 C11.8077864,5 11.472,5.33578644 11.472,5.75 Z"/>
</svg>