<svg id="omnichannel" viewBox="0 0 20 20">
  <path d="M16.628,10.954 C16.628,11.33 16.32,11.637 15.942,11.637 C15.565,11.637 15.257,11.33 15.257,10.954 L15.257,9.137 C15.257,8.761 15.565,8.454 15.942,8.454 C16.32,8.454 16.628,8.761 16.628,9.137 L16.628,10.954 Z M10.228,16.637 L9.771,16.637 C9.393,16.637 9.086,16.33 9.086,15.954 C9.086,15.578 9.393,15.272 9.771,15.272 L10.228,15.272 C10.607,15.272 10.914,15.578 10.914,15.954 C10.914,16.33 10.607,16.637 10.228,16.637 Z M4.057,11.637 C3.679,11.637 3.371,11.33 3.371,10.954 L3.371,9.137 C3.371,8.761 3.679,8.454 4.057,8.454 C4.435,8.454 4.742,8.761 4.742,9.137 L4.742,10.954 C4.742,11.33 4.435,11.637 4.057,11.637 Z M15.942,7.091 C15.662,7.091 15.396,7.147 15.152,7.249 C14.667,4.828 12.542,3 10,3 C7.458,3 5.333,4.828 4.847,7.249 C4.604,7.147 4.337,7.091 4.057,7.091 C2.922,7.091 2,8.009 2,9.137 L2,10.954 C2,12.082 2.922,13 4.057,13 C5.151,13 6.04,12.144 6.102,11.071 L6.114,11.071 L6.114,10.954 L6.114,9.137 L6.114,8.301 C6.114,6.13 7.857,4.363 10,4.363 C12.142,4.363 13.885,6.13 13.885,8.301 L13.885,9.137 L13.885,10.954 L13.885,11.995 C13.885,13.345 13.218,14.55 12.156,15.265 C11.87,14.476 11.118,13.909 10.228,13.909 L9.771,13.909 C8.637,13.909 7.714,14.826 7.714,15.954 C7.714,17.082 8.637,18 9.771,18 L10.228,18 C11.029,18 11.717,17.538 12.057,16.872 C13.729,16.159 14.902,14.645 15.189,12.853 C15.423,12.945 15.676,13 15.942,13 C17.077,13 18,12.082 18,10.954 L18,9.137 C18,8.009 17.077,7.091 15.942,7.091 Z"/>
</svg>
