<svg id="permalink" viewBox="0 0 20 20">
  <path d="M10.5615959,13.5369661 C10.8614377,13.8374425 10.8642543,14.3226796 10.5667497,14.6286503 L8.2685409,16.9268589 C6.83317877,18.3588624 4.50959891,18.358811 3.07396303,16.9265337 C1.64197242,15.4911845 1.64199806,13.1676046 3.07412553,11.7321184 L6.3626967,8.44354747 C7.79863297,7.01168291 10.1217674,7.01250144 11.5618962,8.44873652 C11.8468297,8.75455932 11.8385338,9.23106215 11.5431274,9.52678116 C11.2472876,9.822934 10.7707684,9.83088531 10.4601369,9.54190764 C9.63066742,8.7145592 8.28806314,8.71453851 7.45871412,9.54176665 L4.16967211,12.8290741 C3.34245707,13.6582293 3.34240935,15.0005376 4.16934691,15.8294155 C4.99851217,16.6566405 6.34082045,16.6566682 7.1698246,15.8296041 L9.46873792,13.5298236 L9.47196244,13.5276684 C9.77670104,13.2324779 10.2619266,13.2366626 10.5615959,13.5369661 Z M16.9259063,8.26862645 L13.6363953,11.5572701 C12.2008541,12.9887407 9.87772165,12.9887096 8.44201443,11.5570732 C8.24603309,11.3610918 8.16949366,11.0754428 8.24122781,10.8077273 C8.31296195,10.5400118 8.52207155,10.3309022 8.78978704,10.2591681 C9.05747794,10.1874405 9.34313357,10.2639554 9.53890328,10.4597255 C10.3685766,11.2866611 11.7108665,11.286692 12.5403595,10.4599364 L15.8294199,7.17174346 C16.6566349,6.34258823 16.6566826,5.00027994 15.8297451,4.1714021 C15.0005779,3.34417513 13.6582696,3.34415128 12.8292412,4.17123959 L10.5304013,6.47007948 C10.3344462,6.66624196 10.0487247,6.74296275 9.78086551,6.67134189 C9.51300628,6.59972102 9.30370342,6.39063941 9.2317993,6.12285608 C9.1598923,5.85506205 9.23632156,5.56926251 9.43236841,5.37300829 L11.7322854,3.07395864 C13.1676218,1.64198086 15.4912017,1.64198086 16.9267356,3.07415623 C18.3580432,4.51021576 18.3577428,6.83343179 16.9259063,8.26862645 Z"/>
</svg>