<svg id="pin" viewBox="0 0 20 20">
  <path d="M9.42996785,12.4576456 L5.03820001,8.06485857 L4.39915651,8.70390207 C4.25850578,8.84455279 4.0719907,8.92201261 3.87324511,8.92201261 C3.87324511,8.92201261 3.87324511,8.92201261 3.87324511,8.92201261 L3.87324511,8.92201261 C3.66536587,8.92201261 3.49356029,8.75988807 3.48151707,8.55235798 C3.48107838,8.54448527 3.48084998,8.53690545 3.48084998,8.52961748 C3.48084998,8.3318911 3.5583098,8.14843364 3.69386448,8.01084054 L8.01123013,3.6944941 C8.01123013,3.6944941 8.01123013,3.6944941 8.01123013,3.6944941 L8.01123013,3.6944941 C8.20290792,3.50281631 8.51367902,3.50281631 8.70535681,3.6944941 C8.8381036,3.82724089 8.88350188,4.02407983 8.82230421,4.20155733 C8.79466754,4.2817736 8.75532304,4.34750772 8.70429166,4.39876692 L8.06524816,5.03781042 L12.079909,9.05349046 L12.4559968,9.42040539 L12.9289094,9.19516039 C12.9851657,9.1686868 13.9802154,8.7124366 15.2534176,9.2114661 C15.3954837,9.26714868 15.5951631,9.37268051 15.852456,9.52806158 L15.8524016,9.52815155 C15.9941809,9.61377314 16.0397057,9.79811799 15.9540842,9.9398973 C15.9415573,9.96064036 15.9265625,9.97978868 15.9094277,9.99692341 L9.99822269,15.9082807 C9.88102335,16.0254801 9.69100569,16.0254801 9.57380635,15.9082807 C9.55648297,15.8909573 9.541346,15.8715779 9.52873335,15.850575 C9.36528629,15.5783991 9.25525114,15.3678629 9.19862793,15.2189665 C8.72086328,13.9626361 9.16871596,12.9864865 9.19249235,12.9356542 L9.42996785,12.4576456 Z M17.7833977,9.1706994 C15.7714808,7.15674413 13.730007,7.4033925 12.7943739,7.67348265 L10.1057028,4.9848116 C10.5154245,4.27340432 10.5001364,3.38465483 10.0618769,2.68853568 L9.71534612,2.34200491 C8.85513446,1.79978619 7.7075061,1.90272621 6.96246496,2.64776735 L2.64713773,6.96411379 C1.90209658,7.70915494 1.80017577,8.85882171 2.3423945,9.71495654 L2.68790605,10.0614873 C3.38606362,10.500766 4.27583232,10.5150349 4.98418197,10.1063325 L7.67387224,12.7960227 C7.40378208,13.7296174 7.15713371,15.7700721 9.17108898,17.7840273 L9.17108898,17.7840273 C9.45957211,18.0730728 9.92775155,18.0735287 10.216797,17.7850455 C10.2169669,17.784876 10.2171367,17.7847064 10.2173064,17.7845367 L13.4772433,14.5245997 L16.4454322,17.4927885 C16.7346597,17.7820161 17.2035551,17.7821302 17.4929234,17.4930434 L17.4929234,17.4930434 C17.7821097,17.2041384 17.7823377,16.7355028 17.4934327,16.4463165 C17.4933479,16.4462316 17.493263,16.4461467 17.4931781,16.4460618 L14.5239701,13.4768538 L17.7834681,10.2164774 C18.0722048,9.92766292 18.0721733,9.45947495 17.7833977,9.1706994 Z"/>
</svg>