<svg id="plus" viewBox="0 0 20 20">
  <path d="M9.2173913,3.78208696 L9.2173913,9.2173913 L3.7826087,9.2173913 C3.35038585,9.2173913 3,9.56777715 3,10 L3,10 C3,10.4322228 3.35038585,10.7826087 3.7826087,10.7826087 L9.2173913,10.7826087 L9.2173913,16.217913 C9.2173913,16.6498477 9.56754356,17 9.99947826,17 L9.99947826,17 C10.431413,17 10.7815652,16.6498477 10.7815652,16.217913 L10.7815652,10.7826087 L16.2173913,10.7826087 C16.6496142,10.7826087 17,10.4322228 17,10 L17,10 C17,9.56777715 16.6496142,9.2173913 16.2173913,9.2173913 L10.7815652,9.2173913 L10.7815652,3.78208696 C10.7815652,3.35015226 10.431413,3 9.99947826,3 L9.99947826,3 C9.56754356,3 9.2173913,3.35015226 9.2173913,3.78208696 Z"/>
</svg>