<svg id="queue" viewBox="0 0 20 20">
  <path d="M9.62955558,11.9862245 L2.37300768,7.78176062 C2.15091945,7.65409073 2.01311169,7.416206 2.0106214,7.15786528 C2.00813143,6.89955757 2.14129163,6.65901818 2.36020049,6.52732611 L9.6535239,2.10313876 C9.87914543,1.96609151 10.1606874,1.96561287 10.3865318,2.10175758 L17.6418048,6.46183753 C17.861068,6.59346187 17.9945254,6.83317285 17.993034,7.09104148 C17.9915424,7.34892982 17.8553001,7.58705548 17.6346396,7.71596732 L10.3422509,11.984796 C10.2333967,12.0486462 10.1098064,12.0822207 9.98397475,12.0820542 C9.85906302,12.0820281 9.73667568,12.0493634 9.62955558,11.9862245 Z M4.14583207,7.13619158 L9.98274047,10.5187139 L15.8592137,7.07849418 L10.0226701,3.57160306 L4.14583207,7.13619158 Z M9.62953985,14.9474539 L2.37682919,10.7442362 C2.14790798,10.6193893 2.00403308,10.3787052 2.0000834,10.1157081 C1.99613452,9.85276374 2.13265787,9.6077987 2.35762507,9.47591487 C2.58390925,9.34325898 2.86347428,9.3462907 3.08245307,9.48114182 L9.98273406,13.4790575 L16.9169172,9.41994593 C17.1397182,9.28474408 17.417234,9.28254993 17.64209,9.41422856 C17.8656422,9.5451437 18.0020715,9.78779035 17.9999762,10.0490342 C17.9978807,10.310306 17.8575468,10.5506963 17.6346396,10.6763028 L10.3424068,14.9450399 C10.2335213,15.0090441 10.109818,15.0426576 9.98388346,15.0423896 C9.85986509,15.0423479 9.73795483,15.0101211 9.62953985,14.9474539 Z M9.62953985,17.9050801 L2.37682919,13.7018624 C2.14790798,13.5770154 2.00403308,13.3363314 2.0000834,13.0733343 C1.99613452,12.8103899 2.13265787,12.5654249 2.35762507,12.433541 C2.58390925,12.3008851 2.86347428,12.3039169 3.08245307,12.438768 L9.98273408,16.4366837 L16.9223366,12.3744016 C17.2654963,12.1809876 17.6975079,12.3041991 17.8915718,12.6493519 C18.0843814,12.992274 17.9719233,13.4292844 17.6346396,13.6339289 L10.3424068,17.9026661 C10.2335213,17.9666703 10.109818,18.0002838 9.98388346,18.0000158 C9.85986509,17.9999741 9.73795483,17.9677473 9.62953985,17.9050801 Z"/>
</svg>