<svg id="reload" viewBox="0 0 20 20">
  <path d="M13.1042798,11.7097994 L17,11.7097994 C17.5522847,11.7097994 18,12.1575147 18,12.7097994 L18,16.571693 C18,16.9503809 17.6930128,17.2573682 17.3143249,17.2573682 L17.3143249,17.2573682 C16.935637,17.2573682 16.6286498,16.9503809 16.6286498,16.571693 L16.6286498,14.597863 C16.3534655,14.985498 16.0563396,15.3585052 15.7144163,15.6922004 C14.1995315,17.1796583 12.1900463,17.9988115 10.0562254,17.9988115 C5.86629335,17.9988115 2.4178047,14.8785327 2.03474087,10.740712 C2.0338126,10.7303075 2.0328966,10.7195681 2.03199287,10.7084936 L2.03196661,10.7084957 C2.00250464,10.3474625 2.27129625,10.0309036 2.63232948,10.0014416 C2.65007449,9.99999355 2.66787111,9.99926861 2.6856751,9.99926861 L2.72610572,9.99924635 C3.07649085,9.99924635 3.36902567,10.2665029 3.40060568,10.615462 C3.40060568,10.615462 3.40060568,10.615462 3.40060568,10.615462 C3.71784469,14.042009 6.57939546,16.6274613 10.0562254,16.6274613 C11.8280098,16.6274613 13.4974001,15.9481858 14.7553854,14.7130564 C15.1640478,14.3126221 15.5196846,13.8609908 15.8122393,13.3700474 C15.8670933,13.2777098 15.9054911,13.1762299 15.9566882,13.0811496 L13.1042798,13.0811496 C12.7255919,13.0811496 12.4186047,12.7741624 12.4186047,12.3954745 L12.4186047,12.3954745 C12.4186047,12.0167866 12.7255919,11.7097994 13.1042798,11.7097994 Z M7.58230958,7.60333695 L7.58230958,7.60333695 C7.58230958,7.98202486 7.27532238,8.28901206 6.89663448,8.28901206 L3.00091423,8.28901206 C2.44862948,8.28901206 2.00091423,7.84129681 2.00091423,7.28901206 L2.00091423,3.42711845 C2.00091423,3.04843055 2.30790143,2.74144335 2.68658934,2.74144335 L2.68658934,2.74144335 C3.06527724,2.74144335 3.37226444,3.04843055 3.37226444,3.42711845 L3.37226444,5.40094852 C3.64836295,5.01331352 3.94548883,4.64030627 4.28558368,4.30752528 C5.80138278,2.82006742 7.81178218,2 9.94377464,2 C14.1346209,2 17.5831095,5.12027884 17.9661734,9.25901377 C17.9670069,9.26791637 17.9678287,9.27707069 17.9686385,9.28647674 L17.9686336,9.28647716 C17.9997472,9.6478419 17.7320258,9.96600846 17.3706611,9.99712208 C17.3519257,9.9987352 17.3331296,9.99954288 17.3143249,9.99954288 L17.2758135,9.99953746 C16.9259272,9.99953746 16.6334066,9.73349523 16.6003086,9.38517799 C16.6003086,9.38517799 16.6003086,9.38517799 16.6003086,9.38517799 C16.2839838,5.95680247 13.4215188,3.37135021 9.94377464,3.37135021 C8.17290441,3.37135021 6.50442832,4.05153991 5.24552883,5.28666933 C4.8377807,5.68618936 4.48214388,6.1378207 4.18867493,6.6296783 C4.13382092,6.72201588 4.09450889,6.82258157 4.04422604,6.91766185 L6.89663448,6.91766185 C7.27532238,6.91766185 7.58230958,7.22464905 7.58230958,7.60333695 Z"/>
</svg>