<svg id="send" viewBox="0 0 20 20">
  <path d="M10.0179189,15.2320901 L8.76791893,10.6920901 L14.9699189,5.59409012 L10.0179189,15.2320901 Z M3.72691893,7.34509012 L14.0429189,4.43309012 L7.83991893,9.53109012 L3.72691893,7.34509012 Z M17.8359189,2.27609012 C17.6519189,2.04509012 17.3459189,1.94809012 17.0669189,2.02709012 L1.53891893,6.41209012 C1.24791893,6.49409012 1.03591893,6.74909012 1.00391893,7.05309012 C0.972918926,7.35809012 1.12791893,7.65209012 1.39491893,7.79409012 L7.30491893,10.9340901 L9.10091893,17.4540901 C9.18191893,17.7490901 9.43291893,17.9640901 9.73391893,17.9960901 C9.75891893,17.9990901 9.78591893,18.0000901 9.80991893,18.0000901 C10.0819189,18.0000901 10.3349189,17.8470901 10.4629189,17.5980901 L17.9169189,3.09309012 C18.0519189,2.82909012 18.0209189,2.50809012 17.8359189,2.27609012 Z"/>
</svg>