<svg id="shield-alt" viewBox="0 0 20 20">
  <path d="M16.5634606,4.43985056 C17.2203536,4.71330239 17.65,5.35910027 17.65,6.07323887 C17.65,11.6074651 14.7408211,16.3197059 10.6777136,18.0145133 C10.2432,18.1951858 9.75368361,18.1951639 9.31885591,18.0143605 C5.24652225,16.3146728 2.35,11.4967576 2.35,6.07323887 C2.35,5.35806806 2.78065408,4.71262465 3.43960311,4.43985055 L9.32238332,1.98544685 C9.75721162,1.80482366 10.2459134,1.8048491 10.6811077,1.98562473 L16.5634606,4.43985056 Z M10.0771359,16.560036 C13.4472864,15.2212106 16.0750853,10.7589742 16.0724265,6.07323887 C16.0724265,5.9925855 16.0269548,5.92362138 15.9549216,5.89356782 L10.0706297,3.43852492 C10.0256153,3.41936846 9.97139556,3.41951627 9.92436743,3.43934205 L4.04365897,5.89287596 C3.97148842,5.92349719 3.9245098,5.99445698 3.9245098,6.07323887 C3.9245098,10.7602943 6.55399678,15.2218703 9.9235012,16.5590516 C9.97468601,16.5795526 10.0294474,16.5796264 10.0771359,16.560036 Z M7.11413172,7.54798178 C7.30712861,9.10959366 8.01718272,10.699291 9.25,12.3177854 L9.25,6.7370206 L7.11413172,7.54798178 Z M9.45661392,14.8609244 C6.99512655,12.2735323 5.69425768,9.68019131 5.5698334,7.08354827 C5.55429297,6.75923101 5.74920654,6.46174325 6.05275238,6.34649088 L9.73377853,4.94885352 C10.2245557,4.76251188 10.75,5.1250518 10.75,5.65001408 L10.75,14.3439799 C10.75,15.0212122 9.92340254,15.3515891 9.45661392,14.8609244 Z"/>
</svg>