<svg id="sign-out" viewBox="0 0 20 20">
  <path d="M12.6111967,18.0001067 L3.00125156,18.0001067 C2.44827559,18.0001067 2,17.5523914 2,17.0001067 L2,3.00010667 C2,2.44782192 2.44827559,2.00010667 3.00125156,2.00010667 L12.4385671,2.00010667 L12.9405155,1.99997633 C13.4928002,1.99993711 13.9405473,2.44762057 13.9405865,2.99990531 C13.9405865,2.99993688 13.9405865,2.99996844 13.9405865,3 L13.9404444,5 L12.4385671,5 L12.4385671,3.65527908 L3.67651425,3.65527908 L3.67651425,16.3449343 L12.4385671,16.3449343 L12.4385671,15 L13.9404444,15 L13.9405965,17.0001067 C13.9406096,17.5523914 13.4929049,18.0001173 12.9406202,18.0001303 C12.9405853,18.0001303 12.9405504,18.0001303 12.9405155,18.0001303 L12.6246372,18 C12.6201655,18.000071 12.6156853,18.0001067 12.6111967,18.0001067 Z M13.6346454,7.68763891 C13.6324021,7.68551041 13.6301715,7.68336955 13.6279538,7.68121644 C13.3080819,7.37066137 13.3109114,6.86986958 13.6342737,6.56266667 C13.9624396,6.25090026 14.4907264,6.25081211 14.8190051,6.56246899 L17.6907645,9.28882239 C17.6936149,9.29152839 17.6964489,9.29425019 17.6992665,9.29698762 C18.1035414,9.68976017 18.099735,10.3229146 17.6907645,10.7111776 L14.8190051,13.437531 C14.4907264,13.7491879 13.9624396,13.7490997 13.6342737,13.4373333 C13.6320318,13.4352035 13.6298027,13.4330612 13.6275864,13.4309068 C13.3079197,13.1201568 13.3110801,12.6193669 13.6346454,12.3123611 L15.2285812,10.8 L7.81922473,10.8 C7.35917599,10.8 6.9862328,10.4418278 6.9862328,10 C6.9862328,9.5581722 7.35917599,9.2 7.81922473,9.2 L15.2285812,9.2 L13.6346454,7.68763891 Z"/>
</svg>