<svg id="sort-amount-down" viewBox="0 0 20 20">
  <path d="M2.61538462,6.32 C2.27551708,6.32 2,6.02450793 2,5.66 C2,5.29549207 2.27551708,5 2.61538462,5 L11.6410256,5 C11.9808932,5 12.2564103,5.29549207 12.2564103,5.66 C12.2564103,6.02450793 11.9808932,6.32 11.6410256,6.32 L2.61538462,6.32 Z M2.61538462,10.32 C2.27551708,10.32 2,10.0245079 2,9.66 C2,9.29549207 2.27551708,9 2.61538462,9 L10,9 C10.3398675,9 10.6153846,9.29549207 10.6153846,9.66 C10.6153846,10.0245079 10.3398675,10.32 10,10.32 L2.61538462,10.32 Z M2.61538462,14.32 C2.27551708,14.32 2,14.0245079 2,13.66 C2,13.2954921 2.27551708,13 2.61538462,13 L8.35897436,13 C8.6988419,13 8.97435897,13.2954921 8.97435897,13.66 C8.97435897,14.0245079 8.6988419,14.32 8.35897436,14.32 L2.61538462,14.32 Z M16.7982438,13.4418535 C17.0731164,13.1634365 17.5161519,13.1634365 17.7910245,13.4418535 C18.0696585,13.7240806 18.0696585,14.1847364 17.7910245,14.4669634 L15.4963903,16.7911872 C15.2215178,17.0696043 14.7784822,17.0696043 14.5036097,16.7911872 L12.2089755,14.4669634 C11.9303415,14.1847364 11.9303415,13.7240806 12.2089755,13.4418535 C12.4838481,13.1634365 12.9268836,13.1634365 13.2017562,13.4418535 L14.2946341,14.5488243 L14.2946341,3.72136775 C14.2946341,3.32133923 14.6118824,3 15,3 C15.3881176,3 15.7053659,3.32133923 15.7053659,3.72136775 L15.7053659,14.5488243 L16.7982438,13.4418535 Z"/>
</svg>