<svg id="star-filled" viewBox="0 0 20 20">
  <path d="M5.32095293,16.3740404 L6,12.2111456 L3.08726218,9.2258155 C2.77871132,8.90957482 2.78494515,8.4030812 3.10118583,8.09453033 C3.22076978,7.97785422 3.37388242,7.90154562 3.5390396,7.87631185 L7.52786405,7.26687371 L9.27580674,3.54289024 C9.46353816,3.14292935 9.93995692,2.97088337 10.3399178,3.1586148 C10.5089253,3.2379426 10.6448655,3.37388274 10.7241933,3.54289024 L12.472136,7.26687371 L16.4609604,7.87631185 C16.8977198,7.94304275 17.1976872,8.35120231 17.1309563,8.78796173 C17.1057225,8.95311891 17.0294139,9.10623155 16.9127378,9.2258155 L14,12.2111456 L14.6790471,16.3740404 C14.7501775,16.8101049 14.4543399,17.2212677 14.0182754,17.2923981 C13.8411715,17.3212871 13.6594976,17.2897942 13.5024505,17.2029807 L10,15.2668737 L6.49754953,17.2029807 C6.11086883,17.4167325 5.6241221,17.276546 5.41037027,16.8898653 C5.32355678,16.7328182 5.29206392,16.5511443 5.32095293,16.3740404 Z"/>
</svg>