<svg id="star" viewBox="0 0 20 20">
  <path d="M10,13.7208075 L12.6750343,15.1995301 C12.8200395,15.279687 13.0025696,15.2271171 13.0827265,15.0821118 C13.1152816,15.0232191 13.1270914,14.9550914 13.116258,14.8886775 L12.60157,11.7333849 L14.7954166,9.4848624 C14.9111232,9.36627215 14.9087855,9.17633704 14.7901952,9.06063046 C14.7453513,9.01687692 14.687934,8.9882612 14.6260001,8.97879853 L11.6078587,8.51766756 L10.2715725,5.67071629 C10.2011732,5.52073095 10.0225162,5.45621371 9.87253082,5.526613 C9.80915301,5.55636092 9.75817545,5.60733848 9.72842753,5.67071629 L8.39214134,8.51766756 L5.37399993,8.97879853 C5.21021514,9.00382262 5.09772737,9.15688245 5.12275146,9.32066724 C5.13221413,9.38260118 5.16082985,9.44001842 5.20458339,9.4848624 L7.39843004,11.7333849 L6.88374199,14.8886775 C6.85706809,15.0522017 6.96800718,15.2063877 7.13153138,15.2330616 C7.19794535,15.2438949 7.26607306,15.2320851 7.32496572,15.1995301 L10,13.7208075 Z M5.32095293,16.3740404 L6,12.2111456 L3.08726218,9.2258155 C2.77871132,8.90957482 2.78494515,8.4030812 3.10118583,8.09453033 C3.22076978,7.97785422 3.37388242,7.90154562 3.5390396,7.87631185 L7.52786405,7.26687371 L9.27580674,3.54289024 C9.46353816,3.14292935 9.93995692,2.97088337 10.3399178,3.1586148 C10.5089253,3.2379426 10.6448655,3.37388274 10.7241933,3.54289024 L12.472136,7.26687371 L16.4609604,7.87631185 C16.8977198,7.94304275 17.1976872,8.35120231 17.1309563,8.78796173 C17.1057225,8.95311891 17.0294139,9.10623155 16.9127378,9.2258155 L14,12.2111456 L14.6790471,16.3740404 C14.7501775,16.8101049 14.4543399,17.2212677 14.0182754,17.2923981 C13.8411715,17.3212871 13.6594976,17.2897942 13.5024505,17.2029807 L10,15.2668737 L6.49754953,17.2029807 C6.11086883,17.4167325 5.6241221,17.276546 5.41037027,16.8898653 C5.32355678,16.7328182 5.29206392,16.5511443 5.32095293,16.3740404 Z"/>
</svg>