<svg id='team-lock' viewBox="0 0 32 32" xmlns="http://www.w3.org/2000/svg">
    <path d="M19.75 8C19.1977 8 18.75 8.44772 18.75 9V15C18.75 15.5523 19.1977 16 19.75 16H27.75C28.3023 16 28.75 15.5523 28.75 15V9C28.75 8.44772 28.3023 8 27.75 8H27V6.25C27 4.45507 25.5449 3 23.75 3C21.9551 3 20.5 4.45508 20.5 6.25V8H19.75ZM23.75 5C24.4404 5 25 5.55964 25 6.25V7.97619H22.5V6.25C22.5 5.55964 23.0596 5 23.75 5Z" />
    <path d="M16.5 7C16.8155 7 17.1212 7.04174 17.412 7.12001C16.9979 7.63437 16.75 8.28824 16.75 9V9.02074C16.6687 9.0071 16.5852 9 16.5 9C15.6716 9 15 9.67157 15 10.5C15 11.3284 15.6716 12 16.5 12C16.5852 12 16.6687 11.9929 16.75 11.9793V13.9912C16.6674 13.997 16.5841 14 16.5 14C14.567 14 13 12.433 13 10.5C13 8.567 14.567 7 16.5 7Z" />
    <path d="M15.4044 15.6338C15.8695 15.8122 16.3696 15.8614 16.8531 15.7825C17.0462 16.4993 17.4982 17.1098 18.1027 17.5077C17.0051 17.9239 15.7896 17.9236 14.6883 17.5012L14.2183 17.3209C13.817 17.167 13.3713 17.1775 12.9777 17.35C12.3837 17.6104 12 18.1975 12 18.846V23C12 23.5523 12.4477 24 13 24H20C20.5523 24 21 23.5523 21 23V19.0918C21 18.6905 20.8712 18.3107 20.646 18H22.8426C22.9455 18.3488 23 18.7157 23 19.0918V23C23 24.6569 21.6569 26 20 26H13C11.3431 26 10 24.6569 10 23V18.846C10 17.4034 10.8535 16.0974 12.1748 15.5182C13.0503 15.1345 14.0419 15.1112 14.9344 15.4536L15.4044 15.6338Z" />
    <path d="M27.75 18H27.2723V18.8052C27.2723 19.3575 26.8246 19.8052 26.2723 19.8052H24V21.8052H26.2723C27.9291 21.8052 29.2723 20.4621 29.2723 18.8052V17.5856C28.826 17.8489 28.3057 18 27.75 18Z" />
    <path d="M8.78699 13C7.13013 13 5.78699 11.6569 5.78699 10C5.78699 8.34315 7.13013 7 8.78699 7C10.4438 7 11.787 8.34315 11.787 10C11.787 11.6569 10.4438 13 8.78699 13ZM8.78699 11C9.33927 11 9.78699 10.5523 9.78699 10C9.78699 9.44772 9.33927 9 8.78699 9C8.2347 9 7.78699 9.44772 7.78699 10C7.78699 10.5523 8.2347 11 8.78699 11Z" />
    <path d="M19.5396 20H19.5147C19.5228 20.0187 19.5311 20.0373 19.5396 20.0558V20Z" />
    <path d="M11.1748 14.5182C11.2538 14.4836 11.3338 14.4519 11.4146 14.4231C10.855 14.262 10.2579 14.2721 9.70134 14.4549L9.25812 14.6005C8.79289 14.7534 8.28943 14.7428 7.83098 14.5707L7.68867 14.5173C7.03032 14.2701 6.30734 14.255 5.63926 14.4745C4.3716 14.8909 3.51471 16.0744 3.51471 17.4087V18.8052C3.51471 20.4621 4.85786 21.8052 6.51471 21.8052H9.00002V19.8052H6.51471C5.96242 19.8052 5.51471 19.3575 5.51471 18.8052V17.4087C5.51471 16.9384 5.8167 16.5214 6.26345 16.3746C6.4989 16.2973 6.75369 16.3026 6.98571 16.3897L7.12802 16.4431C7.79172 16.6923 8.5043 16.766 9.19795 16.6627C9.52289 15.7198 10.229 14.9328 11.1748 14.5182Z" />
    <path d="M13.2474 20H13.2723C13.2642 20.0187 13.2559 20.0373 13.2474 20.0558V20Z" />
</svg>
