<svg id="team" viewBox="0 0 20 20">
  <path d="M6.86657437,15.5801347 C7.58520876,15.7682574 8.61292211,15.8834356 10,15.8834356 C11.3870779,15.8834356 12.4147912,15.7682574 13.1334256,15.5801347 C13.1334256,15.5801347 13.1334256,15.5801347 13.1334256,15.5801347 L13.1334256,15.5801347 C13.3467231,15.5242981 13.4743704,15.3061218 13.4185338,15.0928243 C13.4156155,15.0816766 13.412216,15.0706604 13.4083447,15.0598068 C13.3560829,14.9133484 13.3016442,14.8022725 13.245008,14.7265866 C13.048447,14.4639112 12.7512134,14.2644136 12.3414167,14.0828584 C12.1751031,14.0091753 11.493902,13.7453181 11.6235403,13.7970093 C10.8583075,13.4918853 10.4889643,13.1973464 10.4904585,12.5946518 C10.4894826,12.5804199 10.4894826,12.5804199 10.4878549,12.5450587 C10.4787009,12.3124853 10.4948505,12.0462084 10.5597349,11.7782171 C10.6248891,11.5091116 10.7329938,11.273234 10.9162262,11.070624 C11.3215627,10.6524954 11.5076401,10.2237165 11.5076401,9.57409489 C11.5076401,8.52183735 10.8166682,7.69529652 10,7.69529652 C9.18333181,7.69529652 8.49235993,8.52183735 8.49235993,9.57409489 C8.49235993,10.2233141 8.67417823,10.6409083 9.08236596,11.0798066 C9.25442021,11.2657361 9.36656959,11.4977744 9.43487978,11.7609169 C9.50592561,12.0345976 9.52317826,12.3065922 9.51239349,12.5456035 C9.51103565,13.1973374 9.14170293,13.4918771 8.37649193,13.7969964 C8.50598491,13.745362 7.82488309,14.0091814 7.6585833,14.0828584 C7.18242563,14.293814 6.85823893,14.5289935 6.66737023,14.859359 C6.63917247,14.9081651 6.61132271,14.9727022 6.58382094,15.0529703 L6.58380312,15.0529642 C6.5107355,15.2662232 6.62438304,15.4983368 6.83764199,15.5714044 C6.84717504,15.5746706 6.85682578,15.5775827 6.86657437,15.5801347 C6.86657437,15.5801347 6.86657437,15.5801347 6.86657437,15.5801347 Z M8.41301258,12.0555746 C8.38848883,11.9611049 8.35617332,11.8942438 8.32485707,11.8603996 C7.73348712,11.2245407 7.43293718,10.5342476 7.43293718,9.57409489 C7.43293718,7.93442756 8.56627192,6.57873211 10,6.57873211 C11.4337281,6.57873211 12.5670628,7.93442756 12.5670628,9.57409489 C12.5670628,10.5373024 12.2584598,11.2484176 11.6706597,11.8542617 C11.6419002,11.8861451 11.6102585,11.9551853 11.5862644,12.0542877 C11.5511914,12.1991492 11.5411139,12.3653087 11.5463673,12.4987805 C11.5470866,12.5141241 11.5470866,12.5141241 11.5483871,12.5527489 C11.5483871,12.5399871 11.6317888,12.6064972 11.9984178,12.7526844 C11.8450907,12.6915478 12.5594238,12.9682384 12.7519619,13.0535399 C13.9434799,13.5814266 14.6044143,14.3817972 14.6044143,15.8021897 L14.6044143,15.811279 C14.6044143,15.9821073 14.5261213,16.143513 14.3919611,16.2492643 C14.2305253,16.3765154 13.9120694,16.5267941 13.3888066,16.6637728 C12.5805555,16.8753551 11.468373,17 10,17 C8.53162703,17 7.41944446,16.8753551 6.61119342,16.6637728 C6.08793058,16.5267941 5.7694747,16.3765154 5.6080389,16.2492643 L5.6080389,16.2492643 C5.47387866,16.143513 5.39558574,15.9821073 5.39558574,15.811279 L5.39558574,15.8021897 C5.39558574,14.3817972 6.05652011,13.5814266 7.24803809,13.0535399 C7.44057617,12.9682384 8.15490931,12.6915478 8.00158221,12.7526844 C8.3631231,12.608526 8.44924343,12.5418485 8.45342959,12.5064246 C8.46012239,12.3605742 8.44975369,12.1971077 8.41301258,12.0555746 Z M3.47098863,12.0014026 C3.78075717,12.0824932 4.15745324,12.1514588 4.60692149,12.203346 C4.8087471,12.226645 5.13981933,12.2528572 5.60013818,12.2819824 L5.5522539,13.3974058 C5.06219408,13.3663747 4.70863249,13.3383301 4.49156913,13.313272 C3.99632282,13.2561001 3.57299989,13.1785981 3.21560769,13.0850407 C2.69234485,12.948062 2.37388896,12.7977833 2.21245316,12.6705322 L2.21245316,12.6705322 C2.07829293,12.5647809 2,12.4033752 2,12.2325469 L2,12.2234576 C2,10.8030651 2.66093437,10.0026945 3.85245235,9.47480778 C4.04447471,9.38973473 4.75550061,9.11429655 4.60720989,9.17346832 C4.96772733,9.02964676 5.05366231,8.96307734 5.05784385,8.92769246 C5.06453666,8.78184213 5.05416795,8.61837559 5.01742684,8.47684253 C4.99290309,8.38237283 4.96058758,8.3155117 4.92927133,8.28166745 C4.33790139,7.64580855 4.03735144,6.95551548 4.03735144,5.99536278 C4.03735144,4.35569545 5.17068619,3 6.60441426,3 C7.67849915,3 8.58399321,3.76086178 8.97068536,4.83197803 C9.05700455,5.07107749 9.13748521,5.33482507 9.21212735,5.62322077 L8.1527046,5.62322077 C8.05703849,5.35242305 7.95146001,5.11560067 7.83596917,4.91275364 C7.56018184,4.42836334 7.10600648,4.11656442 6.60441426,4.11656442 C5.78774607,4.11656442 5.09677419,4.94310524 5.09677419,5.99536278 C5.09677419,6.64458199 5.27859249,7.06217619 5.68678023,7.50107454 C5.85883447,7.68700398 5.97098386,7.91904226 6.03929404,8.18218479 C6.11033987,8.45586549 6.12759252,8.72786013 6.11680775,8.96687136 C6.11544992,9.61860526 5.74611719,9.91314495 4.98090619,10.2182643 C5.11039917,10.1666298 4.42929735,10.4304493 4.26299756,10.5041263 C3.73380435,10.7385786 3.39232121,11.0029516 3.21294235,11.3946582 C3.18987765,11.4450242 3.16663567,11.5138699 3.14321641,11.6011954 L3.14323196,11.6011996 C3.10123401,11.757801 3.19126735,11.9194342 3.34652355,11.9661607 C3.39177333,11.9797792 3.43326169,11.9915265 3.47098863,12.0014026 Z M16.5290114,12.0014026 C16.5664735,11.9915958 16.6076443,11.979944 16.652524,11.9664472 L16.652536,11.9664871 C16.80813,11.9196947 16.8982079,11.7575526 16.8557351,11.6007244 C16.8295817,11.5041548 16.8035144,11.4286792 16.777533,11.3742976 C16.5957213,10.9937475 16.2569747,10.7344933 15.7370024,10.5041263 C15.5707027,10.4304493 14.8896008,10.1666298 15.0190938,10.2182643 C14.2538828,9.91314495 13.8845501,9.61860526 13.8831923,8.96687136 C13.8724075,8.72786013 13.8896601,8.45586549 13.960706,8.18218479 C14.0290161,7.91904226 14.1411655,7.68700398 14.3132198,7.50107454 C14.7214075,7.06217619 14.9032258,6.64458199 14.9032258,5.99536278 C14.9032258,4.94310524 14.2122539,4.11656442 13.3955857,4.11656442 C12.9029372,4.11656442 12.4560297,4.41734333 12.1789526,4.88700809 C12.0574618,5.09294345 11.9600642,5.33834768 11.8867599,5.62322077 L10.8273371,5.62322077 C10.8731162,5.34911562 10.9369601,5.095158 11.018869,4.86134789 C11.3995118,3.77479702 12.3117095,3 13.3955857,3 C14.8293138,3 15.9626486,4.35569545 15.9626486,5.99536278 C15.9626486,6.95551548 15.6620986,7.64580855 15.0707287,8.28166745 C15.0394124,8.3155117 15.0070969,8.38237283 14.9825732,8.47684253 C14.945832,8.61837559 14.9354633,8.78184213 14.9421561,8.92769246 C14.9463423,8.96311643 15.0324626,9.02979388 15.3940035,9.17395233 C15.2406764,9.11281569 15.9550096,9.38950625 16.1475476,9.47480778 C17.3390656,10.0026945 18,10.8030651 18,12.2234576 L18,12.2325469 C18,12.4033752 17.9217071,12.5647809 17.7875468,12.6705322 C17.626111,12.7977833 17.3076552,12.948062 16.7843923,13.0850407 C16.4270001,13.1785981 16.0036772,13.2561001 15.5084309,13.313272 C15.2913675,13.3383301 15.1282552,13.3663747 15.0190938,13.3974058 L15.0190938,12.2819824 C15.8191932,12.1489896 16.322499,12.055463 16.5290114,12.0014026 Z"/>
</svg>