<svg id="twitter" viewBox="0 0 20 20">
  <path d="M16.3564147,6.73904872 C16.3653278,6.88165916 16.3653278,7.02337828 16.3653278,7.16509741 C16.3653278,11.5004548 13.0665701,16.4953854 7.03593115,16.4953854 C5.17753886,16.4953854 3.45195254,15.957031 2,15.0229326 C2.26382931,15.0541287 2.51696284,15.0639331 2.79148794,15.0639331 C4.32455016,15.0639331 5.73639352,14.546079 6.86301599,13.6627856 C5.46034143,13.6372467 4.22864481,12.7238577 3.79689154,11.3890404 C4.00011141,11.4193451 4.20333129,11.438954 4.41635563,11.438954 C4.71048967,11.438954 5.0046237,11.3988448 5.27914879,11.3275396 C3.74843643,11.0177368 2.64843994,9.67163942 2.64976882,8.10989157 L2.64976882,8.06889107 C3.08651329,8.31222013 3.59456298,8.46463504 4.13202607,8.48513529 C3.21817701,7.87703791 2.66943411,6.85182558 2.67026907,5.75414537 C2.67026907,5.14448574 2.83248844,4.5865224 3.11592669,4.09897296 C4.7818962,6.14948092 7.23975096,7.39671182 9.87833547,7.53053666 C9.82573521,7.28350019 9.79855704,7.03172876 9.79722578,6.77915791 C9.79651556,5.90925604 10.1417682,5.074779 10.756882,4.45966529 C11.3719957,3.84455157 12.2064727,3.49929889 13.0763746,3.50000911 C13.9841041,3.49786829 14.8519077,3.87301252 15.47223,4.53571743 C16.2066325,4.39414309 16.9108481,4.12602844 17.5534511,3.74333818 C17.3090592,4.50120749 16.7966122,5.14390541 16.1121943,5.5509255 C16.7632662,5.47660589 17.3995681,5.30536316 18,5.04287581 C17.5511454,5.69673701 16.9951828,6.27017695 16.3555234,6.73904872 L16.3564147,6.73904872 Z"/>
</svg>