<svg id="upload" viewBox="0 0 20 20">
  <path d="M15.7589924,6.38897276 C17.6926226,6.7109506 19.1666667,8.39166791 19.1666667,10.4166667 C19.1666667,12.6718294 17.3384961,14.5 15.0833333,14.5 L13.8609366,14.5 C13.446723,14.5 13.1109366,14.1642136 13.1109366,13.75 C13.1109366,13.3357864 13.446723,13 13.8609366,13 L15.0833333,13 C16.5100689,13 17.6666667,11.8434023 17.6666667,10.4166667 C17.6666667,8.98993106 16.5100689,7.83333333 15.0833333,7.83333333 L14.3333333,7.83333333 L14.3333333,7.08333333 C14.3333333,6.11683502 13.5498316,5.33333333 12.5833333,5.33333333 C12.1578556,5.33333333 11.757791,5.48474122 11.4422229,5.7564883 L10.8471393,6.26893624 L10.3625987,5.650917 C9.79666519,4.92908316 8.93447148,4.5 8,4.5 C6.34314575,4.5 5,5.84314575 5,7.5 C5,7.84555431 5.05813131,8.18211108 5.17051205,8.50006544 L5.5239382,9.5 L4.25,9.5 C3.28350169,9.5 2.5,10.2835017 2.5,11.25 C2.5,12.2164983 3.28350169,13 4.25,13 L5.52399362,13 C5.93820718,13 6.27399362,13.3357864 6.27399362,13.75 C6.27399362,14.1642136 5.93820718,14.5 5.52399362,14.5 L4.25,14.5 C2.45507456,14.5 1,13.0449254 1,11.25 C1,9.70004418 2.08500331,8.40350446 3.53691691,8.07847386 C3.5124076,7.88779201 3.5,7.69466874 3.5,7.5 C3.5,5.01471863 5.51471863,3 8,3 C9.15948883,3 10.2470883,3.44202869 11.0679072,4.20761967 C11.5284758,3.96453109 12.0462233,3.83333333 12.5833333,3.83333333 C14.1399442,3.83333333 15.4409581,4.92767402 15.7589924,6.38897276 Z M6.2996699,11.5319805 C6.00677668,11.2390873 6.00677668,10.7642136 6.2996699,10.4713204 L9.12809702,7.64289324 C9.51862131,7.25236895 10.1517863,7.25236895 10.5423106,7.64289324 L13.3707377,10.4713204 C13.6636309,10.7642136 13.6636309,11.2390873 13.3707377,11.5319805 C13.0778445,11.8248738 12.6029708,11.8248738 12.3100775,11.5319805 L10.6310683,9.85297129 L10.6310683,15.9599838 C10.6310683,16.3741973 10.2952819,16.7099838 9.88106829,16.7099838 C9.46685473,16.7099838 9.13106829,16.3741973 9.13106829,15.9599838 L9.13106829,9.76124232 L7.36033007,11.5319805 C7.06743685,11.8248738 6.59256312,11.8248738 6.2996699,11.5319805 Z"/>
</svg>