<svg id="user-rounded" viewBox="0 0 20 20">
  <path d="M16.4,15.8666667 C16.4,16.0906667 16.2613333,16.2805333 16.0661333,16.3594667 C15.8432,15.0176 14.9984,14.1888 13.6405333,13.6224 C13.4218667,13.5328 12.7082667,13.2704 12.6336,13.2448 C12.3786667,13.1477333 12.2186667,13.0741333 12.1290667,13.0133333 C12.1258667,12.8650667 12.1386667,12.6837333 12.1792,12.5269333 C12.2058667,12.4224 12.2389333,12.3552 12.2613333,12.3317333 C13.0485333,11.568 13.4656,10.6634667 13.4656,9.44426667 C13.4656,7.36533333 11.936,5.6448 10,5.6448 C8.064,5.6448 6.5344,7.36533333 6.5344,9.44426667 C6.5344,10.6592 6.9408,11.5370667 7.7344,12.3402667 C7.76,12.3669333 7.79413333,12.432 7.8208,12.5312 C7.86346667,12.6848 7.87733333,12.8650667 7.872,13.0133333 C7.7824,13.0741333 7.6224,13.1477333 7.3664,13.2448 C7.2928,13.2704 6.57813333,13.5328 6.36053333,13.6224 C5.00266667,14.1888 4.15786667,15.0176 3.93386667,16.3594667 C3.73866667,16.2816 3.6,16.0906667 3.6,15.8666667 L3.6,4.13333333 C3.6,3.83893333 3.84,3.6 4.13333333,3.6 L15.8666667,3.6 C16.1610667,3.6 16.4,3.83893333 16.4,4.13333333 L16.4,15.8666667 Z M7.92,14.7456 C8.9568,14.3552 9.46773333,13.9712 9.4688,13.1082667 C9.48373333,12.8021333 9.46026667,12.4565333 9.3632,12.1056 C9.26933333,11.7632 9.1136,11.4613333 8.8736,11.2170667 C8.35946667,10.6965333 8.1344,10.2112 8.1344,9.44426667 C8.1344,8.21013333 8.99306667,7.2448 10,7.2448 C11.008,7.2448 11.8656,8.21013333 11.8656,9.44426667 C11.8656,10.2112 11.6362667,10.7093333 11.1274667,11.2042667 C10.8682667,11.472 10.72,11.7792 10.6293333,12.1290667 C10.5418667,12.4714667 10.5194667,12.8096 10.5322667,13.1072 C10.5344,13.1530667 10.5344,13.1530667 10.5354667,13.1722667 C10.5333333,13.9712 11.0442667,14.3552 12.08,14.7456 C12.1642667,14.7754667 12.8405333,15.0229333 13.0250667,15.0997333 C13.8112,15.4272 14.2602667,15.7973333 14.4384,16.4 L5.5616,16.4 C5.7408,15.7973333 6.1888,15.4272 6.976,15.0997333 C7.16053333,15.0229333 7.83466667,14.7765333 7.92,14.7456 Z M15.8666667,2 L4.13333333,2 C2.95573333,2 2,2.95573333 2,4.13333333 L2,15.8666667 C2,17.0453333 2.95573333,18 4.13333333,18 L15.8666667,18 C17.0442667,18 18,17.0453333 18,15.8666667 L18,4.13333333 C18,2.95573333 17.0442667,2 15.8666667,2 Z"/>
</svg>