<svg id="user" viewBox="0 0 20 20">
  <path d="M4.27480067,15.5788555 C4.46241979,15.6493289 4.6953138,15.7210393 4.97762481,15.7907451 C6.13236699,16.0758643 7.77970068,16.25 10,16.25 C12.2202993,16.25 13.867633,16.0758643 15.0223752,15.7907451 C15.3046862,15.7210393 15.5375802,15.6493289 15.7251993,15.5788555 C15.5983237,14.4774932 14.9803761,13.8728683 13.7733251,13.3684697 C13.606156,13.2986136 13.4321022,13.2317806 13.2013981,13.1474943 C13.2550617,13.1670999 12.7540658,12.9856593 12.6248761,12.9370725 C11.43863,12.4909382 10.875,12.066988 10.8771407,11.2052234 C10.875679,11.1851522 10.875679,11.1851522 10.8731563,11.1334812 C10.8588712,10.7911536 10.8841398,10.3981809 10.9852093,10.0044418 C11.0857121,9.61291073 11.2517673,9.27116505 11.5296145,8.98133446 C12.1929469,8.33592793 12.5,7.66856599 12.5,6.66686892 C12.5,5.03712214 11.3592047,3.75 10,3.75 C8.64079533,3.75 7.5,5.03712214 7.5,6.66686892 C7.5,7.66773765 7.7999417,8.31751087 8.46661637,8.99363388 C8.72906092,9.26113673 8.90126846,9.59720151 9.00658259,9.97985029 C9.11711181,10.3814476 9.14407411,10.7823785 9.12726318,11.1337828 C9.12407496,11.1908013 9.12407496,11.1908013 9.125,11.1485976 C9.125,12.066988 8.56137005,12.4909382 7.37512387,12.9370725 C7.24593418,12.9856593 6.74493831,13.1670999 6.79860194,13.1474943 C6.56789784,13.2317806 6.39384395,13.2986136 6.22667493,13.3684697 C5.01962388,13.8728683 4.4016763,14.4774932 4.27480067,15.5788555 Z M2.75,16.0377562 C2.75,13.9409138 3.77899495,12.7655993 5.64832507,11.9844496 C5.84012695,11.9043001 6.03360165,11.8300098 6.28386334,11.7385783 C6.23878565,11.7550472 6.72802415,11.5778646 6.84709835,11.5330821 C7.46640773,11.3001666 7.625,11.1808769 7.62778697,11.0840013 C7.627485,11.0883491 7.627485,11.0883491 7.62897669,11.0621059 C7.63887029,10.8552966 7.62177078,10.6010259 7.56035736,10.3778862 C7.51758203,10.2224661 7.45933796,10.1088022 7.3972016,10.0454649 C6.46953613,9.10465693 6,8.08748593 6,6.66686892 C6,4.24630414 7.7693538,2.25 10,2.25 C12.2306462,2.25 14,4.24630414 14,6.66686892 C14,8.09185944 13.5179349,9.13959977 12.5946644,10.0372413 C12.5366833,10.0978699 12.479814,10.2149083 12.4381067,10.3773884 C12.3797234,10.604834 12.3631543,10.8625118 12.371852,11.0709415 C12.3730731,11.0955617 12.3730731,11.0955617 12.375,11.1485976 C12.375,11.1808769 12.5335923,11.3001666 13.1529016,11.5330821 C13.2719758,11.5778646 13.7612144,11.7550472 13.7161367,11.7385783 C13.9663983,11.8300098 14.159873,11.9043001 14.3516749,11.9844496 C16.2210051,12.7655993 17.25,13.9409138 17.25,16.0377562 L17.25,16.41472 L16.947485,16.6396342 C16.7008168,16.8230274 16.2046246,17.0438817 15.381944,17.247011 C14.1009858,17.5632943 12.3347397,17.75 10,17.75 C7.6652603,17.75 5.8990142,17.5632943 4.61805603,17.247011 C3.79537543,17.0438817 3.2991832,16.8230274 3.05251503,16.6396342 L2.75,16.41472 L2.75,16.0377562 Z"/>
</svg>