<svg id="volume-mute" viewBox="0 0 20 20">
  <path d="M4.41732946,12.9048286 L2.81964176,14.3077446 C2.48275566,14.1468858 2.25,13.8030387 2.25,13.4048286 L2.25,6.59517135 C2.25,6.0428866 2.69771525,5.59517135 3.25,5.59517135 L4.52731222,5.59517135 C4.72123957,5.29556612 4.9952979,4.95710146 5.36046207,4.62085778 C6.28946638,3.76542931 7.5026227,3.25 9,3.25 C9.41421356,3.25 9.75,3.58578644 9.75,4 L9.75,8.22225603 L8.25,9.53939326 L8.25,4.81079103 C7.49756658,4.93809941 6.88088684,5.25989714 6.37652571,5.72431357 C5.98186506,6.08771765 5.74423392,6.44589062 5.65005042,6.65418049 L5.45064532,7.09517135 L3.75,7.09517135 L3.75,12.9048286 L4.41732946,12.9048286 Z M6.94582501,14.6796061 C7.33297307,14.9237131 7.76602638,15.096982 8.25,15.1846116 C8.25,14.7824403 8.25,14.4808118 8.25,14.2797261 C8.25,14.114086 8.25,13.8656257 8.25,13.5343454 L9.75,12.217121 C9.75,12.7430653 9.75,13.1375236 9.75,13.4004958 C9.75,13.9781634 9.75,14.8446648 9.75,16 C9.75,16.4142136 9.41421356,16.75 9,16.75 C7.73555859,16.75 6.66281867,16.3607296 5.78467358,15.6992708 L6.94582501,14.6796061 Z M13.1979694,9.18928805 L14.501136,8.04491283 C14.6653084,8.67653585 14.75,9.3323297 14.75,10 C14.75,11.0478243 14.5414102,12.0663977 14.1443715,13.0081991 C14.1328828,13.0354511 14.1201673,13.0646263 14.1062251,13.0957246 L14.1062527,13.095737 C13.9451147,13.4551586 13.5231178,13.6158992 13.1636963,13.4547612 C13.1440103,13.4459355 13.124735,13.436221 13.1059297,13.4256479 C12.751374,13.226302 12.6043325,12.7915868 12.7650753,12.4179423 C12.7729955,12.3994984 12.7803982,12.3818808 12.7872713,12.3650844 C13.0908386,11.6232232 13.25,10.8236722 13.25,10 C13.25,9.72669825 13.2324768,9.45605216 13.1979694,9.18928805 Z M15.7800454,6.92183901 L16.9971442,5.85304417 C17.4915425,7.16344744 17.75,8.56337974 17.75,10 C17.75,11.6998647 17.3881456,13.3483643 16.7017379,14.8579624 C16.6734975,14.9200708 16.6396953,14.9911622 16.6003313,15.0712366 L16.6003442,15.071243 C16.4238097,15.4303503 15.9895861,15.5783547 15.6304788,15.4018201 C15.6184936,15.3959283 15.6066736,15.3897062 15.5950323,15.383161 C15.2366851,15.1816833 15.0967913,14.73628 15.2755886,14.3660941 C15.2982072,14.3193204 15.3183178,14.2765515 15.3359423,14.237798 C15.9345682,12.921521 16.25,11.4842764 16.25,10 C16.25,8.94105765 16.0894462,7.90605433 15.7800454,6.92183901 Z M18.4863803,2.54806414 C18.7610155,2.84089595 18.7462641,3.30091878 18.4534323,3.57555391 C18.4476472,3.58097952 18.4417737,3.58631009 18.4358142,3.59154347 L2.59249548,17.5043474 C2.27773902,17.7807507 1.80043832,17.7575137 1.51401966,17.4518427 C1.23927018,17.1586253 1.2542414,16.6981972 1.54745882,16.4234477 C1.5531779,16.4180888 1.55898319,16.4128227 1.56487242,16.4076514 L17.4081586,2.49579667 C17.7228161,2.21949858 18.1999228,2.24262662 18.4863803,2.54806414 Z"/>
</svg>