<svg xmlns="http://www.w3.org/2000/svg" xmlns:xlink="http://www.w3.org/1999/xlink" style="display:none">
    <symbol id="icon-chatpal-enter" fill="#FFFFFF" x="0px" y="0px" viewBox="0 0 100 100" enable-background="new 0 0 100 100" xml:space="preserve"><path d="M36.977,80.296c-0.401,0-0.807-0.121-1.158-0.371L6.906,59.326c-0.527-0.375-0.84-0.982-0.84-1.629  c0-0.646,0.313-1.253,0.839-1.629l28.912-20.606c0.901-0.641,2.148-0.432,2.79,0.468c0.641,0.899,0.432,2.148-0.468,2.79  L13.98,55.938h75.953V21.704c0-1.104,0.896-2,2-2s2,0.896,2,2v35.949c0,1.431-0.85,2.285-2.272,2.285H14.658l23.48,16.729  c0.9,0.641,1.109,1.89,0.469,2.79C38.217,80.004,37.602,80.296,36.977,80.296z"></path></symbol>
</svg>
