<svg xmlns="http://www.w3.org/2000/svg" xmlns:xlink="http://www.w3.org/1999/xlink" style="display:none">
    <style>.cls-1{fill:#444;}</style>
    <symbol id="icon-chatpal"  x="0px" y="0px" viewBox="0 0 75 75" style="enable-background:new 0 0 100 100;" xml:space="preserve">
    <g id="Ebene_2" data-name="Ebene 2"><g id="Ebene_1-2" data-name="Ebene 1"><path class="cls-1" d="M56.19,47.37A29.73,29.73,0,0,1,33.64,58C17.41,58,5.24,45.22,5.24,29S17.41,0,33.64,0a29.54,29.54,0,0,1,22,9.9L48.79,16A20.37,20.37,0,0,0,33.64,9.31c-11.1,0-18.37,8.83-18.37,19.69s7.28,19.69,18.37,19.69A20.23,20.23,0,0,0,49.74,40.8Z"/><path class="cls-1" d="M27.28,36.49a8.64,8.64,0,0,1,.1-2.44,2,2,0,0,0-1.26.57c-.88.81-.61,3.52-.61,3.52s2.68.49,3.56-.32a2.25,2.25,0,0,0,.67-1.21,9.42,9.42,0,0,1-2.46-.12Z"/><path class="cls-1" d="M37.4,27.18a1.62,1.62,0,1,1,2.28.09A1.62,1.62,0,0,1,37.4,27.18Zm-.19,8.5a1.86,1.86,0,0,0,0-1.57c8.28-7,7.52-13.71,7.52-13.71s-6.61-1.32-14.27,6.39a2,2,0,0,0-1.56-.11c-1,.37-6,3.51-5.72,4.19.14.37,2.23.24,4.11,0-.32,1,.6,2.39,1.93,3.86s2.68,2.47,3.69,2.23c-.41,1.86-.7,3.93-.35,4.1.66.28,4.19-4.41,4.64-5.37Z"/><path class="cls-1" d="M23.24,54.84c-.11.16-.23.31-.35.46a5.67,5.67,0,0,1-6,1.76L8,67.65a4.52,4.52,0,0,1-6.92-5.82L10,51.24a5.7,5.7,0,0,1-.58-3.17,5.57,5.57,0,0,1,1.29-3c.13-.15.26-.29.39-.42"/></g></g>
    </symbol>
</svg>
